<?xml version="1.0" encoding="UTF-8"?> <svg xmlns="http://www.w3.org/2000/svg" id="Layer_1" data-name="Layer 1" viewBox="0 0 60.03 41.44"><defs><style>.cls-1{fill:#fff;}</style></defs><path class="cls-1" d="M58.73,10.41c-2-4.56-6.54-7.66-12.64-8.72C36.18,0,24.36,4.2,18.42,11.09l-.08.08.19.26.1-.08A33.3,33.3,0,0,1,34.24,4.67c8.68-1.32,15.95.88,19.42,5.82s2.44,14.12-2,19.55l-.08.1.22.27.09-.09C58.71,23.84,62,17.69,58.73,10.41Z" transform="translate(0.03 -1.3)"></path><path class="cls-1" d="M50.84,30.8a42.38,42.38,0,0,1-17.43,8c-10.28,2.25-19.87.88-25-3.53A10.6,10.6,0,0,1,4.54,27.9c-.61-7.48,5-15.23,15-20.71l.1-.05-.11-.28h-.1C7.67,11.66-.6,20.5,0,28.91a12.68,12.68,0,0,0,4.41,8.82c5.47,4.77,15.16,6.24,25.92,4A42.37,42.37,0,0,0,51,31.09l.1-.11-.22-.23Z" transform="translate(0.03 -1.3)"></path><polygon class="cls-1" points="23.87 15.84 24.47 12.77 13.97 12.77 10.9 29.07 21.86 29.07 22.44 26 15.14 26 15.83 22.25 22.37 22.25 22.95 19.18 16.42 19.18 17.05 15.84 23.87 15.84"></polygon><path class="cls-1" d="M26.51,30.42h3.63l2.51-13.24h3.61a3.41,3.41,0,0,1,.94-1.76,4.61,4.61,0,0,1,2.26-1.37H25.59L25,17.18h4Z" transform="translate(0.03 -1.3)"></path><path class="cls-1" d="M37.18,19.1c0,2.34,2,3.63,3.85,4.41,1.65.72,2.4,1.3,2.4,2.18,0,1.28-1.33,1.83-2.65,1.83a8.75,8.75,0,0,1-4.41-1.18l-1.31,2.93a9.6,9.6,0,0,0,5.2,1.36c3.8,0,7.06-1.82,7.06-5.55,0-2.15-1.46-3.46-3.65-4.41C42.26,20,41,19.44,41,18.42c0-.78.88-1.57,2.59-1.57a7.54,7.54,0,0,1,3.46.79l1.19-3a9.29,9.29,0,0,0-4.34-.88C40.31,13.78,37.18,15.74,37.18,19.1Z" transform="translate(0.03 -1.3)"></path><path class="cls-1" d="M57.86,31a2.24,2.24,0,0,0-3.15,3.17A2.24,2.24,0,1,0,58,31.15L57.87,31Zm-.22,3a1.91,1.91,0,0,1-2.72,0,1.86,1.86,0,0,1-.57-1.37,1.93,1.93,0,0,1,3.26-1.36l0,0a1.93,1.93,0,0,1,0,2.74Z" transform="translate(0.03 -1.3)"></path><path class="cls-1" d="M57.26,33.69a.54.54,0,0,1,0-.18v-.18a.73.73,0,0,0-.14-.38.56.56,0,0,0-.42-.24,1.09,1.09,0,0,0,.36-.12.55.55,0,0,0,.24-.49.61.61,0,0,0-.38-.62,2,2,0,0,0-.68-.09h-.88v2.46h.43v-1h.35a.78.78,0,0,1,.47.09.57.57,0,0,1,.24.55v.33h.41A.22.22,0,0,1,57.26,33.69Zm-.65-1.16a1.13,1.13,0,0,1-.41,0h-.39V31.7h.37a1.21,1.21,0,0,1,.53.09.44.44,0,0,1-.1.74Z" transform="translate(0.03 -1.3)"></path></svg> 