<?xml version="1.0" encoding="UTF-8"?> <svg xmlns="http://www.w3.org/2000/svg" id="Layer_1" data-name="Layer 1" viewBox="0 0 108.38 97"><defs><style>.cls-1{fill:#009ca6;}.cls-2{fill:#ffb000;}.cls-3{fill:none;stroke:#00263e;stroke-miterlimit:10;stroke-width:6px;}</style></defs><title>Fashion Icon_Teal_RGB</title><rect class="cls-1" x="24.21" y="32" width="6" height="65"></rect><rect class="cls-1" x="78.21" y="32" width="6" height="65"></rect><rect class="cls-1" x="25.21" y="90" width="56" height="7"></rect><circle class="cls-2" cx="32.91" cy="4.5" r="4.5"></circle><path class="cls-1" d="M116.7,65c-7.23,0-13.24-6.79-14-15.79l-.23-2.71h28.44l-.23,2.71C129.94,58.18,123.93,65,116.7,65Zm-8.56-13.5c1.27,4.94,4.71,8.5,8.56,8.5s7.29-3.56,8.56-8.5Z" transform="translate(-62.29 -45)"></path><polygon class="cls-1" points="104.05 35.08 80.65 10.7 66.97 7.28 68.42 1.46 83.78 5.3 108.38 30.92 104.05 35.08"></polygon><path class="cls-3" d="M129.82,49.33" transform="translate(-62.29 -45)"></path><path class="cls-3" d="M128.5,49" transform="translate(-62.29 -45)"></path><rect class="cls-1" x="75.6" y="81.61" width="15.7" height="7" transform="translate(-98.03 40.1) rotate(-45.56)"></rect><rect class="cls-1" x="70.58" y="73.39" width="6" height="18.22" transform="translate(-99.21 34.4) rotate(-46.67)"></rect><rect class="cls-1" x="59.12" y="62.5" width="34.66" height="6" transform="translate(-86.03 30.29) rotate(-46.17)"></rect><rect class="cls-1" x="145.95" y="77.25" width="7" height="15.7" transform="translate(-79.13 83.99) rotate(-44.44)"></rect><rect class="cls-1" x="150.22" y="79.5" width="18.22" height="6" transform="translate(-75.47 86.82) rotate(-43.33)"></rect></svg> 