<?xml version="1.0" encoding="UTF-8"?> <svg xmlns="http://www.w3.org/2000/svg" id="Layer_1" data-name="Layer 1" viewBox="0 0 127.08 107.68"><defs><style>.cls-1{fill:#ffb000;}.cls-2{fill:#009ca6;}</style></defs><title>Marketplace Icon_Teal_RGB</title><circle class="cls-1" cx="5.67" cy="5.67" r="5.67"></circle><path class="cls-2" d="M146.3,204.67a9.59,9.59,0,1,1,9.59-9.58A9.6,9.6,0,0,1,146.3,204.67Zm0-14.17a4.59,4.59,0,1,0,4.59,4.59A4.6,4.6,0,0,0,146.3,190.5Z" transform="translate(-85.93 -96.99)"></path><path class="cls-2" d="M187.17,204.67a9.59,9.59,0,1,1,9.59-9.58A9.59,9.59,0,0,1,187.17,204.67Zm0-14.17a4.59,4.59,0,1,0,4.59,4.59A4.59,4.59,0,0,0,187.17,190.5Z" transform="translate(-85.93 -96.99)"></path><path class="cls-2" d="M203.14,168.46H135a3.5,3.5,0,0,1,0-7h62.47l7-33.81H125.55a3.5,3.5,0,1,1,0-7H213Z" transform="translate(-85.93 -96.99)"></path><polygon class="cls-2" points="111.31 86.21 49.66 86.21 31.88 9.17 16.3 9.17 16.3 2.17 37.45 2.17 55.23 79.21 111.31 79.21 111.31 86.21"></polygon></svg> 