<?xml version="1.0" encoding="UTF-8"?> <svg xmlns="http://www.w3.org/2000/svg" id="Layer_1" data-name="Layer 1" viewBox="0 0 450.3 350.57"><defs><style>.cls-1{opacity:0.71;}.cls-2,.cls-5,.cls-6{fill:none;}.cls-2,.cls-3,.cls-6{stroke:#fff;stroke-miterlimit:10;}.cls-2,.cls-3{stroke-width:3.15px;}.cls-3,.cls-7{fill:#fff;}.cls-4{opacity:0.81;}.cls-6{stroke-width:15px;}.cls-8{fill:orange;}</style></defs><title>Online to offline_RGB_V1.2</title><g class="cls-1"><path class="cls-2" d="M126.4,314.9" transform="translate(-10 -43.2)"></path></g><g class="cls-1"><path class="cls-3" d="M171.4,287.5" transform="translate(-10 -43.2)"></path></g><g class="cls-4"><path class="cls-2" d="M157.5,274.7" transform="translate(-10 -43.2)"></path></g><g class="cls-4"><path class="cls-2" d="M122,309.8" transform="translate(-10 -43.2)"></path></g><g class="cls-1"><path class="cls-2" d="M407.2,287" transform="translate(-10 -43.2)"></path></g><g class="cls-1"><path class="cls-2" d="M449.1,319" transform="translate(-10 -43.2)"></path></g><g class="cls-1"><path class="cls-2" d="M46.1,182.2" transform="translate(-10 -43.2)"></path></g><g class="cls-4"><path class="cls-2" d="M44.5,182.3" transform="translate(-10 -43.2)"></path></g><g class="cls-4"><path class="cls-2" d="M105.6,187.3" transform="translate(-10 -43.2)"></path></g><g class="cls-4"><path class="cls-2" d="M157.8,239" transform="translate(-10 -43.2)"></path></g><g class="cls-4"><path class="cls-3" d="M282.9,263.8" transform="translate(-10 -43.2)"></path></g><g class="cls-4"><path class="cls-2" d="M324.7,314.3" transform="translate(-10 -43.2)"></path></g><g class="cls-1"><path class="cls-2" d="M346.7,168.1" transform="translate(-10 -43.2)"></path></g><g class="cls-1"><path class="cls-3" d="M278,209.7" transform="translate(-10 -43.2)"></path></g><g class="cls-1"><path class="cls-3" d="M280.5,278.3" transform="translate(-10 -43.2)"></path></g><g class="cls-1"><path class="cls-2" d="M323.6,320.8" transform="translate(-10 -43.2)"></path></g><g class="cls-1"><path class="cls-2" d="M442.5,295.9" transform="translate(-10 -43.2)"></path></g><g class="cls-1"><path class="cls-2" d="M405.3,324.3" transform="translate(-10 -43.2)"></path></g><g class="cls-4"><path class="cls-2" d="M352.3,175" transform="translate(-10 -43.2)"></path></g><g class="cls-4"><path class="cls-3" d="M284.5,234.7" transform="translate(-10 -43.2)"></path></g><g class="cls-4"><path class="cls-2" d="M439.6,283.2" transform="translate(-10 -43.2)"></path></g><g class="cls-4"><path class="cls-2" d="M404.1,318.3" transform="translate(-10 -43.2)"></path></g><circle class="cls-5" cx="384.6" cy="174.3" r="62.2"></circle><path class="cls-6" d="M388.6,151.7" transform="translate(-10 -43.2)"></path><path class="cls-6" d="M384.4,294.4" transform="translate(-10 -43.2)"></path><path class="cls-6" d="M383.9,295.1" transform="translate(-10 -43.2)"></path><path class="cls-6" d="M85.55,295.26a11.69,11.69,0,0,1,.65,1.34c43.1,82,144.6,113.5,226.5,70.3a167.13,167.13,0,0,0,70.59-70.7" transform="translate(-10 -43.2)"></path><path class="cls-6" d="M85.4,295" transform="translate(-10 -43.2)"></path><path class="cls-6" d="M84.6,293.5" transform="translate(-10 -43.2)"></path><path class="cls-6" d="M83.8,291.7" transform="translate(-10 -43.2)"></path><path class="cls-6" d="M366.4,114.5C317.3,52.2,229.3,31.8,156.7,70a167.08,167.08,0,0,0-70.8,71.2" transform="translate(-10 -43.2)"></path><polygon class="cls-7" points="370.3 54.2 373.2 97.2 334.6 78.2 370.3 54.2"></polygon><path class="cls-8" d="M396.4,283.4l-.3-7.5a57.59,57.59,0,0,0,14.3-2.2l2,7.2A56.35,56.35,0,0,1,396.4,283.4Zm-11.3-.7a66.28,66.28,0,0,1-15.7-4.2l2.8-6.9a60.11,60.11,0,0,0,13.8,3.8Zm38.1-5.8-3.2-6.7a57.57,57.57,0,0,0,12-7.8l4.9,5.7A65,65,0,0,1,423.2,276.9Zm-63.8-3.5a64.46,64.46,0,0,1-10.9-8.6l-1.7-1.7,5.4-5.1a18.48,18.48,0,0,0,1.4,1.4,62.84,62.84,0,0,0,9.6,7.6Zm85.4-13.1-5.7-4.9a56.62,56.62,0,0,0,7.9-12l6.7,3.2A62,62,0,0,1,444.8,260.3Zm-105.1-6.2a68.3,68.3,0,0,1-7.4-14.5l6.9-2.5a53.88,53.88,0,0,0,6.5,12.9Zm118.1-18-7.1-2.2a48.79,48.79,0,0,0,2.2-14.1l7.4.3A56.91,56.91,0,0,1,457.8,236.1Zm-128.3-7.3a60.88,60.88,0,0,1-1-11.3,40.15,40.15,0,0,1,.2-4.9l7.4.5a32.4,32.4,0,0,0-.2,4.4,68.74,68.74,0,0,0,.8,10.1Zm123.1-19.1a46.2,46.2,0,0,0-3.7-13.8l6.9-2.7a66.06,66.06,0,0,1,4.1,15.7Zm-114.7-6.5-7.2-1.8a64.53,64.53,0,0,1,5.8-15.1l6.5,3.5A54.46,54.46,0,0,0,337.9,203.2Zm106.5-16.4a50.83,50.83,0,0,0-9.1-11.1l5.1-5.5.2.2A76.46,76.46,0,0,1,450.7,183Zm-95.8-5.5-5.8-4.5a38.73,38.73,0,0,1,4.7-5.2,78,78,0,0,1,6.8-6.1l4.5,5.9a63.52,63.52,0,0,0-6.1,5.4A34.72,34.72,0,0,0,348.6,181.3Zm78.9-12.2a55.08,55.08,0,0,0-12.8-6.5l2.5-6.9a68.4,68.4,0,0,1,14.5,7.4Zm-60.2-3.4-3.5-6.5a71.26,71.26,0,0,1,15.1-5.8l1.7,7.2A59.83,59.83,0,0,0,367.3,165.7ZM405,160a58.36,58.36,0,0,0-14.5-.8l-.5-7.4a71.9,71.9,0,0,1,16.1.8Z" transform="translate(-10 -43.2)"></path><circle class="cls-5" cx="66" cy="174.3" r="61.5"></circle><path class="cls-8" d="M74.5,279.2a4.38,4.38,0,0,1,4.2-4.6h0a4.54,4.54,0,0,1,4.7,4.2h0a4.38,4.38,0,0,1-4.2,4.6h-.3A4.34,4.34,0,0,1,74.5,279.2Zm-16,1.9h0a4.32,4.32,0,0,1-3.1-5.4h0a4.32,4.32,0,0,1,5.4-3.1h0a4.32,4.32,0,0,1,3.1,5.4h0a4.38,4.38,0,0,1-4.2,3.2h0C59.3,281.3,58.9,281.1,58.5,281.1Zm35-4.6a4.52,4.52,0,0,1,2.5-5.7h0a4.52,4.52,0,0,1,5.7,2.5h0a4.68,4.68,0,0,1-2.5,5.8h0a2.7,2.7,0,0,1-1.5.3h0A4.52,4.52,0,0,1,93.5,276.5Zm-53.8-3.9a4.3,4.3,0,0,1-1.3-6.1h0a4.2,4.2,0,0,1,6.1-1.2h0a4.2,4.2,0,0,1,1.2,6.1h0a4.41,4.41,0,0,1-3.8,2.1h0A12.78,12.78,0,0,1,39.7,272.6Zm71.2-4.3a4.56,4.56,0,0,1,.7-6.3h0a4.56,4.56,0,0,1,6.3.7h0a4.56,4.56,0,0,1-.7,6.3h0a4.78,4.78,0,0,1-2.8,1h0A5.09,5.09,0,0,1,110.9,268.3Zm-86.4-9.6a4.56,4.56,0,0,1,.7-6.3h0a4.56,4.56,0,0,1,6.3.7h0a4.56,4.56,0,0,1-.7,6.3h0a4.78,4.78,0,0,1-2.8,1h0A4.56,4.56,0,0,1,24.5,258.7ZM125,255a4.2,4.2,0,0,1-1.2-6.1h0a4.2,4.2,0,0,1,6.1-1.2h0a4.3,4.3,0,0,1,1.3,6.1h0a4.41,4.41,0,0,1-3.8,2.1h0A4.44,4.44,0,0,1,125,255ZM14.2,240.8h0a4.68,4.68,0,0,1,2.5-5.8h0a4.52,4.52,0,0,1,5.7,2.5h0a4.52,4.52,0,0,1-2.5,5.7h0a2.7,2.7,0,0,1-1.5.3h0A4.2,4.2,0,0,1,14.2,240.8Zm119.9-2.7a4.32,4.32,0,0,1-3.1-5.4h0a4.32,4.32,0,0,1,5.4-3.1h0a4.32,4.32,0,0,1,3.1,5.4h0a4.21,4.21,0,0,1-4.2,3.2h0A4.87,4.87,0,0,0,134.1,238.1ZM10,220.6a4.38,4.38,0,0,1,4.2-4.6h0a4.38,4.38,0,0,1,4.6,4.2h0a4.38,4.38,0,0,1-4.2,4.6h-.3A4.53,4.53,0,0,1,10,220.6Zm123.1-5.8a4.38,4.38,0,0,1,4.2-4.6h0a4.44,4.44,0,0,1,4.6,4.2h0a4.44,4.44,0,0,1-4.2,4.6h-.3A4.25,4.25,0,0,1,133.1,214.8ZM15.5,205.5a4.32,4.32,0,0,1-3.1-5.4h0V200h0v-.1h0a4.32,4.32,0,0,1,5.4-3.1h0a4.32,4.32,0,0,1,3.1,5.4h0v.1h0v.1h0a4.21,4.21,0,0,1-4.2,3.2h0A4.48,4.48,0,0,1,15.5,205.5Zm114-8.2a4.52,4.52,0,0,1,2.5-5.7h0a4.52,4.52,0,0,1,5.7,2.5h0a4.52,4.52,0,0,1-2.5,5.7h0a2.7,2.7,0,0,1-1.5.3h0A4.29,4.29,0,0,1,129.5,197.3ZM22.2,187.2a4.2,4.2,0,0,1-1.2-6.1h0a4.2,4.2,0,0,1,6.1-1.2h0a4.3,4.3,0,0,1,1.3,6.1h0a4.41,4.41,0,0,1-3.8,2.1h0A11.72,11.72,0,0,1,22.2,187.2Zm98.5-5.5h0a4.56,4.56,0,0,1,.7-6.3h0a4.56,4.56,0,0,1,6.3.7h0a4.56,4.56,0,0,1-.7,6.3h0a4.78,4.78,0,0,1-2.8,1h0A3.79,3.79,0,0,1,120.7,181.7Zm-86.5-9.6a4.56,4.56,0,0,1,.7-6.3h0a4.56,4.56,0,0,1,6.3.7h0a4.56,4.56,0,0,1-.7,6.3h0a4.78,4.78,0,0,1-2.8,1h0A4.27,4.27,0,0,1,34.2,172.1Zm73.3-2.3a4.2,4.2,0,0,1-1.2-6.1h0a4.2,4.2,0,0,1,6.1-1.2h0a4.2,4.2,0,0,1,1.2,6.1h0a4.24,4.24,0,0,1-3.8,1.9h0A3.61,3.61,0,0,1,107.5,169.8Zm-57.3-8.4a4.52,4.52,0,0,1,2.5-5.7h0a4.52,4.52,0,0,1,5.7,2.5h0a4.52,4.52,0,0,1-2.5,5.7h0a2.7,2.7,0,0,1-1.5.3h0A4.29,4.29,0,0,1,50.2,161.4Zm41,.9a4.32,4.32,0,0,1-3.1-5.4h0a4.32,4.32,0,0,1,5.4-3.1h0a4.32,4.32,0,0,1,3.1,5.4h0a4.38,4.38,0,0,1-4.2,3.2h0A1.23,1.23,0,0,1,91.2,162.3Zm-22.4-6.1a4.44,4.44,0,0,1,4.2-4.6h0a4.38,4.38,0,0,1,4.6,4.2h0a4.44,4.44,0,0,1-4.2,4.6h-.3A4.53,4.53,0,0,1,68.8,156.2Z" transform="translate(-10 -43.2)"></path><g class="cls-4"><path class="cls-7" d="M229.5,272.4A56.36,56.36,0,0,1,176,213.3a54.28,54.28,0,0,1,11-30.6l6.6,4.9a47,47,0,0,0-9.3,26.2,48.21,48.21,0,1,0,50.6-45.7,47.5,47.5,0,0,0-25.1,5.6l-3.9-7.3a56.4,56.4,0,1,1,23.6,106" transform="translate(-10 -43.2)"></path><rect class="cls-7" x="286.1" y="242.11" width="8.2" height="49.3" transform="translate(-113.63 240.13) rotate(-45)"></rect><path class="cls-7" d="M204.5,176.5a6.6,6.6,0,0,1-6.9,6.3,6.61,6.61,0,1,1,.6-13.2,6.48,6.48,0,0,1,6.3,6.9" transform="translate(-10 -43.2)"></path><path class="cls-7" d="M241.3,216.9a8.91,8.91,0,1,1-8.4-9.4,8.93,8.93,0,0,1,8.4,9.4" transform="translate(-10 -43.2)"></path><path class="cls-7" d="M232.1,239c-13.1,0-25.8-6.7-37.5-20l-2.2-2.4,2.2-2.4c12.1-13.7,25.2-20.5,38.8-20,21.7.7,36.3,19.4,36.9,20.1l1.7,2.3-1.6,2.3c-.7.5-15.4,19.3-36.9,20A6.6,6.6,0,0,1,232.1,239Zm-29.7-22.4c10,10.3,20.1,15.4,30.6,15.1,14-.4,25-10.5,29.3-15.1-4.3-4.7-15.4-14.6-29.3-15.1C222.7,201.2,212.3,206.2,202.4,216.6Z" transform="translate(-10 -43.2)"></path></g><g class="cls-4"><polygon class="cls-7" points="418.4 204 349.6 204 349.6 166.5 354.1 166.5 354.1 199.6 413.9 199.6 413.9 166.5 418.4 166.5 418.4 204"></polygon><path class="cls-7" d="M382.4,241.3H366.1V230.1h16.3Zm-13.1-3.2h9.9v-4.9h-9.9Z" transform="translate(-10 -43.2)"></path><rect class="cls-7" x="407.8" y="184.4" width="3.1" height="12"></rect><rect class="cls-7" x="399.7" y="184.4" width="3.1" height="12"></rect><polygon class="cls-7" points="423.9 169.2 344.2 169.2 344.2 156.8 348.7 156.8 348.7 164.8 419.4 164.8 419.4 152.6 353 152.6 353 148.2 423.9 148.2 423.9 169.2"></polygon><circle class="cls-7" cx="346.6" cy="150.5" r="3.6"></circle></g><g class="cls-4"><polygon class="cls-7" points="105.5 203.3 28.1 203.3 28.1 157.6 33 157.6 33 198.3 100.5 198.3 100.5 152.4 38.1 152.4 38.1 147.4 105.5 147.4 105.5 203.3"></polygon><circle class="cls-7" cx="30.5" cy="149.9" r="4"></circle><circle class="cls-7" cx="30.5" cy="149.9" r="4"></circle><path class="cls-7" d="M106.6,237.1H75.5v-1.8a15.5,15.5,0,0,1,31,0v1.8Zm-27.3-3.6h23.6a11.93,11.93,0,0,0-23.6,0Z" transform="translate(-10 -43.2)"></path><path class="cls-7" d="M91.1,219.1a10.5,10.5,0,1,1,10.5-10.5A10.56,10.56,0,0,1,91.1,219.1Zm0-17.5a6.9,6.9,0,1,0,6.9,6.9A6.85,6.85,0,0,0,91.1,201.6Z" transform="translate(-10 -43.2)"></path><rect class="cls-7" x="39.8" y="157.9" width="21.4" height="3.6"></rect><rect class="cls-7" x="39.8" y="167.3" width="21.4" height="3.6"></rect><rect class="cls-7" x="39.8" y="176.6" width="21.4" height="3.6"></rect></g></svg> 