<?xml version="1.0" encoding="UTF-8"?> <svg xmlns="http://www.w3.org/2000/svg" id="Layer_1" data-name="Layer 1" viewBox="0 0 115.17 126.76"><defs><style>.cls-1{fill:#ffb000;}.cls-2{opacity:0.81;}.cls-3{fill:#fff;}</style></defs><title>White paper Icon_White_RGB</title><circle class="cls-1" cx="5.67" cy="5.67" r="5.67"></circle><g class="cls-2"><polygon class="cls-3" points="115.17 126.76 16.17 126.76 16.17 112 23.17 112 23.17 119.76 108.17 119.76 108.17 22.26 95.62 22.26 95.62 15.26 115.17 15.26 115.17 126.76"></polygon><rect class="cls-3" x="21.7" y="40.59" width="60.4" height="5"></rect><rect class="cls-3" x="21.7" y="25.74" width="60.4" height="5"></rect><rect class="cls-3" x="2.17" y="15.61" width="7" height="93.5"></rect><rect class="cls-3" x="15.37" y="2.16" width="86" height="7"></rect><rect class="cls-3" x="136.98" y="143.37" width="105.25" height="7" transform="translate(-49.47 249.8) rotate(-89.89)"></rect><rect class="cls-3" x="21.7" y="55.59" width="60.4" height="5"></rect><rect class="cls-3" x="21.7" y="70.59" width="60.4" height="5"></rect><rect class="cls-3" x="21.7" y="84.61" width="41.47" height="5"></rect><rect class="cls-3" x="2.17" y="106.61" width="99" height="7"></rect></g></svg> 