<?xml version="1.0" encoding="UTF-8"?> <svg xmlns="http://www.w3.org/2000/svg" id="Layer_1" data-name="Layer 1" viewBox="0 0 113.3 95.69"><defs><style>.cls-1{fill:#009ca6;}.cls-2{fill:#ffb000;}</style></defs><path class="cls-1" d="M171.11,163.35l-52.67-23.29V100.52l52.67-23.29ZM125.44,135.5l38.67,17.1V88l-38.67,17.1Z" transform="translate(-67.86 -77.23)"></path><polygon class="cls-1" points="54.31 63.98 20.82 63.98 20.82 36.55 27.82 36.55 27.82 56.98 54.31 56.98 54.31 63.98"></polygon><rect class="cls-1" x="33.95" y="22.14" width="20.36" height="7"></rect><path class="cls-1" d="M88.78,141.21a20.93,20.93,0,0,1-8.41-40.09l2.81,6.41a13.93,13.93,0,0,0,5.6,26.68Z" transform="translate(-67.86 -77.23)"></path><path class="cls-1" d="M170.09,131.35v-5a6.07,6.07,0,1,0,0-12.13v-5a11.07,11.07,0,1,1,0,22.13Z" transform="translate(-67.86 -77.23)"></path><path class="cls-1" d="M109,152.2v-5a6.07,6.07,0,0,0,6.07-6.06h5A11.07,11.07,0,0,1,109,152.2Z" transform="translate(-67.86 -77.23)"></path><polygon class="cls-1" points="41.22 95.69 20.82 95.69 20.82 60.94 27.82 60.94 27.82 88.69 34.22 88.69 34.22 60.94 41.22 60.94 41.22 95.69"></polygon><circle class="cls-2" cx="23.84" cy="26.54" r="5.67"></circle></svg> 