<?xml version="1.0" encoding="UTF-8"?> <svg xmlns="http://www.w3.org/2000/svg" id="svg3009" viewBox="0 0 139.84 102.48"><defs><style>.cls-1{fill:#0096d6;}</style></defs><g id="g3017"><g id="g3061"><g id="g3021"><path id="path3023" class="cls-1" d="M119.82,51.24a49.9,49.9,0,0,0-49.9-49.9c-.75,0-1.5,0-2.24,0L57.47,29.45h8.89c5.29,0,8.14,4.07,6.33,9L60.1,73.09H49.53L63,36H55.09L41.58,73.09H31L46.89,29.45h0L56.45,3.18a49.92,49.92,0,0,0,1.88,96.61l9.26-25.45h0L83.94,29.45h19.47c5.29,0,8.14,4.07,6.33,9L98.68,68.88a6.87,6.87,0,0,1-6,4.21h-14l-10.19,28,1.48,0a49.9,49.9,0,0,0,49.9-49.9"></path></g><g id="g3025"><path id="path3027" class="cls-1" d="M100.11,36H92.17L81,66.51H89L100.11,36"></path></g></g></g></svg> 