<?xml version="1.0" encoding="UTF-8"?> <svg xmlns="http://www.w3.org/2000/svg" xmlns:xlink="http://www.w3.org/1999/xlink" version="1.1" id="Layer_1" x="0px" y="0px" viewBox="0 0 1000 333.6" style="enable-background:new 0 0 1000 333.6;" xml:space="preserve"> <style type="text/css"> .st0{fill:#E1140A;} </style> <g id="g40"> <g id="g46" transform="translate(6137.9668,1926.7244)"> <path id="path48" class="st0" d="M-5829.4-1768.3c-5-10.7-14.6-18-27.3-18c-11.6,0-21.1,4.7-27.1,12.8c-5.5,7.4-8.8,17.6-7.1,30.7 L-5829.4-1768.3z M-6044.6-1850.5h35.7v134.4h80.1v32.4h-115.9V-1850.5z M-5857.3-1814.3c21.3,0,38.9,7.3,50.7,21 c8.1,9.5,13.4,21.9,15.4,35.8l-90.1,37.4c6.7,6.6,16.3,10.4,28.4,10.4c13.5,0,22-2.6,36.9-13.6l22.3,17.1 c-11.4,13.2-35.8,24.5-59.7,24.5c-42.6,0-71.9-27.6-71.9-66.4C-5925.3-1785.7-5896.1-1814.3-5857.3-1814.3 M-5778.5-1812.1h35.3 l0,18.4l0,0l0,0c10.3-13.7,27.1-20.6,41.9-20.6c31,0,52.1,21.4,52.1,51v79.6h-35.3v-73.1c0-17-15.1-27.1-29.7-27.1 c-18.9,0-29.1,14-29.1,27.1v73.1h-35.3L-5778.5-1812.1z M-5566.1-1814.3c38.6,0,68.8,28.7,68.8,66.4c0,37.2-30.4,66.4-69.2,66.4 c-38.6,0-68.8-28.7-68.8-66.4C-5635.3-1785.1-5604.9-1814.3-5566.1-1814.3 M-5462.4-1812.1l31.9,87.5l31.9-87.5h40.3l-52.8,128.4 h-38.6l-52.8-128.4H-5462.4z M-5294.6-1814.3c38.6,0,68.8,28.7,68.8,66.4c0,37.2-30.4,66.4-69.2,66.4c-38.6,0-68.8-28.7-68.8-66.4 C-5363.9-1785.1-5333.4-1814.3-5294.6-1814.3 M-6137.5-1593.1h1000v-333.6h-1000V-1593.1z M-5566.1-1711.8c19.7,0,34-15.3,34-36.1 c0-20.3-15.1-36.2-34.5-36.2c-19.7,0-34,14.9-34,36.2C-5600.5-1727.7-5585.4-1711.8-5566.1-1711.8 M-5294.6-1711.8 c19.7,0,34-15.3,34-36.1c0-20.3-15.1-36.2-34.5-36.2c-19.7,0-34,14.9-34,36.2C-5329.1-1727.7-5313.9-1711.8-5294.6-1711.8"></path> </g> </g> </svg> 