<?xml version="1.0" encoding="UTF-8"?> <svg xmlns="http://www.w3.org/2000/svg" id="Layer_1" data-name="Layer 1" viewBox="0 0 117.77 107.17"><defs><style>.cls-1{fill:#fff;}.cls-2{fill:#ffb000;}</style></defs><title>Ad monitoring Icon_Negative_RGB</title><rect class="cls-1" x="37.67" y="102.17" width="43.19" height="5"></rect><circle class="cls-2" cx="5.67" cy="5.67" r="5.67"></circle><polygon class="cls-1" points="117.77 91.9 2.17 91.9 2.17 16.3 9.17 16.3 9.17 84.9 110.77 84.9 110.77 9.17 16.3 9.17 16.3 2.17 117.77 2.17 117.77 91.9"></polygon><path class="cls-1" d="M95.68,125.57c0-1.89,1.32-3.12,2.55-4.38.93-1,1.89-2.1,1.89-3.45a2.18,2.18,0,0,0-2.37-2.34,3.82,3.82,0,0,0-3,1.62l-2.85-2.61a8,8,0,0,1,6.15-2.76c3.36,0,6.36,1.92,6.36,5.85,0,2.34-1.32,3.9-2.67,5.19-1.2,1.14-2.4,2-2.46,3.09l-.12,1.29H95.68ZM95,131.84a2.46,2.46,0,1,1,2.49,2.43A2.45,2.45,0,0,1,95,131.84Z" transform="translate(-61.53 -73.71)"></path><path class="cls-1" d="M158.51,95.49v28.68H128.83V95.49h29.68m5-5H123.83v38.68h39.68V90.49Z" transform="translate(-61.53 -73.71)"></path><path class="cls-1" d="M112.87,95.49v51.57H83.19V95.49h29.68m5-5H78.19v61.57h39.68V90.49Z" transform="translate(-61.53 -73.71)"></path><path class="cls-1" d="M141.21,119a2.46,2.46,0,1,1,2.49,2.43A2.45,2.45,0,0,1,141.21,119Zm.36-19.92h4.29l-.66,15.09h-2.94Z" transform="translate(-61.53 -73.71)"></path></svg> 