<?xml version="1.0" encoding="UTF-8"?> <svg xmlns="http://www.w3.org/2000/svg" id="layer" viewBox="0 0 599.9 61.3"><defs><style>.cls-1{fill:#6e777e;}</style></defs><title>Devialet logo_grey</title><path class="cls-1" d="M110.4,15.7h43.3V25.9H120.8V37.6h32.6V47.8H120.8V59.5h32.6V69.7H110.1v-54ZM488.3,69.4h43.3V59.2H499V47.7h32.6V37.5H499v-12h32.6V15.3H488v54h.3ZM215.4,51.9,197.6,15.7H185.9l29.3,60.9,29.6-60.9h-12Zm61.4,17.8h10.7V15.4H276.8Zm75.2-54,26.5,53.8H366.8l-6.6-13.2H335.7l-6.6,13.2H317.4l26.2-53.8ZM355.3,46l-7.1-14.5-7.1,14.3Zm63.4-30.3H408V69.5h42.8V59.3H418.7V15.7Zm150.1,0V25.9h20.6V69.5h10.7V25.7h20.6V15.5h-52ZM77.1,42.4c0,15.5-10.4,26.8-28,26.8H20.8V64.6h4.8V20.3H20.8V15.7H49C66.4,15.7,77.1,27.1,77.1,42.4Zm-10.7,0c0-9.7-6.1-16.6-17.1-16.6H36.5V59H49.2C60.5,59,66.4,52.4,66.4,42.4Z" transform="translate(-20.8 -15.3)"></path></svg> 