<?xml version="1.0" encoding="UTF-8"?> <svg xmlns="http://www.w3.org/2000/svg" id="Layer_1" data-name="Layer 1" viewBox="0 0 119.91 90.1"><defs><style>.cls-1{fill:#fff;}.cls-2{fill:#ffb000;}</style></defs><title>Image Icon_Negative_RGB</title><polygon class="cls-1" points="110.43 80.22 2.17 80.22 2.17 16.3 9.17 16.3 9.17 73.22 103.43 73.22 103.43 9.17 16.3 9.17 16.3 2.17 110.43 2.17 110.43 80.22"></polygon><circle class="cls-2" cx="5.67" cy="5.67" r="5.67"></circle><polygon class="cls-1" points="119.91 90.1 16.15 90.1 16.15 85.1 114.91 85.1 114.91 16.55 119.91 16.55 119.91 90.1"></polygon><polygon class="cls-1" points="95.78 67.81 75.09 47.12 63.86 58.35 62.04 56.63 39.67 34.27 18.98 54.95 15.45 51.42 39.67 27.19 63.81 51.33 75.09 40.05 99.31 64.27 95.78 67.81"></polygon><path class="cls-1" d="M145.94,116.61a11.23,11.23,0,1,1,11.23-11.23A11.25,11.25,0,0,1,145.94,116.61Zm0-17.46a6.23,6.23,0,1,0,6.23,6.23A6.23,6.23,0,0,0,145.94,99.15Z" transform="translate(-59.95 -80.53)"></path></svg> 