<?xml version="1.0" encoding="UTF-8"?> <svg xmlns="http://www.w3.org/2000/svg" id="Layer_1" data-name="Layer 1" viewBox="0 0 78.06 109.3"><defs><style>.cls-1{fill:#ffb000;}.cls-2{fill:#fff;}</style></defs><title>Location Icon_Negative_RGB</title><circle class="cls-1" cx="11.9" cy="16.44" r="5.67"></circle><path class="cls-2" d="M120.39,182,87.72,133.13a39.07,39.07,0,0,1-3.38-36.37l6.46,2.7a32.06,32.06,0,0,0,2.76,29.81l26.83,40.16,26.84-40.18a32,32,0,0,0-44.31-44.34L99.1,79.05a39,39,0,0,1,54,54.06Z" transform="translate(-81.35 -72.74)"></path><path class="cls-2" d="M120.39,130.47a18.7,18.7,0,1,1,18.7-18.7A18.72,18.72,0,0,1,120.39,130.47Zm0-32.4a13.7,13.7,0,1,0,13.7,13.7A13.72,13.72,0,0,0,120.39,98.07Z" transform="translate(-81.35 -72.74)"></path></svg> 