<?xml version="1.0" encoding="UTF-8"?> <svg xmlns="http://www.w3.org/2000/svg" id="svg4" viewBox="0 0 405.18 246.8"><defs><style>.cls-1{fill:#6e777e;}</style></defs><path id="path2" class="cls-1" d="M95.55,246.54A12.93,12.93,0,0,1,89.81,243c-1.64-1.63-2.75-3.13-5.53-7.48-1.84-2.88-2.7-4.13-5.07-7.34-2-2.69-3.53-4.88-4.28-6a30.84,30.84,0,0,1-1.75-3s.52-.08,1.14-.14c7.14-.77,11-3.26,12.77-8.17a19.54,19.54,0,0,0,.48-8.51c-.81-3.78-2.65-6.84-5.12-8.53s-7.25-2.81-11-2.51a15.54,15.54,0,0,0-3.79.75l-.47.19v2.12c0,2.61-.12,9-.37,16.61-.52,15.55-.53,22.1,0,28.58a9.07,9.07,0,0,0,.91,4.14c.26.58.49,1.14.52,1.24s.08.29.12.4l0,.21-5.46.07c-3,0-5.55,0-5.66,0s-.18-.11.29-1.24a15.85,15.85,0,0,0,1.13-4.44,156.13,156.13,0,0,0,.19-16.18c-.06-2.16-.12-9.16-.13-15.55,0-11.84,0-12.22-.4-15.26a30.11,30.11,0,0,0-1.26-5.66c-.06-.16,0-.18.11-.11s4.53.11,9.83.15c9.39.08,10.55.12,13.18.44,8.8,1.09,13.44,4.69,15.26,11.85a16.44,16.44,0,0,1,.57,5.2,12.8,12.8,0,0,1-.26,3.54c-.9,4.25-3,7.14-7,9.81a36.25,36.25,0,0,1-4.72,2.5l-1,.42L85,224q6.89,10.22,12.5,17.2c1.46,1.83,4.14,5,4.31,5.09a.23.23,0,0,1,.1.2c0,.11-.13.12-.7.08s-.73,0-.84.09-.39.16-2.08.16a7.88,7.88,0,0,1-2.76-.25Zm34.68.19c-11.8-1.94-19.78-6.59-24.24-14.11q-3.87-6.51-3.86-15.77c0-8.95,2.91-16.49,8.44-21.85s13.42-8.36,23.05-8.64c4.35-.12,7.52.26,14.19,1.73,1.71.37,3.71.8,4.45.94l1.34.27,0,2.27a19.37,19.37,0,0,0,.19,3.14c.09.48.31,1.64.5,2.57s.32,1.77.44,2.66a10.91,10.91,0,0,1-.09,3.15c-.06.14-.1.19-.11.12a16.14,16.14,0,0,0-1.26-2.53,20.23,20.23,0,0,0-13.08-8.86,22,22,0,0,0-6.35-.59,20.54,20.54,0,0,0-6.44.67,23.09,23.09,0,0,0-8.12,3.91,23.5,23.5,0,0,0-7.85,11.45,28.37,28.37,0,0,0,.61,18.91,24.38,24.38,0,0,0,19.28,15.36,41.8,41.8,0,0,0,7.75,0,30.6,30.6,0,0,0,9.6-2.78,12.71,12.71,0,0,0,3.82-2.58l1.33-1.41a2.55,2.55,0,0,1,1.94-1c.57,0,.61,0,.61.87,0,1.56-.54,3.34-2.17,7.16-.62,1.44-1.14,2.72-1.18,2.85-.07.29.11.24-2.61.69s-5.64.86-8.48,1.22a37.6,37.6,0,0,1-6.88.28c-2.53,0-4.71,0-4.84-.05ZM309,246.59a11,11,0,0,1-5.35-3.14,37.48,37.48,0,0,1-3.91-5.11c-1.2-1.74-2.41-3.46-3.63-5.19-4.57-6.46-7.56-10.82-9-13.15l-.55-.87,1.09-.12c6.5-.68,10.29-2.77,12.31-6.76a13.36,13.36,0,0,0,1.6-6.26,12.5,12.5,0,0,0-1.37-6.63,13.68,13.68,0,0,0-2.82-4,14.28,14.28,0,0,0-4.73-3.21,16.41,16.41,0,0,0-11.09-.43l-.7.21v.45c0,.93-.2,8.09-.39,14.07-.43,13.89-.53,20.31-.39,26a82.39,82.39,0,0,0,.45,8.61,24,24,0,0,0,.71,2.66,16.09,16.09,0,0,1,.53,1.81s-2.26.05-5,.06c-3,0-5.17,0-5.59.11a3.64,3.64,0,0,1-.7.08,13.64,13.64,0,0,1,.55-1.43c1-2.48,1.11-3,1.27-7.82.07-2.25.07-4.5,0-8.49-.07-3-.12-11.24-.13-18.75,0-12,0-13.49-.18-15a24.87,24.87,0,0,0-1.24-6.34c-.15-.39-.28-.71-.28-.73s.45,0,1,.07,5.24.09,10.44.09c6.95,0,9.75,0,10.61.14a32.15,32.15,0,0,1,6.54,1.28,20.72,20.72,0,0,1,4.14,2c3.4,2.41,5.64,6.63,6.23,11.72a30.69,30.69,0,0,1-.14,5.78,14.07,14.07,0,0,1-2.28,5.37c-1.82,2.55-4.26,4.46-8.15,6.38-1.14.56-2.09,1-2.11,1.05s4.12,6.49,6.42,9.72a183.26,183.26,0,0,0,11.77,15l.71.75-.72-.06c-.59,0-.75,0-.88.09a16.67,16.67,0,0,1-5,0Zm-84.85-.84a3.45,3.45,0,0,1,.23-.62,18.57,18.57,0,0,0,1-3.38c.7-3.56.82-7.65.48-17.73-.13-4.12-.06-13.1.15-17.05a83.6,83.6,0,0,0-.14-14.63,9.72,9.72,0,0,0-1.17-3.84c-.67-1.27-.7-1.4-.26-1.34,1,.14,10.11.23,21.9.23h13.54v4.07c0,2.24,0,4.07,0,4.07a7.7,7.7,0,0,1-.75-.33,17.8,17.8,0,0,0-5.44-1.38c-1.42-.18-5.31-.21-14.92-.12l-5,0v9.18c0,5.05,0,9.19,0,9.19l3.65.14c12,.46,16.71.23,20.83-1,.21-.06.22-.05.16.16a15.48,15.48,0,0,0-.16,3.84c.06.84.14,2.13.17,2.85l.06,1.33-.3.06c-.36.08-.47.05-1.62-.43a7.45,7.45,0,0,0-1.79-.5,105,105,0,0,0-11.22,0c-3.15.17-7.63.23-9,.11l-.8-.07v20.15l2.35.06,5.55.17c3.9.13,9.87.06,12-.15a21.18,21.18,0,0,0,7.4-1.72l.57-.29-.06,1.16a64.88,64.88,0,0,1-.91,7.48s-5.31,0-11.74,0c-10.65,0-21.56.08-23.83.24-.58,0-.89,0-.89,0Zm104.93,0a3.77,3.77,0,0,1,.24-.52,23.15,23.15,0,0,0,1.51-7.67c.1-1.31.33-14.44.32-17.83a15.81,15.81,0,0,0-.11-2.07c-.21-1.08-1.08-2.59-3.09-5.33-.51-.7-2.31-3.28-4-5.73-6.64-9.66-10-14.18-13.44-18.19l-.9-1,.9.07c1.2.1,7.85.09,10.36,0l2-.08-.1.28a6.66,6.66,0,0,0-.16,1.29l0,1,.9,1.64c1.65,3,3.54,6,6.16,9.9,1.91,2.79,5.83,8.3,5.94,8.34s.15-.07.21-.2,1.45-2.18,3.08-4.57c4.71-6.93,6.36-9.62,8.31-13.47l1.11-2.22,0-.83a10.8,10.8,0,0,0-.11-1.13l-.07-.29.81.08c.44,0,4.82.1,9.73.13l8.93,0,.05,1.28a8.07,8.07,0,0,0,1,3.83,30,30,0,0,0,3.29,5,71,71,0,0,1,4.22,6.25c1,1.54,2.21,3.45,2.73,4.24l1,1.43.22-.27c.79-.95,2.34-3.17,4.4-6.27q1.67-2.55,3.41-5c3.16-4.43,4.21-6.72,4.42-9.64l.06-.88,6,0c6,0,6,0,6,.22s-.33.56-1.46,1.43c-1.75,1.36-3.29,3.43-7.71,10.34-2.13,3.34-2.87,4.44-5.54,8.26-2.25,3.22-3.62,5.28-4.62,7l-.84,1.38.91,1.32c.5.73,2.51,3.77,4.47,6.75,7.27,11.06,10.91,16.09,14.75,20.35l1,1.06H391.85l.07-.24a7.71,7.71,0,0,0,0-1.36l0-1.11L391,241a135.24,135.24,0,0,0-9.47-14.66l-2.19-3.07-.22.26c-.52.64-1.87,2.63-3.95,5.86-1.23,1.9-2.92,4.4-3.77,5.56a30.35,30.35,0,0,0-3.21,4.93,8.93,8.93,0,0,0-1.09,4.14l-.05,1.32-.78.06c-.44,0-3.35.06-6.47.08l-5.68,0,1-1c3.33-3.45,6.47-7.58,11.28-14.82s8-12,8.4-12.56l.43-.6-1.38-2.21c-5.11-8.19-9-14-12.67-18.88-1.79-2.4-3.85-5-3.95-5a43.29,43.29,0,0,0-2.74,3.53c-2.52,3.42-5.45,7.79-10.65,15.89-1.31,2.06-2.64,4.12-4,6.16l-.56.84-.06,4c0,2.21-.1,4.78-.15,5.71-.17,3.18-.23,8.47-.11,10.32a24.06,24.06,0,0,0,1.65,8.12,1.21,1.21,0,0,1,.14.57,33.4,33.4,0,0,1-4,0,51,51,0,0,0-7.5.21c-.12,0-.21,0-.21,0ZM0,245.4c0-.17.17-.36.69-.78S1.28,244,3,240.56c4.3-8.63,6.21-12.92,15.81-35.42,4.58-10.73,8-18.41,8.49-19a.63.63,0,0,1,.64-.34h.38l.68,1.43c3.13,6.53,5.06,10.91,10.23,23.23,6.28,15,8.19,19.24,11.68,26.21,1.71,3.43,2.86,5.59,4.43,8.35l.32.56h-11v-1.19c0-2.59-.54-4.39-2.72-9.23-.63-1.38-1.26-2.79-1.4-3.13s-1.87-4.3-3.84-8.8c-3.95-9-6.08-14-7.75-18.09l-1.1-2.69-.27.53c-1,2-4.35,9.73-8.36,19.33s-4.47,10.68-5.85,13.46c-.69,1.39-1.43,3-1.64,3.53a13.06,13.06,0,0,0-1,5.26l0,1H5.36c-4.35,0-5.36,0-5.36-.13Zm191.63-.74a10.82,10.82,0,0,0,.65-1.79c.45-1.76.54-2.91.64-7.66,0-2.45.14-5.85.2-7.56.13-3.35.08-11.48-.11-20.54-.06-2.85-.08-6.87,0-9l.06-3.91-6.42.05c-3.61,0-6.91.09-7.54.15A21.83,21.83,0,0,0,171.8,196c-.11,0-.12-.14-.06-1.19a40.12,40.12,0,0,1,.7-6.7l.17-.71h47.44v4.23c0,3.34,0,4.21-.12,4.17a17.31,17.31,0,0,0-2.31-.87,30.31,30.31,0,0,0-4.21-.75c-.89-.1-12.24-.29-12.35-.21s-.2,3.61-.31,18.58c-.13,17.89-.13,21,0,23.45a29.61,29.61,0,0,0,1.64,8.85l.26.64H191.21Zm-32.08-45c0-.36-.09-4.4-.12-9l-.05-8.3h10.88l-.51.94c-.82,1.53-2,3.5-4.59,7.73-2.7,4.38-3.75,6.16-4.76,8a8,8,0,0,1-.73,1.23,1.65,1.65,0,0,1-.12-.65Zm84.14-46-.44-.12v-1.65c0-2.39.22-3.36,1.88-8.81a19.37,19.37,0,0,0,1.22-7.66c-.09-2.75.07-3.65,1.34-7.3a17.51,17.51,0,0,0,1.3-5.83l0-.52-.87-.47a23.13,23.13,0,0,0-5.8-1.78,22.4,22.4,0,0,1-5.52-1.67,18.81,18.81,0,0,0-4.9-1.57c-3.25-.66-4.33-1-10.77-3.56a66.91,66.91,0,0,1-13.21-6.54c-1.82-1.11-1.91-1.18-1.85-1.42.1-.4.43-.69,1.27-1.07s1.17-.7,1-1-1.08-.73-2.57-1.07-2.05-.55-2.05-.76a4.08,4.08,0,0,1,.91-1.31,12,12,0,0,1,4.28-2.44,39,39,0,0,0,4.83-2.4c3.06-1.7,4.15-2.14,9-3.57,1.39-.4,2.77-.83,4.13-1.29a27.31,27.31,0,0,1,6.36-1.56c5-.86,5.66-1.14,9-4.07.79-.7,2-1.78,2.82-2.39a56.55,56.55,0,0,0,8.46-7.93c1.36-1.81,2-2.27,3.1-2.27a3,3,0,0,1,2.52,1.55,4.47,4.47,0,0,1,.52,4.37,3.44,3.44,0,0,1-1.34,1.25,2.63,2.63,0,0,1-.56-.14,8.33,8.33,0,0,0-1.1-.25,5.17,5.17,0,0,0-4.64,1.74,8.52,8.52,0,0,0-1.25,1.56,2,2,0,0,1-1.13,1.09c-1.92,1-3.33,2.14-6.78,5.51-3.19,3.12-3.73,3.57-4.26,3.57-.21,0-1,.07-1.7.15-4.85.56-9.32,1.79-17,4.67-4,1.5-6.48,2.39-8.14,2.89-.66.19-1.22.37-1.25.39s.49.5,1.11.85a13.84,13.84,0,0,0,5.36,1.37l1.33.16.58.55c1,1,1.21,1.08,1.8,1.08a15.7,15.7,0,0,1,4.76,1c2.66.87,2.8.9,4.45.92a3.23,3.23,0,0,1,1.84.32c.36.17,1.12.61,1.7,1,2.2,1.42,2.76,1.6,6,2,3.41.38,4.19.6,6.7,1.88a11,11,0,0,0,4.07,1.52,12.58,12.58,0,0,1,3.4.77,5.67,5.67,0,0,0,2.61.54c.42,0,.46,0,.51.19a2.6,2.6,0,0,1,0,.85c-.18,1-.16,1.1.52,2a19.1,19.1,0,0,1,1.35,2.33c1.14,2.29,1.72,4.1,3,9.35.5,2,1,4.2,1.21,4.77a4.23,4.23,0,0,1,.23,1.15,4.84,4.84,0,0,1-1.64.72c-.9.13-1.66-.37-2.26-1.48a20.73,20.73,0,0,1-.8-2.11,12.65,12.65,0,0,0-1.26-3.11c-.26-.38-.28-.51-.47-2.52-.58-6.1-1.21-8-2.93-8.87a9.1,9.1,0,0,0-3.49-.71c-2.45-.22-3.42-.52-4.28-1.3a1.08,1.08,0,0,0-.72-.4c-1.11,0-3.91-.78-7.51-2.1a69,69,0,0,0-6.9-2.27,44.53,44.53,0,0,1-6.16-2.06c-2.41-1-8-3.32-9.46-4a7.15,7.15,0,0,0-3-.91c-1.11-.06-1.22,0-1,.5a3,3,0,0,0,1.42,1.42,20.92,20.92,0,0,0,2,.75c.79.27,2.7.94,4.24,1.5,9.54,3.45,21,7,26.65,8.39,5.48,1.3,7.4,1.87,8,2.35.86.76,1.08,1.65,1.21,4.83.16,3.94.48,5.6,2.48,12.73,1.79,6.38,2.38,9.21,2.69,12.88l.05.55-.9.63c-1.33.92-2.43,1.3-2.92,1a4.43,4.43,0,0,1-1.07-1.85,8.68,8.68,0,0,0-.69-1.36l-.35-.53.12-.65a4.66,4.66,0,0,0,0-2.52c-.79-2.16-1-4.47-1.13-10.54,0-2-.1-4.25-.15-4.94a18.72,18.72,0,0,0-.45-3.15c-.09-.09-.52.53-.62.91a3.11,3.11,0,0,0,.06,1.33,9.22,9.22,0,0,1,0,2.68,113.7,113.7,0,0,1-2.43,16c-1,4.72-.91,4.33-.75,6.43,0,.27,0,.29-.84.57a6,6,0,0,1-2.18.31,7.15,7.15,0,0,1-1.75-.08ZM94.78,119.59a6.11,6.11,0,0,1-1-3.52v-.95l.79-.38c2.32-1.09,4.33-2.73,7.34-6,4.21-4.55,6.78-6.91,7.53-6.91a3.3,3.3,0,0,1,.76.15c.5.14.51.16.68.68a2.36,2.36,0,0,1-.18,2,7.71,7.71,0,0,1-1.15,1.12,17.74,17.74,0,0,0-3.64,4.41,54,54,0,0,1-3.13,4.55,11.53,11.53,0,0,1-2.27,2.25,2.27,2.27,0,0,1-1,.32,4.22,4.22,0,0,0-2.51,1.36,4.22,4.22,0,0,1-1.92,1.21C95,119.86,94.89,119.74,94.78,119.59Zm-.93-6.88c.28-2.24.64-3.69,1-4.13a1.89,1.89,0,0,1,.71-.39,8.54,8.54,0,0,0,2.75-1.8c1.66-1.42,2.34-1.79,3.51-1.91.63-.06.67-.15.42-.76-.2-.46-.55-.59-1.1-.38s-.66.33-2.74,2c-1.62,1.3-2.43,1.72-3.43,1.78l-.72,0-.1-.38a7.13,7.13,0,0,1-.1-1.37v-1l.31.07.56.08.24,0,0-1c0-1,0-1,.31-1.14a7.09,7.09,0,0,1,2.54-.34H99l.81-.58c1.66-1.21,4-2.12,7.93-3.15l2.26-.6c.16,0,.18,0,.12.23a13.81,13.81,0,0,1-1.43,2.81,25,25,0,0,1-3.91,4c-.8.68-2.52,2.33-3.83,3.65-3.09,3.13-4.18,3.93-6.1,4.46-1.06.29-1.07.29-1-.26Zm77.07-2.4a20.54,20.54,0,0,1-4-1c-2-.68-4.79-2.14-4.79-2.49a3,3,0,0,1,1.07-1.34c1-.62,1.93-.57,4.61.22a19,19,0,0,0,4.25.93,6,6,0,0,0,4.33-1.34,9.05,9.05,0,0,1,2.73-1.39c.49-.14.54-.19.54-.42a8.5,8.5,0,0,1,.73-2.4,22.29,22.29,0,0,1,1.15-1.91,17,17,0,0,0,1.85-3.2,9,9,0,0,0,.54-2.45c0-.31,0-.33.33-.33s.62.08.78.4a2.08,2.08,0,0,1-.09,1.68,2.18,2.18,0,0,0-.15,1.33,12.52,12.52,0,0,1-1.3,7.13,24.52,24.52,0,0,1-3.5,4.92,10,10,0,0,1-4.64,1.69,22.64,22.64,0,0,1-4.42,0Zm1.41-5.82c-.48-.13-2.05-.39-3.49-.57-3.69-.47-4.3-.65-5.87-1.7-1.33-.89-1.65-1-4.3-1.41a12.2,12.2,0,0,1-3.72-1,22.7,22.7,0,0,1-4.08-2.75,33.22,33.22,0,0,0-4.81-3.44q-1.51-.87-3-1.77A40.81,40.81,0,0,0,137.89,89a17.66,17.66,0,0,0-3.1-1c-.31,0-.39-.13-.73-.74a5.26,5.26,0,0,0-1.9-2,2.43,2.43,0,0,0-1.5-.27c-1.26,0-1.84.19-4.36,1.43-1.06.53-2.13,1-2.37,1.13s-1.11.48-1.94.86a19.24,19.24,0,0,1-2.13.84,4.53,4.53,0,0,1-2.24,0l-.26-.1.71-2.15c.84-2.54,1.31-3.54,2-4.34A6.31,6.31,0,0,1,124.54,81c3.07-.19,7.8,1.08,12,3.22a15,15,0,0,1,3.67,2.45c2,1.76,2.58,2.11,4.14,2.48,2.06.49,2.82,1,7.45,4.87a25.32,25.32,0,0,0,4.14,3,3.41,3.41,0,0,0,1.69.37,10.38,10.38,0,0,1,3.94,1.08,9.75,9.75,0,0,0,3.54,1,10.79,10.79,0,0,1,3.59.74,5.75,5.75,0,0,0,1.8.49c1.11.08,1.35-.11,2.9-2.27.16-.22.88-1,1.59-1.79s1.57-1.76,1.91-2.21a10.72,10.72,0,0,0,2.26-6.32,15.35,15.35,0,0,0-.7-4.2,16.73,16.73,0,0,1-.75-4.31,5.39,5.39,0,0,1,.56-2.52c.25-.51.26-.59.26-2.18,0-2.5.35-3.86,1.92-7.57.37-.87.73-1.75,1.07-2.64l.26-.71-.54,0c-.71.06-1.18.4-2,1.42s-1.13,1.23-1.81,1.36c-.38.07-.53.06-.7,0-.35-.23-.37-.57-.08-1.46.36-1.08.25-1.63-.2-1a17.6,17.6,0,0,1-2.75,2.27c-.5.35-2,1.28-3.39,2.07-3.38,2-4,2.4-5.43,3.77a4.89,4.89,0,0,1-2.09,1.53A23,23,0,0,1,157.94,75a20,20,0,0,0-6.25,1.8c-3.14,1.35-4.07,1.58-6.2,1.58a22.91,22.91,0,0,1-4.82-.45.64.64,0,0,1-.07-.31,7.16,7.16,0,0,0-1-2.1c-1.15-1.71-1.65-3.17-2.45-7.19s-.92-4.44-1.73-6a10.65,10.65,0,0,1-1.22-4.83c-.25-2.62-.54-3.8-1.11-4.7a11.86,11.86,0,0,0-1.31-1.39c-1.11-1-1.32-1.35-1.5-2.25a2.94,2.94,0,0,0-1.15-1.89c-.73-.71-.77-.77-2.2-3.57-2.25-4.44-3.22-6-4.7-7.45l-.71-.7-.29.18a2.56,2.56,0,0,0-1.07,1.65,19.26,19.26,0,0,0-.25,2.41,11.22,11.22,0,0,1-.58,3.62c-.18.33-.18.41,0,1.07a19.25,19.25,0,0,1-.2,6.77c-.13.77-.63,3-1.11,5a36.27,36.27,0,0,0-1.36,7.36c-.18,2.86-.42,3.87-1.1,4.55a2.25,2.25,0,0,1-1.8.64h-.6l-.2-.47a8.44,8.44,0,0,1-.13-3.7,80.17,80.17,0,0,0,.8-8l0-1.94.47-1.46a34.65,34.65,0,0,0,1.54-7.06,9.93,9.93,0,0,0,0-2.87,3.4,3.4,0,0,0-.67.54c-1.05,1-1.58,2.3-2.43,6.09a61.6,61.6,0,0,1-1.67,6.22,17.41,17.41,0,0,1-2.06,4,1.81,1.81,0,0,1-1.62.76c-.32-.06-.38-.11-.54-.52a3.45,3.45,0,0,1,.06-2.24,14.66,14.66,0,0,1,.89-1.7c1.52-2.59,1.59-2.85,1.51-5.71-.1-3.75.07-4.25,2.35-7.13a6.34,6.34,0,0,0,1.63-3.07c0-.41,0-.61-.07-.66a3,3,0,0,0-.79-.12,1.91,1.91,0,0,0-1.37.3,7.28,7.28,0,0,0-1.7,1.27,10,10,0,0,1-2.23,1.79,10.34,10.34,0,0,1-3.45.74c-3,.29-3.66.53-6,2.37a6.1,6.1,0,0,1-2.43,1.41,2.18,2.18,0,0,1-1.78-.17c-.5-.38-.56-1.46-.15-2.66l.2-.59.55-.07a18.41,18.41,0,0,0,5.18-1.49,36.56,36.56,0,0,0,4.87-2.92c4.19-2.79,6-3.66,8.76-4.23,1.43-.29,1.5-.39.93-1.29s-.44-1.23.53-1.29a2.62,2.62,0,0,0,2-1.08c2-2.11,2.09-2.22,3.22-2.66A27.09,27.09,0,0,1,123.68,28,2.91,2.91,0,0,1,125,27.9a5.83,5.83,0,0,1,3.49,3.18c.9,1.8.85,3.67-.13,4.78-.25.28-.42.39-.52.35a10.24,10.24,0,0,1-1.36-2.59c-.62-1.36-1.1-1.68-2-1.41-.42.12-.57.22-.68.44-.31.59-.19.77.82,1.24.72.34.83.49,1.26,1.72a7.55,7.55,0,0,0,.55,1.23,7.77,7.77,0,0,0,2.27,1.63c1.24.7,2.18,2,3.46,4.84,1.36,3,1.66,3.69,2.85,6.2A122.6,122.6,0,0,1,140.2,62a36.83,36.83,0,0,1,1.42,5.91c.68,3.53,1.34,5.27,2.47,6.48a3.53,3.53,0,0,0,2.75,1.3c1.45.06,2.16-.19,5-1.73a13.72,13.72,0,0,1,5.06-1.69,12.32,12.32,0,0,0,4.38-1.37c1.16-.67,4.77-3.14,5.45-3.74a7.36,7.36,0,0,0,2.41-3.52,8.18,8.18,0,0,0-.25-4c-.14-.43-.48-.58-1.69-.74s-1.61-.35-1.73-.84.11-.9.82-2c.33-.54.39-.7.35-1-.14-1.32-1.37-2.32-3.56-2.9-.5-.14-1.61-.4-2.47-.59a10.13,10.13,0,0,1-3.78-1.32c-1.23-.83-1.78-1.57-3.14-4.24-1.52-3-2.23-3.57-4.63-3.84a4.38,4.38,0,0,1-3.75-2c-1.17-1.34-1.52-1.58-2.72-1.8s-1.32-.37-2.51-1.51A20.57,20.57,0,0,0,137,34.43c-2.31-1.55-4.3-2.76-5.8-3.57l-1-.55.07-.33c.06-.32,0-.37-1-1.36a24.46,24.46,0,0,0-4.36-3.36c-.73-.47-1.44-1-2.13-1.49l-.57-.46-.7,0c-.94,0-1.12,0-1.26-.57-.29-1.07-.82-1.42-2.81-1.82a14.08,14.08,0,0,1-1.81-.48,8.47,8.47,0,0,1-1.47-1.13,5,5,0,0,0-3-1.59A3.6,3.6,0,0,1,108.38,16a2.51,2.51,0,0,0-1.8-1.12c-1.41-.17-2.54-.58-5.62-2-1.2-.56-2.9-1.27-3.78-1.57-2.69-.92-3.64-1.53-3.92-2.5a1.51,1.51,0,0,1,0-1.07,2.91,2.91,0,0,1,.59-1.22l.64.36a32.92,32.92,0,0,0,7.25,2.9c8.29,2.46,8.64,2.62,11.53,5.13a18.64,18.64,0,0,0,3.78,2.78,3.49,3.49,0,0,0,2.08.46c1.59.07,1.68.12,3.26,1.62a15.12,15.12,0,0,0,2.56,2c.74.48,1.72,1.13,2.18,1.46a30.7,30.7,0,0,0,4,2.43c3.44,1.87,3.77,2.16,5.39,4.56,1.5,2.23,2.07,2.64,4,2.83a12.17,12.17,0,0,1,1.28.2c.81.24,1.52.93,2.62,2.58a10.37,10.37,0,0,0,1.17,1.52c.38.35.39.35,1.3.35a5.71,5.71,0,0,1,3.45,1,15.4,15.4,0,0,1,3.16,3c.75.86,1.59,1.75,1.86,2a1.48,1.48,0,0,1,.47,1.78,2.24,2.24,0,0,0-.1.63.61.61,0,0,0,.31,0c.19-.07.36-.28.6-.75a3.22,3.22,0,0,1,.49-.75.34.34,0,0,1,.56.15c.15.33.78.59,1.62.67a2.61,2.61,0,0,1,2.3,1.11,23,23,0,0,1,1.76,2.22c.53.76,1.1,1.55,1.27,1.74l.31.36h1c1.55,0,2.17.29,4.15,1.87,1.69,1.35,1.48,1.27,3.42,1.3a15.71,15.71,0,0,1,5.06.87l1.45.41.54,1.09a8.08,8.08,0,0,0,.73,1.29l.21.21.62-.3a9.74,9.74,0,0,1,4.11-.67l1.95,0,.53.4c1.72,1.3,4.22,1.72,8.78,1.48a69.54,69.54,0,0,1,7.89-.12,7.77,7.77,0,0,1,3.89,1.32l.44.34.33-.7c.51-1.1.59-1.14,2-1.17l1.16,0,1-.51a22.22,22.22,0,0,0,2.65-1.71c3.15-2.31,4.6-2.83,7.14-2.53a14.23,14.23,0,0,0,4,0,26.2,26.2,0,0,0,10-3.52c.76-.46,1.07-.6,1.36-.6a5.58,5.58,0,0,0,2.25-.55c.4-.18,1.25-.53,1.89-.77a8,8,0,0,0,3.21-1.82,5,5,0,0,0,1.13-1.6,7.5,7.5,0,0,0,.77-3.78,20,20,0,0,0-1.11-6.13l-.31-.93-.5-.2c-1.08-.41-1.86-1.07-3.36-2.84l-.89-1.05-.88.06c-.88.06-1.15,0-4-.46-2.07-.35-2.81-.16-5.2,1.32-.78.48-1.55.94-2.33,1.4-3.35,2-4.25,2.82-5,4.67-.67,1.68-1.17,2.43-1.84,2.7-.24.1-.27.17-.31.71-.13,1.54-.71,2.24-1.68,2.06a1.65,1.65,0,0,1-1.08-.91,8.27,8.27,0,0,1,.06-3.26c.11-.64.23-1.52.26-2l.07-.8-.36.15a5.4,5.4,0,0,1-3.47-.4l-.55-.25-.42.29c-.23.16-.94.76-1.58,1.33a5.63,5.63,0,0,1-2.84,1.68c-1,.17-1.83-.09-3.92-1.25-1.87-1-2.87-1.3-4-1a6.36,6.36,0,0,1-.64.13,22.11,22.11,0,0,0-2-2.82c-.73-.91-1.5-1.95-1.72-2.32-.39-.65-.39-.67-.24-.92.39-.62.41-.67.23-1.05s-.62-1-1-1.56a12.58,12.58,0,0,1-.94-1.65c-.1-.25-.33-1.23-.53-2.19-1-4.61-1.3-5.94-2-7.6a9.87,9.87,0,0,0-1.83-2.75c-1.51-1.83-2.29-3.49-3.9-8.3l-1-2.94.23-.43a3.94,3.94,0,0,1,.82-.95C189.39,0,189.41,0,190,0a1.14,1.14,0,0,1,1,.33,8.94,8.94,0,0,0,3.6,1.47c2.59.68,3.42,1.18,4,2.42.36.76.32.86-.33,1-1.11.31-2.14.19-4.14-.47-1.35-.46-1.94-.53-2.13-.28a1,1,0,0,0-.15.54c0,.31.06.4.46.73,1.11.88,1.05.78,3.64,6.13.46.93,1,2,1.25,2.32a3.26,3.26,0,0,1,.55,1.25,18.22,18.22,0,0,0,.61,1.94,10.41,10.41,0,0,1,.76,3.12,2,2,0,0,0,.39,1,41.29,41.29,0,0,1,2.09,4.21c2.18,4.87,3.58,6.76,5.86,8l.76.39,1-.52c.79-.38,1.59-.74,2.41-1.07,4.17-1.66,6.73-1.53,7.86.4l.26.43.22-.28c.13-.15.49-.64.8-1.1a5.85,5.85,0,0,1,3.69-2.87,7.29,7.29,0,0,0,2.79-1.32c.37-.37.35-.51-.1-.82-.69-.47-1.35-.23-3,1.1-1.28,1-1.89,1.32-2.54,1.28l-.47,0,0-.42a3.68,3.68,0,0,1,1.16-2.12c1.28-1.49,1.67-2.25,1.67-3.2v-.46l-.6,0a7.33,7.33,0,0,1-3.32-.8,7.25,7.25,0,0,0-3.47-.77l-.51.06-.13-.37c-.39-1.1-1.26-1.94-3.06-3a12.87,12.87,0,0,1-3.06-2,3.44,3.44,0,0,1-1.23-2.56l0-.78.54.07a14.07,14.07,0,0,1,3.22.92,33.38,33.38,0,0,1,5.28,3c2.73,1.76,2.42,1.57,3.46,2.15a10.39,10.39,0,0,0,3.78,1.41,4.63,4.63,0,0,1,2.64.9l1.15.87a4.3,4.3,0,0,0,2.68.79,5.47,5.47,0,0,1,2.83.81c1.27.73,1.5.76,3.16.5,1.25-.2,2-.11,4.52.5a22.89,22.89,0,0,0,4.75.82c.74,0,.75,0,.87.29A4.86,4.86,0,0,0,249,27.65a10.16,10.16,0,0,1,1,.93,18,18,0,0,1,1,1.87,21.44,21.44,0,0,0,1.74,3c1.46,2.09,1.41,1.89,1.42,5.54a30.57,30.57,0,0,0,.12,3.51,10.79,10.79,0,0,0,.51,1.31,5.64,5.64,0,0,1,.45,1.34,6.37,6.37,0,0,1-1.51,3.82,15.07,15.07,0,0,1-2.9,2.75,4.88,4.88,0,0,1-3,1c-2.09.14-2.66.37-4.7,1.91a16.53,16.53,0,0,1-1.72,1.18,3.81,3.81,0,0,0-1.62,1.83c-.66,1.28-.85,2.22-1.12,5.63a17.47,17.47,0,0,1-.92,4.93,17.08,17.08,0,0,0-.92,4.86c-.24,3-.44,4-1,4.9a1.78,1.78,0,0,1-1.19.9,1.43,1.43,0,0,1-1.57-.54c-.82-.88-1.26-2.38-1.34-4.47a15.83,15.83,0,0,1,1.06-6c.22-.72.59-2,.82-2.93A35,35,0,0,1,235.75,59,14.74,14.74,0,0,0,237,56a.94.94,0,0,0-.39-.13,3.17,3.17,0,0,0-2.13.74,57.39,57.39,0,0,0-4.72,3.72c-1,1.1-1.41,2.19-1.92,5.62-.57,3.81-.73,4.31-1.83,5.94s-1.19,1.85-1.19,3a10.42,10.42,0,0,0,.37,2.49c.43,1.9.48,3,.17,3.81l-.19.48-1,.32c-1.09.33-1.71.4-2,.2a5,5,0,0,1-1-2c-1-3-.38-7,1.74-11.46.57-1.24,1.11-2.48,1.61-3.75,1.12-2.82,1.38-3.31,2.16-4a8.45,8.45,0,0,0,1.86-1.86c.18-.44.08-.58-.47-.58s-.69.11-1.77.67a5.19,5.19,0,0,1-2.66.9c-.49,0-.51,0-.7.41-.1.22-.85,1.51-1.66,2.87-2.28,3.84-3.42,6.2-3.87,8a23.33,23.33,0,0,0-.5,4.85c-.16,3.64-.37,5-1,6.13a3.81,3.81,0,0,1-2.64,1.92c-.24,0-.33,0-.6-.38-.69-.91-.77-2-.33-4.79.16-1,.36-2.62.44-3.66.3-3.71.51-4.47,1.8-6.59a4.26,4.26,0,0,0,.87-2.36c0-.64,0-.67,1.85-2.53a8.41,8.41,0,0,0,1.67-2c.27-.59.42-1.35.28-1.35A25.68,25.68,0,0,0,216,63.52a33.64,33.64,0,0,0-8.71,15.62c-.12.55-.3,1.77-.41,2.71-.3,2.64-.51,3.34-1.14,3.94s-1.46.45-2.67-.06l-.47-.21.06-1.26a22.81,22.81,0,0,1,.4-3.16,25.56,25.56,0,0,0,.63-5.29V74.44l.8-1.21c.44-.67,1.09-1.69,1.43-2.25A14.74,14.74,0,0,1,209,67.2a19,19,0,0,0,1.7-1.7,6.79,6.79,0,0,0,1.07-2.06c.07-.32,0-.34-.8-.12a5.27,5.27,0,0,0-2.34,2.25c-.4.57-1.56,2.06-2.59,3.3-3.18,3.83-4.42,5.6-5.55,7.92a19.41,19.41,0,0,0-2.11,8.61L198.31,87l-.42.18a6.71,6.71,0,0,1-2.33.47c-.57,0-.61,0-.75-.28a9.41,9.41,0,0,1-.63-2.73A19.52,19.52,0,0,1,195,78a4.36,4.36,0,0,1,1.36-2.16c.92-1,1.1-1.37,1.1-2.29a1.9,1.9,0,0,1,.29-1.23,14.18,14.18,0,0,1,3.16-3.19c2.13-1.77,2.85-2.67,3.13-3.92a5.25,5.25,0,0,0,.06-1.73,20.29,20.29,0,0,0-2.33,1.36,25.3,25.3,0,0,0-8.67,10.55,23.35,23.35,0,0,0-1.74,5.37c-.37,1.51-.84,3.2-1,3.76-.92,2.64-2,3.79-3.35,3.63a2.49,2.49,0,0,1-1.65-.82,8.36,8.36,0,0,1-.15-1.37c-.08-2,.31-3.34,1.91-6.83,1.29-2.82,1.49-3.51,1.35-4.88a3,3,0,0,1,.63-2.48,23.55,23.55,0,0,1,4.32-4.71q.67-.3,1.38-.54c1.67-.58,2.3-1.16,2.3-2.08,0-.23-.07-.32-.38-.48-1.34-.68-3.32-.64-6.13.14l-2.42.67c-.7.19-1.4.36-2.11.49s-.95.19-1.29.52a10.32,10.32,0,0,0-2.5,5.39c-.5,2.81-.47,5.41.16,12.61.12,1.49.26,3.23.29,3.87a4.65,4.65,0,0,0,.2,1.37,1.6,1.6,0,0,0,.69.42c.62.24.8.36.8.54a5.92,5.92,0,0,1-.63,1.06,26.58,26.58,0,0,0-2.47,5c-1.36,3.34-2.09,4.72-3.18,6a8.11,8.11,0,0,1-3.94,2.5,2.49,2.49,0,0,1-1.84-.1Zm-60.89-4.38a16.54,16.54,0,0,1,2.7-3.42c1.9-1.92,3.77-3.29,8-5.9,2.77-1.71,4.56-2.89,5.88-3.9l1.15-.87.48,0a4,4,0,0,1,2.06,1.05c.67.59.67.66.12,1.79a4.42,4.42,0,0,1-1.06,1.37c-.85.81-1.35,1.11-3.81,2.3-1,.5-2.17,1.11-2.54,1.36a6.09,6.09,0,0,0-1.65,1.61s-.26.09-.57.09a3.05,3.05,0,0,0-2.33,1,17.48,17.48,0,0,1-8.33,4l-.43.07ZM143,83a14.88,14.88,0,0,1-4.29-1.12l-.45-.23.19-.42a8.4,8.4,0,0,0,.34-1.43,2.64,2.64,0,0,1,.31-1.13c.32-.24.6-.13,1.17.45l.55.56.85.12a19.69,19.69,0,0,0,4.85-.08,31.16,31.16,0,0,0,4.56-1.17c1-.31,2.21-.66,2.65-.77a14.73,14.73,0,0,1,2.81-.44,4.9,4.9,0,0,1-.72,1.86c-1.14,1.72-3.7,3-7.15,3.62A27.13,27.13,0,0,1,143,83ZM257.35,61a3.06,3.06,0,0,1-1.47-1.09,5.68,5.68,0,0,0-1.65-1.52c-.2-.09-.36-.22-.36-.29,0-.33.35-.88,1.06-1.62,1.1-1.15,1.23-1.55.91-2.79a2.16,2.16,0,0,1,.18-1.8,10.34,10.34,0,0,1,1.25-1.23c1.24-1.08,1.48-1.47,1.39-2.32a17.78,17.78,0,0,0-.79-3.29q-.5-1.75-.9-3.54c-.21-.93-.71-3.07-1.11-4.75-2.15-9.06-2.78-13.66-2.64-19.13,0-1.28.09-2.43.13-2.56s.08-.23.84-.18a9.4,9.4,0,0,1,2,.4c1.76.52,2.31.47,3.35-.32a3,3,0,0,1,1.58-.75c1.23-.14,2.84,1.08,6,4.53a26.25,26.25,0,0,0,5.73,4.65c1.35.91,2.81,1.94,3.25,2.3s2.46,2.28,4.48,4.28S285,34.3,286,35.17s3.16,3,4.89,4.72L294,43h.87c1.41,0,2.16-.29,4.08-1.56a16.46,16.46,0,0,1,4.36-2c2.77-1,3.29-1.26,4.53-2.31a10.45,10.45,0,0,1,2.62-1.65c1.44-.72,5.77-2.56,7.56-3.22,1.61-.6,4.19-1,4.63-.79.15.08.14.13-.09.59-.43.87-1,1.21-3.2,1.94a38.6,38.6,0,0,0-5.32,2.3c-1,.53-.95.61.21.62,1,0,1.47-.17,3.59-1.25,1-.52,2.14-1,2.47-1.16a4.54,4.54,0,0,1,2.28-.21c.49.13,1.39.64,1.39.8a6.73,6.73,0,0,1-2.21,1.9,7.36,7.36,0,0,0-2.25,1.94c-.14.22-.16.23-.82.11a8.22,8.22,0,0,0-2.91.15c-.69.21-1.37.44-2,.7a22.18,22.18,0,0,1-5.71,1.29c-1.23.16-2.59.38-3,.49a6.68,6.68,0,0,0-2.28.87c.4.38,2.61.5,4.16.24a56.51,56.51,0,0,0,5.56-1.45c2.13-.73,3.28-.89,4-.55a1.78,1.78,0,0,1,1,1.78V43l-.65.2a104.48,104.48,0,0,1-17.79,3,15.3,15.3,0,0,0-2.15.29,3,3,0,0,0-.33,1.4c0,.68-.15.88-1,1.24a11.78,11.78,0,0,1-7.14,1.08c-1-.19-.81,0-2.67-2.11A78.07,78.07,0,0,0,280,42.49a47.87,47.87,0,0,1-7.75-8.19A31.66,31.66,0,0,0,268,29.55c-4.21-4-6.24-6.18-7.3-8a1.73,1.73,0,0,0-.68-.76,4.78,4.78,0,0,1-1-.82c-.71-.75-1.32-1.17-1.68-1.17s-.63.75-.79,1.69c-.27,1.58.27,4.64,1.76,9.87a25.49,25.49,0,0,1,1.16,6.22c.27,3.15.34,3.46,1.65,7.7,1.2,3.87,1.64,6,1.64,7.79a2,2,0,0,1-.29,1.24,10.33,10.33,0,0,0-1,3.49c-.38,2-.59,2.7-1.05,3.3a2.26,2.26,0,0,1-2,.91,4.92,4.92,0,0,1-1.07,0Zm32.79-15.19c.38-.14-.06-1.23-.89-2.22a68.87,68.87,0,0,0-6-5.33c-5.35-4.49-6.91-6-9.19-9-2-2.64-2.62-3.25-7-6.73-.8-.65-1.56-1.33-2.29-2.05a5.88,5.88,0,0,1-1.56-2.1c-.47-1-.84-1.43-1.18-1.43a.38.38,0,0,1-.26-.1c-.16-.16-.38,0-.56.36l-.16.34.41.55a90.85,90.85,0,0,0,7.05,7.78,55.84,55.84,0,0,0,6.89,6.52,53.6,53.6,0,0,1,7.27,7.08,70.48,70.48,0,0,0,6.19,6.25,2,2,0,0,0,1.3.13ZM205.76,29.5c-.3-.05-.59-.11-.88-.18a18.77,18.77,0,0,1-2-3.42,71.82,71.82,0,0,1-2.74-6.71l-.42-1.2.37-.32a2.7,2.7,0,0,1,3.11-.48c.48.23,1,.67,2.86,2.57a16.83,16.83,0,0,0,2.81,2.57c.46.25.6.39,1.14,1.23a5.12,5.12,0,0,1,1.06,2.67l0,.71h-.43a2.48,2.48,0,0,1-1.55-.54,2.52,2.52,0,0,0-1.42-.64c-.47,0-.53,0-.93.62s-.39.82.12,1.65a2,2,0,0,1,.35,1,1.44,1.44,0,0,1-.05.49,2.65,2.65,0,0,1-1.49,0Z"></path></svg> 