<?xml version="1.0" encoding="UTF-8"?> <svg xmlns="http://www.w3.org/2000/svg" id="svg22" viewBox="0 0 191.79 150.77"><defs><style>.cls-1{fill:#6e777e;}</style></defs><g id="g8"><path id="path4-2" class="cls-1" d="M234.12,216.67c.91,0,1.67,0,1.67-1s-.76-.91-1.36-.91h-1.36v2.12h1.05Zm-1.21,3.63h-1v-6.65h2.57c1.51,0,2.26.61,2.26,1.82a1.71,1.71,0,0,1-1.66,1.81l1.81,2.87h-1.05L234,217.28h-1.06Zm1.21,2.42a5.75,5.75,0,1,1,0-11.49,5.75,5.75,0,1,1,0,11.49ZM229.44,217a4.73,4.73,0,0,0,4.68,4.83,4.76,4.76,0,1,0-4.68-4.83Z" transform="translate(-51.11 -74.61)"></path><path id="path6-4" class="cls-1" d="M107.33,178.14c0,13.75,13.9,13.75,13.9,13.75,13.9,0,13.9-13.75,13.9-13.75V100H118.51V74.61h56.22V180.1C174.43,191.74,184,192,184,192c10.88,0,15.87-11.94,15.87-11.94a73.42,73.42,0,0,0,7.25-32.79A158.41,158.41,0,0,0,199.82,100H185.91V74.61h46.25c10,24.64,10.73,66.65,10.73,66.65.45,55.92-26.6,73.9-26.6,73.9C203.14,227.1,184,225.29,184,225.29c-20.4,0-31.13-17.38-31.13-17.38-12.7,17.68-34.31,17.38-34.31,17.38-50.78,0-50.78-48.21-50.78-48.21V100H51.11V74.61h56.22V178.14" transform="translate(-51.11 -74.61)"></path></g></svg> 