<?xml version="1.0" encoding="UTF-8"?> <svg xmlns="http://www.w3.org/2000/svg" id="Layer_5" data-name="Layer 5" viewBox="0 0 639.87 236.65"><defs><style>.cls-1{fill:#dc505a;}.cls-2{fill:#fff;}</style></defs><path class="cls-1" d="M603,113.12,630.28,97a6.36,6.36,0,0,1,9.59,5.5v32.2a6.35,6.35,0,0,1-9.59,5.5l-27.3-16A6.46,6.46,0,0,1,603,113.12Z"></path><path class="cls-2" d="M88.91,67.42V169.24H67.39V67.42Z"></path><path class="cls-2" d="M191.82,67.42V169.24H173.23l-44.3-64.08h-.74v64.08H106.66V67.42h18.89l44,64h.89v-64Z"></path><path class="cls-2" d="M264.81,96.71a12.59,12.59,0,0,0-5.13-9.35Q255.17,84,247.4,84a23.69,23.69,0,0,0-8.89,1.47,12.45,12.45,0,0,0-5.55,4,9.63,9.63,0,0,0-1.91,5.86,8.21,8.21,0,0,0,1.17,4.78,11.34,11.34,0,0,0,3.5,3.5,25.4,25.4,0,0,0,5.17,2.54,51.34,51.34,0,0,0,6.27,1.81l9.14,2.19a64,64,0,0,1,12.23,4,36.87,36.87,0,0,1,9.65,6.11,25.72,25.72,0,0,1,6.34,8.55,27.37,27.37,0,0,1,2.31,11.29,28.13,28.13,0,0,1-4.75,16.18,30.21,30.21,0,0,1-13.52,10.59q-8.82,3.75-21.25,3.75a56,56,0,0,1-21.46-3.77,31.24,31.24,0,0,1-14.22-11.22q-5.08-7.42-5.34-18.42h20.83a15.37,15.37,0,0,0,3,8.53,15.8,15.8,0,0,0,7,5.12,27.11,27.11,0,0,0,10,1.72,26,26,0,0,0,9.52-1.59,14.63,14.63,0,0,0,6.29-4.43,10.22,10.22,0,0,0,2.23-6.51,8.54,8.54,0,0,0-2-5.77,15.76,15.76,0,0,0-5.87-4,61.7,61.7,0,0,0-9.42-3l-11.08-2.78q-12.89-3.13-20.34-9.8T209,96.86a26.62,26.62,0,0,1,4.95-16.16,33,33,0,0,1,13.75-10.79A48.5,48.5,0,0,1,247.55,66a47.2,47.2,0,0,1,19.82,3.88A31.27,31.27,0,0,1,280.56,80.7a28.54,28.54,0,0,1,4.88,16Z"></path><path class="cls-2" d="M295.28,67.42h24.11l23.22,43.85h1l23.22-43.85h24.11l-37.14,65.83v36H332.42v-36Z"></path><path class="cls-2" d="M487.83,67.42V169.24h-18.6l-44.29-64.08h-.75v64.08H402.66V67.42h18.9l43.95,64h.89v-64Z"></path><path class="cls-1" d="M36.9,174.83,9.6,190.93a6.37,6.37,0,0,1-9.6-5.5v-32.2a6.36,6.36,0,0,1,9.6-5.5l27.3,16.1A6.38,6.38,0,0,1,36.9,174.83Z"></path><path class="cls-1" d="M484,199.75l16.1,27.3a6.37,6.37,0,0,1-5.5,9.6h-32.2a6.36,6.36,0,0,1-5.5-9.6l16.1-27.3A6.38,6.38,0,0,1,484,199.75Z"></path><path class="cls-1" d="M337.59,36.9,321.49,9.6A6.37,6.37,0,0,1,327,0h32.2a6.36,6.36,0,0,1,5.5,9.6l-16.1,27.3A6.38,6.38,0,0,1,337.59,36.9Z"></path><path class="cls-2" d="M571,141.7a19.25,19.25,0,0,1-4.8,5.39,20.63,20.63,0,0,1-6.59,3.36,27.15,27.15,0,0,1-8,1.14,23.56,23.56,0,0,1-22.69-15q-3.25-7.41-3.26-18.3,0-10.59,3.23-18A25.32,25.32,0,0,1,537.94,89a24.22,24.22,0,0,1,13.77-3.91,25.66,25.66,0,0,1,8.13,1.25,20.64,20.64,0,0,1,6.64,3.58,19.1,19.1,0,0,1,4.72,5.64,19.3,19.3,0,0,1,1.21,2.69L590.7,87.44a.3.3,0,0,0,0-.08,38.07,38.07,0,0,0-9.57-11.61,42.06,42.06,0,0,0-13.44-7.23A52.45,52.45,0,0,0,551.21,66a47.85,47.85,0,0,0-24.16,6.14,43.88,43.88,0,0,0-17,17.83q-6.27,11.67-6.26,28.33T510,146.62a43.6,43.6,0,0,0,16.91,17.85,47.88,47.88,0,0,0,24.33,6.16,49.25,49.25,0,0,0,17.58-2.95,42,42,0,0,0,13.42-8.06,40.92,40.92,0,0,0,7.86-9.55l-18-10.54A20.05,20.05,0,0,1,571,141.7Z"></path></svg> 