<?xml version="1.0" encoding="UTF-8"?> <svg xmlns="http://www.w3.org/2000/svg" xmlns:xlink="http://www.w3.org/1999/xlink" id="Layer_1" data-name="Layer 1" viewBox="0 0 96.08 9.06"><defs><style>.cls-1{fill:none;}.cls-2{clip-path:url(#clip-path);}.cls-3{fill:#fff;}</style><clipPath id="clip-path" transform="translate(-1.05 -1.01)"><rect class="cls-1" x="-11.76" y="-12.16" width="110.92" height="35.4"></rect></clipPath></defs><g class="cls-2"><path id="path10" class="cls-3" d="M61.36,1.2a4.44,4.44,0,1,0,4.43,4.43A4.43,4.43,0,0,0,61.36,1.2m0,8a3.56,3.56,0,1,1,3.56-3.56,3.56,3.56,0,0,1-3.56,3.56" transform="translate(-1.05 -1.01)"></path></g><g class="cls-2"><path id="path12" class="cls-3" d="M63.25,4.76a1.38,1.38,0,0,0-1.38-1.37H59.93V7.83h.75V6.14h.77l.84,1.69h.84l-.87-1.74a1.39,1.39,0,0,0,1-1.33m-1.38.63H60.68V4.14h1.19a.63.63,0,0,1,0,1.25" transform="translate(-1.05 -1.01)"></path></g><g class="cls-2"><path id="path14" class="cls-3" d="M6.44,6.14a2.2,2.2,0,0,0-.5-.51,4,4,0,0,0-.81-.45L3.8,4.6a1.47,1.47,0,0,1-.72-.5,1.19,1.19,0,0,1-.17-.66,1.58,1.58,0,0,1,0-.38.88.88,0,0,1,.16-.32.84.84,0,0,1,.3-.22,1.34,1.34,0,0,1,.48-.08.82.82,0,0,1,.73.33,1.75,1.75,0,0,1,.21.94H6.49V3.47a2.4,2.4,0,0,0-.2-1.05,1.85,1.85,0,0,0-.55-.72,2.06,2.06,0,0,0-.84-.41,4.29,4.29,0,0,0-1.07-.13,2.86,2.86,0,0,0-1.95.63,2.4,2.4,0,0,0-.71,1.9,2.93,2.93,0,0,0,.14.93,1.74,1.74,0,0,0,.41.71,2.66,2.66,0,0,0,.71.54,6.41,6.41,0,0,0,1,.42,6.06,6.06,0,0,1,.72.28,1.81,1.81,0,0,1,.48.31,1.08,1.08,0,0,1,.26.38,1.46,1.46,0,0,1,.08.5,1,1,0,0,1-.32.8,1.11,1.11,0,0,1-.72.25,1.49,1.49,0,0,1-.56-.09A1,1,0,0,1,3,8.45,1,1,0,0,1,2.83,8a3.31,3.31,0,0,1,0-.55V7.24H1.05v.35a2.47,2.47,0,0,0,.64,1.83,2.9,2.9,0,0,0,2.1.64A3.48,3.48,0,0,0,6,9.44a2.37,2.37,0,0,0,.79-2,3.29,3.29,0,0,0-.07-.73,1.83,1.83,0,0,0-.26-.59" transform="translate(-1.05 -1.01)"></path></g><g class="cls-2"><path id="path16" class="cls-3" d="M11.88,7.32a3.7,3.7,0,0,1,0,.6,1.36,1.36,0,0,1-.15.47.92.92,0,0,1-.31.31,1.12,1.12,0,0,1-1,0,.84.84,0,0,1-.31-.31,1.36,1.36,0,0,1-.15-.47,3,3,0,0,1-.05-.6v-6H8.13v6a3.71,3.71,0,0,0,.23,1.41A2.08,2.08,0,0,0,9,9.57a2.26,2.26,0,0,0,.88.39,5.69,5.69,0,0,0,1,.1,4.93,4.93,0,0,0,1-.11,2.14,2.14,0,0,0,1.49-1.27,3.54,3.54,0,0,0,.23-1.36v-6H11.88Z" transform="translate(-1.05 -1.01)"></path></g><g class="cls-2"><path id="path18" class="cls-3" d="M20.07,2.14a2.19,2.19,0,0,0-.73-.59,2.48,2.48,0,0,0-1.12-.22h-3V9.92h1.74V6.49h.92A3.94,3.94,0,0,0,19,6.34a2.54,2.54,0,0,0,.86-.47,2,2,0,0,0,.55-.81,2.94,2.94,0,0,0,.2-1.16A3.73,3.73,0,0,0,20.46,3a2.22,2.22,0,0,0-.39-.82M18.53,4.9a1.13,1.13,0,0,1-.83.32h-.77V2.61h.72a1.13,1.13,0,0,1,.92.33,1.52,1.52,0,0,1,.28,1,1.3,1.3,0,0,1-.32,1" transform="translate(-1.05 -1.01)"></path></g><g class="cls-2"><path id="polygon20" class="cls-3" d="M26.6,4.77H23.71v-2h3.07V1.33H22V9.92H26.9V8.5H23.71V6.19H26.6Z" transform="translate(-1.05 -1.01)"></path></g><g class="cls-2"><path id="path22" class="cls-3" d="M34,9.36a10.42,10.42,0,0,1-.07-1l0-.63c0-.19,0-.36,0-.53a1.76,1.76,0,0,0-.37-1,1.53,1.53,0,0,0-1-.42v0A1.62,1.62,0,0,0,33.63,5,2.64,2.64,0,0,0,34,3.54a2.13,2.13,0,0,0-.6-1.66,2.42,2.42,0,0,0-1.69-.55h-3.2V9.92h1.73V6.29h.93a.9.9,0,0,1,.77.29,1.3,1.3,0,0,1,.25.79l0,1.65a3.87,3.87,0,0,0,.05.49.88.88,0,0,0,.17.41h1.87V9.85A.68.68,0,0,1,34,9.36M31.91,4.79a1.43,1.43,0,0,1-1,.3h-.72V2.61H31a1.05,1.05,0,0,1,1.2,1.19,1.28,1.28,0,0,1-.33,1" transform="translate(-1.05 -1.01)"></path></g><g class="cls-2"><path id="path24" class="cls-3" d="M40.84,2.47A2.2,2.2,0,0,0,40,1.62a3.18,3.18,0,0,0-1.46-.29H35.68V9.92h2.74a3.51,3.51,0,0,0,1.43-.26,2.07,2.07,0,0,0,.9-.81,3.79,3.79,0,0,0,.48-1.38,12.43,12.43,0,0,0,.13-2,13,13,0,0,0-.1-1.73,3.74,3.74,0,0,0-.42-1.31M39.58,7a3.09,3.09,0,0,1-.22,1,1,1,0,0,1-.44.52,1.52,1.52,0,0,1-.73.16h-.77v-6h.73a1.52,1.52,0,0,1,.79.18,1.13,1.13,0,0,1,.44.56,2.79,2.79,0,0,1,.2.92,12.32,12.32,0,0,1,.05,1.28c0,.59,0,1.08-.05,1.47" transform="translate(-1.05 -1.01)"></path></g><g class="cls-2"><path id="path26" class="cls-3" d="M48.32,9.36a10.42,10.42,0,0,1-.07-1l0-.63c0-.18,0-.35,0-.53a1.7,1.7,0,0,0-.38-1,1.51,1.51,0,0,0-1-.42v0A1.64,1.64,0,0,0,48,5a2.64,2.64,0,0,0,.35-1.42,2.1,2.1,0,0,0-.61-1.66A2.38,2.38,0,0,0,46,1.33h-3.2V9.92h1.73V6.29h.93a.9.9,0,0,1,.77.29,1.37,1.37,0,0,1,.25.79l0,1.65a3.87,3.87,0,0,0,.05.49.88.88,0,0,0,.17.41h1.87V9.85a.68.68,0,0,1-.31-.49M46.23,4.79a1.43,1.43,0,0,1-1,.3h-.72V2.61h.82a1.05,1.05,0,0,1,1.2,1.19,1.28,1.28,0,0,1-.33,1" transform="translate(-1.05 -1.01)"></path></g><g class="cls-2"><path id="polygon28" class="cls-3" d="M51.19,1.33H49.24l2.22,5.21V9.92H53.2V6.54l2.22-5.21H53.54l-1.2,3.32h0Z" transform="translate(-1.05 -1.01)"></path></g><g class="cls-2"><path id="rect30" class="cls-3" d="M88.63,1.81h2.68v.83H88.63Z" transform="translate(-1.05 -1.01)"></path></g><g class="cls-2"><path id="path32" class="cls-3" d="M96.41,8.39v.24a.28.28,0,0,1-.32.32h-.91a.23.23,0,0,1-.26-.26V8.22q.81-.11,1.62-.27l0,.27.54-.1a6.22,6.22,0,0,0-.4-1.4l-.5.12a4.69,4.69,0,0,1,.2.6l-.64.06c.12-.36.23-.72.32-1.06l-.58-.11a10.87,10.87,0,0,1-.33,1.23l-.26,0V6.07H96.6V1.81H94.45l.26-.68L93.78,1l-.28.8H91.87V6.08h.86v.49a2.62,2.62,0,0,1-.68,1.84A16.72,16.72,0,0,0,91.23,6l-.7.27c.17.44.32.84.45,1.21l-1.42.26a25.53,25.53,0,0,0,.71-2.87h1.27V4H88.41V4.9h1a30.15,30.15,0,0,1-.69,3l-.4.06.16.94c.9-.15,1.8-.35,2.69-.59.06.25.11.48.16.68l-.46.24.63.7a3.49,3.49,0,0,0,2-3.35V6.08h.53V8.94c0,.57.26.85.78.85h1.49c.52,0,.78-.28.78-.85V8.59Zm-3.7-3.08v-1H93.8v1Zm0-1.69V2.57H93.8V3.62Zm3.05-1.05V3.62H94.63V2.57Zm0,1.77v1H94.63v-1Z" transform="translate(-1.05 -1.01)"></path></g><g class="cls-2"><path id="path34" class="cls-3" d="M69.06,9.92h.86V9.55h4.82v.37h.86V5.14H69.06Zm5.68-4.1v.61H69.92V5.82Zm0,1.22v.61H69.92V7Zm0,1.22v.61H69.92V8.26Z" transform="translate(-1.05 -1.01)"></path></g><g class="cls-2"><path id="path36" class="cls-3" d="M76.47,4.53V1.33H68.19v3.2ZM75.61,2v.61H69.06V2Zm0,1.21v.61H69.06V3.23Z" transform="translate(-1.05 -1.01)"></path></g><g class="cls-2"><path id="path38" class="cls-3" d="M84.79,7.37h1.73V4.86h-2V4.08h1V3.56c.28.22.59.44.93.67l.62-.76a6.71,6.71,0,0,1-2.65-2.39h-.82A8,8,0,0,1,81,3.5l.59.74c.31-.23.61-.45.9-.68v.52h1.13v.79H81.59v2.5h1.7a4.67,4.67,0,0,1-2.47,1.79l.64.77a4.91,4.91,0,0,0,2.66-2.17,5.84,5.84,0,0,0,1,1.2,5.21,5.21,0,0,0,1.5.95l.64-.76a6.46,6.46,0,0,1-1.61-.87,4.49,4.49,0,0,1-.84-.91M83.65,5.94a2.81,2.81,0,0,1-.07.67H82.43v-1h1.22Zm-.88-2.59A8.73,8.73,0,0,0,84,1.91,5.92,5.92,0,0,0,85.3,3.35Zm1.76,2.59V5.63h1.15v1h-1.2a4.91,4.91,0,0,0,0-.67" transform="translate(-1.05 -1.01)"></path></g><g class="cls-2"><path id="path40" class="cls-3" d="M81,6.68a5,5,0,0,0-.15-.94,5.66,5.66,0,0,0-.56-1.19L81,2.17V1.33H78.19V9.92H79V2.11h1.24L79.49,4.6a6.48,6.48,0,0,1,.59,1.3,3.09,3.09,0,0,1,.12.78,1,1,0,0,1-.13.57c-.08.1-.32.15-.72.16l.62.74a1.54,1.54,0,0,0,.68-.26c.23-.19.33-.53.31-1.21" transform="translate(-1.05 -1.01)"></path></g></svg> 