<?xml version="1.0" encoding="UTF-8"?> <svg xmlns="http://www.w3.org/2000/svg" id="Layer_1" data-name="Layer 1" viewBox="0 0 396.90819 47.10952"><path d="M83.98393,9.25164h-.02676A3.41,3.41,0,0,1,80.5433,5.77428a3.45669,3.45669,0,1,1,3.44063,3.47736Zm.04879-6.35558a2.91961,2.91961,0,0,0-2.95219,2.88241A2.8783,2.8783,0,0,0,83.96137,8.7144l.02256.26862V8.7144a2.90928,2.90928,0,1,0,.04984-5.81834Z" transform="translate(-2.94267 -2.35778)" style="fill:#6e777e"></path><g id="SPLINE"><path d="M82.20892,7.57718V7.36484a1.52252,1.52252,0,0,0,.33586-.048.08917.08917,0,0,0,.04055-.048,1.88759,1.88759,0,0,0,.035-.40937q.01272-.54074.01291-.85159,0-.41952-.01033-1.06634a2.73082,2.73082,0,0,0-.04792-.59127.08633.08633,0,0,0-.04019-.05055,1.31044,1.31044,0,0,0-.3259-.05572V4.0319q.52258.01771.67429.01771L84.1481,4.0319a1.65484,1.65484,0,0,1,.59945.07933.63908.63908,0,0,1,.29825.255.76291.76291,0,0,1,.10949.41251.84562.84562,0,0,1-.17549.53114,1.4371,1.4371,0,0,1-.6094.40495l.53752.81118.41917.62154a.76367.76367,0,0,0,.177.1832.434.434,0,0,0,.18912.03413v.19463l-.14894.00258q-.64147.005-.82544.01513-.2201-.35116-.65659-1.01837L83.542,5.76792a.54371.54371,0,0,0,.038-.091,1.35279,1.35279,0,0,0,.14894.01254.71811.71811,0,0,0,.46193-.18983.66651.66651,0,0,0,.22747-.54184.623.623,0,0,0-.17991-.476.75992.75992,0,0,0-.539-.16954q-.11391,0-.30894.01771l-.01659.74607-.021.94586q0,.32129.02507.82189a2.40114,2.40114,0,0,0,.04018.42247.11341.11341,0,0,0,.05493.05313,1.15112,1.15112,0,0,0,.34175.04539v.21234q-.454-.01772-.80405-.01771Q82.6375,7.55947,82.20892,7.57718Z" transform="translate(-2.94267 -2.35778)" style="fill:#6e777e"></path></g><path d="M396.37865,9.25169h-.02676A3.41,3.41,0,0,1,392.938,5.77434a3.45668,3.45668,0,1,1,3.44062,3.47735Zm.04879-6.35556a2.9196,2.9196,0,0,0-2.95218,2.88241,2.87829,2.87829,0,0,0,2.88083,2.93591l.02256.26862V8.71445a2.90927,2.90927,0,1,0,.04984-5.81832Z" transform="translate(-2.94267 -2.35778)" style="fill:#6e777e"></path><g id="SPLINE-2" data-name="SPLINE"><path d="M394.60365,7.57724V7.36489a1.52336,1.52336,0,0,0,.33585-.048.0892.0892,0,0,0,.04055-.048,1.888,1.888,0,0,0,.035-.40937q.0127-.54073.0129-.85159,0-.41952-.01032-1.06633a2.73074,2.73074,0,0,0-.04793-.59128.08641.08641,0,0,0-.04018-.05055,1.31132,1.31132,0,0,0-.3259-.05571V4.032q.52257.01771.67428.01771l1.26489-.01771a1.65474,1.65474,0,0,1,.59944.07933.63892.63892,0,0,1,.29825.255.76278.76278,0,0,1,.10949.41251.84559.84559,0,0,1-.17548.53113,1.43717,1.43717,0,0,1-.6094.405l.53751.81118.41917.62154a.76335.76335,0,0,0,.177.18319.43367.43367,0,0,0,.18912.03413v.19463l-.14894.00259q-.64146.005-.82543.01513-.2201-.35118-.65659-1.01837l-.52019-.79089a.54336.54336,0,0,0,.038-.09095,1.35341,1.35341,0,0,0,.14894.01255.71807.71807,0,0,0,.46193-.18984.66651.66651,0,0,0,.22747-.54184.623.623,0,0,0-.17991-.476.75992.75992,0,0,0-.539-.16954q-.11391,0-.30894.01771l-.01659.74606-.021.94586q0,.32128.02507.82188a2.40133,2.40133,0,0,0,.04018.42248.11341.11341,0,0,0,.05493.05313,1.151,1.151,0,0,0,.34175.04538v.21235q-.454-.01771-.80405-.01772Q395.03221,7.55952,394.60365,7.57724Z" transform="translate(-2.94267 -2.35778)" style="fill:#6e777e"></path></g><path d="M43.856,28.29954H70.83773l-1.30268,1.82437H42.56958L35.584,40.301h5.113l4.33141-6.25316H65.46417c5.13236,0,7.74994-1.46883,9.135-3.51709l2.08429-3.045c.91188-1.319.1954-3.22391-2.57279-3.22391H46.673Z" transform="translate(-2.94267 -2.35778)" style="fill:#6e777e"></path><path d="M41.12035,30.12391H13.99205l1.27012-1.824,27.112-.00033,2.67049-3.87514-32.27388-.03257s-3.1965,4.588-4.31512,6.25286c-1.25383,1.82375-.114,3.908,3.06129,3.908h26.534Z" transform="translate(-2.94267 -2.35778)" style="fill:#6e777e"></path><path d="M49.27838,18.30208H23.66445c-5.47927,0-8.671,2.75973-9.648,4.27419l32.29836.02447Z" transform="translate(-2.94267 -2.35778)" style="fill:#6e777e"></path><path d="M76.53694,48.94027H7.20184a4.59533,4.59533,0,0,1-4.25917-4.22659V13.57959A4.59534,4.59534,0,0,1,7.20184,9.353h69.3351a4.59544,4.59544,0,0,1,4.25928,4.22659V44.71368A4.59544,4.59544,0,0,1,76.53694,48.94027ZM7.20184,10.381a3.588,3.588,0,0,0-3.23118,3.1986V44.71368a3.588,3.588,0,0,0,3.23118,3.1986h69.3351a3.58791,3.58791,0,0,0,3.23106-3.1986V13.57959a3.58792,3.58792,0,0,0-3.23106-3.1986Z" transform="translate(-2.94267 -2.35778)" style="fill:#6e777e"></path><path d="M361.87034,43.1243" transform="translate(-2.94267 -2.35778)" style="fill:#6e777e"></path><path d="M362.2371,42.835a5.07848,5.07848,0,0,0-3.711-1.45493c-2.61925,0-4.19032,1.47955-4.19032,3.25474s1.68594,3.03721,4.17464,3.03721a5.108,5.108,0,0,0,3.73943-1.45493l1.68466.84232a6.81832,6.81832,0,0,1-5.395,2.3313c-3.52608,0-6.07859-1.92289-6.07859-4.82,0-2.75671,2.19516-4.81892,6.07859-4.81892a6.4941,6.4941,0,0,1,5.41189,2.57151S362.43875,42.76174,362.2371,42.835Z" transform="translate(-2.94267 -2.35778)" style="fill:#6e777e"></path><path d="M140.28221,29.16641v-5.276H107.01112V21.50914c10.48067,0,22.79061.0001,33.27109,0V16.91457H100.647l.01881,7.04461c0,2.48222,2.961,5.20723,7.41751,5.20723Z" transform="translate(-2.94267 -2.35778)" style="fill:#6e777e"></path><polygon points="354.478 19.365 354.478 26.809 348.189 26.809 348.189 7.002 354.478 7.002 354.478 14.614 381.378 14.614 381.378 7.002 387.666 7.002 387.666 26.809 381.378 26.809 381.378 19.365 354.478 19.365" style="fill:#6e777e"></polygon><polygon points="262.456 7.002 222.92 7.002 222.915 12.228 239.532 12.228 239.532 26.809 245.758 26.809 245.758 12.228 262.456 12.228 262.456 7.002" style="fill:#6e777e"></polygon><polygon points="179.045 7.002 172.578 7.001 159.239 21.545 146.083 7.002 139.569 7.002 156.089 26.809 162.521 26.809 179.045 7.002" style="fill:#6e777e"></polygon><path d="M140.28221,9.35929V14.5732l-39.6099,0c0-2.40569,2.74435-5.22252,7.20144-5.22252Z" transform="translate(-2.94267 -2.35778)" style="fill:#6e777e"></path><path d="M307.26766,29.16641v-5.276H273.99657V21.50914c10.48067,0,22.79061.0001,33.27109,0V16.91457H267.63243l.01881,7.04461c0,2.48222,2.961,5.20723,7.41751,5.20723Z" transform="translate(-2.94267 -2.35778)" style="fill:#6e777e"></path><path d="M307.26766,9.35929V14.5732l-39.6099,0c0-2.40569,2.74435-5.22252,7.20144-5.22252Z" transform="translate(-2.94267 -2.35778)" style="fill:#6e777e"></path><polygon points="265.248 39.339 265.248 46.781 263.456 46.781 263.456 37.657 266.14 37.657 269.803 42.736 273.479 37.657 276.134 37.657 276.165 46.781 274.374 46.781 274.374 39.339 269.829 45.557 265.248 39.339" style="fill:#6e777e"></polygon><polygon points="380.188 39.318 380.188 41.186 385.557 41.186 385.557 42.815 380.188 42.815 380.188 45.124 388.176 45.124 388.171 46.776 378.398 46.776 378.398 37.655 387.926 37.695 387.926 39.318 380.188 39.318" style="fill:#6e777e"></polygon><polygon points="127.489 39.318 127.489 41.186 132.858 41.186 132.858 42.815 127.489 42.815 127.489 45.124 135.477 45.124 135.472 46.776 125.699 46.776 125.699 37.655 135.227 37.654 135.227 39.318 127.489 39.318" style="fill:#6e777e"></polygon><polygon points="182.672 39.318 182.671 41.186 188.041 41.186 188.041 42.815 182.672 42.815 182.672 46.776 180.881 46.776 180.881 37.655 190.41 37.695 190.41 39.318 182.672 39.318" style="fill:#6e777e"></polygon><polygon points="323.227 39.265 323.227 46.781 321.466 46.781 321.466 37.669 324.146 37.669 330.208 45.097 330.208 37.669 332.095 37.669 332.095 46.782 329.341 46.782 323.227 39.265" style="fill:#6e777e"></polygon><path d="M103.13538,49.134h-1.76424l.02255-9.11675,7.51562.00589a2.68887,2.68887,0,0,1,2.97257,2.8806,2.70182,2.70182,0,0,1-2.98886,2.91357l-5.75764.0088Zm.00692-7.45863v2.48611l5.50636-.01028a1.16485,1.16485,0,0,0,1.29513-1.256c0-.82376-.47244-1.21525-1.287-1.21525Z" transform="translate(-2.94267 -2.35778)" style="fill:#6e777e"></path><path d="M240.07423,49.13927H238.2111l.02256-9.12435h7.51562a2.733,2.733,0,0,1,3.01582,2.89667,2.52574,2.52574,0,0,1-2.1824,2.76948l2.41212,3.4582h-2.13134l-2.39937-3.34315h-4.38988Zm-.00044-7.49155.00044,2.54h5.30064c.84713,0,1.47584-.4579,1.47584-1.22457a1.33566,1.33566,0,0,0-1.46769-1.31546Z" transform="translate(-2.94267 -2.35778)" style="fill:#6e777e"></path><path d="M157.54522,49.13927h-1.86313l.02255-9.12435h7.51563a2.733,2.733,0,0,1,3.01581,2.89667,2.52574,2.52574,0,0,1-2.18239,2.76948l2.41212,3.4582h-2.13135l-2.39936-3.34315h-4.38988Zm-.00044-7.49155.00044,2.54h5.30064c.84713,0,1.47584-.4579,1.47584-1.22457a1.33567,1.33567,0,0,0-1.4677-1.31546Z" transform="translate(-2.94267 -2.35778)" style="fill:#6e777e"></path><path d="M216.73511,9.35929h-25.523c-4.34884,0-7.11027,2.754-7.11027,5.22376,0,2.99705.02457,6.472.02457,9.47035,0,2.45906,2.79232,5.113,7.08858,5.113h25.51728c4.29625,0,7.08858-2.65395,7.08858-5.113,0-2.99831.02457-6.4733.02457-9.47035C223.84538,12.11332,221.084,9.35929,216.73511,9.35929Zm.69345,11.51987c0,.94165-.76063,3.01406-5.67565,3.01406H196.1127c-4.91483,0-5.662-2.07241-5.662-3.01406v-3.1859c0-1.00747.7794-3.04889,5.21288-3.04889l16.53843-.00021c4.43348,0,5.22654,2.04214,5.22654,3.04961Z" transform="translate(-2.94267 -2.35778)" style="fill:#6e777e"></path><path d="M348.83656,23.89322H321.288c-4.91483,0-5.662-2.07241-5.662-3.01406v-3.1859c0-1.00747.77941-3.04889,5.21289-3.04889l27.99769-.00021V9.35929H316.38735c-4.34885,0-7.11027,2.754-7.11027,5.22376,0,2.99705.02456,6.472.02456,9.47035,0,2.45906,2.79233,5.113,7.08858,5.113h32.44634Z" transform="translate(-2.94267 -2.35778)" style="fill:#6e777e"></path><path d="M220.76219,44.60955c0,2.68286-2.6845,4.85775-5.996,4.85775s-5.996-2.17489-5.996-4.85775c0-2.83383,2.6845-4.95242,5.996-4.95242S220.76219,41.8523,220.76219,44.60955ZM214.77956,41.394c-2.26288,0-4.12385,1.41478-4.12385,3.19s1.83443,3.088,4.09732,3.088,4.09731-1.31284,4.09731-3.088S217.04245,41.394,214.77956,41.394Z" transform="translate(-2.94267 -2.35778)" style="fill:#6e777e"></path><path d="M302.90392,40.01449h-2.29727l-4.93911,9.12478,2.0803-.01231,1.05929-1.92715,5.94736.01277,1.05929,1.90162H307.843ZM299.6367,45.5662l2.11858-3.93087,2.14412,3.93087Z" transform="translate(-2.94267 -2.35778)" style="fill:#6e777e"></path><path d="M362.03077,43.15077" transform="translate(-2.94267 -2.35778)" style="fill:#6e777e"></path></svg> 