<?xml version="1.0" encoding="UTF-8"?> <svg xmlns="http://www.w3.org/2000/svg" id="Layer_1" data-name="Layer 1" viewBox="0 0 246.25 301.52"><defs><style>.cls-1{fill:#085d67;}.cls-2{fill:#a56b31;}.cls-3,.cls-4{fill:#778692;}.cls-4{stroke:#778692;}</style></defs><path class="cls-1" d="M19.45,265.62v-1.57H7v32H19.45v-1.56H8.6V279.31h8.92v-1.56H8.6V265.62H19.45m6,7.44a6.2,6.2,0,0,0-2.13,1.61v-1.94H21.81v34h1.55V294.15a7,7,0,0,0,2.13,1.59,6,6,0,0,0,2.64.59A6.25,6.25,0,0,0,34,292.46a6.07,6.07,0,0,0,.5-2.48V278.84a6.16,6.16,0,0,0-.5-2.49,6.28,6.28,0,0,0-5.82-3.86A6.17,6.17,0,0,0,25.49,273.06ZM32.89,290a4.73,4.73,0,0,1-.37,1.87,5,5,0,0,1-1,1.52,4.82,4.82,0,0,1-1.51,1,4.74,4.74,0,0,1-3.72,0,4.71,4.71,0,0,1-1.51-1,4.84,4.84,0,0,1-1-1.52,4.74,4.74,0,0,1-.38-1.87V278.84a4.82,4.82,0,0,1,1.4-3.39,4.9,4.9,0,0,1,1.51-1,4.74,4.74,0,0,1,3.72,0,5,5,0,0,1,1.51,1,4.89,4.89,0,0,1,1,1.52,4.69,4.69,0,0,1,.37,1.87Zm9.65-7.28a13,13,0,0,1-1.65-1.06,4.89,4.89,0,0,1-1.16-1.26,2.9,2.9,0,0,1-.42-1.54,4.53,4.53,0,0,1,.38-1.87,4.87,4.87,0,0,1,1-1.52,5.15,5.15,0,0,1,1.51-1,4.65,4.65,0,0,1,1.86-.38,4.74,4.74,0,0,1,1.87.38,5.15,5.15,0,0,1,1.51,1,4.87,4.87,0,0,1,1,1.52,4.7,4.7,0,0,1,.38,1.87H50.4a6.33,6.33,0,0,0-.5-2.49,6.49,6.49,0,0,0-1.34-2,6.35,6.35,0,0,0-2-1.35,6.38,6.38,0,0,0-4.95,0,6.35,6.35,0,0,0-2,1.35,6.49,6.49,0,0,0-1.34,2,6.33,6.33,0,0,0-.5,2.49,4.16,4.16,0,0,0,.54,2.15,6.91,6.91,0,0,0,1.4,1.67A10.75,10.75,0,0,0,41.6,284c.7.4,1.42.77,2.14,1.11s1.3.69,1.91,1a10.2,10.2,0,0,1,1.63,1.06,4.93,4.93,0,0,1,1.13,1.26,2.82,2.82,0,0,1,.43,1.54,4.74,4.74,0,0,1-.38,1.87,4.64,4.64,0,0,1-2.52,2.53,4.57,4.57,0,0,1-1.87.38,4.49,4.49,0,0,1-1.86-.38,4.64,4.64,0,0,1-2.52-2.53,4.57,4.57,0,0,1-.38-1.87H37.75a6.24,6.24,0,0,0,.5,2.48,6.42,6.42,0,0,0,1.34,2,6.35,6.35,0,0,0,2,1.35,6.38,6.38,0,0,0,4.95,0,6.35,6.35,0,0,0,2-1.35,6.42,6.42,0,0,0,1.34-2,6.24,6.24,0,0,0,.5-2.48,4.23,4.23,0,0,0-.55-2.16,6.69,6.69,0,0,0-1.39-1.68,10.23,10.23,0,0,0-1.91-1.35c-.71-.4-1.41-.77-2.1-1.12S43.15,283,42.54,282.7ZM55,274.29h5.09v-1.56H55v-6.64H53.46V290a6.78,6.78,0,0,0,.45,2.48,6.33,6.33,0,0,0,1.23,2A5.84,5.84,0,0,0,57,295.83a5.08,5.08,0,0,0,2.22.5v-1.57a3.4,3.4,0,0,1-1.6-.38,4.38,4.38,0,0,1-1.33-1,5.07,5.07,0,0,1-.89-1.52A5.29,5.29,0,0,1,55,290Zm19.39,4.55v0a6.19,6.19,0,0,0-.5-2.44,6.49,6.49,0,0,0-1.34-2,6.35,6.35,0,0,0-2-1.35,6.38,6.38,0,0,0-5,0,6.35,6.35,0,0,0-2,1.35,6.49,6.49,0,0,0-1.34,2,6.33,6.33,0,0,0-.5,2.49V290a6.24,6.24,0,0,0,.5,2.48,6.42,6.42,0,0,0,1.34,2,6.35,6.35,0,0,0,2,1.35,6.38,6.38,0,0,0,5,0,6.35,6.35,0,0,0,2-1.35,6.42,6.42,0,0,0,1.34-2,6.24,6.24,0,0,0,.5-2.48H72.85a4.74,4.74,0,0,1-.38,1.87A4.64,4.64,0,0,1,70,294.38a4.49,4.49,0,0,1-1.86.38,4.53,4.53,0,0,1-1.87-.38,4.64,4.64,0,0,1-2.52-2.53,4.74,4.74,0,0,1-.38-1.87v-4c.41-.13,1-.33,1.7-.62s1.47-.57,2.24-.85,1.49-.56,2.15-.83,1.13-.45,1.41-.55Q74.41,281.78,74.41,278.84ZM70,274.43a5.15,5.15,0,0,1,1.51,1,4.89,4.89,0,0,1,1,1.5,4.49,4.49,0,0,1,.38,1.84,2.2,2.2,0,0,1-.85,1.85,7.19,7.19,0,0,1-1.7,1l-1.25.47-1.91.71q-1,.38-2.07.78l-1.75.69v-5.45A4.7,4.7,0,0,1,63.7,277a4.87,4.87,0,0,1,1-1.52,5.15,5.15,0,0,1,1.51-1,4.7,4.7,0,0,1,1.87-.38A4.65,4.65,0,0,1,70,274.43Zm7.1-2.08V274h1.56v21.8h1.55V272.35Zm2.76-5.74a1.21,1.21,0,0,0,0-1.7,1.18,1.18,0,0,0-.83-.33,1.16,1.16,0,0,0-.85.33,1.26,1.26,0,0,0,0,1.7A1.17,1.17,0,0,0,79,267,1.19,1.19,0,0,0,79.81,266.61Zm8.28,6.45A6.2,6.2,0,0,0,86,274.67v-1.94H84.41v23.36H86V278.84a4.82,4.82,0,0,1,1.4-3.39,5,5,0,0,1,1.5-1,4.74,4.74,0,0,1,1.87-.38,4.65,4.65,0,0,1,1.86.38,5,5,0,0,1,1.51,1,4.89,4.89,0,0,1,1,1.52,4.69,4.69,0,0,1,.37,1.87v17.25h1.56V278.84a6.32,6.32,0,0,0-.49-2.49,6.52,6.52,0,0,0-1.35-2,6.35,6.35,0,0,0-4.48-1.85A6.14,6.14,0,0,0,88.09,273.06Zm21.13-9h-1.56v32h6.49a6.78,6.78,0,0,0,2.66-.52,6.57,6.57,0,0,0,2.16-1.45,7,7,0,0,0,1.46-2.15,6.55,6.55,0,0,0,.54-2.66V270.83a6.51,6.51,0,0,0-.54-2.65A7,7,0,0,0,119,266a6.39,6.39,0,0,0-2.16-1.44,6.79,6.79,0,0,0-2.66-.53Zm10.19,25.26a5,5,0,0,1-.42,2,5.7,5.7,0,0,1-1.14,1.66,5.21,5.21,0,0,1-1.65,1.11,5.08,5.08,0,0,1-2,.41h-5V265.62h5a5.07,5.07,0,0,1,2,.4,5.21,5.21,0,0,1,1.65,1.11,5.84,5.84,0,0,1,1.14,1.66,5,5,0,0,1,.42,2Zm12.64-16.82a6.09,6.09,0,0,0-4.62,2.18v-1.94h-3.11v1.56h1.55v21.8h1.56V278.84a4.7,4.7,0,0,1,.38-1.87,4.59,4.59,0,0,1,1-1.52,5.63,5.63,0,0,1,1.52-1,4.44,4.44,0,0,1,1.83-.38H134v-1.56Zm7.15.5a6.19,6.19,0,0,0-2,1.35,6.28,6.28,0,0,0-1.84,4.5h1.55a4.7,4.7,0,0,1,.38-1.87,4.47,4.47,0,0,1,1-1.52,5.43,5.43,0,0,1,1.51-1,4.49,4.49,0,0,1,1.84-.38,4,4,0,0,1,3.18,1.4,5,5,0,0,1,1.2,3.39v2.65c-.37.16-.93.38-1.65.64l-2.24.86-2.17.83c-.68.25-1.15.44-1.44.56q-3.59,1.33-3.58,4.27V290a6.3,6.3,0,0,0,6.32,6.35,6.07,6.07,0,0,0,2.64-.59,6.83,6.83,0,0,0,2.12-1.59v1.94h1.56V278.84a6.88,6.88,0,0,0-.45-2.49,6.56,6.56,0,0,0-1.22-2,5.71,5.71,0,0,0-4.27-1.85A6.21,6.21,0,0,0,139.2,273Zm6.86,17a4.73,4.73,0,0,1-.37,1.87,5,5,0,0,1-1,1.52,4.82,4.82,0,0,1-1.51,1,4.74,4.74,0,0,1-3.72,0,4.71,4.71,0,0,1-1.51-1,4.84,4.84,0,0,1-1-1.52,4.74,4.74,0,0,1-.38-1.87v-1.33a2.17,2.17,0,0,1,.85-1.8,6.9,6.9,0,0,1,1.75-1l1.23-.47,1.88-.73,2.08-.79q1-.37,1.74-.66Zm8.54-16.92a6.16,6.16,0,0,0-2.12,1.61v-1.94h-1.56v23.36h1.56V278.84a4.69,4.69,0,0,1,.37-1.87,4.77,4.77,0,0,1,2.53-2.54,4.65,4.65,0,0,1,1.86-.38,4.74,4.74,0,0,1,1.87.38,5.15,5.15,0,0,1,1.51,1,4.87,4.87,0,0,1,1,1.52,4.7,4.7,0,0,1,.38,1.87v17.25h1.56V278.84a6.33,6.33,0,0,0-.5-2.49,6.49,6.49,0,0,0-1.34-2,6.35,6.35,0,0,0-2-1.35,6.4,6.4,0,0,0-5.12.07Zm23.35-.33v1.94a6.19,6.19,0,0,0-4.76-2.18,6.3,6.3,0,0,0-4.48,1.85,6.28,6.28,0,0,0-1.84,4.5V290a6.3,6.3,0,0,0,6.32,6.35,6.07,6.07,0,0,0,2.64-.59,7,7,0,0,0,2.12-1.59v6.59a4.52,4.52,0,0,1-.37,1.84,5.27,5.27,0,0,1-1,1.52,4.58,4.58,0,0,1-1.51,1,4.74,4.74,0,0,1-3.72,0,4.48,4.48,0,0,1-1.51-1,5.07,5.07,0,0,1-1-1.52,4.52,4.52,0,0,1-.38-1.84h-1.55a6.24,6.24,0,0,0,.49,2.48,6.28,6.28,0,0,0,3.35,3.37,6.5,6.5,0,0,0,4.95,0,6.52,6.52,0,0,0,2-1.35,6.36,6.36,0,0,0,1.34-2,6.24,6.24,0,0,0,.5-2.48v-28Zm-6.62,21.65a4.71,4.71,0,0,1-1.51-1,4.84,4.84,0,0,1-1-1.52,4.74,4.74,0,0,1-.38-1.87V278.84a4.82,4.82,0,0,1,1.4-3.39,4.9,4.9,0,0,1,1.51-1,4.74,4.74,0,0,1,3.72,0,5,5,0,0,1,1.51,1,4.89,4.89,0,0,1,1,1.52,4.69,4.69,0,0,1,.37,1.87V290a4.73,4.73,0,0,1-.37,1.87,5,5,0,0,1-1,1.52,4.82,4.82,0,0,1-1.51,1,4.74,4.74,0,0,1-3.72,0Zm24.59-15.54v0a6.18,6.18,0,0,0-.49-2.44,6.35,6.35,0,0,0-1.35-2,6.35,6.35,0,0,0-7-1.35,6.35,6.35,0,0,0-2,1.35,6.49,6.49,0,0,0-1.34,2,6.33,6.33,0,0,0-.5,2.49V290a6.24,6.24,0,0,0,.5,2.48,6.42,6.42,0,0,0,1.34,2,6.35,6.35,0,0,0,2,1.35,6.33,6.33,0,0,0,7-1.35,6.33,6.33,0,0,0,1.84-4.5h-1.55a4.74,4.74,0,0,1-.38,1.87,4.64,4.64,0,0,1-2.52,2.53,4.53,4.53,0,0,1-1.87.38,4.49,4.49,0,0,1-1.86-.38,4.64,4.64,0,0,1-2.52-2.53,4.57,4.57,0,0,1-.38-1.87v-4c.41-.13,1-.33,1.7-.62s1.47-.57,2.24-.85,1.48-.56,2.14-.83,1.14-.45,1.42-.55Q195.93,281.78,195.92,278.84Zm-4.45-4.41a5.15,5.15,0,0,1,1.51,1,4.89,4.89,0,0,1,1,1.5,4.49,4.49,0,0,1,.38,1.84,2.23,2.23,0,0,1-.85,1.85,7.19,7.19,0,0,1-1.7,1l-1.25.47-1.91.71-2.08.78-1.74.69v-5.45a4.53,4.53,0,0,1,.38-1.87,4.87,4.87,0,0,1,1-1.52,5.15,5.15,0,0,1,1.51-1,4.65,4.65,0,0,1,1.86-.38A4.7,4.7,0,0,1,191.47,274.43ZM199,296.09h1.56v-34H199Zm16.8-1.56V264.05h-1.56v32h11.65v-1.56Zm13.06,0V264.05H227.3v32H239v-1.56Zm13.07-30.48h-1.56v32h1.56V284.15h5a6.77,6.77,0,0,0,2.48-.67,7,7,0,0,0,2-1.47,6.49,6.49,0,0,0,1.37-2.08,6.57,6.57,0,0,0,.5-2.56v-6.54a6.61,6.61,0,0,0-.52-2.61,6.77,6.77,0,0,0-1.44-2.15,7,7,0,0,0-2.12-1.47,6.34,6.34,0,0,0-2.62-.55Zm9.81,13.32a4.91,4.91,0,0,1-.4,2,5.56,5.56,0,0,1-1.08,1.64,5.43,5.43,0,0,1-1.63,1.14,5,5,0,0,1-2,.42h-4.67v-17h4.58a4.87,4.87,0,0,1,2,.42,5.55,5.55,0,0,1,2.79,2.8,4.87,4.87,0,0,1,.42,2Z" transform="translate(-7.04 -5.57)"></path><path class="cls-1" d="M129.43,231.88A105.15,105.15,0,0,1,70.31,39.75a29.6,29.6,0,0,1-.92-3,108.19,108.19,0,0,0,94.28,192.59l-.95-2.85A105,105,0,0,1,129.43,231.88Z" transform="translate(-7.04 -5.57)"></path><path class="cls-1" d="M129.43,18.52c-1.25,0-2.48,0-3.72.07a30.58,30.58,0,0,1,1,3c.89,0,1.79,0,2.7,0A105.31,105.31,0,0,1,234.61,126.7a106.47,106.47,0,0,1-1,14.52l3,.41A108.21,108.21,0,0,0,129.43,18.52Z" transform="translate(-7.04 -5.57)"></path><path class="cls-2" d="M129.43,39.75c-1.13,0-2.25,0-3.37.07A29.66,29.66,0,0,1,81.47,54.16a87,87,0,1,0,48-14.41ZM107.42,193H91V70.86h16.46Zm66.5-46.7q-10,12.93-24.19,12.94A22.44,22.44,0,0,1,147,159V193H131.78V70.86h17.95q14.21,0,24.19,12.94t10,31.19Q183.92,133.34,173.92,146.27Z" transform="translate(-7.04 -5.57)"></path><path class="cls-2" d="M149.73,89H147v51.76a14,14,0,0,0,2.72.25q8.36,0,14.24-7.63A29.29,29.29,0,0,0,169.85,115q0-10.78-5.88-18.37T149.73,89Z" transform="translate(-7.04 -5.57)"></path><path class="cls-3" d="M100.87,5.72a24.09,24.09,0,1,0,21.27,26.62A24.09,24.09,0,0,0,100.87,5.72" transform="translate(-7.04 -5.57)"></path><path class="cls-4" d="M176,227.78a3,3,0,0,0,1-.76,3.17,3.17,0,0,0,.48-3.47l.94-.45a4.13,4.13,0,0,1,.41,1.63,4,4,0,0,1-.23,1.59,4.44,4.44,0,0,1-.81,1.39,4.27,4.27,0,0,1-1.35,1,4.13,4.13,0,0,1-1.63.41,4.07,4.07,0,0,1-1.59-.23,4.24,4.24,0,0,1-1.38-.82,4,4,0,0,1-1-1.34l-3.19-6.65a4.14,4.14,0,0,1-.42-1.63,4.2,4.2,0,0,1,2.39-4,4.13,4.13,0,0,1,1.63-.41,4,4,0,0,1,1.59.23,4.16,4.16,0,0,1,1.39.81,4.27,4.27,0,0,1,1,1.35l-.94.45a3,3,0,0,0-.76-1,3.07,3.07,0,0,0-2.24-.79,3,3,0,0,0-1.23.31,3.06,3.06,0,0,0-1,.76,3.16,3.16,0,0,0-.61,1,3.16,3.16,0,0,0,.13,2.43l3.19,6.65a3.09,3.09,0,0,0,.76,1,3.31,3.31,0,0,0,1.05.62,3.15,3.15,0,0,0,1.2.17A2.94,2.94,0,0,0,176,227.78Z" transform="translate(-7.04 -5.57)"></path><path class="cls-4" d="M187.47,222.82a4.26,4.26,0,0,1-1.58.58,4.34,4.34,0,0,1-1.61-.06,4.19,4.19,0,0,1-2.61-1.89l-3.87-6.28a4.05,4.05,0,0,1-.59-1.58,4.29,4.29,0,0,1,.06-1.6,4.07,4.07,0,0,1,.67-1.47,4.3,4.3,0,0,1,1.22-1.14,4.11,4.11,0,0,1,1.58-.59,4.34,4.34,0,0,1,1.61.06,4.2,4.2,0,0,1,1.46.67,4.11,4.11,0,0,1,1.15,1.23l3.87,6.27a4.11,4.11,0,0,1,.59,1.58,4.34,4.34,0,0,1-.06,1.61,4.26,4.26,0,0,1-.66,1.46A4.36,4.36,0,0,1,187.47,222.82Zm-7.76-12.56a3,3,0,0,0-.92.86,3.2,3.2,0,0,0-.55,2.32,3,3,0,0,0,.44,1.18l3.88,6.28a3.2,3.2,0,0,0,.86.93,3.5,3.5,0,0,0,1.1.5,3.32,3.32,0,0,0,1.22,0,3.08,3.08,0,0,0,1.18-.44,3.16,3.16,0,0,0,1.42-2,3.16,3.16,0,0,0-.39-2.4l-3.87-6.28a3.22,3.22,0,0,0-2-1.42,3.26,3.26,0,0,0-1.21-.05A3.07,3.07,0,0,0,179.71,210.26Z" transform="translate(-7.04 -5.57)"></path><path class="cls-4" d="M191.57,200.84,196.3,207l2.27,2.92,2.48,3.21-.82.63-.79-1a4.41,4.41,0,0,1-.47,1.7,4,4,0,0,1-1.15,1.39,4.19,4.19,0,0,1-1.51.75,4.15,4.15,0,0,1-3.13-.4,4.28,4.28,0,0,1-1.27-1.1l-2.26-2.93L184.91,206l.82-.63,4.73,6.11,2.27,2.92a3.17,3.17,0,0,0,2.11,1.21,3.11,3.11,0,0,0,1.21-.08,3,3,0,0,0,1.13-.56,3,3,0,0,0,.83-1,3.25,3.25,0,0,0,.38-1.15,3.33,3.33,0,0,0-.08-1.21,3.23,3.23,0,0,0-.56-1.13l-2.27-2.93-4.73-6.11Z" transform="translate(-7.04 -5.57)"></path><path class="cls-4" d="M196.43,196.3a4.15,4.15,0,0,1,1.42-.91,4.34,4.34,0,0,1,1.58-.27,4.15,4.15,0,0,1,1.57.34,4.3,4.3,0,0,1,1.38,1l2.54,2.65,5.37,5.6-.75.72-5.37-5.6-2.54-2.65a3,3,0,0,0-1-.72,3.11,3.11,0,0,0-2.37,0,3.18,3.18,0,0,0-2.05,2.9,3.08,3.08,0,0,0,.21,1.19,3,3,0,0,0,.67,1.07l2.55,2.65,5.37,5.6-.75.72-5.37-5.6-2.54-2.65-2.81-2.93.75-.71.89.92a4.12,4.12,0,0,1,1.29-3.23Z" transform="translate(-7.04 -5.57)"></path><path class="cls-4" d="M209.77,193c.48-.2,1-.4,1.47-.59a6.91,6.91,0,0,1,1.5-.39,4.4,4.4,0,0,1,1.45,0,2.71,2.71,0,0,1,1.32.64,4.2,4.2,0,0,1,1.49,2.86,4.19,4.19,0,0,1-.17,1.6,4.26,4.26,0,0,1-.81,1.47,4.2,4.2,0,0,1-2.86,1.49,4,4,0,0,1-1.6-.18,4.1,4.1,0,0,1-1.47-.81l.67-.79a2.89,2.89,0,0,0,1.11.61,3.08,3.08,0,0,0,1.2.13,3,3,0,0,0,1.16-.33,3.15,3.15,0,0,0,1-.79,3,3,0,0,0,.6-1.11,3.09,3.09,0,0,0,.14-1.2,3.22,3.22,0,0,0-.34-1.16,3.27,3.27,0,0,0-.78-1,1.91,1.91,0,0,0-1-.44,3.29,3.29,0,0,0-1.12,0,7.47,7.47,0,0,0-1.24.37l-1.33.54c-.49.22-1,.43-1.49.62a7.67,7.67,0,0,1-1.49.4,4.35,4.35,0,0,1-1.44,0,2.76,2.76,0,0,1-1.32-.64,4.2,4.2,0,0,1-1.32-4.46,4.34,4.34,0,0,1,.81-1.47,4.2,4.2,0,0,1,4.46-1.32,4.24,4.24,0,0,1,1.47.81l-.66.79a3.21,3.21,0,0,0-2.32-.73,3.18,3.18,0,0,0-2.15,1.11,3,3,0,0,0-.61,1.11,3.15,3.15,0,0,0-.13,1.21,3.07,3.07,0,0,0,.33,1.16,3,3,0,0,0,.79,1,1.89,1.89,0,0,0,1,.45,3.13,3.13,0,0,0,1.13-.06,7.36,7.36,0,0,0,1.25-.38C208.89,193.43,209.33,193.24,209.77,193Z" transform="translate(-7.04 -5.57)"></path><path class="cls-4" d="M217.42,182.33c0,.19-.13.51-.23,1s-.21,1-.34,1.49-.26,1-.37,1.55-.21.89-.3,1.17l2.21,1.49a3.15,3.15,0,0,0,1.17.49,3.08,3.08,0,0,0,1.21,0,3,3,0,0,0,1.12-.45,3.08,3.08,0,0,0,.91-.89,3.2,3.2,0,0,0,.49-1.16,3.28,3.28,0,0,0,0-1.21,3.43,3.43,0,0,0-.45-1.13,3.31,3.31,0,0,0-.89-.9l.58-.86a4.08,4.08,0,0,1,1.18,1.2,4.47,4.47,0,0,1,.61,1.49,4.59,4.59,0,0,1,0,1.61,4.16,4.16,0,0,1-.65,1.54,4.16,4.16,0,0,1-2.69,1.79,4.16,4.16,0,0,1-1.61,0,4,4,0,0,1-1.55-.65l-6.11-4.14a4.21,4.21,0,0,1-1.18-1.2,4.15,4.15,0,0,1-.59-3.09,4,4,0,0,1,.65-1.55,4.18,4.18,0,0,1,1.19-1.18,4.33,4.33,0,0,1,1.49-.6,4.15,4.15,0,0,1,3.14.64h0C217.5,179.49,217.83,180.68,217.42,182.33Zm-6-1.86a3,3,0,0,0-.49,1.17,3.29,3.29,0,0,0,0,1.21,3.2,3.2,0,0,0,.46,1.12,2.9,2.9,0,0,0,.88.9l3,2c.07-.33.17-.74.28-1.22s.22-1,.34-1.43l.33-1.32.2-.87a4.51,4.51,0,0,0,.09-1.3,1.46,1.46,0,0,0-.7-1.16,3,3,0,0,0-1.15-.47,3,3,0,0,0-1.2,0,3.18,3.18,0,0,0-1.12.45A3.05,3.05,0,0,0,211.44,180.47Z" transform="translate(-7.04 -5.57)"></path><path class="cls-4" d="M227.92,181.82l-19.53-11.2.51-.9,19.53,11.2Z" transform="translate(-7.04 -5.57)"></path><path class="cls-4" d="M232.63,173.4a4.13,4.13,0,0,1-1,1.35,4.24,4.24,0,0,1-1.38.82,4,4,0,0,1-1.59.23,4,4,0,0,1-1.63-.41l-6.66-3.17a4.22,4.22,0,0,1-2.17-2.39,4,4,0,0,1-.23-1.59,4.17,4.17,0,0,1,.41-1.63,4,4,0,0,1,1-1.34,3.89,3.89,0,0,1,1.38-.82,4.21,4.21,0,0,1,1.59-.24,4.13,4.13,0,0,1,1.63.41l6.66,3.18a4.1,4.1,0,0,1,1.35,1,4.43,4.43,0,0,1,.82,1.38,4.26,4.26,0,0,1,.23,1.59A4.13,4.13,0,0,1,232.63,173.4Zm-13.33-6.34a2.93,2.93,0,0,0-.3,1.23,3.12,3.12,0,0,0,.17,1.19,3.31,3.31,0,0,0,.62,1.05,3.14,3.14,0,0,0,1,.75l6.67,3.18a2.93,2.93,0,0,0,1.22.3,3.07,3.07,0,0,0,2.24-.79,3.06,3.06,0,0,0,.76-1,3.16,3.16,0,0,0,.13-2.43,3.34,3.34,0,0,0-.61-1,3.1,3.1,0,0,0-1-.76l-6.66-3.17a3.15,3.15,0,0,0-1.23-.31,3.34,3.34,0,0,0-1.19.18,3.13,3.13,0,0,0-1.05.62A3.09,3.09,0,0,0,219.3,167.06Z" transform="translate(-7.04 -5.57)"></path><path class="cls-4" d="M223.34,154.63l1,.35-.42,1.15a3,3,0,0,0-.18,1.24,3.25,3.25,0,0,0,.29,1.18,3.08,3.08,0,0,0,.7,1,3.14,3.14,0,0,0,1.08.66l3.45,1.26,7.29,2.66-.36,1-7.28-2.66-3.45-1.26-2.84-1-.35,1-1-.35.36-1,.36-1,1,.36.24.08a4,4,0,0,1-.31-3.38Z" transform="translate(-7.04 -5.57)"></path><path class="cls-4" d="M232.13,151.17c.35-.38.7-.77,1.08-1.15a6.94,6.94,0,0,1,1.19-1,4.46,4.46,0,0,1,1.32-.6,2.72,2.72,0,0,1,1.47,0,4,4,0,0,1,1.51.75,4.21,4.21,0,0,1,1.06,1.21,4.34,4.34,0,0,1,.51,1.52,4.25,4.25,0,0,1-.86,3.18,4.21,4.21,0,0,1-1.21,1.06,4.16,4.16,0,0,1-1.52.52,4.37,4.37,0,0,1-1.68-.11l.27-1a3.05,3.05,0,0,0,1.27.09,3.44,3.44,0,0,0,1.14-.4,3.12,3.12,0,0,0,.92-.79,3.07,3.07,0,0,0,.56-1.13,3,3,0,0,0,.08-1.26,3.2,3.2,0,0,0-.39-1.15,3.11,3.11,0,0,0-.79-.91,2.92,2.92,0,0,0-1.14-.57,1.79,1.79,0,0,0-1,0,3.06,3.06,0,0,0-1,.51,6.88,6.88,0,0,0-1,.86l-1,1.05c-.35.41-.71.8-1.09,1.19a7.22,7.22,0,0,1-1.17,1,4.58,4.58,0,0,1-1.31.61,2.83,2.83,0,0,1-1.47,0,4.18,4.18,0,0,1-1.51-.74,4.06,4.06,0,0,1-1.05-1.22,4.19,4.19,0,0,1-.41-3.2,4.07,4.07,0,0,1,.75-1.5,4.21,4.21,0,0,1,1.21-1.06,4.34,4.34,0,0,1,1.52-.51,4.17,4.17,0,0,1,1.68.11l-.27,1a3,3,0,0,0-1.26-.08,3.2,3.2,0,0,0-1.15.39,3.17,3.17,0,0,0-1.56,3.19,3.08,3.08,0,0,0,.39,1.14,3.32,3.32,0,0,0,.8.92,3,3,0,0,0,1.13.56,1.91,1.91,0,0,0,1.06,0,3.35,3.35,0,0,0,1-.53,7.8,7.8,0,0,0,1-.88C231.5,151.9,231.82,151.54,232.13,151.17Z" transform="translate(-7.04 -5.57)"></path></svg> 