<?xml version="1.0" encoding="UTF-8"?> <svg xmlns="http://www.w3.org/2000/svg" id="Layer_1" data-name="Layer 1" viewBox="0 0 93 47.93"><defs><style>.cls-1{fill:#fff;}</style></defs><path class="cls-1" d="M50.36,47.52H54V33.13H50.4ZM3.58,35.19h0V33.12H0v14.4H3.59V40.68c0-2,.2-2.69.77-3.38a2.6,2.6,0,0,1,2.1-.94,3.14,3.14,0,0,1,1.45.29l1.76-3.24a5.22,5.22,0,0,0-2.53-.63,3.62,3.62,0,0,0-3.56,2.41m12,.6c1.81,0,2.68,1.56,2.68,3.32h-5.7c.31-2.21,1.44-3.32,3-3.32m-6.65,4.6c0,4.77,2.74,7.48,7.51,7.48a11.77,11.77,0,0,0,5-1l-1.23-3a7.49,7.49,0,0,1-3.54.79c-2.35,0-3.66-1-4-2.93h9.1c.06-.66.08-1.29.08-2,0-3.63-1.49-6.92-5.95-6.92-4.72,0-6.9,3.73-6.9,7.61m14.15,0c0,4.76,2.91,7.48,7.29,7.48a9.63,9.63,0,0,0,4.26-.9l-1.22-3.1a5.56,5.56,0,0,1-2.93.74c-2.28,0-3.84-1.41-3.84-4.32,0-2.68,1.4-4.32,3.87-4.32a5.56,5.56,0,0,1,2.9.75l1.25-3.06a10,10,0,0,0-4.41-.91c-4.46,0-7.23,3.09-7.23,7.61m43.06-9.87v2.61H61.2V28l-3.58,2.5v2.62H55.4v3h2.22v7.06a4.09,4.09,0,0,0,3.43,4.66,4.22,4.22,0,0,0,1.23,0,7.51,7.51,0,0,0,3.2-.68l-1.21-3a3.11,3.11,0,0,1-1.54.43c-1.07,0-1.53-.58-1.53-1.61V36.16h4.93v7.06a4.09,4.09,0,0,0,3.43,4.66,4.22,4.22,0,0,0,1.23,0A7.56,7.56,0,0,0,74,47.2l-1.2-3a3.22,3.22,0,0,1-1.54.43c-1.07,0-1.53-.58-1.53-1.65V36.16H73.5v-3H69.71V28ZM49.91,29.26A2.25,2.25,0,1,0,52.16,27a2.25,2.25,0,0,0-2.25,2.26M36.2,28.88V47.52h3.62V40.79l4.57,6.73h4.53l-5.68-8L49,33.13H44.35L39.82,38.4V26.34Z"></path><path class="cls-1" d="M61.2,17.35a20.62,20.62,0,0,0,2.1,9.19l4.22-3a15.46,15.46,0,0,1-1.43-6.69c0-7.22,5.3-12.69,12.1-12.69,6.64,0,10.71,4.68,10.71,10.72,0,5.41-3.6,8.92-8.27,8.92-4.47,0-7.62-3.06-7.62-7.41,0-3.83,2.43-6.4,5.35-6.4,2.2,0,3.4,1,3.4,2.6,0,1.8-1.86,2.8-3.77,2.27l-2,1.42a27.38,27.38,0,0,0,5.78,5.44l2.14-1.49a37.16,37.16,0,0,1-3.44-2.95,4.7,4.7,0,0,0,4.25-4.7c0-3.23-2.3-5.52-6.31-5.52-4.77,0-8.77,3.93-8.77,9.52,0,6.21,4.54,10.8,11.07,10.8C87.9,27.42,93,22,93,14.8,93,6.25,87.07,0,78,0,68.74,0,61.2,7.21,61.2,17.35"></path></svg> 