<?xml version="1.0" encoding="UTF-8"?> <!-- Generator: Adobe Illustrator 23.0.3, SVG Export Plug-In . SVG Version: 6.00 Build 0) --> <svg xmlns="http://www.w3.org/2000/svg" xmlns:xlink="http://www.w3.org/1999/xlink" version="1.1" id="Layer_1" x="0px" y="0px" viewBox="0 0 450 200" style="enable-background:new 0 0 450 200;" xml:space="preserve"> <style type="text/css"> .st0{fill:#FFFFFF;} </style> <title>Icons</title> <polygon class="st0" points="99.5,19.9 68,149.8 44.9,19.9 4.7,19.9 44.1,184.6 91.5,184.6 120.3,65.2 148.9,184.6 196.3,184.6 235.7,19.9 195.7,19.9 172.4,149.8 140.9,19.9 "></polygon> <path class="st0" d="M334.4,91.1c-4.2,3.9-10.7,5.9-19.3,5.9h-27.2V50.3h27.2c8.5,0,14.9,2.1,19.2,6.3c4.3,4.2,6.5,10,6.5,17.2 S338.6,87.1,334.4,91.1 M340.2,118.4c12.4-3.1,21.9-8.8,28.4-17s9.7-18.3,9.7-30c0-10-2.2-18.9-6.7-26.6 c-4.7-7.9-11.6-14.2-19.9-18.2c-8.9-4.4-20-6.7-33-6.7H251v164.7h36.9v-63.7h12.4l36.5,63.7h40.4L337.6,119L340.2,118.4z"></path> <rect x="407.5" y="71.3" class="st0" width="35" height="113.3"></rect> <path class="st0" d="M425,55.9c5.4,0.1,10.5-2.1,14.3-5.9c3.9-3.8,6.1-9,6-14.4c0.1-5.4-2.1-10.6-6-14.3c-3.7-3.9-8.9-6-14.3-5.9 c-5.4-0.1-10.6,2-14.4,5.9c-3.8,3.8-6,8.9-5.9,14.3c-0.1,11.1,8.8,20.2,19.9,20.3C424.7,55.9,424.9,55.9,425,55.9"></path> </svg> 