<?xml version="1.0" encoding="UTF-8"?> <!-- Generator: Adobe Illustrator 24.3.0, SVG Export Plug-In . SVG Version: 6.00 Build 0) --> <svg xmlns="http://www.w3.org/2000/svg" xmlns:xlink="http://www.w3.org/1999/xlink" version="1.1" id="Layer_1" x="0px" y="0px" viewBox="0 0 85.4 83.8" style="enable-background:new 0 0 85.4 83.8;" xml:space="preserve"> <style type="text/css"> .st0{fill:#009CA6;} .st1{fill:#FFB000;} </style> <g id="Group_134" transform="translate(-1275.224 -485.475)"> <path id="Path_849" class="st0" d="M1318.9,485.5l-31.8,11.6l2,5.2l29.8-10.9l30.8,11.3l-30.8,11.3l-29.8-10.9l-2.2,5.1l29.2,10.7 v43.6l-33.4-12.2v-39.6h-5.5V554l41.8,15.3l41.8-15.3v-53.2L1318.9,485.5z M1355.1,550.1l-33.4,12.2v-43.6l33.4-12.2V550.1z"></path> <g id="Group_133" transform="translate(1275.224 497.965)"> <path id="Path_850" class="st1" d="M9.3,4.7c0,2.6-2.1,4.7-4.7,4.7S0,7.2,0,4.7C0,2.1,2.1,0,4.7,0l0,0C7.2,0,9.3,2.1,9.3,4.7 C9.3,4.7,9.3,4.7,9.3,4.7"></path> </g> </g> </svg> 