<?xml version="1.0" encoding="UTF-8"?> <svg xmlns="http://www.w3.org/2000/svg" id="Layer_1" data-name="Layer 1" viewBox="0 0 101.49 107.34"><defs><style>.cls-1{fill:#ffb000;}.cls-2{opacity:0.81;}.cls-3,.cls-4{fill:#fff;}.cls-4{isolation:isolate;}</style></defs><path id="Path_13" data-name="Path 13" class="cls-1" d="M79,56a5.09,5.09,0,1,1-5.09-5.09A5.09,5.09,0,0,1,79,56h0" transform="translate(-46.47 -41.37)"></path><g class="cls-2"><path id="Path_12" data-name="Path 12" class="cls-3" d="M103.05,131.51a45.1,45.1,0,0,1-37.54-70L71,65.1A38.17,38.17,0,1,0,83.17,53.4l-3.41-5.63a45.06,45.06,0,1,1,23.29,83.74" transform="translate(-46.47 -41.37)"></path><rect id="Rectangle_39" data-name="Rectangle 39" class="cls-3" x="43.02" y="129.2" width="39.38" height="6.55" transform="translate(-121.78 41.77) rotate(-45)"></rect><path id="Path_19" data-name="Path 19" class="cls-4" d="M106.63,57.47,84.13,85.85,105.07,85,92,115,120,77.2,98.21,78.74Z" transform="translate(-46.47 -41.37)"></path></g></svg> 