<?xml version="1.0" encoding="UTF-8"?> <!-- Generator: Adobe Illustrator 24.3.0, SVG Export Plug-In . SVG Version: 6.00 Build 0) --> <svg xmlns="http://www.w3.org/2000/svg" xmlns:xlink="http://www.w3.org/1999/xlink" version="1.1" id="Layer_1" x="0px" y="0px" viewBox="0 0 83.7 83.8" style="enable-background:new 0 0 83.7 83.8;" xml:space="preserve"> <style type="text/css"> .st0{fill:#FFB000;} .st1{fill:#009CA6;} </style> <g id="Group_132" transform="translate(-1055.42 -479.808)"> <g id="Group_131" transform="translate(1055.42 479.808)"> <g id="Group_129" transform="translate(9.662 8.124)"> <path id="Path_846" class="st0" d="M9.5,4.7c0,2.6-2.1,4.7-4.7,4.7C2.1,9.5,0,7.4,0,4.7C0,2.1,2.1,0,4.7,0C7.4,0,9.5,2.1,9.5,4.7 C9.5,4.7,9.5,4.7,9.5,4.7"></path> </g> <g id="Group_130"> <path id="Path_847" class="st1" d="M41.9,83.8C18.7,83.7,0,65,0,41.9c0-8.2,2.4-16.3,7-23.1l5.1,3.4C1.2,38.5,5.8,60.6,22.2,71.4 c16.4,10.8,38.5,6.3,49.3-10.1S77.7,22.8,61.4,12c-11.4-7.5-26.2-7.9-37.9-0.8L20.3,6C40.1-5.9,65.8,0.5,77.7,20.3 c11.9,19.8,5.5,45.5-14.3,57.5C56.9,81.7,49.4,83.8,41.9,83.8"></path> </g> </g> <path id="Path_848" class="st1" d="M1111.4,531.2l-4.3-4.3l-6.8,6.8V498h-6.1v35.6l-6.8-6.8l-4.3,4.3l14.2,14.2l2.1-2.1l0,0 L1111.4,531.2z"></path> </g> </svg> 