<?xml version="1.0" encoding="UTF-8"?> <svg xmlns="http://www.w3.org/2000/svg" id="Layer_1" data-name="Layer 1" viewBox="0 0 26.45 26.44"><defs><style>.cls-1{fill:#fff;opacity:0.81;}.cls-2{fill:#ffb000;}</style></defs><path class="cls-1" d="M46.42,30.65V29.14h-2.6a10.59,10.59,0,0,0-2.58-6.22l1.84-1.84L42,20l-1.84,1.84A10.59,10.59,0,0,0,34,19.27v-2.6H32.44v2.6a10.62,10.62,0,0,0-9.87,9.87H20v1.51h2.6a10.61,10.61,0,0,0,2.58,6.22l-1.84,1.84,1.07,1.07,1.84-1.84a10.51,10.51,0,0,0,6.22,2.57v2.61H34V40.51a10.51,10.51,0,0,0,6.22-2.57L42,39.78l1.07-1.07-1.84-1.84a10.61,10.61,0,0,0,2.58-6.22Zm-7.18,5.29a8.55,8.55,0,1,1,0-12.09A8.56,8.56,0,0,1,39.24,35.94Z" transform="translate(-19.97 -16.67)"></path><circle class="cls-2" cx="3.53" cy="3.68" r="1.71"></circle></svg> 