<?xml version="1.0" encoding="UTF-8"?> <svg xmlns="http://www.w3.org/2000/svg" width="181.781" height="39.962" viewBox="0 0 181.781 39.962"><g id="Layer_x0020_1" transform="translate(-0.038 -0.034)"><g id="_218150328" transform="translate(0.038 0.034)"><path id="_217143760" d="M176.825,7.31c-10.2,0-15.634,5.723-15.843,13.141a16.307,16.307,0,0,0-16.362-13.34,16.042,16.042,0,0,0-16.09,13.224c-.027-7.09-5.565-13.21-12.769-13.21a11.319,11.319,0,0,0-8.034,3.309V.088h-7.675v23.04a21.355,21.355,0,0,1-.135,2.365c-.465,4.786-3.687,7.148-7.194,7.148-3.645,0-6.935-1.722-7.034-7.121-.017-.932-.044-1.32-.044-1.982V14.912H97.593V7.669H85.644V.088H77.863V20.374a16.428,16.428,0,0,0-28.869-7.181V7.31h-.853c-10.025,0-15.441,5.524-15.829,12.752A15.47,15.47,0,0,0,17.131,7.31a13.022,13.022,0,0,0-9.582,3.9V.034H.038V19.462c0,1.434.042,2.786.059,4.08C.205,32.53,6.494,39.9,16.237,39.9A15.894,15.894,0,0,0,32.289,27.142V39.137h7.7V24.164c0-.683.039-1.44.06-2.14.143-4.563,3.131-7.28,7.882-7.36A16.423,16.423,0,1,0,77.863,26.71v.02C77.863,34.618,84.2,40,91.826,40a11.306,11.306,0,0,0,8.225-3.632v2.768h7.675v-16.3c0-.387.018-.7.028-1,.194-5.228,3.259-7.5,6.624-7.5,3.337,0,6.224,2.283,6.339,7.477.027.451.033.753.033,1.261V39.134l7.78,0V26.949c1.463,7.871,8.134,12.951,16.093,12.951,9.026,0,14.124-5.776,15.492-11.818h-7.526a8.316,8.316,0,0,1-7.969,5.446A8.782,8.782,0,0,1,135.964,26h25.007V39.137h7.7V24.164c0-.683.039-1.44.064-2.14.144-4.632,3.216-7.368,8.092-7.368h.853V7.31h-.852ZM16.237,32.514a8.972,8.972,0,0,1,0-17.943,8.837,8.837,0,0,1,8.972,8.971A8.854,8.854,0,0,1,16.237,32.514Zm45.507,0a8.972,8.972,0,0,1,0-17.943,8.837,8.837,0,0,1,8.972,8.971A8.853,8.853,0,0,1,61.744,32.514ZM136.3,19.937a8.638,8.638,0,0,1,16.656,0H136.3Z" transform="translate(-0.038 -0.034)" fill="#8e8e8e" fill-rule="evenodd"></path><path id="_217147792" d="M2.526,4.318A3.856,3.856,0,1,0,6.381.491,3.83,3.83,0,0,0,2.526,4.318Zm.5,0A3.352,3.352,0,1,1,6.381,7.67,3.357,3.357,0,0,1,3.029,4.318Z" transform="translate(171.544 31.454)" fill="#8e8e8e" fill-rule="evenodd"></path><path id="_217148272" d="M3.165,1.035H4.726c.614,0,.833.286.833.8s-.217.848-.831.848H3.165V1.035Zm0,2.164H4.7c.481,0,.682.3.73.822.015.153.04.346.055.532a4.389,4.389,0,0,0,.089.572h.683V5.035a1.176,1.176,0,0,1-.169-.59c-.016-.158-.04-.335-.059-.529a1.127,1.127,0,0,0-.559-1.007,1.131,1.131,0,0,0,.721-1.157c0-.773-.5-1.239-1.44-1.239H2.556V5.124h.609V3.2Z" transform="translate(173.611 32.945)" fill="#8e8e8e" fill-rule="evenodd"></path></g></g></svg> 