<?xml version="1.0" encoding="UTF-8"?> <!-- Generator: Adobe Illustrator 24.3.0, SVG Export Plug-In . SVG Version: 6.00 Build 0) --> <svg xmlns="http://www.w3.org/2000/svg" xmlns:xlink="http://www.w3.org/1999/xlink" version="1.1" id="Layer_1" x="0px" y="0px" viewBox="0 0 100.5 85.8" style="enable-background:new 0 0 100.5 85.8;" xml:space="preserve"> <style type="text/css"> .st0{fill:#FFB000;} .st1{fill:#009CA6;} </style> <g id="Group_146" transform="translate(-1199.218 -827.592)"> <path id="Path_858" class="st0" d="M1208.3,832.1c0,2.5-2,4.5-4.5,4.5s-4.5-2-4.5-4.5c0-2.5,2-4.5,4.5-4.5l0,0 C1206.2,827.6,1208.2,829.6,1208.3,832.1C1208.3,832.1,1208.3,832.1,1208.3,832.1"></path> <path id="Path_859" class="st1" d="M1247,912.7c-4.2,0-7.5-3.4-7.5-7.5s3.4-7.5,7.5-7.5c4.2,0,7.5,3.4,7.5,7.5l0,0 C1254.5,909.3,1251.2,912.7,1247,912.7C1247,912.7,1247,912.7,1247,912.7 M1247,901.5c-2,0-3.7,1.6-3.7,3.7s1.6,3.7,3.7,3.7 c2,0,3.7-1.6,3.7-3.7C1250.6,903.1,1249,901.5,1247,901.5"></path> <path id="Path_860" class="st1" d="M1299.7,846.4h-66.8l-3.9-16.9h-16.7v5.5h12.4l3.3,14.7v0.2l7.4,32.2l0,0l3.2,13.9h48.7v-5.5 h-44.2l-1.3-6.2h50.4L1299.7,846.4z M1240.3,878.5l-6.2-26.6h58.8l-5.5,26.6H1240.3z"></path> <path id="Path_861" class="st1" d="M1278.9,913.3c-4.2,0-7.5-3.4-7.5-7.5c0-4.2,3.4-7.5,7.5-7.5c4.2,0,7.5,3.4,7.5,7.5c0,0,0,0,0,0 C1286.5,910,1283.2,913.3,1278.9,913.3C1279,913.3,1279,913.3,1278.9,913.3 M1278.9,902.1c-2,0-3.7,1.6-3.7,3.7s1.6,3.7,3.7,3.7 c2,0,3.7-1.6,3.7-3.7C1282.6,903.8,1281,902.1,1278.9,902.1"></path> </g> </svg> 