<?xml version="1.0" encoding="UTF-8"?> <svg xmlns="http://www.w3.org/2000/svg" id="layer" viewBox="0 0 600.13 179.62"><defs><style>.cls-1{fill:#808b94;}.cls-2{fill:#00263e;}.cls-3{fill:#009ca6;}</style></defs><path class="cls-1" d="M9.08,163.08c0-8.77,6-15.09,14-15.09a11.18,11.18,0,0,1,9,4l.12-.06V148.4h6.68v29.13H32.54v-3.82l-.12-.06A11,11,0,0,1,23.17,178C15.11,178,9.08,172.1,9.08,163.08Zm23.46.06c0-5.19-3.53-9.13-8.3-9.13s-8.35,3.52-8.35,9.13c0,5.14,3.4,8.78,8.35,8.78C28.78,171.92,32.54,168.4,32.54,163.14Z" transform="translate(-9.08 -9.72)"></path><path class="cls-1" d="M62.25,156.46c0-12.05,7.64-21.78,21.24-21.78a21.32,21.32,0,0,1,16.71,8.11l-5.31,4.48c-3.16-3.88-6.92-5.79-11.4-5.79-8,0-13.72,6-13.72,15,0,8.71,5.79,14.68,13.84,14.68A14.6,14.6,0,0,0,95,165.35l5.31,4.54a21,21,0,0,1-16.71,8C72.1,177.88,62.25,170.37,62.25,156.46Z" transform="translate(-9.08 -9.72)"></path><path class="cls-1" d="M104.23,163c0-8.59,6.08-15,15.27-15,8.95,0,15.28,6.08,15.28,15s-6.33,15-15.28,15C110.31,178,104.23,171.56,104.23,163ZM128,163c0-5.37-3.7-9-8.48-9-5.07,0-8.47,3.94-8.47,9s3.46,8.9,8.47,8.9C124.22,171.92,128,168.28,128,163Z" transform="translate(-9.08 -9.72)"></path><path class="cls-1" d="M140.82,148.4h6.68v4.36h.12a11.2,11.2,0,0,1,9-4.77h.84v7.46c-.78-.06-1.55-.12-2-.12-5.07,0-7.94,3.64-7.94,8.41v13.79h-6.68Z" transform="translate(-9.08 -9.72)"></path><path class="cls-1" d="M160.17,173.77l3.34-5a11.17,11.17,0,0,0,8.42,3.41c2.56,0,4.06-1.14,4.06-2.87,0-1.49-1.91-2.21-5.73-3.52-4.78-1.67-8.9-3.82-8.9-9.55,0-4.77,4.3-8.23,10.27-8.23a15.45,15.45,0,0,1,10.26,3.64l-3.34,5.25a10.7,10.7,0,0,0-7.28-3.11c-1.31,0-3.16.72-3.16,2.51,0,1.43,1.79,2.45,4.59,3.52,6.21,2.45,10.09,3.58,10.09,9.37,0,4.9-3.46,8.83-10.86,8.83A17.4,17.4,0,0,1,160.17,173.77Z" transform="translate(-9.08 -9.72)"></path><path class="cls-1" d="M214.9,165.17H193.66c.83,4.24,4,6.75,8.53,6.75a9.08,9.08,0,0,0,7.34-3.41l4.66,4c-2.45,3.17-6.09,5.49-12.36,5.49-8.83,0-15.09-5.9-15.09-15,0-9,6.08-15,14.62-15,8.17,0,13.72,6.14,13.72,14.62A20.91,20.91,0,0,1,214.9,165.17Zm-21.12-5.25h14.56c-.84-3.52-3.22-5.91-7-5.91A7.36,7.36,0,0,0,193.78,159.92Z" transform="translate(-9.08 -9.72)"></path><path class="cls-1" d="M219.39,163.08c0-8.77,6-15.09,14-15.09a11.18,11.18,0,0,1,9,4l.12-.06V148.4h6.68v29.13h-6.38v-3.82l-.12-.06a11,11,0,0,1-9.25,4.35C225.42,178,219.39,172.1,219.39,163.08Zm23.46.06c0-5.19-3.53-9.13-8.3-9.13s-8.35,3.52-8.35,9.13c0,5.14,3.4,8.78,8.35,8.78C239.09,171.92,242.85,168.4,242.85,163.14Z" transform="translate(-9.08 -9.72)"></path><path class="cls-1" d="M256.76,148.4h6.69v4.36h.12a11.18,11.18,0,0,1,9-4.77h.83v7.46c-.77-.06-1.55-.12-2-.12-5.07,0-7.93,3.64-7.93,8.41v13.79h-6.69Z" transform="translate(-9.08 -9.72)"></path><path class="cls-1" d="M276.32,163c0-9,6.26-15,15.09-15a16,16,0,0,1,12.24,5.43l-4.54,3.94a9.42,9.42,0,0,0-7.34-3.35c-5.19,0-8.65,3.64-8.65,9s3.52,9,8.65,9a9.1,9.1,0,0,0,7.34-3.41l4.6,4.06c-2.45,3.17-6.21,5.43-12.53,5.43C282.58,178,276.32,171.92,276.32,163Z" transform="translate(-9.08 -9.72)"></path><path class="cls-1" d="M308.6,133.6h6.69V152h.06a13.07,13.07,0,0,1,9.9-4c6.39,0,10.86,3.4,10.86,12.11v17.43h-6.68v-15.7c0-5.79-2.33-7.82-6.32-7.82-4.84,0-7.82,3-7.82,8.72v14.8H308.6Z" transform="translate(-9.08 -9.72)"></path><path class="cls-1" d="M358.55,163c0-9,6.26-15,15.09-15a16,16,0,0,1,12.24,5.43l-4.54,3.94A9.42,9.42,0,0,0,374,154c-5.19,0-8.65,3.64-8.65,9s3.52,9,8.65,9a9.1,9.1,0,0,0,7.34-3.41l4.6,4.06c-2.45,3.17-6.21,5.43-12.53,5.43C364.81,178,358.55,171.92,358.55,163Z" transform="translate(-9.08 -9.72)"></path><path class="cls-1" d="M388.58,163c0-8.59,6.09-15,15.28-15,8.95,0,15.27,6.08,15.27,15s-6.32,15-15.27,15C394.67,178,388.58,171.56,388.58,163Zm23.75,0c0-5.37-3.7-9-8.47-9-5.08,0-8.48,3.94-8.48,9s3.46,8.9,8.48,8.9C408.57,171.92,412.33,168.28,412.33,163Z" transform="translate(-9.08 -9.72)"></path><path class="cls-1" d="M425.17,148.4h6.69v4h.06A11.88,11.88,0,0,1,441,148c3.94,0,7,1.55,8.71,4.83h.12A12.79,12.79,0,0,1,460.26,148c6.39,0,10.21,4,10.21,12.71v16.83h-6.68V162.37c0-5.25-1.74-8.36-5.67-8.36-3.76,0-6.81,3.29-6.81,9v14.51h-6.68V162.37c0-5.25-1.85-8.36-5.79-8.36s-7,3.29-7,9v14.51h-6.69Z" transform="translate(-9.08 -9.72)"></path><path class="cls-1" d="M477.93,148.4h6.68v3.47h.12a11.74,11.74,0,0,1,9.19-3.88C502,148,508,154.31,508,163.08c0,9-6,14.92-14.15,14.92a11.22,11.22,0,0,1-9.13-4.05l-.12.06v15.33h-6.68Zm23.27,14.74c0-5.61-3.76-9.13-8.41-9.13-5,0-8.48,3.94-8.48,9.13a8.38,8.38,0,0,0,8.54,8.78C497.74,171.92,501.2,168.28,501.2,163.14Z" transform="translate(-9.08 -9.72)"></path><path class="cls-1" d="M512.38,163.08c0-8.77,6-15.09,14-15.09a11.18,11.18,0,0,1,9,4l.12-.06V148.4h6.68v29.13h-6.38v-3.82l-.12-.06a10.94,10.94,0,0,1-9.25,4.35C518.4,178,512.38,172.1,512.38,163.08Zm23.45.06c0-5.19-3.52-9.13-8.3-9.13s-8.35,3.52-8.35,9.13c0,5.14,3.4,8.78,8.35,8.78C532.07,171.92,535.83,168.4,535.83,163.14Z" transform="translate(-9.08 -9.72)"></path><path class="cls-1" d="M549.75,148.4h6.68v4h.12a12.5,12.5,0,0,1,9.73-4.41c6.38,0,10.68,3.64,10.68,12.41v17.13h-6.69v-15.4C570.27,156,568,154,564,154c-4.54,0-7.52,3.17-7.52,8.9v14.62h-6.68Z" transform="translate(-9.08 -9.72)"></path><path class="cls-1" d="M591.55,175.91,579.62,148.4h7.16l8,19.52h.12l7.46-19.52h6.87l-16,40.94H586.3Z" transform="translate(-9.08 -9.72)"></path><path class="cls-2" d="M9.15,11.8H32.23V112.4H9.15Z" transform="translate(-9.08 -9.72)"></path><path class="cls-2" d="M110.87,112.4l-39-54.86-6-9-.27.14.13,10.86V112.4H45.54V11.8H64.86l35.81,51.91,6,9,.27-.14-.27-10.73v-50h20V112.4Z" transform="translate(-9.08 -9.72)"></path><path class="cls-2" d="M273.69,9.72a52.19,52.19,0,1,0,52.19,52.19A52.19,52.19,0,0,0,273.69,9.72Zm0,84a31.85,31.85,0,1,1,31.85-31.84A31.83,31.83,0,0,1,273.69,93.75Z" transform="translate(-9.08 -9.72)"></path><path class="cls-2" d="M189.46,93.75a31.85,31.85,0,1,1,21.78-55.07l13.43-15.26a52.15,52.15,0,1,0-.21,77.17L211,85.33A31.71,31.71,0,0,1,189.46,93.75Z" transform="translate(-9.08 -9.72)"></path><path class="cls-2" d="M557,9.72a52.19,52.19,0,1,0,52.19,52.19A52.19,52.19,0,0,0,557,9.72Zm0,84a31.85,31.85,0,1,1,31.85-31.84A31.84,31.84,0,0,1,557,93.75Z" transform="translate(-9.08 -9.72)"></path><path class="cls-2" d="M480.87,71.18a30.55,30.55,0,0,0,8.45-6.3,31.4,31.4,0,0,0,8.37-21.61c0-15.64-11.23-31.47-32.7-31.47h-41.9V112.4h22.67V74.84H460l17.57,37.56H500.9ZM462.72,30.52c10.32,0,14,6.87,14,12.75a12.94,12.94,0,0,1-3.3,8.79c-2.46,2.63-6.06,4-10.68,4h-17V30.52Z" transform="translate(-9.08 -9.72)"></path><path class="cls-2" d="M377.12,11.8H336.46V112.4h22.66V79.86h18c13.51,0,21.79-5.8,26.35-10.67a33.93,33.93,0,0,0,9-23.36C412.52,28.92,400.36,11.8,377.12,11.8Zm-18,18.72h15.73c12.31,0,16.68,8.25,16.68,15.31a15.48,15.48,0,0,1-4,10.55c-3,3.16-7.23,4.76-12.7,4.76H359.12Z" transform="translate(-9.08 -9.72)"></path><circle class="cls-3" cx="547.88" cy="52.19" r="24.19"></circle><circle class="cls-3" cx="264.61" cy="52.19" r="24.19"></circle></svg> 