<?xml version="1.0" encoding="UTF-8"?> <svg xmlns="http://www.w3.org/2000/svg" id="Layer_1" data-name="Layer 1" viewBox="0 0 123.03 157.47"><title>Intelligence Icon Teal_RGB 1</title><circle cx="36.18" cy="39.08" r="7.66" style="fill:orange"></circle><rect x="47.42" y="131.2" width="28.24" height="6.75" style="fill:#009ca6"></rect><rect x="49.33" y="140.96" width="24.41" height="6.75" style="fill:#009ca6"></rect><rect x="53.16" y="150.72" width="16.75" height="6.75" style="fill:#009ca6"></rect><rect x="57.09" width="6.75" height="15.24" style="fill:#009ca6"></rect><rect y="59.19" width="15.24" height="6.75" style="fill:#009ca6"></rect><rect x="107.79" y="57.09" width="15.24" height="6.75" style="fill:#009ca6"></rect><rect x="185.88" y="125.76" width="6.75" height="15.24" transform="translate(-127.77 139.88) rotate(-45)" style="fill:#009ca6"></rect><rect x="105.41" y="130" width="15.24" height="6.75" transform="translate(-150.09 85.98) rotate(-45)" style="fill:#009ca6"></rect><rect x="180.15" y="52.3" width="15.24" height="6.75" transform="translate(-73.26 116.06) rotate(-45)" style="fill:#009ca6"></rect><path d="M167.12,160.77H133.68l-.49-17.44v-.23a24.28,24.28,0,0,0-7.49-17.7c-11.65-11-14-19.85-14-30.63a38.75,38.75,0,0,1,2.11-12.66l8.94,3.08a29.27,29.27,0,0,0-1.6,9.58c0,8.87,1.71,15,11,23.74a34,34,0,0,1,10.46,24.94l.22,7.87h15l.23-7.87a34,34,0,0,1,10.46-24.94c9.31-8.76,11-14.87,11-23.74a29.15,29.15,0,0,0-41.81-26.46l-4.1-8.52A38.4,38.4,0,0,1,150.38,56a38.87,38.87,0,0,1,38.7,38.8c0,10.78-2.34,19.67-14,30.63a24.24,24.24,0,0,0-7.49,17.73v.42Z" transform="translate(-88.88 -33.01)" style="fill:#009ca6"></path></svg> 