<?xml version="1.0" encoding="UTF-8"?> <svg xmlns="http://www.w3.org/2000/svg" id="Layer_1" data-name="Layer 1" viewBox="0 0 139.36 138.99"><defs><style>.cls-1{fill:#009ca6;}.cls-2,.cls-3{fill:none;stroke-miterlimit:10;stroke-width:2px;}.cls-2{stroke:#000;}.cls-3{stroke:#00263e;}.cls-4{fill:#ffb000;}</style></defs><path class="cls-1" d="M113.75,91c-18.16,0-35.14-2.44-45.43-6.53l2.62-6.58c9.5,3.78,25.5,6,42.81,6,32.69,0,49.54-7.44,49.54-10.61s-16.85-10.62-49.54-10.62c-17.67,0-34.38,2.44-43.62,6.36l-2.76-6.51c10.2-4.34,27.54-6.93,46.38-6.93,27.27,0,56.62,5.54,56.62,17.7S141,91,113.75,91Z" transform="translate(-55.37 -55.58)"></path><path class="cls-2" d="M62.79,94.07" transform="translate(-55.37 -55.58)"></path><path class="cls-1" d="M113.75,115.74c-22.43,0-48.08-3.92-54.81-12.68a10.29,10.29,0,0,1-1-1.56,7.72,7.72,0,0,1-.83-3.45h7.08a2.22,2.22,0,0,0,.35.7c3.74,4.87,23.16,9.91,49.19,9.91,30.76,0,48.33-6.71,49.52-10.47l7.1-.14a7.71,7.71,0,0,1-.35,2.26C166.63,111,139.32,115.74,113.75,115.74Z" transform="translate(-55.37 -55.58)"></path><path class="cls-3" d="M113.75,83.89" transform="translate(-55.37 -55.58)"></path><path class="cls-3" d="M68.75,90.54" transform="translate(-55.37 -55.58)"></path><path class="cls-1" d="M113.75,140.51c-22.44,0-48.08-3.92-54.81-12.69a9.86,9.86,0,0,1-1-1.54,7.73,7.73,0,0,1-.84-3.46h7.08a2.31,2.31,0,0,0,.34.69c3.75,4.88,23.17,9.92,49.2,9.92,30.76,0,48.33-6.71,49.52-10.47l7.1-.14a7.73,7.73,0,0,1-.35,2.27C166.63,135.75,139.32,140.51,113.75,140.51Z" transform="translate(-55.37 -55.58)"></path><circle class="cls-4" cx="5.66" cy="17.69" r="5.66"></circle><path class="cls-1" d="M166.9,194.58a27.84,27.84,0,1,1,27.83-27.83A27.86,27.86,0,0,1,166.9,194.58Zm0-48.67a20.84,20.84,0,1,0,20.83,20.84A20.86,20.86,0,0,0,166.9,145.91Z" transform="translate(-55.37 -55.58)"></path><rect class="cls-1" x="109.03" y="105.67" width="5" height="17.33"></rect><rect class="cls-1" x="109.03" y="98.44" width="5" height="4.58"></rect><path class="cls-1" d="M166,144a24.24,24.24,0,0,1,4.37.4V73.28h-7.08l0,70.88A24.7,24.7,0,0,1,166,144Z" transform="translate(-55.37 -55.58)"></path><path class="cls-1" d="M147.9,179.56c-8.29,1.95-19.78,3.41-34.15,3.41-26,0-45.45-5-49.2-9.92a2.31,2.31,0,0,1-.34-.69V82.63H57.13v89.73a7.77,7.77,0,0,0,.84,3.47,9.78,9.78,0,0,0,1,1.53c6.73,8.77,32.37,12.69,54.81,12.69,14.68,0,29.92-1.57,40.89-4.92A22.91,22.91,0,0,1,147.9,179.56Z" transform="translate(-55.37 -55.58)"></path><path class="cls-1" d="M148.58,154.62c-8.33,2-20.05,3.58-34.83,3.58-26,0-45.45-5-49.2-9.92a2.31,2.31,0,0,1-.34-.69H57.13a7.73,7.73,0,0,0,.84,3.46,9.86,9.86,0,0,0,1,1.54c6.73,8.77,32.37,12.69,54.81,12.69a175.27,175.27,0,0,0,31.62-2.68A21.43,21.43,0,0,1,148.58,154.62Z" transform="translate(-55.37 -55.58)"></path></svg> 