<?xml version="1.0" encoding="UTF-8"?> <svg xmlns="http://www.w3.org/2000/svg" id="Layer_1" data-name="Layer 1" viewBox="0 0 40.31 55.09"><defs><style>.cls-1{fill:#ffb000;}.cls-2{opacity:0.81;}.cls-3{fill:#fff;}</style></defs><circle class="cls-1" cx="4.42" cy="2.98" r="1.15"></circle><g class="cls-2"><path class="cls-3" d="M24.22,24.22A10.8,10.8,0,0,1,13.44,13.44a10.66,10.66,0,0,1,2.34-6.71l1.12.88A9.35,9.35,0,1,0,20,5.09l-.64-1.27a10.68,10.68,0,0,1,4.87-1.16,10.78,10.78,0,1,1,0,21.56Z" transform="translate(-13.44 -2.66)"></path><path class="cls-3" d="M44.5,41.75a9.25,9.25,0,1,1,9.25-9.25A9.26,9.26,0,0,1,44.5,41.75Zm0-17a7.75,7.75,0,1,0,7.75,7.75A7.76,7.76,0,0,0,44.5,24.75Z" transform="translate(-13.44 -2.66)"></path><rect class="cls-3" x="34.5" y="18.65" width="1.5" height="9.19" transform="translate(-19.56 29.08) rotate(-45)"></rect><path class="cls-3" d="M24.3,57.75a9.25,9.25,0,1,1,9.25-9.25A9.26,9.26,0,0,1,24.3,57.75Zm0-17a7.75,7.75,0,1,0,7.75,7.75A7.76,7.76,0,0,0,24.3,40.75Z" transform="translate(-13.44 -2.66)"></path><rect class="cls-3" x="30.2" y="39.75" width="8.6" height="1.5" transform="translate(-31.43 29.16) rotate(-40.18)"></rect></g></svg> 