<?xml version="1.0" encoding="UTF-8"?> <svg xmlns="http://www.w3.org/2000/svg" id="Layer_1" data-name="Layer 1" viewBox="0 0 136.86 139.05"><defs><style>.cls-1{fill:#ffb000;}.cls-2,.cls-3{fill:#fff;}.cls-2{stroke:#009ca6;stroke-miterlimit:10;stroke-width:6.5px;}</style></defs><circle class="cls-1" cx="5.67" cy="5.67" r="5.67"></circle><path class="cls-2" d="M192.5,78.5" transform="translate(-56.99 -56.97)"></path><path class="cls-2" d="M62.83,79" transform="translate(-56.99 -56.97)"></path><rect class="cls-3" x="2.42" y="16.28" width="6.5" height="15.69"></rect><rect class="cls-3" x="15.79" y="2.28" width="16.13" height="6.5"></rect><polygon class="cls-3" points="136.86 31.95 130.36 31.95 130.36 8.45 107.51 8.45 107.51 1.95 136.86 1.95 136.86 31.95"></polygon><polygon class="cls-3" points="136.84 138.97 106.83 138.97 106.83 132.47 130.34 132.47 130.34 109.62 136.84 109.62 136.84 138.97"></polygon><polygon class="cls-3" points="31.76 139.05 2.41 139.05 2.41 109.05 8.91 109.05 8.91 132.55 31.76 132.55 31.76 139.05"></polygon><path class="cls-3" d="M126.2,87.48l34.4,19.86v39.72l-34.4,19.86L91.8,147.06V107.34l34.4-19.86m0-5.77L86.8,104.45V150l39.4,22.74L165.6,150v-45.5L126.2,81.71Z" transform="translate(-56.99 -56.97)"></path><path class="cls-3" d="M125.86,107.53l17.08,9.86v19.73L125.86,147l-17.07-9.86V117.39l17.07-9.86m0-5.77-22.07,12.75V140l22.07,12.75L147.94,140V114.51l-22.08-12.75Z" transform="translate(-56.99 -56.97)"></path></svg> 