<?xml version="1.0" encoding="UTF-8"?> <!-- Generator: Adobe Illustrator 24.3.0, SVG Export Plug-In . SVG Version: 6.00 Build 0) --> <svg xmlns="http://www.w3.org/2000/svg" xmlns:xlink="http://www.w3.org/1999/xlink" version="1.1" id="Layer_1" x="0px" y="0px" viewBox="0 0 91.5 107.2" style="enable-background:new 0 0 91.5 107.2;" xml:space="preserve"> <style type="text/css"> .st0{fill:#FFB000;} .st1{fill:#009CA6;} </style> <g id="Group_145" transform="translate(-964.198 -813.338)"> <circle id="Ellipse_19" class="st0" cx="968.6" cy="825.6" r="4.4"></circle> <g id="Group_144" transform="translate(965.907 813.338)"> <path id="Path_856" class="st1" d="M89.8,9.6H46.3V0h-3.9v9.6H11V15h73.4v58.8H5.4V20.5H0v58.7h33.2l-12.4,21.4l3.4,1.9l13.4-23.4 h4.8v28h3.9v-28h4.6l13.4,23.4l3.3-1.9L55.4,79.2h34.4L89.8,9.6z"></path> <g id="Group_143" transform="translate(15.267 29.657)"> <rect id="Rectangle_123" x="0" y="25.6" class="st1" width="4.3" height="7.5"></rect> <rect id="Rectangle_124" x="7.9" y="21.1" class="st1" width="4.3" height="12.1"></rect> <rect id="Rectangle_125" x="15.7" y="16.5" class="st1" width="4.3" height="16.5"></rect> <rect id="Rectangle_126" x="23.5" y="24.4" class="st1" width="4.3" height="8.6"></rect> <rect id="Rectangle_127" x="31.3" y="19.8" class="st1" width="4.3" height="13.2"></rect> <rect id="Rectangle_128" x="39.2" y="15.4" class="st1" width="4.3" height="17.8"></rect> <rect id="Rectangle_129" x="47.1" y="19.8" class="st1" width="4.3" height="13.2"></rect> <rect id="Rectangle_130" x="54.9" y="15.4" class="st1" width="4.3" height="17.8"></rect> <path id="Path_857" class="st1" d="M3.2,14.7L1,11L18.1,0.9L26,8.6L41.5,0l7.6,5.7l6.6-5.3l2.7,3.3l-9.1,7.5l-8.1-6.1l-15.9,8.8 l-7.7-7.6L3.2,14.7z"></path> </g> </g> </g> </svg> 