<?xml version="1.0" encoding="UTF-8"?> <!-- Generator: Adobe Illustrator 24.3.0, SVG Export Plug-In . SVG Version: 6.00 Build 0) --> <svg xmlns="http://www.w3.org/2000/svg" xmlns:xlink="http://www.w3.org/1999/xlink" version="1.1" id="Layer_1" x="0px" y="0px" viewBox="0 0 71.7 85.2" style="enable-background:new 0 0 71.7 85.2;" xml:space="preserve"> <style type="text/css"> .st0{fill:#009CA6;} .st1{fill:#FFB000;} </style> <g id="Group_118" transform="translate(-868.256 -309.934)"> <path id="Path_825" class="st0" d="M940,395.1h-69.9v-57.3h5.7v51.7h58.6V332h-52.9v-5.7H940L940,395.1z"></path> <path id="Path_826" class="st0" d="M919,345.9h-4v-22.1c0-5.4-4.4-9.8-9.8-9.8c-5.4,0-9.8,4.4-9.8,9.8c0,0,0,0,0,0v22.1h-4v-22.1 c0-7.7,6.2-13.9,13.9-13.9c7.7,0,13.9,6.2,13.9,13.9c0,0,0,0,0,0v22.1H919z"></path> <path id="Path_827" class="st0" d="M893.3,347.8c-2,0-3.7-1.7-3.7-3.7c0-2,1.7-3.7,3.7-3.7s3.7,1.7,3.7,3.7 C896.9,346.2,895.3,347.8,893.3,347.8 M893.3,343.8c-0.2,0-0.3,0.1-0.3,0.3c0,0.2,0.1,0.3,0.3,0.3c0.2,0,0.3-0.1,0.3-0.3v0 C893.6,344,893.5,343.9,893.3,343.8C893.3,343.8,893.3,343.8,893.3,343.8"></path> <rect id="Rectangle_111" x="889.6" y="340.4" class="st0" width="7.4" height="7.4"></rect> <path id="Path_828" class="st0" d="M917,347.8c-2,0-3.7-1.7-3.7-3.7c0-2,1.7-3.7,3.7-3.7s3.7,1.7,3.7,3.7 C920.6,346.2,919,347.8,917,347.8 M917,343.8c-0.2,0-0.3,0.1-0.3,0.3c0,0.2,0.1,0.3,0.3,0.3c0.2,0,0.3-0.1,0.3-0.3v0 C917.2,344,917.1,343.8,917,343.8"></path> <rect id="Rectangle_112" x="913.3" y="340.4" class="st0" width="7.4" height="7.4"></rect> <path id="Path_829" class="st1" d="M877.5,329.2c0,2.5-2.1,4.6-4.6,4.6c-2.5,0-4.6-2.1-4.6-4.6c0-2.5,2.1-4.6,4.6-4.6l0,0 c2.5,0,4.6,2,4.6,4.5C877.5,329.1,877.5,329.2,877.5,329.2"></path> </g> </svg> 