<?xml version="1.0" encoding="UTF-8"?> <svg xmlns="http://www.w3.org/2000/svg" width="196.243" height="46.954" viewBox="0 0 196.243 46.954"><g id="layer1" transform="translate(169.326 -247.027)"><g id="g545" transform="translate(1 -1)"><path id="path386" d="M-149.4,279.183a5.692,5.692,0,0,1-3.044,1.2,5.01,5.01,0,0,1-4.512-1.679c-.908-1.088-1.373-2.5-2.26-3.624a6.305,6.305,0,0,0-5.943-2.539,6.339,6.339,0,0,0-4.048,9.825c3.682,5.267,11.962,4.355,16.212.706a20.575,20.575,0,0,0,3.594-3.894" fill="#8e8e8e"></path><path id="path388" d="M4.989,279.182a5.666,5.666,0,0,0,3.044,1.205,5,5,0,0,0,4.512-1.678c.907-1.09,1.375-2.5,2.26-3.624a6.307,6.307,0,0,1,5.944-2.539,6.338,6.338,0,0,1,4.044,9.825c-3.681,5.266-11.96,4.355-16.207.707a20.53,20.53,0,0,1-3.6-3.9" fill="#8e8e8e"></path><path id="path390" d="M-10.183,251.092c-.114,0-10.989,0-11.09,0a2.441,2.441,0,0,0-2.234,2.275,2.446,2.446,0,0,0,2.234,2.462c.115,0,10.99,0,11.09,0a2.439,2.439,0,0,0,2.234-2.275,2.445,2.445,0,0,0-2.234-2.462" fill="#8e8e8e"></path><path id="path392" d="M-79.443,274.724a11.207,11.207,0,0,1-.276-1.873c-.007-.9-.007-2.167-.007-3.332.114-4.023.865-11.1-4.592-11.1-3.685,0-5.869,3.1-6.488,4.115-.088-2.827-2.318-4.878-5.726-4.878a4.658,4.658,0,0,0-3.465,1.73,3.6,3.6,0,0,1,2.121,3.584c.023,2.04,0,11.973,0,12.015a3.429,3.429,0,0,0,3.513,3.411A3.447,3.447,0,0,0-90.8,274.98v-8.81c.307-1.44,1.117-2.91,2.339-2.91,1.585,0,1.674,1.762,1.681,1.762l-.007,8.528a5.147,5.147,0,0,0,.091.8,4.4,4.4,0,0,0,.406,1.238,5.52,5.52,0,0,0,5.228,2.837A4.659,4.659,0,0,0-77.6,276.7a3.383,3.383,0,0,1-1.845-1.978" fill="#8e8e8e"></path><path id="path394" d="M-26.986,274.724a10.786,10.786,0,0,1-.276-1.873l.006-21.106a3.717,3.717,0,0,0-3.717-3.717,3.717,3.717,0,0,0-3.717,3.717l0,18.692c.018,1.684-.147,3.4.647,4.951a5.986,5.986,0,0,0,5.429,3.043,4.654,4.654,0,0,0,3.467-1.729,3.392,3.392,0,0,1-1.845-1.978" fill="#8e8e8e"></path><path id="path396" d="M-110.043,258.233a10.1,10.1,0,0,0-10.1,10.1,10.1,10.1,0,0,0,10.1,10.1,10.1,10.1,0,0,0,10.1-10.1,10.1,10.1,0,0,0-10.1-10.1m.074,15.908v.005c-.008,0-.015,0-.022,0s-.015,0-.021,0v-.005c-1.907-.035-2.863-2.226-2.863-5.809s1.211-5.772,2.863-5.811h.043c1.65.039,2.862,2.233,2.862,5.811s-.954,5.774-2.862,5.809" fill="#8e8e8e"></path><path id="path398" d="M-56.727,274.724A10.72,10.72,0,0,1-57,272.851l0-21.106a3.717,3.717,0,0,0-3.717-3.717,3.717,3.717,0,0,0-3.717,3.717l-.015,10a7.474,7.474,0,0,0-5.966-3.348c-8.536,0-9.076,15.2-3.222,18.961a8.168,8.168,0,0,0,6.022.842c1.3-.339,3.35-1.616,3.68-3.142.047.112.1.223.154.334a5.987,5.987,0,0,0,5.43,3.043,4.656,4.656,0,0,0,3.467-1.729,3.392,3.392,0,0,1-1.845-1.978M-67.8,273.5v0h-.043v0c-1.907-.028-2.861-1.94-2.861-5.06s1.21-5.027,2.861-5.062v0c.01,0,.014,0,.023,0s.013,0,.02,0v0c1.653.035,2.863,1.945,2.863,5.062s-.956,5.032-2.863,5.06" fill="#8e8e8e"></path><path id="path400" d="M-37.389,272.182s-1.09,1.494-5.319,1.494-5.136-3.288-5.136-3.288c6.163,0,11.332-.413,11.332-5.4s-5.64-6.635-8.983-6.635c-5.521,0-9.555,4.4-9.555,10.215a9.619,9.619,0,0,0,9.614,9.865c7.68,0,8.048-6.249,8.048-6.249Zm-10.855-5c.216-1.593.6-3.6,2.031-4.53a1.9,1.9,0,0,1,2.881,1.595,2.86,2.86,0,0,1-2.4,2.94,11.135,11.135,0,0,1-2.508-.005" fill="#8e8e8e"></path><path id="path402" d="M-7.653,272.182s-1.09,1.494-5.319,1.494-5.136-3.288-5.136-3.288c6.163,0,11.332-.413,11.332-5.4s-5.64-6.635-8.983-6.635c-5.521,0-9.555,4.4-9.555,10.215a9.619,9.619,0,0,0,9.614,9.865c7.68,0,8.048-6.249,8.048-6.249Zm-10.855-5c.216-1.593.6-3.6,2.031-4.53a1.9,1.9,0,0,1,2.881,1.595,2.86,2.86,0,0,1-2.4,2.94,11.135,11.135,0,0,1-2.508-.005" fill="#8e8e8e"></path><path id="path404" d="M6.293,272.722H2.058A43.67,43.67,0,0,0,6.541,269.2c2.721-2.309,7.613-5.64,6.187-9.955l0,.03a3.186,3.186,0,0,0-1.053-1.621,2.227,2.227,0,0,1-1.3,1.214,7.027,7.027,0,0,1-1.232.2c-.338.006-11.837,0-11.837,0a2.861,2.861,0,0,0-2.88,2.724,2.729,2.729,0,0,0,2.788,2.7l6.708.043c-3.11,1.734-6.823,3.788-8.709,6.924-1.077,1.8-2.229,4.575-1.791,6.7A11.409,11.409,0,0,1,1.8,276.186a10.613,10.613,0,0,1,3.264,1.4c5.584,3.493,8.94-3.339,6.27-6.35,0,0-1.522,1.482-5.044,1.482" fill="#8e8e8e"></path><path id="path406" d="M-119.6,276.971c-3.425-3.756-4.5-10-4.707-14.152-.182-3.586.012-9.8,2.838-11.6a5.628,5.628,0,0,0-4.231-1.668c-3.186,0-4.722,2.122-5.812,3.648-.36.5-5.718,7.9-5.718,7.9s-4.507-6.972-5.061-7.809c-.766-1.156-2.2-3.279-4.718-3.647-1.085-.158-3.9-.3-5.431,1.8,2.64,2.112,2.574,7.492,2,11.165-1.72,11.024-6.411,12.04-6.411,12.04,2.4,6.489,8.591,3.925,10.34-1.248a43.959,43.959,0,0,0,2.032-11.15l6.791,10.417s7.689-10.385,7.689-10.376c-1.266,18.366,5.041,23.572,10.557,23.572a8.108,8.108,0,0,0,7.4-5.048,11.2,11.2,0,0,1-7.559-3.833" fill="#8e8e8e"></path><path id="path408" d="M-102.37,282.944a4.6,4.6,0,0,1,.119.8c0,.081,0,9.608,0,9.722a1.636,1.636,0,0,0,1.526,1.5,1.641,1.641,0,0,0,1.652-1.5c0-.109,0-8.689,0-8.689a4.576,4.576,0,0,0-.277-2.118,2.563,2.563,0,0,0-2.324-1.3,1.994,1.994,0,0,0-1.485.74,1.45,1.45,0,0,1,.79.846" fill="#8e8e8e"></path><path id="path410" d="M-1.651,293.382a4.623,4.623,0,0,1-.119-.8c0-.081,0-9.608,0-9.721a1.638,1.638,0,0,0-1.526-1.5,1.642,1.642,0,0,0-1.652,1.5c0,.109,0,8.688,0,8.688a4.591,4.591,0,0,0,.277,2.119,2.563,2.563,0,0,0,2.324,1.3,1.992,1.992,0,0,0,1.484-.74,1.454,1.454,0,0,1-.79-.847" fill="#8e8e8e"></path><path id="path412" d="M-59.137,286.29a3.611,3.611,0,0,0-2.907,1.844l-.009.007c0-.46,0-.823,0-.841a1.578,1.578,0,0,0-1.525-1.435,1.588,1.588,0,0,0-1.651,1.435c0,.109,0,6.082,0,6.163a1.637,1.637,0,0,0,1.526,1.5,1.64,1.64,0,0,0,1.65-1.5c0-.062,0-2.011,0-3.69l.013-.009c.137-.645.5-1.3,1.048-1.3.71,0,.749.79.752.79l-.007,4.213a1.637,1.637,0,0,0,1.526,1.5,1.64,1.64,0,0,0,1.65-1.5l0-2.2c0-2.264.236-4.981-2.062-4.971" fill="#8e8e8e"></path><path id="path414" d="M-18.531,286.29a3.612,3.612,0,0,0-2.907,1.844l-.009.007c0-.46,0-.823,0-.841a1.578,1.578,0,0,0-1.525-1.435,1.588,1.588,0,0,0-1.651,1.435c0,.109,0,6.082,0,6.163a1.636,1.636,0,0,0,1.526,1.5,1.641,1.641,0,0,0,1.651-1.5c0-.062,0-2.011,0-3.69l.013-.009c.136-.645.5-1.3,1.048-1.3.709,0,.749.79.752.79l-.007,4.213a1.636,1.636,0,0,0,1.526,1.5,1.641,1.641,0,0,0,1.651-1.5l0-2.2c0-2.264.236-4.981-2.062-4.971" fill="#8e8e8e"></path><path id="path416" d="M-91.391,286.29a3.612,3.612,0,0,0-2.907,1.844l-.009.007c0-.46,0-.823,0-.841a1.577,1.577,0,0,0-1.526-1.435,1.587,1.587,0,0,0-1.651,1.435c0,.109,0,6.082,0,6.163a1.637,1.637,0,0,0,1.526,1.5,1.641,1.641,0,0,0,1.65-1.5c0-.062,0-2.011,0-3.69l.013-.009c.136-.645.5-1.3,1.048-1.3.71,0,.749.79.752.79l-.007,4.213a1.636,1.636,0,0,0,1.525,1.5,1.64,1.64,0,0,0,1.651-1.5l0-2.2c0-2.264.236-4.981-2.062-4.971" fill="#8e8e8e"></path><path id="path418" d="M-30.046,285.891a4.524,4.524,0,0,0-4.525,4.524,4.524,4.524,0,0,0,4.525,4.524,4.524,4.524,0,0,0,4.525-4.524,4.524,4.524,0,0,0-4.525-4.524m.033,7.127v0h-.019v0c-.855-.017-1.283-1-1.283-2.6s.542-2.586,1.283-2.6h.019c.739.018,1.281,1,1.281,2.6s-.427,2.586-1.281,2.6" fill="#8e8e8e"></path><path id="path420" d="M-46.943,287.19a1.728,1.728,0,0,0-1.611-1.57,1.719,1.719,0,0,0-1.73,1.57c0,.061-.008.191-.008.214a3.351,3.351,0,0,0-2.674-1.5c-3.824,0-4.067,6.811-1.444,8.5a3.664,3.664,0,0,0,2.7.377,2.774,2.774,0,0,0,1.5-1.051,1.751,1.751,0,0,0,1.539,1.212,1.718,1.718,0,0,0,1.729-1.569c0-.114,0-6.1,0-6.179m-4.854,5.481h-.019c-.855-.013-1.282-.871-1.282-2.268s.542-2.252,1.282-2.268h.019c.74.016,1.284.872,1.284,2.268s-.429,2.255-1.284,2.268" fill="#8e8e8e"></path><path id="path422" d="M-6.37,287.19a1.726,1.726,0,0,0-1.611-1.57,1.719,1.719,0,0,0-1.729,1.57c0,.061-.01.191-.01.214a3.346,3.346,0,0,0-2.673-1.5c-3.824,0-4.067,6.811-1.444,8.5a3.663,3.663,0,0,0,2.7.377,2.774,2.774,0,0,0,1.5-1.051A1.75,1.75,0,0,0-8.1,294.938a1.718,1.718,0,0,0,1.729-1.569c0-.114,0-6.1,0-6.179m-4.852,5.481h-.02c-.854-.013-1.282-.871-1.282-2.268s.542-2.252,1.282-2.268h.02c.74.016,1.283.872,1.283,2.268s-.429,2.255-1.283,2.268" fill="#8e8e8e"></path><path id="path424" d="M-35.568,288.042a1.558,1.558,0,0,0-1.439-1.474,1.286,1.286,0,0,0-.135-.014,1.619,1.619,0,0,0-1.6,1.385l0,2.929h0c.01.914,0,2.564,0,2.583a1.559,1.559,0,0,0,1.439,1.474,1.075,1.075,0,0,0,.136.014,1.619,1.619,0,0,0,1.6-1.385l0-2.448h0c-.011-.915,0-3.047,0-3.065" fill="#8e8e8e"></path><path id="path426" d="M-35.58,284.081a1.574,1.574,0,0,1-1.574,1.573,1.573,1.573,0,0,1-1.574-1.573,1.574,1.574,0,0,1,1.574-1.576,1.575,1.575,0,0,1,1.574,1.576" fill="#8e8e8e"></path><path id="path428" d="M-67.761,286.181c-.943.039-1.41.742-2.052,1.624,0,.007,0-.408,0-.424a1.637,1.637,0,0,0-1.524-1.5,1.64,1.64,0,0,0-1.651,1.5v6.1h0a1.635,1.635,0,0,0,1.525,1.5,1.642,1.642,0,0,0,1.648-1.475h.007V289.64c.048-.567.295-1.274.751-1.271.645.006-.022,1.565,1.457,1.565,2.121,0,2.347-3.857-.158-3.754" fill="#8e8e8e"></path><path id="path430" d="M-74.239,292.136s-.489.67-2.385.67a2.247,2.247,0,0,1-2.305-1.474c2.765,0,5.084-.186,5.084-2.424s-2.529-2.976-4.029-2.976a4.327,4.327,0,0,0-4.287,4.582,4.315,4.315,0,0,0,4.313,4.426c3.445,0,3.61-2.8,3.61-2.8Zm-4.87-2.242a2.779,2.779,0,0,1,.912-2.032.852.852,0,0,1,1.293.715,1.284,1.284,0,0,1-1.078,1.319,5.013,5.013,0,0,1-1.126,0" fill="#8e8e8e"></path><path id="path432" d="M-82.354,293.267a3.014,3.014,0,0,1-2.353,1.673,2.987,2.987,0,0,1-2.868-2.716c0-.015-.009-2.327-.015-4.259h-.427a.625.625,0,0,1-.618-.714.647.647,0,0,1,.664-.7h.377c0-.676,0-1.14,0-1.169a1.636,1.636,0,0,1,1.647-1.494,1.65,1.65,0,0,1,1.541,1.494v1.168h1.345a.635.635,0,0,1,.617.713.635.635,0,0,1-.664.7h-1.3v3.548a1.848,1.848,0,0,0,2.057,1.753" fill="#8e8e8e"></path><path id="path434" d="M-39.854,293.267a3.014,3.014,0,0,1-2.352,1.673,2.986,2.986,0,0,1-2.868-2.716c0-.015-.009-2.327-.015-4.259h-.427a.624.624,0,0,1-.617-.714.647.647,0,0,1,.664-.7h.377c0-.676,0-1.14,0-1.169a1.636,1.636,0,0,1,1.647-1.494,1.651,1.651,0,0,1,1.541,1.494v1.168h1.345a.635.635,0,0,1,.617.713.636.636,0,0,1-.664.7h-1.3v3.548a1.848,1.848,0,0,0,2.057,1.753" fill="#8e8e8e"></path></g></g></svg> 