<?xml version="1.0" encoding="UTF-8"?> <svg xmlns="http://www.w3.org/2000/svg" id="Layer_1" data-name="Layer 1" viewBox="0 0 157 112.54"><defs><style>.cls-1{fill:#ffb000;}.cls-2{opacity:0.81;}.cls-3{fill:#fff;}</style></defs><path class="cls-1" d="M59.9,75.6A6.57,6.57,0,1,1,53.33,69,6.59,6.59,0,0,1,59.9,75.6" transform="translate(-46.77 -69.04)"></path><g class="cls-2"><polygon class="cls-3" points="83.83 112.54 2.46 112.54 2.46 19.52 10.66 19.52 10.66 104.34 75.63 104.34 75.63 10.66 20.18 10.66 20.18 2.46 83.83 2.46 83.83 112.54"></polygon><path class="cls-3" d="M203.77,181.58H122.4V71.5h81.37Zm-73.17-8.2h65V79.7h-65Z" transform="translate(-46.77 -69.04)"></path><rect class="cls-3" x="96.63" y="23.62" width="41.51" height="5.74"></rect><rect class="cls-3" x="104.01" y="36.58" width="26.9" height="5.74"></rect><rect class="cls-3" x="104.01" y="81.54" width="26.9" height="5.74"></rect></g></svg> 