<?xml version="1.0" encoding="UTF-8"?> <svg xmlns="http://www.w3.org/2000/svg" id="Layer_1" data-name="Layer 1" viewBox="0 0 157.3 126.8"><defs><style>.cls-1{fill:#ffb000;}.cls-2{opacity:0.81;}.cls-3{fill:#fff;}</style></defs><path class="cls-1" d="M72.22,84.75a6.1,6.1,0,1,1-6.1-6.1,6.12,6.12,0,0,1,6.1,6.1" transform="translate(-46.82 -61.85)"></path><g class="cls-2"><path class="cls-3" d="M110.22,69.45a55.82,55.82,0,0,1,54.8,45.2h7.7a63.43,63.43,0,0,0-62.5-52.8A62.76,62.76,0,0,0,72,74.65l4.6,6A55.64,55.64,0,0,1,110.22,69.45Z" transform="translate(-46.82 -61.85)"></path><path class="cls-3" d="M165,136.45a55.82,55.82,0,1,1-101.8-41.1l-6.4-4.1a62,62,0,0,0-10,34,63.39,63.39,0,0,0,125.8,11.1H165Z" transform="translate(-46.82 -61.85)"></path><path class="cls-3" d="M110.22,163.55a38.32,38.32,0,0,0,36.6-27.1h-8a30.74,30.74,0,1,1,.2-21.8h8a38.3,38.3,0,1,0-36.8,48.9Z" transform="translate(-46.82 -61.85)"></path><rect class="cls-3" x="62.9" y="60.6" width="86.4" height="6.6"></rect><polygon class="cls-3" points="141.5 80.4 136.8 75.8 148 64.6 136.8 53.4 141.5 48.7 157.3 64.6 141.5 80.4"></polygon></g></svg> 