<?xml version="1.0" encoding="UTF-8"?> <!-- Generator: Adobe Illustrator 24.3.0, SVG Export Plug-In . SVG Version: 6.00 Build 0) --> <svg xmlns="http://www.w3.org/2000/svg" xmlns:xlink="http://www.w3.org/1999/xlink" version="1.1" id="Layer_1" x="0px" y="0px" viewBox="0 0 98.7 74.2" style="enable-background:new 0 0 98.7 74.2;" xml:space="preserve"> <style type="text/css"> .st0{fill:#009CA6;} .st1{fill:#FFB000;} </style> <g id="Group_119" transform="translate(-1047.38 -315.756)"> <rect id="Rectangle_113" x="1065.6" y="359.1" class="st0" width="4.2" height="7.3"></rect> <rect id="Rectangle_114" x="1073.3" y="354.7" class="st0" width="4.2" height="11.8"></rect> <rect id="Rectangle_115" x="1081" y="350.2" class="st0" width="4.2" height="16.3"></rect> <rect id="Rectangle_116" x="1088.7" y="357.9" class="st0" width="4.2" height="8.5"></rect> <rect id="Rectangle_117" x="1096.4" y="353.5" class="st0" width="4.2" height="13"></rect> <rect id="Rectangle_118" x="1104.2" y="349" class="st0" width="4.2" height="17.4"></rect> <rect id="Rectangle_119" x="1111.8" y="353.5" class="st0" width="4.2" height="13"></rect> <rect id="Rectangle_120" x="1119.6" y="349" class="st0" width="4.2" height="17.4"></rect> <path id="Path_830" class="st0" d="M1068.8,348.3l-2.2-3.6l16.9-9.9l7.8,7.6l15.2-8.5l7.5,5.7l6.5-5.2l2.6,3.2l-9,7.3l-8-6.1 l-15.6,8.7l-7.7-7.5L1068.8,348.3z"></path> <path id="Path_831" class="st0" d="M1138.3,381.8h-89.2v-52.6h5.8v46.9h77.7v-52.8h-71.8v-5.8h77.5L1138.3,381.8z"></path> <path id="Path_832" class="st1" d="M1056.7,320.4c0,2.6-2.1,4.7-4.7,4.7c-2.6,0-4.7-2.1-4.7-4.7c0-2.6,2.1-4.7,4.7-4.7 C1054.6,315.8,1056.7,317.8,1056.7,320.4C1056.7,320.4,1056.7,320.4,1056.7,320.4"></path> <path id="Path_833" class="st0" d="M1146.1,390h-85.5v-4.1h81.4v-56.5h4.1L1146.1,390z"></path> </g> </svg> 