<?xml version="1.0" encoding="UTF-8"?> <svg xmlns="http://www.w3.org/2000/svg" xmlns:xlink="http://www.w3.org/1999/xlink" width="170" height="126.384" viewBox="0 0 170 126.384"><defs><clipPath id="clip-path"><path id="Path_887" data-name="Path 887" d="M91.689,64.9h6.627V38.7H91.761ZM6.518,42.453h0V38.684H0V64.9H6.536V52.448c0-3.641.364-4.9,1.4-6.154a4.716,4.716,0,0,1,3.823-1.711,5.954,5.954,0,0,1,2.64.528l3.2-5.9A9.377,9.377,0,0,0,13,38.065a6.591,6.591,0,0,0-6.482,4.388m21.848,1.092c3.3,0,4.879,2.84,4.879,6.045H22.868c.564-4.024,2.622-6.045,5.462-6.045M16.222,51.92c0,8.685,4.989,13.619,13.673,13.619A21.447,21.447,0,0,0,39,63.718l-2.239-5.462a13.691,13.691,0,0,1-6.445,1.438c-4.279,0-6.664-1.821-7.283-5.335H39.6c.109-1.2.146-2.349.146-3.641,0-6.609-2.713-12.6-10.833-12.6-8.594,0-12.563,6.791-12.563,13.855m25.762,0c0,8.666,5.3,13.619,13.273,13.619a17.7,17.7,0,0,0,7.756-1.639l-2.221-5.644a10.068,10.068,0,0,1-5.335,1.347c-4.151,0-6.991-2.567-6.991-7.865,0-4.879,2.549-7.865,7.046-7.865a10.086,10.086,0,0,1,5.28,1.365L63.2,39.722a18.207,18.207,0,0,0-8.029-1.657C47.046,38.065,42,43.691,42,51.92m78.4-17.97V38.7h-8.976v-9.34l-6.518,4.552v4.77h-4.042v5.462h4.042V57a7.447,7.447,0,0,0,8.484,8.484,13.8,13.8,0,0,0,5.826-1.238l-2.2-5.462a5.626,5.626,0,0,1-2.8.783c-1.948,0-2.786-1.056-2.786-2.931V44.219H120.4V57.073a7.447,7.447,0,0,0,8.484,8.484,13.764,13.764,0,0,0,5.844-1.238l-2.185-5.462a5.68,5.68,0,0,1-2.8.783c-1.948,0-2.786-1.056-2.786-3V44.219h6.864V38.757h-6.9V29.362ZM90.869,31.656a4.107,4.107,0,1,0,0-.018m-24.961-.674V64.9H72.5V52.649L80.819,64.9h8.248L78.725,50.336,89.212,38.7H80.746L72.5,48.3V26.34Z" transform="translate(0 -26.34)" fill="none"></path></clipPath><clipPath id="clip-path-2"><path id="Path_888" data-name="Path 888" d="M61.2,31.588A37.633,37.633,0,0,0,65.024,48.32l7.683-5.462a28.184,28.184,0,0,1-2.6-12.18c0-13.145,9.65-23.1,22.03-23.1,12.089,0,19.5,8.521,19.5,19.517,0,9.85-6.554,16.24-15.057,16.24-8.138,0-13.873-5.571-13.873-13.491,0-6.973,4.424-11.652,9.741-11.652,4.005,0,6.19,1.821,6.19,4.734,0,3.277-3.386,5.1-6.864,4.133L88.128,29.64a50.068,50.068,0,0,0,10.523,9.9l3.9-2.713a68.215,68.215,0,0,1-6.263-5.371,8.575,8.575,0,0,0,7.738-8.557c0-5.881-4.188-10.05-11.488-10.05-8.685,0-15.967,7.155-15.967,17.333,0,11.306,8.266,19.663,20.155,19.663,13.091.073,22.376-9.8,22.376-22.9C119.1,11.379,108.3,0,91.787,0,74.928,0,61.2,13.127,61.2,31.588" transform="translate(-61.2)" fill="none"></path></clipPath></defs><g id="Group_152" data-name="Group 152" transform="translate(-824 -6182.616)"><g id="Reckitt__2021_" data-name="Reckitt_(2021)" transform="translate(824.406 6182.616)"><g id="Group_149" data-name="Group 149" transform="translate(0 47.956)" clip-path="url(#clip-path)"><rect id="Rectangle_133" data-name="Rectangle 133" width="132.817" height="109.367" transform="matrix(0.819, -0.574, 0.574, 0.819, -18.438, 12.906)" fill="#8e8e8e"></rect></g><g id="Group_150" data-name="Group 150" transform="translate(111.424)" clip-path="url(#clip-path-2)"><rect id="Rectangle_134" data-name="Rectangle 134" width="76.067" height="74.101" transform="matrix(0.819, -0.574, 0.574, 0.819, -23.457, 16.422)" fill="#8e8e8e"></rect></g></g><rect id="Rectangle_136" data-name="Rectangle 136" width="170" height="39" transform="translate(824 6270)" fill="#fff" opacity="0"></rect></g></svg> 