<?xml version="1.0" encoding="UTF-8"?> <svg xmlns="http://www.w3.org/2000/svg" id="Layer_1" data-name="Layer 1" viewBox="0 0 117.77 107.17"><defs><style>.cls-1{fill:#ffb000;}.cls-2{fill:#fff;}</style></defs><circle class="cls-1" cx="5.67" cy="5.67" r="5.67"></circle><rect class="cls-2" x="37.67" y="102.17" width="43.19" height="5"></rect><rect class="cls-2" x="25.17" y="57.5" width="5" height="8.76"></rect><rect class="cls-2" x="34.39" y="52.17" width="5" height="14.08"></rect><rect class="cls-2" x="43.6" y="46.84" width="5" height="19.41"></rect><rect class="cls-2" x="52.81" y="56.07" width="5" height="10.18"></rect><rect class="cls-2" x="62.02" y="50.74" width="5" height="15.51"></rect><rect class="cls-2" x="71.24" y="45.41" width="5" height="20.84"></rect><rect class="cls-2" x="80.45" y="50.74" width="5" height="15.51"></rect><rect class="cls-2" x="89.66" y="45.41" width="5" height="20.84"></rect><polygon class="cls-2" points="28.95 44.63 26.4 40.33 46.48 28.48 55.73 37.51 73.95 27.38 82.9 34.17 90.58 27.92 93.74 31.79 83 40.54 73.53 33.33 54.9 43.7 45.72 34.73 28.95 44.63"></polygon><polygon class="cls-2" points="117.77 91.9 2.17 91.9 2.17 16.3 9.17 16.3 9.17 84.9 110.77 84.9 110.77 9.17 16.3 9.17 16.3 2.17 117.77 2.17 117.77 91.9"></polygon></svg> 