<?xml version="1.0" encoding="UTF-8"?> <svg xmlns="http://www.w3.org/2000/svg" id="Layer_1" data-name="Layer 1" viewBox="0 0 158.94 221.03"><title>Revenue dollar Icon_Teal_RGB 1</title><polygon points="110.47 63.6 53.23 63.6 41.98 36.52 56.57 30.46 63.78 47.8 99.92 47.8 111.17 20.71 63.08 20.71 63.08 4.9 134.86 4.9 110.47 63.6" style="fill:#009ca6"></polygon><path d="M183.09,222.26H117.76c-16.05,0-28.29-5-36.37-14.82C74.47,199,71,187.31,71,172.67c0-30.7,15.15-65.33,21.66-78.8C100.72,77.13,116.27,49,129.46,49h41.93c13.19,0,28.75,28.1,36.85,44.84,6.51,13.47,21.66,48.1,21.66,78.8,0,14.64-3.51,26.34-10.44,34.77C211.38,217.28,199.15,222.26,183.09,222.26ZM130.4,64.84C118.67,71.76,79,144.85,88,185.15c3.27,14.54,12.72,21.31,29.74,21.31h65.33c17,0,26.48-6.77,29.75-21.31,9.06-40.3-30.66-113.39-42.38-120.31ZM170,64.61Z" transform="translate(-70.96 -1.24)" style="fill:#009ca6"></path><circle cx="40.68" cy="12.8" r="12.8" style="fill:orange"></circle><path d="M154.34,166.34v10.83h-9v-11a33.79,33.79,0,0,1-18.51-9.35l7.59-9.17a24.26,24.26,0,0,0,16.39,7.13c4.63,0,7.77-2.22,7.77-5.74,0-4.07-3-5.83-10.55-8.14-10.37-3.15-19.72-6.76-19.72-18.43,0-9.54,6.29-16.67,17.13-18V93.19h8.88v11.67a38.8,38.8,0,0,1,16.58,7.5l-7.32,9.07c-5.09-3.7-10.09-5.18-14.16-5.18-4.82,0-7.5,1.94-7.5,5.27s3.15,5.19,9.81,7.23c12.41,3.88,20.56,7,20.56,19.25C172.31,158.19,165.36,165,154.34,166.34Z" transform="translate(-70.96 -1.24)" style="fill:#009ca6"></path></svg> 