<?xml version="1.0" encoding="UTF-8"?> <svg xmlns="http://www.w3.org/2000/svg" id="Layer_1" data-name="Layer 1" viewBox="0 0 113.3 95.69"><defs><style>.cls-1{fill:#009ca6;}.cls-2{fill:#ffb000;}</style></defs><path class="cls-1" d="M171.47,163.1,118.8,139.81V100.26L171.47,77ZM125.8,135.25l38.67,17.1V87.72l-38.67,17.1Z" transform="translate(-68.22 -76.97)"></path><polygon class="cls-1" points="54.31 63.98 20.82 63.98 20.82 36.55 27.82 36.55 27.82 56.98 54.31 56.98 54.31 63.98"></polygon><rect class="cls-1" x="33.95" y="22.14" width="20.36" height="7"></rect><path class="cls-1" d="M89.14,141a20.93,20.93,0,0,1-8.41-40.09l2.82,6.41A13.93,13.93,0,0,0,89.14,134Z" transform="translate(-68.22 -76.97)"></path><path class="cls-1" d="M170.45,131.1v-5a6.07,6.07,0,1,0,0-12.13v-5a11.07,11.07,0,1,1,0,22.13Z" transform="translate(-68.22 -76.97)"></path><path class="cls-1" d="M109.34,152v-5a6.07,6.07,0,0,0,6.06-6.06h5A11.07,11.07,0,0,1,109.34,152Z" transform="translate(-68.22 -76.97)"></path><polygon class="cls-1" points="41.22 95.69 20.82 95.69 20.82 60.94 27.82 60.94 27.82 88.69 34.22 88.69 34.22 60.94 41.22 60.94 41.22 95.69"></polygon><circle class="cls-2" cx="23.84" cy="26.54" r="5.67"></circle></svg> 