<?xml version="1.0" encoding="UTF-8"?> <svg xmlns="http://www.w3.org/2000/svg" id="Layer_1" data-name="Layer 1" viewBox="0 0 160 77.35"><defs><style>.cls-1{fill:#ffb000;}.cls-2{fill:#009ca6;stroke:#00263e;stroke-width:6px;}.cls-2,.cls-4{stroke-miterlimit:10;}.cls-3{opacity:0.81;}.cls-4,.cls-5{fill:#fff;}.cls-4{stroke:#fff;stroke-width:10.33px;}</style></defs><circle class="cls-1" cx="13.14" cy="12.78" r="4.09"></circle><path class="cls-2" d="M104.08,10.53" transform="translate(-40.42 -78.78)"></path><path class="cls-2" d="M101.65,9.92" transform="translate(-40.42 -78.78)"></path><g class="cls-3"><path class="cls-4" d="M114.3,108.43" transform="translate(-40.42 -78.78)"></path><path class="cls-4" d="M126.54,126.43" transform="translate(-40.42 -78.78)"></path><path class="cls-5" d="M161.77,78.78a38.61,38.61,0,0,0-36.31,25.42h5a33.94,33.94,0,1,1-2.29,18.5l-.32-2H108.31v-2.93L104.09,120l-5.36,2.84,9.58,5.08V125.4h15.62a38.66,38.66,0,1,0,37.84-46.62Z" transform="translate(-40.42 -78.78)"></path><path class="cls-5" d="M79.07,151.45a34.06,34.06,0,0,1-34-34,33.6,33.6,0,0,1,5.58-18.58l-3.91-2.52a38.65,38.65,0,1,0,68.7,34.29h-5A34,34,0,0,1,79.07,151.45Z" transform="translate(-40.42 -78.78)"></path><path class="cls-5" d="M132.52,107v2.57H116.91A38.72,38.72,0,0,0,79.07,78.78a38.13,38.13,0,0,0-20.52,5.94l2.39,4a34,34,0,0,1,51.78,23.48l.32,2h19.53v2.93l4.23-2.25,5.35-2.84Z" transform="translate(-40.42 -78.78)"></path><polygon class="cls-5" points="18.84 32.9 26.99 24.41 31.75 23.22 31.41 21.15 25.9 22.53 17.33 31.45 18.84 32.9"></polygon><rect class="cls-5" x="25.78" y="31.81" width="2.09" height="22.63"></rect><rect class="cls-5" x="44.58" y="31.81" width="2.09" height="22.63"></rect><rect class="cls-5" x="26.12" y="52" width="19.5" height="2.44"></rect><path class="cls-5" d="M76.71,106.4c-2.52,0-4.61-2.36-4.87-5.5l-.08-.94h9.9l-.08.94C81.32,104,79.23,106.4,76.71,106.4Zm-3-4.7c.44,1.72,1.64,3,3,3s2.54-1.24,3-3Z" transform="translate(-40.42 -78.78)"></path><polygon class="cls-5" points="53.58 32.88 45.43 24.39 40.66 23.2 41.17 21.17 46.52 22.51 55.08 31.43 53.58 32.88"></polygon><rect class="cls-5" x="62.4" y="112.19" width="5.47" height="2.44" transform="translate(-101.86 1.73) rotate(-45.56)"></rect><rect class="cls-5" x="60.65" y="109.33" width="2.09" height="6.34" transform="translate(-102.9 1.4) rotate(-46.67)"></rect><rect class="cls-5" x="86.89" y="110.68" width="2.44" height="5.47" transform="translate(-94.62 15.35) rotate(-44.44)"></rect><rect class="cls-5" x="88.38" y="111.46" width="6.34" height="2.09" transform="translate(-92.66 14.71) rotate(-43.33)"></rect><polygon class="cls-5" points="106.31 32.9 114.46 24.41 119.23 23.22 118.89 21.15 113.37 22.53 104.81 31.45 106.31 32.9"></polygon><rect class="cls-5" x="113.25" y="31.81" width="2.09" height="22.63"></rect><rect class="cls-5" x="132.05" y="31.81" width="2.09" height="22.63"></rect><rect class="cls-5" x="113.6" y="52" width="19.5" height="2.44"></rect><path class="cls-5" d="M164.18,106.4c-2.51,0-4.61-2.36-4.87-5.5l-.08-.94h9.9l-.07.94C168.8,104,166.7,106.4,164.18,106.4Zm-3-4.7c.43,1.72,1.63,3,3,3s2.54-1.24,3-3Z" transform="translate(-40.42 -78.78)"></path><polygon class="cls-5" points="141.05 32.88 132.9 24.39 128.14 23.2 128.64 21.17 133.99 22.51 142.56 31.43 141.05 32.88"></polygon><rect class="cls-5" x="149.87" y="112.19" width="5.47" height="2.44" transform="translate(-75.64 64.18) rotate(-45.56)"></rect><rect class="cls-5" x="148.12" y="109.33" width="2.09" height="6.34" transform="translate(-75.45 65.02) rotate(-46.67)"></rect><rect class="cls-5" x="174.37" y="110.68" width="2.44" height="5.47" transform="translate(-69.6 76.6) rotate(-44.44)"></rect><rect class="cls-5" x="175.86" y="111.46" width="6.34" height="2.09" transform="translate(-68.82 74.74) rotate(-43.33)"></rect></g></svg> 