<?xml version="1.0" encoding="UTF-8"?> <svg xmlns="http://www.w3.org/2000/svg" id="Layer_1" data-name="Layer 1" viewBox="0 0 65.86 107.21"><defs><style>.cls-1{fill:#009ca6;}.cls-2{fill:#ffb000;}</style></defs><path class="cls-1" d="M126,166.33a7.41,7.41,0,1,1,7.41-7.41A7.41,7.41,0,0,1,126,166.33Zm0-9.81a2.41,2.41,0,1,0,2.41,2.4A2.41,2.41,0,0,0,126,156.52Z" transform="translate(-91.94 -71.21)"></path><rect class="cls-1" x="25.94" y="20.39" width="16.14" height="5"></rect><polygon class="cls-1" points="65.86 107.21 2.17 107.21 2.17 16.29 9.17 16.29 9.17 100.21 58.85 100.21 58.85 9.17 16.3 9.17 16.3 2.17 65.86 2.17 65.86 107.21"></polygon><circle class="cls-2" cx="5.67" cy="5.67" r="5.67"></circle></svg> 