<?xml version="1.0" encoding="UTF-8"?> <svg xmlns="http://www.w3.org/2000/svg" xmlns:xlink="http://www.w3.org/1999/xlink" id="Layer_1" data-name="Layer 1" viewBox="0 0 775.42 706.68"><defs><style>.cls-1,.cls-10,.cls-11,.cls-12,.cls-16,.cls-32,.cls-33,.cls-34,.cls-36,.cls-38,.cls-40,.cls-5,.cls-8,.cls-9{fill:none;}.cls-2{clip-path:url(#clip-path);}.cls-3{fill:#d7daef;}.cls-4{fill:#fff;}.cls-40,.cls-5{stroke:#2558a5;}.cls-10,.cls-11,.cls-12,.cls-16,.cls-32,.cls-5,.cls-8,.cls-9{stroke-miterlimit:10;}.cls-32,.cls-5{stroke-width:1.02px;}.cls-6{clip-path:url(#clip-path-4);}.cls-7{fill:#2558a5;}.cls-8{stroke:#bcd99b;}.cls-8,.cls-9{stroke-width:4.09px;}.cls-9{stroke:#c3c8e7;}.cls-10{stroke:#e5bf23;}.cls-10,.cls-11,.cls-12{stroke-width:4.39px;}.cls-11{stroke:#d7daef;}.cls-12,.cls-34{stroke:#1c9ca6;}.cls-13{opacity:0.2;}.cls-14{clip-path:url(#clip-path-5);}.cls-15{clip-path:url(#clip-path-6);}.cls-16,.cls-33{stroke:#d9d9d9;}.cls-16{stroke-width:2.05px;}.cls-17{clip-path:url(#clip-path-7);}.cls-18{clip-path:url(#clip-path-8);}.cls-19{clip-path:url(#clip-path-9);}.cls-20{clip-path:url(#clip-path-10);}.cls-21{clip-path:url(#clip-path-11);}.cls-22{opacity:0.5;}.cls-23{clip-path:url(#clip-path-13);}.cls-24{clip-path:url(#clip-path-14);}.cls-25{clip-path:url(#clip-path-15);}.cls-26{clip-path:url(#clip-path-17);}.cls-27{clip-path:url(#clip-path-19);}.cls-28{clip-path:url(#clip-path-20);}.cls-29{clip-path:url(#clip-path-21);}.cls-30{clip-path:url(#clip-path-22);}.cls-31{fill:#808b95;}.cls-32{stroke:#e1e1e1;}.cls-33,.cls-34,.cls-36,.cls-38,.cls-40{stroke-linecap:round;stroke-linejoin:round;stroke-width:3.89px;}.cls-35{fill:#1c9ca6;}.cls-36{stroke:#ffd066;}.cls-37{fill:#ffd066;}.cls-38{stroke:#63b32e;}.cls-39{fill:#63b32e;}.cls-41{opacity:0.49;}.cls-42{clip-path:url(#clip-path-23);}.cls-43{opacity:0.51;}.cls-44{clip-path:url(#clip-path-30);}.cls-45{fill:#c3c8e7;}.cls-46{clip-path:url(#clip-path-33);}.cls-47{clip-path:url(#clip-path-36);}.cls-48{clip-path:url(#clip-path-39);}.cls-49{fill:#bcd99b;}.cls-50{fill:#ffe7b2;}.cls-51{fill:#99a4d4;}.cls-52{fill:#ffd780;}.cls-53{fill:#9ec96e;}.cls-54{fill:#aa6870;}.cls-55{fill:#3d2410;}.cls-56{fill:#7f5058;}.cls-57{fill:#e7f1fd;}.cls-58{fill:#5f9aa8;}.cls-59{fill:#a5c180;}.cls-60{fill:#1f4e93;}.cls-61{fill:#dbb6b2;}.cls-62{fill:#cce1b0;}.cls-63{fill:#efc4bd;}.cls-64{fill:#10273c;}.cls-65{fill:#203243;}.cls-66{fill:#d6a8a3;}.cls-67{fill:#1f4675;}.cls-68{fill:#78797c;}.cls-69{fill:#283846;}.cls-70{fill:#979fa8;}.cls-71{fill:#f2f2f4;}.cls-72{fill:#38434e;}.cls-73{fill:#ebecf7;}</style><clipPath id="clip-path" transform="translate(-39.46 -48.68)"><rect class="cls-1" x="33.16" y="-73.47" width="800" height="875"></rect></clipPath><clipPath id="clip-path-4" transform="translate(-39.46 -48.68)"><rect class="cls-1" x="33.16" y="-30.17" width="800" height="818.62"></rect></clipPath><clipPath id="clip-path-5" transform="translate(-39.46 -48.68)"><rect class="cls-1" x="200.25" y="121.16" width="120.35" height="120.35"></rect></clipPath><clipPath id="clip-path-6" transform="translate(-39.46 -48.68)"><rect class="cls-1" x="200.25" y="121.16" width="120.35" height="120.35"></rect></clipPath><clipPath id="clip-path-7" transform="translate(-39.46 -48.68)"><rect class="cls-1" x="203.75" y="161.8" width="113.33" height="20.21"></rect></clipPath><clipPath id="clip-path-8" transform="translate(-39.46 -48.68)"><rect class="cls-1" x="203.76" y="161.8" width="113.33" height="20.21"></rect></clipPath><clipPath id="clip-path-9" transform="translate(-39.46 -48.68)"><rect class="cls-1" x="225.28" y="180.26" width="71.61" height="50.13"></rect></clipPath><clipPath id="clip-path-10" transform="translate(-39.46 -48.68)"><rect class="cls-1" x="225.28" y="180.26" width="71.61" height="50.13"></rect></clipPath><clipPath id="clip-path-11" transform="translate(-39.46 -48.68)"><rect class="cls-1" x="259.78" y="121.8" width="1.28" height="59.53"></rect></clipPath><clipPath id="clip-path-13" transform="translate(-39.46 -48.68)"><rect class="cls-1" x="184.47" y="152.26" width="30.28" height="13.72"></rect></clipPath><clipPath id="clip-path-14" transform="translate(-39.46 -48.68)"><rect class="cls-1" x="184.47" y="152.26" width="30.28" height="13.72"></rect></clipPath><clipPath id="clip-path-15" transform="translate(-39.46 -48.68)"><rect class="cls-1" x="208.71" y="235.05" width="30.28" height="13.72"></rect></clipPath><clipPath id="clip-path-17" transform="translate(-39.46 -48.68)"><rect class="cls-1" x="297.68" y="235.05" width="30.28" height="13.72"></rect></clipPath><clipPath id="clip-path-19" transform="translate(-39.46 -48.68)"><rect class="cls-1" x="321.14" y="152.77" width="30.28" height="13.72"></rect></clipPath><clipPath id="clip-path-20" transform="translate(-39.46 -48.68)"><rect class="cls-1" x="321.14" y="152.77" width="30.28" height="13.72"></rect></clipPath><clipPath id="clip-path-21" transform="translate(-39.46 -48.68)"><rect class="cls-1" x="256.87" y="108.74" width="7.61" height="7.51"></rect></clipPath><clipPath id="clip-path-22" transform="translate(-39.46 -48.68)"><rect class="cls-1" x="256.87" y="108.75" width="7.61" height="7.5"></rect></clipPath><clipPath id="clip-path-23" transform="translate(-39.46 -48.68)"><rect class="cls-1" x="501.06" y="283.25" width="5.61" height="77.79"></rect></clipPath><clipPath id="clip-path-30" transform="translate(-39.46 -48.68)"><rect class="cls-1" x="520.4" y="398.77" width="16.83" height="5.73"></rect></clipPath><clipPath id="clip-path-33" transform="translate(-39.46 -48.68)"><rect class="cls-1" x="558.32" y="398.77" width="16.83" height="5.73"></rect></clipPath><clipPath id="clip-path-36" transform="translate(-39.46 -48.68)"><rect class="cls-1" x="597.64" y="398.77" width="16.83" height="5.73"></rect></clipPath><clipPath id="clip-path-39" transform="translate(-39.46 -48.68)"><rect class="cls-1" x="636.26" y="398.77" width="16.83" height="5.73"></rect></clipPath></defs><g class="cls-2"><g class="cls-2"><g class="cls-2"><path class="cls-3" d="M371.1,247a6.2,6.2,0,1,0-6.2-6.19,6.19,6.19,0,0,0,6.2,6.19" transform="translate(-39.46 -48.68)"></path><path class="cls-3" d="M686.78,355.21a4.74,4.74,0,1,0-4.74-4.74,4.74,4.74,0,0,0,4.74,4.74" transform="translate(-39.46 -48.68)"></path></g><rect class="cls-4" x="117.52" y="1.23" width="552.43" height="381.9"></rect><rect class="cls-5" x="117.52" y="1.23" width="552.43" height="381.9"></rect><g class="cls-6"><path class="cls-4" d="M709.41,431.81c0-2.07-.1-149.57-.25-381.9l.25.25L157,50.22h0l.31-.31c0,136.42,0,266,0,381.9l-.28-.29,552.43.29L157,432.09h-.29v-.28c0-115.91,0-245.48,0-381.9V49.6H157l552.39.06h.25v.25c-.15,232.33-.25,379.83-.25,381.9" transform="translate(-39.46 -48.68)"></path><path class="cls-5" d="M709.41,431.81c0-2.07-.1-149.57-.25-381.9l.25.25L157,50.22h0l.31-.31c0,136.42,0,266,0,381.9l-.28-.29,552.43.29L157,432.09h-.29v-.28c0-115.91,0-245.48,0-381.9V49.6H157l552.39.06h.25v.25C709.51,282.24,709.41,429.74,709.41,431.81Z" transform="translate(-39.46 -48.68)"></path><rect class="cls-7" x="117.52" y="1.23" width="552.43" height="22.16"></rect><path class="cls-4" d="M172.74,60.57a3.41,3.41,0,1,1-3.4-3.4,3.4,3.4,0,0,1,3.4,3.4" transform="translate(-39.46 -48.68)"></path><path class="cls-4" d="M185,60.57a3.4,3.4,0,1,1-3.4-3.4,3.4,3.4,0,0,1,3.4,3.4" transform="translate(-39.46 -48.68)"></path><path class="cls-4" d="M197.29,60.57a3.41,3.41,0,1,1-3.4-3.4,3.4,3.4,0,0,1,3.4,3.4" transform="translate(-39.46 -48.68)"></path><path class="cls-8" d="M260.54,127.63c29.53,0,53.93,23.94,53.93,53.48a53.48,53.48,0,1,1-100.84-24.87" transform="translate(-39.46 -48.68)"></path><path class="cls-9" d="M260.67,135.6a45.92,45.92,0,1,1-45.92,45.92v-5" transform="translate(-39.46 -48.68)"></path><path class="cls-10" d="M260.42,159s4.29-.13,5.44,1" transform="translate(-39.46 -48.68)"></path><path class="cls-11" d="M269.79,149.94c-1.31-1-8-2.4-8-2.4h-1.08" transform="translate(-39.46 -48.68)"></path><path class="cls-12" d="M260.42,142.67s15.25-.32,28.84,13.59" transform="translate(-39.46 -48.68)"></path><g class="cls-13"><g class="cls-14"><g class="cls-15"><circle class="cls-16" cx="260.42" cy="181.33" r="59.54" transform="translate(-42.18 -44.71) rotate(-0.87)"></circle></g></g></g><g class="cls-13"><g class="cls-17"><g class="cls-18"><polyline class="cls-16" points="164.5 113.73 220.96 132.66 277.43 113.73"></polyline></g></g></g><g class="cls-13"><g class="cls-19"><g class="cls-20"><path class="cls-16" d="M296.38,228.79l-36-47.46s-34.58,48.47-34.5,48.53" transform="translate(-39.46 -48.68)"></path></g></g></g><g class="cls-13"><g class="cls-21"><g class="cls-21"><line class="cls-16" x1="220.96" y1="73.12" x2="220.96" y2="132.66"></line></g></g></g><g class="cls-22"><g class="cls-23"><g class="cls-24"><path class="cls-7" d="M186.24,157.07v-1h-1.69v-.33l1.63-2.32h.53v2.26h.51v.39h-.51v1Zm0-1.38v-1.22c0-.19,0-.38,0-.57h0c-.11.22-.2.37-.3.54l-.89,1.24h1.19Z" transform="translate(-39.46 -48.68)"></path><path class="cls-7" d="M188.23,157.76a8.47,8.47,0,0,0,.33-1.34l.55-.06a6.54,6.54,0,0,1-.53,1.36Z" transform="translate(-39.46 -48.68)"></path><path class="cls-7" d="M192.93,155.21c0,1.23-.46,1.92-1.27,1.92s-1.19-.67-1.2-1.87.52-1.9,1.26-1.9S192.93,154.05,192.93,155.21Zm-2,0c0,1,.29,1.49.74,1.49s.74-.59.74-1.52-.23-1.48-.74-1.48S191,154.27,191,155.26Z" transform="translate(-39.46 -48.68)"></path><path class="cls-7" d="M196.35,155.21c0,1.23-.46,1.92-1.27,1.92s-1.19-.67-1.2-1.87.53-1.9,1.27-1.9S196.35,154.05,196.35,155.21Zm-2,0c0,1,.29,1.49.74,1.49s.75-.59.75-1.52-.23-1.48-.74-1.48S194.37,154.27,194.37,155.26Z" transform="translate(-39.46 -48.68)"></path><path class="cls-7" d="M200.27,155.21c0,1.23-.46,1.92-1.27,1.92s-1.19-.67-1.2-1.87.52-1.9,1.26-1.9S200.27,154.05,200.27,155.21Zm-2,0c0,1,.29,1.49.74,1.49s.74-.59.74-1.52-.23-1.48-.74-1.48S198.29,154.27,198.29,155.26Z" transform="translate(-39.46 -48.68)"></path></g></g></g><g class="cls-22"><g class="cls-25"><g class="cls-25"><path class="cls-7" d="M209.08,239.29a1.63,1.63,0,0,0,.81.23c.63,0,.83-.4.82-.7,0-.51-.47-.73-.94-.73h-.28v-.37h.28c.36,0,.81-.18.81-.62,0-.29-.18-.54-.64-.54a1.29,1.29,0,0,0-.73.24l-.12-.36a1.73,1.73,0,0,1,.95-.28c.71,0,1,.42,1,.87a.91.91,0,0,1-.67.85h0a1,1,0,0,1,.81.94c0,.58-.45,1.09-1.33,1.09a1.88,1.88,0,0,1-.94-.24Z" transform="translate(-39.46 -48.68)"></path><path class="cls-7" d="M212.47,240.55a9.35,9.35,0,0,0,.34-1.34l.54-.06a6.33,6.33,0,0,1-.53,1.37Z" transform="translate(-39.46 -48.68)"></path><path class="cls-7" d="M217.17,238c0,1.24-.46,1.92-1.27,1.92s-1.19-.67-1.2-1.87.53-1.89,1.27-1.89S217.17,236.84,217.17,238Zm-2,.06c0,.94.29,1.48.74,1.48s.75-.59.75-1.52-.23-1.48-.74-1.48S215.19,237.07,215.19,238.06Z" transform="translate(-39.46 -48.68)"></path><path class="cls-7" d="M220.59,238c0,1.24-.46,1.92-1.26,1.92s-1.19-.67-1.21-1.87.53-1.89,1.27-1.89S220.59,236.84,220.59,238Zm-2,.06c0,.94.29,1.48.74,1.48s.74-.59.74-1.52-.23-1.48-.74-1.48S218.62,237.07,218.62,238.06Z" transform="translate(-39.46 -48.68)"></path><path class="cls-7" d="M224.51,238c0,1.24-.46,1.92-1.27,1.92s-1.19-.67-1.2-1.87.53-1.89,1.27-1.89S224.51,236.84,224.51,238Zm-2,.06c0,.94.29,1.48.74,1.48S224,239,224,238s-.23-1.48-.74-1.48S222.53,237.07,222.53,238.06Z" transform="translate(-39.46 -48.68)"></path></g></g></g><g class="cls-22"><g class="cls-26"><g class="cls-26"><path class="cls-7" d="M297.93,239.86v-.3l.39-.38c.93-.88,1.35-1.35,1.35-1.9a.65.65,0,0,0-.72-.71,1.16,1.16,0,0,0-.77.31l-.16-.35a1.55,1.55,0,0,1,1-.37,1,1,0,0,1,1.11,1.06c0,.67-.48,1.21-1.25,1.95l-.29.27h1.63v.41Z" transform="translate(-39.46 -48.68)"></path><path class="cls-7" d="M301.44,240.55a8.21,8.21,0,0,0,.33-1.34l.55-.06a6.89,6.89,0,0,1-.53,1.37Z" transform="translate(-39.46 -48.68)"></path><path class="cls-7" d="M306.14,238c0,1.24-.46,1.92-1.27,1.92s-1.19-.67-1.2-1.87.52-1.89,1.26-1.89S306.14,236.84,306.14,238Zm-2,.06c0,.94.29,1.48.74,1.48s.74-.59.74-1.52-.22-1.48-.73-1.48S304.16,237.07,304.16,238.06Z" transform="translate(-39.46 -48.68)"></path><path class="cls-7" d="M309.56,238c0,1.24-.46,1.92-1.26,1.92s-1.2-.67-1.21-1.87.53-1.89,1.27-1.89S309.56,236.84,309.56,238Zm-2,.06c0,.94.3,1.48.74,1.48s.75-.59.75-1.52-.23-1.48-.74-1.48S307.58,237.07,307.58,238.06Z" transform="translate(-39.46 -48.68)"></path><path class="cls-7" d="M313.48,238c0,1.24-.46,1.92-1.27,1.92s-1.19-.67-1.2-1.87.52-1.89,1.26-1.89S313.48,236.84,313.48,238Zm-2,.06c0,.94.29,1.48.74,1.48S313,239,313,238s-.22-1.48-.73-1.48S311.5,237.07,311.5,238.06Z" transform="translate(-39.46 -48.68)"></path></g></g></g><g class="cls-22"><g class="cls-27"><g class="cls-28"><path class="cls-7" d="M322.46,154.4h0l-.63.34-.1-.38.8-.42h.42v3.64h-.48Z" transform="translate(-39.46 -48.68)"></path><path class="cls-7" d="M324.9,158.27a8.19,8.19,0,0,0,.34-1.34l.55-.06a6.5,6.5,0,0,1-.54,1.36Z" transform="translate(-39.46 -48.68)"></path><path class="cls-7" d="M329.6,155.72c0,1.24-.46,1.92-1.27,1.92s-1.19-.67-1.2-1.87.53-1.89,1.27-1.89S329.6,154.56,329.6,155.72Zm-2,.05c0,.95.29,1.49.74,1.49s.75-.59.75-1.52-.23-1.48-.74-1.48S327.62,154.78,327.62,155.77Z" transform="translate(-39.46 -48.68)"></path><path class="cls-7" d="M333,155.72c0,1.24-.46,1.92-1.26,1.92s-1.19-.67-1.21-1.87.53-1.89,1.27-1.89S333,154.56,333,155.72Zm-2,.05c0,.95.29,1.49.74,1.49s.74-.59.74-1.52-.23-1.48-.74-1.48S331.05,154.78,331.05,155.77Z" transform="translate(-39.46 -48.68)"></path><path class="cls-7" d="M336.94,155.72c0,1.24-.46,1.92-1.27,1.92s-1.19-.67-1.2-1.87.53-1.89,1.27-1.89S336.94,154.56,336.94,155.72Zm-2,.05c0,.95.29,1.49.74,1.49s.75-.59.75-1.52-.23-1.48-.74-1.48S335,154.78,335,155.77Z" transform="translate(-39.46 -48.68)"></path></g></g></g><g class="cls-22"><g class="cls-29"><g class="cls-30"><path class="cls-7" d="M261.78,111.7c0,1.24-.45,1.92-1.26,1.92s-1.19-.66-1.21-1.87.53-1.89,1.27-1.89S261.78,110.54,261.78,111.7Zm-2,.06c0,.94.29,1.48.74,1.48s.74-.59.74-1.52-.23-1.48-.74-1.48S259.81,110.77,259.81,111.76Z" transform="translate(-39.46 -48.68)"></path></g></g></g><path class="cls-31" d="M260.67,121.8v3.46s12.72-.83,20.73,3.47v-3.47a74.11,74.11,0,0,0-20.73-3.46" transform="translate(-39.46 -48.68)"></path><rect class="cls-32" x="140.88" y="55.28" width="171.09" height="150.39"></rect><rect class="cls-32" x="140.88" y="220.31" width="278.17" height="142"></rect><rect class="cls-32" x="322.16" y="55.28" width="176.16" height="150.39"></rect><rect class="cls-32" x="509.55" y="55.28" width="136.86" height="150.39"></rect><rect class="cls-32" x="429.89" y="220.31" width="216.52" height="142"></rect><line class="cls-33" x1="150.61" y1="319.96" x2="409.33" y2="319.96"></line><line class="cls-34" x1="150.61" y1="319.96" x2="184.84" y2="319.96"></line><path class="cls-35" d="M227.17,368.64a2.87,2.87,0,1,1-2.87-2.86,2.88,2.88,0,0,1,2.87,2.86" transform="translate(-39.46 -48.68)"></path><line class="cls-33" x1="150.61" y1="300.86" x2="409.33" y2="300.86"></line><line class="cls-36" x1="150.61" y1="300.86" x2="323.34" y2="300.86"></line><path class="cls-37" d="M365.66,349.54a2.87,2.87,0,1,1-2.86-2.86,2.87,2.87,0,0,1,2.86,2.86" transform="translate(-39.46 -48.68)"></path><line class="cls-33" x1="150.61" y1="281.76" x2="409.33" y2="281.76"></line><line class="cls-38" x1="150.61" y1="281.76" x2="288.84" y2="281.76"></line><path class="cls-39" d="M331.16,330.44a2.87,2.87,0,1,1-2.86-2.86,2.87,2.87,0,0,1,2.86,2.86" transform="translate(-39.46 -48.68)"></path><line class="cls-33" x1="150.61" y1="262.66" x2="409.33" y2="262.66"></line><line class="cls-40" x1="150.61" y1="262.66" x2="236.05" y2="262.66"></line><path class="cls-7" d="M277.84,311.34a2.87,2.87,0,1,1-2.86-2.86,2.86,2.86,0,0,1,2.86,2.86" transform="translate(-39.46 -48.68)"></path><g class="cls-41"><g class="cls-42"><g class="cls-42"><path class="cls-7" d="M502.07,356.56h0l-.48.26-.07-.29.61-.32h.32V359h-.37Z" transform="translate(-39.46 -48.68)"></path><path class="cls-7" d="M505.9,357.57c0,.94-.35,1.46-1,1.46s-.91-.5-.91-1.42.4-1.45,1-1.45S505.9,356.68,505.9,357.57Zm-1.51,0c0,.72.22,1.13.57,1.13s.56-.44.56-1.15-.17-1.14-.56-1.14S504.39,356.86,504.39,357.61Z" transform="translate(-39.46 -48.68)"></path><path class="cls-7" d="M501.26,344.55v-.23l.29-.29c.71-.67,1-1,1-1.45A.5.5,0,0,0,502,342a1,1,0,0,0-.59.23l-.11-.26a1.21,1.21,0,0,1,.78-.28.78.78,0,0,1,.85.8c0,.52-.37.93-1,1.49l-.22.21H503v.31Z" transform="translate(-39.46 -48.68)"></path></g><path class="cls-7" d="M505.9,343.13c0,.95-.35,1.47-1,1.47s-.91-.51-.91-1.43.4-1.44,1-1.44S505.9,342.25,505.9,343.13Zm-1.51,0c0,.73.22,1.14.57,1.14s.56-.45.56-1.16S505.35,342,505,342,504.39,342.42,504.39,343.17Z" transform="translate(-39.46 -48.68)"></path><g class="cls-42"><path class="cls-7" d="M501.35,329.68a1.19,1.19,0,0,0,.61.18.55.55,0,0,0,.63-.54c0-.39-.35-.56-.72-.56h-.21v-.28h.21c.28,0,.62-.14.62-.47s-.14-.42-.49-.42a1,1,0,0,0-.55.19l-.1-.28a1.41,1.41,0,0,1,.73-.21c.54,0,.79.32.79.66a.68.68,0,0,1-.51.65h0a.73.73,0,0,1,.62.72c0,.44-.35.83-1,.83a1.43,1.43,0,0,1-.73-.19Z" transform="translate(-39.46 -48.68)"></path></g><path class="cls-7" d="M505.9,328.69c0,.95-.35,1.47-1,1.47s-.91-.51-.91-1.43.4-1.44,1-1.44S505.9,327.81,505.9,328.69Zm-1.51.05c0,.72.22,1.13.57,1.13s.56-.45.56-1.16-.17-1.13-.56-1.13S504.39,328,504.39,328.74Z" transform="translate(-39.46 -48.68)"></path><g class="cls-42"><path class="cls-7" d="M502.42,315.68v-.76h-1.29v-.25l1.24-1.77h.4v1.72h.39v.3h-.39v.76Zm0-1.06v-.92c0-.15,0-.29,0-.44h0l-.23.41-.68.95h.91Z" transform="translate(-39.46 -48.68)"></path></g><path class="cls-7" d="M505.9,314.26c0,.94-.35,1.46-1,1.46s-.91-.51-.91-1.42.4-1.45,1-1.45S505.9,313.37,505.9,314.26Zm-1.51,0c0,.72.22,1.13.57,1.13s.56-.45.56-1.16-.17-1.13-.56-1.13S504.39,313.54,504.39,314.3Z" transform="translate(-39.46 -48.68)"></path><g class="cls-42"><path class="cls-7" d="M502.91,298.9h-1.06l-.1.71.22,0a1.19,1.19,0,0,1,.6.15.81.81,0,0,1,.4.72,1,1,0,0,1-1,.94,1.35,1.35,0,0,1-.7-.17l.1-.28a1.2,1.2,0,0,0,.59.15.61.61,0,0,0,.66-.6c0-.36-.24-.62-.8-.62a3.26,3.26,0,0,0-.38,0l.18-1.33h1.32Z" transform="translate(-39.46 -48.68)"></path></g><path class="cls-7" d="M505.9,299.94c0,.94-.35,1.46-1,1.46s-.91-.5-.91-1.42.4-1.45,1-1.45S505.9,299.05,505.9,299.94Zm-1.51,0c0,.72.22,1.13.57,1.13s.56-.44.56-1.15-.17-1.14-.56-1.14S504.39,299.23,504.39,300Z" transform="translate(-39.46 -48.68)"></path><g class="cls-42"><path class="cls-7" d="M502.84,284.41a.94.94,0,0,0-.28,0,1.13,1.13,0,0,0-1,1h0a.85.85,0,0,1,1.51.58.93.93,0,0,1-.93,1c-.59,0-1-.46-1-1.19a1.78,1.78,0,0,1,.47-1.25,1.54,1.54,0,0,1,.89-.41l.27,0Zm-.1,1.6a.57.57,0,0,0-.58-.64.63.63,0,0,0-.54.35.34.34,0,0,0,0,.16c0,.46.22.8.61.8S502.74,286.41,502.74,286Z" transform="translate(-39.46 -48.68)"></path><path class="cls-7" d="M505.9,285.5c0,.95-.35,1.47-1,1.47s-.91-.51-.91-1.43.4-1.44,1-1.44S505.9,284.62,505.9,285.5Zm-1.51,0c0,.73.22,1.14.57,1.14s.56-.45.56-1.16-.17-1.13-.56-1.13S504.39,284.79,504.39,285.54Z" transform="translate(-39.46 -48.68)"></path></g></g></g><line class="cls-32" x1="506.52" y1="328.41" x2="506.52" y2="231.71"></line><line class="cls-32" x1="463.31" y1="328.41" x2="616.85" y2="328.41"></line><line class="cls-32" x1="546.02" y1="328.41" x2="546.02" y2="231.71"></line><line class="cls-32" x1="585.53" y1="328.41" x2="585.53" y2="231.71"></line></g><path class="cls-39" d="M525.59,369.35l-.39,1.19h-.5l1.27-3.77h.59l1.29,3.77h-.52l-.41-1.19Zm1.23-.38-.37-1.08c-.08-.25-.14-.47-.19-.69h0c-.06.23-.12.46-.19.68l-.37,1.09Z" transform="translate(-39.46 -48.68)"></path><g class="cls-6"><path class="cls-39" d="M522.18,359.53a1,1,0,0,1-1.09-.93V284.32a1.1,1.1,0,0,1,2.17,0V358.6a1,1,0,0,1-1.08.93" transform="translate(-39.46 -48.68)"></path><path class="cls-39" d="M517.88,359.53a1,1,0,0,1-1.08-.93V321.2a1.1,1.1,0,0,1,2.17,0v37.4a1,1,0,0,1-1.09.93" transform="translate(-39.46 -48.68)"></path><path class="cls-39" d="M535.86,359.53a1,1,0,0,1-1.08-.93V321.2a1.1,1.1,0,0,1,2.17,0v37.4a1,1,0,0,1-1.09.93" transform="translate(-39.46 -48.68)"></path><path class="cls-39" d="M526.79,359.53a1,1,0,0,1-1.08-.93V293.28a1.1,1.1,0,0,1,2.17,0V358.6a1,1,0,0,1-1.09.93" transform="translate(-39.46 -48.68)"></path><path class="cls-39" d="M531.46,359.53a1,1,0,0,1-1.08-.93V305.14a1.1,1.1,0,0,1,2.17,0V358.6a1,1,0,0,1-1.09.93" transform="translate(-39.46 -48.68)"></path><path class="cls-39" d="M530.66,389.67a3.87,3.87,0,1,1-3.87-3.86,3.87,3.87,0,0,1,3.87,3.86" transform="translate(-39.46 -48.68)"></path><g class="cls-43"><g class="cls-44"><g class="cls-44"><path class="cls-7" d="M521.75,402.44v-.75h-1.29v-.25l1.24-1.78h.4v1.73h.39v.3h-.39v.75Zm0-1.05v-.93c0-.14,0-.29,0-.43h0c-.09.16-.15.28-.23.41l-.68.94h.91Z" transform="translate(-39.46 -48.68)"></path><path class="cls-7" d="M524.85,400H523.8l-.11.71h.23a1.08,1.08,0,0,1,.59.15.78.78,0,0,1,.4.71,1,1,0,0,1-1,.95,1.46,1.46,0,0,1-.7-.17l.1-.29a1.19,1.19,0,0,0,.59.16.62.62,0,0,0,.66-.61c0-.36-.24-.61-.8-.61a1.94,1.94,0,0,0-.38,0l.18-1.34h1.32Z" transform="translate(-39.46 -48.68)"></path><path class="cls-7" d="M527.44,400.45c0,.58-.31.87-.67.87s-.65-.28-.65-.84.3-.86.67-.86S527.44,399.92,527.44,400.45Zm-1,0c0,.36.12.63.36.63s.36-.27.36-.64-.1-.62-.36-.62S526.42,400.12,526.42,400.47Zm.32,2,1.64-2.87h.23L527,402.49Zm2.5-.89c0,.58-.31.87-.66.87s-.64-.28-.65-.83.3-.87.67-.87S529.24,401.07,529.24,401.6Zm-1,0c0,.36.13.63.36.63s.36-.27.36-.64-.1-.62-.36-.62S528.23,401.27,528.23,401.62Z" transform="translate(-39.46 -48.68)"></path><polygon class="cls-7" points="497.77 351.84 494.25 351.84 496.01 350.09 497.77 351.84"></polygon></g></g></g></g><path class="cls-45" d="M564.37,366.82a5.26,5.26,0,0,1,.89-.07,1.53,1.53,0,0,1,1,.27.78.78,0,0,1,.32.66.89.89,0,0,1-.64.83h0a1,1,0,0,1,.78.94,1,1,0,0,1-.32.76,1.91,1.91,0,0,1-1.3.35,6.36,6.36,0,0,1-.76,0Zm.49,1.54h.44c.51,0,.81-.26.81-.63s-.33-.61-.82-.61a2.83,2.83,0,0,0-.43,0Zm0,1.81a2.25,2.25,0,0,0,.41,0c.5,0,1-.18,1-.73s-.44-.73-1-.73h-.4Z" transform="translate(-39.46 -48.68)"></path><g class="cls-6"><path class="cls-45" d="M561.25,359.53a1,1,0,0,1-1.08-.93V305.27a1.1,1.1,0,0,1,2.17,0V358.6a1,1,0,0,1-1.09.93" transform="translate(-39.46 -48.68)"></path><path class="cls-45" d="M557,359.53a1,1,0,0,1-1.09-.93V314.22a1.1,1.1,0,0,1,2.17,0V358.6a1,1,0,0,1-1.08.93" transform="translate(-39.46 -48.68)"></path><path class="cls-45" d="M574.93,359.53a1,1,0,0,1-1.08-.93V335.16a1.1,1.1,0,0,1,2.17,0V358.6a1,1,0,0,1-1.09.93" transform="translate(-39.46 -48.68)"></path><path class="cls-45" d="M565.86,359.53a1,1,0,0,1-1.08-.93V282.81a1.1,1.1,0,0,1,2.17,0V358.6a1,1,0,0,1-1.09.93" transform="translate(-39.46 -48.68)"></path><path class="cls-45" d="M570.54,359.53a1,1,0,0,1-1.09-.93V287.69a1.1,1.1,0,0,1,2.17,0V358.6a1,1,0,0,1-1.08.93" transform="translate(-39.46 -48.68)"></path><path class="cls-45" d="M569,389.67a3.87,3.87,0,1,1-3.86-3.86,3.86,3.86,0,0,1,3.86,3.86" transform="translate(-39.46 -48.68)"></path><g class="cls-43"><g class="cls-46"><g class="cls-46"><path class="cls-7" d="M559.68,402.44v-.75h-1.29v-.25l1.23-1.78H560v1.73h.39v.3H560v.75Zm0-1.05v-.93c0-.14,0-.29,0-.43h0l-.24.41-.68.94h.92Z" transform="translate(-39.46 -48.68)"></path><path class="cls-7" d="M562.78,400h-1.06l-.11.71h.23a1.12,1.12,0,0,1,.6.15.78.78,0,0,1,.4.71,1,1,0,0,1-1,.95,1.41,1.41,0,0,1-.69-.17l.09-.29a1.27,1.27,0,0,0,.6.16.62.62,0,0,0,.66-.61c0-.36-.25-.61-.8-.61a2.06,2.06,0,0,0-.39,0l.18-1.34h1.33Z" transform="translate(-39.46 -48.68)"></path><path class="cls-7" d="M565.36,400.45c0,.58-.31.87-.67.87s-.64-.28-.65-.84.31-.86.68-.86S565.36,399.92,565.36,400.45Zm-1,0c0,.36.13.63.36.63s.36-.27.36-.64-.1-.62-.36-.62S564.34,400.12,564.34,400.47Zm.33,2,1.63-2.87h.24l-1.63,2.87Zm2.5-.89c0,.58-.31.87-.66.87s-.65-.28-.65-.83.3-.87.67-.87S567.17,401.07,567.17,401.6Zm-1,0c0,.36.13.63.36.63s.36-.27.36-.64-.1-.62-.36-.62S566.15,401.27,566.15,401.62Z" transform="translate(-39.46 -48.68)"></path><polygon class="cls-7" points="535.69 351.84 532.18 351.84 533.94 350.09 535.69 351.84"></polygon></g></g></g></g><path class="cls-37" d="M606,370.41a2.43,2.43,0,0,1-1,.18,1.75,1.75,0,0,1-1.85-1.9,1.87,1.87,0,0,1,2-2,1.91,1.91,0,0,1,.89.17l-.11.4a1.79,1.79,0,0,0-.76-.16,1.4,1.4,0,0,0-1.47,1.55,1.37,1.37,0,0,0,1.45,1.52,2.05,2.05,0,0,0,.79-.16Z" transform="translate(-39.46 -48.68)"></path><g class="cls-6"><path class="cls-37" d="M600.33,359.53a1,1,0,0,1-1.09-.93V326.22a1.1,1.1,0,0,1,2.17,0V358.6a1,1,0,0,1-1.08.93" transform="translate(-39.46 -48.68)"></path><path class="cls-37" d="M596,359.53a1,1,0,0,1-1.09-.93V303.75a1.1,1.1,0,0,1,2.17,0V358.6a1,1,0,0,1-1.08.93" transform="translate(-39.46 -48.68)"></path><path class="cls-37" d="M614,359.53a1,1,0,0,1-1.09-.93V296.07a1.1,1.1,0,0,1,2.17,0V358.6a1,1,0,0,1-1.08.93" transform="translate(-39.46 -48.68)"></path><path class="cls-37" d="M604.94,359.53a1,1,0,0,1-1.09-.93V321.21a1.1,1.1,0,0,1,2.17,0V358.6a1,1,0,0,1-1.08.93" transform="translate(-39.46 -48.68)"></path><path class="cls-37" d="M609.61,359.53a1,1,0,0,1-1.09-.93V312.13a1.1,1.1,0,0,1,2.17,0V358.6a1,1,0,0,1-1.08.93" transform="translate(-39.46 -48.68)"></path><path class="cls-37" d="M608.8,389.67a3.87,3.87,0,1,1-3.86-3.86,3.86,3.86,0,0,1,3.86,3.86" transform="translate(-39.46 -48.68)"></path><g class="cls-43"><g class="cls-47"><g class="cls-47"><path class="cls-7" d="M599,402.44v-.75h-1.29v-.25l1.24-1.78h.4v1.73h.39v.3h-.39v.75Zm0-1.05v-.93c0-.14,0-.29,0-.43h0l-.23.41-.68.94H599Z" transform="translate(-39.46 -48.68)"></path><path class="cls-7" d="M602.1,400H601l-.1.71h.22a1.09,1.09,0,0,1,.6.15.78.78,0,0,1,.4.71,1,1,0,0,1-1,.95,1.42,1.42,0,0,1-.7-.17l.1-.29a1.19,1.19,0,0,0,.59.16.62.62,0,0,0,.66-.61c0-.36-.24-.61-.8-.61a1.94,1.94,0,0,0-.38,0l.17-1.34h1.33Z" transform="translate(-39.46 -48.68)"></path><path class="cls-7" d="M604.68,400.45c0,.58-.3.87-.66.87s-.65-.28-.65-.84.3-.86.67-.86S604.68,399.92,604.68,400.45Zm-1,0c0,.36.12.63.35.63s.36-.27.36-.64-.09-.62-.36-.62S603.67,400.12,603.67,400.47Zm.32,2,1.63-2.87h.24l-1.63,2.87Zm2.5-.89c0,.58-.31.87-.66.87s-.65-.28-.65-.83.3-.87.67-.87S606.49,401.07,606.49,401.6Zm-1,0c0,.36.14.63.37.63s.36-.27.36-.64-.1-.62-.36-.62S605.47,401.27,605.47,401.62Z" transform="translate(-39.46 -48.68)"></path><polygon class="cls-7" points="571.5 350.09 575.02 350.09 573.26 351.84 571.5 350.09"></polygon></g></g></g></g><path class="cls-35" d="M642.25,366.82a7.86,7.86,0,0,1,1-.07,2.19,2.19,0,0,1,1.52.46,1.74,1.74,0,0,1,.53,1.36,2,2,0,0,1-.54,1.46,2.31,2.31,0,0,1-1.66.54c-.35,0-.64,0-.89,0Zm.49,3.33a3.28,3.28,0,0,0,.49,0,1.44,1.44,0,0,0,1.6-1.6,1.33,1.33,0,0,0-1.52-1.45,2.65,2.65,0,0,0-.57.05Z" transform="translate(-39.46 -48.68)"></path><g class="cls-6"><path class="cls-35" d="M639.4,359.53a1,1,0,0,1-1.09-.93V284.32a1.1,1.1,0,0,1,2.17,0V358.6a1,1,0,0,1-1.08.93" transform="translate(-39.46 -48.68)"></path><path class="cls-35" d="M635.1,359.53a1,1,0,0,1-1.08-.93V293.27a1.1,1.1,0,0,1,2.17,0V358.6a1,1,0,0,1-1.09.93" transform="translate(-39.46 -48.68)"></path><path class="cls-35" d="M653.08,359.53a1,1,0,0,1-1.08-.93V307.24a1.1,1.1,0,0,1,2.17,0V358.6a1,1,0,0,1-1.09.93" transform="translate(-39.46 -48.68)"></path><path class="cls-35" d="M644,359.53a1,1,0,0,1-1.08-.93V335.18a1.1,1.1,0,0,1,2.17,0V358.6a1,1,0,0,1-1.09.93" transform="translate(-39.46 -48.68)"></path><path class="cls-35" d="M648.68,359.53a1,1,0,0,1-1.08-.93V319.11a1.1,1.1,0,0,1,2.17,0V358.6a1,1,0,0,1-1.09.93" transform="translate(-39.46 -48.68)"></path><path class="cls-35" d="M647.88,389.67a3.87,3.87,0,1,1-3.87-3.86,3.87,3.87,0,0,1,3.87,3.86" transform="translate(-39.46 -48.68)"></path><g class="cls-43"><g class="cls-48"><g class="cls-48"><path class="cls-7" d="M637.62,402.44v-.75h-1.29v-.25l1.24-1.78H638v1.73h.38v.3H638v.75Zm0-1.05v-.93c0-.14,0-.29,0-.43h0c-.08.16-.15.28-.23.41l-.68.94h.91Z" transform="translate(-39.46 -48.68)"></path><path class="cls-7" d="M640.73,400h-1.06l-.11.71h.23a1.08,1.08,0,0,1,.59.15.78.78,0,0,1,.4.71,1,1,0,0,1-1,.95,1.38,1.38,0,0,1-.69-.17l.09-.29a1.19,1.19,0,0,0,.59.16.62.62,0,0,0,.66-.61c0-.36-.24-.61-.8-.61a1.94,1.94,0,0,0-.38,0l.18-1.34h1.33Z" transform="translate(-39.46 -48.68)"></path><path class="cls-7" d="M643.31,400.45c0,.58-.31.87-.67.87s-.64-.28-.65-.84.3-.86.67-.86S643.31,399.92,643.31,400.45Zm-1,0c0,.36.12.63.36.63s.36-.27.36-.64-.1-.62-.36-.62S642.29,400.12,642.29,400.47Zm.32,2,1.64-2.87h.24l-1.64,2.87Zm2.5-.89c0,.58-.3.87-.66.87s-.64-.28-.65-.83.31-.87.67-.87S645.11,401.07,645.11,401.6Zm-1,0c0,.36.13.63.36.63s.36-.27.36-.64-.1-.62-.36-.62S644.1,401.27,644.1,401.62Z" transform="translate(-39.46 -48.68)"></path><polygon class="cls-7" points="613.64 351.84 610.12 351.84 611.88 350.09 613.64 351.84"></polygon></g></g></g><rect class="cls-45" x="332.61" y="124.4" width="4.41" height="48.7"></rect><rect class="cls-49" x="341.42" y="117.63" width="4.41" height="55.46"></rect><rect class="cls-45" x="350.24" y="122.04" width="4.41" height="51.05"></rect><rect class="cls-49" x="359.06" y="112.93" width="4.41" height="60.16"></rect><rect class="cls-45" x="367.88" y="104.69" width="4.41" height="68.4"></rect><rect class="cls-49" x="376.7" y="101.69" width="4.41" height="71.4"></rect><rect class="cls-45" x="387.51" y="124.4" width="4.41" height="48.7"></rect><rect class="cls-49" x="396.33" y="117.63" width="4.41" height="55.46"></rect><rect class="cls-45" x="405.15" y="122.04" width="4.41" height="51.05"></rect><rect class="cls-49" x="413.97" y="112.93" width="4.41" height="60.16"></rect><rect class="cls-45" x="422.79" y="104.69" width="4.41" height="68.4"></rect><rect class="cls-49" x="431.6" y="101.87" width="4.41" height="71.23"></rect><rect class="cls-45" x="442.42" y="124.4" width="4.41" height="48.7"></rect><rect class="cls-49" x="451.23" y="117.63" width="4.41" height="55.46"></rect><rect class="cls-45" x="460.05" y="122.04" width="4.41" height="51.05"></rect><rect class="cls-49" x="468.87" y="112.93" width="4.41" height="60.16"></rect><rect class="cls-45" x="477.69" y="104.69" width="4.41" height="68.4"></rect><rect class="cls-49" x="486.51" y="96.17" width="4.41" height="76.92"></rect><rect class="cls-50" x="425.28" y="137.98" width="0.98" height="28.28" transform="translate(-62.71 156.38) rotate(-26.39)"></rect><rect class="cls-50" x="477.92" y="139.99" width="0.98" height="28.28" transform="translate(-62.34 142.03) rotate(-22.03)"></rect><path class="cls-50" d="M493.05,157.47l-10.23,9.27.66.73,10.36-9.38a4.8,4.8,0,0,1-.79-.62" transform="translate(-39.46 -48.68)"></path><path class="cls-50" d="M418.39,140.8a.45.45,0,0,0-.66-.05l-26.06,22.47-7.91-6.08a.45.45,0,0,0-.37-.09.49.49,0,0,0-.33.21l-9,7.7v1.51a.45.45,0,0,0,.3-.22l9.21-8.05,7.81,6a.47.47,0,0,0,.6,0l26.34-22.73a.46.46,0,0,0,.05-.66" transform="translate(-39.46 -48.68)"></path><path class="cls-50" d="M375.28,164.52a1.92,1.92,0,0,1-2.71,2.72,1.92,1.92,0,0,1,2.71-2.72" transform="translate(-39.46 -48.68)"></path><path class="cls-50" d="M385.42,157.63a1.85,1.85,0,1,1-1.85-1.85,1.84,1.84,0,0,1,1.85,1.85" transform="translate(-39.46 -48.68)"></path><path class="cls-50" d="M393.88,164a1.85,1.85,0,1,1-1.85-1.85,1.85,1.85,0,0,1,1.85,1.85" transform="translate(-39.46 -48.68)"></path><path class="cls-50" d="M421,139.81a1.85,1.85,0,1,1-1.85-1.85,1.85,1.85,0,0,1,1.85,1.85" transform="translate(-39.46 -48.68)"></path><path class="cls-50" d="M473.29,140.8a.45.45,0,0,0-.66-.05l-26.06,22.47-7.91-6.08a.44.44,0,0,0-.36-.09.47.47,0,0,0-.33.21l-6.41,5.39v1.51a.45.45,0,0,0,.3-.22l6.64-5.74,7.81,6a.46.46,0,0,0,.59,0l26.34-22.73a.45.45,0,0,0,.05-.66" transform="translate(-39.46 -48.68)"></path><path class="cls-50" d="M432.86,162.54a1.92,1.92,0,0,1-2.71,2.71,1.92,1.92,0,0,1,2.71-2.71" transform="translate(-39.46 -48.68)"></path><path class="cls-50" d="M440.33,157.63a1.85,1.85,0,1,1-1.85-1.85,1.84,1.84,0,0,1,1.85,1.85" transform="translate(-39.46 -48.68)"></path><path class="cls-50" d="M448.78,164a1.85,1.85,0,1,1-1.85-1.85,1.84,1.84,0,0,1,1.85,1.85" transform="translate(-39.46 -48.68)"></path><path class="cls-50" d="M474.8,141.1a1.85,1.85,0,1,1-1.85-1.85,1.85,1.85,0,0,1,1.85,1.85" transform="translate(-39.46 -48.68)"></path><path class="cls-50" d="M528.2,140.8a.45.45,0,0,0-.66-.05l-26.06,22.47-7.91-6.08a.45.45,0,0,0-.37-.09l-.05,0c0,.33-.09.66-.14,1a3.78,3.78,0,0,1,.17.35l.22-.2,7.81,6a.47.47,0,0,0,.6,0l26.34-22.73a.46.46,0,0,0,.05-.66" transform="translate(-39.46 -48.68)"></path><path class="cls-50" d="M495.23,157.63a1.85,1.85,0,1,1-1.85-1.85,1.84,1.84,0,0,1,1.85,1.85" transform="translate(-39.46 -48.68)"></path><path class="cls-50" d="M485.58,166.59a1.85,1.85,0,1,1-1.85-1.85,1.85,1.85,0,0,1,1.85,1.85" transform="translate(-39.46 -48.68)"></path><path class="cls-50" d="M503.69,164a1.85,1.85,0,1,1-1.85-1.85,1.85,1.85,0,0,1,1.85,1.85" transform="translate(-39.46 -48.68)"></path><path class="cls-50" d="M529.7,141.1a1.85,1.85,0,1,1-1.85-1.85,1.85,1.85,0,0,1,1.85,1.85" transform="translate(-39.46 -48.68)"></path><path class="cls-45" d="M573.12,121.16a27,27,0,1,1-11.6,36.32,27,27,0,0,1,11.6-36.32" transform="translate(-39.46 -48.68)"></path><path class="cls-51" d="M585.48,145.12l12.69-23.66a24.51,24.51,0,0,1,11.27,11.3l-24,12.36" transform="translate(-39.46 -48.68)"></path><path class="cls-50" d="M664.05,123.24a27,27,0,1,1-37.15,8.59,27,27,0,0,1,37.15-8.59" transform="translate(-39.46 -48.68)"></path><path class="cls-52" d="M649.77,146.11l14.28-22.87a27.58,27.58,0,0,1,11.54,15.11c3.39,11.3-2.05,20.56-3,22l-22.87-14.28" transform="translate(-39.46 -48.68)"></path><path class="cls-49" d="M641,214.53a27,27,0,1,1-27-27,27,27,0,0,1,27,27" transform="translate(-39.46 -48.68)"></path><path class="cls-53" d="M614,214.53l23.31,13.52A26.36,26.36,0,0,1,614,241.5Z" transform="translate(-39.46 -48.68)"></path><polygon class="cls-54" points="329.52 627.57 335.68 653.51 344.9 653.46 345.24 627.57 329.52 627.57"></polygon><polygon class="cls-54" points="407.11 628.68 424.63 653.51 431.46 644.74 420.92 625.26 407.11 628.68"></polygon><path class="cls-55" d="M401,335.4a17.84,17.84,0,0,0-9.67-1.85,4.54,4.54,0,0,1,2-1c-1.65-.24-5.35,1.4-5.35,1.4-23-8.87-26.64,25-26.16,32.91s-7.73,10.44-19.71,16.65c-22.86,11.84-24.87,27.69-24.87,27.69.18.11.37.23.56.37,1.14-1.93,3.47-5.53,5.44-6.08-.07.18-2.33,5-3.17,7.71,6.75,5.13,19.36,16.5,28.15,24.56a13,13,0,0,1,.6-5l1.09,6.54c4.7,4.32,7.94,7.36,7.94,7.36-.58-6.36,28.79-39.95,44.11-50,3.73-5.49,5.06-15.19,5.16-15.95-.65,7.69-2,12-3.14,14.43,13-11.94,5.42-55-3-59.77" transform="translate(-39.46 -48.68)"></path><path class="cls-54" d="M401.11,397.19c.07,0-7.4,3.92-13,2.38-5.29-1.44-8.75-8.3-8.67-8.31,2.24-.45,2.88-3.53,2.83-16.75l1,.2,17,3.37s-.39,5.36-.4,10.4c0,4.24.25,8.26,1.22,8.71" transform="translate(-39.46 -48.68)"></path><path class="cls-55" d="M381.85,341s8.4-8.94,18.95-.46c0,0-6.14-1.06-18.95.46" transform="translate(-39.46 -48.68)"></path><path class="cls-56" d="M400.29,378.08s-.39,5.36-.4,10.4c-9.53-.27-14.56-9-16.62-13.77Z" transform="translate(-39.46 -48.68)"></path><path class="cls-55" d="M381.51,372.85s-5-7.89-6.19-14.63c-.86-4.82,1.59-22.67,19.53-20.09A24.34,24.34,0,0,1,405,342c3.89,2.63,9.51,8.31,3.23,23.88l-1.63,5.26Z" transform="translate(-39.46 -48.68)"></path><path class="cls-49" d="M468.14,686.61l-9,.28-9.77.3s-22.56-25.12-35.22-65.39c-.29-.94-.6-1.88-.93-2.84-6.93-20.2-21.29-45.55-28.85-68.49-1.21-3.66-2.29-7.1-3.26-10.35-.31-1-.61-2.07-.9-3.08-5.58-19.37-7.19-32.1-8.68-45.69l54.64.44s8.82,92.81,42,194.82" transform="translate(-39.46 -48.68)"></path><path class="cls-57" d="M418.5,460.39c-.14,26,3.81,37.16,3.81,37.16a73.38,73.38,0,0,1-51.19,3.14c-.33-.11-23-5.29-23-5.29.47-1,4.61-18.57,5.06-19.54,5.87-12.6,10.33-18.13,11-22a82.21,82.21,0,0,0,.68-21.78,175.28,175.28,0,0,0-6.74-34.21c7.57-1.72,14.86-4.67,22.75-7.63,1.81,2.26,7.16,4.55,12,4.44,5.54-.12,7.27-2.47,7.07-5.1,5.9,3.28,10.59,6.4,10.59,6.4,5,8.72,15.19,17.18,15.93,30.54.18,3.29-7.92,33.16-7.92,33.88" transform="translate(-39.46 -48.68)"></path><path class="cls-58" d="M371.51,463.29c-2.39,3.38-7,23.93-18.36,26.51,5.87-14.64,10.33-21.06,11-25.56a110.86,110.86,0,0,0,.68-25.31c3.81-6.68,6.66-11.26,6.66-11.26.3-1.09,6.06-18.9,7.91-3s-5.24,34.82-7.91,38.6" transform="translate(-39.46 -48.68)"></path><path class="cls-54" d="M403.47,382.86s-22.54.37-22.55-13.67-2.94-23.45,11.45-24.28,17.19,4.52,18.34,9.21-1.38,28.28-7.24,28.74" transform="translate(-39.46 -48.68)"></path><path class="cls-55" d="M410,346.31c-3.48-4.21-6.11-3.3-7.59-2-4.87-7.28-20.26,3.25-20.26,3.25a26.83,26.83,0,0,1-8.77,15.84s4.1,2.54,13.57.1c7.46-1.91,12.87-12.52,14.83-17,1.34,1.2,4.17,3.95,5,6.65,1.12,3.57,1.63,10.93,3.77,10.68,0,0,4.65-11.2-.57-17.53" transform="translate(-39.46 -48.68)"></path><path class="cls-54" d="M374.82,700.74a24.89,24.89,0,0,1-1.17,10.63s-1.51,6.88,5.26,7,8.44-.51,7.67-4.73-2.22-11.51-2.22-11.51Z" transform="translate(-39.46 -48.68)"></path><path class="cls-49" d="M387.22,721.75l0,0h-14l0,0c-.77-3.59.49-10.37.49-10.37,7.67,7.33,12.47-.19,12.47-.19,1.25,3.14,1.1,10.56,1.1,10.56" transform="translate(-39.46 -48.68)"></path><path class="cls-54" d="M487.25,714.66s-12.49-14.19-16.33-21.24l-9.29,4.76,20.77,19.5,4.85-.64Z" transform="translate(-39.46 -48.68)"></path><path class="cls-49" d="M494.91,721.73H477.58c-1.53-1.37-3-4.15-4.76-7.78-1-2.08-3.32-3.23-5.66-3.86v11.64h-3.59l-3.32-12.37c-2.21-4.15-.55-8,1-11.23,1.81,0,7.06,1.31,16.28,11.91,3,3.48,6.38,4.72,9.71,4.62a.61.61,0,0,0,.14.07c5.25,2.41,7,5.38,7.52,7" transform="translate(-39.46 -48.68)"></path><path class="cls-7" d="M494.07,406.16s-14.79,8.27-20.08,10.65c-1.88.85-5.28,2.44-8.76,4.06l-6.07,2.85a7.62,7.62,0,0,1-9-2c-8-9.36-28.75-29.63-50.16-32.17l-.07,0v0h0l.12.23c1.2,3,12.94,32.32,13.3,38.51.39,6.52,1.54,106.61,1.54,106.61s-.77,4.61,8.05,2.69S434,533.78,434,533.78s-8.44-61.74-6.13-83.22a47.91,47.91,0,0,0-.9-13.84c13,7.9,28.41,11.41,28.41,11.41a128.74,128.74,0,0,0,14.65-8,92.68,92.68,0,0,0,12.35-9.93c5.15-4.73,14-16.16,14-16.16Z" transform="translate(-39.46 -48.68)"></path><path class="cls-59" d="M459.12,686.89l-9.77.3s-22.56-25.12-35.22-65.39c-.29-.94-.6-1.88-.93-2.84-6.93-20.2-21.29-45.55-28.85-68.49-1.21-3.66-2.29-7.1-3.26-10.35-.31-1-.61-2.07-.9-3.08l8.05-6.11s24.15,39.12,31.63,75.93c6.5,32,32.51,70.46,39.25,80" transform="translate(-39.46 -48.68)"></path><path class="cls-49" d="M389.07,610.29c.14,17.91-.76,59.06-3.09,76.1h-8.66c-4.78,0-7.16-.07-7.16-.07-5.85-29.62-10-54.14-13-75.26-2.49-17.33-4.7-32.2-6.4-45s-2.9-23.65-3.32-32.76c-.07-1.44-.12-2.83-.14-4.19s0-2.68,0-4l47.21-4.61c-.59,31.37-5.44,79.34-5.37,89.74" transform="translate(-39.46 -48.68)"></path><path class="cls-59" d="M377.32,686.39c-4.78,0-7.16-.07-7.16-.07-5.85-29.62-10-54.14-13-75.26-2.49-17.33-4.7-32.2-6.4-45s-2.89-23.65-3.32-32.76l17.32,10.19s-11.05,3.9-6.84,33.43,13.57,105.28,19.44,109.46" transform="translate(-39.46 -48.68)"></path><path class="cls-7" d="M379.55,533s-3.32,12-14.83,10.48-27.86-8.44-27.86-8.44,4.91-15.53,11-35.94c7.4-24.71,16.56-56.57,20.88-76.66a125.54,125.54,0,0,0,2.35-13.7l9.74-18.53s14,31.95,14.8,40S379.55,533,379.55,533" transform="translate(-39.46 -48.68)"></path><path class="cls-54" d="M420.64,439.23c-5.53.73-7.66,3.67-8.34,7.64a16.79,16.79,0,0,1-2.41,5.75c-5.52.3-18.65,1-29.69,1.71l-.91,14.48a165.24,165.24,0,0,0,33-7.82,8.69,8.69,0,0,0,3.76-2c7.94-6.51,12.45-17.41,12.47-19s-2.37-1.48-7.91-.75" transform="translate(-39.46 -48.68)"></path><path class="cls-60" d="M379,447.11c-.51,13-3.58,38.35-30.93,51.9l-.22.11c7.4-24.71,16.56-56.57,20.88-76.66,5,7.51,10.55,17.47,10.27,24.65" transform="translate(-39.46 -48.68)"></path><path class="cls-7" d="M380.86,390.23s-23.4,1.66-29,14.19-7.42,54.2-.26,66.48c0,0,9.86,2.8,27.29-.46l.64-.12s5.56-13.61.58-16.3c0,0-14.7.77-13.17-4.09s13.94-59.7,13.94-59.7" transform="translate(-39.46 -48.68)"></path><path class="cls-54" d="M509.93,396.32c-12.59-1.61-15.76,9.84-15.76,9.84l2.35,7.86c3.88.54,7.27-.47,10.4-4.95s4-2.76,6-6.09c2.7-4.52-1.52-6.2-3-6.66" transform="translate(-39.46 -48.68)"></path><path class="cls-54" d="M474,416.81c-1.88.85-5.28,2.44-8.76,4.06,1.86,3.31,4.19,9.31,4.81,19.24a79.86,79.86,0,0,0,12.71-10.24A167.51,167.51,0,0,0,496.42,414l-2.35-7.86s-14.8,8.27-20.08,10.65" transform="translate(-39.46 -48.68)"></path><path class="cls-54" d="M643.71,525.68,689,514A397.83,397.83,0,0,1,715,472.29c5,5,7.85,12.67,12.93,17.61l-29.53,37.25c-1.36,1.5-58.11,7.23-58.11,7.23Z" transform="translate(-39.46 -48.68)"></path><path class="cls-55" d="M714.11,419.59a52.08,52.08,0,0,1,4.75-25.09c3.31-6.89,11.5-10.8,19-10.81,23.72,0,26.73,31.3,41.83,43.39,4.61,3.69,9.77,6.7,14.13,10.68,16.12,14.71,8.86,41.94-5.94,54.83-10.27,9-26.41,14-39.07,7-6.6-3.66-11.62-9.72-15.19-16.37-5.08-9.44-8.35-20.33-12-30.39-3.84-10.7-7.06-21.85-7.53-33.28" transform="translate(-39.46 -48.68)"></path><path class="cls-50" d="M723,498.94s17.8-18.24,22.38-26.17-3.12-2.77-11-4.85c-3-.79-2.23-18.24-7.86-12.57-9.23,9.31-20.84,25.58-20.84,25.58Z" transform="translate(-39.46 -48.68)"></path><path class="cls-61" d="M262.22,524.77c.55-.83-.81-2.27-1.82-3.35s-8-4.24-9.16-4.61-11.22,1-15.07,2.18a13.63,13.63,0,0,1-6.38.68c-1-.21-2.52-.5-3.7-.76l-1.41,9c9,0,17.37.72,18.23.71,2.71-.05,7.7-2.84,8.86-3.24a8,8,0,0,1,5,.69c1.56.75,6.11,2.54,6.88,2.14s-1.47-3.39-1.47-3.39" transform="translate(-39.46 -48.68)"></path><path class="cls-61" d="M238.38,518.41l-50.72-12.73a422.34,422.34,0,0,0-27.5-44.21c-5.34,5.3-8.31,13.43-13.7,18.67l28.38,38.61c1.44,1.59,64.5,8.52,64.5,8.52Z" transform="translate(-39.46 -48.68)"></path><path class="cls-62" d="M163.89,501.48S149.3,482,144,472.77s3.63-3.22,12.78-5.65c3.46-.91.59-19.83,7.14-13.23,10.75,10.83,21.52,34.28,21.52,34.28Z" transform="translate(-39.46 -48.68)"></path><path class="cls-63" d="M183.57,701s-.77,12.81-.78,12.83c-.28,1.63-1.4,5.65-1.4,7.13,0,5.55,26.37-4.72,20.46-7.18-.53-.22-3.33-1.91-3.51-3.8-.27-2.91-1-8.8-1-8.8Z" transform="translate(-39.46 -48.68)"></path><path class="cls-31" d="M200.74,712.66s-6.19,1.69-9.36,2.12-7.35-3.15-9.6-2.19c-2.47,1.07-2.37,10.64-2.37,10.64s33.21,2.72,42.55-.1c3.7-1.11-8.56-6.52-21.22-10.47" transform="translate(-39.46 -48.68)"></path><path class="cls-63" d="M228.35,701s-.78,12.81-.78,12.83c-.29,1.63-1.41,5.65-1.41,7.13,0,5.55,26.38-4.72,20.47-7.18-.54-.22-4.53-.93-4.71-2.82-.27-2.91-.77-11.92-.77-11.92Z" transform="translate(-39.46 -48.68)"></path><path class="cls-31" d="M245.52,712.66s-6.19,1.69-9.36,2.12-7.36-3.15-9.6-2.19c-2.47,1.07-2.37,10.64-2.37,10.64s33.21,2.72,42.54-.1c3.7-1.11-8.55-6.52-21.21-10.47" transform="translate(-39.46 -48.68)"></path><path class="cls-64" d="M143.38,563.55l63.05.27s28.48-.75,33,9.1,3.43,134.93,3.43,134.93-15.2,2.26-16,1.42l-17.11-74.88a52.75,52.75,0,0,1-1.84-19.56l1.64-17.42-26,1.33s-29.49-.47-39.22-10.25-.93-24.94-.93-24.94" transform="translate(-39.46 -48.68)"></path><path class="cls-65" d="M100.64,556.59l67.79,4.16s29.18,2.37,33.68,12.22-2.87,136-2.87,136-16.93,1-16.89.3-6.95-57.78-10.82-75.8a63.29,63.29,0,0,1-1.28-17.42l2.45-20.19s-63-.36-66.1-3.51c-9.72-9.78-6-35.76-6-35.76" transform="translate(-39.46 -48.68)"></path><path class="cls-49" d="M162.32,452.6c-9.44-2.86-27.12-4.36-27.12-4.36s-11.08-1.8-14.68-1c-5.3,1.15-15.25,1.67-16.18,24.68-.66,16.46-2.54,57.19-4.42,84.69l67.48,4.1c-3.05-42.32,3.85-105.39-5.08-108.09" transform="translate(-39.46 -48.68)"></path><path class="cls-63" d="M144.43,428.58l-10.6,19.49s8,14.23,15.53,14.61c6.34.32,5.34-9.05,5.34-9.05s1-12.11,4-17.54-14.31-7.51-14.31-7.51" transform="translate(-39.46 -48.68)"></path><path class="cls-66" d="M145.39,436.39a40.07,40.07,0,0,0,10.66,8,31.12,31.12,0,0,1,2.69-8.3c1.4-2.5-1.54-4.29-5.11-5.5-4.79-1.27-9.2-2-9.2-2l-2,3.75a17.39,17.39,0,0,0,3,4.06" transform="translate(-39.46 -48.68)"></path><path class="cls-63" d="M149.87,395.75c-.44-.31-10.89,24.05-6.35,32.82s16.51,14.55,22.56,10.32c6.69-4.67,14-31.95,5.94-41.91s-22.15-1.23-22.15-1.23" transform="translate(-39.46 -48.68)"></path><path d="M172,382.37a29,29,0,0,0-17,4.29c-3.65-.57-9,0-16.23,6.88-8.91,8.39-7.52,20.82-1.95,28.28s3.71,13.77,3.71,13.77l2-3a19.12,19.12,0,0,0,3-7.48,15.62,15.62,0,0,0,.14-5c-.68-4.13,5.37-5.07,7.72-7.7,1.81-2,3.36-7.38,6.27-10.75l3-2.35s6.12-2.52,10.74-.05,9.06-16.23-1.49-17" transform="translate(-39.46 -48.68)"></path><path class="cls-63" d="M151.83,416.9c-.8,3.1-2.91,5.24-4.7,4.77s-2.59-3.35-1.78-6.46,2.91-5.24,4.7-4.77,2.59,3.36,1.78,6.46" transform="translate(-39.46 -48.68)"></path><rect class="cls-67" x="683.83" y="565.83" width="6.6" height="96.58"></rect><path class="cls-63" d="M648.6,686.39s-1.45,15.07-.5,20a19.71,19.71,0,0,0,.73,2.41c1,2.76-1.7,11.17-1.7,11.17l-35.94.13c-2,0-.64-1.18.95-2.27,2.6-1.78,4.7-3,13-6.66.54-.25,2.51-1.41,3.22-1.81a24.91,24.91,0,0,0,5.2-4.27c2.61-2.71,3-16,3-16Z" transform="translate(-39.46 -48.68)"></path><path class="cls-60" d="M628.38,709.34c9.47,2.44,16.52.94,20.47-.52,1,2.75,2.65,13.09,1.56,13.09-9,0-16.48.6-42.31.21-.92,0-.81-3-.2-3.72,1.66-1.85,19.77-8.65,20.48-9.06" transform="translate(-39.46 -48.68)"></path><path class="cls-63" d="M607.92,661.39s-7.86,13.14-9.13,18a17.88,17.88,0,0,0-.38,2.49c-.31,2.89-6.4,9.49-6.4,9.49l-32.75-14.15c-1.79-.77-.08-1.33,1.84-1.69,3.15-.58,5.57-.82,14.73-.9.6,0,2.9-.28,3.72-.37a25.33,25.33,0,0,0,6.58-1.82c3.56-1.43,9.69-13.36,9.69-13.36Z" transform="translate(-39.46 -48.68)"></path><path class="cls-60" d="M579.56,674.25c7.56,6,14.62,7.41,18.84,7.65-.3,2.89-2.67,12.08-3.67,11.65-8.19-3.58-15.84-5.12-39.16-15.72-.84-.38.58-3.1,1.42-3.47,2.32-1,21.74,0,22.57-.11" transform="translate(-39.46 -48.68)"></path><path class="cls-31" d="M719.7,549.16v7.75l-76.19,15.32-18.91,54.3,10.54-6.88-2.44,83.62,16,.1s27.77-70.15,18.66-105.43l84.32,1.23s38.22-14.11,18.5-56.64Z" transform="translate(-39.46 -48.68)"></path><path class="cls-68" d="M719.7,556.91s-79,.51-84.65,4.64-47.73,106.81-47.73,106.81l18.37,6.56s36.55-58.25,38.48-62.41,16.09-34.53,21.49-37.63,54-18,54-18" transform="translate(-39.46 -48.68)"></path><path class="cls-67" d="M761.56,715.4H695.94a5.47,5.47,0,0,0-5.47,5.47,1,1,0,0,0,1,1h74.65a1,1,0,0,0,1-1,5.47,5.47,0,0,0-5.48-5.47" transform="translate(-39.46 -48.68)"></path><path class="cls-67" d="M731,711.09h-8a4.31,4.31,0,0,0,0,8.61h8a4.31,4.31,0,1,0,0-8.61" transform="translate(-39.46 -48.68)"></path><path class="cls-50" d="M748.16,447.38s15.89-3.14,23.15,2.92-1.56,59.94-1.55,68.87,5,34.17,5,34.17-48.18,8.43-55.83-5c0,0-2.18-51.08-1.85-57.5s7.46-32.7,9.44-35.51,21.66-8,21.66-8" transform="translate(-39.46 -48.68)"></path><path class="cls-54" d="M748.26,422.79s.08.47.23,1.28c.72,3.88,3.5,16.75,5.37,20.29,2.27,4.28-7.76,17.92-17.4,16.25-2.88-.5,2.42-12.53,2.17-13.8-.49-2.44-1.15-5.77-1.83-9.19-.38-1.92-.77-3.87-1.13-5.71l-1.87-9.48Z" transform="translate(-39.46 -48.68)"></path><path class="cls-56" d="M748.49,424.07c-.15-.8-.23-1.28-.23-1.28l-14.46-.36s.84,4.27,1.87,9.48c.36,1.82.75,3.77,1.13,5.68a13.59,13.59,0,0,0,6.9-3.45,18.24,18.24,0,0,0,5.23-7.77c-.18-.91-.33-1.69-.44-2.3" transform="translate(-39.46 -48.68)"></path><path class="cls-54" d="M738.53,390s6.81-.79,11.08,4.73,8.88,22.56-1.73,31.84-21.1-1.23-22.66-12.36-2.16-24.61,13.31-24.21" transform="translate(-39.46 -48.68)"></path><path class="cls-54" d="M722.08,414c1.27,2.46,3.4,3.82,4.75,3s1.43-3.4.17-5.86-3.4-3.82-4.75-3-1.43,3.4-.17,5.86" transform="translate(-39.46 -48.68)"></path><path class="cls-55" d="M737.76,388.16s9.11,16.22,15.62,17,7.37,9.37,7.37,9.37-2.33-19.86-8.78-23.69-14.21-2.65-14.21-2.65" transform="translate(-39.46 -48.68)"></path><path class="cls-54" d="M751.67,409.21c-.53,2.88.54,5.52,2.38,5.9s3.77-1.65,4.3-4.54-.53-5.52-2.38-5.89-3.77,1.65-4.3,4.53" transform="translate(-39.46 -48.68)"></path><path class="cls-69" d="M760.79,593.38s-78.57,1.34-86.77,0-11.73,8.92-9.29,14.3,9.17,7.46,19.08,8,92.3,2.81,94.62.61c1.9-1.8,26.88-87.2,36-118.43a11.79,11.79,0,0,0-22.61-6.7Z" transform="translate(-39.46 -48.68)"></path><rect class="cls-67" x="85.48" y="565.97" width="6.64" height="97.15"></rect><path class="cls-67" d="M94.68,716.13h66a5.51,5.51,0,0,1,5.51,5.5,1,1,0,0,1-1,1H90.14a1,1,0,0,1-1-1,5.5,5.5,0,0,1,5.5-5.5" transform="translate(-39.46 -48.68)"></path><path class="cls-67" d="M124.42,711.8h8.08a4.33,4.33,0,1,1,0,8.66h-8.08a4.33,4.33,0,1,1,0-8.66" transform="translate(-39.46 -48.68)"></path><path class="cls-67" d="M171,603.46l-4.54-20.74c-3.17-14.5-14.88-25.06-28.47-25.66l-57.53-2.55-1.77-6.43,59.53,2.64c16.16.72,30.09,13.27,33.86,30.52l4.83,22c-1.64.08-3.63.14-5.91.18" transform="translate(-39.46 -48.68)"></path><path class="cls-67" d="M683.68,593.85,685.92,583c3.17-15.38,14.88-26.57,28.47-27.21l58.6-2.71,2.07-6.8-60.9,2.8c-16.16.76-30.09,14.06-33.86,32.35l-2.52,12.18Z" transform="translate(-39.46 -48.68)"></path><path class="cls-69" d="M93.86,593.39s79,1.36,87.28,0,11.8,9,9.34,14.39-9.22,7.5-19.18,8-92.85,2.82-95.19.61c-1.91-1.81-27-87.71-36.18-119.13a11.86,11.86,0,0,1,22.74-6.74Z" transform="translate(-39.46 -48.68)"></path><path class="cls-70" d="M343.49,474.69H277.56a4.29,4.29,0,0,0-4,2.67l-20.3,49.51H216.93a1.84,1.84,0,0,0,0,3.68H320.38a7.23,7.23,0,0,0,6.59-4.26l20.44-45.54a4.3,4.3,0,0,0-3.92-6.06" transform="translate(-39.46 -48.68)"></path><path class="cls-71" d="M308,503.52a3.63,3.63,0,1,1-2.72-4.73,3.87,3.87,0,0,1,2.72,4.73" transform="translate(-39.46 -48.68)"></path><path class="cls-50" d="M566.12,474.69h65.94a4.31,4.31,0,0,1,4,2.67l20.3,49.51h36.35a1.84,1.84,0,0,1,0,3.68H589.23a7.24,7.24,0,0,1-6.59-4.26L562.2,480.75a4.3,4.3,0,0,1,3.92-6.06" transform="translate(-39.46 -48.68)"></path><path class="cls-50" d="M601.62,503.52a3.63,3.63,0,1,0,2.72-4.73,3.88,3.88,0,0,0-2.72,4.73" transform="translate(-39.46 -48.68)"></path><path class="cls-67" d="M206,541.61H694.07a1.62,1.62,0,0,0,1.62-1.62v-7.82a1.62,1.62,0,0,0-1.62-1.62H206a1.62,1.62,0,0,0-1.61,1.62V540a1.62,1.62,0,0,0,1.61,1.62" transform="translate(-39.46 -48.68)"></path><polygon class="cls-67" points="631.71 674.8 639.58 674.8 622.63 492.93 614.76 492.93 631.71 674.8"></polygon><polygon class="cls-67" points="564.86 674.8 557 674.8 573.95 492.93 581.81 492.93 564.86 674.8"></polygon><polygon class="cls-67" points="251.82 674.8 259.69 674.8 242.74 492.93 234.87 492.93 251.82 674.8"></polygon><polygon class="cls-67" points="184.97 674.8 177.1 674.8 194.06 492.93 201.92 492.93 184.97 674.8"></polygon><path class="cls-54" d="M677.67,500.21c-.55-1.59,7.17-2.85,7.59-4.45s-9.74-1.77-10.1-3.18c-.66-2.6,11.14-.51,10.91-1.72s-12.29-4-11-6.06,12.21,4.17,12.54,2.75-10.65-4.89-10.44-8c.11-1.65,18,8.34,20.11,7.44s-2.21-8.7-.55-9.85,6.36,15.86,7.5,16.43,25.35,14.5,34,16.73c1.06-2.89,8.64-18.18,9.58-20.91,4.83,3.46,10.44,4.23,15.43,7.39-3.66,9.06-16.17,31.35-18.7,32.48-7.69,3.45-37.31-21.29-43.22-25.53S692,500.85,688,499.5s-9.76,2.3-10.31.71" transform="translate(-39.46 -48.68)"></path><path class="cls-50" d="M765.54,499.21S776,476,777.61,467s-6.14-20.34-14.24-19.61-20.25,40.84-20.25,40.84Z" transform="translate(-39.46 -48.68)"></path><path class="cls-63" d="M485.4,524.05l49-11.91s17.33-23.24,34-43.29c5.13,4.88,8.09,12.47,13.26,17.3L545,528.5a7.21,7.21,0,0,1-5.26,2.48l-52.17,1.25Z" transform="translate(-39.46 -48.68)"></path><path class="cls-63" d="M452.07,529c-.52-.8.77-2.14,1.74-3.15s7.56-3.92,8.66-4.25,10.55,1,14.17,2.18a13,13,0,0,0,6,.7c.94-.2,2.37-.46,3.48-.69l2.27,8.44c-8.5-.11-17.38.53-18.18.51-2.56-.07-7.23-2.74-8.32-3.13a7.66,7.66,0,0,0-4.76.61c-1.47.69-5.77,2.33-6.49,1.95s1.42-3.17,1.42-3.17" transform="translate(-39.46 -48.68)"></path><path class="cls-63" d="M609.49,424.88l9.78,24.92s-12.79,15.92-22.44,15.28c-8.1-.53-5.08-11.62-5.08-11.62s1-14.68-1.82-21.63,19.56-6.95,19.56-6.95" transform="translate(-39.46 -48.68)"></path><path class="cls-66" d="M608.28,433.33a65,65,0,0,1-16.5,8.85,35.3,35.3,0,0,0-1.85-10.35c-1.31-3.21,2.75-4.93,7.51-5.86,6.32-.84,12-1.09,12-1.09l1.88,4.79a13,13,0,0,1-3.09,3.66" transform="translate(-39.46 -48.68)"></path><path class="cls-63" d="M622.55,390.77c.64-.14.22,30.2-9.2,37.48s-25.65,8.15-30.31,1c-5.15-7.88.22-39.92,14.18-46.92s25.33,8.4,25.33,8.4" transform="translate(-39.46 -48.68)"></path><path class="cls-55" d="M604.54,367a33.89,33.89,0,0,1,16.84,12c4.36,1,10,4,14.71,14.38,5.77,12.78-2,25.31-11.87,30.76s-10,12.82-10,12.82l-2.87-7.28s.91-7.1,3.73-11.17-3.47-7.72-4.79-11.53c-1-2.93-.09-9.27-1.67-14.11,0,0-7.86-7.63-14.16-8.55-10.73-1.58-2.05-21.13,10.09-17.29" transform="translate(-39.46 -48.68)"></path><path class="cls-55" d="M603.9,388.88a11.89,11.89,0,0,1,.76,7.44c-1,3.74-8.56,29-6.36,31.94s15.91,8.63,15.91,8.63l6.17-20.72L614,387.24Z" transform="translate(-39.46 -48.68)"></path><path class="cls-63" d="M591.56,726.44l-6.3-18.05h16.5c.86,11.59,1.18,19.41,1.18,19.41l4.2,11.87,4.26,14.11s-14,3.62-21.4-.45l.82-14Z" transform="translate(-39.46 -48.68)"></path><path class="cls-49" d="M590.82,739.23c6.48,2.89,13.45,1.15,16.25.23L608,742l3.57,11.91s-14.21,3.53-21.57-.54Z" transform="translate(-39.46 -48.68)"></path><path class="cls-63" d="M483.28,723.2s4.59,10.89.77,15.39-19.66,8.94-21.74,11.39a6.82,6.82,0,0,0-1.92,4.52l44.51-1.27-.5-13.4-4.1-20.19Z" transform="translate(-39.46 -48.68)"></path><path class="cls-49" d="M481.29,740.84s11.44,4.6,17,1.87,5.35-3.5,6.95-2.48,2.19,13.58,2.19,13.58l-50.05,1.51c-3.49-.08-5.25-2.63-2.42-4.82a41.45,41.45,0,0,1,5.45-3.24c3.92-2.24,20.92-6.42,20.92-6.42" transform="translate(-39.46 -48.68)"></path><path class="cls-7" d="M563,566.12c-5-1.36-109.29,18.77-117.74,41.78-1.37,3.74,15.28,63,36.65,119.56l22.7-3.48S501.75,666,482.26,626.5c11.51,2.86,73.68-10,85.07-20.11,14.53-12.95.67-38.9-4.32-40.27" transform="translate(-39.46 -48.68)"></path><path class="cls-7" d="M541.92,635.88s32,66,37.13,78,6.6,18.12,6.6,18.12h20.06s-7.74-75.39-20.78-96.17-43,0-43,0" transform="translate(-39.46 -48.68)"></path><path class="cls-72" d="M581.29,446.49l78.82.59c6,0,10.15,4.28,9.21,9.46L639.66,621.05c-.93,5.18-6.57,9.34-12.59,9.3l-78.82-.59c-6,0-10.15-4.28-9.22-9.46L568.7,455.79c.93-5.18,6.57-9.34,12.59-9.3" transform="translate(-39.46 -48.68)"></path><path class="cls-69" d="M495.19,619h58.14l30.89-164.24c.88-4.55,6.48-8.23,12.5-8.23h78.83c6,0,10.18,3.68,9.3,8.23L651.37,632.25c-.88,4.54-6.48,8.22-12.5,8.22H495.19c-7.87,0-14.25-4.81-14.25-10.76S487.32,619,495.19,619" transform="translate(-39.46 -48.68)"></path><rect class="cls-67" x="534.77" y="591.79" width="8.24" height="101.49"></rect><path class="cls-67" d="M620,747.34H538.11a6.83,6.83,0,0,0-6.83,6.83,1.19,1.19,0,0,0,1.19,1.19h93.17a1.19,1.19,0,0,0,1.19-1.19,6.83,6.83,0,0,0-6.83-6.83" transform="translate(-39.46 -48.68)"></path><path class="cls-7" d="M583.11,742h-10a5.37,5.37,0,0,0,0,10.74h10a5.37,5.37,0,1,0,0-10.74" transform="translate(-39.46 -48.68)"></path><path class="cls-63" d="M605.55,410.09c-1.23,3.34-4,5.39-6.23,4.57s-3-4.18-1.77-7.53,4-5.38,6.23-4.57,3,4.19,1.77,7.53" transform="translate(-39.46 -48.68)"></path><path class="cls-73" d="M150.66,468l5-12.22-13.28-.18,8.27,12.4" transform="translate(-39.46 -48.68)"></path><path class="cls-62" d="M141.79,470.93l8.87-15.37-16.83-7.49,8,22.86" transform="translate(-39.46 -48.68)"></path><path class="cls-62" d="M158.78,467.41a61.28,61.28,0,0,0-1.71-10.72,62.37,62.37,0,0,0-1.89-6.06q-2.31,2.47-4.63,4.93l8.23,11.85" transform="translate(-39.46 -48.68)"></path><path class="cls-63" d="M244.74,526.48c.55-.74-.62-2.14-1.5-3.2s-7.13-4.34-8.19-4.75-10.41.26-14,1.18a12.51,12.51,0,0,1-5.92.28c-.92-.25-2.3-.6-3.37-.9l-2.79,8.11c8.33.47,17,1.68,17.77,1.72,2.5.11,7.26-2.19,8.35-2.5a7.53,7.53,0,0,1,4.62.91c1.4.78,5.5,2.68,6.23,2.36s-1.17-3.21-1.17-3.21" transform="translate(-39.46 -48.68)"></path><path class="cls-73" d="M150.66,466.63l-10.11,66.82L151,550.88l9.81-17.43Z" transform="translate(-39.46 -48.68)"></path><path class="cls-63" d="M212.43,519.39,160.3,505.6s-16-18-31-38.79c-5.35,4.43-7.63,16.13-13,20.51l34.41,34.25c1.2,1.59,59,5.69,59,5.69Z" transform="translate(-39.46 -48.68)"></path><path class="cls-62" d="M128.23,504.9s-17.72-22.52-22-31.36.3-22.84,8.89-24.49,33.46,38.73,33.46,38.73Z" transform="translate(-39.46 -48.68)"></path></g></g></g></svg> 