<?xml version="1.0" encoding="UTF-8"?> <svg xmlns="http://www.w3.org/2000/svg" id="Layer_2" data-name="Layer 2" viewBox="0 0 440 450"><defs><style>.cls-1,.cls-8{fill:#808b94;}.cls-1{opacity:0.25;isolation:isolate;}.cls-2,.cls-6{fill:#fff;}.cls-3,.cls-4{fill:#2858a5;}.cls-4,.cls-6{stroke:#00263e;stroke-width:6px;}.cls-11,.cls-4,.cls-6{stroke-miterlimit:10;}.cls-5{opacity:0.55;}.cls-11,.cls-7{fill:none;}.cls-9{fill:#ffe7b2;}.cls-10{fill:#009ca6;}.cls-11{stroke:#009ca6;stroke-width:6.5px;}.cls-12{fill:#ffd069;}</style></defs><rect class="cls-1" width="440" height="450"></rect><circle class="cls-2" cx="228.45" cy="182.57" r="8.66"></circle><circle class="cls-2" cx="255.09" cy="182.57" r="8.66"></circle><circle class="cls-2" cx="281.72" cy="182.57" r="8.66"></circle><path class="cls-2" d="M375,292.27H201.39V154.81H375Zm-163-9.12H364.43V163.93H212Z"></path><rect class="cls-2" x="206.4" y="199.7" width="163.25" height="7.64"></rect><rect class="cls-3" x="238.64" y="237.5" width="2.94" height="31.84"></rect><rect class="cls-3" x="265.09" y="237.5" width="2.94" height="31.84"></rect><rect class="cls-3" x="239.13" y="265.91" width="27.43" height="3.43"></rect><circle class="cls-3" cx="242.9" cy="224.03" r="2.2"></circle><path class="cls-3" d="M253.43,231.6c-3.54,0-6.49-3.32-6.85-7.73l-.11-1.33H260.4l-.12,1.33C259.92,228.28,257,231.6,253.43,231.6ZM249.24,225c.62,2.42,2.3,4.17,4.19,4.17s3.57-1.75,4.19-4.17Z"></path><polygon class="cls-3" points="277.75 239 266.28 227.06 259.58 225.39 260.29 222.54 267.81 224.42 279.87 236.97 277.75 239"></polygon><path class="cls-4" d="M259.86,223.94"></path><path class="cls-4" d="M259.21,223.78"></path><rect class="cls-3" x="233.3" y="239.75" width="7.69" height="3.43" transform="translate(-101.3 241.72) rotate(-45.56)"></rect><rect class="cls-3" x="230.84" y="235.73" width="2.94" height="8.92" transform="translate(-101.82 244.35) rotate(-46.67)"></rect><rect class="cls-3" x="225.23" y="230.39" width="16.98" height="2.94" transform="translate(-95.4 239.88) rotate(-46.17)"></rect><rect class="cls-3" x="267.76" y="237.62" width="3.43" height="7.69" transform="translate(-91.99 257.75) rotate(-44.44)"></rect><rect class="cls-3" x="269.85" y="238.72" width="8.92" height="2.94" transform="translate(-90.05 253.71) rotate(-43.33)"></rect><path class="cls-2" d="M359.07,277.79H217.4v-65H359.07Zm-139.29-2.38H356.7V215.19H219.78Z"></path><g class="cls-5"><rect class="cls-2" x="307.69" y="237.5" width="2.94" height="31.84"></rect><rect class="cls-2" x="334.15" y="237.5" width="2.94" height="31.84"></rect><rect class="cls-2" x="308.18" y="265.91" width="27.43" height="3.43"></rect><circle class="cls-2" cx="311.96" cy="224.03" r="2.2"></circle><path class="cls-2" d="M322.49,231.6c-3.54,0-6.49-3.32-6.86-7.73l-.11-1.33h13.93l-.11,1.33C329,228.28,326,231.6,322.49,231.6ZM318.3,225c.62,2.42,2.3,4.17,4.19,4.17s3.57-1.75,4.19-4.17Z"></path><polygon class="cls-2" points="346.8 239 335.34 227.06 328.64 225.39 329.35 222.54 336.87 224.42 348.92 236.97 346.8 239"></polygon><path class="cls-6" d="M328.92,223.94"></path><path class="cls-6" d="M328.27,223.78"></path><rect class="cls-2" x="302.36" y="239.75" width="7.69" height="3.43" transform="translate(-80.59 291.02) rotate(-45.56)"></rect><rect class="cls-2" x="299.89" y="235.73" width="2.94" height="8.92" transform="translate(-80.15 294.58) rotate(-46.67)"></rect><rect class="cls-2" x="294.28" y="230.39" width="16.98" height="2.94" transform="translate(-74.17 289.69) rotate(-46.17)"></rect><rect class="cls-2" x="336.82" y="237.62" width="3.43" height="7.69" transform="translate(-72.24 306.1) rotate(-44.44)"></rect><rect class="cls-2" x="338.91" y="238.72" width="8.92" height="2.94" transform="translate(-71.22 301.1) rotate(-43.33)"></rect></g><circle class="cls-7" cx="115.86" cy="245.63" r="47.35"></circle><path class="cls-8" d="M118.2,295.19l-.26-6.77a48.57,48.57,0,0,0,12.23-2.34l2.21,6.5A48,48,0,0,1,118.2,295.19Zm-10.15-.52a51.52,51.52,0,0,1-13.78-4.17l2.86-6.24a42.49,42.49,0,0,0,12,3.64Zm33.43-6.38L138,282.44a45.3,45.3,0,0,0,8.45-6.51l1.3-1.3,4.95,4.69a14.83,14.83,0,0,1-1.43,1.43A45.58,45.58,0,0,1,141.48,288.29Zm-55.8-3a49.4,49.4,0,0,1-6.24-5.46,46.46,46.46,0,0,1-4-4.69L80.87,271a33.88,33.88,0,0,0,3.51,4,58.27,58.27,0,0,0,5.33,4.69Zm73.23-13.92-5.85-3.64a45.06,45.06,0,0,0,5.07-11.45l6.63,1.83A50.3,50.3,0,0,1,158.91,271.38ZM70.07,266.7A50.89,50.89,0,0,1,65.65,253l6.76-1.17a42,42,0,0,0,3.78,11.84Zm96.39-18.47-6.77-.52a27.17,27.17,0,0,0,.13-3.25,42.48,42.48,0,0,0-.91-9.11l6.63-1.43a47.72,47.72,0,0,1,1.05,10.54C166.59,245.63,166.59,246.93,166.46,248.23Zm-94.57-5.07L65,242.9a52.29,52.29,0,0,1,2.47-14.18L74,230.8A43.91,43.91,0,0,0,71.89,243.16ZM156.18,227a49.86,49.86,0,0,0-6.5-10.67l5.2-4.42a51.51,51.51,0,0,1,7.54,12.23Zm-78.69-4.16-6-3.39A50,50,0,0,1,80.35,208l.13-.13,4.68,4.94h0A43.49,43.49,0,0,0,77.49,222.87Zm65.94-12.62a44.55,44.55,0,0,0-10.66-6.37l2.6-6.38a47.74,47.74,0,0,1,12.35,7.42Zm-51.38-2.86-3.64-5.73a48.1,48.1,0,0,1,13.14-6l2,6.5A48.85,48.85,0,0,0,92.05,207.39Zm32.39-6.12a44.52,44.52,0,0,0-12.48-.65l-.65-6.76a52.63,52.63,0,0,1,14.3.78Z"></path><rect class="cls-9" x="172.15" y="254.53" width="72.5" height="2.38" transform="matrix(0.99, -0.15, 0.15, 0.99, -35.45, 33.54)"></rect><rect class="cls-9" x="207.42" y="197.21" width="2.38" height="72.65" transform="translate(-60.46 393.73) rotate(-79)"></rect><circle class="cls-10" cx="92.69" cy="220.19" r="2.07"></circle><path class="cls-11" d="M140.05,226"></path><path class="cls-11" d="M92.76,226.16"></path><rect class="cls-10" x="91.51" y="224.06" width="2.37" height="5.72"></rect><rect class="cls-10" x="96.39" y="218.95" width="5.88" height="2.37"></rect><polygon class="cls-10" points="140.54 229.78 138.17 229.78 138.17 221.21 129.84 221.21 129.84 218.84 140.54 218.84 140.54 229.78"></polygon><polygon class="cls-10" points="140.53 268.81 129.59 268.81 129.59 266.44 138.16 266.44 138.16 258.1 140.53 258.1 140.53 268.81"></polygon><polygon class="cls-10" points="102.21 268.84 91.51 268.84 91.51 257.89 93.88 257.89 93.88 266.46 102.21 266.46 102.21 268.84"></polygon><path class="cls-10" d="M115.87,229.25l12.54,7.24V251l-12.54,7.24L103.32,251V236.49l12.55-7.24m0-2.11-14.37,8.3V252l14.37,8.3,14.37-8.3V235.44l-14.37-8.3Z"></path><path class="cls-10" d="M115.75,236.56l6.22,3.6v7.19l-6.22,3.6-6.23-3.6v-7.19l6.23-3.6m0-2.1-8.06,4.65v9.29l8.06,4.65,8-4.65v-9.29l-8-4.65Z"></path><path class="cls-3" d="M253.33,239.83l4.74,2.74V248l-4.74,2.74L248.59,248v-5.47l4.74-2.74m0-.8-5.43,3.14v6.27l5.43,3.13,5.43-3.13v-6.27L253.33,239Z"></path><path class="cls-3" d="M253.28,242.59l2.36,1.36v2.72L253.28,248l-2.35-1.36V244l2.35-1.36m0-.79-3,1.75v3.52l3,1.76,3-1.76v-3.52l-3-1.75Z"></path><path class="cls-12" d="M263.59,256.63H243.07V234.05h20.52Zm-17.75-2.77h15v-17h-15Z"></path></svg> 