<?xml version="1.0" encoding="UTF-8"?> <svg xmlns="http://www.w3.org/2000/svg" xmlns:xlink="http://www.w3.org/1999/xlink" id="Layer_2" data-name="Layer 2" viewBox="0 0 440 450"><defs><style>.cls-1,.cls-10,.cls-11,.cls-12,.cls-13,.cls-17,.cls-32,.cls-33,.cls-34,.cls-36,.cls-38,.cls-40,.cls-6,.cls-9{fill:none;}.cls-2{fill:#808b94;opacity:0.25;isolation:isolate;}.cls-3{clip-path:url(#clip-path);}.cls-4{fill:#d7daef;}.cls-5{fill:#fff;}.cls-40,.cls-6{stroke:#2558a5;}.cls-10,.cls-11,.cls-12,.cls-13,.cls-17,.cls-32,.cls-6,.cls-9{stroke-miterlimit:10;}.cls-32,.cls-6{stroke-width:1.02px;}.cls-7{clip-path:url(#clip-path-4);}.cls-8{fill:#2558a5;}.cls-9{stroke:#bcd99b;}.cls-10,.cls-9{stroke-width:4.09px;}.cls-10{stroke:#c3c8e7;}.cls-11{stroke:#e5bf23;}.cls-11,.cls-12,.cls-13{stroke-width:4.39px;}.cls-12{stroke:#d7daef;}.cls-13,.cls-34{stroke:#1c9ca6;}.cls-14{opacity:0.2;}.cls-15{clip-path:url(#clip-path-5);}.cls-16{clip-path:url(#clip-path-6);}.cls-17,.cls-33{stroke:#d9d9d9;}.cls-17{stroke-width:2.05px;}.cls-18{clip-path:url(#clip-path-7);}.cls-19{clip-path:url(#clip-path-8);}.cls-20{clip-path:url(#clip-path-9);}.cls-21{clip-path:url(#clip-path-11);}.cls-22{opacity:0.5;}.cls-23{clip-path:url(#clip-path-13);}.cls-24{clip-path:url(#clip-path-14);}.cls-25{clip-path:url(#clip-path-15);}.cls-26{clip-path:url(#clip-path-17);}.cls-27{clip-path:url(#clip-path-19);}.cls-28{clip-path:url(#clip-path-20);}.cls-29{clip-path:url(#clip-path-21);}.cls-30{clip-path:url(#clip-path-22);}.cls-31{fill:#808b95;}.cls-32{stroke:#e1e1e1;}.cls-33,.cls-34,.cls-36,.cls-38,.cls-40{stroke-linecap:round;stroke-linejoin:round;stroke-width:3.89px;}.cls-35{fill:#1c9ca6;}.cls-36{stroke:#ffd066;}.cls-37{fill:#ffd066;}.cls-38{stroke:#63b32e;}.cls-39{fill:#63b32e;}.cls-41{opacity:0.49;}.cls-42{clip-path:url(#clip-path-23);}.cls-43{opacity:0.51;}.cls-44{clip-path:url(#clip-path-30);}.cls-45{fill:#c3c8e7;}.cls-46{clip-path:url(#clip-path-33);}.cls-47{clip-path:url(#clip-path-36);}.cls-48{clip-path:url(#clip-path-39);}.cls-49{fill:#bcd99b;}.cls-50{fill:#ffe7b2;}.cls-51{fill:#99a4d4;}.cls-52{fill:#ffd780;}.cls-53{fill:#9ec96e;}.cls-54{fill:#aa6870;}.cls-55{fill:#3d2410;}.cls-56{fill:#7f5058;}.cls-57{fill:#e7f1fd;}.cls-58{fill:#5f9aa8;}.cls-59{fill:#a5c180;}.cls-60{fill:#1f4e93;}.cls-61{fill:#dbb6b2;}.cls-62{fill:#cce1b0;}.cls-63{fill:#efc4bd;}.cls-64{fill:#10273c;}.cls-65{fill:#203243;}.cls-66{fill:#d6a8a3;}.cls-67{fill:#1f4675;}.cls-68{fill:#78797c;}.cls-69{fill:#283846;}.cls-70{fill:#979fa8;}.cls-71{fill:#f2f2f4;}.cls-72{fill:#38434e;}.cls-73{fill:#ebecf7;}</style><clipPath id="clip-path"><rect class="cls-1" x="65" y="55.47" width="310" height="339.06"></rect></clipPath><clipPath id="clip-path-4"><rect class="cls-1" x="65" y="72.25" width="310" height="317.21"></rect></clipPath><clipPath id="clip-path-5"><rect class="cls-1" x="129.74" y="130.89" width="46.64" height="46.64"></rect></clipPath><clipPath id="clip-path-6"><rect class="cls-1" x="129.74" y="130.89" width="46.64" height="46.64"></rect></clipPath><clipPath id="clip-path-7"><rect class="cls-1" x="131.1" y="146.64" width="43.92" height="7.83"></rect></clipPath><clipPath id="clip-path-8"><rect class="cls-1" x="131.1" y="146.64" width="43.92" height="7.83"></rect></clipPath><clipPath id="clip-path-9"><rect class="cls-1" x="139.44" y="153.79" width="27.75" height="19.42"></rect></clipPath><clipPath id="clip-path-11"><rect class="cls-1" x="152.81" y="131.14" width="0.5" height="23.07"></rect></clipPath><clipPath id="clip-path-13"><rect class="cls-1" x="123.63" y="142.94" width="11.74" height="5.32"></rect></clipPath><clipPath id="clip-path-14"><rect class="cls-1" x="123.63" y="142.94" width="11.74" height="5.32"></rect></clipPath><clipPath id="clip-path-15"><rect class="cls-1" x="133.02" y="175.02" width="11.74" height="5.32"></rect></clipPath><clipPath id="clip-path-17"><rect class="cls-1" x="167.5" y="175.02" width="11.74" height="5.32"></rect></clipPath><clipPath id="clip-path-19"><rect class="cls-1" x="176.59" y="143.14" width="11.74" height="5.32"></rect></clipPath><clipPath id="clip-path-20"><rect class="cls-1" x="176.59" y="143.14" width="11.74" height="5.32"></rect></clipPath><clipPath id="clip-path-21"><rect class="cls-1" x="151.68" y="126.08" width="2.95" height="2.91"></rect></clipPath><clipPath id="clip-path-22"><rect class="cls-1" x="151.68" y="126.08" width="2.95" height="2.91"></rect></clipPath><clipPath id="clip-path-23"><rect class="cls-1" x="246.31" y="193.7" width="2.17" height="30.14"></rect></clipPath><clipPath id="clip-path-30"><rect class="cls-1" x="253.8" y="238.46" width="6.52" height="2.22"></rect></clipPath><clipPath id="clip-path-33"><rect class="cls-1" x="268.5" y="238.46" width="6.52" height="2.22"></rect></clipPath><clipPath id="clip-path-36"><rect class="cls-1" x="283.74" y="238.46" width="6.52" height="2.22"></rect></clipPath><clipPath id="clip-path-39"><rect class="cls-1" x="298.7" y="238.46" width="6.52" height="2.22"></rect></clipPath></defs><rect class="cls-2" width="440" height="450"></rect><g class="cls-3"><g class="cls-3"><g class="cls-3"><path class="cls-4" d="M196,179.64a2.4,2.4,0,1,0-2.4-2.4,2.39,2.39,0,0,0,2.4,2.4"></path><path class="cls-4" d="M318.28,221.58a1.84,1.84,0,1,0-1.84-1.83,1.83,1.83,0,0,0,1.84,1.83"></path></g><rect class="cls-5" x="112.98" y="103.28" width="214.07" height="147.98"></rect><rect class="cls-6" x="112.98" y="103.28" width="214.07" height="147.98"></rect><g class="cls-7"><path class="cls-5" d="M327.05,251.27c0-.8,0-58-.1-148l.1.1-214,0h0l.12-.12c0,52.86,0,103.07,0,148l-.11-.11,214.07.11L113,251.38h-.11v-.11c0-44.92,0-95.13,0-148v-.12H113l214.05,0h.09v.1c-.06,90-.09,147.19-.09,148"></path><path class="cls-6" d="M327.05,251.27c0-.8,0-58-.1-148l.1.1-214,0h0l.12-.12c0,52.86,0,103.07,0,148l-.11-.11,214.07.11L113,251.38h-.11v-.11c0-44.92,0-95.13,0-148v-.12H113l214.05,0h.09v.1C327.08,193.31,327.05,250.47,327.05,251.27Z"></path><rect class="cls-8" x="112.98" y="103.28" width="214.07" height="8.59"></rect><path class="cls-5" d="M119.09,107.41a1.32,1.32,0,1,1-1.32-1.32,1.32,1.32,0,0,1,1.32,1.32"></path><path class="cls-5" d="M123.84,107.41a1.32,1.32,0,1,1-1.32-1.32,1.32,1.32,0,0,1,1.32,1.32"></path><path class="cls-5" d="M128.6,107.41a1.32,1.32,0,1,1-1.32-1.32,1.32,1.32,0,0,1,1.32,1.32"></path><path class="cls-9" d="M153.11,133.4a20.72,20.72,0,1,1-20.55,20.72,20.58,20.58,0,0,1,2.37-9.64"></path><path class="cls-10" d="M153.16,136.49a17.79,17.79,0,1,1-17.79,17.79v-1.93"></path><path class="cls-11" d="M153.06,145.55s1.66-.05,2.11.4"></path><path class="cls-12" d="M156.69,142a15.66,15.66,0,0,0-3.11-.93h-.42"></path><path class="cls-13" d="M153.06,139.23a16.48,16.48,0,0,1,11.18,5.26"></path><g class="cls-14"><g class="cls-15"><g class="cls-16"><circle class="cls-17" cx="153.06" cy="154.21" r="23.07" transform="translate(-2.32 2.34) rotate(-0.87)"></circle></g></g></g><g class="cls-14"><g class="cls-18"><g class="cls-19"><polyline class="cls-17" points="131.18 146.87 153.06 154.21 174.94 146.87"></polyline></g></g></g><g class="cls-14"><g class="cls-20"><g class="cls-20"><path class="cls-17" d="M167,172.59l-13.94-18.38S139.66,173,139.69,173"></path></g></g></g><g class="cls-14"><g class="cls-21"><g class="cls-21"><line class="cls-17" x1="153.06" y1="131.14" x2="153.06" y2="154.21"></line></g></g></g><g class="cls-22"><g class="cls-23"><g class="cls-24"><path class="cls-8" d="M124.35,144.55h-.65v-.17l.69-1.07h.21v1h.21v.22h-.21v.25h-.25Zm0-.21v-.6l-.37.6Z"></path><path class="cls-8" d="M125.18,144.54h.26l-.15.55h-.18Z"></path><path class="cls-8" d="M126,144.06c0-.45.21-.76.57-.76s.57.27.57.76-.21.76-.57.76S126,144.54,126,144.06Zm.88,0c0-.33-.12-.53-.31-.53s-.32.2-.32.53.13.53.32.53S126.87,144.39,126.87,144.06Z"></path><path class="cls-8" d="M127.57,144.06c0-.45.22-.76.57-.76s.57.27.57.76-.21.76-.57.76S127.57,144.54,127.57,144.06Zm.89,0c0-.33-.12-.53-.32-.53s-.31.2-.31.53.12.53.31.53S128.46,144.39,128.46,144.06Z"></path><path class="cls-8" d="M128.83,144.06c0-.45.21-.76.57-.76s.57.27.57.76-.21.76-.57.76S128.83,144.54,128.83,144.06Zm.89,0c0-.33-.12-.53-.32-.53s-.31.2-.31.53.12.53.31.53S129.72,144.39,129.72,144.06Z"></path></g></g></g><g class="cls-22"><g class="cls-25"><g class="cls-25"><path class="cls-8" d="M133.08,176.59l.22-.1a.29.29,0,0,0,.29.18.24.24,0,0,0,.26-.22c0-.12-.1-.22-.28-.22h-.11V176h.13c.16,0,.22-.09.22-.19a.21.21,0,0,0-.22-.21.28.28,0,0,0-.25.13l-.2-.1a.49.49,0,0,1,.45-.26.42.42,0,0,1,.47.4.37.37,0,0,1-.19.33h0a.38.38,0,0,1,.23.36.44.44,0,0,1-.49.42A.55.55,0,0,1,133.08,176.59Z"></path><path class="cls-8" d="M134.57,176.62h.26l-.15.55h-.17Z"></path><path class="cls-8" d="M135.38,176.14c0-.45.21-.76.57-.76s.57.28.57.76-.21.76-.57.76S135.38,176.63,135.38,176.14Zm.89,0c0-.33-.12-.53-.32-.53s-.31.2-.31.53.12.53.31.53S136.27,176.47,136.27,176.14Z"></path><path class="cls-8" d="M137,176.14c0-.45.22-.76.58-.76s.57.28.57.76-.21.76-.57.76S137,176.63,137,176.14Zm.89,0c0-.33-.12-.53-.31-.53s-.32.2-.32.53.13.53.32.53S137.85,176.47,137.85,176.14Z"></path><path class="cls-8" d="M138.22,176.14c0-.45.22-.76.58-.76s.57.28.57.76-.21.76-.57.76S138.22,176.63,138.22,176.14Zm.89,0c0-.33-.12-.53-.31-.53s-.32.2-.32.53.13.53.32.53S139.11,176.47,139.11,176.14Z"></path></g></g></g><g class="cls-22"><g class="cls-26"><g class="cls-26"><path class="cls-8" d="M167.59,176.72l.47-.51a.53.53,0,0,0,.22-.36.23.23,0,0,0-.23-.23.34.34,0,0,0-.29.17l-.18-.12a.53.53,0,0,1,.48-.29.44.44,0,0,1,.47.44.67.67,0,0,1-.25.5l-.31.33h.58v.23h-1Z"></path><path class="cls-8" d="M169.05,176.62h.26l-.15.55H169Z"></path><path class="cls-8" d="M169.85,176.14c0-.45.22-.76.58-.76s.57.28.57.76-.21.76-.57.76S169.85,176.63,169.85,176.14Zm.89,0c0-.33-.12-.53-.31-.53s-.32.2-.32.53.13.53.32.53S170.74,176.47,170.74,176.14Z"></path><path class="cls-8" d="M171.44,176.14c0-.45.21-.76.57-.76s.57.28.57.76-.21.76-.57.76S171.44,176.63,171.44,176.14Zm.89,0c0-.33-.12-.53-.32-.53s-.31.2-.31.53.12.53.31.53S172.33,176.47,172.33,176.14Z"></path><path class="cls-8" d="M172.7,176.14c0-.45.21-.76.57-.76s.57.28.57.76-.21.76-.57.76S172.7,176.63,172.7,176.14Zm.89,0c0-.33-.12-.53-.32-.53s-.32.2-.32.53.13.53.32.53S173.59,176.47,173.59,176.14Z"></path></g></g></g><g class="cls-22"><g class="cls-27"><g class="cls-28"><path class="cls-8" d="M177,143.81l-.27.21-.12-.19.44-.32h.2V145H177Z"></path><path class="cls-8" d="M178.14,144.74h.26l-.15.55h-.18Z"></path><path class="cls-8" d="M179,144.26c0-.45.21-.76.57-.76s.57.27.57.76-.21.76-.57.76S179,144.74,179,144.26Zm.88,0c0-.33-.12-.53-.31-.53s-.32.2-.32.53.13.52.32.52S179.83,144.59,179.83,144.26Z"></path><path class="cls-8" d="M180.53,144.26c0-.45.22-.76.57-.76s.58.27.58.76-.22.76-.58.76S180.53,144.74,180.53,144.26Zm.89,0c0-.33-.12-.53-.32-.53s-.31.2-.31.53.12.52.31.52S181.42,144.59,181.42,144.26Z"></path><path class="cls-8" d="M181.79,144.26c0-.45.22-.76.57-.76s.58.27.58.76-.22.76-.58.76S181.79,144.74,181.79,144.26Zm.89,0c0-.33-.12-.53-.32-.53s-.31.2-.31.53.12.52.31.52S182.68,144.59,182.68,144.26Z"></path></g></g></g><g class="cls-22"><g class="cls-29"><g class="cls-30"><path class="cls-8" d="M152.67,127.2c0-.45.21-.76.57-.76s.57.28.57.76-.21.76-.57.76S152.67,127.69,152.67,127.2Zm.89,0c0-.33-.12-.53-.32-.53s-.32.2-.32.53.13.53.32.53S153.56,127.53,153.56,127.2Z"></path></g></g></g><path class="cls-31" d="M153.16,131.14v1.34s4.93-.32,8,1.34v-1.34a28.73,28.73,0,0,0-8-1.34"></path><rect class="cls-32" x="122.03" y="124.22" width="66.3" height="58.28"></rect><rect class="cls-32" x="122.03" y="188.17" width="107.79" height="55.03"></rect><rect class="cls-32" x="192.28" y="124.22" width="68.26" height="58.28"></rect><rect class="cls-32" x="264.89" y="124.22" width="53.03" height="58.28"></rect><rect class="cls-32" x="234.02" y="188.17" width="83.9" height="55.03"></rect><line class="cls-33" x1="125.8" y1="226.79" x2="226.05" y2="226.79"></line><line class="cls-34" x1="125.8" y1="226.79" x2="139.07" y2="226.79"></line><path class="cls-35" d="M140.18,226.79a1.11,1.11,0,1,1-1.11-1.11,1.11,1.11,0,0,1,1.11,1.11"></path><line class="cls-33" x1="125.8" y1="219.39" x2="226.05" y2="219.39"></line><line class="cls-36" x1="125.8" y1="219.39" x2="192.73" y2="219.39"></line><path class="cls-37" d="M193.84,219.39a1.11,1.11,0,1,1-1.11-1.11,1.11,1.11,0,0,1,1.11,1.11"></path><line class="cls-33" x1="125.8" y1="211.99" x2="226.05" y2="211.99"></line><line class="cls-38" x1="125.8" y1="211.99" x2="179.36" y2="211.99"></line><path class="cls-39" d="M180.47,212a1.11,1.11,0,1,1-1.11-1.11,1.11,1.11,0,0,1,1.11,1.11"></path><line class="cls-33" x1="125.8" y1="204.59" x2="226.05" y2="204.59"></line><line class="cls-40" x1="125.8" y1="204.59" x2="158.91" y2="204.59"></line><path class="cls-8" d="M159.81,204.59a1.11,1.11,0,1,1-1.11-1.11,1.11,1.11,0,0,1,1.11,1.11"></path><g class="cls-41"><g class="cls-42"><g class="cls-42"><path class="cls-8" d="M246.64,222.14l-.21.16-.09-.14.33-.24h.16v1.13h-.19Z"></path><path class="cls-8" d="M247.48,222.48c0-.34.17-.58.44-.58s.43.21.43.58-.16.58-.43.58S247.48,222.85,247.48,222.48Zm.68,0c0-.25-.09-.4-.24-.4s-.24.15-.24.4.09.4.24.4S248.16,222.73,248.16,222.48Z"></path><path class="cls-8" d="M246.38,217.33l.36-.39a.43.43,0,0,0,.16-.27.17.17,0,0,0-.17-.18.24.24,0,0,0-.22.13l-.13-.09a.37.37,0,0,1,.36-.22.34.34,0,0,1,.36.33.55.55,0,0,1-.19.39l-.24.24h.44v.17h-.73Z"></path></g><path class="cls-8" d="M247.48,216.89c0-.35.17-.58.44-.58s.43.21.43.58-.16.58-.43.58S247.48,217.26,247.48,216.89Zm.68,0c0-.26-.09-.4-.24-.4s-.24.14-.24.4.09.4.24.4S248.16,217.14,248.16,216.89Z"></path><g class="cls-42"><path class="cls-8" d="M246.36,211.63l.16-.07a.23.23,0,0,0,.22.13c.11,0,.2-.06.2-.16s-.07-.17-.21-.17h-.09v-.16h.1a.15.15,0,0,0,.17-.16.16.16,0,0,0-.17-.15.21.21,0,0,0-.19.1l-.15-.08a.36.36,0,0,1,.34-.19c.2,0,.36.1.36.3a.26.26,0,0,1-.15.25h0a.3.3,0,0,1,.18.28.33.33,0,0,1-.37.32A.41.41,0,0,1,246.36,211.63Z"></path></g><path class="cls-8" d="M247.48,211.29c0-.34.17-.57.44-.57s.43.2.43.57-.16.58-.43.58S247.48,211.66,247.48,211.29Zm.68,0c0-.25-.09-.4-.24-.4s-.24.15-.24.4.09.4.24.4S248.16,211.55,248.16,211.29Z"></path><g class="cls-42"><path class="cls-8" d="M246.86,206.07h-.49v-.13l.52-.81h.16v.77h.16v.17h-.16v.19h-.19Zm0-.16v-.46l-.28.46Z"></path></g><path class="cls-8" d="M247.48,205.7c0-.34.17-.58.44-.58s.43.21.43.58-.16.58-.43.58S247.48,206.07,247.48,205.7Zm.68,0c0-.25-.09-.4-.24-.4s-.24.15-.24.4.09.4.24.4S248.16,206,248.16,205.7Z"></path><g class="cls-42"><path class="cls-8" d="M247.16,200.35a.37.37,0,0,1-.4.38.47.47,0,0,1-.39-.18l.14-.11a.27.27,0,0,0,.23.11.2.2,0,0,0,.22-.2.2.2,0,0,0-.22-.19.27.27,0,0,0-.18.05l-.1,0,0-.6h.61v.18h-.43l0,.25.15,0A.35.35,0,0,1,247.16,200.35Z"></path></g><path class="cls-8" d="M247.48,200.15c0-.34.17-.58.44-.58s.43.21.43.58-.16.58-.43.58S247.48,200.52,247.48,200.15Zm.68,0c0-.25-.09-.4-.24-.4s-.24.15-.24.4.09.4.24.4S248.16,200.4,248.16,200.15Z"></path><g class="cls-42"><path class="cls-8" d="M247.2,194.76a.38.38,0,0,1-.4.38.41.41,0,0,1-.4-.46A.73.73,0,0,1,247,194l.07.16a.58.58,0,0,0-.43.35h0a.4.4,0,0,1,.22-.06A.33.33,0,0,1,247.2,194.76Zm-.19,0a.19.19,0,0,0-.2-.19.31.31,0,0,0-.23.12h0a.25.25,0,0,0,.23.26A.19.19,0,0,0,247,194.76Z"></path><path class="cls-8" d="M247.48,194.56c0-.35.17-.58.44-.58s.43.21.43.58-.16.58-.43.58S247.48,194.92,247.48,194.56Zm.68,0c0-.26-.09-.41-.24-.41s-.24.15-.24.41.09.4.24.4S248.16,194.81,248.16,194.56Z"></path></g></g></g><line class="cls-32" x1="263.72" y1="230.06" x2="263.72" y2="192.59"></line><line class="cls-32" x1="246.97" y1="230.06" x2="306.47" y2="230.06"></line><line class="cls-32" x1="279.02" y1="230.06" x2="279.02" y2="192.59"></line><line class="cls-32" x1="294.33" y1="230.06" x2="294.33" y2="192.59"></line></g><path class="cls-39" d="M256,226h.25l.58,1.53h-.27l-.12-.33h-.63l-.11.33h-.28Zm.36,1-.23-.67h0l-.24.67Z"></path><g class="cls-7"><path class="cls-39" d="M254.49,223.26a.39.39,0,0,1-.42-.36V194.12a.39.39,0,0,1,.42-.36.39.39,0,0,1,.42.36V222.9a.39.39,0,0,1-.42.36"></path><path class="cls-39" d="M252.83,223.26a.39.39,0,0,1-.42-.36V208.41a.42.42,0,0,1,.84,0V222.9a.39.39,0,0,1-.42.36"></path><path class="cls-39" d="M259.8,223.26a.4.4,0,0,1-.43-.36V208.41a.43.43,0,0,1,.85,0V222.9a.39.39,0,0,1-.42.36"></path><path class="cls-39" d="M256.28,223.26a.39.39,0,0,1-.42-.36V197.59a.42.42,0,0,1,.84,0V222.9a.39.39,0,0,1-.42.36"></path><path class="cls-39" d="M258.09,223.26a.39.39,0,0,1-.42-.36V202.18a.42.42,0,0,1,.84,0V222.9a.39.39,0,0,1-.42.36"></path><path class="cls-39" d="M257.78,234.94a1.5,1.5,0,1,1-1.5-1.5,1.5,1.5,0,0,1,1.5,1.5"></path><g class="cls-43"><g class="cls-44"><g class="cls-44"><path class="cls-8" d="M254.35,239.7h-.49v-.13l.52-.82h.16v.78h.16v.17h-.16v.19h-.19Zm0-.17v-.45l-.28.45Z"></path><path class="cls-8" d="M255.77,239.52a.37.37,0,0,1-.4.38.47.47,0,0,1-.39-.18l.14-.11a.27.27,0,0,0,.23.11.2.2,0,0,0,.22-.2.21.21,0,0,0-.22-.2.28.28,0,0,0-.18.06l-.1,0,0-.6h.61v.18h-.43l0,.25.15,0A.35.35,0,0,1,255.77,239.52Z"></path><path class="cls-8" d="M256,239a.33.33,0,0,1,.34-.33.33.33,0,1,1,0,.66A.33.33,0,0,1,256,239Zm.51,0a.17.17,0,1,0-.34,0,.17.17,0,0,0,.17.19A.18.18,0,0,0,256.55,239Zm-.07.83.52-1.17.15.07-.52,1.16Zm.44-.29a.31.31,0,0,1,.33-.32.33.33,0,1,1-.33.32Zm.51,0a.17.17,0,0,0-.18-.18.17.17,0,0,0-.17.18.17.17,0,0,0,.17.19A.18.18,0,0,0,257.43,239.57Z"></path><polygon class="cls-8" points="260.32 239.14 258.96 239.14 259.64 238.46 260.32 239.14"></polygon></g></g></g></g><path class="cls-45" d="M270.87,226h.53c.32,0,.5.12.5.37a.37.37,0,0,1-.22.35h0a.37.37,0,0,1,.3.39c0,.25-.16.42-.5.42h-.61Zm.51.63c.15,0,.26-.06.26-.2s-.09-.2-.26-.2h-.25v.4Zm.06.67c.17,0,.27-.07.27-.22s-.1-.22-.31-.22h-.27v.44Z"></path><g class="cls-7"><path class="cls-45" d="M269.63,223.26a.39.39,0,0,1-.42-.36V202.23a.39.39,0,0,1,.42-.36.39.39,0,0,1,.42.36V222.9a.39.39,0,0,1-.42.36"></path><path class="cls-45" d="M268,223.26a.39.39,0,0,1-.42-.36V205.7a.42.42,0,0,1,.84,0v17.2a.39.39,0,0,1-.42.36"></path><path class="cls-45" d="M274.94,223.26a.39.39,0,0,1-.42-.36v-9.08a.39.39,0,0,1,.42-.36.39.39,0,0,1,.42.36v9.08a.39.39,0,0,1-.42.36"></path><path class="cls-45" d="M271.42,223.26a.39.39,0,0,1-.42-.36V193.53a.42.42,0,0,1,.84,0V222.9a.39.39,0,0,1-.42.36"></path><path class="cls-45" d="M273.23,223.26a.39.39,0,0,1-.42-.36V195.42a.42.42,0,0,1,.84,0V222.9a.39.39,0,0,1-.42.36"></path><path class="cls-45" d="M272.65,234.94a1.5,1.5,0,1,1-1.5-1.5,1.5,1.5,0,0,1,1.5,1.5"></path><g class="cls-43"><g class="cls-46"><g class="cls-46"><path class="cls-8" d="M269.05,239.7h-.5v-.13l.53-.82h.16v.78h.15v.17h-.15v.19h-.19Zm0-.17v-.45l-.28.45Z"></path><path class="cls-8" d="M270.46,239.52a.37.37,0,0,1-.4.38.46.46,0,0,1-.38-.18l.14-.11a.26.26,0,0,0,.23.11.2.2,0,0,0,.22-.2.21.21,0,0,0-.22-.2.28.28,0,0,0-.18.06l-.11,0,0-.6h.62v.18H270v.25l.15,0A.34.34,0,0,1,270.46,239.52Z"></path><path class="cls-8" d="M270.74,239a.34.34,0,1,1,.33.33A.32.32,0,0,1,270.74,239Zm.51,0a.17.17,0,0,0-.18-.18.17.17,0,0,0-.17.18.18.18,0,1,0,.35,0Zm-.07.83.52-1.17.15.07-.52,1.16Zm.43-.29a.34.34,0,1,1,.34.33A.32.32,0,0,1,271.61,239.57Zm.51,0a.17.17,0,0,0-.17-.18.17.17,0,0,0-.18.18.18.18,0,0,0,.18.19A.17.17,0,0,0,272.12,239.57Z"></path><polygon class="cls-8" points="275.02 239.14 273.66 239.14 274.34 238.46 275.02 239.14"></polygon></g></g></g></g><path class="cls-37" d="M285.9,226.76a.74.74,0,0,1,.77-.79.79.79,0,0,1,.61.29l-.2.16a.5.5,0,0,0-.91.34.5.5,0,0,0,.5.53.54.54,0,0,0,.42-.21l.19.17a.76.76,0,0,1-.61.29A.74.74,0,0,1,285.9,226.76Z"></path><g class="cls-7"><path class="cls-37" d="M284.78,223.26a.4.4,0,0,1-.43-.36V210.35a.43.43,0,0,1,.85,0V222.9a.39.39,0,0,1-.42.36"></path><path class="cls-37" d="M283.11,223.26a.39.39,0,0,1-.42-.36V201.64a.42.42,0,0,1,.84,0V222.9a.39.39,0,0,1-.42.36"></path><path class="cls-37" d="M290.08,223.26a.39.39,0,0,1-.42-.36V198.67a.39.39,0,0,1,.42-.36.39.39,0,0,1,.42.36V222.9a.39.39,0,0,1-.42.36"></path><path class="cls-37" d="M286.56,223.26a.39.39,0,0,1-.42-.36V208.41a.43.43,0,0,1,.84,0V222.9a.39.39,0,0,1-.42.36"></path><path class="cls-37" d="M288.37,223.26a.39.39,0,0,1-.42-.36v-18a.39.39,0,0,1,.42-.36.39.39,0,0,1,.42.36v18a.39.39,0,0,1-.42.36"></path><path class="cls-37" d="M288.06,234.94a1.5,1.5,0,1,1-1.5-1.5,1.5,1.5,0,0,1,1.5,1.5"></path><g class="cls-43"><g class="cls-47"><g class="cls-47"><path class="cls-8" d="M284.28,239.7h-.49v-.13l.52-.82h.16v.78h.16v.17h-.16v.19h-.19Zm0-.17v-.45l-.28.45Z"></path><path class="cls-8" d="M285.7,239.52a.37.37,0,0,1-.4.38.45.45,0,0,1-.38-.18l.13-.11a.27.27,0,0,0,.23.11.2.2,0,0,0,.23-.2.21.21,0,0,0-.22-.2.33.33,0,0,0-.19.06l-.1,0,0-.6h.61v.18h-.43v.25l.14,0A.35.35,0,0,1,285.7,239.52Z"></path><path class="cls-8" d="M286,239a.33.33,0,1,1,.33.33A.32.32,0,0,1,286,239Zm.51,0a.17.17,0,0,0-.18-.18.17.17,0,0,0-.17.18.18.18,0,1,0,.35,0Zm-.07.83.51-1.17.15.07-.51,1.16Zm.43-.29a.34.34,0,0,1,.67,0,.33.33,0,0,1-.34.33A.32.32,0,0,1,286.85,239.57Zm.51,0a.17.17,0,0,0-.18-.18.17.17,0,0,0-.17.18.18.18,0,0,0,.17.19A.18.18,0,0,0,287.36,239.57Z"></path><polygon class="cls-8" points="288.9 238.46 290.26 238.46 289.58 239.14 288.9 238.46"></polygon></g></g></g></g><path class="cls-35" d="M301.05,226h.49a.74.74,0,0,1,.8.77.73.73,0,0,1-.8.76h-.49Zm.48,1.3a.52.52,0,0,0,.54-.53.51.51,0,0,0-.53-.54h-.23v1.07Z"></path><g class="cls-7"><path class="cls-35" d="M299.92,223.26a.39.39,0,0,1-.42-.36V194.12a.39.39,0,0,1,.42-.36.39.39,0,0,1,.42.36V222.9a.39.39,0,0,1-.42.36"></path><path class="cls-35" d="M298.25,223.26a.39.39,0,0,1-.42-.36V197.58a.43.43,0,0,1,.84,0V222.9a.39.39,0,0,1-.42.36"></path><path class="cls-35" d="M305.22,223.26a.39.39,0,0,1-.42-.36V203a.43.43,0,0,1,.84,0V222.9a.39.39,0,0,1-.42.36"></path><path class="cls-35" d="M301.7,223.26a.39.39,0,0,1-.42-.36v-9.08a.39.39,0,0,1,.42-.36.39.39,0,0,1,.42.36v9.08a.39.39,0,0,1-.42.36"></path><path class="cls-35" d="M303.51,223.26a.39.39,0,0,1-.42-.36V207.59a.4.4,0,0,1,.42-.36.39.39,0,0,1,.42.36V222.9a.39.39,0,0,1-.42.36"></path><path class="cls-35" d="M303.2,234.94a1.5,1.5,0,1,1-1.5-1.5,1.5,1.5,0,0,1,1.5,1.5"></path><g class="cls-43"><g class="cls-48"><g class="cls-48"><path class="cls-8" d="M299.25,239.7h-.49v-.13l.52-.82h.16v.78h.16v.17h-.16v.19h-.19Zm0-.17v-.45l-.28.45Z"></path><path class="cls-8" d="M300.67,239.52a.37.37,0,0,1-.4.38.47.47,0,0,1-.39-.18l.14-.11a.27.27,0,0,0,.23.11.2.2,0,0,0,.22-.2.21.21,0,0,0-.22-.2.28.28,0,0,0-.18.06l-.1,0,0-.6h.61v.18h-.43l0,.25.15,0A.35.35,0,0,1,300.67,239.52Z"></path><path class="cls-8" d="M301,239a.33.33,0,1,1,.33.33A.32.32,0,0,1,301,239Zm.5,0a.17.17,0,1,0-.34,0,.17.17,0,0,0,.17.19A.18.18,0,0,0,301.45,239Zm-.07.83.52-1.17.15.07-.52,1.16Zm.44-.29a.31.31,0,0,1,.33-.32.33.33,0,1,1-.33.32Zm.51,0a.17.17,0,0,0-.18-.18.17.17,0,0,0-.17.18.17.17,0,0,0,.17.19A.18.18,0,0,0,302.33,239.57Z"></path><polygon class="cls-8" points="305.23 239.14 303.86 239.14 304.54 238.46 305.23 239.14"></polygon></g></g></g><rect class="cls-45" x="196.32" y="151.01" width="1.71" height="18.87"></rect><rect class="cls-49" x="199.74" y="148.39" width="1.71" height="21.49"></rect><rect class="cls-45" x="203.16" y="150.09" width="1.71" height="19.78"></rect><rect class="cls-49" x="206.58" y="146.57" width="1.71" height="23.31"></rect><rect class="cls-45" x="209.99" y="143.37" width="1.71" height="26.5"></rect><rect class="cls-49" x="213.41" y="142.21" width="1.71" height="27.67"></rect><rect class="cls-45" x="217.6" y="151.01" width="1.71" height="18.87"></rect><rect class="cls-49" x="221.02" y="148.39" width="1.71" height="21.49"></rect><rect class="cls-45" x="224.43" y="150.09" width="1.71" height="19.78"></rect><rect class="cls-49" x="227.85" y="146.57" width="1.71" height="23.31"></rect><rect class="cls-45" x="231.27" y="143.37" width="1.71" height="26.5"></rect><rect class="cls-49" x="234.69" y="142.28" width="1.71" height="27.6"></rect><rect class="cls-45" x="238.88" y="151.01" width="1.71" height="18.87"></rect><rect class="cls-49" x="242.29" y="148.39" width="1.71" height="21.49"></rect><rect class="cls-45" x="245.71" y="150.09" width="1.71" height="19.78"></rect><rect class="cls-49" x="249.13" y="146.57" width="1.71" height="23.31"></rect><rect class="cls-45" x="252.54" y="143.37" width="1.71" height="26.5"></rect><rect class="cls-49" x="255.96" y="140.07" width="1.71" height="29.81"></rect><rect class="cls-50" x="216.94" y="137.41" width="0.38" height="10.96" transform="translate(-40.88 111.38) rotate(-26.39)"></rect><rect class="cls-50" x="237.34" y="138.19" width="0.38" height="10.96" transform="translate(-36.55 99.59) rotate(-22.03)"></rect><path class="cls-50" d="M243.21,145l-4,3.59.26.28,4-3.63a1.76,1.76,0,0,1-.3-.24"></path><path class="cls-50" d="M214.27,138.5a.17.17,0,0,0-.25,0l-10.1,8.71-3.06-2.36a.2.2,0,0,0-.15,0,.15.15,0,0,0-.12.08l-3.49,3v.59a.19.19,0,0,0,.12-.09l3.57-3.12,3,2.33a.18.18,0,0,0,.23,0l10.21-8.8a.18.18,0,0,0,0-.26"></path><path class="cls-50" d="M197.57,147.69a.74.74,0,0,1-1,1.05.74.74,0,0,1,1-1.05"></path><path class="cls-50" d="M201.5,145a.72.72,0,1,1-.72-.72.72.72,0,0,1,.72.72"></path><path class="cls-50" d="M204.78,147.5a.72.72,0,1,1-.72-.72.72.72,0,0,1,.72.72"></path><path class="cls-50" d="M215.28,138.12a.72.72,0,1,1-.72-.72.72.72,0,0,1,.72.72"></path><path class="cls-50" d="M235.55,138.5a.18.18,0,0,0-.26,0l-10.09,8.71-3.07-2.36a.2.2,0,0,0-.27,0L219.38,147v.58a.15.15,0,0,0,.11-.08l2.58-2.23,3,2.33a.18.18,0,0,0,.23,0l10.21-8.8a.18.18,0,0,0,0-.26"></path><path class="cls-50" d="M219.88,146.92a.75.75,0,0,1-1,1.06.75.75,0,0,1,1-1.06"></path><path class="cls-50" d="M222.78,145a.72.72,0,1,1-.72-.72.72.72,0,0,1,.72.72"></path><path class="cls-50" d="M226.05,147.5a.72.72,0,1,1-.71-.72.71.71,0,0,1,.71.72"></path><path class="cls-50" d="M236.13,138.62a.72.72,0,1,1-.71-.72.72.72,0,0,1,.71.72"></path><path class="cls-50" d="M256.83,138.5a.18.18,0,0,0-.26,0l-10.1,8.71-3.06-2.36a.18.18,0,0,0-.14,0h0c0,.13,0,.26-.05.39s0,.08.07.13l.08-.08,3,2.33a.18.18,0,0,0,.23,0l10.21-8.8a.19.19,0,0,0,0-.26"></path><path class="cls-50" d="M244.05,145a.72.72,0,1,1-.71-.72.71.71,0,0,1,.71.72"></path><path class="cls-50" d="M240.31,148.49a.72.72,0,1,1-.72-.71.72.72,0,0,1,.72.71"></path><path class="cls-50" d="M247.33,147.5a.72.72,0,1,1-.72-.72.72.72,0,0,1,.72.72"></path><path class="cls-50" d="M257.41,138.62a.72.72,0,1,1-.72-.72.72.72,0,0,1,.72.72"></path><path class="cls-45" d="M274.23,130.89A10.45,10.45,0,1,1,269.74,145a10.45,10.45,0,0,1,4.49-14.07"></path><path class="cls-51" d="M279,140.18l4.92-9.17a9.13,9.13,0,0,1,2,1.34,9.5,9.5,0,0,1,2.34,3L279,140.18"></path><path class="cls-50" d="M309.47,131.7a10.45,10.45,0,1,1-14.4,3.32,10.45,10.45,0,0,1,14.4-3.32"></path><path class="cls-52" d="M303.93,140.56l5.54-8.86a10.64,10.64,0,0,1,4.47,5.85,10.89,10.89,0,0,1-1.14,8.54l-8.87-5.53"></path><path class="cls-49" d="M300.53,167.07a10.45,10.45,0,1,1-10.45-10.45,10.45,10.45,0,0,1,10.45,10.45"></path><path class="cls-53" d="M290.08,167.07l9,5.24a10.18,10.18,0,0,1-9,5.21Z"></path><polygon class="cls-54" points="195.13 345.99 197.51 356.04 201.09 356.02 201.22 345.99 195.13 345.99"></polygon><polygon class="cls-54" points="225.19 346.42 231.99 356.04 234.63 352.64 230.54 345.09 225.19 346.42"></polygon><path class="cls-55" d="M207.54,213.91a7,7,0,0,0-3.75-.72,1.79,1.79,0,0,1,.79-.37,5.7,5.7,0,0,0-2.07.54c-8.92-3.44-10.32,9.7-10.14,12.75s-3,4-7.64,6.45c-8.85,4.59-9.63,10.73-9.63,10.73l.22.14c.44-.74,1.34-2.14,2.1-2.35,0,.07-.9,1.92-1.22,3,2.61,2,7.5,6.39,10.9,9.51a5,5,0,0,1,.24-1.93l.42,2.53c1.82,1.68,3.08,2.86,3.08,2.86-.23-2.47,11.15-15.48,17.09-19.38,1.44-2.13,2-5.89,2-6.18a16.07,16.07,0,0,1-1.22,5.59c5-4.63,2.1-21.3-1.17-23.16"></path><path class="cls-54" d="M207.58,237.85s-2.87,1.52-5.05.92-3.39-3.21-3.36-3.22c.87-.17,1.12-1.36,1.1-6.49l.39.08,6.6,1.31s-.15,2.07-.15,4c0,1.64.09,3.2.47,3.37"></path><path class="cls-55" d="M200.12,216.06a5.27,5.27,0,0,1,7.34-.18,28.62,28.62,0,0,0-7.34.18"></path><path class="cls-56" d="M207.26,230.45s-.15,2.07-.15,4c-3.69-.11-5.65-3.47-6.45-5.34Z"></path><path class="cls-55" d="M200,228.42a19.6,19.6,0,0,1-2.4-5.67c-.33-1.87.62-8.78,7.57-7.79a9.48,9.48,0,0,1,3.92,1.48c1.51,1,3.69,3.22,1.25,9.26l-.63,2Z"></path><path class="cls-49" d="M233.55,350l-3.49.11-3.79.11a74.65,74.65,0,0,1-13.64-25.33c-.12-.37-.24-.73-.37-1.1-2.68-7.83-8.24-17.65-11.18-26.54-.46-1.42-.88-2.75-1.26-4-.12-.4-.24-.8-.35-1.19a94.41,94.41,0,0,1-3.36-17.7l21.17.17A395,395,0,0,0,233.55,350"></path><path class="cls-57" d="M214.32,262.34c-.06,10.08,1.48,14.4,1.48,14.4A28.45,28.45,0,0,1,196,278c-.13,0-8.92-2-8.92-2,.18-.41,1.78-7.2,2-7.57,2.28-4.89,4-7,4.28-8.53a32,32,0,0,0,.26-8.44,68,68,0,0,0-2.61-13.26,70.64,70.64,0,0,0,8.81-3,6.6,6.6,0,0,0,4.64,1.71c2.15,0,2.82-1,2.74-2,2.29,1.27,4.1,2.48,4.1,2.48,1.95,3.38,5.89,6.65,6.18,11.83.07,1.28-3.07,12.85-3.07,13.13"></path><path class="cls-58" d="M196.11,263.47c-.93,1.31-2.7,9.27-7.12,10.27,2.28-5.68,4-8.16,4.28-9.91a43,43,0,0,0,.26-9.8c1.48-2.59,2.58-4.37,2.58-4.37.12-.42,2.35-7.32,3.06-1.15s-2,13.49-3.06,15"></path><path class="cls-54" d="M208.49,232.3s-8.73.14-8.74-5.3-1.13-9.09,4.44-9.41,6.66,1.76,7.11,3.57-.53,11-2.81,11.14"></path><path class="cls-55" d="M211,218.14c-1.35-1.64-2.37-1.28-2.94-.79-1.89-2.82-7.85,1.26-7.85,1.26a10.44,10.44,0,0,1-3.4,6.14s1.59,1,5.26,0c2.89-.75,5-4.86,5.75-6.58a7,7,0,0,1,1.94,2.58c.43,1.38.63,4.24,1.46,4.14,0,0,1.8-4.34-.22-6.79"></path><path class="cls-54" d="M197.39,355.48a9.69,9.69,0,0,1-.45,4.12s-.59,2.66,2,2.71,3.27-.2,3-1.83-.86-4.46-.86-4.46Z"></path><path class="cls-49" d="M202.2,363.62h-5.45a13.89,13.89,0,0,1,.19-4c3,2.84,4.83-.07,4.83-.07a15.3,15.3,0,0,1,.43,4.09"></path><path class="cls-54" d="M241,360.87s-4.84-5.5-6.33-8.23l-3.6,1.84,8.05,7.56,1.88-.25Z"></path><path class="cls-49" d="M243.93,363.61h-6.72a11.24,11.24,0,0,1-1.85-3,3.25,3.25,0,0,0-2.19-1.5v4.51h-1.39l-1.28-4.79c-.86-1.61-.22-3.08.39-4.35.7,0,2.73.5,6.31,4.61a4.64,4.64,0,0,0,3.76,1.79l0,0a5,5,0,0,1,2.92,2.71"></path><path class="cls-8" d="M243.6,241.33s-5.73,3.2-7.78,4.13c-.73.32-2,.94-3.4,1.57l-2.35,1.1a2.94,2.94,0,0,1-3.5-.76c-3.1-3.62-11.14-11.48-19.43-12.46h0l.05.09c.46,1.16,5,12.53,5.15,14.92s.6,41.32.6,41.32-.3,1.78,3.12,1,4.31-1.49,4.31-1.49-3.27-23.92-2.38-32.25a18.17,18.17,0,0,0-.35-5.36,42.7,42.7,0,0,0,11,4.42,49.56,49.56,0,0,0,5.68-3.11,35,35,0,0,0,4.78-3.85,69.8,69.8,0,0,0,5.44-6.26Z"></path><path class="cls-59" d="M230.06,350.11l-3.79.12a74.76,74.76,0,0,1-13.64-25.34c-.12-.37-.24-.73-.37-1.1-2.68-7.83-8.24-17.65-11.18-26.54-.46-1.42-.88-2.75-1.26-4-.12-.41-.24-.81-.35-1.2l3.12-2.36s9.36,15.16,12.26,29.42c2.52,12.39,12.6,27.3,15.21,31"></path><path class="cls-49" d="M202.92,320.43c.05,6.94-.3,22.88-1.21,29.49h-3.35c-1.85,0-2.78,0-2.78,0-2.26-11.48-3.87-21-5.05-29.16-1-6.72-1.82-12.48-2.48-17.44s-1.12-9.16-1.28-12.69q0-.84-.06-1.62c0-.53,0-1,0-1.54l18.3-1.79c-.23,12.16-2.11,30.75-2.08,34.78"></path><path class="cls-59" d="M198.36,349.92c-1.85,0-2.78,0-2.78,0-2.26-11.48-3.87-21-5.05-29.16-1-6.72-1.82-12.48-2.48-17.44s-1.12-9.16-1.28-12.69l6.71,3.95s-4.29,1.51-2.65,12.95,5.26,40.8,7.53,42.42"></path><path class="cls-8" d="M199.23,290.48s-1.29,4.66-5.75,4.07-10.8-3.27-10.8-3.27,1.91-6,4.28-13.93c2.86-9.58,6.41-21.92,8.09-29.71a48.39,48.39,0,0,0,.91-5.3l3.77-7.18s5.44,12.38,5.74,15.5-6.24,39.82-6.24,39.82"></path><path class="cls-54" d="M215.15,254.14a3.31,3.31,0,0,0-3.24,3,6.55,6.55,0,0,1-.93,2.23c-2.14.12-7.23.39-11.5.66l-.36,5.61a63.52,63.52,0,0,0,12.8-3,3.3,3.3,0,0,0,1.46-.79,15.91,15.91,0,0,0,4.83-7.35c0-.6-.92-.57-3.06-.29"></path><path class="cls-60" d="M199,257.2c-.2,5.05-1.39,14.86-12,20.11l-.08,0c2.86-9.58,6.41-21.92,8.09-29.71,1.94,2.91,4.09,6.77,4,9.56"></path><path class="cls-8" d="M199.73,235.16s-9.07.64-11.24,5.49-2.88,21-.1,25.76c0,0,3.82,1.09,10.57-.17l.25-.05s2.15-5.28.22-6.32c0,0-5.69.3-5.1-1.58s5.4-23.13,5.4-23.13"></path><path class="cls-54" d="M249.75,237.52a5.45,5.45,0,0,0-6.11,3.81l.91,3a3.85,3.85,0,0,0,4-1.92c1.21-1.73,1.55-1.06,2.32-2.36,1-1.75-.59-2.4-1.15-2.57"></path><path class="cls-54" d="M235.82,245.46c-.73.32-2,.94-3.4,1.57a17.18,17.18,0,0,1,1.87,7.45,31.06,31.06,0,0,0,4.93-4,64.54,64.54,0,0,0,5.29-6.14l-.91-3s-5.73,3.2-7.78,4.13"></path><path class="cls-54" d="M301.59,287.64l17.56-4.52A154.33,154.33,0,0,1,329.2,267c2,1.94,3,4.91,5,6.83l-11.44,14.43c-.53.58-22.52,2.8-22.52,2.8Z"></path><path class="cls-55" d="M328.87,246.53a20.15,20.15,0,0,1,1.84-9.72c1.28-2.67,4.45-4.19,7.35-4.19,9.19,0,10.36,12.13,16.21,16.81,1.79,1.43,3.78,2.6,5.47,4.14,6.25,5.7,3.44,16.25-2.3,21.25-4,3.47-10.23,5.44-15.14,2.73a15.49,15.49,0,0,1-5.89-6.35c-2-3.66-3.23-7.87-4.63-11.77a44.09,44.09,0,0,1-2.91-12.9"></path><path class="cls-50" d="M332.31,277.28s6.9-7.07,8.67-10.14-1.21-1.07-4.25-1.88c-1.16-.31-.86-7.07-3.05-4.87a100.45,100.45,0,0,0-8.07,9.91Z"></path><path class="cls-61" d="M153.76,287.29c.21-.32-.31-.88-.71-1.3a18.41,18.41,0,0,0-3.54-1.79,24.69,24.69,0,0,0-5.85.85,5.28,5.28,0,0,1-2.47.26l-1.43-.29-.55,3.47c3.5,0,6.73.28,7.07.27,1.05,0,3-1.1,3.43-1.26a3.17,3.17,0,0,1,1.95.27,7.68,7.68,0,0,0,2.67.83c.3-.15-.57-1.31-.57-1.31"></path><path class="cls-61" d="M144.52,284.82l-19.65-4.93a164.35,164.35,0,0,0-10.66-17.13c-2.07,2.05-3.22,5.2-5.31,7.23l11,15c.56.62,25,3.31,25,3.31Z"></path><path class="cls-62" d="M115.66,278.26s-5.66-7.55-7.72-11.12,1.41-1.25,5-2.19c1.34-.36.23-7.68,2.77-5.13,4.16,4.2,8.33,13.29,8.33,13.29Z"></path><path class="cls-63" d="M123.28,355.57s-.3,5-.3,5a27.34,27.34,0,0,0-.54,2.76c0,2.15,10.22-1.83,7.93-2.78-.21-.09-1.3-.74-1.36-1.47-.11-1.13-.38-3.41-.38-3.41Z"></path><path class="cls-31" d="M129.94,360.09s-2.4.66-3.63.83-2.85-1.22-3.72-.85-.92,4.12-.92,4.12,12.87,1.06,16.49,0c1.43-.43-3.32-2.52-8.22-4.06"></path><path class="cls-63" d="M140.63,355.57s-.3,5-.3,5a27.34,27.34,0,0,0-.54,2.76c0,2.15,10.22-1.83,7.93-2.78-.21-.09-1.76-.36-1.83-1.09-.1-1.13-.3-4.62-.3-4.62Z"></path><path class="cls-31" d="M147.29,360.09s-2.4.66-3.63.83-2.85-1.22-3.72-.85-.92,4.12-.92,4.12,12.87,1.06,16.49,0c1.43-.43-3.32-2.52-8.22-4.06"></path><path class="cls-64" d="M107.71,302.31l24.43.11s11-.29,12.78,3.53,1.33,52.28,1.33,52.28-5.89.88-6.19.55l-6.63-29a20.43,20.43,0,0,1-.72-7.58l.64-6.75-10.08.51s-11.43-.18-15.2-4-.36-9.67-.36-9.67"></path><path class="cls-65" d="M91.15,299.62l26.27,1.61s11.3.92,13,4.74-1.12,52.7-1.12,52.7-6.55.4-6.54.11-2.69-22.39-4.19-29.37a24.31,24.31,0,0,1-.5-6.75l.95-7.83s-24.4-.13-25.61-1.35c-3.77-3.79-2.31-13.86-2.31-13.86"></path><path class="cls-49" d="M115.05,259.32a68.24,68.24,0,0,0-10.51-1.69s-4.3-.7-5.69-.39c-2,.44-5.91.65-6.27,9.56-.26,6.38-1,22.16-1.71,32.82L117,301.21c-1.19-16.4,1.49-40.84-2-41.89"></path><path class="cls-63" d="M108.11,250l-4.1,7.55s3.09,5.51,6,5.66c2.45.12,2.07-3.51,2.07-3.51s.38-4.69,1.56-6.79-5.55-2.91-5.55-2.91"></path><path class="cls-66" d="M108.49,253a15.4,15.4,0,0,0,4.13,3.1,11.87,11.87,0,0,1,1-3.21c.55-1-.59-1.67-2-2.14-1.86-.49-3.57-.77-3.57-.77l-.78,1.45a6.53,6.53,0,0,0,1.16,1.57"></path><path class="cls-63" d="M110.22,237.29c-.17-.12-4.22,9.32-2.46,12.72s6.4,5.64,8.74,4c2.6-1.81,5.43-12.38,2.3-16.24s-8.58-.48-8.58-.48"></path><path d="M118.78,232.11a11.28,11.28,0,0,0-6.59,1.66c-1.41-.22-3.48,0-6.28,2.67a8.25,8.25,0,0,0-.76,11,6.42,6.42,0,0,1,1.44,5.33l.79-1.15a7.38,7.38,0,0,0,1.17-2.89,5.92,5.92,0,0,0,.06-1.92c-.27-1.61,2.08-2,3-3,.7-.79,1.3-2.86,2.43-4.17l1.16-.91s2.38-1,4.17,0,3.51-6.29-.58-6.58"></path><path class="cls-63" d="M111,245.49c-.32,1.2-1.13,2-1.83,1.85s-1-1.3-.69-2.5,1.13-2,1.82-1.85,1,1.3.7,2.5"></path><rect class="cls-67" x="332.43" y="322.06" width="2.56" height="37.43"></rect><path class="cls-63" d="M303.48,349.92s-.56,5.84-.19,7.74a8.26,8.26,0,0,0,.28.94c.38,1.06-.66,4.33-.66,4.33L289,363c-.76,0-.25-.45.36-.87a28.77,28.77,0,0,1,5-2.59c.21-.09,1-.54,1.25-.7a9.38,9.38,0,0,0,2-1.65c1-1.05,1.16-6.2,1.16-6.2Z"></path><path class="cls-60" d="M295.65,358.81a13.12,13.12,0,0,0,7.93-.2c.38,1.06,1,5.07.6,5.07-3.49,0-6.38.23-16.39.08-.36,0-.32-1.18-.08-1.44.64-.72,7.66-3.35,7.94-3.51"></path><path class="cls-63" d="M287.72,340.23s-3.05,5.09-3.54,7a6.49,6.49,0,0,0-.15,1c-.12,1.13-2.48,3.68-2.48,3.68l-12.69-5.48c-.69-.3,0-.52.72-.65a28.82,28.82,0,0,1,5.7-.35c.23,0,1.13-.11,1.45-.15a10,10,0,0,0,2.55-.7c1.37-.56,3.75-5.18,3.75-5.18Z"></path><path class="cls-60" d="M276.73,345.21a13,13,0,0,0,7.3,3c-.12,1.12-1,4.68-1.42,4.51-3.18-1.39-6.14-2-15.18-6.09-.32-.15.23-1.2.55-1.34.9-.4,8.43,0,8.75-.05"></path><path class="cls-31" d="M331,296.74v3l-29.52,5.94-7.33,21,4.09-2.66-.95,32.4,6.21,0s10.76-27.19,7.23-40.86l32.68.48s14.81-5.47,7.17-21.95Z"></path><path class="cls-68" d="M331,299.74s-30.62.2-32.8,1.8-18.49,41.39-18.49,41.39l7.11,2.54S301,322.9,301.77,321.29s6.23-13.38,8.32-14.58,20.94-7,20.94-7"></path><path class="cls-67" d="M347.26,361.16H321.83a2.12,2.12,0,0,0-2.12,2.12.37.37,0,0,0,.37.37H349a.38.38,0,0,0,.38-.37,2.12,2.12,0,0,0-2.12-2.12"></path><path class="cls-67" d="M335.4,359.49h-3.11a1.67,1.67,0,0,0,0,3.34h3.11a1.67,1.67,0,0,0,0-3.34"></path><path class="cls-50" d="M342.06,257.3s6.16-1.22,9,1.13-.6,23.23-.6,26.69,1.93,13.24,1.93,13.24-18.67,3.27-21.63-1.93c0,0-.85-19.79-.72-22.28s2.89-12.67,3.66-13.76,8.39-3.09,8.39-3.09"></path><path class="cls-54" d="M342.1,247.77s0,.19.09.5c.28,1.5,1.35,6.49,2.08,7.86.88,1.66-3,6.94-6.74,6.3-1.12-.2.94-4.86.84-5.35-.19-.95-.45-2.24-.71-3.56l-.44-2.21c-.4-2-.72-3.68-.72-3.68Z"></path><path class="cls-56" d="M342.19,248.27c-.06-.31-.09-.5-.09-.5l-5.6-.14s.32,1.65.72,3.68l.44,2.2a5.27,5.27,0,0,0,2.67-1.34,7.07,7.07,0,0,0,2-3c-.07-.35-.13-.66-.17-.89"></path><path class="cls-54" d="M338.33,235.06a5.06,5.06,0,0,1,4.29,1.83c1.66,2.14,3.44,8.75-.67,12.34s-8.17-.47-8.78-4.79-.83-9.54,5.16-9.38"></path><path class="cls-54" d="M332,244.38c.49,1,1.31,1.48,1.84,1.18s.55-1.32.06-2.27-1.32-1.48-1.84-1.18-.55,1.32-.06,2.27"></path><path class="cls-55" d="M338,234.35s3.53,6.29,6.05,6.58,2.86,3.63,2.86,3.63-.9-7.7-3.4-9.18a9.36,9.36,0,0,0-5.51-1"></path><path class="cls-54" d="M343.42,242.51c-.2,1.11.21,2.14.93,2.28s1.46-.64,1.66-1.75-.21-2.14-.92-2.29-1.46.64-1.67,1.76"></path><path class="cls-69" d="M347,313.87s-30.44.53-33.62,0-4.54,3.46-3.6,5.55,3.56,2.89,7.39,3.08,35.77,1.09,36.67.23c.74-.69,10.42-33.79,13.94-45.89a4.57,4.57,0,0,0-8.76-2.6Z"></path><rect class="cls-67" x="100.56" y="322.12" width="2.57" height="37.65"></rect><path class="cls-67" d="M88.84,361.44h25.58a2.13,2.13,0,0,1,2.13,2.13.38.38,0,0,1-.37.38H87.08a.37.37,0,0,1-.37-.38,2.13,2.13,0,0,1,2.13-2.13"></path><path class="cls-67" d="M100.36,359.76h3.13a1.68,1.68,0,1,1,0,3.36h-3.13a1.68,1.68,0,1,1,0-3.36"></path><path class="cls-67" d="M118.42,317.78l-1.76-8c-1.23-5.62-5.77-9.71-11-9.94l-22.29-1-.69-2.49,23.07,1c6.26.27,11.66,5.14,13.12,11.82l1.87,8.54c-.63,0-1.41.05-2.29.07"></path><path class="cls-67" d="M317.08,314.06l.86-4.19c1.23-6,5.77-10.3,11-10.54l22.7-1.06.8-2.63-23.6,1.08c-6.26.3-11.65,5.45-13.12,12.54l-1,4.72Z"></path><path class="cls-69" d="M88.52,313.88s30.63.52,33.82,0,4.57,3.48,3.62,5.58-3.57,2.9-7.43,3.09-36,1.1-36.89.24c-.74-.7-10.47-34-14-46.16A4.6,4.6,0,0,1,76.44,274Z"></path><path class="cls-70" d="M185.25,267.88H159.7a1.67,1.67,0,0,0-1.54,1l-7.87,19.18H136.21a.72.72,0,1,0,0,1.43H176.3a2.8,2.8,0,0,0,2.55-1.65l7.92-17.65a1.67,1.67,0,0,0-1.52-2.35"></path><path class="cls-71" d="M171.5,279.06a1.41,1.41,0,1,1-1.06-1.84,1.51,1.51,0,0,1,1.06,1.84"></path><path class="cls-50" d="M271.52,267.88h25.55a1.65,1.65,0,0,1,1.54,1l7.87,19.18h14.09a.72.72,0,0,1,0,1.43H280.48a2.82,2.82,0,0,1-2.56-1.65L270,270.23a1.67,1.67,0,0,1,1.52-2.35"></path><path class="cls-50" d="M285.28,279.06a1.41,1.41,0,1,0,1.05-1.84,1.5,1.5,0,0,0-1.05,1.84"></path><path class="cls-67" d="M132,293.81H321.1a.63.63,0,0,0,.63-.62v-3a.63.63,0,0,0-.63-.63H132a.63.63,0,0,0-.63.63v3a.63.63,0,0,0,.63.62"></path><polygon class="cls-67" points="312.23 364.29 315.28 364.29 308.71 293.81 305.66 293.81 312.23 364.29"></polygon><polygon class="cls-67" points="286.32 364.29 283.27 364.29 289.84 293.81 292.89 293.81 286.32 364.29"></polygon><polygon class="cls-67" points="165.02 364.29 168.07 364.29 161.5 293.81 158.45 293.81 165.02 364.29"></polygon><polygon class="cls-67" points="139.12 364.29 136.07 364.29 142.64 293.81 145.69 293.81 139.12 364.29"></polygon><path class="cls-54" d="M314.74,277.77c-.21-.62,2.79-1.1,2.95-1.72s-3.78-.69-3.92-1.23c-.25-1,4.32-.2,4.23-.67s-4.76-1.54-4.25-2.35,4.73,1.61,4.86,1.07-4.13-1.9-4.05-3.1c0-.65,7,3.23,7.79,2.88s-.85-3.37-.21-3.82,2.47,6.15,2.91,6.37,9.82,5.62,13.16,6.48c.41-1.12,3.35-7,3.71-8.1,1.87,1.34,4.05,1.64,6,2.86-1.42,3.51-6.27,12.15-7.24,12.59-3,1.33-14.46-8.25-16.75-9.89s-3.61-1.12-5.17-1.64-3.78.89-4,.27"></path><path class="cls-50" d="M348.8,277.39s4.06-9,4.67-12.5-2.38-7.88-5.52-7.6-7.84,15.83-7.84,15.83Z"></path><path class="cls-63" d="M240.24,287l19-4.61s6.72-9,13.19-16.78c2,1.89,3.13,4.83,5.14,6.7l-14.24,16.42a2.74,2.74,0,0,1-2,.95l-20.22.49Z"></path><path class="cls-63" d="M227.33,288.93c-.2-.31.3-.83.67-1.22a16.84,16.84,0,0,1,3.36-1.65,23.24,23.24,0,0,1,5.49.84,4.92,4.92,0,0,0,2.32.27l1.35-.26.88,3.27c-3.29,0-6.73.2-7,.2a12.14,12.14,0,0,1-3.22-1.22,3,3,0,0,0-1.85.24,7.22,7.22,0,0,1-2.52.76c-.27-.15.56-1.23.56-1.23"></path><path class="cls-63" d="M288.33,248.58l3.79,9.66s-5,6.17-8.7,5.92c-3.14-.21-2-4.51-2-4.51s.4-5.68-.7-8.38,7.58-2.69,7.58-2.69"></path><path class="cls-66" d="M287.86,251.86a25.15,25.15,0,0,1-6.4,3.42,13.49,13.49,0,0,0-.71-4c-.51-1.24,1.06-1.91,2.91-2.27,2.44-.32,4.67-.42,4.67-.42l.73,1.86a5.16,5.16,0,0,1-1.2,1.42"></path><path class="cls-63" d="M293.39,235.36c.25-.05.08,11.71-3.57,14.53s-9.94,3.16-11.74.4c-2-3,.08-15.47,5.49-18.18s9.82,3.25,9.82,3.25"></path><path class="cls-55" d="M286.41,226.14a13.15,13.15,0,0,1,6.53,4.64c1.68.38,3.87,1.54,5.69,5.57,2.24,5-.75,9.81-4.6,11.92s-3.87,5-3.87,5L289,250.41a11.78,11.78,0,0,1,1.45-4.33c1.09-1.57-1.35-3-1.86-4.46-.39-1.14,0-3.59-.64-5.47,0,0-3.05-3-5.49-3.31-4.16-.61-.8-8.19,3.91-6.7"></path><path class="cls-55" d="M286.16,234.63a4.63,4.63,0,0,1,.29,2.89c-.4,1.44-3.31,11.24-2.46,12.37s6.16,3.35,6.16,3.35l2.4-8L290.07,234Z"></path><path class="cls-63" d="M281.38,365.44l-2.44-7h6.39c.34,4.49.46,7.52.46,7.52l1.62,4.6,1.66,5.47s-5.44,1.4-8.3-.17l.32-5.45Z"></path><path class="cls-49" d="M281.09,370.39a9.09,9.09,0,0,0,6.3.09l.36,1,1.38,4.62s-5.5,1.36-8.36-.21Z"></path><path class="cls-63" d="M239.42,364.18s1.78,4.22.3,6-7.62,3.47-8.43,4.42a2.65,2.65,0,0,0-.74,1.75l17.25-.49-.2-5.19L246,362.8Z"></path><path class="cls-49" d="M238.65,371s4.43,1.78,6.57.72,2.08-1.35,2.7-1,.84,5.26.84,5.26l-19.39.59c-1.35,0-2-1-.94-1.87a17.2,17.2,0,0,1,2.11-1.26c1.52-.87,8.11-2.48,8.11-2.48"></path><path class="cls-8" d="M270.32,303.31c-1.93-.53-42.35,7.27-45.63,16.19-.53,1.45,5.92,24.41,14.2,46.33l8.8-1.35S246.58,342,239,326.71c4.46,1.11,28.56-3.86,33-7.79,5.63-5,.26-15.08-1.67-15.61"></path><path class="cls-8" d="M262.14,330.35s12.4,25.56,14.39,30.24a50.05,50.05,0,0,1,2.56,7h7.77s-3-29.21-8.05-37.26-16.67,0-16.67,0"></path><path class="cls-72" d="M277.4,257l30.54.22c2.34,0,3.93,1.66,3.57,3.67L300,324.6a4.9,4.9,0,0,1-4.88,3.6L264.59,328c-2.33,0-3.93-1.66-3.56-3.66l11.49-63.75a4.89,4.89,0,0,1,4.88-3.6"></path><path class="cls-69" d="M244,323.79h22.52l12-63.65c.35-1.76,2.52-3.18,4.85-3.18h30.54c2.34,0,3.95,1.42,3.61,3.18l-13,68.8c-.35,1.76-2.52,3.18-4.85,3.18H244c-3.06,0-5.53-1.86-5.53-4.17s2.47-4.16,5.53-4.16"></path><rect class="cls-67" x="274.66" y="332.12" width="3.19" height="39.33"></rect><path class="cls-67" d="M292.4,373.53H260.67a2.65,2.65,0,0,0-2.65,2.65.46.46,0,0,0,.46.46h36.1a.46.46,0,0,0,.47-.46,2.65,2.65,0,0,0-2.65-2.65"></path><path class="cls-8" d="M278.11,371.45h-3.89a2.09,2.09,0,0,0,0,4.17h3.89a2.09,2.09,0,0,0,0-4.17"></path><path class="cls-63" d="M286.8,242.85c-.48,1.3-1.56,2.09-2.42,1.77s-1.16-1.62-.68-2.92,1.56-2.08,2.42-1.77,1.16,1.62.68,2.92"></path><path class="cls-73" d="M110.53,265.29c.65-1.57,1.29-3.15,1.94-4.73l-5.14-.07,3.2,4.8"></path><path class="cls-62" d="M107.09,266.42l3.44-5.95-6.52-2.9,3.08,8.85"></path><path class="cls-62" d="M113.68,265.06a24,24,0,0,0-.67-4.15,24.38,24.38,0,0,0-.73-2.35l-1.79,1.91,3.19,4.59"></path><path class="cls-63" d="M147,288c.22-.29-.23-.83-.57-1.24a17,17,0,0,0-3.18-1.84,22.51,22.51,0,0,0-5.44.46,5,5,0,0,1-2.29.11l-1.31-.35-1.08,3.14c3.23.18,6.58.65,6.89.67a12.3,12.3,0,0,0,3.24-1,2.92,2.92,0,0,1,1.79.35,7.09,7.09,0,0,0,2.41.91c.28-.12-.46-1.24-.46-1.24"></path><path class="cls-73" d="M110.53,264.76l-3.92,25.89,4,6.76,3.8-6.76Z"></path><path class="cls-63" d="M134.46,285.2l-20.19-5.34s-6.19-7-12-15c-2.07,1.72-3,6.25-5,7.95l13.33,13.27c.46.61,22.88,2.2,22.88,2.2Z"></path><path class="cls-62" d="M101.84,279.59S95,270.86,93.3,267.44s.11-8.85,3.44-9.49,13,15,13,15Z"></path></g></g></g></svg> 