<?xml version="1.0" encoding="UTF-8"?> <svg xmlns="http://www.w3.org/2000/svg" id="Layer_2" data-name="Layer 2" viewBox="0 0 440 450"><defs><style>.cls-1,.cls-7{fill:#808b94;}.cls-1{opacity:0.25;}.cls-1,.cls-5{isolation:isolate;}.cls-2{fill:#fff;}.cls-3,.cls-9{fill:#2858a5;}.cls-12,.cls-4,.cls-5{fill:#009ca6;}.cls-13,.cls-6,.cls-8{fill:none;}.cls-6{opacity:0.81;}.cls-9{stroke:#00263e;stroke-width:6px;}.cls-12,.cls-13,.cls-9{stroke-miterlimit:10;}.cls-10{fill:#ffe7b2;}.cls-11{fill:#ffd069;}.cls-12{stroke:#fff;stroke-width:10.33px;}.cls-13{stroke:#009ca6;stroke-width:6.5px;}</style></defs><rect class="cls-1" width="440" height="450"></rect><path class="cls-2" d="M260.49,252.25h-85v-51.8h85Zm-83.6-1.44h82.16V201.89H176.89Z"></path><rect class="cls-3" x="225.81" y="219.16" width="26.62" height="2.59"></rect><path class="cls-4" d="M337.55,247.28a1.53,1.53,0,1,1-1.52-1.53,1.53,1.53,0,0,1,1.52,1.53"></path><path class="cls-5" d="M347,241.57a15.64,15.64,0,0,0-9.56,3.21l1.14,1.51a13.68,13.68,0,0,1,7.73-2.82v5.46a8.47,8.47,0,0,0-7.75,7.75h-5.46a14,14,0,0,1,2.11-6.74l-1.59-1A15.81,15.81,0,1,0,347,241.57Zm13.89,15.13h-5.46a8.47,8.47,0,0,0-7.75-7.75v-5.48A13.92,13.92,0,0,1,360.92,256.7Zm-14.56-6.4v.5h1.35v-.5a7.14,7.14,0,0,1,6.4,6.4h-.48v1.35h.48a7.12,7.12,0,0,1-6.4,6.39v-.55h-1.35v.55a7.12,7.12,0,0,1-6.4-6.39h.5V256.7H340A7.09,7.09,0,0,1,346.36,250.3Zm-13.23,7.75h5.46a8.46,8.46,0,0,0,7.75,7.74v5.47A13.93,13.93,0,0,1,333.13,258.05Zm14.58,13.21v-5.47a8.46,8.46,0,0,0,7.75-7.74h5.46A13.92,13.92,0,0,1,347.71,271.26Z"></path><polygon class="cls-5" points="345.16 254.98 345.16 253.8 348.91 253.8 348.91 254.98 347.69 254.98 347.69 261.25 346.36 261.25 346.36 254.98 345.16 254.98"></polygon><circle class="cls-6" cx="117.44" cy="272.07" r="21.08"></circle><path class="cls-7" d="M118.48,294.14l-.11-3a21.66,21.66,0,0,0,5.44-1.05l1,2.9A21.26,21.26,0,0,1,118.48,294.14Zm-4.51-.23a22.71,22.71,0,0,1-6.14-1.86l1.27-2.78a19,19,0,0,0,5.33,1.63Zm14.88-2.84-1.56-2.61a20.33,20.33,0,0,0,3.76-2.89l.58-.58,2.2,2.08a6.39,6.39,0,0,1-.63.64A20.49,20.49,0,0,1,128.85,291.07ZM104,289.74a22.8,22.8,0,0,1-2.78-2.44,21.62,21.62,0,0,1-1.79-2.08l2.43-1.85a16.36,16.36,0,0,0,1.57,1.79,27.26,27.26,0,0,0,2.37,2.09Zm32.61-6.2-2.6-1.62a20.65,20.65,0,0,0,2.26-5.1l2.95.81A22.29,22.29,0,0,1,136.61,283.54Zm-39.56-2.09a22.51,22.51,0,0,1-2-6.08l3-.52a18.64,18.64,0,0,0,1.68,5.27ZM140,273.23l-3-.23a11.72,11.72,0,0,0,.06-1.45,18.81,18.81,0,0,0-.41-4.05l3-.64a21.94,21.94,0,0,1,.46,4.69A16.29,16.29,0,0,1,140,273.23ZM97.87,271l-3.07-.11a22.91,22.91,0,0,1,1.1-6.32l2.89.93A19.21,19.21,0,0,0,97.87,271Zm37.53-7.18a22.47,22.47,0,0,0-2.9-4.75l2.32-2a23.08,23.08,0,0,1,3.36,5.45Zm-35-1.85-2.67-1.51a22.47,22.47,0,0,1,3.94-5.1l.06-.05,2.08,2.2h0A19,19,0,0,0,100.36,261.94Zm29.36-5.62a20,20,0,0,0-4.75-2.84l1.16-2.84a21.33,21.33,0,0,1,5.5,3.3ZM106.84,255l-1.62-2.54a21.53,21.53,0,0,1,5.85-2.67l.87,2.9A21.86,21.86,0,0,0,106.84,255Zm14.42-2.72a19.86,19.86,0,0,0-5.56-.29l-.29-3a23.48,23.48,0,0,1,6.38.35Z"></path><circle class="cls-8" cx="346.97" cy="257.42" r="25.49"></circle><path class="cls-7" d="M347.86,285.23l-.15-4.69a11.82,11.82,0,0,0,1.88-.15l.64,4.64h-.15C349.39,285.13,348.6,285.18,347.86,285.23Zm-3.95-.2c-.74-.09-1.48-.19-2.22-.34l.89-4.6,1.87.3Zm10.22-.74L353,279.8c.59-.15,1.23-.35,1.78-.54l1.58,4.39C355.57,283.9,354.83,284.1,354.13,284.29Zm-16.3-.59c-.69-.25-1.43-.54-2.12-.84l1.88-4.25c.59.25,1.18.5,1.73.69Zm22.08-1.63-2.17-4.15c.54-.3,1.09-.59,1.63-.94l2.52,3.95C361.25,281.33,360.61,281.68,359.91,282.07ZM332.2,281c-.64-.39-1.28-.84-1.87-1.28l2.81-3.75a19.13,19.13,0,0,0,1.58,1.08Zm32.85-2.42L362,275a16.84,16.84,0,0,0,1.38-1.29l3.31,3.31A22,22,0,0,1,365.05,278.56Zm-37.69-1.48c-.54-.54-1-1.09-1.53-1.68l3.56-3a16.73,16.73,0,0,0,1.28,1.38ZM369.3,274l-3.75-2.77a16.26,16.26,0,0,0,1.08-1.58l3.95,2.47C370.19,272.78,369.74,273.38,369.3,274Zm-45.84-1.78c-.4-.64-.79-1.28-1.14-2l4.15-2.17c.3.54.6,1.09.94,1.63Zm49-3.61-4.3-1.87c.25-.6.5-1.19.69-1.78l4.4,1.53C373,267.25,372.76,267.94,372.46,268.63Zm-51.72-2a17,17,0,0,1-.64-2.17l4.54-1.19c.15.59.35,1.23.55,1.83Zm53.55-4-4.6-.89c.1-.59.2-1.24.3-1.88l4.64.49C374.54,261.18,374.44,262,374.29,262.71Zm-54.93-2.13h0a17.89,17.89,0,0,1-.15-2.27l4.69-.15a11.91,11.91,0,0,0,.15,1.88Zm50.73-3.95a11.39,11.39,0,0,0-.15-1.83l4.65-.64v.1a17,17,0,0,1,.14,2.17ZM324,254.85l-4.64-.49c.1-.74.2-1.48.35-2.22l4.59.89A11.51,11.51,0,0,0,324,254.85Zm45.35-3.36c-.15-.59-.35-1.23-.54-1.77l4.39-1.54a14.75,14.75,0,0,1,.64,2.18Zm-44.21-1.68-4.4-1.53c.25-.69.55-1.43.84-2.12l4.25,1.88C325.58,248.63,325.34,249.22,325.14,249.81Zm42.33-3.11c-.29-.54-.59-1.08-.94-1.63l4-2.52c.39.65.79,1.29,1.13,2Zm-40.11-1.53-3.95-2.47c.4-.64.84-1.28,1.28-1.88l3.76,2.82A11.93,11.93,0,0,0,327.36,245.17Zm37.25-2.76a17,17,0,0,0-1.29-1.39l3.31-3.31c.55.55,1,1.09,1.53,1.68Zm-34-1.29-3.31-3.31c.55-.54,1.09-1,1.68-1.53l3,3.56A18.5,18.5,0,0,0,330.62,241.12Zm30.18-2.27a16.34,16.34,0,0,0-1.58-1.09l2.47-3.95c.64.4,1.29.84,1.88,1.28Zm-26.18-1-2.52-4c.65-.4,1.29-.79,2-1.14l2.17,4.15C335.71,237.22,335.17,237.51,334.62,237.86Zm21.69-1.58c-.59-.25-1.19-.49-1.78-.69l1.53-4.4c.69.25,1.43.55,2.13.84Zm-17-.69-1.54-4.4a16.07,16.07,0,0,1,2.18-.64l1.18,4.54A10.85,10.85,0,0,0,339.32,235.59Zm12.05-.89-1.88-.3.5-4.64c.74.1,1.48.2,2.22.35Zm-7.11-.25-.1-1.63-.4-3h.05a16.56,16.56,0,0,1,2.22-.15l.15,4.69a11.39,11.39,0,0,0-1.83.15C344.35,234.45,344.3,234.45,344.26,234.45Z"></path><circle class="cls-8" cx="92.52" cy="186.25" r="25.9"></circle><path class="cls-7" d="M91.86,212.26a1.83,1.83,0,0,1,1.78-1.93h0a1.91,1.91,0,0,1,2,1.78h0A1.84,1.84,0,0,1,93.84,214h-.1A1.86,1.86,0,0,1,91.86,212.26Zm-6.71.81h0a1.87,1.87,0,0,1-1.32-2.28h0a1.87,1.87,0,0,1,2.29-1.32h0a1.86,1.86,0,0,1,1.32,2.28h0a1.88,1.88,0,0,1-1.78,1.37h0C85.46,213.12,85.31,213.07,85.15,213.07Zm14.73-1.93a1.86,1.86,0,0,1,1.07-2.39h0a1.85,1.85,0,0,1,2.39,1.07h0a1.92,1.92,0,0,1-1.07,2.44h0a1.52,1.52,0,0,1-.66.1h0A1.91,1.91,0,0,1,99.88,211.14Zm-22.65-1.67a1.89,1.89,0,0,1-.56-2.6h0a1.83,1.83,0,0,1,2.59-.5h0a1.82,1.82,0,0,1,.51,2.59h0a1.86,1.86,0,0,1-1.57.86h0A2.54,2.54,0,0,1,77.23,209.47Zm30-1.83a1.87,1.87,0,0,1,.3-2.64h0a1.88,1.88,0,0,1,2.65.3h0a1.87,1.87,0,0,1-.31,2.64h0a2,2,0,0,1-1.17.41h0A1.75,1.75,0,0,1,107.25,207.64Zm-36.42-4a1.86,1.86,0,0,1,.31-2.64h0a1.86,1.86,0,0,1,2.64.31h0a1.87,1.87,0,0,1-.31,2.64h0a2.05,2.05,0,0,1-1.17.41h0A1.81,1.81,0,0,1,70.83,203.62Zm42.31-1.57a1.83,1.83,0,0,1-.51-2.59h0a1.83,1.83,0,0,1,2.59-.51h0a1.88,1.88,0,0,1,.56,2.59h0a1.86,1.86,0,0,1-1.57.87h0A1.63,1.63,0,0,1,113.14,202.05Zm-46.63-6h0a1.92,1.92,0,0,1,1.07-2.44h0A1.84,1.84,0,0,1,70,194.68h0a1.84,1.84,0,0,1-1.07,2.39h0a1.52,1.52,0,0,1-.66.1h0A1.6,1.6,0,0,1,66.51,196.06ZM117,194.94a1.88,1.88,0,0,1-1.32-2.29h0a1.88,1.88,0,0,1,2.29-1.32h0a1.88,1.88,0,0,1,1.32,2.29h0a1.86,1.86,0,0,1-1.78,1.37h0A1.61,1.61,0,0,1,117,194.94Zm-52.26-7.37a1.83,1.83,0,0,1,1.77-1.93h0a1.84,1.84,0,0,1,1.93,1.78h0a1.83,1.83,0,0,1-1.77,1.93h-.11A1.87,1.87,0,0,1,64.74,187.57Zm51.81-2.43a1.82,1.82,0,0,1,1.77-1.93h0a1.85,1.85,0,0,1,1.93,1.77h0a1.86,1.86,0,0,1-1.77,1.93h-.11A1.84,1.84,0,0,1,116.55,185.14ZM67,181.22a1.87,1.87,0,0,1-1.32-2.28h0v-.05h0v0h0A1.86,1.86,0,0,1,68,177.52h0a1.87,1.87,0,0,1,1.32,2.28h0v0h0v.05h0a1.85,1.85,0,0,1-1.78,1.37h0A1.61,1.61,0,0,1,67,181.22Zm48-3.45a1.85,1.85,0,0,1,1.07-2.39h0a1.85,1.85,0,0,1,2.39,1.07h0a1.86,1.86,0,0,1-1.07,2.39h0a1.52,1.52,0,0,1-.66.1h0A1.79,1.79,0,0,1,115,177.77ZM69.87,173.5a1.82,1.82,0,0,1-.51-2.59h0a1.83,1.83,0,0,1,2.59-.5h0a1.88,1.88,0,0,1,.56,2.59h0a1.9,1.9,0,0,1-1.58.86h0A2.31,2.31,0,0,1,69.87,173.5Zm41.44-2.28h0a1.87,1.87,0,0,1,.31-2.64h0a1.87,1.87,0,0,1,2.64.3h0a1.86,1.86,0,0,1-.31,2.64h0a2,2,0,0,1-1.16.41h0A1.75,1.75,0,0,1,111.31,171.22Zm-36.42-4.07a1.87,1.87,0,0,1,.31-2.64h0a1.87,1.87,0,0,1,2.64.31h0a1.87,1.87,0,0,1-.3,2.64h0a2.1,2.1,0,0,1-1.17.41h0A1.9,1.9,0,0,1,74.89,167.15Zm30.89-1a1.82,1.82,0,0,1-.51-2.59h0a1.83,1.83,0,0,1,2.59-.51h0a1.83,1.83,0,0,1,.51,2.59h0a1.83,1.83,0,0,1-1.58.81h0A1.84,1.84,0,0,1,105.78,166.19Zm-24.13-3.56a1.83,1.83,0,0,1,1.07-2.38h0a1.83,1.83,0,0,1,2.38,1.06h0A1.84,1.84,0,0,1,84,163.7h0a1.54,1.54,0,0,1-.66.1h0A1.77,1.77,0,0,1,81.65,162.63Zm17.27.41a1.87,1.87,0,0,1-1.32-2.29h0a1.87,1.87,0,0,1,2.28-1.32h0a1.88,1.88,0,0,1,1.33,2.29h0a1.9,1.9,0,0,1-1.78,1.37h0A.85.85,0,0,1,98.92,163Zm-9.45-2.59a1.86,1.86,0,0,1,1.78-1.93h0a1.83,1.83,0,0,1,1.93,1.78h0a1.87,1.87,0,0,1-1.78,1.93h-.1A1.89,1.89,0,0,1,89.47,160.45Z"></path><rect class="cls-3" x="189.65" y="221.93" width="1.87" height="20.25"></rect><rect class="cls-3" x="206.47" y="221.93" width="1.87" height="20.25"></rect><rect class="cls-3" x="189.96" y="240" width="17.45" height="2.18"></rect><circle class="cls-3" cx="192.36" cy="213.36" r="1.4"></circle><path class="cls-3" d="M199.06,218.18c-2.25,0-4.13-2.11-4.36-4.92l-.07-.84h8.86l-.07.84C203.18,216.07,201.31,218.18,199.06,218.18Zm-2.67-4.2c.4,1.53,1.47,2.65,2.67,2.65s2.27-1.12,2.66-2.65Z"></path><polygon class="cls-3" points="214.52 222.89 207.23 215.29 202.97 214.23 203.42 212.42 208.21 213.61 215.87 221.59 214.52 222.89"></polygon><path class="cls-9" d="M203.15,213.31"></path><path class="cls-9" d="M202.74,213.21"></path><rect class="cls-3" x="186.26" y="223.37" width="4.89" height="2.18" transform="translate(-103.68 202.03) rotate(-45.56)"></rect><rect class="cls-3" x="184.69" y="220.81" width="1.87" height="5.67" transform="translate(-104.43 205.2) rotate(-46.67)"></rect><rect class="cls-3" x="181.12" y="217.41" width="10.8" height="1.87" transform="translate(-100.16 201.68) rotate(-46.17)"></rect><rect class="cls-3" x="208.17" y="222.01" width="2.18" height="4.89" transform="translate(-97.3 210.72) rotate(-44.44)"></rect><rect class="cls-3" x="209.5" y="222.71" width="5.67" height="1.87" transform="translate(-95.58 206.68) rotate(-43.33)"></rect><rect class="cls-3" x="225.81" y="212.61" width="26.62" height="2.59"></rect><circle class="cls-2" cx="184.46" cy="177.06" r="6.8"></circle><circle class="cls-2" cx="205.37" cy="177.06" r="6.8"></circle><circle class="cls-2" cx="226.29" cy="177.06" r="6.8"></circle><path class="cls-2" d="M299.52,263.33H163.22V155.41h136.3Zm-128-7.15H291.23V162.57H171.51Z"></path><rect class="cls-2" x="167.15" y="190.51" width="128.18" height="6"></rect><line class="cls-2" x1="265.24" y1="202.9" x2="286.82" y2="202.9"></line><rect class="cls-2" x="265.24" y="202.18" width="21.58" height="1.44"></rect><line class="cls-2" x1="265.24" y1="207.65" x2="286.82" y2="207.65"></line><rect class="cls-2" x="265.24" y="206.93" width="21.58" height="1.44"></rect><line class="cls-2" x1="265.24" y1="212.11" x2="286.82" y2="212.11"></line><rect class="cls-2" x="265.24" y="211.39" width="21.58" height="1.44"></rect><line class="cls-2" x1="265.24" y1="216.85" x2="286.82" y2="216.85"></line><rect class="cls-2" x="265.24" y="216.13" width="21.58" height="1.44"></rect><line class="cls-2" x1="265.24" y1="221.6" x2="286.82" y2="221.6"></line><rect class="cls-2" x="265.24" y="220.88" width="21.58" height="1.44"></rect><line class="cls-2" x1="265.24" y1="226.35" x2="286.82" y2="226.35"></line><rect class="cls-2" x="265.24" y="225.63" width="21.58" height="1.44"></rect><line class="cls-2" x1="265.24" y1="231.1" x2="286.82" y2="231.1"></line><rect class="cls-2" x="265.24" y="230.38" width="21.58" height="1.44"></rect><line class="cls-2" x1="265.24" y1="235.85" x2="286.82" y2="235.85"></line><rect class="cls-2" x="265.24" y="235.13" width="21.58" height="1.44"></rect><line class="cls-2" x1="265.24" y1="240.31" x2="286.82" y2="240.31"></line><rect class="cls-2" x="265.24" y="239.59" width="21.58" height="1.44"></rect><line class="cls-2" x1="265.24" y1="245.06" x2="286.82" y2="245.06"></line><rect class="cls-2" x="265.24" y="244.34" width="21.58" height="1.44"></rect><line class="cls-2" x1="265.24" y1="249.81" x2="286.82" y2="249.81"></line><rect class="cls-2" x="265.24" y="249.09" width="21.58" height="1.44"></rect><rect class="cls-10" x="283.44" y="220.05" width="1.44" height="61.24" transform="translate(-49.69 429.91) rotate(-69.65)"></rect><rect class="cls-10" x="152.13" y="169.49" width="1.44" height="61.24" transform="translate(-93.28 253.27) rotate(-64.81)"></rect><rect class="cls-10" x="149.44" y="179.91" width="1.44" height="61.46" transform="translate(-92.9 299.17) rotate(-74.53)"></rect><rect class="cls-10" x="285.24" y="209.22" width="1.44" height="61.46" transform="translate(-2.65 476.71) rotate(-79.36)"></rect><path class="cls-11" d="M256.53,246.28H221.64V207.86h34.89Zm-32.73-2.16h30.57V210H223.8Z"></path><path class="cls-11" d="M218.83,246.28H179.12V207.86h39.71Zm-37.55-2.16h35.39V210H181.28Z"></path><rect class="cls-10" x="136.77" y="242.07" width="59.71" height="1.44" transform="translate(-78.99 80.36) rotate(-22.06)"></rect><rect class="cls-10" x="140.87" y="249.28" width="66.57" height="1.44" transform="translate(-108.95 137.39) rotate(-33.45)"></rect><rect class="cls-3" x="225.81" y="225.78" width="26.62" height="2.59"></rect><rect class="cls-3" x="225.81" y="232.39" width="26.62" height="2.59"></rect><rect class="cls-3" x="225.81" y="238.87" width="26.62" height="2.59"></rect><circle class="cls-4" cx="75.69" cy="179.49" r="1.03"></circle><path class="cls-12" d="M91,183.73"></path><path class="cls-12" d="M94.06,188.26"></path><path class="cls-4" d="M102.93,176.27a9.72,9.72,0,0,0-9.14,6.4H95a8.57,8.57,0,1,1,2.29,9.8,8.44,8.44,0,0,1-2.86-5.15l-.08-.5H89.47v-.73l-1.06.56-1.35.72,2.41,1.28V188H93.4a9.73,9.73,0,1,0,9.53-11.73Z"></path><path class="cls-4" d="M82.11,194.56A8.57,8.57,0,0,1,73.55,186,8.41,8.41,0,0,1,75,181.32l-1-.63a9.73,9.73,0,1,0,17.29,8.63H90A8.57,8.57,0,0,1,82.11,194.56Z"></path><path class="cls-4" d="M95.57,183.37V184H91.64a9.75,9.75,0,0,0-9.53-7.75A9.58,9.58,0,0,0,77,177.76l.6,1a8.56,8.56,0,0,1,13,5.91l.08.5h4.92v.74l1.06-.57,1.35-.71Z"></path><polygon class="cls-4" points="77.13 184.55 79.18 182.41 80.38 182.11 80.29 181.59 78.9 181.94 76.75 184.19 77.13 184.55"></polygon><rect class="cls-4" x="78.87" y="184.28" width="0.53" height="5.7"></rect><rect class="cls-4" x="83.61" y="184.28" width="0.53" height="5.7"></rect><rect class="cls-4" x="78.96" y="189.36" width="4.91" height="0.61"></rect><path class="cls-4" d="M81.52,183.22a1.38,1.38,0,0,1-1.23-1.38l0-.24h2.5l0,.24A1.38,1.38,0,0,1,81.52,183.22ZM80.77,182a.75.75,0,0,0,1.5,0Z"></path><polygon class="cls-4" points="85.87 184.54 83.82 182.41 82.62 182.11 82.75 181.6 84.09 181.94 86.25 184.18 85.87 184.54"></polygon><rect class="cls-4" x="77.92" y="184.68" width="1.38" height="0.61" transform="translate(-108.51 111.59) rotate(-45.56)"></rect><rect class="cls-4" x="77.48" y="183.96" width="0.53" height="1.6" transform="translate(-110 114.52) rotate(-46.67)"></rect><rect class="cls-4" x="84.08" y="184.3" width="0.61" height="1.38" transform="translate(-105.39 112) rotate(-44.44)"></rect><rect class="cls-4" x="84.46" y="184.49" width="1.6" height="0.53" transform="translate(-103.54 108.87) rotate(-43.33)"></rect><polygon class="cls-4" points="99.14 184.55 101.19 182.41 102.39 182.11 102.31 181.59 100.92 181.94 98.76 184.19 99.14 184.55"></polygon><rect class="cls-4" x="100.89" y="184.28" width="0.53" height="5.7"></rect><rect class="cls-4" x="105.62" y="184.28" width="0.53" height="5.7"></rect><rect class="cls-4" x="100.98" y="189.36" width="4.91" height="0.61"></rect><path class="cls-4" d="M103.53,183.22a1.36,1.36,0,0,1-1.22-1.38l0-.24h2.49l0,.24A1.37,1.37,0,0,1,103.53,183.22Zm-.75-1.18a.89.89,0,0,0,.75.74.87.87,0,0,0,.75-.74Z"></path><polygon class="cls-4" points="107.88 184.54 105.83 182.41 104.63 182.11 104.76 181.6 106.11 181.94 108.26 184.18 107.88 184.54"></polygon><rect class="cls-4" x="99.93" y="184.68" width="1.38" height="0.61" transform="translate(-101.91 127.31) rotate(-45.56)"></rect><rect class="cls-4" x="99.49" y="183.96" width="0.53" height="1.6" transform="translate(-103.09 130.53) rotate(-46.67)"></rect><rect class="cls-4" x="106.1" y="184.3" width="0.61" height="1.38" transform="translate(-99.09 127.42) rotate(-44.44)"></rect><rect class="cls-4" x="106.47" y="184.49" width="1.6" height="0.53" transform="translate(-97.54 123.98) rotate(-43.33)"></rect><circle class="cls-4" cx="106.94" cy="260.24" r="0.95"></circle><path class="cls-13" d="M128.76,262.91"></path><path class="cls-13" d="M107,263"></path><rect class="cls-4" x="106.39" y="262.02" width="1.09" height="2.64"></rect><rect class="cls-4" x="108.64" y="259.67" width="2.71" height="1.09"></rect><polygon class="cls-4" points="128.99 264.66 127.89 264.66 127.89 260.71 124.05 260.71 124.05 259.62 128.99 259.62 128.99 264.66"></polygon><polygon class="cls-4" points="128.98 282.64 123.94 282.64 123.94 281.55 127.89 281.55 127.89 277.71 128.98 277.71 128.98 282.64"></polygon><polygon class="cls-4" points="111.32 282.66 106.39 282.66 106.39 277.61 107.48 277.61 107.48 281.56 111.32 281.56 111.32 282.66"></polygon><path class="cls-4" d="M117.62,264.41l5.78,3.34v6.68l-5.78,3.33-5.78-3.33v-6.68l5.78-3.34m0-1L111,267.27v7.64l6.62,3.82,6.62-3.82v-7.64l-6.62-3.83Z"></path><path class="cls-4" d="M117.56,267.78l2.87,1.66v3.32l-2.87,1.65-2.87-1.65v-3.32l2.87-1.66m0-1L113.85,269v4.28l3.71,2.14,3.71-2.14V269l-3.71-2.15Z"></path><path class="cls-3" d="M199,223l2.69,1.55v3.1L199,229.18l-2.68-1.55v-3.1L199,223m0-.45-3.07,1.77v3.55l3.07,1.78,3.08-1.78V224.3L199,222.53Z"></path><path class="cls-3" d="M199,224.54l1.33.77v1.54l-1.33.77-1.34-.77v-1.54l1.34-.77m0-.45-1.73,1v2l1.73,1,1.72-1v-2l-1.72-1Z"></path><path class="cls-11" d="M204.79,232.5H193.16V219.7h11.63Zm-10.06-1.58h8.49v-9.64h-8.49Z"></path></svg> 