<?xml version="1.0" encoding="UTF-8"?> <svg xmlns="http://www.w3.org/2000/svg" id="Layer_2" data-name="Layer 2" viewBox="0 0 440 450"><defs><style>.cls-1,.cls-2{fill:#808b94;}.cls-1{opacity:0.25;}.cls-1,.cls-5{isolation:isolate;}.cls-3,.cls-5{opacity:0.81;}.cls-4{fill:#009ca6;}.cls-5,.cls-7{fill:none;stroke:#fff;stroke-miterlimit:10;}.cls-5{stroke-width:2px;}.cls-6{opacity:0.71;}.cls-7{stroke-width:1.96px;}.cls-8{fill:#2858a5;}.cls-9{fill:#ffe7b2;}.cls-10{fill:#fff;}</style></defs><rect class="cls-1" width="440" height="450"></rect><path class="cls-2" d="M335.64,199.86h0a2.72,2.72,0,0,1-2.32-3.07h0a2.71,2.71,0,0,1,3.07-2.31h0a2.69,2.69,0,0,1,2.31,3.07h0a2.76,2.76,0,0,1-2.71,2.36h0A.85.85,0,0,1,335.64,199.86Zm6.68-2.31a2.7,2.7,0,0,1,2.31-3.07h0a2.69,2.69,0,0,1,3.07,2.31h0a2.69,2.69,0,0,1-2.31,3.07h0c-.15,0-.25,0-.4,0h0A2.75,2.75,0,0,1,342.32,197.55Zm-16.14-.41h0a2.76,2.76,0,0,1-1.35-3.62h0a2.76,2.76,0,0,1,3.62-1.35h0a2.74,2.74,0,0,1,1.35,3.62h0a2.72,2.72,0,0,1-2.46,1.6h0A3.06,3.06,0,0,1,326.18,197.14Zm25-1.4a2.72,2.72,0,0,1,1.31-3.62h0a2.76,2.76,0,0,1,3.62,1.3h0a2.72,2.72,0,0,1-1.31,3.62h0a3,3,0,0,1-1.16.25h0A2.69,2.69,0,0,1,351.22,195.74Zm-33.28-3.93h0a2.66,2.66,0,0,1-.25-3.82h0a2.67,2.67,0,0,1,3.82-.25h0a2.72,2.72,0,0,1,.3,3.82h0a2.82,2.82,0,0,1-2.06,1h0A2.59,2.59,0,0,1,317.94,191.81Zm41.27-.35a2.71,2.71,0,0,1,.26-3.82h0a2.72,2.72,0,0,1,3.82.25h0a2.71,2.71,0,0,1-.25,3.82h0a2.67,2.67,0,0,1-1.81.66h0A2.76,2.76,0,0,1,359.21,191.46Zm-47.71-7a2.75,2.75,0,0,1,.81-3.77h0a2.75,2.75,0,0,1,3.77.81h0a2.75,2.75,0,0,1-.81,3.77h0a2.61,2.61,0,0,1-1.45.45h0A2.74,2.74,0,0,1,311.5,184.42Zm54.2.66a2.74,2.74,0,0,1-.85-3.77h0a2.76,2.76,0,0,1,3.77-.86h0a2.75,2.75,0,0,1,.85,3.77h0a2.73,2.73,0,0,1-2.31,1.26h0A2.24,2.24,0,0,1,365.7,185.08Zm-58.27-9.61h0a2.7,2.7,0,0,1,1.86-3.36h0a2.7,2.7,0,0,1,3.37,1.86h0a2.7,2.7,0,0,1-1.86,3.36h0a3.86,3.86,0,0,1-.76.1h0A2.64,2.64,0,0,1,307.43,175.47Zm62.69,1.71a2.71,2.71,0,0,1-1.86-3.36h0a2.72,2.72,0,0,1,3.37-1.87h0a2.71,2.71,0,0,1,1.86,3.37h0a2.72,2.72,0,0,1-2.61,2h0A4.07,4.07,0,0,1,370.12,177.18Zm-61.38-8.69a2.71,2.71,0,0,1-2.72-2.72h0a2.7,2.7,0,0,1,2.72-2.71h0a2.69,2.69,0,0,1,2.71,2.71h0a2.7,2.7,0,0,1-2.71,2.72Zm60.63-2.87h0a2.79,2.79,0,0,1,2.72-2.77h0a2.71,2.71,0,0,1,2.71,2.72h0a2.7,2.7,0,0,1-2.71,2.71h0A2.62,2.62,0,0,1,369.37,165.62Zm-60.08-6.18a2.76,2.76,0,0,1-1.86-3.37h0a2.73,2.73,0,0,1,3.37-1.86h0a2.75,2.75,0,0,1,1.86,3.37h0a2.69,2.69,0,0,1-2.62,2h0A1.94,1.94,0,0,1,309.29,159.44Zm58.82-2a2.76,2.76,0,0,1,1.81-3.42h0a2.71,2.71,0,0,1,3.42,1.81h0a2.76,2.76,0,0,1-1.81,3.42h0a2.07,2.07,0,0,1-.8.1h0A2.64,2.64,0,0,1,368.11,157.43Zm-55.75-6.54a2.75,2.75,0,0,1-.81-3.77h0a2.75,2.75,0,0,1,3.77-.81h0a2.75,2.75,0,0,1,.81,3.77h0a2.71,2.71,0,0,1-2.26,1.26h0A2.65,2.65,0,0,1,312.36,150.89Zm52.28-.91a2.75,2.75,0,0,1,.81-3.77h0a2.75,2.75,0,0,1,3.77.81h0a2.74,2.74,0,0,1-.75,3.77h0a2.82,2.82,0,0,1-1.51.45h0A2.93,2.93,0,0,1,364.64,150Zm-46.9-6.38a2.65,2.65,0,0,1,.3-3.82h0a2.65,2.65,0,0,1,3.82.3h0a2.71,2.71,0,0,1-.3,3.82h0a2.65,2.65,0,0,1-1.76.65h0A2.75,2.75,0,0,1,317.74,143.6Zm41.42.15a2.67,2.67,0,0,1-.3-3.82h0a2.66,2.66,0,0,1,3.82-.3h0a2.67,2.67,0,0,1,.31,3.82h0a2.69,2.69,0,0,1-2.07,1h0A2.58,2.58,0,0,1,359.16,143.75Zm-34.23-5.68a2.78,2.78,0,0,1,1.35-3.62h0a2.78,2.78,0,0,1,3.62,1.36h0a2.78,2.78,0,0,1-1.35,3.62h0a3,3,0,0,1-1.11.25h0A2.75,2.75,0,0,1,324.93,138.07Zm27.25,1.31a2.73,2.73,0,0,1-1.41-3.57h0a2.73,2.73,0,0,1,3.57-1.41h0a2.73,2.73,0,0,1,1.41,3.57h0a2.78,2.78,0,0,1-2.52,1.61h0A2.61,2.61,0,0,1,352.18,139.38Zm-18.81-4.58a2.74,2.74,0,0,1,2.32-3.07h0a2.73,2.73,0,0,1,3.06,2.32h0a2.71,2.71,0,0,1-2.31,3.06h0c-.1,0-.25,0-.4,0h0A2.7,2.7,0,0,1,333.37,134.8Zm10.81,2.31a2.75,2.75,0,0,1-2.36-3.06h0a2.77,2.77,0,0,1,3.07-2.37h0a2.77,2.77,0,0,1,2.36,3.07h0a2.75,2.75,0,0,1-2.72,2.36h0A.42.42,0,0,1,344.18,137.11Z"></path><g class="cls-3"><path class="cls-4" d="M335.94,162a1.41,1.41,0,0,1,0-2.82,1.38,1.38,0,0,1,1.4,1.41,1.43,1.43,0,0,1-1.4,1.41m0-1.51a.1.1,0,1,0,.1.1.11.11,0,0,0-.1-.1"></path><path class="cls-4" d="M344.79,162a1.41,1.41,0,1,1,1.4-1.41,1.4,1.4,0,0,1-1.4,1.41m0-1.51a.1.1,0,1,0,0,.2.1.1,0,1,0,0-.2"></path><polygon class="cls-4" points="353.43 179.7 327.24 179.7 327.24 158.18 329.35 158.18 329.35 177.59 351.32 177.59 351.32 156.02 331.51 156.02 331.51 153.91 353.43 153.91 353.43 179.7"></polygon><path class="cls-4" d="M345.54,161.25H344V153a3.67,3.67,0,1,0-7.34,0v8.3h-1.51V153a5.18,5.18,0,0,1,10.36,0Z"></path><rect class="cls-4" x="334.53" y="159.18" width="2.77" height="2.77"></rect><rect class="cls-4" x="343.38" y="159.18" width="2.77" height="2.77"></rect><path class="cls-4" d="M330,155a1.71,1.71,0,1,1-1.71-1.71A1.69,1.69,0,0,1,330,155"></path></g><path class="cls-2" d="M323.52,317.15h-.6l.05-4.83a40.19,40.19,0,0,0,7.74-.65l.85,4.78A47.59,47.59,0,0,1,323.52,317.15Zm-9.3-.95a47.12,47.12,0,0,1-8.3-2.62l1.91-4.42a42.66,42.66,0,0,0,7.39,2.36ZM340,314l-1.81-4.47A39.46,39.46,0,0,0,345,306l2.61,4.07A44,44,0,0,1,340,314Zm-41.68-4.67a47.29,47.29,0,0,1-6.64-5.58l-.05,0,1.41-1.26,2.06-2.06.05,0h0a39.7,39.7,0,0,0,5.94,5Zm56.21-4.78-1-1.1-2.36-2.37.05-.05h0a39.75,39.75,0,0,0,5-5.88l4,2.77a46.67,46.67,0,0,1-5.58,6.63Zm-68.28-7.64a44.35,44.35,0,0,1-4-7.74l4.48-1.81a38.78,38.78,0,0,0,3.57,6.89Zm78.18-6.64L360,288.39a42.11,42.11,0,0,0,2.36-7.39l4.73,1A55.17,55.17,0,0,1,364.39,290.3Zm-84.61-9.5a43.89,43.89,0,0,1-.76-8.09v-.56l4.83.05v.51a39.07,39.07,0,0,0,.65,7.24ZM368,273.31l-4.82-.05v-.55a38.39,38.39,0,0,0-.66-7.19l4.78-.86a43.86,43.86,0,0,1,.75,8A2.43,2.43,0,0,0,368,273.31Zm-83.25-8.85-4.73-1a47.09,47.09,0,0,1,2.61-8.3l4.43,1.91A44.39,44.39,0,0,0,284.71,264.46ZM360.37,258a38.11,38.11,0,0,0-3.57-6.89l4.07-2.62a45.61,45.61,0,0,1,4,7.75Zm-69.58-7.8-4-2.76a47.51,47.51,0,0,1,5.63-6.69l.1-.1,3.37,3.47-.1,0A47.3,47.3,0,0,0,290.79,250.23ZM352,245.06l-.1-.1A38.57,38.57,0,0,0,346,240l2.77-4a43.67,43.67,0,0,1,6.58,5.58l.05.1Zm-50-5.69-2.61-4.07a48.93,48.93,0,0,1,7.74-4l1.76,4.47A48.73,48.73,0,0,0,302,239.37Zm37.25-3.11a42.15,42.15,0,0,0-7.39-2.37l1-4.72a43.41,43.41,0,0,1,8.3,2.66Zm-22.87-2.57-.86-4.77a45.35,45.35,0,0,1,8.7-.71l-.05,4.83A40.64,40.64,0,0,0,316.33,233.69Z"></path><g class="cls-3"><path class="cls-4" d="M324.37,281.46a2.73,2.73,0,0,1,0-5.43,2.74,2.74,0,0,1,0,5.43Zm1.71-7.34h-3.37l-.5-13.78h4.43Z"></path></g><g class="cls-3"><polygon class="cls-4" points="349.76 287.99 298.23 287.84 320.85 248.98 323.22 250.38 303.01 285.07 344.99 285.23 325.03 250.38 327.44 249.03 349.76 287.99"></polygon></g><g class="cls-3"><circle class="cls-4" cx="324.12" cy="246.56" r="2.26"></circle></g><line class="cls-5" x1="220.7" y1="214.59" x2="302.65" y2="182.92"></line><line class="cls-5" x1="220.7" y1="214.59" x2="274.5" y2="246.77"></line><g class="cls-6"><path class="cls-7" d="M97.58,274.12"></path></g><g class="cls-6"><path class="cls-7" d="M97.23,224.09"></path></g><g class="cls-3"><path class="cls-7" d="M88.33,217.25"></path></g><g class="cls-3"><path class="cls-7" d="M95.22,271.4"></path></g><g class="cls-3"><path class="cls-7" d="M86.47,206"></path></g><g class="cls-3"><path class="cls-7" d="M88.48,198.25"></path></g><g class="cls-3"><path class="cls-7" d="M154.09,215.34"></path></g><g class="cls-3"><path class="cls-7" d="M177.57,238.42"></path></g><g class="cls-6"><path class="cls-7" d="M151.68,188.7"></path></g><g class="cls-6"><path class="cls-7" d="M152.88,222.48"></path></g><g class="cls-6"><path class="cls-7" d="M177,241.89"></path></g><g class="cls-6"><path class="cls-7" d="M220.55,243.75"></path></g><g class="cls-3"><path class="cls-7" d="M154.89,201"></path></g><g class="cls-3"><path class="cls-7" d="M220,240.58"></path></g><path class="cls-8" d="M108.54,222.63a7.85,7.85,0,0,1-7.84-7.84,7.5,7.5,0,0,1,.35-2.36l2.11.65a6.42,6.42,0,0,0-.25,1.71,5.63,5.63,0,1,0,5.63-5.63,5.53,5.53,0,0,0-1.31.15l-.5-2.16a7.44,7.44,0,0,1,1.81-.2,7.84,7.84,0,0,1,0,15.68"></path><path class="cls-8" d="M120.25,236.61H96.83V235.5a11.71,11.71,0,1,1,23.42,0ZM99.14,234.4h18.8a9.47,9.47,0,0,0-18.8,0"></path><path class="cls-8" d="M104,208.05a1.81,1.81,0,1,1-1.81,1.81,1.8,1.8,0,0,1,1.81-1.81"></path><rect class="cls-8" x="152.63" y="218.01" width="4.68" height="18.05"></rect><rect class="cls-8" x="161.18" y="226.6" width="4.68" height="9.5"></rect><rect class="cls-8" x="169.78" y="221.63" width="4.68" height="14.43"></rect><rect class="cls-8" x="178.37" y="216.65" width="4.68" height="19.41"></rect><rect class="cls-8" x="186.92" y="221.63" width="4.68" height="14.43"></rect><rect class="cls-8" x="135.49" y="227.91" width="4.68" height="8.14"></rect><rect class="cls-8" x="144.03" y="222.93" width="4.68" height="13.12"></rect><rect class="cls-8" x="195.52" y="216.65" width="4.68" height="19.41"></rect><polygon class="cls-8" points="138.96 215.95 136.59 211.92 155.3 200.91 163.89 209.31 180.89 199.86 189.23 206.19 196.37 200.36 199.29 203.98 189.33 212.13 180.48 205.44 163.14 215.04 154.59 206.69 138.96 215.95"></polygon><rect class="cls-9" x="95.42" y="250.84" width="48.52" height="2.61"></rect><rect class="cls-9" x="95.42" y="258.38" width="48.52" height="2.61"></rect><rect class="cls-9" x="95.42" y="265.92" width="48.52" height="2.61"></rect><rect class="cls-9" x="154.69" y="250.84" width="48.52" height="2.61"></rect><rect class="cls-9" x="154.69" y="258.38" width="48.52" height="2.61"></rect><rect class="cls-9" x="154.69" y="265.92" width="17.5" height="2.61"></rect><polygon class="cls-10" points="226.24 292.82 68.27 293.17 68.07 199.96 78.83 199.96 79.03 282.36 215.43 282.06 215.22 189.55 88.88 189.85 88.83 179.09 225.98 178.74 226.24 292.82"></polygon><path class="cls-10" d="M82.25,184.32a8.73,8.73,0,1,1-8.75-8.75,8.76,8.76,0,0,1,8.75,8.75"></path><rect class="cls-10" x="115.38" y="297.69" width="62.64" height="7.69"></rect></svg> 