<?xml version="1.0" encoding="UTF-8"?> <svg xmlns="http://www.w3.org/2000/svg" id="Layer_2" data-name="Layer 2" viewBox="0 0 440 450"><defs><style>.cls-1,.cls-2,.cls-3,.cls-5{fill:#808b94;}.cls-1{opacity:0.25;isolation:isolate;}.cls-3,.cls-8{stroke:#fff;stroke-miterlimit:10;stroke-width:3.3px;}.cls-3,.cls-5,.cls-8{opacity:0.71;}.cls-4{fill:#009ca6;}.cls-6{fill:#2858a5;}.cls-7,.cls-8{fill:#ffe7b2;}</style></defs><rect class="cls-1" width="440" height="450"></rect><path class="cls-2" d="M231.35,247.58c-1.37,0-2.75-.05-4.11-.16l.32-4a48.74,48.74,0,0,0,7.83,0l.34,4.05C234.28,247.52,232.81,247.58,231.35,247.58Zm-10.42-1a52.23,52.23,0,0,1-8.16-2.37l1.45-3.8a47.6,47.6,0,0,0,7.52,2.18Zm21.1-.06-.82-4a49,49,0,0,0,7.51-2.21l1.46,3.79A50.85,50.85,0,0,1,242,246.48ZM207,241.54a52.51,52.51,0,0,1-7.15-4.57l2.46-3.24a48.57,48.57,0,0,0,6.6,4.22Zm49-.12-1.92-3.58a47.59,47.59,0,0,0,6.57-4.26l2.48,3.23A52,52,0,0,1,256,241.42Zm-61-8.63,1.43-1.44L195,232.78a51.76,51.76,0,0,1-5.57-6.37l3.27-2.42a48.45,48.45,0,0,0,5.13,5.88l0,0Zm73-.17-2.86-2.9c.24-.23.47-.46.7-.7a46.93,46.93,0,0,0,4.43-5.23l3.28,2.4a52.89,52.89,0,0,1-4.8,5.67Zm-82-11.56a51.83,51.83,0,0,1-3.55-7.72L186.2,212a47.61,47.61,0,0,0,3.27,7.11Zm91-.23-3.55-2a47.52,47.52,0,0,0,3.23-7.12l3.83,1.37A52.2,52.2,0,0,1,276.91,220.83Zm-96.34-13.6a51.72,51.72,0,0,1-1.23-8.4l4.06-.26a48.27,48.27,0,0,0,1.13,7.75ZM282.2,207l-4-.9a47.89,47.89,0,0,0,1.09-7.75l4.06.24A51.91,51.91,0,0,1,282.2,207Zm-98.82-14.29-4.06-.24A53,53,0,0,1,180.5,184l4,.89A48.32,48.32,0,0,0,183.38,192.69Zm95.93-.24a47.18,47.18,0,0,0-1.13-7.75l4-.91a52.78,52.78,0,0,1,1.22,8.41Zm-93.2-13.16-3.83-1.37a51.19,51.19,0,0,1,3.51-7.73l3.55,2A46.54,46.54,0,0,0,186.11,179.29Zm90.41-.22a47.72,47.72,0,0,0-3.27-7.12l3.54-2a51.83,51.83,0,0,1,3.55,7.72Zm-84-11.85-3.29-2.4a53.12,53.12,0,0,1,4.82-5.69l.73-.73,2.86,2.89L197,162A48.15,48.15,0,0,0,192.51,167.22Zm77.55-.2a49.69,49.69,0,0,0-5.15-5.9l2.79-3,.05.05a53,53,0,0,1,5.58,6.4Zm-68-9.59-2.48-3.23a52,52,0,0,1,7.13-4.61l1.92,3.58A47,47,0,0,0,202.06,157.43Zm58.35-.19a48.75,48.75,0,0,0-6.59-4.21l1.9-3.59a53.24,53.24,0,0,1,7.16,4.57ZM214,150.72l-1.47-3.8a52.53,52.53,0,0,1,8.15-2.4l.83,4A47.62,47.62,0,0,0,214,150.72Zm34.5-.11a48.19,48.19,0,0,0-7.52-2.17l.8-4a52.19,52.19,0,0,1,8.16,2.36Zm-21.18-3L227,143.6c1.46-.13,3-.19,4.41-.19s2.73.05,4.08.16l-.31,4.05c-1.25-.09-2.53-.14-3.78-.14S228.64,147.53,227.29,147.65Z"></path><path class="cls-3" d="M183.84,229.26"></path><path class="cls-4" d="M226.36,211.47l-.2-2.65c-.59-5.52,1.18-11.54,6.08-17.67,4.42-5.41,6.87-9.39,6.87-14,0-5.21-3.14-8.68-9.32-8.78a17,17,0,0,0-9.91,3.17l-2.35-6.44c3.23-2.45,8.83-4.08,14-4.08,11.28,0,16.38,7.25,16.38,15,0,6.94-3.73,12-8.44,17.77-4.31,5.31-5.88,9.8-5.59,15l.1,2.65Zm-2.16,14.3c0-3.78,2.45-6.44,5.88-6.44s5.79,2.66,5.79,6.44c0,3.57-2.25,6.33-5.88,6.33C226.55,232.1,224.2,229.34,224.2,225.77Z"></path><path class="cls-2" d="M323.45,311.77c-.72,0-1.45-.07-2.17-.13l.51-6.08c.63.05,1.27.09,1.9.11Zm5.42-.08-.42-6.09c.63,0,1.26-.1,1.89-.17h.08l.7,6.06H331C330.31,311.57,329.59,311.64,328.87,311.69Zm-13-.8c-.71-.14-1.43-.3-2.13-.47l1.44-5.93c.61.15,1.24.29,1.86.41Zm20.55-.32-1.35-5.95c.62-.14,1.24-.29,1.85-.46l1.6,5.88C337.87,310.23,337.16,310.41,336.46,310.57Zm-27.87-1.71c-.68-.25-1.36-.51-2-.79l2.33-5.64c.58.25,1.18.48,1.77.69Zm35.12-.53-2.24-5.67c.58-.23,1.17-.48,1.75-.74l2.49,5.57C345.05,307.78,344.38,308.07,343.71,308.33Zm-42-2.6c-.63-.35-1.27-.71-1.88-1.09l3.16-5.21c.54.33,1.09.65,1.65.95Zm48.86-.73-3.09-5.26q.82-.48,1.62-1l3.32,5.12C351.77,304.26,351.15,304.64,350.53,305Zm-55.22-3.41c-.57-.44-1.14-.9-1.69-1.36l3.91-4.68c.49.41,1,.81,1.49,1.19Zm61.45-.92L352.9,296c.49-.4,1-.82,1.45-1.24l4.06,4.56C357.87,299.75,357.31,300.22,356.76,300.67Zm-67.1-4.14c-.5-.52-1-1.06-1.47-1.6l4.58-4c.42.47.85.94,1.29,1.4Zm72.59-1.08-4.53-4.09c.42-.47.84-.95,1.25-1.44l4.7,3.89C363.21,294.36,362.73,294.91,362.25,295.45Zm-77.41-4.78c-.41-.59-.82-1.2-1.21-1.8l5.15-3.28c.34.53.69,1.06,1.05,1.58Zm82.05-1.23-5.1-3.35c.35-.52.69-1.07,1-1.61L368,287.6C367.67,288.22,367.28,288.84,366.89,289.44ZM281,284.14c-.32-.64-.62-1.31-.91-2l5.58-2.46c.25.58.52,1.16.8,1.73Zm89.59-1.34L365,280.27c.27-.58.52-1.17.76-1.75l5.65,2.29C371.15,281.48,370.86,282.15,370.56,282.8Zm-92.41-5.7c-.21-.69-.41-1.39-.6-2.09l5.9-1.56c.16.6.33,1.22.52,1.82Zm95-1.42L367.31,274c.17-.61.33-1.23.48-1.85l5.93,1.4C373.56,274.27,373.37,275,373.18,275.68Zm-96.73-6c-.1-.62-.18-1.26-.25-1.89l0-.26,6.06-.65,0,.22c.06.56.13,1.12.22,1.67Zm98.22-1.48-6.05-.73c.07-.62.13-1.26.18-1.89l6.08.46C374.83,266.78,374.76,267.51,374.67,268.22ZM282,262.15h-6.1c0-.72,0-1.45.05-2.17l6.09.27C282,260.87,282,261.51,282,262.15Zm86.92-1.31c0-.63,0-1.27-.1-1.9l6.08-.46c.06.71.1,1.44.12,2.16Zm-86.41-5.33-6-.93c.12-.72.24-1.44.39-2.14l6,1.2C282.7,254.26,282.59,254.89,282.49,255.51Zm85.69-1.29c-.11-.62-.24-1.25-.39-1.86l5.94-1.38c.17.7.32,1.42.45,2.13ZM284,249l-5.81-1.85c.22-.69.46-1.38.71-2.06l5.72,2.11C284.42,247.83,284.21,248.44,284,249Zm82.45-1.25c-.21-.59-.44-1.19-.67-1.78l5.66-2.27c.27.67.52,1.36.76,2Zm-80-4.92-5.45-2.72c.32-.65.66-1.3,1-1.92l5.33,3C287.11,241.74,286.81,242.3,286.52,242.87Zm77.27-1.16c-.3-.56-.61-1.11-.94-1.66l5.25-3.11c.37.62.72,1.25,1.06,1.89Zm-73.85-4.55-5-3.52c.42-.59.85-1.18,1.29-1.75l4.82,3.74C290.69,236.12,290.31,236.64,289.94,237.16Zm70.27-1c-.38-.51-.78-1-1.18-1.5l4.71-3.87c.46.55.91,1.13,1.34,1.7Zm-66-4.08-4.39-4.24c.5-.52,1-1,1.54-1.52l4.2,4.42C295.08,231.12,294.63,231.57,294.19,232Zm61.62-.92c-.45-.43-.92-.87-1.39-1.29l4.06-4.55c.54.48,1.07,1,1.59,1.48Zm-56.65-3.5-3.7-4.86c.58-.43,1.17-.86,1.76-1.27l3.47,5C300.18,226.85,299.66,227.22,299.16,227.61Zm51.54-.76c-.51-.37-1-.73-1.57-1.08l3.33-5.11c.6.39,1.2.8,1.79,1.22Zm-46-2.85-2.91-5.36c.63-.35,1.28-.68,1.93-1l2.67,5.48C305.86,223.41,305.29,223.7,304.74,224Zm40.27-.6c-.57-.28-1.14-.56-1.72-.82L345.8,217c.66.3,1.32.61,2,.94Zm-34.2-2.11-2.05-5.74c.68-.25,1.37-.48,2.06-.69l1.79,5.83C312,220.88,311.4,221.08,310.81,221.29Zm28-.43c-.6-.19-1.21-.37-1.82-.54l1.62-5.88c.7.19,1.4.4,2.09.62Zm-21.62-1.32-1.15-6c.71-.13,1.43-.25,2.14-.36l.89,6C318.48,219.32,317.85,219.42,317.23,219.54Zm15.15-.24c-.62-.1-1.26-.18-1.88-.26l.7-6c.71.08,1.44.18,2.15.29Zm-8.53-.51-.23-6.1q.94,0,1.89,0h.27l0,6.1h-.26Z"></path><path class="cls-3" d="M285.87,227.42"></path><polygon class="cls-4" points="343.85 228.02 305.26 256.74 332.41 262.9 305.26 296.81 354.21 257.93 325.71 252.45 343.85 228.02"></polygon><path class="cls-2" d="M119.25,300.74a2.29,2.29,0,0,1,2.25-2.32h0a2.3,2.3,0,0,1,2.32,2.26h0a2.29,2.29,0,0,1-2.26,2.32h0A2.29,2.29,0,0,1,119.25,300.74Zm-5.62,1.79a2.29,2.29,0,0,1-2-2.56h0a2.28,2.28,0,0,1,2.57-2h0a2.27,2.27,0,0,1,2,2.56h0a2.28,2.28,0,0,1-2.26,2h0Zm13.24-2.11a2.28,2.28,0,0,1,1.9-2.61h0a2.27,2.27,0,0,1,2.61,1.9h0a2.29,2.29,0,0,1-1.9,2.62h0a2.19,2.19,0,0,1-.36,0h0A2.29,2.29,0,0,1,126.87,300.42Zm-21,.53a2.29,2.29,0,0,1-1.59-2.82h0a2.29,2.29,0,0,1,2.82-1.59h0a2.29,2.29,0,0,1,1.59,2.82h0a2.3,2.3,0,0,1-2.2,1.67h0A2.64,2.64,0,0,1,105.85,301ZM134.36,299a2.29,2.29,0,0,1,1.51-2.86h0a2.29,2.29,0,0,1,2.86,1.51h0a2.28,2.28,0,0,1-1.51,2.86h0a2.27,2.27,0,0,1-.67.1h0A2.29,2.29,0,0,1,134.36,299Zm-36-.73h0a2.3,2.3,0,0,1-1.18-3h0a2.29,2.29,0,0,1,3-1.18h0a2.28,2.28,0,0,1,1.17,3h0a2.27,2.27,0,0,1-2.09,1.37h0A2.3,2.3,0,0,1,98.37,298.29Zm43.21-1.72a2.29,2.29,0,0,1,1.09-3.05h0a2.28,2.28,0,0,1,3,1.09h0a2.29,2.29,0,0,1-1.09,3.05h0a2.22,2.22,0,0,1-1,.22h0A2.3,2.3,0,0,1,141.58,296.57Zm-50.24-2a2.3,2.3,0,0,1-.74-3.15h0a2.3,2.3,0,0,1,3.15-.74h0a2.28,2.28,0,0,1,.74,3.15h0a2.27,2.27,0,0,1-1.94,1.08h0A2.31,2.31,0,0,1,91.34,294.59Zm57-1.47A2.28,2.28,0,0,1,149,290h0a2.28,2.28,0,0,1,3.17.65h0a2.3,2.3,0,0,1-.65,3.17h0a2.35,2.35,0,0,1-1.26.38h0A2.31,2.31,0,0,1,148.38,293.12Zm-63.47-3.19a2.28,2.28,0,0,1-.27-3.22h0a2.27,2.27,0,0,1,3.22-.28h0a2.28,2.28,0,0,1,.28,3.22h0a2.28,2.28,0,0,1-1.75.81h0A2.3,2.3,0,0,1,84.91,289.93Zm69.71-1.18a2.28,2.28,0,0,1,.2-3.23h0a2.27,2.27,0,0,1,3.22.2h0a2.28,2.28,0,0,1-.19,3.22h0a2.28,2.28,0,0,1-1.52.58h0A2.31,2.31,0,0,1,154.62,288.75Zm-75.4-4.35a2.28,2.28,0,0,1,.18-3.23h0a2.29,2.29,0,0,1,3.23.18h0a2.29,2.29,0,0,1-.18,3.23h0a2.29,2.29,0,0,1-1.53.58h0A2.3,2.3,0,0,1,79.22,284.4Zm81-.86a2.31,2.31,0,0,1-.27-3.23h0a2.31,2.31,0,0,1,3.23-.27h0a2.3,2.3,0,0,1,.26,3.23h0a2.28,2.28,0,0,1-1.74.81h0A2.29,2.29,0,0,1,160.18,283.54Zm-85.82-5.42A2.29,2.29,0,0,1,75,275h0a2.28,2.28,0,0,1,3.17.63h0a2.29,2.29,0,0,1-.64,3.18h0a2.32,2.32,0,0,1-1.26.38h0A2.3,2.3,0,0,1,74.36,278.12Zm90.58-.54a2.28,2.28,0,0,1-.72-3.15h0a2.28,2.28,0,0,1,3.15-.72h0a2.28,2.28,0,0,1,.72,3.15h0a2.25,2.25,0,0,1-1.94,1.07h0A2.26,2.26,0,0,1,164.94,277.58Zm-94.49-6.37a2.28,2.28,0,0,1,1.07-3h0a2.29,2.29,0,0,1,3,1.08h0a2.29,2.29,0,0,1-1.08,3.05h0a2.3,2.3,0,0,1-1,.23h0A2.26,2.26,0,0,1,70.45,271.21ZM168.8,271a2.3,2.3,0,0,1-1.16-3h0a2.29,2.29,0,0,1,3-1.17h0a2.29,2.29,0,0,1,1.16,3h0a2.29,2.29,0,0,1-2.09,1.36h0A2.35,2.35,0,0,1,168.8,271Zm-101.26-7.2A2.28,2.28,0,0,1,69,261h0a2.28,2.28,0,0,1,2.86,1.49h0a2.29,2.29,0,0,1-1.5,2.87h0a2.3,2.3,0,0,1-.68.11h0A2.29,2.29,0,0,1,67.54,263.82Zm104.15.14a2.29,2.29,0,0,1-1.58-2.82h0a2.3,2.3,0,0,1,2.83-1.58h0a2.28,2.28,0,0,1,1.57,2.82h0a2.28,2.28,0,0,1-2.2,1.67h0A2.27,2.27,0,0,1,171.69,264Zm-106-7.87h0a2.28,2.28,0,0,1,1.89-2.62h0a2.28,2.28,0,0,1,2.62,1.89h0A2.28,2.28,0,0,1,68.33,258h0a2.2,2.2,0,0,1-.36,0h0A2.29,2.29,0,0,1,65.71,256.09Zm107.85.48a2.29,2.29,0,0,1-2-2.57h0a2.3,2.3,0,0,1,2.57-2h0a2.29,2.29,0,0,1,2,2.58h0a2.28,2.28,0,0,1-2.26,2h0ZM65,248.18h0a2.28,2.28,0,0,1,2.24-2.33h0a2.28,2.28,0,0,1,2.33,2.25h0a2.27,2.27,0,0,1-2.24,2.32h0A2.28,2.28,0,0,1,65,248.18Zm107.06-1.46a2.29,2.29,0,0,1,2.27-2.31h0a2.3,2.3,0,0,1,2.31,2.27h0a2.3,2.3,0,0,1-2.27,2.31h0A2.29,2.29,0,0,1,172.06,246.72ZM67.41,242.8a2.29,2.29,0,0,1-2-2.56h0a2.29,2.29,0,0,1,2.56-2h0a2.29,2.29,0,0,1,2,2.56h0a2.3,2.3,0,0,1-2.27,2h0Zm104.07-3.35a2.26,2.26,0,0,1,1.91-2.6h0a2.28,2.28,0,0,1,2.61,1.91h0a2.3,2.3,0,0,1-1.92,2.61h0a1.94,1.94,0,0,1-.34,0h0A2.28,2.28,0,0,1,171.48,239.45Zm-102.9-4.18a2.3,2.3,0,0,1-1.6-2.82h0a2.34,2.34,0,0,1,.19-.46h0a2.09,2.09,0,0,1,.08-.49h0A2.28,2.28,0,0,1,70.09,230h0a2.28,2.28,0,0,1,1.55,2.84h0a2.17,2.17,0,0,1-.17.42h0a2.34,2.34,0,0,1-.07.45h0a2.29,2.29,0,0,1-2.21,1.68h0A2.6,2.6,0,0,1,68.58,235.27Zm101.28-2.93a2.28,2.28,0,0,1,1.53-2.85h0a2.28,2.28,0,0,1,2.85,1.52h0a2.31,2.31,0,0,1-1.52,2.86h0a2.63,2.63,0,0,1-.67.09h0A2.29,2.29,0,0,1,169.86,232.34Zm-98.71-5.25a2.29,2.29,0,0,1-1.14-3h0a2.29,2.29,0,0,1,3-1.14h0a2.29,2.29,0,0,1,1.14,3h0a2.31,2.31,0,0,1-2.09,1.34h0A2.27,2.27,0,0,1,71.15,227.09Zm96.1-1.56a2.3,2.3,0,0,1,1.11-3h0a2.28,2.28,0,0,1,3,1.11h0a2.29,2.29,0,0,1-1.11,3h0a2.34,2.34,0,0,1-1,.21h0A2.3,2.3,0,0,1,167.25,225.53ZM74.5,220.24a2.29,2.29,0,0,1-.7-3.16h0a2.27,2.27,0,0,1,3.16-.69h0a2.28,2.28,0,0,1,.69,3.16h0a2.3,2.3,0,0,1-1.93,1h0A2.28,2.28,0,0,1,74.5,220.24Zm89.21-1.08a2.28,2.28,0,0,1,.67-3.17h0a2.28,2.28,0,0,1,3.16.67h0a2.28,2.28,0,0,1-.67,3.16h0a2.2,2.2,0,0,1-1.24.38h0A2.29,2.29,0,0,1,163.71,219.16Zm-84.92-5.22a2.27,2.27,0,0,1-.24-3.22h0a2.27,2.27,0,0,1,3.22-.24h0A2.27,2.27,0,0,1,82,213.7h0a2.26,2.26,0,0,1-1.73.8h0A2.28,2.28,0,0,1,78.79,213.94Zm80.51-.59a2.29,2.29,0,0,1,.21-3.23h0a2.3,2.3,0,0,1,3.23.21h0a2.28,2.28,0,0,1-.21,3.22h0a2.29,2.29,0,0,1-1.51.57h0A2.27,2.27,0,0,1,159.3,213.35Zm-75.37-5a2.28,2.28,0,0,1,.23-3.23h0a2.28,2.28,0,0,1,3.22.23h0a2.29,2.29,0,0,1-.22,3.23h0a2.32,2.32,0,0,1-1.5.55h0A2.28,2.28,0,0,1,83.93,208.32Zm70.19-.09a2.29,2.29,0,0,1-.25-3.23h0a2.28,2.28,0,0,1,3.22-.25h0a2.29,2.29,0,0,1,.25,3.23h0a2.26,2.26,0,0,1-1.73.8h0A2.27,2.27,0,0,1,154.12,208.23Zm-64.3-4.75a2.29,2.29,0,0,1,.68-3.16h0a2.29,2.29,0,0,1,3.16.68h0a2.28,2.28,0,0,1-.68,3.16h0a2.25,2.25,0,0,1-1.24.37h0A2.28,2.28,0,0,1,89.82,203.48Zm58.44.42a2.3,2.3,0,0,1-.71-3.16h0a2.3,2.3,0,0,1,3.16-.71h0a2.3,2.3,0,0,1,.71,3.16h0a2.29,2.29,0,0,1-1.94,1.06h0A2.27,2.27,0,0,1,148.26,203.9Zm-51.92-4.37a2.29,2.29,0,0,1,1.12-3h0a2.29,2.29,0,0,1,3,1.12h0a2.29,2.29,0,0,1-1.12,3h0a2.3,2.3,0,0,1-1,.21h0A2.27,2.27,0,0,1,96.34,199.53Zm45.5.92a2.28,2.28,0,0,1-1.15-3h0a2.29,2.29,0,0,1,3-1.16h0a2.29,2.29,0,0,1,1.15,3h0a2.28,2.28,0,0,1-2.08,1.35h0A2.37,2.37,0,0,1,141.84,200.45Zm-38.49-3.92a2.29,2.29,0,0,1,1.53-2.85h0a2.29,2.29,0,0,1,2.85,1.54h0a2.29,2.29,0,0,1-1.54,2.85h0a2.37,2.37,0,0,1-.65.09h0A2.29,2.29,0,0,1,103.35,196.53ZM135,198a2.29,2.29,0,0,1-1.57-2.83h0a2.29,2.29,0,0,1,2.83-1.57h0a2.29,2.29,0,0,1,1.57,2.83h0a2.29,2.29,0,0,1-2.2,1.65h0A2.27,2.27,0,0,1,135,198Zm-24.28-3.39a2.3,2.3,0,0,1,1.93-2.6h0a2.3,2.3,0,0,1,2.6,1.93h0a2.29,2.29,0,0,1-1.93,2.59h0a1.87,1.87,0,0,1-.34,0h0A2.3,2.3,0,0,1,110.71,194.56Zm17.14,1.87a2.29,2.29,0,0,1-1.94-2.58h0a2.27,2.27,0,0,1,2.58-1.95h0a2.29,2.29,0,0,1,1.95,2.58h0a2.29,2.29,0,0,1-2.26,2h0Zm-9.56-2.77a2.28,2.28,0,0,1,2.27-2.3h0a2.28,2.28,0,0,1,2.3,2.28h0a2.29,2.29,0,0,1-2.28,2.29h0A2.28,2.28,0,0,1,118.29,193.66Z"></path><path class="cls-5" d="M172.63,221"></path><path class="cls-4" d="M112.29,239.08a2.71,2.71,0,1,1,2.7-2.7,2.71,2.71,0,0,1-2.7,2.7m0-2.94a.23.23,0,0,0-.23.24.23.23,0,0,0,.46,0,.23.23,0,0,0-.23-.24"></path><path class="cls-4" d="M129.59,239.08a2.71,2.71,0,1,1,2.7-2.7,2.7,2.7,0,0,1-2.7,2.7m0-2.94a.24.24,0,0,0-.24.24.24.24,0,0,0,.47,0,.24.24,0,0,0-.23-.24"></path><polygon class="cls-4" points="146.44 273.64 95.38 273.64 95.38 231.76 99.5 231.76 99.5 269.52 142.33 269.52 142.33 227.52 103.68 227.52 103.68 223.41 146.44 223.41 146.44 273.64"></polygon><path class="cls-4" d="M131.05,237.71h-2.93V221.58a7.18,7.18,0,0,0-14.36,0v16.13h-2.94V221.58a10.12,10.12,0,1,1,20.23,0Z"></path><rect class="cls-4" x="109.58" y="233.67" width="5.41" height="5.41"></rect><rect class="cls-4" x="126.88" y="233.67" width="5.41" height="5.41"></rect><path class="cls-4" d="M100.77,225.47a3.33,3.33,0,1,1-3.33-3.34,3.33,3.33,0,0,1,3.33,3.34"></path><polygon class="cls-6" points="170.23 177.59 131.57 177.59 131.57 154.77 134.21 154.77 134.21 174.95 167.6 174.95 167.6 152.31 136.67 152.31 136.67 149.67 170.23 149.67 170.23 177.59"></polygon><path class="cls-6" d="M135,151a2.14,2.14,0,1,1-2.13-2.13A2.13,2.13,0,0,1,135,151"></path><rect class="cls-6" x="143.13" y="180.14" width="15.34" height="3.44"></rect><path class="cls-6" d="M317.38,183.31a13,13,0,0,1-13-13,12.86,12.86,0,0,1,.6-3.9l3.52,1.11a9.29,9.29,0,0,0,8.86,12.08,9.29,9.29,0,0,0,0-18.57,9.09,9.09,0,0,0-2.15.25l-.85-3.6a13,13,0,1,1,3,25.61"></path><path class="cls-6" d="M336.72,206.4H298v-1.85a19.34,19.34,0,0,1,38.68,0Zm-34.88-3.69h31.08a15.65,15.65,0,0,0-31.08,0"></path><path class="cls-6" d="M309.81,159.2a3,3,0,1,1-3,3,3,3,0,0,1,3-3"></path><path class="cls-7" d="M118.21,159.73a2.74,2.74,0,1,1,2.38-2.73A2.59,2.59,0,0,1,118.21,159.73Zm1.69-5.87h-3.35L116,140.12h4.43Z"></path><polygon class="cls-7" points="137.72 163.41 97.89 163.41 115.27 133.31 117.12 134.37 101.6 161.27 134.01 161.27 118.5 134.41 120.36 133.34 137.72 163.41"></polygon><circle class="cls-7" cx="117.8" cy="131.43" r="1.73"></circle><polygon class="cls-6" points="268.65 311.71 213.27 311.71 213.27 279.03 217.04 279.03 217.04 307.93 264.87 307.93 264.87 275.5 220.57 275.5 220.57 271.73 268.65 271.73 268.65 311.71"></polygon><path class="cls-6" d="M218.22,273.62a3.06,3.06,0,1,1-3.06-3.06,3.06,3.06,0,0,1,3.06,3.06"></path><rect class="cls-6" x="229.83" y="315.37" width="21.97" height="4.93"></rect><path class="cls-7" d="M204.67,284.08a1.73,1.73,0,0,1,0-3.44,1.73,1.73,0,0,1,0,3.44Zm1.08-3.72h-2.12l-.35-8.68h2.8Z"></path><polygon class="cls-7" points="217 286.4 191.84 286.4 202.82 267.38 203.99 268.06 194.18 285.05 214.66 285.05 204.86 268.08 206.03 267.4 217 286.4"></polygon><circle class="cls-7" cx="204.42" cy="266.2" r="1.09"></circle><path class="cls-7" d="M336.48,182.77h-.58l.13-3.56a10.6,10.6,0,0,0,1.78-.06l.25,1.76.2,1.77h0A15.67,15.67,0,0,1,336.48,182.77Zm-4.58-.71a15.3,15.3,0,0,1-2.15-.86l1.57-3.19a12.9,12.9,0,0,0,1.65.66Zm10.3-.39-1.33-3.3a11.76,11.76,0,0,0,1.59-.79l1.82,3.06A15.46,15.46,0,0,1,342.2,181.67Zm-15.82-2.73a15,15,0,0,1-1.61-1.67L327.5,175a11.55,11.55,0,0,0,1.24,1.28Zm21.08-.81-2.56-2.48a10.76,10.76,0,0,0,1.14-1.37l2.9,2.06A16.94,16.94,0,0,1,347.46,178.13Zm-24.85-4.29a15.38,15.38,0,0,1-.8-2.18l3.43-1a11.13,11.13,0,0,0,.61,1.67Zm28.22-1.08-3.34-1.23a11.11,11.11,0,0,0,.48-1.71l3.49.7A15.85,15.85,0,0,1,350.83,172.76Zm-29.59-5.11v-.15a15.72,15.72,0,0,1,.15-2.17l3.52.51a13.1,13.1,0,0,0-.11,1.66v.12Zm26.93-.93c0-.18,0-.35-.05-.52a10.49,10.49,0,0,0-.2-1.25l3.47-.77a14.4,14.4,0,0,1,.27,1.62c0,.22,0,.45.06.68Zm-22.41-3.87-3.26-1.42a14.36,14.36,0,0,1,1.09-2.05l3,1.9A11.84,11.84,0,0,0,325.76,162.85Zm21.08-.81a10.24,10.24,0,0,0-.95-1.5l2.86-2.13a14.84,14.84,0,0,1,1.24,2Zm-18.25-3.15-2.41-2.62a15.77,15.77,0,0,1,1.82-1.44l2,3A10.77,10.77,0,0,0,328.59,158.89Zm15.13-.58a10.6,10.6,0,0,0-1.48-1l1.75-3.1a15.82,15.82,0,0,1,1.93,1.29Zm-11-1.89L331.64,153a15.74,15.74,0,0,1,2.25-.56l.61,3.5A11.24,11.24,0,0,0,332.77,156.42Zm6.59-.26a12.79,12.79,0,0,0-1.75-.3l.33-3.54a16.11,16.11,0,0,1,2.29.39Z"></path><path class="cls-8" d="M325,157.43"></path><path class="cls-7" d="M336.67,173.78a1.73,1.73,0,1,1,1.51-1.73A1.64,1.64,0,0,1,336.67,173.78Zm1.07-4.73h-2.12l-.34-8.68h2.79Z"></path></svg> 