<?xml version="1.0" encoding="UTF-8"?> <svg xmlns="http://www.w3.org/2000/svg" id="Layer_2" data-name="Layer 2" viewBox="0 0 440 450"><defs><style>.cls-1,.cls-3{fill:#808b94;}.cls-1{opacity:0.25;isolation:isolate;}.cls-2{fill:#009ca6;}.cls-4{fill:#fff;}</style></defs><rect class="cls-1" width="440" height="450"></rect><path class="cls-2" d="M144.56,285.44"></path><path class="cls-2" d="M141.62,282.05"></path><path class="cls-2" d="M214.73,212.4"></path><path class="cls-2" d="M213.25,221.29"></path><path class="cls-2" d="M215.72,194.62"></path><path class="cls-2" d="M249.46,307.13"></path><path class="cls-2" d="M281.94,315.4"></path><path class="cls-2" d="M279.22,303.7"></path><path class="cls-3" d="M327.46,226.32h0a2.73,2.73,0,0,1-2.48-2.94h0a2.71,2.71,0,0,1,2.93-2.48h0a2.73,2.73,0,0,1,2.49,2.93h0a2.73,2.73,0,0,1-2.71,2.5h-.23Zm7.89-2.69a2.72,2.72,0,0,1,2.22-3.14h0a2.73,2.73,0,0,1,3.14,2.22h0a2.73,2.73,0,0,1-2.23,3.14h0a2.32,2.32,0,0,1-.46,0h0A2.72,2.72,0,0,1,335.35,223.63Zm-18.67.4a2.71,2.71,0,0,1-1.68-3.45h0a2.71,2.71,0,0,1,3.45-1.69h0a2.72,2.72,0,0,1,1.69,3.46h0a2.73,2.73,0,0,1-2.58,1.83h0A2.76,2.76,0,0,1,316.68,224Zm28.76-2.75a2.73,2.73,0,0,1,1.38-3.59h0a2.72,2.72,0,0,1,3.59,1.38h0a2.72,2.72,0,0,1-1.38,3.59h0a2.65,2.65,0,0,1-1.1.23h0A2.73,2.73,0,0,1,345.44,221.28Zm-38.65-2.12a2.73,2.73,0,0,1-.77-3.77h0a2.71,2.71,0,0,1,3.77-.76h0a2.71,2.71,0,0,1,.76,3.76h0a2.7,2.7,0,0,1-2.26,1.22h0A2.74,2.74,0,0,1,306.79,219.16Zm47.86-2.66a2.71,2.71,0,0,1,.45-3.81h0a2.71,2.71,0,0,1,3.81.45h0a2.69,2.69,0,0,1-.45,3.81h0a2.64,2.64,0,0,1-1.67.59h0A2.71,2.71,0,0,1,354.65,216.5ZM298.43,212a2.71,2.71,0,0,1,.2-3.84h0a2.72,2.72,0,0,1,3.83.19h0a2.72,2.72,0,0,1-.19,3.84h0a2.72,2.72,0,0,1-1.82.7h0A2.72,2.72,0,0,1,298.43,212Zm64-2.36a2.72,2.72,0,0,1-.52-3.81h0a2.72,2.72,0,0,1,3.81-.52h0a2.73,2.73,0,0,1,.52,3.81h0a2.74,2.74,0,0,1-2.17,1.07h0A2.72,2.72,0,0,1,362.39,209.61Zm-70.27-6.68a2.71,2.71,0,0,1,1.13-3.67h0a2.71,2.71,0,0,1,3.67,1.14h0a2.72,2.72,0,0,1-1.13,3.67h0a2.77,2.77,0,0,1-1.27.31h0A2.69,2.69,0,0,1,292.12,202.93Zm76-1.93a2.71,2.71,0,0,1-1.44-3.56h0a2.72,2.72,0,0,1,3.56-1.45h0a2.71,2.71,0,0,1,1.45,3.56h0a2.7,2.7,0,0,1-2.5,1.66h0A2.82,2.82,0,0,1,368.16,201Zm-79.94-8.38a2.74,2.74,0,0,1,2-3.28h0a2.72,2.72,0,0,1,3.27,2h0a2.72,2.72,0,0,1-2,3.28h0a2.7,2.7,0,0,1-.63.07h0A2.73,2.73,0,0,1,288.22,192.62Zm83.4-1.4a2.71,2.71,0,0,1-2.28-3.09h0a2.72,2.72,0,0,1,3.09-2.28h0a2.71,2.71,0,0,1,2.28,3.09h0a2.71,2.71,0,0,1-2.68,2.31h0A2.73,2.73,0,0,1,371.62,191.22Zm-81.92-6.8a2.71,2.71,0,0,1-2.67-2.76h0a2.72,2.72,0,0,1,2.76-2.68h0a2.73,2.73,0,0,1,2.67,2.76h0a2.73,2.73,0,0,1-2.72,2.68h0Zm79.88-5.95h0a2.72,2.72,0,0,1,2.43-3h0a2.72,2.72,0,0,1,3,2.43h0a2.72,2.72,0,0,1-2.44,3h0l-.27,0h0A2.72,2.72,0,0,1,369.58,178.47Zm-79.08-4.39a2.72,2.72,0,0,1-1.91-3.34h0a3,3,0,0,1,.11-.32h0a3.38,3.38,0,0,1,.08-.34h0a2.71,2.71,0,0,1,3.36-1.85h0A2.73,2.73,0,0,1,294,171.6h0l-.1.28h0a2.46,2.46,0,0,1-.07.29h0a2.73,2.73,0,0,1-2.63,2h0A2.48,2.48,0,0,1,290.5,174.08Zm76.9-5a2.72,2.72,0,0,1,1.61-3.49h0a2.73,2.73,0,0,1,3.49,1.61h0a2.72,2.72,0,0,1-1.61,3.49h0a2.83,2.83,0,0,1-.94.17h0A2.72,2.72,0,0,1,367.4,169.05Zm-73.3-5.37a2.72,2.72,0,0,1-1-3.72h0a2.71,2.71,0,0,1,3.72-1h0a2.72,2.72,0,0,1,1,3.72h0a2.71,2.71,0,0,1-2.34,1.33h0A2.65,2.65,0,0,1,294.1,163.68ZM363,160.46a2.73,2.73,0,0,1,.71-3.78h0a2.72,2.72,0,0,1,3.77.7h0a2.71,2.71,0,0,1-.7,3.78h0a2.64,2.64,0,0,1-1.53.48h0A2.73,2.73,0,0,1,363,160.46Zm-63.05-5.38a2.71,2.71,0,0,1,0-3.84h0a2.72,2.72,0,0,1,3.85,0h0a2.73,2.73,0,0,1,0,3.84h0a2.74,2.74,0,0,1-1.92.8h0A2.7,2.7,0,0,1,299.9,155.08Zm56.63-1.84a2.72,2.72,0,0,1-.26-3.83h0a2.72,2.72,0,0,1,3.83-.26h0a2.71,2.71,0,0,1,.26,3.83h0a2.68,2.68,0,0,1-2,.93h0A2.69,2.69,0,0,1,356.53,153.24Zm-48.89-5a2.73,2.73,0,0,1,.95-3.73h0a2.73,2.73,0,0,1,3.73.95h0a2.73,2.73,0,0,1-.95,3.73h0a2.76,2.76,0,0,1-1.38.38h0A2.74,2.74,0,0,1,307.64,148.2Zm40.88-.35a2.71,2.71,0,0,1-1.21-3.65h0A2.71,2.71,0,0,1,351,143h0a2.71,2.71,0,0,1,1.2,3.64h0a2.7,2.7,0,0,1-2.43,1.5h0A2.63,2.63,0,0,1,348.52,147.85Zm-31.66-4.41a2.71,2.71,0,0,1,1.84-3.37h0a2.7,2.7,0,0,1,3.37,1.83h0a2.72,2.72,0,0,1-1.84,3.38h0a2.52,2.52,0,0,1-.77.11h0A2.72,2.72,0,0,1,316.86,143.44Zm22.54,1.18a2.71,2.71,0,0,1-2.07-3.24h0a2.73,2.73,0,0,1,3.24-2.07h0a2.73,2.73,0,0,1,2.07,3.24h0a2.72,2.72,0,0,1-2.65,2.13h0A3,3,0,0,1,339.4,144.62ZM327,141.11a2.7,2.7,0,0,1,2.62-2.8h0a2.71,2.71,0,0,1,2.81,2.61h0a2.72,2.72,0,0,1-2.62,2.82h-.1A2.72,2.72,0,0,1,327,141.11Z"></path><path class="cls-2" d="M332.29,208.61v-24.1h7.76l1.3-8.94h-9.06v-7c0-2.54,1.31-4,3.88-4H342v-8a43.24,43.24,0,0,0-6.36-.43c-8.52,0-12.82,4.73-12.82,11.79v7.72h-7.75v8.94h7.75v24.1Z"></path><path class="cls-3" d="M221.81,246.54h-.05c-.66,0-1.34,0-2-.07l.27-4.31c.6,0,1.19.05,1.79.05h.88l.15,4.32Zm6.38-.65-.86-4.24c.86-.18,1.73-.4,2.58-.66l1.27,4.14C230.2,245.43,229.19,245.69,228.19,245.89Zm-13.73-.19h-.06c-1-.23-2-.51-2.94-.83l1.37-4.11c.83.28,1.69.52,2.55.72l.06,0-.55,2.18Zm.43-2h0l0-.08Zm21.29-.53-1.93-3.88a26.57,26.57,0,0,0,2.33-1.3l2.29,3.67C238,242.17,237.1,242.68,236.18,243.14Zm-29.67-.4c-.91-.49-1.8-1-2.65-1.58l2.39-3.61a26.52,26.52,0,0,0,2.29,1.36Zm36.68-4.33-2.86-3.24c.66-.59,1.31-1.21,1.91-1.86l3.16,3A29.73,29.73,0,0,1,243.19,238.41Zm-43.56-.59c-.75-.7-1.47-1.45-2.15-2.21l3.24-2.87c.59.67,1.22,1.31,1.86,1.92ZM248.74,232l-3.6-2.39c.49-.74,1-1.51,1.37-2.29l3.81,2A29.39,29.39,0,0,1,248.74,232Zm-54.48-.75c-.54-.87-1-1.78-1.51-2.69l3.88-1.93c.39.79.83,1.57,1.3,2.33Zm58.19-6.85-4.1-1.37c.28-.84.52-1.7.73-2.57v-.07l4.23.93,0,.13C253.06,222.48,252.78,223.47,252.45,224.44Zm-61.7-.84c-.3-1-.55-2-.76-3l4.24-.86c.18.86.4,1.73.66,2.58Zm63.33-7.55-4.32-.26c0-.56.05-1.12.05-1.68,0-.33,0-.66,0-1l4.33-.16c0,.39,0,.77,0,1.16C254.14,214.75,254.12,215.4,254.08,216.05Zm-64.72-.79c0-.37,0-.73,0-1.1,0-.65,0-1.32.06-2l4.32.26c0,.58-.05,1.16-.05,1.72,0,.32,0,.64,0,1Zm59.88-6.77a25.91,25.91,0,0,0-.67-2.59l4.14-1.27c.3,1,.56,2,.77,3Zm-54.84-.71-4.23-.92,0-.11c.22-.93.49-1.91.81-2.87l4.11,1.37C194.84,206.08,194.6,206.93,194.4,207.78Zm52.43-6.21a24.31,24.31,0,0,0-1.31-2.33l3.67-2.3a30.83,30.83,0,0,1,1.51,2.69ZM197,201l-3.82-2a29.39,29.39,0,0,1,1.58-2.65l3.61,2.38C197.83,199.4,197.37,200.17,197,201Zm45.78-5.46c-.59-.66-1.22-1.31-1.87-1.91l2.95-3.17c.75.7,1.48,1.44,2.16,2.21Zm-41.52-.5L198,192c.7-.74,1.44-1.47,2.21-2.15l2.87,3.25A24,24,0,0,0,201.21,195Zm36-4.3c-.75-.49-1.52-.95-2.3-1.36l2-3.82a29.74,29.74,0,0,1,2.65,1.57Zm-30.34-.36-2.29-3.67c.86-.54,1.77-1,2.68-1.51l1.94,3.87C208.4,189.43,207.61,189.87,206.86,190.34Zm23.75-2.83c-.82-.27-1.66-.51-2.51-.71H228l1-4.22.07,0c1,.22,1.95.5,2.89.81Zm-17.09-.21-1.27-4.14c1-.3,2-.56,3-.76l.87,4.24A25.86,25.86,0,0,0,213.52,187.3Zm9.89-1.18a26.43,26.43,0,0,0-2.67,0l-.15-4.32a28.77,28.77,0,0,1,3.08,0Z"></path><path class="cls-2" d="M221.33,214.07a9.62,9.62,0,0,1-9.18-12.5l2.61.82a7.14,7.14,0,0,0-.31,2.06,6.88,6.88,0,1,0,6.88-6.87,7.14,7.14,0,0,0-1.6.18l-.63-2.66a9.85,9.85,0,0,1,2.23-.26,9.62,9.62,0,0,1,0,19.23"></path><path class="cls-2" d="M235.65,231.18H207v-1.37a14.33,14.33,0,1,1,28.65,0Zm-25.83-2.74h23a11.59,11.59,0,0,0-23,0"></path><path class="cls-2" d="M215.72,196.21a2.23,2.23,0,1,1-2.22,2.22,2.22,2.22,0,0,1,2.22-2.22"></path><path class="cls-3" d="M116.85,344l-.23-5.92c1.08,0,2.18-.13,3.28-.25l.77,5.88h-.14C119.33,343.83,118.08,343.93,116.85,344Zm-6.39-.15c-1.23-.11-2.48-.27-3.7-.47l1-5.85c1.07.18,2.17.32,3.26.41Zm16.48-1.27-1.42-5.75c1.06-.27,2.13-.57,3.16-.91l1.84,5.64C129.35,341.91,128.14,342.26,126.94,342.55Zm-26.4-.65c-1.19-.36-2.38-.77-3.53-1.21l2.13-5.53c1,.39,2.06.75,3.11,1.06Zm35.91-2.75-2.55-5.35c1-.47,2-1,2.91-1.52l2.95,5.14C138.68,338,137.57,338.62,136.45,339.15ZM91.21,338c-1.09-.59-2.17-1.22-3.21-1.89l3.2-5c.92.59,1.87,1.15,2.83,1.67Zm53.87-4.11-3.58-4.72c.87-.66,1.72-1.36,2.54-2.08l3.92,4.44C147,332.36,146.07,333.15,145.08,333.9Zm-62.23-1.57c-.94-.79-1.87-1.63-2.76-2.5l4.13-4.24c.79.76,1.61,1.5,2.44,2.2ZM152.47,327,148,323.11c.72-.82,1.41-1.68,2.07-2.55l4.73,3.57C154.08,325.12,153.29,326.09,152.47,327ZM75.81,325.1c-.78-1-1.52-2-2.21-3l4.9-3.32c.61.89,1.27,1.79,2,2.64Zm82.53-6.3-5.15-2.94c.54-.95,1.05-1.93,1.52-2.92l5.35,2.55C159.53,316.61,159,317.72,158.34,318.8Zm-88-2.21c-.56-1.1-1.08-2.24-1.56-3.39l5.48-2.26c.42,1,.88,2,1.37,3Zm92.07-7-5.63-1.85c.34-1,.64-2.09.9-3.15l5.76,1.41C163.16,307.17,162.82,308.38,162.43,309.56Zm-95.69-2.4c-.32-1.19-.6-2.42-.83-3.63l5.82-1.12c.2,1.07.45,2.15.74,3.2Zm97.84-7.49-5.89-.66c.12-1.08.2-2.18.24-3.27l5.92.21C164.81,297.19,164.72,298.45,164.58,299.67ZM65.1,297.2c-.07-1.07-.1-2.14-.1-3.19v-.53l5.93,0V294c0,.93,0,1.87.09,2.81Zm93.68-7.09c0-.33-.07-.66-.11-1-.08-.76-.19-1.53-.31-2.27l5.85-1c.14.84.26,1.71.36,2.57,0,.38.08.75.11,1.12Zm-87.43-2.19-5.87-.82c.17-1.23.4-2.46.66-3.67l5.79,1.26C71.7,285.75,71.5,286.84,71.35,287.92Zm85.74-6.56c-.32-1-.67-2.09-1.06-3.11l5.53-2.12c.44,1.16.85,2.34,1.21,3.53Zm-83.61-2.08-5.58-2c.42-1.16.88-2.33,1.39-3.46l5.41,2.41C74.26,277.22,73.85,278.25,73.48,279.28Zm80.2-6.14c-.52-1-1.08-1.91-1.67-2.82l5-3.21c.66,1,1.3,2.12,1.89,3.21Zm-76.37-1.9-5.06-3.08c.64-1.06,1.33-2.11,2-3.11l4.83,3.45C78.49,269.38,77.88,270.31,77.31,271.24Zm71.36-5.45c-.7-.84-1.44-1.65-2.2-2.44l4.24-4.14c.86.89,1.71,1.82,2.5,2.76Zm-66-1.66-4.34-4c.84-.91,1.73-1.8,2.63-2.64l4,4.35C84.21,262.55,83.43,263.33,82.68,264.13Zm59.6-4.55c-.85-.68-1.74-1.33-2.65-1.94l3.33-4.91c1,.7,2,1.44,3,2.21Zm-52.92-1.33-3.45-4.82c1-.72,2-1.41,3.11-2.06l3.08,5.07C91.17,257,90.25,257.61,89.36,258.25Zm45.42-3.47c-1-.5-2-1-3-1.38l2.27-5.47c1.14.47,2.28,1,3.39,1.56Zm-37.69-.95-2.41-5.42c1.14-.5,2.31-1,3.47-1.38l2,5.58C99.11,253,98.09,253.39,97.09,253.83Zm29.38-2.25c-1-.28-2.13-.53-3.2-.74l1.12-5.82c1.21.23,2.44.52,3.63.84Zm-20.92-.51-1.26-5.79c1.21-.26,2.44-.49,3.67-.66l.82,5.87C107.7,250.64,106.61,250.84,105.55,251.07Zm12.14-.93c-1.09-.07-2.19-.1-3.29-.08l-.08-5.93c1.24,0,2.49,0,3.73.09Z"></path><polygon class="cls-2" points="145.92 315.12 86.3 315.12 86.3 279.95 90.37 279.95 90.37 311.06 141.85 311.06 141.85 276.15 94.17 276.15 94.17 272.08 145.92 272.08 145.92 315.12"></polygon><path class="cls-2" d="M91.63,274.12a3.3,3.3,0,1,1-3.3-3.3,3.3,3.3,0,0,1,3.3,3.3"></path><rect class="cls-2" x="104.13" y="316.91" width="23.65" height="2.9"></rect><path class="cls-3" d="M128.26,176h0a2.79,2.79,0,0,1-2.37-3.16h0a2.77,2.77,0,0,1,3.15-2.37h0a2.78,2.78,0,0,1,2.38,3.15h0a2.79,2.79,0,0,1-2.77,2.4h0A2.61,2.61,0,0,1,128.26,176Zm6.91-2.38a2.79,2.79,0,0,1,2.36-3.17h0a2.8,2.8,0,0,1,3.17,2.37h0a2.8,2.8,0,0,1-2.36,3.17h0l-.41,0h0A2.79,2.79,0,0,1,135.17,173.63Zm-16.59-.43h0a2.8,2.8,0,0,1-1.39-3.7h0a2.8,2.8,0,0,1,3.71-1.39h0a2.79,2.79,0,0,1,1.38,3.7h0a2.8,2.8,0,0,1-2.55,1.64h0A2.81,2.81,0,0,1,118.58,173.2Zm25.71-1.45a2.8,2.8,0,0,1,1.36-3.72h0a2.8,2.8,0,0,1,3.71,1.37h0a2.79,2.79,0,0,1-1.36,3.71h0a2.88,2.88,0,0,1-1.17.26h0A2.8,2.8,0,0,1,144.29,171.75Zm-34.19-4h0a2.81,2.81,0,0,1-.29-3.95h0a2.8,2.8,0,0,1,4-.28h0a2.8,2.8,0,0,1,.28,3.94h0a2.78,2.78,0,0,1-2.12,1h0A2.8,2.8,0,0,1,110.1,167.76Zm42.41-.41a2.79,2.79,0,0,1,.26-3.94h0a2.8,2.8,0,0,1,3.94.26h0a2.8,2.8,0,0,1-.26,4h0a2.81,2.81,0,0,1-1.84.69h0A2.75,2.75,0,0,1,152.51,167.35Zm-49-7.21a2.78,2.78,0,0,1,.84-3.86h0a2.79,2.79,0,0,1,3.86.84h0a2.8,2.8,0,0,1-.84,3.86h0a2.79,2.79,0,0,1-1.51.44h0A2.78,2.78,0,0,1,103.5,160.14Zm55.66.69a2.8,2.8,0,0,1-.86-3.86h0a2.79,2.79,0,0,1,3.86-.86h0A2.81,2.81,0,0,1,163,160h0a2.8,2.8,0,0,1-2.37,1.3h0A2.75,2.75,0,0,1,159.16,160.83ZM99.31,151h0a2.79,2.79,0,0,1,1.89-3.47h0a2.8,2.8,0,0,1,3.47,1.9h0a2.79,2.79,0,0,1-1.89,3.47h0a2.74,2.74,0,0,1-.79.11h0A2.79,2.79,0,0,1,99.31,151Zm64.38,1.72a2.79,2.79,0,0,1-1.92-3.45h0a2.79,2.79,0,0,1,3.45-1.93h0a2.81,2.81,0,0,1,1.93,3.46h0a2.8,2.8,0,0,1-2.69,2h0A2.92,2.92,0,0,1,163.69,152.69Zm-63-8.9a2.79,2.79,0,0,1-2.79-2.8h0a2.8,2.8,0,0,1,2.8-2.79h0a2.8,2.8,0,0,1,2.79,2.81h0a2.8,2.8,0,0,1-2.79,2.78h0Zm62.24-3h0A2.8,2.8,0,0,1,165.7,138h0a2.79,2.79,0,0,1,2.8,2.78h0a2.79,2.79,0,0,1-2.77,2.81h0A2.79,2.79,0,0,1,162.92,140.83Zm-61.69-6.33A2.81,2.81,0,0,1,99.34,131h0a2.8,2.8,0,0,1,3.47-1.89h0a2.8,2.8,0,0,1,1.89,3.48h0a2.79,2.79,0,0,1-2.68,2h0A3.13,3.13,0,0,1,101.23,134.5Zm60.42-2.06a2.79,2.79,0,0,1,1.86-3.48h0a2.79,2.79,0,0,1,3.49,1.86h0a2.8,2.8,0,0,1-1.87,3.49h0a2.78,2.78,0,0,1-.81.11h0A2.8,2.8,0,0,1,161.65,132.44Zm-57.27-6.71a2.8,2.8,0,0,1-.82-3.87h0a2.79,2.79,0,0,1,3.86-.83h0a2.79,2.79,0,0,1,.82,3.87h0a2.77,2.77,0,0,1-2.34,1.28h0A2.83,2.83,0,0,1,104.38,125.73Zm53.67-1a2.79,2.79,0,0,1,.81-3.87h0a2.78,2.78,0,0,1,3.86.8h0a2.79,2.79,0,0,1-.8,3.87h0a2.77,2.77,0,0,1-1.53.46h0A2.79,2.79,0,0,1,158.05,124.76Zm-48.16-6.54a2.8,2.8,0,0,1,.3-4h0a2.8,2.8,0,0,1,3.94.3h0a2.81,2.81,0,0,1-.3,4h0a2.84,2.84,0,0,1-1.82.67h0A2.8,2.8,0,0,1,109.89,118.22Zm42.55.18a2.79,2.79,0,0,1-.32-3.94h0a2.78,2.78,0,0,1,3.93-.32h0a2.79,2.79,0,0,1,.32,3.94h0a2.77,2.77,0,0,1-2.13,1h0A2.78,2.78,0,0,1,152.44,118.4Zm-35.15-5.84a2.8,2.8,0,0,1,1.4-3.7h0a2.79,2.79,0,0,1,3.7,1.4h0A2.79,2.79,0,0,1,121,114h0a2.79,2.79,0,0,1-1.15.26h0A2.82,2.82,0,0,1,117.29,112.56Zm28,1.32a2.81,2.81,0,0,1-1.42-3.69h0a2.81,2.81,0,0,1,3.69-1.42h0a2.8,2.8,0,0,1,1.42,3.69h0a2.79,2.79,0,0,1-2.55,1.66h0A2.72,2.72,0,0,1,145.25,113.88ZM126,109.22a2.8,2.8,0,0,1,2.39-3.15h0a2.78,2.78,0,0,1,3.14,2.39h0a2.77,2.77,0,0,1-2.38,3.14h0a2.56,2.56,0,0,1-.39,0h0A2.79,2.79,0,0,1,126,109.22Zm11.09,2.37a2.8,2.8,0,0,1-2.4-3.14h0a2.8,2.8,0,0,1,3.14-2.4h0a2.8,2.8,0,0,1,2.4,3.14h0a2.79,2.79,0,0,1-2.77,2.42h0A2.36,2.36,0,0,1,137.08,111.59Z"></path><path class="cls-2" d="M128.57,137.07a1.43,1.43,0,1,1,1.43-1.42,1.43,1.43,0,0,1-1.43,1.42m0-1.55a.13.13,0,0,0-.12.13.13.13,0,0,0,.12.12.13.13,0,0,0,.13-.12.13.13,0,0,0-.13-.13"></path><path class="cls-2" d="M137.69,137.07a1.43,1.43,0,1,1,1.42-1.42,1.43,1.43,0,0,1-1.42,1.42m0-1.55a.13.13,0,0,0-.13.13.13.13,0,0,0,.13.12.13.13,0,0,0,.12-.12.13.13,0,0,0-.12-.13"></path><polygon class="cls-2" points="146.57 155.27 119.67 155.27 119.67 133.21 121.83 133.21 121.83 153.11 144.4 153.11 144.4 130.98 124.04 130.98 124.04 128.81 146.57 128.81 146.57 155.27"></polygon><path class="cls-2" d="M138.46,136.35h-1.55v-8.5a3.78,3.78,0,1,0-7.56,0v8.5H127.8v-8.5a5.33,5.33,0,0,1,10.66,0Z"></path><rect class="cls-2" x="127.15" y="134.22" width="2.85" height="2.85"></rect><rect class="cls-2" x="136.26" y="134.22" width="2.85" height="2.85"></rect><path class="cls-2" d="M122.5,129.9a1.76,1.76,0,1,1-1.75-1.76,1.75,1.75,0,0,1,1.75,1.76"></path><path class="cls-3" d="M301.71,327.5h-.43l.05-3.46a28.48,28.48,0,0,0,5.53-.46l.63,3.4A31.94,31.94,0,0,1,301.71,327.5Zm-6.62-.69a31.79,31.79,0,0,1-5.94-1.88l1.37-3.18a28.8,28.8,0,0,0,5.29,1.68Zm18.38-1.55L312.2,322a27.64,27.64,0,0,0,4.92-2.55l1.89,2.9A32,32,0,0,1,313.47,325.26Zm-29.77-3.34a31.82,31.82,0,0,1-4.75-4l0-.05,1-.91,1.48-1.48,0,0h0a28.16,28.16,0,0,0,4.23,3.57Zm40.15-3.39-.72-.81L321.45,316l0,0h0a28.62,28.62,0,0,0,3.56-4.22l2.85,2a31.52,31.52,0,0,1-4,4.72Zm-48.8-5.5a31.19,31.19,0,0,1-2.87-5.53l3.21-1.28a28.46,28.46,0,0,0,2.56,4.93Zm55.86-4.74-3.18-1.36a28.83,28.83,0,0,0,1.69-5.29l3.38.71A31.36,31.36,0,0,1,330.91,308.29Zm-60.46-6.77a32.25,32.25,0,0,1-.53-5.8v-.41l3.46,0v.37a28.9,28.9,0,0,0,.47,5.17Zm63-5.35-3.46-.05c0-.14,0-.27,0-.4a28.57,28.57,0,0,0-.47-5.14L333,290a31.73,31.73,0,0,1,.53,5.76C333.5,295.87,333.49,296,333.49,296.17ZM274,289.84l-3.38-.72a31.79,31.79,0,0,1,1.88-5.94l3.18,1.36A28.66,28.66,0,0,0,274,289.84ZM328,285.25a27.73,27.73,0,0,0-2.55-4.93l2.9-1.89a30.91,30.91,0,0,1,2.86,5.54Zm-49.69-5.57-2.85-2a31.87,31.87,0,0,1,4-4.76l.05,0,2.41,2.48-.05.05A28.31,28.31,0,0,0,278.35,279.68Zm43.7-3.68-.08-.08a28.62,28.62,0,0,0-4.18-3.53l2-2.85a33.16,33.16,0,0,1,4.72,4l0,.06Zm-35.73-4.08-1.88-2.9a31.53,31.53,0,0,1,5.54-2.85l1.28,3.21A28.82,28.82,0,0,0,286.32,271.92Zm26.61-2.22a27.73,27.73,0,0,0-5.28-1.68l.72-3.39a32.23,32.23,0,0,1,5.93,1.89Zm-16.34-1.85-.62-3.4a33,33,0,0,1,6.2-.52l0,3.46A29.32,29.32,0,0,0,296.59,267.85Z"></path><path class="cls-2" d="M302.34,303.22a2.52,2.52,0,0,1-2.34-2.65,2.49,2.49,0,0,1,2.36-2.61,2.47,2.47,0,0,1,2.29,2.62A2.49,2.49,0,0,1,302.34,303.22Zm1.66-5.68h-3.24l-.49-13.3h4.28Z"></path><polygon class="cls-2" points="320.47 306.67 283.65 306.56 299.81 278.77 301.51 279.77 287.08 304.59 317.05 304.69 302.79 279.8 304.51 278.82 320.47 306.67"></polygon><circle class="cls-2" cx="302.15" cy="277.05" r="1.6"></circle><rect class="cls-4" x="242.11" y="110.55" width="5.86" height="55.9"></rect><rect class="cls-4" x="242.11" y="270.82" width="5.86" height="55.9"></rect><rect class="cls-4" x="295.08" y="217.88" width="55.9" height="5.86" transform="translate(-0.42 0.61) rotate(-0.11)"></rect><rect class="cls-4" x="134.81" y="218.19" width="55.9" height="5.86" transform="translate(-0.42 0.31) rotate(-0.11)"></rect><path class="cls-4" d="M243.94,316.16a95.48,95.48,0,0,1-76.33-152.82l8.25,6.21a84.38,84.38,0,0,0-17.07,51.15A85.11,85.11,0,1,0,198,149l-5.58-8.68a95.47,95.47,0,1,1,51.57,175.82Z"></path><path class="cls-4" d="M191.27,153.54a9.56,9.56,0,1,1-9.56-9.56,9.57,9.57,0,0,1,9.56,9.56"></path></svg> 