<?xml version="1.0" encoding="UTF-8"?> <svg xmlns="http://www.w3.org/2000/svg" xmlns:xlink="http://www.w3.org/1999/xlink" id="Layer_2" data-name="Layer 2" viewBox="0 0 440 450"><defs><style>.cls-1,.cls-2{fill:none;}.cls-2{opacity:0.5;}.cls-3{fill:#808b94;opacity:0.25;isolation:isolate;}.cls-4{clip-path:url(#clip-path);}.cls-25,.cls-5{fill:#fff;}.cls-5{stroke:#fff;stroke-miterlimit:10;stroke-width:0.25px;opacity:0.8;}.cls-6{clip-path:url(#clip-path-2);}.cls-7{clip-path:url(#clip-path-3);}.cls-8{clip-path:url(#clip-path-4);}.cls-9{clip-path:url(#clip-path-5);}.cls-10{clip-path:url(#clip-path-6);}.cls-11{clip-path:url(#clip-path-7);}.cls-12{clip-path:url(#clip-path-8);}.cls-13{clip-path:url(#clip-path-9);}.cls-14{clip-path:url(#clip-path-10);}.cls-15{clip-path:url(#clip-path-11);}.cls-16{clip-path:url(#clip-path-12);}.cls-17{clip-path:url(#clip-path-13);}.cls-18{clip-path:url(#clip-path-14);}.cls-19{clip-path:url(#clip-path-15);}.cls-20{clip-path:url(#clip-path-16);}.cls-21{clip-path:url(#clip-path-17);}.cls-22{clip-path:url(#clip-path-18);}.cls-23{fill:#ffb000;}.cls-24{fill:#65b32e;}.cls-26{fill:#009ca6;}.cls-27{clip-path:url(#clip-path-19);}.cls-28{clip-path:url(#clip-path-20);}.cls-29{fill:#2858a5;}.cls-30{clip-path:url(#clip-path-21);}.cls-31{clip-path:url(#clip-path-22);}.cls-32{clip-path:url(#clip-path-23);}.cls-33{clip-path:url(#clip-path-24);}.cls-34{clip-path:url(#clip-path-25);}.cls-35{clip-path:url(#clip-path-26);}.cls-36{clip-path:url(#clip-path-27);}.cls-37{clip-path:url(#clip-path-28);}.cls-38{clip-path:url(#clip-path-29);}.cls-39{clip-path:url(#clip-path-30);}.cls-40{clip-path:url(#clip-path-31);}.cls-41{clip-path:url(#clip-path-32);}.cls-42{clip-path:url(#clip-path-33);}.cls-43{clip-path:url(#clip-path-34);}.cls-44{clip-path:url(#clip-path-35);}.cls-45{clip-path:url(#clip-path-36);}.cls-46{clip-path:url(#clip-path-37);}</style><clipPath id="clip-path"><rect class="cls-1" x="228.87" y="199.95" width="56.19" height="16.6"></rect></clipPath><clipPath id="clip-path-2"><rect class="cls-1" x="223.35" y="205.51" width="41.72" height="41.72"></rect></clipPath><clipPath id="clip-path-3"><rect class="cls-1" x="168.99" y="180.19" width="32.53" height="13.94"></rect></clipPath><clipPath id="clip-path-4"><rect class="cls-1" x="188.99" y="212.77" width="22.79" height="54.14"></rect></clipPath><clipPath id="clip-path-5"><rect class="cls-1" x="222.97" y="165.76" width="56.45" height="24.39"></rect></clipPath><clipPath id="clip-path-6"><rect class="cls-1" x="216.62" y="127.88" width="16.6" height="56.19"></rect></clipPath><clipPath id="clip-path-7"><rect class="cls-1" x="214.81" y="256" width="51.8" height="49.82"></rect></clipPath><clipPath id="clip-path-8"><rect class="cls-1" x="167.01" y="184.2" width="32.83" height="50.31"></rect></clipPath><clipPath id="clip-path-9"><rect class="cls-1" x="194.94" y="269.48" width="14.26" height="32.4"></rect></clipPath><clipPath id="clip-path-10"><rect class="cls-1" x="213.17" y="310.31" width="17.6" height="30.28"></rect></clipPath><clipPath id="clip-path-11"><rect class="cls-1" x="166.2" y="140.45" width="13.94" height="32.53"></rect></clipPath><clipPath id="clip-path-12"><rect class="cls-1" x="147.73" y="185.43" width="13.94" height="32.53"></rect></clipPath><clipPath id="clip-path-13"><rect class="cls-1" x="192.17" y="322.99" width="11.13" height="32.99"></rect></clipPath><clipPath id="clip-path-14"><rect class="cls-1" x="187.46" y="275.79" width="3.92" height="34.72"></rect></clipPath><clipPath id="clip-path-15"><rect class="cls-1" x="149.63" y="264.79" width="32.4" height="14.26"></rect></clipPath><clipPath id="clip-path-16"><rect class="cls-1" x="156.13" y="274.49" width="27.01" height="23.24"></rect></clipPath><clipPath id="clip-path-17"><rect class="cls-1" x="114.65" y="298.97" width="32.6" height="9.73"></rect></clipPath><clipPath id="clip-path-18"><rect class="cls-1" x="121.22" y="305.99" width="25.97" height="23.62"></rect></clipPath><clipPath id="clip-path-19"><rect class="cls-1" x="161.12" y="322.46" width="25.97" height="23.62"></rect></clipPath><clipPath id="clip-path-20"><rect class="cls-1" x="180.54" y="323.9" width="9.7" height="33.38"></rect></clipPath><clipPath id="clip-path-21"><rect class="cls-1" x="76.29" y="182.01" width="32.98" height="11.15"></rect></clipPath><clipPath id="clip-path-22"><rect class="cls-1" x="130.7" y="182.01" width="30.46" height="18.29"></rect></clipPath><clipPath id="clip-path-23"><rect class="cls-2" x="121.75" y="177.28" width="34.72" height="3.93"></rect></clipPath><clipPath id="clip-path-24"><rect class="cls-1" x="154.79" y="139.26" width="9" height="34.01"></rect></clipPath><clipPath id="clip-path-25"><rect class="cls-1" x="134.51" y="145.96" width="23.26" height="26.99"></rect></clipPath><clipPath id="clip-path-26"><rect class="cls-1" x="125.13" y="104.49" width="5.56" height="33.36"></rect></clipPath><clipPath id="clip-path-27"><rect class="cls-1" x="102.61" y="111.07" width="23.64" height="25.96"></rect></clipPath><clipPath id="clip-path-28"><rect class="cls-1" x="86.16" y="150.98" width="23.64" height="25.96"></rect></clipPath><clipPath id="clip-path-29"><rect class="cls-1" x="289.56" y="168.41" width="26.53" height="23.79"></rect></clipPath><clipPath id="clip-path-30"><rect class="cls-1" x="320.05" y="91.81" width="16.52" height="30.79"></rect></clipPath><clipPath id="clip-path-31"><rect class="cls-1" x="284.14" y="124.27" width="8.45" height="34.12"></rect></clipPath><clipPath id="clip-path-32"><rect class="cls-1" x="289.96" y="132.25" width="22.98" height="27.22"></rect></clipPath><clipPath id="clip-path-33"><rect class="cls-2" x="293.1" y="163.04" width="34.74" height="3.57"></rect></clipPath><clipPath id="clip-path-34"><rect class="cls-1" x="338.32" y="170.56" width="29.71" height="17.31"></rect></clipPath><clipPath id="clip-path-35"><rect class="cls-2" x="336.64" y="153.19" width="34.35" height="2.54" transform="translate(-30.36 192.54) rotate(-29.25)"></rect></clipPath><clipPath id="clip-path-36"><rect class="cls-1" x="324.43" y="122.95" width="34.14" height="4.53"></rect></clipPath><clipPath id="clip-path-37"><rect class="cls-1" x="325.4" y="199.26" width="32.21" height="13.8"></rect></clipPath></defs><rect class="cls-3" width="440" height="450"></rect><g class="cls-4"><rect class="cls-5" x="256.53" y="179.18" width="0.86" height="58.14" transform="translate(-13.17 399.1) rotate(-74.26)"></rect></g><g class="cls-6"><rect class="cls-5" x="243.78" y="197.31" width="0.86" height="58.14" transform="translate(-88.54 238.99) rotate(-45)"></rect></g><g class="cls-7"><rect class="cls-5" x="184.82" y="169.77" width="0.86" height="34.78" transform="translate(-58.03 287.98) rotate(-67.8)"></rect></g><g class="cls-8"><rect class="cls-5" x="171.32" y="239.41" width="58.14" height="0.86" transform="translate(-97.44 334.6) rotate(-67.77)"></rect></g><g class="cls-9"><rect class="cls-5" x="220.76" y="177.52" width="60.87" height="0.86" transform="translate(-49.33 111.26) rotate(-22.8)"></rect></g><g class="cls-10"><rect class="cls-5" x="195.85" y="155.55" width="58.14" height="0.86" transform="translate(13.79 330.16) rotate(-74.26)"></rect></g><g class="cls-11"><rect class="cls-5" x="205.2" y="280.48" width="71.01" height="0.86" transform="translate(-127.49 245.14) rotate(-43.86)"></rect></g><g class="cls-12"><rect class="cls-5" x="182.99" y="179.71" width="0.86" height="59.28" transform="translate(-84.15 132.68) rotate(-32.79)"></rect></g><rect class="cls-5" x="294.61" y="245.72" width="0.86" height="34.78" transform="translate(-51.59 453.18) rotate(-70.46)"></rect><rect class="cls-5" x="276.8" y="259.67" width="0.86" height="34.78" transform="translate(-61.2 79.35) rotate(-14.69)"></rect><g class="cls-13"><rect class="cls-5" x="201.64" y="268.29" width="0.86" height="34.78" transform="translate(-94.82 100.47) rotate(-22.77)"></rect></g><g class="cls-14"><polygon class="cls-5" points="230.09 340.59 213.17 310.75 213.86 310.31 230.78 340.15 230.09 340.59"></polygon></g><g class="cls-15"><rect class="cls-5" x="155.78" y="156.28" width="34.78" height="0.86" transform="translate(-37.35 257.84) rotate(-67.8)"></rect></g><g class="cls-16"><rect class="cls-5" x="137.31" y="201.26" width="34.78" height="0.86" transform="translate(-90.49 268.73) rotate(-67.8)"></rect></g><g class="cls-17"><polygon class="cls-5" points="202.53 355.98 192.17 323.28 192.93 322.99 203.3 355.69 202.53 355.98"></polygon></g><g class="cls-18"><rect class="cls-5" x="188.99" y="276.41" width="0.86" height="34.78" transform="translate(-25.08 17.78) rotate(-5.04)"></rect></g><g class="cls-19"><rect class="cls-5" x="148.44" y="271.48" width="34.78" height="0.86" transform="translate(-92.32 85.38) rotate(-22.77)"></rect></g><g class="cls-20"><rect class="cls-5" x="152.24" y="285.68" width="34.78" height="0.86" transform="translate(-145.17 178.71) rotate(-40.5)"></rect></g><g class="cls-21"><polygon class="cls-5" points="114.82 308.69 147.25 299.79 147.09 298.97 114.65 307.88 114.82 308.69"></polygon></g><g class="cls-22"><polygon class="cls-5" points="121.73 329.61 147.19 306.62 146.68 305.99 121.22 328.97 121.73 329.61"></polygon></g><path class="cls-23" d="M271.44,262.58a8.95,8.95,0,1,1,6.34-2.62,8.9,8.9,0,0,1-6.34,2.62"></path><path class="cls-23" d="M271.44,245.25a8.38,8.38,0,0,1,7.75,5.22,8.41,8.41,0,0,1,0,6.29,8.41,8.41,0,0,1-4.61,4.61,8.41,8.41,0,0,1-6.29,0,8.37,8.37,0,0,1,3.15-16.12m0-1.2a9.57,9.57,0,1,0,6.76,2.8,9.54,9.54,0,0,0-6.76-2.8"></path><path class="cls-24" d="M229.94,198.77a15.64,15.64,0,1,0-15.64,15.65,15.64,15.64,0,0,0,15.64-15.65"></path><path class="cls-25" d="M226,198.79a11.76,11.76,0,1,0-11.76,11.77A11.76,11.76,0,0,0,226,198.79"></path><path class="cls-24" d="M205.54,203.72a.57.57,0,1,0-.56.56.56.56,0,0,0,.56-.56"></path><path class="cls-24" d="M204.93,202.31a.56.56,0,0,0-1.12,0,.56.56,0,1,0,1.12,0"></path><path class="cls-24" d="M204.57,201a.56.56,0,1,0-1.12,0,.56.56,0,0,0,1.12,0"></path><path class="cls-24" d="M204.37,199.46a.56.56,0,1,0-.56.56.56.56,0,0,0,.56-.56"></path><path class="cls-24" d="M204.37,197.93a.56.56,0,1,0-.56.56.56.56,0,0,0,.56-.56"></path><path class="cls-24" d="M206.34,205a.56.56,0,1,0-1.12,0,.56.56,0,0,0,1.12,0"></path><path class="cls-24" d="M207.31,206.09a.57.57,0,0,0-1.13,0,.57.57,0,1,0,1.13,0"></path><path class="cls-24" d="M208.43,207.06a.56.56,0,1,0-1.12,0,.56.56,0,0,0,1.12,0"></path><path class="cls-24" d="M209.56,207.82a.57.57,0,1,0-.56.56.56.56,0,0,0,.56-.56"></path><path class="cls-24" d="M210.81,208.38a.57.57,0,0,0-.57-.56.56.56,0,0,0-.56.56.57.57,0,0,0,.56.57.58.58,0,0,0,.57-.57"></path><path class="cls-24" d="M212.17,208.91a.56.56,0,1,0-1.12,0,.56.56,0,0,0,1.12,0"></path><path class="cls-24" d="M213.58,209.27a.56.56,0,0,0-.56-.56.56.56,0,1,0,0,1.12.56.56,0,0,0,.56-.56"></path><path class="cls-24" d="M214.91,209.39a.57.57,0,0,0-.57-.56.56.56,0,0,0,0,1.12.57.57,0,0,0,.57-.56"></path><path class="cls-24" d="M216.23,209.27a.56.56,0,1,0-.56.56.56.56,0,0,0,.56-.56"></path><path class="cls-24" d="M217.64,209a.57.57,0,0,0-.56-.57.58.58,0,0,0-.57.57.57.57,0,0,0,.57.56.56.56,0,0,0,.56-.56"></path><path class="cls-24" d="M218.93,208.5a.57.57,0,0,0-.57-.56.57.57,0,0,0,0,1.13.57.57,0,0,0,.57-.57"></path><path class="cls-24" d="M220.21,207.86a.56.56,0,1,0-.56.56.56.56,0,0,0,.56-.56"></path><path class="cls-24" d="M221.34,207.06a.57.57,0,0,0-.56-.57.58.58,0,0,0-.57.57.57.57,0,0,0,.57.56.56.56,0,0,0,.56-.56"></path><path class="cls-24" d="M222.38,206.17a.56.56,0,1,0-1.12,0,.56.56,0,1,0,1.12,0"></path><path class="cls-24" d="M223.23,205.17a.57.57,0,1,0-1.13,0,.57.57,0,0,0,1.13,0"></path><path class="cls-24" d="M224,204a.56.56,0,1,0-.56.56A.56.56,0,0,0,224,204"></path><path class="cls-24" d="M224.6,202.88a.57.57,0,0,0-.57-.57.57.57,0,0,0,0,1.13.57.57,0,0,0,.57-.56"></path><path class="cls-24" d="M225.12,201.67a.57.57,0,1,0-.56.56.56.56,0,0,0,.56-.56"></path><path class="cls-24" d="M225.4,200.34a.56.56,0,0,0-.56-.56.57.57,0,0,0-.57.56.58.58,0,0,0,.57.57.57.57,0,0,0,.56-.57"></path><path class="cls-24" d="M225.44,199.06a.57.57,0,0,0-.56-.57.58.58,0,0,0-.57.57.57.57,0,0,0,.57.56.56.56,0,0,0,.56-.56"></path><path class="cls-24" d="M225.44,197.77a.56.56,0,0,0-.56-.56.56.56,0,1,0,0,1.12.56.56,0,0,0,.56-.56"></path><path class="cls-24" d="M225.24,196.56a.56.56,0,0,0-.56-.56.57.57,0,0,0-.57.56.58.58,0,0,0,.57.57.57.57,0,0,0,.56-.57"></path><path class="cls-24" d="M224.84,195.28a.58.58,0,0,0-.57-.57.57.57,0,0,0-.56.57.56.56,0,0,0,.56.56.57.57,0,0,0,.57-.56"></path><path class="cls-24" d="M224.27,194.11a.56.56,0,1,0-.56.56.56.56,0,0,0,.56-.56"></path><path class="cls-24" d="M223.63,192.89a.58.58,0,0,0-.62-.51.57.57,0,0,0,.11,1.13.57.57,0,0,0,.51-.62"></path><path class="cls-24" d="M204.53,196.52a.56.56,0,0,0-1.12,0,.56.56,0,1,0,1.12,0"></path><path class="cls-24" d="M204.89,195.24a.56.56,0,1,0-1.12,0,.56.56,0,0,0,1.12,0"></path><path class="cls-24" d="M205.46,194a.57.57,0,1,0-.57.56.56.56,0,0,0,.57-.56"></path><path class="cls-24" d="M206.18,192.82a.56.56,0,1,0-.56.57.56.56,0,0,0,.56-.57"></path><path class="cls-24" d="M206.91,191.7a.57.57,0,0,0-.57-.56.56.56,0,1,0,0,1.12.57.57,0,0,0,.57-.56"></path><path class="cls-24" d="M207.87,190.77a.56.56,0,0,0-.56-.56.57.57,0,0,0-.57.56.58.58,0,0,0,.57.57.57.57,0,0,0,.56-.57"></path><path class="cls-24" d="M209,190a.57.57,0,0,0-.57-.56.56.56,0,0,0,0,1.12A.57.57,0,0,0,209,190"></path><path class="cls-24" d="M210.12,189.29a.56.56,0,1,0-1.12,0,.56.56,0,1,0,1.12,0"></path><path class="cls-24" d="M211.25,188.72a.57.57,0,0,0-1.13,0,.57.57,0,1,0,1.13,0"></path><path class="cls-24" d="M212.45,188.36a.56.56,0,1,0-.56.56.56.56,0,0,0,.56-.56"></path><path class="cls-24" d="M213.74,188.16a.56.56,0,0,0-.56-.56.56.56,0,1,0,0,1.12.56.56,0,0,0,.56-.56"></path><path class="cls-24" d="M215,188.12a.57.57,0,0,0-.57-.56.56.56,0,0,0,0,1.12.57.57,0,0,0,.57-.56"></path><path class="cls-24" d="M216.35,188.16a.56.56,0,1,0-.56.56.56.56,0,0,0,.56-.56"></path><path class="cls-24" d="M217.64,188.48a.56.56,0,0,0-.56-.56.56.56,0,1,0,0,1.12.56.56,0,0,0,.56-.56"></path><path class="cls-24" d="M218.93,188.92a.57.57,0,0,0-.57-.56.57.57,0,0,0,0,1.13.57.57,0,0,0,.57-.57"></path><path class="cls-24" d="M220.05,189.45a.56.56,0,1,0-1.12,0,.56.56,0,0,0,1.12,0"></path><path class="cls-24" d="M221.1,190.13a.57.57,0,1,0-.57.56.56.56,0,0,0,.57-.56"></path><path class="cls-24" d="M222.1,190.93a.56.56,0,1,0-.56.57.56.56,0,0,0,.56-.57"></path><path class="cls-24" d="M222.91,191.9a.57.57,0,1,0-.57.56.56.56,0,0,0,.57-.56"></path><path class="cls-24" d="M214.34,189.65a9,9,0,0,1,3.49.7,9,9,0,0,1,4.77,11.75,8.74,8.74,0,0,1-1.92,2.85,8.93,8.93,0,0,1-2.85,1.93,9.05,9.05,0,0,1-7,0A9.15,9.15,0,0,1,208,205a9,9,0,0,1-1.92-9.83,8.94,8.94,0,0,1,8.26-5.47m0-.28a9.25,9.25,0,1,0,9.25,9.24,9.24,9.24,0,0,0-9.25-9.24"></path><path class="cls-26" d="M187.73,278.7A9,9,0,1,1,196,266.26a9,9,0,0,1-4.8,11.74,9,9,0,0,1-3.46.7Z"></path><path class="cls-26" d="M187.72,261.37a8.38,8.38,0,0,1,8.37,8.38,8.47,8.47,0,0,1-2.38,5.83,8.31,8.31,0,0,1-2.75,1.86,8.22,8.22,0,0,1-3.23.66,8.37,8.37,0,0,1-4.58-1.37A8.24,8.24,0,0,1,180,273a8.15,8.15,0,0,1-.65-3.26,8.25,8.25,0,0,1,.62-3.14,8.4,8.4,0,0,1,4.5-4.55,8.44,8.44,0,0,1,3.24-.65m0-1.21a9.57,9.57,0,1,0,8.82,5.87,9.49,9.49,0,0,0-8.82-5.87"></path><path class="cls-26" d="M211.23,313.62a6.92,6.92,0,0,1-2.68-13.3,7,7,0,0,1,2.67-.54,6.92,6.92,0,0,1,2.68,13.3,6.81,6.81,0,0,1-2.67.54Z"></path><path class="cls-26" d="M211.22,300.06a6.66,6.66,0,0,1,3.64,1.09,6.51,6.51,0,0,1,2.48,3,6.63,6.63,0,0,1-3.55,8.69,6.58,6.58,0,0,1-6.19-.57,6.47,6.47,0,0,1-2.49-3,6.63,6.63,0,0,1,3.55-8.69,6.66,6.66,0,0,1,2.56-.52m0-.56a7.2,7.2,0,1,0,6.64,4.42,7.19,7.19,0,0,0-6.64-4.42"></path><path class="cls-23" d="M191.34,324.31a6.72,6.72,0,1,1,2.61-.52,6.72,6.72,0,0,1-2.61.52Z"></path><path class="cls-26" d="M151.15,308.93a6.74,6.74,0,0,1-2.6-12.95,6.63,6.63,0,0,1,2.6-.52,6.74,6.74,0,0,1,0,13.47"></path><path class="cls-26" d="M151.15,295.74a6.45,6.45,0,0,1,2.5,12.4,6.35,6.35,0,0,1-2.5.51,6.54,6.54,0,0,1-3.53-1,6.46,6.46,0,0,1,1-11.36,6.52,6.52,0,0,1,2.5-.5h0m0-.56a7,7,0,1,0,0,14,6.89,6.89,0,0,0,2.72-.55,7,7,0,0,0-2.72-13.48"></path><path class="cls-23" d="M120.22,337.39a5.51,5.51,0,1,1,2.13-.43,5.59,5.59,0,0,1-2.13.43"></path><path class="cls-23" d="M120.21,326.59a5.35,5.35,0,0,1,2.9.86,5.28,5.28,0,0,1-.85,9.3,5.14,5.14,0,0,1-2,.42,5.26,5.26,0,0,1-4.88-3.25,5.24,5.24,0,0,1,0-4,5.28,5.28,0,0,1,4.89-3.29h0m0-.44a5.73,5.73,0,1,0,0,11.46,5.57,5.57,0,0,0,2.21-.45,5.73,5.73,0,0,0-2.22-11"></path><g class="cls-27"><polygon class="cls-5" points="161.63 346.08 187.09 323.1 186.58 322.46 161.12 345.45 161.63 346.08"></polygon></g><g class="cls-28"><polygon class="cls-5" points="181.31 357.28 190.24 324.16 189.47 323.9 180.54 357.02 181.31 357.28"></polygon></g><path class="cls-29" d="M180.14,364.45a5.47,5.47,0,0,1-3.11-1,5.51,5.51,0,1,1,6.22-9.09,5.5,5.5,0,0,1,1.44,7.66,5.51,5.51,0,0,1-4.55,2.39"></path><path class="cls-29" d="M180.15,353.65a5.29,5.29,0,0,1,0,10.58,5.28,5.28,0,0,1-5.2-4.31,5.24,5.24,0,0,1,.84-4,5.32,5.32,0,0,1,4.37-2.31h0m0-.44a5.74,5.74,0,1,0,3.23,1,5.72,5.72,0,0,0-3.23-1"></path><path class="cls-26" d="M202.7,364.21a5.47,5.47,0,0,1-4.41-2.2,5.53,5.53,0,0,1,1.1-7.72,5.51,5.51,0,1,1,3.31,9.92Z"></path><path class="cls-26" d="M202.69,353.41A5.35,5.35,0,0,1,205,354a5.22,5.22,0,0,1,1.91,1.58A5.29,5.29,0,0,1,202.7,364a5.38,5.38,0,0,1-2.33-.54,5.29,5.29,0,0,1,2.32-10m0-.44a5.64,5.64,0,0,0-3.43,1.15,5.72,5.72,0,1,0,3.43-1.15"></path><g class="cls-30"><polygon class="cls-5" points="76.29 192.4 108.98 182.01 109.27 182.78 76.58 193.16 76.29 192.4"></polygon></g><g class="cls-31"><rect class="cls-5" x="128.54" y="190.72" width="34.78" height="0.86" transform="translate(-76.49 99.71) rotate(-30.29)"></rect></g><g class="cls-32"><rect class="cls-5" x="121.72" y="178.81" width="34.78" height="0.86" transform="translate(-15.31 13.01) rotate(-5.07)"></rect></g><g class="cls-33"><rect class="cls-5" x="158.86" y="138.88" width="0.86" height="34.78" transform="translate(-32.22 41.74) rotate(-13.57)"></rect></g><g class="cls-34"><rect class="cls-5" x="145.71" y="142.07" width="0.86" height="34.78" transform="translate(-68.56 133.23) rotate(-40.53)"></rect></g><g class="cls-35"><polygon class="cls-5" points="125.14 104.55 129.87 137.86 130.7 137.8 125.97 104.49 125.14 104.55"></polygon></g><g class="cls-36"><polygon class="cls-5" points="102.61 111.58 125.61 137.03 126.25 136.51 103.25 111.07 102.61 111.58"></polygon></g><path class="cls-26" d="M162.53,186.51a9,9,0,1,1,3.47-.71,9,9,0,0,1-3.47.71Z"></path><path class="cls-26" d="M162.52,169.17a8.4,8.4,0,0,1,7.72,5.13,8.45,8.45,0,0,1,.65,3.25,8.38,8.38,0,0,1-5.12,7.7,8.4,8.4,0,0,1-7.82-.71,8.36,8.36,0,0,1-3.17-10.16,8.41,8.41,0,0,1,7.74-5.21m0-1.2a9.57,9.57,0,1,0,8.83,5.86,9.52,9.52,0,0,0-8.83-5.86"></path><path class="cls-26" d="M126.3,209.9a7,7,0,0,1-3.4-.89,6.89,6.89,0,1,1,3.4.89Z"></path><path class="cls-26" d="M126.29,196.34a6.7,6.7,0,0,1,3.26.86,6.6,6.6,0,1,1-3.26-.86m0-.56a7.19,7.19,0,1,0,6.22,3.57,7.14,7.14,0,0,0-6.22-3.57"></path><path class="cls-26" d="M100.34,115.58A5.51,5.51,0,0,1,98.21,105a5.41,5.41,0,0,1,2.13-.43,5.51,5.51,0,0,1,2.14,10.59,5.6,5.6,0,0,1-2.14.43"></path><path class="cls-26" d="M100.34,104.78a5.28,5.28,0,0,1,2,10.16,5.15,5.15,0,0,1-2,.42,5.31,5.31,0,0,1-2.89-.86,5.3,5.3,0,0,1,.84-9.31,5.4,5.4,0,0,1,2-.41h0m0-.44a5.82,5.82,0,0,0-2.22.44,5.73,5.73,0,0,0,2.22,11,5.61,5.61,0,0,0,2.22-.45,5.73,5.73,0,0,0-2.22-11"></path><g class="cls-37"><polygon class="cls-5" points="86.16 151.49 109.16 176.94 109.8 176.43 86.8 150.98 86.16 151.49"></polygon></g><g class="cls-38"><rect class="cls-5" x="302.39" y="162.92" width="0.86" height="34.78" transform="translate(-33.31 286.28) rotate(-48.27)"></rect></g><g class="cls-39"><polygon class="cls-5" points="336.57 92.14 320.79 122.6 320.05 122.27 335.82 91.81 336.57 92.14"></polygon></g><g class="cls-40"><rect class="cls-5" x="270.98" y="140.9" width="34.78" height="0.86" transform="translate(87.36 391.77) rotate(-77.36)"></rect></g><g class="cls-41"><rect class="cls-5" x="284.06" y="145.43" width="34.78" height="0.86" transform="translate(-3.88 283.42) rotate(-50.07)"></rect></g><g class="cls-42"><rect class="cls-5" x="310.04" y="147.44" width="0.86" height="34.78" transform="translate(121.96 461.51) rotate(-85.53)"></rect></g><g class="cls-43"><polygon class="cls-5" points="368.03 187.18 338.78 170.56 338.32 171.26 367.56 187.88 368.03 187.18"></polygon></g><g class="cls-44"><polygon class="cls-5" points="369.02 146.47 338.29 161.7 338.61 162.45 369.35 147.22 369.02 146.47"></polygon></g><path class="cls-26" d="M286.09,172.6a9,9,0,0,1-8.26-5.5A9,9,0,1,1,294.4,167a9,9,0,0,1-8.31,5.58Z"></path><path class="cls-26" d="M286.1,155.26a8.46,8.46,0,0,1,5.92,2.46,8.36,8.36,0,0,1,2.44,5.81,8.18,8.18,0,0,1-.62,3.26,8.31,8.31,0,0,1-3.13,3.82,8.38,8.38,0,0,1-7.77.76,8.32,8.32,0,0,1-4.55-4.5,8.31,8.31,0,0,1,0-6.4,8.39,8.39,0,0,1,7.75-5.21m0-1.2a9.57,9.57,0,1,0,3.61.71,9.56,9.56,0,0,0-3.61-.71"></path><path class="cls-26" d="M369.45,193.37A5.66,5.66,0,0,1,366.34,183a5.68,5.68,0,0,1,3.12-.94,5.77,5.77,0,0,1,2.13.42,5.67,5.67,0,0,1,3.1,7.38,5.53,5.53,0,0,1-2.12,2.58,5.6,5.6,0,0,1-3.12.94"></path><path class="cls-26" d="M369.46,182.28a5.38,5.38,0,0,1,2.05.4,5.44,5.44,0,0,1,3,7.09,5.45,5.45,0,0,1-7.09,3,5.44,5.44,0,0,1-3-7.09,5.45,5.45,0,0,1,5-3.38h0m0-.45a5.88,5.88,0,0,0-2.23,11.33,6,6,0,0,0,2.22.43,5.88,5.88,0,0,0,2.23-11.32,5.82,5.82,0,0,0-2.22-.44"></path><path class="cls-29" d="M369.45,153.41a5.51,5.51,0,0,1-5.1-7.6,5.51,5.51,0,1,1,5.1,7.6"></path><path class="cls-29" d="M369.46,142.6a5.29,5.29,0,0,1,4.89,7.29,5.22,5.22,0,0,1-2,2.42,5.31,5.31,0,0,1-2.92.87,5.29,5.29,0,0,1-2.91-9.7,5.32,5.32,0,0,1,2.92-.88h0m0-.44a5.74,5.74,0,1,0,2.16.43,5.73,5.73,0,0,0-2.16-.43"></path><g class="cls-45"><polygon class="cls-5" points="358.53 122.95 324.43 126.67 324.47 127.48 358.57 123.77 358.53 122.95"></polygon></g><path class="cls-23" d="M362.51,128.48a5.51,5.51,0,0,1-3-10.11,5.48,5.48,0,0,1,3-.91,5.51,5.51,0,1,1,0,11"></path><path class="cls-23" d="M362.52,117.24v.44a5.29,5.29,0,1,1-4.9,3.29,5.3,5.3,0,0,1,4.9-3.29v-.44m0,0a5.73,5.73,0,0,0-2.17,11,5.88,5.88,0,0,0,2.16.42,5.73,5.73,0,1,0,0-11.46"></path><path class="cls-23" d="M230.81,348.73a5.52,5.52,0,0,1-4.15-9.14,5.51,5.51,0,1,1,4.15,9.14h0"></path><path class="cls-23" d="M230.81,337.93a5.29,5.29,0,1,1-3.48,9.27,5.29,5.29,0,0,1,3.48-9.27m0-.44a5.73,5.73,0,1,0,3.77,1.41,5.7,5.7,0,0,0-3.77-1.41"></path><polygon class="cls-5" points="355.9 277.3 321.95 272.39 322.02 271.58 355.97 276.49 355.9 277.3"></polygon><polygon class="cls-5" points="273.7 336.24 279.8 303.16 278.99 302.95 272.89 336.03 273.7 336.24"></polygon><polygon class="cls-5" points="295.54 339.13 285.93 306.19 285.13 306.38 294.74 339.31 295.54 339.13"></polygon><polygon class="cls-5" points="329.19 309.81 319.58 276.88 318.78 277.07 328.39 310 329.19 309.81"></polygon><polygon class="cls-5" points="312.18 327.85 290.56 302.08 289.88 302.58 311.5 328.34 312.18 327.85"></polygon><g class="cls-46"><rect class="cls-5" x="341.07" y="188.94" width="0.85" height="34.44" transform="translate(21.6 444.47) rotate(-67.8)"></rect></g><path class="cls-29" d="M202.09,245a6.92,6.92,0,0,1-2.68-13.29,6.81,6.81,0,0,1,2.67-.54,6.91,6.91,0,0,1,2.68,13.29,6.81,6.81,0,0,1-2.67.54Z"></path><path class="cls-29" d="M202.08,231.44a6.74,6.74,0,0,1,3.64,1.08,6.63,6.63,0,0,1-1.07,11.67,6.48,6.48,0,0,1-2.56.52,6.64,6.64,0,0,1,0-13.27m0-.56a7.2,7.2,0,0,0,0,14.4,7,7,0,0,0,2.78-.57,7.2,7.2,0,0,0-2.79-13.83"></path><path class="cls-23" d="M231.36,139.1a7.1,7.1,0,0,1-1.88-.26,6.92,6.92,0,0,1,1.87-13.58,7,7,0,0,1,1.88.26,6.92,6.92,0,0,1,4.78,8.54,6.8,6.8,0,0,1-2.51,3.66,7,7,0,0,1-4.14,1.38Z"></path><path class="cls-23" d="M231.35,125.54a6.64,6.64,0,0,1,4,12,6.44,6.44,0,0,1-1.87,1,6.56,6.56,0,0,1-2.1.35,6.86,6.86,0,0,1-1.8-.25,6.64,6.64,0,0,1-2.18-11.7,6.44,6.44,0,0,1,1.87-1,6.56,6.56,0,0,1,2.1-.35m0-.56a7.2,7.2,0,0,0-1.95,14.13,7.41,7.41,0,0,0,2,.27,7.2,7.2,0,0,0,1.95-14.13,7.35,7.35,0,0,0-2-.27"></path><path class="cls-25" d="M160.7,182.74a6.9,6.9,0,0,1-3.72-1.09.35.35,0,0,1-.15-.43.36.36,0,0,1,.38-.23l.51,0a4.2,4.2,0,0,0,1.92-.45,2.64,2.64,0,0,1-1.55-1.66.34.34,0,0,1,.07-.35l0,0a2.7,2.7,0,0,1-.93-2v-.05a.37.37,0,0,1,.19-.29.27.27,0,0,1,.15-.05,2.83,2.83,0,0,1-.23-.57.36.36,0,0,1,.7-.19,1.9,1.9,0,0,0,.79,1.11.36.36,0,0,1,.15.41.37.37,0,0,1-.36.25,3.11,3.11,0,0,1-.6-.09,2,2,0,0,0,1.49,1.38.36.36,0,0,1,.29.34.38.38,0,0,1-.27.36,3.2,3.2,0,0,1-.54.09,2,2,0,0,0,1.57.84.36.36,0,0,1,.21.64,5,5,0,0,1-2.18,1,6.36,6.36,0,0,0,2.08.36.36.36,0,1,1,0,.72"></path><path class="cls-25" d="M160.7,182.74a.36.36,0,1,1,0-.72,6.14,6.14,0,0,0,6.2-6.2c0-.09,0-.19,0-.28a.35.35,0,0,1,.15-.31l.26-.2-.18,0a.35.35,0,0,1-.38-.24.35.35,0,0,1,.15-.42l.22-.16a3.06,3.06,0,0,1-.41.1.35.35,0,0,1-.34-.1,1.94,1.94,0,0,0-3.36,1.33,2.12,2.12,0,0,0,.05.44.35.35,0,0,1-.07.31.36.36,0,0,1-.3.13,6.73,6.73,0,0,1-2.81-.76.34.34,0,0,1-.15-.48.35.35,0,0,1,.48-.16,5.92,5.92,0,0,0,2.08.64v-.12a2.66,2.66,0,0,1,4.46-2,4.25,4.25,0,0,0,1.17-.48.36.36,0,0,1,.52.42,2.33,2.33,0,0,1-.21.49l0,0a.37.37,0,0,1,.42.1.35.35,0,0,1,0,.43,5,5,0,0,1-1.08,1.17v.12a7.15,7.15,0,0,1-1.78,4.66,6.64,6.64,0,0,1-5.14,2.26"></path><path class="cls-25" d="M157.37,175.53a2.69,2.69,0,0,1-.09-.7v-.12l.72,0v.09a1.7,1.7,0,0,0,.07.51Z"></path><path class="cls-25" d="M159.87,175.68a6.53,6.53,0,0,1-1.39-.94l.48-.54a6.15,6.15,0,0,0,1.24.84Z"></path><path class="cls-25" d="M158.56,173.8a.59.59,0,1,1-.58-.58.58.58,0,0,1,.58.58"></path><path class="cls-25" d="M187.7,314.18a.43.43,0,0,1-.86,0,.43.43,0,1,1,.86,0"></path><path class="cls-25" d="M191.42,321.93a.73.73,0,1,1,.73-.73.73.73,0,0,1-.73.73m0-1.08a.35.35,0,1,0,.35.35.35.35,0,0,0-.35-.35"></path><path class="cls-25" d="M194.52,321.93a.73.73,0,1,1,.73-.73.73.73,0,0,1-.73.73m0-1.08a.35.35,0,1,0,.35.35.35.35,0,0,0-.35-.35"></path><path class="cls-25" d="M195.74,319.18h-5.18a.27.27,0,1,1,0-.53h4.74l.53-2.57h-6a.27.27,0,1,1,0-.53h6.64Z"></path><polygon class="cls-25" points="195.29 320.3 190.61 320.3 189.26 314.45 188.07 314.45 188.07 313.92 189.68 313.92 191.03 319.77 195.29 319.77 195.29 320.3"></polygon><polygon class="cls-25" points="195.17 316.03 193.61 314.47 192.57 315.5 192.2 315.13 193.61 313.72 195.54 315.65 195.17 316.03"></polygon><polygon class="cls-25" points="190.93 315.94 190.56 315.56 191.83 314.29 193.11 315.56 192.73 315.94 191.83 315.04 190.93 315.94"></polygon><path class="cls-25" d="M228,340.51a.35.35,0,1,1-.34-.34.34.34,0,0,1,.34.34"></path><path class="cls-25" d="M230.91,346.64a.57.57,0,0,1-.57-.57.58.58,0,1,1,1.15,0,.57.57,0,0,1-.58.57m0-.85a.28.28,0,0,0-.27.28.28.28,0,0,0,.55,0,.28.28,0,0,0-.28-.28"></path><path class="cls-25" d="M233.37,346.64a.57.57,0,0,1-.58-.57.58.58,0,1,1,1.16,0,.57.57,0,0,1-.58.57m0-.85a.29.29,0,0,0-.28.28.28.28,0,0,0,.56,0,.29.29,0,0,0-.28-.28"></path><path class="cls-25" d="M234.33,344.47h-4.1a.22.22,0,0,1-.21-.21.21.21,0,0,1,.21-.21H234l.42-2h-4.74a.21.21,0,0,1-.21-.21.21.21,0,0,1,.21-.21h5.25Z"></path><polygon class="cls-25" points="233.98 345.35 230.27 345.35 229.2 340.72 228.26 340.72 228.26 340.3 229.54 340.3 230.6 344.93 233.98 344.93 233.98 345.35"></polygon><polygon class="cls-25" points="233.88 341.97 232.65 340.74 231.83 341.56 231.53 341.26 232.65 340.14 234.18 341.67 233.88 341.97"></polygon><polygon class="cls-25" points="230.53 341.9 230.23 341.61 231.24 340.59 232.25 341.61 231.95 341.9 231.24 341.19 230.53 341.9"></polygon><path class="cls-25" d="M209.84,310.77a5.38,5.38,0,0,1-2.89-.84.28.28,0,0,1-.11-.33.28.28,0,0,1,.3-.18l.39,0a3.33,3.33,0,0,0,1.49-.35,2,2,0,0,1-1.21-1.29.27.27,0,0,1,.06-.27l0,0a2,2,0,0,1-.73-1.56v0a.28.28,0,0,1,.15-.23.24.24,0,0,1,.12,0,1.85,1.85,0,0,1-.18-.44.28.28,0,0,1,.2-.34.27.27,0,0,1,.34.19,1.52,1.52,0,0,0,.61.86.28.28,0,0,1,.12.31.29.29,0,0,1-.28.2,2.44,2.44,0,0,1-.46-.07,1.5,1.5,0,0,0,1.15,1.06.29.29,0,0,1,.22.27.26.26,0,0,1-.2.27,1.54,1.54,0,0,1-.42.07,1.48,1.48,0,0,0,1.21.66.27.27,0,0,1,.26.19.28.28,0,0,1-.09.3,3.81,3.81,0,0,1-1.7.77,4.93,4.93,0,0,0,1.62.28.28.28,0,1,1,0,.55"></path><path class="cls-25" d="M209.84,310.77a.28.28,0,1,1,0-.55,4.75,4.75,0,0,0,4.79-4.8v-.22a.26.26,0,0,1,.11-.24l.2-.15-.14,0a.28.28,0,0,1-.29-.19.26.26,0,0,1,.12-.33l.17-.12-.32.08a.27.27,0,0,1-.26-.08,1.5,1.5,0,0,0-2.6,1,2,2,0,0,0,0,.35.3.3,0,0,1-.05.24.29.29,0,0,1-.23.1,5.33,5.33,0,0,1-2.18-.59.28.28,0,0,1-.12-.37.28.28,0,0,1,.38-.12,4.62,4.62,0,0,0,1.61.49v-.1a2.06,2.06,0,0,1,2.06-2.06,2.1,2.1,0,0,1,1.39.54,3.22,3.22,0,0,0,.9-.37.29.29,0,0,1,.32,0,.3.3,0,0,1,.09.31,2.43,2.43,0,0,1-.16.37h0a.28.28,0,0,1,.33.08.29.29,0,0,1,0,.33,4.29,4.29,0,0,1-.84.91v.09a5.53,5.53,0,0,1-1.38,3.61,5.14,5.14,0,0,1-4,1.74"></path><path class="cls-25" d="M207.26,305.2a2,2,0,0,1-.07-.55v-.09l.56,0v.07a1.33,1.33,0,0,0,.05.4Z"></path><path class="cls-25" d="M209.19,305.31a5.07,5.07,0,0,1-1.07-.73l.37-.42a4.55,4.55,0,0,0,1,.66Z"></path><path class="cls-25" d="M208.18,303.86a.45.45,0,0,1-.9,0,.45.45,0,1,1,.9,0"></path><path class="cls-25" d="M149.73,306.35a5.38,5.38,0,0,1-2.89-.84.3.3,0,0,1-.11-.33.29.29,0,0,1,.3-.19l.39,0a3.3,3.3,0,0,0,1.49-.35,2.12,2.12,0,0,1-1.21-1.29.29.29,0,0,1,.06-.27l0,0a2,2,0,0,1-.72-1.56v0a.27.27,0,0,1,.14-.23l.12,0a1.57,1.57,0,0,1-.18-.44.28.28,0,0,1,.2-.34.28.28,0,0,1,.34.2,1.48,1.48,0,0,0,.62.85.28.28,0,0,1,.11.32.27.27,0,0,1-.28.19,1.82,1.82,0,0,1-.46-.06,1.5,1.5,0,0,0,1.15,1.06.27.27,0,0,1,.22.26.27.27,0,0,1-.2.28,2,2,0,0,1-.42.07,1.52,1.52,0,0,0,1.21.65.29.29,0,0,1,.26.19.28.28,0,0,1-.09.31,3.85,3.85,0,0,1-1.7.76,4.68,4.68,0,0,0,1.62.28.29.29,0,0,1,.28.28.28.28,0,0,1-.28.28"></path><path class="cls-25" d="M149.73,306.35a.27.27,0,0,1-.28-.28.28.28,0,0,1,.28-.28,4.74,4.74,0,0,0,4.79-4.79v-.22a.29.29,0,0,1,.11-.24l.21-.16-.15,0a.26.26,0,0,1-.29-.18.27.27,0,0,1,.12-.33l.17-.12-.32.08a.31.31,0,0,1-.26-.09,1.51,1.51,0,0,0-2.6,1,1.27,1.27,0,0,0,0,.34.28.28,0,0,1-.06.25.33.33,0,0,1-.23.1,5.28,5.28,0,0,1-2.17-.59.26.26,0,0,1-.12-.37.27.27,0,0,1,.37-.12,4.85,4.85,0,0,0,1.61.49v-.1a2.06,2.06,0,0,1,2.06-2.06,2,2,0,0,1,1.39.54,3.22,3.22,0,0,0,.9-.37.29.29,0,0,1,.32,0,.27.27,0,0,1,.09.3,2.17,2.17,0,0,1-.16.38h0a.28.28,0,0,1,.33.08.27.27,0,0,1,0,.33,3.79,3.79,0,0,1-.84.9v.1a5.49,5.49,0,0,1-1.38,3.6,5.11,5.11,0,0,1-4,1.75"></path><path class="cls-25" d="M147.15,300.77a1.9,1.9,0,0,1-.07-.54v-.09l.56,0v.07a1.75,1.75,0,0,0,.05.4Z"></path><path class="cls-25" d="M149.09,300.89a5.26,5.26,0,0,1-1.08-.73l.37-.42a4.82,4.82,0,0,0,1,.66Z"></path><path class="cls-25" d="M148.07,299.43a.45.45,0,1,1-.45-.45.45.45,0,0,1,.45.45"></path><path class="cls-25" d="M126.28,207c-1,0-1.14,0-1.54,0a2.91,2.91,0,0,1-1-.19,2,2,0,0,1-.75-.49,2.17,2.17,0,0,1-.49-.74,3.23,3.23,0,0,1-.19-1c0-.4,0-.53,0-1.54s0-1.14,0-1.54a3.1,3.1,0,0,1,.19-1l.5.19a2.44,2.44,0,0,0-.15.81c0,.39,0,.52,0,1.52s0,1.13,0,1.52a2.44,2.44,0,0,0,.15.81,1.56,1.56,0,0,0,.37.57,1.74,1.74,0,0,0,.56.36,2.71,2.71,0,0,0,.82.16c.39,0,.52,0,1.52,0s1.12,0,1.51,0a2.71,2.71,0,0,0,.82-.16,1.74,1.74,0,0,0,.56-.36,1.56,1.56,0,0,0,.37-.57,2.44,2.44,0,0,0,.15-.81c0-.39,0-.52,0-1.52s0-1.12,0-1.52a2.44,2.44,0,0,0-.15-.81,1.52,1.52,0,0,0-.37-.56,1.61,1.61,0,0,0-.56-.37,2.71,2.71,0,0,0-.82-.16c-.39,0-.52,0-1.51,0s-1.13,0-1.52,0a2.71,2.71,0,0,0-.82.16l-.19-.5a3.17,3.17,0,0,1,1-.19c.4,0,.53,0,1.54,0s1.14,0,1.54,0a3.16,3.16,0,0,1,1,.19,1.88,1.88,0,0,1,.75.49,2.12,2.12,0,0,1,.49.75,3.1,3.1,0,0,1,.19,1c0,.4,0,.53,0,1.54s0,1.14,0,1.54a3.23,3.23,0,0,1-.19,1,2.17,2.17,0,0,1-.49.74,1.88,1.88,0,0,1-.75.49,2.89,2.89,0,0,1-1,.19c-.4,0-.54,0-1.54,0"></path><path class="cls-25" d="M126.28,201.4a1.59,1.59,0,1,1-1.6,1.59,1.59,1.59,0,0,1,1.6-1.59m0-.39a2,2,0,1,0,2,2,2,2,0,0,0-2-2"></path><path class="cls-25" d="M128.79,200.94a.47.47,0,0,1-.46.46.47.47,0,0,1,0-.93.47.47,0,0,1,.46.47"></path><path class="cls-25" d="M123.67,200a.43.43,0,0,1-.43.43.43.43,0,1,1,0-.86.43.43,0,0,1,.43.43"></path><path class="cls-25" d="M286.18,168a33.27,33.27,0,0,1-4.57-.25,1.81,1.81,0,0,1-1.27-1.27,14.89,14.89,0,0,1-.25-2.85,16.62,16.62,0,0,1,.2-2.64l.7.14a16.75,16.75,0,0,0-.18,2.5,14.83,14.83,0,0,0,.22,2.66,1.08,1.08,0,0,0,.77.76,41.92,41.92,0,0,0,8.77,0,1,1,0,0,0,.76-.76,15.55,15.55,0,0,0,0-5.33,1,1,0,0,0-.76-.76,31.32,31.32,0,0,0-4.39-.23,40.28,40.28,0,0,0-4.22.19l-.13-.7a38.08,38.08,0,0,1,4.35-.21,35,35,0,0,1,4.58.25,1.81,1.81,0,0,1,1.27,1.27,16.43,16.43,0,0,1,0,5.71,1.81,1.81,0,0,1-1.27,1.27,33.33,33.33,0,0,1-4.58.25"></path><path class="cls-26" d="M284.78,165.79v-4.33l3.75,2.17Zm.51-3.44v2.55l2.22-1.27Z"></path><path class="cls-25" d="M284.78,165.79v-4.33l3.75,2.17Zm.51-3.44v2.55l2.22-1.27Z"></path><path class="cls-25" d="M281.65,160.2a.58.58,0,1,1-.58-.58.58.58,0,0,1,.58.58"></path><polygon class="cls-25" points="206.31 241.23 198.03 241.23 198.03 236.34 198.57 236.34 198.57 240.69 205.78 240.69 205.78 235.8 199.11 235.8 199.11 235.26 206.31 235.26 206.31 241.23"></polygon><polygon class="cls-25" points="202.17 238.95 199.23 236.54 199.47 236.24 202.17 238.46 205.78 235.49 206.03 235.79 202.17 238.95"></polygon><path class="cls-25" d="M198.73,235.53a.43.43,0,1,1-.43-.43.43.43,0,0,1,.43.43"></path><path class="cls-25" d="M198.73,235.53a.43.43,0,1,1-.43-.43.43.43,0,0,1,.43.43"></path><path class="cls-25" d="M100.35,112.71a20.31,20.31,0,0,1-2.77-.15,1.08,1.08,0,0,1-.76-.76,9.41,9.41,0,0,1-.16-1.73,9.27,9.27,0,0,1,.13-1.59l.42.08a10.06,10.06,0,0,0-.11,1.51,9.15,9.15,0,0,0,.13,1.61.65.65,0,0,0,.46.46,25.25,25.25,0,0,0,5.31,0,.63.63,0,0,0,.46-.46,9.33,9.33,0,0,0,0-3.22A.63.63,0,0,0,103,108a18.21,18.21,0,0,0-2.65-.14,23.41,23.41,0,0,0-2.56.12l-.07-.43a24.34,24.34,0,0,1,2.63-.12,20.17,20.17,0,0,1,2.76.15,1.07,1.07,0,0,1,.77.77,9,9,0,0,1,.15,1.72,9.13,9.13,0,0,1-.15,1.73,1.08,1.08,0,0,1-.77.76,20.17,20.17,0,0,1-2.76.15"></path><path class="cls-25" d="M99.5,111.38v-2.62l2.27,1.31Zm.31-2.08v1.54l1.34-.77Z"></path><path class="cls-25" d="M99.5,111.38v-2.62l2.27,1.31Zm.31-2.08v1.54l1.34-.77Z"></path><path class="cls-25" d="M97.6,108a.35.35,0,0,1-.35.35.35.35,0,0,1,0-.7.35.35,0,0,1,.35.35"></path><path class="cls-25" d="M187.76,275.57c-1.49,0-1.69,0-2.28,0a4.44,4.44,0,0,1-1.45-.29,3,3,0,0,1-1.11-.72,3,3,0,0,1-.72-1.1,4.46,4.46,0,0,1-.28-1.46c0-.59,0-.78,0-2.27s0-1.69,0-2.28a4.45,4.45,0,0,1,.28-1.45l.74.29a3.46,3.46,0,0,0-.23,1.2c0,.58,0,.77,0,2.24s0,1.66,0,2.24a3.51,3.51,0,0,0,.23,1.2,2.29,2.29,0,0,0,.54.83,2.32,2.32,0,0,0,.83.55,3.79,3.79,0,0,0,1.21.22c.57,0,.77,0,2.24,0s1.66,0,2.24,0a3.78,3.78,0,0,0,1.2-.22A2.32,2.32,0,0,0,192,274a2.17,2.17,0,0,0,.54-.83,3.51,3.51,0,0,0,.23-1.2c0-.58,0-.77,0-2.24s0-1.66,0-2.24a3.46,3.46,0,0,0-.23-1.2,2.13,2.13,0,0,0-.54-.84,2.29,2.29,0,0,0-.83-.54,3.51,3.51,0,0,0-1.2-.23c-.58,0-.77,0-2.24,0s-1.67,0-2.24,0a3.52,3.52,0,0,0-1.21.23l-.28-.74a4.45,4.45,0,0,1,1.45-.28c.59,0,.79,0,2.28,0s1.68,0,2.27,0a4.57,4.57,0,0,1,1.46.28,3.09,3.09,0,0,1,1.1.72,3,3,0,0,1,.72,1.11,4.2,4.2,0,0,1,.28,1.45c0,.59,0,.79,0,2.28s0,1.68,0,2.27a4.21,4.21,0,0,1-.28,1.46,3,3,0,0,1-.72,1.1,3.09,3.09,0,0,1-1.1.72,4.56,4.56,0,0,1-1.46.29c-.59,0-.79,0-2.27,0"></path><path class="cls-25" d="M187.76,267.35a2.35,2.35,0,1,1-2.36,2.35,2.35,2.35,0,0,1,2.36-2.35m0-.57a2.92,2.92,0,1,0,2.92,2.92,2.92,2.92,0,0,0-2.92-2.92"></path><path class="cls-26" d="M191.19,266.89a.63.63,0,1,1-.63-.63.63.63,0,0,1,.63.63"></path><path class="cls-25" d="M183.91,265.21a.64.64,0,0,1-.64.64.64.64,0,0,1,0-1.28.64.64,0,0,1,.64.64"></path><path class="cls-25" d="M205.39,361.81h-5.27a.54.54,0,0,1-.54-.54v-4.9H200v4.9a.12.12,0,0,0,.12.12h5.27a.12.12,0,0,0,.12-.12V356a.12.12,0,0,0-.12-.12h-5v-.41h5a.54.54,0,0,1,.54.53v5.27a.54.54,0,0,1-.54.54"></path><path class="cls-25" d="M204,361.6h-.3v-2.44h.8l.07-.6h-.87v-.72c0-.25.07-.58.6-.58h.32v-.52l-.54,0a.93.93,0,0,0-1,1v.81h-.77v.6h.77v2.44h-.3v-2.14H202v-1.2h.77v-.51a1.22,1.22,0,0,1,1.3-1.33,6,6,0,0,1,.71,0H205v1.08h-.62c-.27,0-.3.09-.3.29v.42h.91l-.15,1.2H204Z"></path><path class="cls-25" d="M200.18,355.8a.34.34,0,0,1-.67,0,.34.34,0,1,1,.67,0"></path><polygon class="cls-25" points="372.8 150.37 366.1 150.37 366.1 146.42 366.54 146.42 366.54 149.94 372.37 149.94 372.37 145.97 366.98 145.97 366.98 145.54 372.8 145.54 372.8 150.37"></polygon><polygon class="cls-25" points="369.45 148.53 367.07 146.57 367.27 146.34 369.45 148.13 372.38 145.73 372.57 145.97 369.45 148.53"></polygon><path class="cls-25" d="M366.67,145.76a.35.35,0,0,1-.35.35.35.35,0,0,1-.35-.35.34.34,0,0,1,.35-.35.35.35,0,0,1,.35.35"></path><polygon class="cls-25" points="183.47 361.3 176.77 361.3 176.77 357.35 177.21 357.35 177.21 360.87 183.04 360.87 183.04 356.91 177.65 356.91 177.65 356.47 183.47 356.47 183.47 361.3"></polygon><polygon class="cls-25" points="180.12 359.46 177.74 357.51 177.94 357.27 180.12 359.06 183.05 356.66 183.24 356.9 180.12 359.46"></polygon><path class="cls-25" d="M177.34,356.69a.35.35,0,1,1-.35-.35.35.35,0,0,1,.35.35"></path><path class="cls-25" d="M177.34,356.69a.35.35,0,1,1-.35-.35.35.35,0,0,1,.35.35"></path><path class="cls-25" d="M369.55,190.89h-1.29a2.84,2.84,0,0,1-.82-.16,1.72,1.72,0,0,1-.62-.41,1.76,1.76,0,0,1-.41-.63,2.44,2.44,0,0,1-.16-.82c0-.33,0-.44,0-1.28s0-1,0-1.29a2.49,2.49,0,0,1,.16-.82l.42.16a2,2,0,0,0-.13.68c0,.33,0,.44,0,1.27s0,.94,0,1.26a1.87,1.87,0,0,0,.13.68,1.22,1.22,0,0,0,.3.47,1.21,1.21,0,0,0,.47.31,2,2,0,0,0,.68.13c.33,0,.44,0,1.27,0s.94,0,1.26,0a1.87,1.87,0,0,0,.68-.13,1.4,1.4,0,0,0,.78-.78,1.87,1.87,0,0,0,.13-.68c0-.32,0-.43,0-1.26s0-.94,0-1.27a2,2,0,0,0-.13-.68,1.14,1.14,0,0,0-.31-.47,1.38,1.38,0,0,0-.47-.31,2.13,2.13,0,0,0-.68-.12c-.32,0-.43,0-1.26,0s-.94,0-1.27,0a2.24,2.24,0,0,0-.68.12l-.16-.41a2.3,2.3,0,0,1,.82-.16c.34,0,.45,0,1.29,0s.95,0,1.28,0a2.31,2.31,0,0,1,.83.16,1.6,1.6,0,0,1,.62.41,1.64,1.64,0,0,1,.41.62,2.78,2.78,0,0,1,.16.82c0,.34,0,.45,0,1.29s0,.95,0,1.28a2.71,2.71,0,0,1-.16.82,1.76,1.76,0,0,1-.41.63,1.72,1.72,0,0,1-.62.41,2.85,2.85,0,0,1-.83.16h-1.28"></path><path class="cls-25" d="M369.55,186.25a1.33,1.33,0,1,1-1.33,1.33,1.33,1.33,0,0,1,1.33-1.33m0-.32a1.65,1.65,0,1,0,1.65,1.65,1.65,1.65,0,0,0-1.65-1.65"></path><path class="cls-25" d="M371.65,185.86a.39.39,0,1,1-.77,0,.39.39,0,0,1,.77,0"></path><path class="cls-25" d="M367.37,185a.36.36,0,1,1-.36-.36.36.36,0,0,1,.36.36"></path><path class="cls-25" d="M275.51,258.54l-.23-.2a5.74,5.74,0,0,0-7.66,0l-.22.21-.41-.46.23-.2a6.33,6.33,0,0,1,4.23-1.62,6.48,6.48,0,0,1,2.31.43,6.41,6.41,0,0,1,1.93,1.19l.23.21Z"></path><path class="cls-25" d="M268.11,248.93a.7.7,0,1,1-.7-.69.69.69,0,0,1,.7.69"></path><path class="cls-25" d="M271.45,260.08a6.48,6.48,0,0,1-6.47-6.47,6.4,6.4,0,0,1,1-3.48l.23-.36.72.46-.23.36a5.55,5.55,0,0,0-.88,3,5.61,5.61,0,1,0,5.61-5.61,5.51,5.51,0,0,0-2.31.49l-.39.18-.36-.78.39-.17a6.47,6.47,0,1,1,2.67,12.36"></path><path class="cls-25" d="M271.45,251a6.28,6.28,0,0,1-2.31-.44c-.32-.12-.9-.43-.92-.44l.29-.54s.56.3.85.42a5.77,5.77,0,0,0,5.92-1.07l.4.45a6.35,6.35,0,0,1-4.23,1.62"></path><path class="cls-25" d="M271.45,260c-1.46,0-2.7-1.7-3.15-4.32a.29.29,0,0,1,.06-.24.32.32,0,0,1,.24-.11h5.7a.32.32,0,0,1,.24.11.29.29,0,0,1,.06.24c-.45,2.62-1.69,4.32-3.15,4.32M269,256c.41,2,1.36,3.35,2.37,3.44a.29.29,0,0,1-.2-.28V256Zm2.78,0v3.16a.3.3,0,0,1-.19.28c1-.09,1.95-1.47,2.37-3.44Z"></path><path class="cls-25" d="M274.29,251.93h-5.68a.35.35,0,0,1-.24-.1.33.33,0,0,1-.06-.25c.46-2.58,1.69-4.25,3.14-4.25s2.68,1.67,3.14,4.25a.33.33,0,0,1-.06.25.35.35,0,0,1-.24.1m-2.54-.61h2.17c-.4-1.81-1.24-3.11-2.17-3.34Zm-2.77,0h2.16V248c-.92.23-1.76,1.53-2.16,3.34"></path><polygon class="cls-25" points="266.94 252.65 267.38 252.65 267.78 254.05 267.79 254.05 268.16 252.65 268.59 252.65 268.96 254.05 268.96 254.05 269.37 252.65 269.81 252.65 269.15 254.73 268.77 254.73 268.38 253.25 268.37 253.25 267.97 254.73 267.59 254.73 266.94 252.65"></polygon><polygon class="cls-25" points="270.01 252.65 270.45 252.65 270.86 254.05 270.86 254.05 271.23 252.65 271.67 252.65 272.03 254.05 272.04 254.05 272.45 252.65 272.88 252.65 272.23 254.73 271.85 254.73 271.46 253.25 271.45 253.25 271.05 254.73 270.67 254.73 270.01 252.65"></polygon><polygon class="cls-25" points="273.09 252.65 273.53 252.65 273.94 254.05 273.94 254.05 274.31 252.65 274.75 252.65 275.11 254.05 275.12 254.05 275.52 252.65 275.96 252.65 275.31 254.73 274.93 254.73 274.54 253.25 274.53 253.25 274.13 254.73 273.75 254.73 273.09 252.65"></polygon><rect class="cls-25" x="265.57" y="251.32" width="11.8" height="0.61"></rect><rect class="cls-25" x="265.57" y="255.35" width="11.8" height="0.61"></rect><path class="cls-25" d="M122.57,334.64l-.13-.12a3.23,3.23,0,0,0-2.17-.83,3.28,3.28,0,0,0-2.16.83l-.12.11-.23-.25.12-.12a3.58,3.58,0,0,1,2.39-.91,3.49,3.49,0,0,1,2.4.92l.13.11Z"></path><path class="cls-25" d="M118.39,329.21a.4.4,0,0,1-.79,0,.4.4,0,0,1,.79,0"></path><path class="cls-25" d="M120.27,335.5a3.65,3.65,0,0,1-3.07-5.62l.13-.2.4.26-.13.2a3.22,3.22,0,0,0-.5,1.71,3.17,3.17,0,1,0,3.17-3.17,3.23,3.23,0,0,0-1.3.28l-.22.1-.2-.44.22-.1a3.65,3.65,0,1,1,1.5,7"></path><path class="cls-25" d="M120.27,330.35a3.61,3.61,0,0,1-1.3-.24,4.77,4.77,0,0,1-.52-.26l.16-.3s.32.17.49.24a3.33,3.33,0,0,0,1.17.22,3.23,3.23,0,0,0,2.17-.83l.23.26a3.59,3.59,0,0,1-2.4.91"></path><path class="cls-25" d="M120.27,335.47c-.82,0-1.52-1-1.78-2.44a.18.18,0,0,1,0-.14.16.16,0,0,1,.13-.06h3.23a.18.18,0,0,1,.13.06.23.23,0,0,1,0,.14c-.26,1.48-1,2.44-1.79,2.44m-1.4-2.29c.24,1.11.77,1.89,1.34,1.94a.18.18,0,0,1-.11-.16v-1.78Zm1.58,0V335a.18.18,0,0,1-.11.16c.57-.05,1.1-.83,1.34-1.94Z"></path><path class="cls-25" d="M121.88,330.9h-3.21a.16.16,0,0,1-.13-.06.15.15,0,0,1,0-.14c.26-1.46,1-2.4,1.77-2.4s1.52.94,1.78,2.4a.18.18,0,0,1,0,.14.16.16,0,0,1-.13.06m-1.43-.34h1.22c-.22-1-.7-1.76-1.22-1.89Zm-1.57,0h1.22v-1.89c-.52.13-1,.87-1.22,1.89"></path><polygon class="cls-25" points="117.72 331.31 117.97 331.31 118.2 332.1 118.2 332.1 118.41 331.31 118.66 331.31 118.87 332.1 118.87 332.1 119.1 331.31 119.35 331.31 118.98 332.48 118.76 332.48 118.54 331.65 118.54 331.65 118.31 332.48 118.09 332.48 117.72 331.31"></polygon><polygon class="cls-25" points="119.46 331.31 119.71 331.31 119.94 332.1 119.94 332.1 120.15 331.31 120.4 331.31 120.6 332.1 120.61 332.1 120.84 331.31 121.08 331.31 120.72 332.48 120.5 332.48 120.28 331.65 120.28 331.65 120.05 332.48 119.83 332.48 119.46 331.31"></polygon><polygon class="cls-25" points="121.2 331.31 121.45 331.31 121.68 332.1 121.68 332.1 121.89 331.31 122.14 331.31 122.34 332.1 122.35 332.1 122.58 331.31 122.82 331.31 122.45 332.48 122.24 332.48 122.02 331.65 122.01 331.65 121.79 332.48 121.57 332.48 121.2 331.31"></polygon><rect class="cls-25" x="116.96" y="330.56" width="6.66" height="0.34"></rect><rect class="cls-25" x="116.96" y="332.83" width="6.66" height="0.34"></rect><path class="cls-25" d="M234.19,135.58l-.15-.14a4.06,4.06,0,0,0-2.66-1,3.9,3.9,0,0,0-2.64,1l-.16.14-.28-.32.15-.14a4.41,4.41,0,0,1,2.93-1.12,4.36,4.36,0,0,1,2.94,1.13l.16.14Z"></path><path class="cls-25" d="M229.07,128.93a.48.48,0,1,1-1,0,.48.48,0,1,1,1,0"></path><path class="cls-25" d="M231.38,136.64a4.48,4.48,0,0,1-3.77-6.88l.16-.25.5.32-.16.24a3.91,3.91,0,1,0,1.67-1.44l-.27.12-.24-.54.27-.12a4.32,4.32,0,0,1,1.84-.4,4.48,4.48,0,1,1,0,8.95"></path><path class="cls-25" d="M231.38,130.33a4.28,4.28,0,0,1-1.59-.3c-.23-.09-.62-.3-.64-.31l.2-.37s.39.21.59.29a4,4,0,0,0,4.09-.74l.28.31a4.37,4.37,0,0,1-2.93,1.12"></path><path class="cls-25" d="M231.38,136.6c-1,0-1.86-1.17-2.18-3a.21.21,0,0,1,.21-.25h4a.21.21,0,0,1,.21.25c-.32,1.81-1.17,3-2.19,3m-1.72-2.81c.29,1.37,1,2.32,1.65,2.39a.22.22,0,0,1-.14-.2v-2.19Zm1.94,0V136a.22.22,0,0,1-.14.2c.7-.07,1.35-1,1.64-2.39Z"></path><path class="cls-25" d="M233.35,131h-3.93a.21.21,0,0,1-.17-.08.21.21,0,0,1,0-.17c.32-1.79,1.17-2.94,2.17-2.94s1.86,1.15,2.18,2.94a.22.22,0,0,1-.05.17.21.21,0,0,1-.16.08m-1.75-.42h1.49c-.27-1.26-.86-2.16-1.49-2.32Zm-1.93,0h1.5v-2.32c-.64.16-1.22,1.06-1.5,2.32"></path><polygon class="cls-25" points="228.26 131.5 228.56 131.5 228.84 132.47 228.85 132.47 229.1 131.5 229.4 131.5 229.66 132.47 229.66 132.47 229.94 131.5 230.25 131.5 229.79 132.94 229.53 132.94 229.26 131.92 229.25 131.92 228.98 132.94 228.71 132.94 228.26 131.5"></polygon><polygon class="cls-25" points="230.39 131.5 230.69 131.5 230.97 132.47 230.98 132.47 231.24 131.5 231.53 131.5 231.79 132.47 231.79 132.47 232.07 131.5 232.38 131.5 231.92 132.94 231.66 132.94 231.39 131.92 231.38 131.92 231.11 132.94 230.84 132.94 230.39 131.5"></polygon><polygon class="cls-25" points="232.52 131.5 232.82 131.5 233.1 132.47 233.11 132.47 233.37 131.5 233.67 131.5 233.92 132.47 233.93 132.47 234.21 131.5 234.51 131.5 234.06 132.94 233.79 132.94 233.52 131.92 233.52 131.92 233.24 132.94 232.97 132.94 232.52 131.5"></polygon><rect class="cls-25" x="227.32" y="130.59" width="8.17" height="0.42"></rect><rect class="cls-25" x="227.32" y="133.37" width="8.17" height="0.42"></rect><path class="cls-25" d="M364.81,125.77l-.13-.12a3.22,3.22,0,0,0-1-.61,3.43,3.43,0,0,0-1.18-.22,3.19,3.19,0,0,0-2.16.83l-.13.11-.23-.25.13-.12a3.61,3.61,0,0,1,3.69-.67,3.6,3.6,0,0,1,1.09.67l.13.12Z"></path><path class="cls-25" d="M360.63,120.34a.4.4,0,0,1-.39.39.39.39,0,0,1-.39-.39.38.38,0,0,1,.39-.39.39.39,0,0,1,.39.39"></path><path class="cls-25" d="M362.52,126.63a3.65,3.65,0,0,1-3.08-5.62l.13-.2.4.26-.13.2a3.21,3.21,0,0,0-.49,1.71,3.17,3.17,0,1,0,3.17-3.17,3.08,3.08,0,0,0-1.31.28l-.22.1-.2-.44.22-.1a3.72,3.72,0,0,1,1.51-.32,3.65,3.65,0,1,1,0,7.3"></path><path class="cls-25" d="M362.52,121.48a3.66,3.66,0,0,1-1.31-.24c-.18-.07-.5-.25-.52-.26l.17-.3.48.24a3.34,3.34,0,0,0,1.18.22,3.26,3.26,0,0,0,2.16-.83l.23.26a3.58,3.58,0,0,1-2.39.91"></path><path class="cls-25" d="M362.52,126.6c-.83,0-1.53-1-1.78-2.44a.17.17,0,0,1,0-.14.18.18,0,0,1,.14-.06h3.22a.16.16,0,0,1,.13.06.18.18,0,0,1,0,.14c-.26,1.48-1,2.44-1.78,2.44m-1.41-2.29c.24,1.11.77,1.89,1.34,1.94a.18.18,0,0,1-.11-.16v-1.78Zm1.58,0v1.78a.18.18,0,0,1-.11.16c.57,0,1.1-.83,1.34-1.94Z"></path><path class="cls-25" d="M364.12,122h-3.21a.16.16,0,0,1-.13-.06.18.18,0,0,1,0-.14c.26-1.46,1-2.4,1.78-2.4s1.51.94,1.77,2.4a.15.15,0,0,1,0,.14.16.16,0,0,1-.13.06m-1.43-.34h1.22c-.22-1-.7-1.76-1.22-1.89Zm-1.57,0h1.22V119.8c-.52.13-1,.86-1.22,1.89"></path><polygon class="cls-25" points="359.97 122.44 360.21 122.44 360.44 123.23 360.45 123.23 360.66 122.44 360.9 122.44 361.11 123.23 361.11 123.23 361.34 122.44 361.59 122.44 361.22 123.61 361 123.61 360.78 122.78 360.78 122.78 360.55 123.61 360.34 123.61 359.97 122.44"></polygon><polygon class="cls-25" points="361.71 122.44 361.95 122.44 362.18 123.23 362.19 123.23 362.39 122.44 362.64 122.44 362.85 123.23 362.85 123.23 363.08 122.44 363.33 122.44 362.96 123.61 362.74 123.61 362.52 122.78 362.52 122.78 362.29 123.61 362.08 123.61 361.71 122.44"></polygon><polygon class="cls-25" points="363.44 122.44 363.69 122.44 363.92 123.23 363.92 123.23 364.13 122.44 364.38 122.44 364.58 123.23 364.59 123.23 364.82 122.44 365.07 122.44 364.69 123.61 364.48 123.61 364.26 122.78 364.26 122.78 364.03 123.61 363.81 123.61 363.44 122.44"></polygon><rect class="cls-25" x="359.2" y="121.69" width="6.66" height="0.34"></rect><rect class="cls-25" x="359.2" y="123.96" width="6.66" height="0.34"></rect><path class="cls-24" d="M223.34,198.62a9.06,9.06,0,1,0-9.05,9,9,9,0,0,0,9.05-9"></path><path class="cls-25" d="M213.27,193.53a.65.65,0,0,1-1.3,0,.73.73,0,0,1,.65-.65.65.65,0,0,1,.65.65"></path><path class="cls-25" d="M214.32,198.46a3,3,0,0,1-2.75-4.19l.74.32a2.05,2.05,0,0,0-.19.88,2.2,2.2,0,1,0,2.2-2.19,2,2,0,0,0-.6.08l-.21-.77a2.73,2.73,0,0,1,.81-.11,3,3,0,0,1,0,6"></path><path class="cls-25" d="M218.83,203.85h-9l0-.4a4.48,4.48,0,1,1,8.95,0Zm-8.17-.8H218a3.68,3.68,0,0,0-7.31,0"></path><path class="cls-23" d="M191.34,310.56a6.89,6.89,0,0,0-2.72.55,7,7,0,1,0,2.72-.55m0,.56a6.54,6.54,0,0,1,3.53,1.05,6.43,6.43,0,0,1,2.42,2.91,6.46,6.46,0,0,1-3.45,8.45,6.52,6.52,0,0,1-2.5.5,6.45,6.45,0,0,1-2.5-12.4,6.35,6.35,0,0,1,2.5-.51"></path><path class="cls-26" d="M158.17,355.71a5.47,5.47,0,0,1-4.41-2.2,5.51,5.51,0,0,1,4.4-8.82,5.51,5.51,0,1,1,0,11Z"></path><path class="cls-26" d="M158.17,344.91a5.41,5.41,0,0,1,2.33.54,5.29,5.29,0,0,1,2.91,5.49,5.31,5.31,0,0,1-5.24,4.55,5.38,5.38,0,0,1-2.33-.54,5.29,5.29,0,0,1,2.33-10m0-.44a5.73,5.73,0,1,0,4.58,2.29,5.67,5.67,0,0,0-4.58-2.29"></path><path class="cls-25" d="M160.87,353.31h-5.28a.54.54,0,0,1-.53-.54v-4.91h.41v4.91a.12.12,0,0,0,.12.12h5.28a.11.11,0,0,0,.11-.12V347.5a.11.11,0,0,0-.11-.12h-5V347h5a.54.54,0,0,1,.53.54v5.27a.54.54,0,0,1-.53.54"></path><path class="cls-25" d="M159.51,353.1h-.3v-2.44H160l.08-.6h-.87v-.72a.52.52,0,0,1,.59-.59h.32v-.51l-.54,0a.93.93,0,0,0-1,1v.81h-.77v.6h.77v2.44h-.3V351h-.77v-1.2h.77v-.51a1.22,1.22,0,0,1,1.3-1.33,5.82,5.82,0,0,1,.71,0h.13v1.08h-.62c-.27,0-.29.09-.29.29v.42h.91l-.16,1.2h-.75Z"></path><path class="cls-25" d="M155.66,347.29a.34.34,0,1,1-.34-.33.34.34,0,0,1,.34.33"></path><path class="cls-23" d="M143,287.37a6.74,6.74,0,1,1,2.61-.53,6.72,6.72,0,0,1-2.61.53Z"></path><path class="cls-25" d="M139.35,277.24a.43.43,0,0,1-.43.43.43.43,0,1,1,0-.86.43.43,0,0,1,.43.43"></path><path class="cls-25" d="M143.07,285a.73.73,0,1,1,.73-.73.73.73,0,0,1-.73.73m0-1.08a.35.35,0,1,0,.35.35.35.35,0,0,0-.35-.35"></path><path class="cls-25" d="M146.17,285a.73.73,0,1,1,.73-.73.73.73,0,0,1-.73.73m0-1.08a.35.35,0,1,0,.35.35.35.35,0,0,0-.35-.35"></path><path class="cls-25" d="M147.39,282.24h-5.18a.27.27,0,1,1,0-.54H147l.53-2.56h-6a.27.27,0,0,1-.26-.27.26.26,0,0,1,.26-.26h6.65Z"></path><polygon class="cls-25" points="146.94 283.36 142.26 283.36 140.91 277.5 139.72 277.5 139.72 276.97 141.33 276.97 142.68 282.82 146.94 282.82 146.94 283.36"></polygon><polygon class="cls-25" points="146.82 279.08 145.26 277.52 144.22 278.56 143.85 278.18 145.26 276.77 147.19 278.71 146.82 279.08"></polygon><polygon class="cls-25" points="142.58 279 142.2 278.62 143.48 277.34 144.76 278.62 144.38 279 143.48 278.09 142.58 279"></polygon><path class="cls-23" d="M143,273.61a7,7,0,0,0,0,14,7,7,0,0,0,0-14m0,.57a6.44,6.44,0,0,1,6,8.89,6.47,6.47,0,0,1-6,4,6.44,6.44,0,0,1-3.53-1.06,6.44,6.44,0,0,1-2.44-7.84,6.42,6.42,0,0,1,3.47-3.51,6.52,6.52,0,0,1,2.5-.5"></path><path class="cls-26" d="M71.07,199.78a5.47,5.47,0,0,1-4.41-2.2,5.53,5.53,0,0,1,1.1-7.72,5.51,5.51,0,1,1,3.31,9.92Z"></path><path class="cls-26" d="M71.06,189a5.35,5.35,0,0,1,2.33.54,5.29,5.29,0,0,1-2.32,10,5.38,5.38,0,0,1-2.33-.54,5.19,5.19,0,0,1-1.9-1.58A5.29,5.29,0,0,1,71.06,189m0-.44a5.64,5.64,0,0,0-3.43,1.15,5.72,5.72,0,1,0,3.43-1.15"></path><path class="cls-25" d="M73.76,197.38H68.49a.54.54,0,0,1-.54-.54v-4.91h.42v4.91a.12.12,0,0,0,.12.12h5.27a.12.12,0,0,0,.12-.12v-5.27a.12.12,0,0,0-.12-.12h-5V191h5a.54.54,0,0,1,.54.54v5.27a.54.54,0,0,1-.54.54"></path><path class="cls-25" d="M72.4,197.17h-.3v-2.44h.8l.07-.6H72.1v-.72c0-.25.07-.59.6-.59H73v-.51l-.54,0a.93.93,0,0,0-1,1v.81h-.77v.6h.77v2.44h-.3V195h-.77v-1.2h.77v-.51a1.22,1.22,0,0,1,1.3-1.33,6,6,0,0,1,.71,0h.13v1.08H72.7c-.27,0-.3.09-.3.29v.42h.91l-.15,1.2H72.4Z"></path><path class="cls-25" d="M68.55,191.36a.34.34,0,1,1-.33-.33.34.34,0,0,1,.33.33"></path><path class="cls-23" d="M130.13,148.75a6.73,6.73,0,0,1-2.61-12.94,6.64,6.64,0,0,1,2.6-.53,6.74,6.74,0,0,1,2.61,12.95,6.85,6.85,0,0,1-2.6.52Z"></path><path class="cls-25" d="M126.48,138.62a.43.43,0,1,1-.43-.43.43.43,0,0,1,.43.43"></path><path class="cls-25" d="M130.2,146.37a.73.73,0,0,1,0-1.46.73.73,0,0,1,0,1.46m0-1.08a.35.35,0,1,0,.35.35.35.35,0,0,0-.35-.35"></path><path class="cls-25" d="M133.31,146.37a.73.73,0,1,1,.73-.73.73.73,0,0,1-.73.73m0-1.08a.35.35,0,1,0,.35.35.35.35,0,0,0-.35-.35"></path><path class="cls-25" d="M134.52,143.62h-5.18a.27.27,0,0,1,0-.53h4.75l.53-2.57h-6a.27.27,0,1,1,0-.53h6.64Z"></path><polygon class="cls-25" points="134.07 144.74 129.39 144.74 128.04 138.89 126.86 138.89 126.86 138.36 128.46 138.36 129.81 144.21 134.07 144.21 134.07 144.74"></polygon><polygon class="cls-25" points="133.95 140.47 132.39 138.91 131.36 139.94 130.98 139.57 132.39 138.16 134.33 140.09 133.95 140.47"></polygon><polygon class="cls-25" points="129.71 140.38 129.34 140 130.61 138.72 131.89 140 131.51 140.38 130.61 139.48 129.71 140.38"></polygon><path class="cls-23" d="M130.12,135a6.81,6.81,0,0,0-2.71.55A7,7,0,0,0,130.13,149a6.88,6.88,0,0,0,2.71-.55A7,7,0,0,0,130.12,135m0,.56a6.46,6.46,0,0,1,2.5,12.41,6.48,6.48,0,0,1-6-.55,6.45,6.45,0,0,1,1-11.35,6.35,6.35,0,0,1,2.5-.51"></path><path class="cls-26" d="M109.84,314.55A5.51,5.51,0,0,1,107.7,304a5.59,5.59,0,0,1,2.13-.43,5.5,5.5,0,0,1,5.08,3.38,5.5,5.5,0,0,1-5.07,7.64"></path><path class="cls-26" d="M109.83,303.75a5.35,5.35,0,0,1,2.9.86,5.29,5.29,0,0,1,2,2.38,5.3,5.3,0,0,1-2.82,6.93,5.32,5.32,0,0,1-5-.45,5.3,5.3,0,0,1-2-6.43,5.21,5.21,0,0,1,2.85-2.87,5.14,5.14,0,0,1,2-.42h0m0-.44a5.65,5.65,0,0,0-2.22.45,5.74,5.74,0,0,0,2.23,11,5.83,5.83,0,0,0,2.22-.45,5.73,5.73,0,0,0-2.23-11"></path><path class="cls-25" d="M109.84,311.69a20.17,20.17,0,0,1-2.76-.15,1.09,1.09,0,0,1-.77-.77,9,9,0,0,1-.15-1.72,10.13,10.13,0,0,1,.12-1.6l.42.09a10,10,0,0,0-.11,1.51,8.57,8.57,0,0,0,.14,1.61.65.65,0,0,0,.46.46,25.25,25.25,0,0,0,5.31,0,.67.67,0,0,0,.46-.46,10.1,10.1,0,0,0,0-3.23.67.67,0,0,0-.46-.46,19.89,19.89,0,0,0-2.66-.14s-1.9,0-2.56.12l-.07-.42a22.48,22.48,0,0,1,2.63-.13,20.31,20.31,0,0,1,2.77.15,1.09,1.09,0,0,1,.76.77,9.38,9.38,0,0,1,0,3.45,1.09,1.09,0,0,1-.76.77,20.31,20.31,0,0,1-2.77.15"></path><path class="cls-25" d="M109,310.35v-2.61l2.27,1.31Zm.31-2.08v1.55l1.34-.77Z"></path><path class="cls-25" d="M109,310.35v-2.61l2.27,1.31Zm.31-2.08v1.55l1.34-.77Z"></path><path class="cls-25" d="M107.1,307a.35.35,0,0,1-.35.35.36.36,0,0,1,0-.71.36.36,0,0,1,.35.36"></path><path class="cls-29" d="M146.23,230.94a6.91,6.91,0,0,1-6.4-9.53,6.91,6.91,0,0,1,12.77-.06,6.92,6.92,0,0,1-3.7,9.05,6.81,6.81,0,0,1-2.67.54Z"></path><path class="cls-29" d="M146.22,217.39a6.61,6.61,0,0,1,6.12,4.07,6.63,6.63,0,0,1-9.74,8.12,6.67,6.67,0,0,1-2.49-3,6.63,6.63,0,0,1,3.55-8.68,6.48,6.48,0,0,1,2.56-.52m0-.56a7.2,7.2,0,1,0,6.64,4.41,7.23,7.23,0,0,0-6.64-4.41"></path><polygon class="cls-25" points="150.45 227.18 142.17 227.18 142.17 222.29 142.71 222.29 142.71 226.64 149.92 226.64 149.92 221.74 143.25 221.74 143.25 221.21 150.45 221.21 150.45 227.18"></polygon><polygon class="cls-25" points="146.31 224.9 143.37 222.49 143.61 222.19 146.31 224.41 149.93 221.44 150.17 221.74 146.31 224.9"></polygon><path class="cls-25" d="M142.87,221.48a.43.43,0,0,1-.86,0,.43.43,0,1,1,.86,0"></path><path class="cls-25" d="M142.87,221.48a.43.43,0,0,1-.86,0,.43.43,0,1,1,.86,0"></path><path class="cls-29" d="M181.47,140.85a6.92,6.92,0,1,1,2.68-.54,6.91,6.91,0,0,1-2.68.54Z"></path><path class="cls-29" d="M181.47,127.3a6.63,6.63,0,0,1,6.14,9.15,6.57,6.57,0,0,1-3.57,3.6,6.49,6.49,0,0,1-2.57.52,6.63,6.63,0,0,1-2.57-12.75,6.7,6.7,0,0,1,2.57-.52m0-.56a7.2,7.2,0,0,0,0,14.4,7.07,7.07,0,0,0,2.79-.57,7.2,7.2,0,0,0-2.79-13.83"></path><polygon class="cls-25" points="185.69 137.09 177.42 137.09 177.42 132.2 177.95 132.2 177.95 136.55 185.16 136.55 185.16 131.66 178.5 131.66 178.5 131.12 185.69 131.12 185.69 137.09"></polygon><polygon class="cls-25" points="181.56 134.81 178.62 132.4 178.86 132.1 181.56 134.32 185.17 131.35 185.41 131.65 181.56 134.81"></polygon><path class="cls-25" d="M178.12,131.39a.44.44,0,1,1-.43-.43.43.43,0,0,1,.43.43"></path><path class="cls-25" d="M178.12,131.39a.44.44,0,1,1-.43-.43.43.43,0,0,1,.43.43"></path><path class="cls-26" d="M114.93,187.05a6.74,6.74,0,1,1,2.6-.53,6.73,6.73,0,0,1-2.6.53"></path><path class="cls-26" d="M114.92,173.85a6.49,6.49,0,1,1-2.49.51,6.3,6.3,0,0,1,2.49-.51h0m0-.56a7,7,0,1,0,6.47,4.3,7.06,7.06,0,0,0-6.47-4.3"></path><path class="cls-25" d="M113.5,184.47a5.35,5.35,0,0,1-2.88-.85.27.27,0,0,1-.11-.33.26.26,0,0,1,.29-.18l.39,0a3.3,3.3,0,0,0,1.49-.35,2.05,2.05,0,0,1-1.2-1.29.3.3,0,0,1,0-.27l0,0a2.1,2.1,0,0,1-.72-1.57v0a.29.29,0,0,1,.14-.23.27.27,0,0,1,.12,0,2.35,2.35,0,0,1-.17-.44.26.26,0,0,1,.19-.34.27.27,0,0,1,.34.19,1.55,1.55,0,0,0,.62.86.28.28,0,0,1,.11.32.29.29,0,0,1-.27.19,2.42,2.42,0,0,1-.47-.07,1.51,1.51,0,0,0,1.15,1.06.3.3,0,0,1,.23.27.29.29,0,0,1-.21.28,3.07,3.07,0,0,1-.42.07,1.52,1.52,0,0,0,1.21.65.27.27,0,0,1,.26.19.29.29,0,0,1-.09.31,3.87,3.87,0,0,1-1.69.76,4.87,4.87,0,0,0,1.61.28.27.27,0,0,1,.28.28.28.28,0,0,1-.28.28"></path><path class="cls-25" d="M113.5,184.47a.29.29,0,0,1-.28-.28.28.28,0,0,1,.28-.28,4.76,4.76,0,0,0,4.8-4.8c0-.07,0-.14,0-.21a.27.27,0,0,1,.12-.24l.2-.16-.14,0a.28.28,0,0,1-.3-.19.29.29,0,0,1,.12-.33.66.66,0,0,0,.17-.12l-.32.08a.29.29,0,0,1-.26-.08,1.5,1.5,0,0,0-2.6,1,1.32,1.32,0,0,0,0,.34.27.27,0,0,1-.06.24.25.25,0,0,1-.23.1,5.31,5.31,0,0,1-2.17-.58.28.28,0,0,1-.12-.38.27.27,0,0,1,.37-.12,4.85,4.85,0,0,0,1.62.5.38.38,0,0,1,0-.1,2.07,2.07,0,0,1,3.45-1.53,3.11,3.11,0,0,0,.91-.37.27.27,0,0,1,.31,0,.27.27,0,0,1,.09.3,1.8,1.8,0,0,1-.16.38h0a.26.26,0,0,1,.32.07.27.27,0,0,1,0,.33,3.83,3.83,0,0,1-.84.91v.09a5.56,5.56,0,0,1-1.37,3.61,5.18,5.18,0,0,1-4,1.75"></path><path class="cls-25" d="M110.93,178.89a2,2,0,0,1-.08-.54.31.31,0,0,1,0-.1l.55,0v.07a1.74,1.74,0,0,0,0,.39Z"></path><path class="cls-25" d="M112.86,179a5.69,5.69,0,0,1-1.08-.73l.37-.42a5.23,5.23,0,0,0,1,.65Z"></path><path class="cls-25" d="M111.84,177.55a.45.45,0,1,1-.45-.45.45.45,0,0,1,.45.45"></path><path class="cls-23" d="M296.41,348.73a5.52,5.52,0,0,1-4.15-9.14,5.51,5.51,0,1,1,4.15,9.14h0"></path><path class="cls-23" d="M296.41,337.93a5.29,5.29,0,1,1-3.48,9.27,5.29,5.29,0,0,1,3.48-9.27m0-.44a5.73,5.73,0,1,0,3.77,1.41,5.73,5.73,0,0,0-3.77-1.41"></path><path class="cls-25" d="M293.57,340.51a.35.35,0,1,1-.34-.34.34.34,0,0,1,.34.34"></path><path class="cls-25" d="M296.51,346.64a.57.57,0,0,1-.57-.57.58.58,0,1,1,1.15,0,.57.57,0,0,1-.58.57m0-.85a.28.28,0,0,0-.27.28.28.28,0,0,0,.55,0,.28.28,0,0,0-.28-.28"></path><path class="cls-25" d="M299,346.64a.57.57,0,0,1-.58-.57.58.58,0,0,1,1.16,0,.57.57,0,0,1-.58.57m0-.85a.29.29,0,0,0-.28.28.28.28,0,0,0,.56,0,.29.29,0,0,0-.28-.28"></path><path class="cls-25" d="M299.93,344.47h-4.1a.22.22,0,0,1-.21-.21.21.21,0,0,1,.21-.21h3.76l.42-2h-4.74a.21.21,0,0,1-.21-.21.21.21,0,0,1,.21-.21h5.25Z"></path><polygon class="cls-25" points="299.58 345.35 295.87 345.35 294.8 340.72 293.86 340.72 293.86 340.3 295.14 340.3 296.2 344.93 299.58 344.93 299.58 345.35"></polygon><polygon class="cls-25" points="299.48 341.97 298.25 340.74 297.43 341.56 297.13 341.26 298.25 340.14 299.78 341.67 299.48 341.97"></polygon><polygon class="cls-25" points="296.13 341.9 295.83 341.61 296.84 340.59 297.85 341.61 297.55 341.9 296.84 341.19 296.13 341.9"></polygon><path class="cls-26" d="M314.67,337.39a5.47,5.47,0,0,1-4.41-2.2,5.53,5.53,0,0,1,1.1-7.72,5.51,5.51,0,1,1,3.31,9.92Z"></path><path class="cls-26" d="M314.66,326.59a5.21,5.21,0,0,1,2.33.54,5.29,5.29,0,0,1,1.91,1.57,5.3,5.3,0,0,1-4.23,8.47,5.38,5.38,0,0,1-2.33-.54,5.29,5.29,0,0,1,2.32-10m0-.44a5.73,5.73,0,1,0,4.59,2.29,5.72,5.72,0,0,0-4.59-2.29"></path><path class="cls-25" d="M317.36,335h-5.27a.54.54,0,0,1-.54-.54v-4.91H312v4.91a.12.12,0,0,0,.12.12h5.27a.12.12,0,0,0,.12-.12v-5.27a.12.12,0,0,0-.12-.12h-5v-.42h5a.54.54,0,0,1,.54.54v5.27a.54.54,0,0,1-.54.54"></path><path class="cls-25" d="M316,334.78h-.3v-2.44h.79l.08-.6h-.87V331a.52.52,0,0,1,.59-.59h.32v-.51l-.54,0a.93.93,0,0,0-1,1v.81h-.77v.6h.77v2.44h-.3v-2.14H314v-1.2h.77v-.51a1.22,1.22,0,0,1,1.3-1.33c.36,0,.64,0,.71,0l.13,0v1.08h-.62c-.27,0-.29.09-.29.29v.42h.9l-.15,1.2H316Z"></path><path class="cls-25" d="M312.16,329a.34.34,0,0,1-.34.34.34.34,0,1,1,0-.67.34.34,0,0,1,.34.33"></path><path class="cls-29" d="M124.68,105.6a5.52,5.52,0,1,1,3.11-10.06,5.5,5.5,0,0,1,1.44,7.66,5.52,5.52,0,0,1-4.55,2.4"></path><path class="cls-29" d="M124.69,94.8a5.29,5.29,0,0,1,3,.92,5.29,5.29,0,0,1,1.38,7.35,5.29,5.29,0,0,1-9.57-2,5.3,5.3,0,0,1,5.21-6.26h0m0-.45a5.74,5.74,0,1,0,3.23,1,5.74,5.74,0,0,0-3.23-1"></path><polygon class="cls-25" points="128.01 102.44 121.31 102.44 121.31 98.49 121.75 98.49 121.75 102.01 127.58 102.01 127.58 98.05 122.19 98.05 122.19 97.61 128.01 97.61 128.01 102.44"></polygon><polygon class="cls-25" points="124.67 100.6 122.28 98.65 122.48 98.41 124.66 100.2 127.59 97.8 127.79 98.04 124.67 100.6"></polygon><path class="cls-25" d="M121.88,97.83a.35.35,0,1,1-.35-.35.35.35,0,0,1,.35.35"></path><path class="cls-25" d="M121.88,97.83a.35.35,0,1,1-.35-.35.35.35,0,0,1,.35.35"></path><path class="cls-29" d="M83.09,152.77a5.5,5.5,0,1,1,4.55-2.39,5.49,5.49,0,0,1-4.55,2.39"></path><path class="cls-29" d="M83.1,142a5.3,5.3,0,0,1,4.36,8.28,5.3,5.3,0,0,1-9.57-2,5.24,5.24,0,0,1,.84-4A5.31,5.31,0,0,1,83.1,142h0m0-.44a5.74,5.74,0,1,0,3.23,1,5.72,5.72,0,0,0-3.23-1"></path><polygon class="cls-25" points="86.42 149.62 79.72 149.62 79.72 145.67 80.16 145.67 80.16 149.19 85.99 149.19 85.99 145.23 80.6 145.23 80.6 144.79 86.42 144.79 86.42 149.62"></polygon><polygon class="cls-25" points="83.08 147.78 80.69 145.83 80.89 145.59 83.08 147.38 86 144.98 86.2 145.22 83.08 147.78"></polygon><path class="cls-25" d="M80.29,145a.35.35,0,0,1-.35.35.35.35,0,0,1,0-.7.35.35,0,0,1,.35.35"></path><path class="cls-25" d="M80.29,145a.35.35,0,0,1-.35.35.35.35,0,0,1,0-.7.35.35,0,0,1,.35.35"></path><path class="cls-23" d="M290.91,223.45a6.74,6.74,0,1,1,2.6-.53,6.73,6.73,0,0,1-2.6.53Z"></path><path class="cls-25" d="M287.26,213.32a.43.43,0,1,1-.43-.43.43.43,0,0,1,.43.43"></path><path class="cls-25" d="M291,221.07a.73.73,0,1,1,.73-.73.73.73,0,0,1-.73.73m0-1.08a.35.35,0,1,0,.35.35A.35.35,0,0,0,291,220"></path><path class="cls-25" d="M294.09,221.07a.73.73,0,1,1,.73-.73.73.73,0,0,1-.73.73m0-1.08a.35.35,0,1,0,.35.35.35.35,0,0,0-.35-.35"></path><path class="cls-25" d="M295.3,218.32h-5.18a.27.27,0,0,1,0-.53h4.75l.53-2.57h-6a.27.27,0,1,1,0-.53h6.64Z"></path><polygon class="cls-25" points="294.85 219.44 290.17 219.44 288.82 213.59 287.64 213.59 287.64 213.06 289.24 213.06 290.59 218.91 294.85 218.91 294.85 219.44"></polygon><polygon class="cls-25" points="294.73 215.16 293.17 213.61 292.14 214.64 291.76 214.27 293.17 212.85 295.11 214.79 294.73 215.16"></polygon><polygon class="cls-25" points="290.49 215.08 290.12 214.7 291.39 213.43 292.67 214.7 292.3 215.08 291.39 214.18 290.49 215.08"></polygon><path class="cls-23" d="M290.9,209.7a6.81,6.81,0,0,0-2.71.55,7,7,0,0,0,2.72,13.48,6.88,6.88,0,0,0,2.71-.55,7,7,0,0,0-2.72-13.48m0,.56a6.47,6.47,0,0,1,6,8.9,6.46,6.46,0,1,1-6-8.9"></path><path class="cls-29" d="M272.39,346.76a5.39,5.39,0,0,1-3.1-1,5.5,5.5,0,1,1,3.1,1"></path><path class="cls-29" d="M272.41,336a5.29,5.29,0,0,1,0,10.58,5.29,5.29,0,0,1,0-10.58h0m0-.44a5.73,5.73,0,1,0,3.23,1,5.73,5.73,0,0,0-3.23-1"></path><polygon class="cls-25" points="275.73 343.61 269.03 343.61 269.03 339.65 269.46 339.65 269.46 343.18 275.3 343.18 275.3 339.21 269.91 339.21 269.91 338.78 275.73 338.78 275.73 343.61"></polygon><polygon class="cls-25" points="272.38 341.77 270 339.81 270.2 339.57 272.38 341.37 275.31 338.96 275.5 339.2 272.38 341.77"></polygon><path class="cls-25" d="M269.6,339a.36.36,0,0,1-.35.36.36.36,0,0,1,0-.71.35.35,0,0,1,.35.35"></path><path class="cls-25" d="M269.6,339a.36.36,0,0,1-.35.36.36.36,0,0,1,0-.71.35.35,0,0,1,.35.35"></path><path class="cls-26" d="M316.38,278.49a6.74,6.74,0,0,1-2.61-12.95,6.63,6.63,0,0,1,2.6-.52,6.74,6.74,0,0,1,0,13.47"></path><path class="cls-26" d="M316.37,265.3a6.46,6.46,0,0,1,0,12.91,6.54,6.54,0,0,1-3.54-1,6.46,6.46,0,0,1,3.53-11.86h0m0-.56a7,7,0,1,0,0,14,6.88,6.88,0,0,0,2.71-.55,7,7,0,0,0-2.72-13.48"></path><path class="cls-25" d="M315,275.91a5.34,5.34,0,0,1-2.88-.84.28.28,0,0,1,.18-.52l.39,0a3.3,3.3,0,0,0,1.49-.35,2.12,2.12,0,0,1-1.21-1.29.29.29,0,0,1,.06-.27l0,0a2,2,0,0,1-.72-1.56v0a.27.27,0,0,1,.14-.23l.12,0a1.93,1.93,0,0,1-.18-.44.28.28,0,0,1,.2-.34.28.28,0,0,1,.34.2,1.52,1.52,0,0,0,.62.85.28.28,0,0,1,.11.32.27.27,0,0,1-.28.19,1.82,1.82,0,0,1-.46-.06,1.5,1.5,0,0,0,1.15,1.06.27.27,0,0,1,.22.26.27.27,0,0,1-.2.28,2,2,0,0,1-.42.07,1.52,1.52,0,0,0,1.21.65.29.29,0,0,1,.26.19.28.28,0,0,1-.09.31,3.87,3.87,0,0,1-1.69.76,4.62,4.62,0,0,0,1.61.28.29.29,0,0,1,.28.28.28.28,0,0,1-.28.28"></path><path class="cls-25" d="M315,275.91a.28.28,0,0,1-.28-.28.29.29,0,0,1,.28-.28,4.74,4.74,0,0,0,4.79-4.79v-.22a.29.29,0,0,1,.11-.24l.21-.16-.14,0a.27.27,0,0,1-.3-.18.28.28,0,0,1,.12-.33l.17-.12-.32.08a.31.31,0,0,1-.26-.09,1.51,1.51,0,0,0-2.6,1,1.27,1.27,0,0,0,0,.34.28.28,0,0,1-.06.25.33.33,0,0,1-.23.1,5.28,5.28,0,0,1-2.17-.59.28.28,0,0,1,.25-.49,4.85,4.85,0,0,0,1.61.49v-.1a2.06,2.06,0,0,1,2.06-2.06,2,2,0,0,1,1.39.54,3.22,3.22,0,0,0,.9-.37.29.29,0,0,1,.32,0,.27.27,0,0,1,.09.3,2.17,2.17,0,0,1-.16.38h0a.28.28,0,0,1,.33.08.27.27,0,0,1,0,.33,3.6,3.6,0,0,1-.84.9v.1a5.49,5.49,0,0,1-1.38,3.6,5.11,5.11,0,0,1-4,1.75"></path><path class="cls-25" d="M312.37,270.33a2.35,2.35,0,0,1-.07-.54v-.09l.56,0v.07a1.75,1.75,0,0,0,.05.4Z"></path><path class="cls-25" d="M314.31,270.45a5.26,5.26,0,0,1-1.08-.73l.37-.42a4.82,4.82,0,0,0,1,.66Z"></path><path class="cls-25" d="M313.29,269a.45.45,0,1,1-.45-.45.45.45,0,0,1,.45.45"></path><path class="cls-26" d="M318,135a6.74,6.74,0,0,1-2.61-13A6.73,6.73,0,1,1,318,135"></path><path class="cls-26" d="M318,121.8a6.47,6.47,0,0,1,3.54,1.06,6.45,6.45,0,0,1-1,11.35,6.45,6.45,0,0,1-8.47-8.39,6.41,6.41,0,0,1,3.48-3.51,6.27,6.27,0,0,1,2.49-.51h0m0-.56a7,7,0,1,0,6.47,4.3,7.06,7.06,0,0,0-6.47-4.3"></path><path class="cls-25" d="M316.56,132.42a5.35,5.35,0,0,1-2.88-.85.27.27,0,0,1-.11-.33.26.26,0,0,1,.29-.18l.39,0a3.3,3.3,0,0,0,1.49-.35,2.05,2.05,0,0,1-1.2-1.29.3.3,0,0,1,0-.27l0,0a2.08,2.08,0,0,1-.72-1.57v0a.29.29,0,0,1,.14-.23.27.27,0,0,1,.12,0,3.38,3.38,0,0,1-.18-.44.28.28,0,0,1,.54-.15,1.55,1.55,0,0,0,.62.86.28.28,0,0,1,.11.32.29.29,0,0,1-.27.19,2.42,2.42,0,0,1-.47-.07,1.53,1.53,0,0,0,1.15,1.07.28.28,0,0,1,.23.26.29.29,0,0,1-.21.28,2,2,0,0,1-.42.07,1.52,1.52,0,0,0,1.21.65.28.28,0,0,1,.26.19.29.29,0,0,1-.09.31,3.87,3.87,0,0,1-1.69.76,4.87,4.87,0,0,0,1.61.28.28.28,0,0,1,.28.28.29.29,0,0,1-.28.28"></path><path class="cls-25" d="M316.56,132.42a.29.29,0,0,1-.28-.28.28.28,0,0,1,.28-.28,4.75,4.75,0,0,0,4.79-4.8v-.21a.27.27,0,0,1,.12-.24l.2-.16-.14,0a.28.28,0,0,1-.3-.19.29.29,0,0,1,.12-.33.66.66,0,0,0,.17-.12l-.32.08a.29.29,0,0,1-.26-.08,1.5,1.5,0,0,0-2.6,1,1.32,1.32,0,0,0,0,.34.26.26,0,0,1-.06.24.25.25,0,0,1-.23.1,5.31,5.31,0,0,1-2.17-.58.28.28,0,0,1,.25-.5,4.86,4.86,0,0,0,1.61.5v-.1a2.07,2.07,0,0,1,3.45-1.53,3.39,3.39,0,0,0,.91-.36.26.26,0,0,1,.31,0,.27.27,0,0,1,.09.3,1.8,1.8,0,0,1-.16.38h0a.29.29,0,0,1,.33.07.29.29,0,0,1,0,.34,4,4,0,0,1-.84.9v.09a5.56,5.56,0,0,1-1.37,3.61,5.15,5.15,0,0,1-4,1.75"></path><path class="cls-25" d="M314,126.84a2.5,2.5,0,0,1-.07-.54v-.1l.56,0v.07a1.67,1.67,0,0,0,0,.39Z"></path><path class="cls-25" d="M315.92,127a5.69,5.69,0,0,1-1.08-.73l.37-.42a5.23,5.23,0,0,0,1,.65Z"></path><path class="cls-25" d="M314.9,125.5a.45.45,0,1,1-.45-.45.45.45,0,0,1,.45.45"></path><path class="cls-26" d="M360,282.75a5.47,5.47,0,0,1-4.41-2.2,5.53,5.53,0,0,1,1.1-7.72,5.51,5.51,0,1,1,3.31,9.92Z"></path><path class="cls-26" d="M360,272a5.35,5.35,0,0,1,2.33.54,5.29,5.29,0,0,1-2.32,10,5.38,5.38,0,0,1-2.33-.54A5.29,5.29,0,0,1,360,272m0-.44a5.64,5.64,0,0,0-3.43,1.15,5.72,5.72,0,1,0,3.43-1.15"></path><path class="cls-25" d="M362.65,280.35h-5.27a.54.54,0,0,1-.54-.54V274.9h.42v4.91a.12.12,0,0,0,.12.12h5.27a.12.12,0,0,0,.12-.12v-5.27a.12.12,0,0,0-.12-.12h-5V274h5a.54.54,0,0,1,.54.54v5.27a.54.54,0,0,1-.54.54"></path><path class="cls-25" d="M361.29,280.14H361V277.7h.79l.07-.6H361v-.72c0-.25.06-.58.59-.58h.32v-.51l-.54,0a.93.93,0,0,0-1,1v.81h-.77v.6h.77v2.44h-.3V278h-.77v-1.2h.77v-.51a1.22,1.22,0,0,1,1.3-1.33,6,6,0,0,1,.71,0h.13v1.08h-.62c-.27,0-.3.09-.3.29v.42h.91l-.15,1.2h-.76Z"></path><path class="cls-25" d="M357.44,274.34a.34.34,0,0,1-.67,0,.34.34,0,1,1,.67,0"></path><path class="cls-26" d="M154.17,140a7,7,0,0,1-3.4-.89,6.91,6.91,0,1,1,6.78-12.05,6.81,6.81,0,0,1,2.58,2.53,6.92,6.92,0,0,1-6,10.41Z"></path><path class="cls-26" d="M154.15,126.45a6.6,6.6,0,0,1,5.74,3.29,6.63,6.63,0,0,1-2.38,9.07,6.63,6.63,0,0,1-9.08-2.38,6.63,6.63,0,0,1,5.72-10m0-.57a7.2,7.2,0,0,0,0,14.4,7.2,7.2,0,1,0,0-14.4"></path><path class="cls-25" d="M154.14,137.07c-1,0-1.14,0-1.54,0a3.16,3.16,0,0,1-1-.19,2.12,2.12,0,0,1-.75-.49,2.22,2.22,0,0,1-.49-.75,3.17,3.17,0,0,1-.19-1c0-.4,0-.53,0-1.54s0-1.14,0-1.54a3.16,3.16,0,0,1,.19-1l.5.19a2.45,2.45,0,0,0-.15.82c0,.39,0,.52,0,1.51s0,1.13,0,1.52a2.34,2.34,0,0,0,.15.81,1.56,1.56,0,0,0,.37.57,1.61,1.61,0,0,0,.56.37,2.45,2.45,0,0,0,.82.15c.39,0,.52,0,1.51,0s1.13,0,1.52,0a2.45,2.45,0,0,0,.82-.15A1.61,1.61,0,0,0,157,136a1.56,1.56,0,0,0,.37-.57,2.34,2.34,0,0,0,.15-.81c0-.39,0-.52,0-1.52s0-1.12,0-1.51a2.45,2.45,0,0,0-.15-.82,1.68,1.68,0,0,0-.93-.93,2.45,2.45,0,0,0-.82-.15c-.39,0-.52,0-1.52,0s-1.12,0-1.51,0a2.45,2.45,0,0,0-.82.15l-.19-.5a3.16,3.16,0,0,1,1-.19c.4,0,.54,0,1.54,0s1.14,0,1.55,0a3.16,3.16,0,0,1,1,.19,2.18,2.18,0,0,1,1.24,1.24,3.16,3.16,0,0,1,.19,1c0,.4,0,.54,0,1.54s0,1.14,0,1.54a3.17,3.17,0,0,1-.19,1,2.22,2.22,0,0,1-.49.75,2.12,2.12,0,0,1-.75.49,3.16,3.16,0,0,1-1,.19c-.41,0-.54,0-1.55,0"></path><path class="cls-25" d="M154.14,131.5a1.6,1.6,0,1,1-1.59,1.59,1.6,1.6,0,0,1,1.59-1.59m0-.38a2,2,0,1,0,2,2,2,2,0,0,0-2-2"></path><path class="cls-25" d="M156.66,131a.47.47,0,0,1-.46.46.46.46,0,0,1-.46-.46.45.45,0,0,1,.46-.46.46.46,0,0,1,.46.46"></path><path class="cls-25" d="M151.54,130.05a.44.44,0,0,1-.43.44.44.44,0,0,1-.44-.44.44.44,0,0,1,.44-.43.43.43,0,0,1,.43.43"></path><path class="cls-26" d="M283.85,307.06a6.92,6.92,0,0,1-6-3.43,6.93,6.93,0,0,1,2.49-9.46,6.93,6.93,0,0,1,6.88-.05,6.91,6.91,0,0,1-3.39,12.94Z"></path><path class="cls-26" d="M283.84,293.51a6.74,6.74,0,0,1,3.26.85,6.65,6.65,0,0,1,2.47,2.44,6.64,6.64,0,0,1-5.72,10,6.6,6.6,0,0,1-5.73-3.29,6.64,6.64,0,0,1,5.72-10m0-.56a7.12,7.12,0,0,0-3.62,1,7.19,7.19,0,1,0,3.62-1"></path><path class="cls-25" d="M283.83,304.13c-1,0-1.14,0-1.54,0a3.23,3.23,0,0,1-1-.19,2.17,2.17,0,0,1-.74-.49,1.88,1.88,0,0,1-.49-.75,2.89,2.89,0,0,1-.19-1c0-.4,0-.54,0-1.54s0-1.14,0-1.54a2.91,2.91,0,0,1,.19-1l.5.2a2.58,2.58,0,0,0-.16.81c0,.39,0,.52,0,1.52s0,1.12,0,1.51a2.71,2.71,0,0,0,.16.82,1.74,1.74,0,0,0,.36.56,1.56,1.56,0,0,0,.57.37,2.44,2.44,0,0,0,.81.15c.39,0,.52,0,1.52,0s1.13,0,1.52,0a2.44,2.44,0,0,0,.81-.15,1.52,1.52,0,0,0,.56-.37,1.61,1.61,0,0,0,.37-.56,2.71,2.71,0,0,0,.16-.82c0-.39,0-.52,0-1.51s0-1.13,0-1.52a2.58,2.58,0,0,0-.16-.81,1.56,1.56,0,0,0-.37-.57,1.52,1.52,0,0,0-.56-.37,2.44,2.44,0,0,0-.81-.15c-.39,0-.52,0-1.52,0s-1.13,0-1.52,0a2.44,2.44,0,0,0-.81.15l-.2-.5a3.23,3.23,0,0,1,1-.19c.4,0,.53,0,1.54,0s1.14,0,1.54,0a3.1,3.1,0,0,1,1,.19,2.12,2.12,0,0,1,.75.49,2,2,0,0,1,.49.75,2.91,2.91,0,0,1,.19,1c0,.4,0,.53,0,1.54s0,1.14,0,1.54a2.89,2.89,0,0,1-.19,1,1.88,1.88,0,0,1-.49.75,2.12,2.12,0,0,1-.75.49,3.1,3.1,0,0,1-1,.19c-.4,0-.53,0-1.54,0"></path><path class="cls-25" d="M283.83,298.56a1.6,1.6,0,1,1-1.59,1.6,1.6,1.6,0,0,1,1.59-1.6m0-.38a2,2,0,1,0,2,2,2,2,0,0,0-2-2"></path><path class="cls-25" d="M286.35,298.1a.47.47,0,1,1-.47-.46.47.47,0,0,1,.47.46"></path><path class="cls-25" d="M281.22,297.12a.43.43,0,1,1-.86,0,.43.43,0,1,1,.86,0"></path><path class="cls-29" d="M329.92,318.61a5.51,5.51,0,0,1,0-11,5.54,5.54,0,0,1,5.41,4.5,5.51,5.51,0,0,1-5.42,6.52"></path><path class="cls-29" d="M329.93,307.81a5.3,5.3,0,0,1,5.19,4.32,5.29,5.29,0,1,1-5.19-4.32h0m0-.44a5.73,5.73,0,1,0,3.23,1,5.73,5.73,0,0,0-3.23-1"></path><polygon class="cls-25" points="333.25 315.46 326.55 315.46 326.55 311.51 326.99 311.51 326.99 315.03 332.82 315.03 332.82 311.06 327.43 311.06 327.43 310.63 333.25 310.63 333.25 315.46"></polygon><polygon class="cls-25" points="329.9 313.62 327.52 311.67 327.72 311.43 329.9 313.22 332.83 310.82 333.03 311.06 329.9 313.62"></polygon><path class="cls-25" d="M327.12,310.85a.35.35,0,0,1-.7,0,.35.35,0,0,1,.7,0"></path><path class="cls-25" d="M327.12,310.85a.35.35,0,0,1-.7,0,.35.35,0,0,1,.7,0"></path><path class="cls-29" d="M362.2,218.88a5.46,5.46,0,0,1-3.1-1,5.51,5.51,0,1,1,8.52-5.56,5.43,5.43,0,0,1-.87,4.12,5.51,5.51,0,0,1-4.55,2.4"></path><path class="cls-29" d="M362.21,208.08a5.28,5.28,0,1,1-4.37,2.3,5.26,5.26,0,0,1,4.37-2.3h0m0-.44a5.73,5.73,0,1,0,3.24,1,5.73,5.73,0,0,0-3.24-1"></path><polygon class="cls-25" points="365.54 215.73 358.84 215.73 358.84 211.77 359.27 211.77 359.27 215.3 365.11 215.3 365.11 211.33 359.71 211.33 359.71 210.9 365.54 210.9 365.54 215.73"></polygon><polygon class="cls-25" points="362.19 213.89 359.81 211.93 360 211.69 362.19 213.49 365.12 211.09 365.31 211.32 362.19 213.89"></polygon><path class="cls-25" d="M359.41,211.12a.35.35,0,0,1-.35.35.36.36,0,0,1,0-.71.36.36,0,0,1,.35.36"></path><path class="cls-25" d="M359.41,211.12a.35.35,0,0,1-.35.35.36.36,0,0,1,0-.71.36.36,0,0,1,.35.36"></path><path class="cls-29" d="M293.5,125.51a6.91,6.91,0,0,1-2.67-13.29,6.81,6.81,0,0,1,2.67-.54,6.92,6.92,0,0,1,0,13.83Z"></path><path class="cls-29" d="M293.5,112a6.63,6.63,0,0,1,2.57,12.75,6.63,6.63,0,0,1-8.71-8.63A6.65,6.65,0,0,1,293.5,112m0-.57a7,7,0,0,0-2.78.57,7.17,7.17,0,1,0,2.78-.57"></path><polygon class="cls-25" points="297.73 121.74 289.45 121.74 289.45 116.86 289.98 116.86 289.98 121.21 297.19 121.21 297.19 116.31 290.53 116.31 290.53 115.78 297.73 115.78 297.73 121.74"></polygon><polygon class="cls-25" points="293.59 119.47 290.64 117.06 290.89 116.76 293.59 118.97 297.2 116.01 297.44 116.3 293.59 119.47"></polygon><path class="cls-25" d="M290.15,116a.44.44,0,0,1-.43.44.44.44,0,1,1,0-.87.43.43,0,0,1,.43.43"></path><path class="cls-25" d="M290.15,116a.44.44,0,0,1-.43.44.44.44,0,1,1,0-.87.43.43,0,0,1,.43.43"></path><path class="cls-23" d="M320.52,203a6.74,6.74,0,0,1-2.61-12.95,6.9,6.9,0,0,1,2.61-.52,6.74,6.74,0,0,1,0,13.47Z"></path><path class="cls-25" d="M316.88,192.88a.43.43,0,1,1-.43-.43.43.43,0,0,1,.43.43"></path><path class="cls-25" d="M320.6,200.63a.73.73,0,1,1,.73-.73.73.73,0,0,1-.73.73m0-1.08a.35.35,0,1,0,.35.35.35.35,0,0,0-.35-.35"></path><path class="cls-25" d="M323.71,200.63a.73.73,0,1,1,.72-.73.73.73,0,0,1-.72.73m0-1.08a.35.35,0,1,0,.34.35.35.35,0,0,0-.34-.35"></path><path class="cls-25" d="M324.92,197.88h-5.18a.26.26,0,0,1-.26-.27.25.25,0,0,1,.26-.26h4.74l.53-2.57h-6a.27.27,0,1,1,0-.53h6.64Z"></path><polygon class="cls-25" points="324.47 199 319.79 199 318.44 193.15 317.25 193.15 317.25 192.62 318.86 192.62 320.21 198.47 324.47 198.47 324.47 199"></polygon><polygon class="cls-25" points="324.35 194.72 322.79 193.17 321.75 194.2 321.38 193.82 322.79 192.41 324.72 194.35 324.35 194.72"></polygon><polygon class="cls-25" points="320.11 194.64 319.74 194.26 321.01 192.98 322.29 194.26 321.91 194.64 321.01 193.74 320.11 194.64"></polygon><path class="cls-23" d="M320.52,189.26a6.89,6.89,0,0,0-2.72.55,7,7,0,0,0,2.72,13.48,6.89,6.89,0,0,0,2.72-.55,7,7,0,0,0-2.72-13.48m0,.56a6.45,6.45,0,0,1,2.5,12.4,6.35,6.35,0,0,1-2.5.51,6.44,6.44,0,0,1-5.95-4,6.46,6.46,0,0,1,3.45-8.45,6.52,6.52,0,0,1,2.5-.5"></path><path class="cls-26" d="M338.21,94.13A5.65,5.65,0,0,1,333,90.67a5.61,5.61,0,0,1,0-4.33,5.66,5.66,0,0,1,5.24-3.53,5.79,5.79,0,0,1,2.14.42,5.67,5.67,0,0,1,3.1,7.38,5.67,5.67,0,0,1-5.24,3.52"></path><path class="cls-26" d="M338.21,83a5.42,5.42,0,1,1-3,.9,5.47,5.47,0,0,1,3-.9h0m0-.45A5.88,5.88,0,0,0,336,93.92a6,6,0,0,0,2.22.43A5.88,5.88,0,0,0,340.43,83a5.78,5.78,0,0,0-2.22-.44"></path><path class="cls-25" d="M338.31,91.65H337a2.78,2.78,0,0,1-.82-.16,1.76,1.76,0,0,1-.63-.41,1.74,1.74,0,0,1-.4-.63,2.21,2.21,0,0,1-.16-.82c0-.33,0-.44,0-1.28s0-1,0-1.29a2.26,2.26,0,0,1,.16-.82l.41.16a2.24,2.24,0,0,0-.12.68c0,.33,0,.44,0,1.27s0,.94,0,1.26a2.13,2.13,0,0,0,.12.68,1.38,1.38,0,0,0,.31.47,1.14,1.14,0,0,0,.47.31,2,2,0,0,0,.68.13c.33,0,.44,0,1.27,0s.94,0,1.26,0a2,2,0,0,0,.68-.13,1.14,1.14,0,0,0,.47-.31,1.25,1.25,0,0,0,.31-.47,1.87,1.87,0,0,0,.13-.68c0-.32,0-.43,0-1.26s0-.94,0-1.27a2,2,0,0,0-.13-.68,1.25,1.25,0,0,0-.31-.47,1.22,1.22,0,0,0-.47-.3,1.91,1.91,0,0,0-.68-.13c-.32,0-.43,0-1.26,0s-.94,0-1.27,0a2,2,0,0,0-.68.13l-.16-.42A2.26,2.26,0,0,1,337,85c.34,0,.45,0,1.29,0s.95,0,1.28,0a2.21,2.21,0,0,1,.82.16,1.64,1.64,0,0,1,.63.41,1.77,1.77,0,0,1,.41.62,2.5,2.5,0,0,1,.15.82c0,.34,0,.45,0,1.29s0,1,0,1.28a2.45,2.45,0,0,1-.15.82,1.91,1.91,0,0,1-.41.63,1.76,1.76,0,0,1-.63.41,2.71,2.71,0,0,1-.82.16h-1.28"></path><path class="cls-25" d="M338.31,87A1.33,1.33,0,1,1,337,88.34,1.33,1.33,0,0,1,338.31,87m0-.32A1.65,1.65,0,1,0,340,88.34a1.65,1.65,0,0,0-1.65-1.65"></path><path class="cls-25" d="M340.41,86.62A.39.39,0,0,1,340,87a.39.39,0,0,1,0-.77.39.39,0,0,1,.39.38"></path><path class="cls-25" d="M336.13,85.8a.36.36,0,1,1-.36-.36.36.36,0,0,1,.36.36"></path><path class="cls-26" d="M334.76,173.37a6.92,6.92,0,0,1-6-3.43,6.92,6.92,0,0,1,6-10.41,7,7,0,0,1,3.4.89,6.92,6.92,0,0,1-3.39,13Z"></path><path class="cls-26" d="M334.75,159.82a6.64,6.64,0,1,1-3.25,12.41,6.64,6.64,0,0,1-.09-11.51,6.67,6.67,0,0,1,3.34-.9m0-.57a7.21,7.21,0,0,0-6.21,10.83,7.2,7.2,0,1,0,6.21-10.83"></path><path class="cls-25" d="M338.11,170.43H331.5a.67.67,0,0,1-.67-.67v-6.15h.52v6.15a.15.15,0,0,0,.15.15h6.61a.15.15,0,0,0,.15-.15v-6.61a.15.15,0,0,0-.15-.15h-6.25v-.52h6.25a.67.67,0,0,1,.67.67v6.61a.67.67,0,0,1-.67.67"></path><path class="cls-25" d="M336.4,170.17H336v-3.06h1l.1-.75H336v-.9a.65.65,0,0,1,.74-.74h.41v-.64a6.13,6.13,0,0,0-.68,0,1.17,1.17,0,0,0-1.26,1.3v1h-1v.75h1v3.06h-.37v-2.69h-1V166h1v-.64a1.53,1.53,0,0,1,1.63-1.67c.44,0,.8,0,.89,0l.16,0v1.36h-.78c-.33,0-.37.11-.37.36V166h1.14l-.19,1.49h-1Z"></path><path class="cls-25" d="M331.58,162.9a.42.42,0,1,1-.42-.43.42.42,0,0,1,.42.43"></path></svg> 