<?xml version="1.0" encoding="UTF-8"?> <svg xmlns="http://www.w3.org/2000/svg" id="Layer_1" data-name="Layer 1" viewBox="0 0 117.77 107.17"><defs><style>.cls-1{fill:#ffb000;}.cls-2{fill:#fff;}</style></defs><circle class="cls-1" cx="5.67" cy="5.67" r="5.67"></circle><rect class="cls-2" x="37.67" y="102.17" width="43.19" height="5"></rect><polygon class="cls-2" points="117.77 91.9 2.17 91.9 2.17 16.3 9.17 16.3 9.17 84.9 110.77 84.9 110.77 9.17 16.3 9.17 16.3 2.17 117.77 2.17 117.77 91.9"></polygon><polygon class="cls-2" points="64.09 22.15 55.62 22.15 59.86 30.62 64.09 22.15"></polygon><polygon class="cls-2" points="34.98 51.26 34.98 42.8 43.45 47.03 34.98 51.26"></polygon><polygon class="cls-2" points="84.74 51.26 84.74 42.8 76.27 47.03 84.74 51.26"></polygon><polygon class="cls-2" points="55.62 71.91 64.09 71.91 59.86 63.44 55.62 71.91"></polygon><polygon class="cls-2" points="45.26 26.44 39.27 32.43 48.26 35.43 45.26 26.44"></polygon><polygon class="cls-2" points="45.26 67.62 39.27 61.63 48.26 58.63 45.26 67.62"></polygon><polygon class="cls-2" points="80.44 32.43 74.45 26.44 71.46 35.43 80.44 32.43"></polygon><polygon class="cls-2" points="74.45 67.62 80.44 61.63 71.46 58.63 74.45 67.62"></polygon></svg> 