<?xml version="1.0" encoding="UTF-8"?> <svg xmlns="http://www.w3.org/2000/svg" id="Layer_2" data-name="Layer 2" viewBox="0 0 440 450"><defs><style>.cls-1,.cls-4{fill:#808b94;}.cls-1{opacity:0.25;isolation:isolate;}.cls-2,.cls-9{fill:#fff;}.cls-3{fill:none;}.cls-5,.cls-6{fill:#2858a5;}.cls-6,.cls-9{stroke:#00263e;stroke-width:6px;}.cls-12,.cls-6,.cls-9{stroke-miterlimit:10;}.cls-7{fill:#ffe7b2;}.cls-8{opacity:0.55;}.cls-10{fill:#ffd069;}.cls-11,.cls-12{fill:#009ca6;}.cls-12{stroke:#fff;stroke-width:10.33px;}</style></defs><rect class="cls-1" width="440" height="450"></rect><circle class="cls-2" cx="228.32" cy="182.95" r="8.67"></circle><circle class="cls-2" cx="254.99" cy="182.95" r="8.67"></circle><circle class="cls-2" cx="281.65" cy="182.95" r="8.67"></circle><path class="cls-2" d="M375,292.74H201.25V155.17H375Zm-163.18-9.12h152.6V164.29H211.82Z"></path><rect class="cls-2" x="206.26" y="200.1" width="163.39" height="7.64"></rect><circle class="cls-3" cx="115.88" cy="243.95" r="47.44"></circle><path class="cls-4" d="M114.67,291.57a3.36,3.36,0,0,1,3.26-3.53h0a3.5,3.5,0,0,1,3.63,3.25h0a3.37,3.37,0,0,1-3.26,3.54h-.19A3.4,3.4,0,0,1,114.67,291.57Zm-12.27,1.49h0a3.43,3.43,0,0,1-2.42-4.19h0a3.41,3.41,0,0,1,4.18-2.41h0a3.41,3.41,0,0,1,2.42,4.18h0a3.46,3.46,0,0,1-3.25,2.51h0C103,293.15,102.67,293.06,102.4,293.06Zm27-3.54a3.37,3.37,0,0,1,1.95-4.37h0a3.37,3.37,0,0,1,4.37,2h0a3.5,3.5,0,0,1-1.95,4.46h0a2.7,2.7,0,0,1-1.21.19h0A3.48,3.48,0,0,1,129.37,289.52Zm-41.48-3.06a3.45,3.45,0,0,1-1-4.75h0a3.36,3.36,0,0,1,4.75-.93h0a3.36,3.36,0,0,1,.93,4.75h0a3.45,3.45,0,0,1-2.89,1.58h0A4.61,4.61,0,0,1,87.89,286.46Zm55-3.35a3.43,3.43,0,0,1,.55-4.84h0a3.42,3.42,0,0,1,4.84.56h0a3.42,3.42,0,0,1-.56,4.84h0a3.74,3.74,0,0,1-2.14.74h0A3.17,3.17,0,0,1,142.86,283.11Zm-66.69-7.35a3.43,3.43,0,0,1,.55-4.84h0a3.42,3.42,0,0,1,4.84.56h0a3.42,3.42,0,0,1-.56,4.84h0a3.74,3.74,0,0,1-2.14.74h0A3.29,3.29,0,0,1,76.17,275.76Zm77.48-2.88a3.34,3.34,0,0,1-.93-4.75h0a3.35,3.35,0,0,1,4.74-.93h0a3.45,3.45,0,0,1,1,4.75h0a3.43,3.43,0,0,1-2.88,1.58h0A2.91,2.91,0,0,1,153.65,272.88Zm-85.39-11h0a3.5,3.5,0,0,1,1.95-4.46h0a3.35,3.35,0,0,1,4.37,1.95h0a3.35,3.35,0,0,1-2,4.37h0a2.7,2.7,0,0,1-1.21.19h0A2.92,2.92,0,0,1,68.26,261.9Zm92.45-2a3.4,3.4,0,0,1-2.41-4.18h0a3.41,3.41,0,0,1,4.18-2.42h0a3.43,3.43,0,0,1,2.42,4.19h0a3.39,3.39,0,0,1-3.26,2.51h0A2.68,2.68,0,0,1,160.71,259.85ZM65,246.37a3.37,3.37,0,0,1,3.26-3.54h0a3.36,3.36,0,0,1,3.53,3.26h0a3.35,3.35,0,0,1-3.25,3.53h-.19A3.46,3.46,0,0,1,65,246.37Zm94.88-4.47a3.35,3.35,0,0,1,3.25-3.53h0a3.42,3.42,0,0,1,3.54,3.25h0a3.43,3.43,0,0,1-3.26,3.54h-.18A3.38,3.38,0,0,1,159.88,241.9Zm-90.69-7.16a3.43,3.43,0,0,1-2.42-4.19h0v-.09h0v-.09h0A3.43,3.43,0,0,1,71,228h0a3.43,3.43,0,0,1,2.42,4.19h0v.09h0v.09h0a3.39,3.39,0,0,1-3.26,2.51h0A3,3,0,0,1,69.19,234.74Zm87.9-6.32A3.38,3.38,0,0,1,159,224h0a3.37,3.37,0,0,1,4.37,2h0a3.37,3.37,0,0,1-1.95,4.37h0a2.83,2.83,0,0,1-1.21.18h0A3.23,3.23,0,0,1,157.09,228.42ZM74.4,220.6a3.34,3.34,0,0,1-.93-4.74h0a3.34,3.34,0,0,1,4.74-.93h0a3.45,3.45,0,0,1,1,4.74h0a3.43,3.43,0,0,1-2.89,1.58h0A4.42,4.42,0,0,1,74.4,220.6Zm75.9-4.18h0a3.43,3.43,0,0,1,.55-4.84h0a3.42,3.42,0,0,1,4.84.56h0a3.42,3.42,0,0,1-.56,4.84h0a3.74,3.74,0,0,1-2.14.74h0A3.17,3.17,0,0,1,150.3,216.42ZM83.61,209a3.43,3.43,0,0,1,.55-4.84h0a3.42,3.42,0,0,1,4.84.56h0a3.41,3.41,0,0,1-.56,4.83h0a3.68,3.68,0,0,1-2.14.75h0A3.45,3.45,0,0,1,83.61,209Zm56.55-1.77a3.34,3.34,0,0,1-.93-4.74h0a3.34,3.34,0,0,1,4.74-.94h0a3.35,3.35,0,0,1,.93,4.75h0a3.35,3.35,0,0,1-2.88,1.49h0A3.38,3.38,0,0,1,140.16,207.21ZM96,200.7a3.36,3.36,0,0,1,2-4.37h0a3.36,3.36,0,0,1,4.37,1.95h0a3.36,3.36,0,0,1-2,4.37h0a2.7,2.7,0,0,1-1.21.19h0A3.26,3.26,0,0,1,96,200.7Zm31.62.74a3.42,3.42,0,0,1-2.42-4.18h0a3.43,3.43,0,0,1,4.19-2.42h0a3.42,3.42,0,0,1,2.42,4.18h0a3.47,3.47,0,0,1-3.26,2.51h0A1.5,1.5,0,0,1,127.6,201.44Zm-17.3-4.74a3.43,3.43,0,0,1,3.26-3.54h0a3.36,3.36,0,0,1,3.53,3.26h0a3.41,3.41,0,0,1-3.25,3.53h-.19A3.43,3.43,0,0,1,110.3,196.7Z"></path><rect class="cls-5" x="237.09" y="241.07" width="1.8" height="19.5"></rect><rect class="cls-5" x="253.29" y="241.07" width="1.8" height="19.5"></rect><rect class="cls-5" x="237.39" y="258.47" width="16.8" height="2.1"></rect><circle class="cls-5" cx="239.7" cy="232.81" r="1.35"></circle><path class="cls-5" d="M246.15,237.46c-2.17,0-4-2-4.2-4.74l-.07-.81h8.53l-.06.81C250.12,235.42,248.32,237.46,246.15,237.46Zm-2.57-4.05a2.57,2.57,0,0,0,5.13,0Z"></path><polygon class="cls-5" points="261.04 241.99 254.02 234.68 249.91 233.65 250.35 231.9 254.96 233.06 262.34 240.74 261.04 241.99"></polygon><path class="cls-6" d="M250.08,232.76"></path><path class="cls-6" d="M249.69,232.66"></path><rect class="cls-5" x="233.82" y="242.45" width="4.71" height="2.1" transform="translate(-103.04 241.63) rotate(-45.56)"></rect><rect class="cls-5" x="232.31" y="239.98" width="1.8" height="5.46" transform="translate(-103.37 245.79) rotate(-46.67)"></rect><rect class="cls-5" x="228.87" y="236.72" width="10.4" height="1.8" transform="translate(-99.44 241.91) rotate(-46.17)"></rect><rect class="cls-5" x="254.92" y="241.14" width="2.1" height="4.71" transform="translate(-97.28 248.88) rotate(-44.44)"></rect><rect class="cls-5" x="256.2" y="241.82" width="5.46" height="1.8" transform="translate(-95.97 243.85) rotate(-43.33)"></rect><path class="cls-2" d="M359.06,278.25H217.27v-65H359.06Zm-139.42-2.38h137V215.6h-137Z"></path><rect class="cls-7" x="172.44" y="261.74" width="51.42" height="2.38" transform="translate(-39.47 35.04) rotate(-9.19)"></rect><rect class="cls-7" x="197.32" y="203.28" width="2.38" height="52.31" transform="translate(-64.07 381.43) rotate(-79.2)"></rect><g class="cls-8"><rect class="cls-2" x="280.59" y="241.07" width="1.8" height="19.5"></rect><rect class="cls-2" x="296.79" y="241.07" width="1.8" height="19.5"></rect><rect class="cls-2" x="280.89" y="258.47" width="16.8" height="2.1"></rect><circle class="cls-2" cx="283.2" cy="232.81" r="1.35"></circle><path class="cls-2" d="M289.65,237.46c-2.17,0-4-2-4.2-4.74l-.07-.81h8.53l-.06.81C293.62,235.42,291.82,237.46,289.65,237.46Zm-2.57-4.05a2.57,2.57,0,0,0,5.14,0Z"></path><polygon class="cls-2" points="304.54 241.99 297.52 234.68 293.42 233.65 293.85 231.9 298.46 233.06 305.84 240.74 304.54 241.99"></polygon><path class="cls-9" d="M293.59,232.76"></path><path class="cls-9" d="M293.19,232.66"></path><rect class="cls-2" x="277.32" y="242.45" width="4.71" height="2.1" transform="translate(-90 272.69) rotate(-45.56)"></rect><rect class="cls-2" x="275.81" y="239.98" width="1.8" height="5.46" transform="translate(-89.72 277.44) rotate(-46.67)"></rect><rect class="cls-2" x="272.37" y="236.72" width="10.4" height="1.8" transform="translate(-86.07 273.28) rotate(-46.17)"></rect><rect class="cls-2" x="298.42" y="241.14" width="2.1" height="4.71" transform="translate(-84.83 279.34) rotate(-44.44)"></rect><rect class="cls-2" x="299.7" y="241.82" width="5.46" height="1.8" transform="matrix(0.73, -0.69, 0.69, 0.73, -84.11, 273.7)"></rect></g><g class="cls-8"><rect class="cls-2" x="322.86" y="241.07" width="1.8" height="19.5"></rect><rect class="cls-2" x="339.06" y="241.07" width="1.8" height="19.5"></rect><rect class="cls-2" x="323.16" y="258.47" width="16.8" height="2.1"></rect><circle class="cls-2" cx="325.47" cy="232.81" r="1.35"></circle><path class="cls-2" d="M331.92,237.46c-2.17,0-4-2-4.2-4.74l-.07-.81h8.53l-.07.81C335.89,235.42,334.09,237.46,331.92,237.46Zm-2.57-4.05a2.57,2.57,0,0,0,5.13,0Z"></path><polygon class="cls-2" points="346.81 241.99 339.79 234.68 335.68 233.65 336.12 231.9 340.73 233.06 348.11 240.74 346.81 241.99"></polygon><path class="cls-9" d="M335.85,232.76"></path><path class="cls-9" d="M335.46,232.66"></path><rect class="cls-2" x="319.59" y="242.45" width="4.71" height="2.1" transform="translate(-77.32 302.87) rotate(-45.56)"></rect><rect class="cls-2" x="318.08" y="239.98" width="1.8" height="5.46" transform="translate(-76.46 308.18) rotate(-46.67)"></rect><rect class="cls-2" x="314.64" y="236.72" width="10.4" height="1.8" transform="translate(-73.07 303.78) rotate(-46.17)"></rect><rect class="cls-2" x="340.69" y="241.14" width="2.1" height="4.71" transform="translate(-72.74 308.93) rotate(-44.44)"></rect><rect class="cls-2" x="341.97" y="241.82" width="5.46" height="1.8" transform="translate(-72.59 302.71) rotate(-43.33)"></rect></g><path class="cls-10" d="M269.05,268.46H223.13V223.77h45.92Zm-43.14-2.78h40.36V226.55H225.91Z"></path><circle class="cls-11" cx="86.16" cy="232.98" r="1.83"></circle><path class="cls-12" d="M113.3,240.52"></path><path class="cls-12" d="M118.77,248.56"></path><path class="cls-11" d="M134.51,227.27a17.23,17.23,0,0,0-16.22,11.36h2.23a15.14,15.14,0,1,1-1,8.26l-.14-.88h-8.72V244.7l-1.89,1-2.4,1.27,4.29,2.27V248.1h7a17.28,17.28,0,1,0,16.91-20.83Z"></path><path class="cls-11" d="M97.56,259.74a15.21,15.21,0,0,1-15.2-15.2,15,15,0,0,1,2.49-8.31l-1.75-1.12a17.27,17.27,0,1,0,30.7,15.32h-2.23A15.19,15.19,0,0,1,97.56,259.74Z"></path><path class="cls-11" d="M121.44,239.87V241h-7a17.34,17.34,0,0,0-5.61-9.53,17.22,17.22,0,0,0-20.47-1.57l1.06,1.79a15.22,15.22,0,0,1,23.15,10.5l.14.88h8.72v1.31l1.9-1,2.39-1.26Z"></path><polygon class="cls-11" points="88.7 241.97 92.34 238.18 94.47 237.64 94.32 236.72 91.86 237.34 88.03 241.32 88.7 241.97"></polygon><rect class="cls-11" x="91.8" y="241.48" width="0.93" height="10.11"></rect><rect class="cls-11" x="100.21" y="241.48" width="0.93" height="10.11"></rect><rect class="cls-11" x="91.96" y="250.51" width="8.71" height="1.09"></rect><path class="cls-11" d="M96.5,239.61a2.43,2.43,0,0,1-2.17-2.46l0-.42h4.43l0,.42A2.44,2.44,0,0,1,96.5,239.61Zm-1.33-2.1a1.33,1.33,0,0,0,2.66,0Z"></path><polygon class="cls-11" points="104.23 241.96 100.59 238.17 98.46 237.63 98.68 236.73 101.07 237.33 104.9 241.31 104.23 241.96"></polygon><rect class="cls-11" x="90.11" y="242.2" width="2.44" height="1.09" transform="translate(-145.93 137.99) rotate(-45.56)"></rect><rect class="cls-11" x="89.33" y="240.92" width="0.93" height="2.83" transform="translate(-148.1 141.35) rotate(-46.67)"></rect><rect class="cls-11" x="101.05" y="241.52" width="1.09" height="2.44" transform="translate(-140.9 140.57) rotate(-44.44)"></rect><rect class="cls-11" x="101.72" y="241.87" width="2.83" height="0.93" transform="translate(-138.18 136.84) rotate(-43.33)"></rect><polygon class="cls-11" points="127.8 241.97 131.44 238.18 133.57 237.64 133.41 236.72 130.95 237.34 127.12 241.32 127.8 241.97"></polygon><rect class="cls-11" x="130.9" y="241.48" width="0.93" height="10.11"></rect><rect class="cls-11" x="139.3" y="241.48" width="0.93" height="10.11"></rect><rect class="cls-11" x="131.05" y="250.51" width="8.71" height="1.09"></rect><path class="cls-11" d="M135.59,239.61a2.43,2.43,0,0,1-2.17-2.46l0-.42h4.43l0,.42A2.43,2.43,0,0,1,135.59,239.61Zm-1.33-2.1a1.34,1.34,0,0,0,2.67,0Z"></path><polygon class="cls-11" points="143.32 241.96 139.68 238.17 137.55 237.63 137.77 236.73 140.16 237.33 143.99 241.31 143.32 241.96"></polygon><rect class="cls-11" x="129.2" y="242.2" width="2.44" height="1.09" transform="translate(-134.21 165.9) rotate(-45.56)"></rect><rect class="cls-11" x="128.42" y="240.92" width="0.93" height="2.83" transform="translate(-135.83 169.79) rotate(-46.67)"></rect><rect class="cls-11" x="140.15" y="241.52" width="1.09" height="2.44" transform="translate(-129.72 167.94) rotate(-44.44)"></rect><rect class="cls-11" x="140.81" y="241.87" width="2.83" height="0.93" transform="translate(-127.52 163.66) rotate(-43.33)"></rect></svg> 