<?xml version="1.0" encoding="UTF-8"?> <svg xmlns="http://www.w3.org/2000/svg" xmlns:xlink="http://www.w3.org/1999/xlink" id="Layer_2" data-name="Layer 2" viewBox="0 0 440 450"><defs><style>.cls-1{fill:none;}.cls-2,.cls-3{fill:#808b94;}.cls-2{opacity:0.25;isolation:isolate;}.cls-4,.cls-8{fill:#fff;}.cls-4{opacity:0.71;}.cls-5{fill:#ffe7b2;}.cls-6{fill:#2858a5;}.cls-7{clip-path:url(#clip-path);}.cls-9{fill:#009ca6;}</style><clipPath id="clip-path"><rect class="cls-1" x="145.64" y="149.64" width="136.77" height="164.25"></rect></clipPath></defs><rect class="cls-2" width="440" height="450"></rect><path class="cls-3" d="M343.44,171.85H343l0-3.38h.4a28.5,28.5,0,0,0,4.79-.4l.57,3.33A32.14,32.14,0,0,1,343.44,171.85Zm-4.51-.32a31.33,31.33,0,0,1-5.66-1.36l1.09-3.19a28.8,28.8,0,0,0,5.05,1.21Zm13.83-1.08-1-3.23a28.35,28.35,0,0,0,4.8-2l1.58,3A30.91,30.91,0,0,1,352.76,170.45Zm-23.26-1.84a31.09,31.09,0,0,1-5-3l2-2.7a28.71,28.71,0,0,0,4.43,2.71Zm32.13-2.52-1.95-2.76a28.57,28.57,0,0,0,3.94-3.36l.17-.16,1,1.25,1.35,1.19-.07.07h0A32.13,32.13,0,0,1,361.63,166.09Zm-40.17-3.15-.07-.07a31.27,31.27,0,0,1-3.73-4.38l2.75-2a28.49,28.49,0,0,0,3.36,3.93Zm47.24-3.73-2.7-2a28,28,0,0,0,2.72-4.43l3,1.5A31.51,31.51,0,0,1,368.7,159.21ZM315.52,155a32.8,32.8,0,0,1-2.23-5.38l3.23-1a27.59,27.59,0,0,0,2,4.8Zm57.79-4.53-3.19-1.09a28.25,28.25,0,0,0,1.21-5.06l3.34.49A30.51,30.51,0,0,1,373.31,150.49Zm-61-4.82a32.29,32.29,0,0,1-.45-5.38v-.42l3.37,0v.38a28.65,28.65,0,0,0,.41,4.81ZM375,140.76l-3.38,0v-.42a28.18,28.18,0,0,0-.4-4.77l3.33-.57a31.81,31.81,0,0,1,.45,5.34Zm-59.45-4.48-3.35-.48a31.33,31.33,0,0,1,1.36-5.66l3.19,1.08A28.22,28.22,0,0,0,315.55,136.28ZM370.38,132a28.45,28.45,0,0,0-2-4.81l3-1.57A31.86,31.86,0,0,1,373.6,131Zm-52.24-4.13-3-1.49a31.15,31.15,0,0,1,3.05-5l2.7,2A28.76,28.76,0,0,0,318.14,127.86Zm48.35-3.78a28.22,28.22,0,0,0-3.37-4l-.06-.06,2.35-2.42.06.06a31.17,31.17,0,0,1,3.78,4.43Zm-43.22-3.46-2.47-2.3,0,0a31.91,31.91,0,0,1,4.4-3.77l2,2.75A28.35,28.35,0,0,0,323.27,120.62Zm37-2.92a28.76,28.76,0,0,0-4.43-2.72l1.48-3a31.47,31.47,0,0,1,5,3Zm-30-2.33-1.58-3a32.09,32.09,0,0,1,5.38-2.23l1,3.23A27.59,27.59,0,0,0,330.28,115.37Zm22.21-1.77a28.14,28.14,0,0,0-5.05-1.21l.47-3.34a31.61,31.61,0,0,1,5.67,1.35Zm-13.87-1.07L338,109.2a31.61,31.61,0,0,1,5.41-.46h.4l-.05,3.37h-.35A27.88,27.88,0,0,0,338.62,112.53Z"></path><rect class="cls-4" x="280.53" y="171.24" width="38.5" height="1.69" transform="translate(-43.03 216.34) rotate(-37.21)"></rect><path class="cls-3" d="M103.5,339a2.53,2.53,0,0,1,2.24-2.79h0a2.53,2.53,0,0,1,2.8,2.23h0a2.54,2.54,0,0,1-2.24,2.8H106A2.53,2.53,0,0,1,103.5,339Zm-6.24,2.14a2.53,2.53,0,0,1-2.17-2.85h0a2.52,2.52,0,0,1,2.85-2.17h0a2.54,2.54,0,0,1,2.17,2.85h0a2.54,2.54,0,0,1-2.51,2.19h0A1.94,1.94,0,0,1,97.26,341.15Zm14.57-3.48a2.55,2.55,0,0,1,1.5-3.26h0a2.52,2.52,0,0,1,3.25,1.49h0a2.53,2.53,0,0,1-1.49,3.26h0a2.48,2.48,0,0,1-.88.16h0A2.55,2.55,0,0,1,111.83,337.67Zm-23.31,1.21a2.53,2.53,0,0,1-1.43-3.29h0a2.54,2.54,0,0,1,3.29-1.43h0a2.53,2.53,0,0,1,1.42,3.28h0a2.51,2.51,0,0,1-2.36,1.61h0A2.49,2.49,0,0,1,88.52,338.88Zm31.08-4.53a2.54,2.54,0,0,1,.67-3.53h0a2.53,2.53,0,0,1,3.51.67h0a2.55,2.55,0,0,1-.66,3.53h0a2.6,2.6,0,0,1-1.43.43h0A2.54,2.54,0,0,1,119.6,334.35Zm-39,.21A2.54,2.54,0,0,1,80,331h0a2.54,2.54,0,0,1,3.54-.59h0a2.54,2.54,0,0,1,.6,3.54h0A2.55,2.55,0,0,1,82,335h0A2.43,2.43,0,0,1,80.58,334.56Zm45.76-5.3a2.52,2.52,0,0,1-.2-3.58h0a2.53,2.53,0,0,1,3.57-.2h0a2.54,2.54,0,0,1,.21,3.58h0a2.55,2.55,0,0,1-1.9.84h0A2.51,2.51,0,0,1,126.34,329.26Zm-52.43-.8a2.54,2.54,0,0,1,.29-3.57h0a2.52,2.52,0,0,1,3.57.28h0a2.54,2.54,0,0,1-.28,3.57h0a2.54,2.54,0,0,1-1.65.61h0A2.58,2.58,0,0,1,73.91,328.46Zm57.74-5.76a2.52,2.52,0,0,1-1.06-3.42h0a2.53,2.53,0,0,1,3.42-1.07h0a2.54,2.54,0,0,1,1.06,3.42h0a2.53,2.53,0,0,1-2.24,1.35h0A2.45,2.45,0,0,1,131.65,322.7Zm-62.72-1.77a2.52,2.52,0,0,1,1.13-3.4h0a2.53,2.53,0,0,1,3.4,1.13h0a2.54,2.54,0,0,1-1.13,3.4h0a2.61,2.61,0,0,1-1.14.27h0A2.51,2.51,0,0,1,68.93,320.93ZM135.21,315a2.52,2.52,0,0,1-1.85-3.06h0a2.52,2.52,0,0,1,3.06-1.85h0a2.52,2.52,0,0,1,1.85,3.06h0a2.53,2.53,0,0,1-2.45,1.93h0A2.49,2.49,0,0,1,135.21,315Zm-69.33-2.62h0a2.53,2.53,0,0,1,1.91-3h0a2.54,2.54,0,0,1,3,1.92h0a2.54,2.54,0,0,1-1.92,3h0a3.43,3.43,0,0,1-.55.06h0A2.55,2.55,0,0,1,65.88,312.42Zm68.42-8.19h0a2.53,2.53,0,0,1,2.53-2.54h0a2.53,2.53,0,0,1,2.53,2.53h0a2.54,2.54,0,0,1-2.53,2.54h0A2.53,2.53,0,0,1,134.3,304.23ZM67.47,306a2.53,2.53,0,0,1-2.47-2.6h0A2.53,2.53,0,0,1,67.59,301h0a2.53,2.53,0,0,1,2.47,2.59h0A2.54,2.54,0,0,1,67.53,306h-.06Zm65.86-9.54a2.53,2.53,0,0,1,1.84-3.07h0a2.53,2.53,0,0,1,3.07,1.84h0a2.54,2.54,0,0,1-1.83,3.08h0a2.68,2.68,0,0,1-.62.07h0A2.54,2.54,0,0,1,133.33,296.48ZM68.09,297.6a2.55,2.55,0,0,1-1.78-3.12h0a2.52,2.52,0,0,1,3.11-1.78h0a2.54,2.54,0,0,1,1.77,3.11h0a2.53,2.53,0,0,1-2.44,1.86h0A2.56,2.56,0,0,1,68.09,297.6ZM70,291.19a2.55,2.55,0,0,1-1.15-3.4h0a2.54,2.54,0,0,1,3.4-1.15h0A2.55,2.55,0,0,1,73.4,290h0a2.56,2.56,0,0,1-2.28,1.41h0A2.62,2.62,0,0,1,70,291.19Zm60.52-2a2.52,2.52,0,0,1,1-3.42h0a2.53,2.53,0,0,1,3.42,1h0a2.54,2.54,0,0,1-1,3.43h0a2.55,2.55,0,0,1-1.19.29h0A2.52,2.52,0,0,1,130.52,289.2Zm-56.41-5.39a2.53,2.53,0,0,1-.29-3.57h0a2.52,2.52,0,0,1,3.57-.29h0a2.54,2.54,0,0,1,.29,3.57h0a2.54,2.54,0,0,1-1.94.89h0A2.51,2.51,0,0,1,74.11,283.81Zm51.94-1h0a2.51,2.51,0,0,1,.19-3.57h0a2.52,2.52,0,0,1,3.57.19h0a2.53,2.53,0,0,1-.19,3.58h0a2.53,2.53,0,0,1-1.69.64h0A2.51,2.51,0,0,1,126.05,282.8Zm-46.17-5.15a2.53,2.53,0,0,1,.58-3.54h0a2.55,2.55,0,0,1,3.54.58h0a2.55,2.55,0,0,1-.58,3.54h0a2.56,2.56,0,0,1-1.48.48h0A2.55,2.55,0,0,1,79.88,277.65Zm40.28,0a2.54,2.54,0,0,1-.68-3.52h0a2.55,2.55,0,0,1,3.52-.68h0a2.54,2.54,0,0,1,.68,3.52h0a2.54,2.54,0,0,1-2.1,1.11h0A2.49,2.49,0,0,1,120.16,277.68ZM87,273.06a2.52,2.52,0,0,1,1.41-3.29h0a2.53,2.53,0,0,1,3.29,1.41h0a2.53,2.53,0,0,1-1.41,3.29h0a2.41,2.41,0,0,1-.94.18h0A2.54,2.54,0,0,1,87,273.06Zm26.24,1.08a2.54,2.54,0,0,1-1.51-3.25h0a2.54,2.54,0,0,1,3.25-1.51h0a2.52,2.52,0,0,1,1.51,3.24h0a2.51,2.51,0,0,1-2.38,1.67h0A2.65,2.65,0,0,1,113.21,274.14ZM95,270.3a2.53,2.53,0,0,1,2.16-2.85h0a2.54,2.54,0,0,1,2.86,2.16h0a2.54,2.54,0,0,1-2.16,2.86h0a2.11,2.11,0,0,1-.35,0h0A2.53,2.53,0,0,1,95,270.3Zm10.66,2.06a2.54,2.54,0,0,1-2.25-2.79h0a2.52,2.52,0,0,1,2.79-2.24h0a2.52,2.52,0,0,1,2.25,2.78h0a2.55,2.55,0,0,1-2.52,2.27h0Z"></path><rect class="cls-4" x="135.11" y="278.73" width="18.89" height="1.69" transform="translate(-119.52 108.34) rotate(-29.7)"></rect><path class="cls-3" d="M329.3,339.43l-.25-5.06c.68,0,1.37-.09,2.05-.17h.14l.56,5h-.09C330.88,339.33,330.09,339.39,329.3,339.43Zm-4.16,0c-.8-.05-1.59-.12-2.37-.22l.63-5c.67.09,1.36.15,2,.19Zm10.77-.9-1.14-4.93c.67-.16,1.34-.33,2-.53l1.44,4.86C337.46,338.13,336.68,338.33,335.91,338.51Zm-17.24-.07c-.77-.18-1.54-.39-2.3-.63l1.49-4.84c.66.21,1.33.39,2,.55Zm23.46-1.95-2-4.66c.63-.27,1.26-.56,1.87-.86l2.27,4.52C343.59,335.85,342.86,336.18,342.13,336.49Zm-29.67-.13c-.72-.32-1.45-.66-2.15-1l2.32-4.51c.61.32,1.23.61,1.86.89Zm35.44-2.94-2.76-4.25c.57-.37,1.14-.76,1.69-1.17l3,4.06C349.22,332.54,348.56,333,347.9,333.42Zm-41.18-.19c-.66-.44-1.31-.9-1.94-1.38l3.06-4c.54.41,1.11.81,1.68,1.19Zm46.33-3.84-3.46-3.7c.5-.47,1-.95,1.46-1.45l3.69,3.47C354.19,328.29,353.63,328.85,353.05,329.39Zm-51.45-.23c-.57-.54-1.13-1.11-1.67-1.69l3.71-3.45c.47.5.95,1,1.45,1.46Zm55.82-4.63-4-3c.41-.54.81-1.11,1.19-1.68l4.23,2.79C358.36,323.25,357.9,323.91,357.42,324.53Zm-60.15-.26c-.47-.64-.93-1.3-1.36-2l4.26-2.75c.37.57.76,1.14,1.17,1.69ZM360.89,319l-4.51-2.3c.31-.61.61-1.24.88-1.87l4.65,2C361.59,317.57,361.25,318.29,360.89,319Zm-67-.3c-.35-.7-.68-1.43-1-2.16l4.66-2c.27.64.56,1.26.87,1.87Zm69.5-5.76-4.84-1.49c.2-.65.38-1.32.54-2l4.92,1.18C363.79,311.4,363.58,312.17,363.35,312.93Zm-71.89-.32c-.23-.76-.43-1.54-.6-2.31l4.94-1.12c.15.67.32,1.34.52,2Zm73.25-6.09-5-.61c.09-.68.15-1.37.19-2.05l5.05.29C364.88,304.94,364.81,305.74,364.71,306.52Zm-74.55-.33,2.52-.28-2.52.27c-.09-.79-.16-1.58-.2-2.35l5.06-.26c0,.67.09,1.35.17,2l-2.51.31Zm69.71-5.93c0-.66-.09-1.32-.16-2v-.1l5-.56v0c.09.8.15,1.56.19,2.32ZM295,300l-5.06-.3c0-.8.12-1.6.22-2.38l5,.63C295.14,298.59,295.08,299.28,295,300Zm64-5.32c-.15-.67-.33-1.34-.52-2l4.85-1.45c.23.76.43,1.53.61,2.3Zm-63.22-.28-4.93-1.18c.19-.76.4-1.53.63-2.29l4.84,1.49Q296.11,293.38,295.87,294.37Zm61.48-5.1c-.27-.63-.56-1.26-.86-1.87l4.53-2.27c.35.7.68,1.43,1,2.16ZM297.67,289,293,287q.48-1.1,1-2.16l4.51,2.32C298.23,287.76,297.94,288.38,297.67,289Zm57-4.73c-.37-.57-.77-1.14-1.18-1.69l4.07-3c.47.64.93,1.3,1.36,2ZM300.37,284l-4.23-2.8c.44-.66.91-1.32,1.38-1.94l4,3.06C301.15,282.9,300.75,283.46,300.37,284Zm50.85-4.22c-.47-.5-1-1-1.45-1.46l3.48-3.68c.57.54,1.13,1.11,1.67,1.69Zm-47.33-.21-3.68-3.49c.54-.57,1.11-1.13,1.69-1.67l3.45,3.71C304.85,278.62,304.36,279.11,303.89,279.61ZM347,276c-.54-.41-1.1-.81-1.68-1.19l2.8-4.22c.66.44,1.32.9,1.94,1.37Zm-38.89-.18-3-4.07c.64-.47,1.3-.93,2-1.35l2.75,4.25C309.24,275.05,308.67,275.44,308.12,275.85Zm34.1-2.82c-.61-.32-1.23-.61-1.86-.88l2-4.65c.73.32,1.46.66,2.16,1Zm-29.29-.14-2.26-4.53c.7-.35,1.43-.68,2.16-1l2,4.66C314.17,272.3,313.54,272.59,312.93,272.89Zm24.05-2c-.65-.2-1.32-.39-2-.55l1.18-4.92c.77.18,1.55.39,2.3.63Zm-18.79-.08L316.75,266c.76-.22,1.54-.43,2.31-.6l1.12,4.94C319.52,270.45,318.85,270.62,318.19,270.82Zm13.25-1.11c-.67-.08-1.36-.14-2-.18l.29-5.06c.8,0,1.59.12,2.38.22Zm-7.71,0-.56-5h.06c.76-.09,1.53-.15,2.3-.19l.26,5.06c-.66,0-1.33.09-2,.16Z"></path><rect class="cls-4" x="288.22" y="257.72" width="1.69" height="22.14" transform="translate(-101.71 324.49) rotate(-51.03)"></rect><rect class="cls-5" x="168.92" y="234.41" width="6.59" height="11.54"></rect><rect class="cls-5" x="181.06" y="227.39" width="6.59" height="18.56"></rect><rect class="cls-5" x="193.2" y="220.37" width="6.59" height="25.58"></rect><rect class="cls-5" x="205.34" y="232.52" width="6.59" height="13.42"></rect><rect class="cls-5" x="217.47" y="225.51" width="6.59" height="20.44"></rect><rect class="cls-5" x="229.61" y="218.49" width="6.59" height="27.46"></rect><rect class="cls-5" x="241.75" y="225.51" width="6.59" height="20.44"></rect><rect class="cls-5" x="253.89" y="218.49" width="6.59" height="27.46"></rect><polygon class="cls-6" points="173.89 217.46 170.54 211.79 196.99 196.18 209.17 208.08 233.19 194.72 244.98 203.68 255.1 195.43 259.27 200.54 245.12 212.06 232.63 202.57 208.09 216.23 196 204.41 173.89 217.46"></polygon><g class="cls-7"><path class="cls-8" d="M214.09,313.89l-2.37-1.12a222.24,222.24,0,0,1-32-19.06c-22.6-16.24-34.07-32.59-34.07-48.58l.25-57.75h10.47l.08,57.75c0,15.34,16.09,30.12,29.59,39.82a212.29,212.29,0,0,0,28,16.91c36.14-18.51,57.62-39.61,57.62-56.73V170.44l-57.29-9.83-45.06,9-2.42-10.48,47.35-9.55,68.22,11.7v83.8c0,30.11-41.33,55.27-66,67.59Z"></path></g><path class="cls-8" d="M162.6,170.41a8.82,8.82,0,1,1-8.82-8.82,8.81,8.81,0,0,1,8.82,8.82"></path><path class="cls-9" d="M341,149.33l-.11-1.46c-.33-3,.65-6.34,3.34-9.71,2.43-3,3.77-5.16,3.77-7.69,0-2.86-1.72-4.77-5.12-4.83a9.36,9.36,0,0,0-5.44,1.74l-1.3-3.53a13.73,13.73,0,0,1,7.71-2.25c6.2,0,9,4,9,8.25,0,3.82-2.05,6.57-4.64,9.77-2.37,2.92-3.23,5.39-3.07,8.25l.05,1.46Zm-1.19,7.86a3.26,3.26,0,0,1,3.23-3.54,3.52,3.52,0,1,1-3.23,3.54Z"></path><polygon class="cls-9" points="338.18 279.71 313.08 298.39 330.74 302.4 313.08 324.45 344.92 299.16 326.38 295.6 338.18 279.71"></polygon><path class="cls-9" d="M98.57,323.26a3.91,3.91,0,0,1,3.93-4.14,4.14,4.14,0,0,1,0,8.27A3.91,3.91,0,0,1,98.57,323.26Zm1.66-9.53-.93-32h6.4l-.93,32Z"></path></svg> 