<?xml version="1.0" encoding="UTF-8"?> <svg xmlns="http://www.w3.org/2000/svg" id="Layer_2" data-name="Layer 2" viewBox="0 0 440 450"><defs><style>.cls-1{fill:#808b94;opacity:0.25;isolation:isolate;}.cls-2,.cls-7{fill:#fff;}.cls-2{stroke:#fff;stroke-width:0.25px;opacity:0.8;}.cls-2,.cls-4,.cls-8{stroke-miterlimit:10;}.cls-3{opacity:0.75;}.cls-4,.cls-8{fill:none;}.cls-4{stroke:#00263e;stroke-width:3.25px;}.cls-5{fill:#00263e;}.cls-6{fill:#ffb000;}.cls-8{stroke:#009ca6;stroke-width:7px;}.cls-9{fill:#2858a5;}.cls-10{fill:#009ca6;}.cls-11{fill:#65b32e;}</style></defs><rect class="cls-1" width="440" height="450"></rect><rect class="cls-2" x="313.58" y="302.28" width="27.61" height="0.53" transform="translate(335.94 -143.15) rotate(48.36)"></rect><g class="cls-3"><line class="cls-4" x1="201.08" y1="226.83" x2="205.23" y2="231.15"></line><line class="cls-4" x1="209.17" y1="235.25" x2="213.32" y2="239.57"></line><polygon class="cls-5" points="198.98 230.49 197.04 222.62 204.82 224.88 198.98 230.49"></polygon><polygon class="cls-5" points="209.58 241.53 217.36 243.78 215.42 235.91 209.58 241.53"></polygon></g><rect class="cls-2" x="322.48" y="266.46" width="21.21" height="0.53" transform="translate(540.42 -106.24) rotate(80.38)"></rect><rect class="cls-2" x="300.49" y="309.16" width="35.8" height="0.53" transform="translate(95.85 -74.76) rotate(15.74)"></rect><rect class="cls-2" x="290.82" y="326.73" width="55.52" height="0.53" transform="translate(284.14 -128.23) rotate(39.93)"></rect><rect class="cls-2" x="247.03" y="271.76" width="35.8" height="0.53" transform="translate(-68.76 453.25) rotate(-74.26)"></rect><rect class="cls-2" x="149.8" y="133.76" width="35.8" height="0.53" transform="translate(42.64 -40.46) rotate(15.74)"></rect><circle class="cls-6" cx="188.06" cy="139.38" r="4.43"></circle><path class="cls-6" d="M188.05,135.19a4.36,4.36,0,0,1,1.14.16,4.2,4.2,0,0,1,2.52,2,4.2,4.2,0,0,1-1.15,5.4,4,4,0,0,1-1.18.62,4.25,4.25,0,0,1-1.32.22,4.42,4.42,0,0,1-1.14-.16,4.19,4.19,0,0,1-1.37-7.38,4,4,0,0,1,1.18-.62,4.25,4.25,0,0,1,1.32-.22m0-.24a4.43,4.43,0,0,0-1.2,8.7,4.63,4.63,0,0,0,1.21.16,4.43,4.43,0,0,0,1.2-8.7,4.57,4.57,0,0,0-1.21-.16Z"></path><circle class="cls-7" cx="185.52" cy="137.42" r="0.27"></circle><path class="cls-7" d="M188.07,142.19a.45.45,0,1,1,.45-.45A.45.45,0,0,1,188.07,142.19Zm0-.67a.22.22,0,0,0-.21.22.21.21,0,0,0,.21.21.21.21,0,0,0,.22-.21A.22.22,0,0,0,188.07,141.52Z"></path><path class="cls-7" d="M190,142.19a.45.45,0,1,1,.45-.45A.45.45,0,0,1,190,142.19Zm0-.67a.22.22,0,0,0-.21.22.21.21,0,0,0,.21.21.21.21,0,0,0,.22-.21A.22.22,0,0,0,190,141.52Z"></path><path class="cls-7" d="M190.73,140.49h-3.19a.16.16,0,0,1,0-.32h2.92l.33-1.58H187.1a.17.17,0,0,1-.16-.17.16.16,0,0,1,.16-.16h4.09Z"></path><polygon class="cls-7" points="190.46 141.18 187.57 141.18 186.74 137.58 186.01 137.58 186.01 137.25 187 137.25 187.83 140.86 190.46 140.86 190.46 141.18"></polygon><polygon class="cls-7" points="190.38 138.55 189.42 137.59 188.78 138.23 188.55 138 189.42 137.13 190.61 138.32 190.38 138.55"></polygon><polygon class="cls-7" points="187.77 138.5 187.54 138.27 188.33 137.48 189.11 138.27 188.88 138.5 188.33 137.94 187.77 138.5"></polygon><rect class="cls-2" x="141.95" y="144.93" width="35.8" height="0.53" transform="translate(149.49 -70.51) rotate(45)"></rect><rect class="cls-2" x="112.84" y="120.78" width="21.41" height="0.53" transform="translate(192.2 279.8) rotate(-157.8)"></rect><rect class="cls-2" x="114.96" y="153.22" width="35.8" height="0.53" transform="translate(325.21 88.56) rotate(112.23)"></rect><rect class="cls-2" x="145.41" y="115.11" width="37.48" height="0.53" transform="translate(-31.89 72.64) rotate(-22.8)"></rect><rect class="cls-2" x="135.83" y="178.51" width="43.73" height="0.53" transform="translate(-79.88 159.13) rotate(-43.86)"></rect><rect class="cls-2" x="104.16" y="134.44" width="36.5" height="0.53" transform="translate(75.46 310.57) rotate(-122.79)"></rect><rect class="cls-2" x="180.44" y="167.55" width="21.41" height="0.53" transform="matrix(0.94, 0.33, -0.33, 0.94, 67.12, -54.26)"></rect><rect class="cls-2" x="169.47" y="176.14" width="21.41" height="0.53" transform="translate(305.13 -42.62) rotate(75.31)"></rect><rect class="cls-2" x="123.19" y="181.45" width="21.41" height="0.53" transform="translate(249.62 -12.08) rotate(67.23)"></rect><polygon class="cls-2" points="151.15 215.52 140.74 197.15 141.16 196.88 151.58 215.25 151.15 215.52"></polygon><rect class="cls-2" x="105.4" y="102.03" width="21.41" height="0.53" transform="translate(-22.48 171.15) rotate(-67.8)"></rect><path class="cls-8" d="M122.51,95.57"></path><circle class="cls-9" cx="121.61" cy="89.3" r="4.43"></circle><path class="cls-9" d="M121.61,85.11a4.24,4.24,0,0,1,1.58.31,4.2,4.2,0,0,1,2.3,5.46,4.18,4.18,0,0,1-3.88,2.6,4.19,4.19,0,0,1,0-8.37h0m0-.24a4.43,4.43,0,0,0-1.67,8.53,4.29,4.29,0,0,0,1.67.33,4.43,4.43,0,0,0,1.68-8.54,4.51,4.51,0,0,0-1.68-.32Z"></path><rect class="cls-2" x="94.02" y="129.73" width="21.41" height="0.53" transform="translate(264.66 82.13) rotate(112.2)"></rect><path class="cls-8" d="M88.12,134.66"></path><circle class="cls-9" cx="99.22" cy="142.99" r="4.43"></circle><path class="cls-9" d="M99.22,138.56v.25a4,4,0,0,1,1.58.31,4.13,4.13,0,0,1,2.28,2.25,4.19,4.19,0,0,1-3.86,5.81,4.32,4.32,0,0,1-1.58-.31,4.19,4.19,0,0,1-2.27-2.26,4.13,4.13,0,0,1,0-3.2,4.18,4.18,0,0,1,3.87-2.6v-.25m0,0a4.43,4.43,0,0,0-1.67,8.53,4.29,4.29,0,0,0,1.67.33,4.43,4.43,0,0,0,1.68-8.53,4.33,4.33,0,0,0-1.68-.33Z"></path><polygon class="cls-2" points="134.19 225 127.8 204.86 128.27 204.69 134.66 224.82 134.19 225"></polygon><rect class="cls-2" x="115.4" y="186.05" width="21.41" height="0.53" transform="translate(300.62 44.32) rotate(84.96)"></rect><rect class="cls-2" x="100.88" y="172.97" width="21.41" height="0.53" transform="translate(281.52 289.78) rotate(157.23)"></rect><rect class="cls-2" x="103.22" y="181.71" width="21.41" height="0.53" transform="translate(318.74 246.36) rotate(139.5)"></rect><path class="cls-8" d="M67.74,226.85"></path><path class="cls-8" d="M122,214.35"></path><path class="cls-8" d="M94.58,216.92"></path><path class="cls-8" d="M140.55,248.34"></path><path class="cls-8" d="M143.3,245.64"></path><path class="cls-8" d="M167.66,147.9"></path><circle class="cls-6" cx="176.61" cy="161.97" r="5.89"></circle><path class="cls-6" d="M176.61,156.32a5.68,5.68,0,0,1,4,1.66,5.66,5.66,0,0,1,1.24,6.11,5.87,5.87,0,0,1-1.24,1.87,5.65,5.65,0,0,1-9.23-6.12,5.68,5.68,0,0,1,5.23-3.52m0-.25a5.9,5.9,0,1,0,4.17,1.73,5.88,5.88,0,0,0-4.17-1.73Z"></path><path class="cls-8" d="M197.79,93.18"></path><path class="cls-8" d="M195.05,95.88"></path><path class="cls-8" d="M102.3,173.46"></path><path class="cls-8" d="M112.06,210.2"></path><path class="cls-8" d="M132.89,117.7"></path><path class="cls-8" d="M140.76,186.85"></path><circle class="cls-10" cx="125.06" cy="171.89" r="5.89"></circle><path class="cls-10" d="M125.06,166.24a5.64,5.64,0,0,1,5.21,3.47,5.71,5.71,0,0,1,.44,2.19,5.58,5.58,0,0,1-.42,2.13,5.86,5.86,0,0,1-1.19,1.81,5.65,5.65,0,0,1-9.26-6.09,5.86,5.86,0,0,1,1.19-1.81,5.74,5.74,0,0,1,4-1.7m0-.24a5.77,5.77,0,0,0-2.28.46,5.89,5.89,0,0,0,2.29,11.32,5.77,5.77,0,0,0,2.28-.46A5.89,5.89,0,0,0,125.06,166Z"></path><circle class="cls-10" cx="139.54" cy="194.66" r="4.43"></circle><path class="cls-10" d="M139.54,190.47a4.26,4.26,0,0,1,2.29.68,4.19,4.19,0,0,1,1.58,5.09,4.2,4.2,0,0,1-3.87,2.6,4.23,4.23,0,0,1-2.29-.68,4.2,4.2,0,0,1-1.59-5.09,4.19,4.19,0,0,1,2.26-2.27,4.12,4.12,0,0,1,1.62-.33m0-.25a4.34,4.34,0,0,0-1.72.35,4.43,4.43,0,0,0,1.72,8.52,4.33,4.33,0,0,0,1.71-.35,4.43,4.43,0,0,0-1.71-8.52Z"></path><circle class="cls-6" cx="127.29" cy="201.35" r="4.32"></circle><path class="cls-6" d="M127.29,197.28a4.06,4.06,0,0,1,3.76,2.5,4.07,4.07,0,0,1-6,5,4,4,0,0,1-1.52-1.83,4.06,4.06,0,0,1,0-3.12,4.1,4.1,0,0,1,3.77-2.53m0-.25a4.32,4.32,0,0,0,0,8.64,4.25,4.25,0,0,0,1.67-.33,4.32,4.32,0,0,0-1.67-8.31Z"></path><circle class="cls-6" cx="98.5" cy="178.52" r="4.43"></circle><path class="cls-6" d="M98.49,174.34a4.22,4.22,0,1,1-1.61.33,4.07,4.07,0,0,1,1.61-.33h0m0-.25a4.33,4.33,0,0,0-1.71.35A4.43,4.43,0,0,0,98.5,183a4.33,4.33,0,0,0,1.71-.35,4.43,4.43,0,0,0-1.72-8.52Z"></path><circle class="cls-10" cx="102.55" cy="191.88" r="4.32"></circle><path class="cls-10" d="M102.54,187.81a4.07,4.07,0,0,1,3.78,5.61,4.12,4.12,0,0,1-2.2,2.22,4.11,4.11,0,0,1-3.8-.35,4.14,4.14,0,0,1-1.53-1.83,4,4,0,0,1,0-3.12,4,4,0,0,1,3.76-2.53h0m0-.25a4.32,4.32,0,1,0,4,2.65,4.34,4.34,0,0,0-4-2.65Z"></path><polygon class="cls-2" points="109 218.91 124.68 204.75 124.36 204.36 108.68 218.51 109 218.91"></polygon><circle class="cls-10" cx="108.07" cy="220.3" r="3.53"></circle><path class="cls-10" d="M108.07,217a3.27,3.27,0,0,1,1.79.54,3.16,3.16,0,0,1,1.23,1.47,3.22,3.22,0,0,1,0,2.51,3.25,3.25,0,0,1-1.76,1.79,3.28,3.28,0,0,1-4.3-1.76,3.29,3.29,0,0,1,3-4.55h0m0-.25a3.54,3.54,0,0,0-3.26,4.9,3.54,3.54,0,0,0,3.26,2.16,3.62,3.62,0,0,0,1.36-.27,3.53,3.53,0,0,0-1.36-6.79Z"></path><circle class="cls-10" cx="134.29" cy="226.68" r="3.53"></circle><path class="cls-10" d="M134.28,223.39a3.32,3.32,0,0,1,1.45.34,3.29,3.29,0,0,1,1.18,1,3.2,3.2,0,0,1,.62,2.43,3.24,3.24,0,0,1-1.27,2.16,3.3,3.3,0,0,1-4.6-.65,3.29,3.29,0,0,1,2.62-5.26m0-.24a3.53,3.53,0,1,0,2.83,1.41,3.54,3.54,0,0,0-2.83-1.41Z"></path><rect class="cls-2" x="88.62" y="123.24" width="21.41" height="0.53" transform="translate(247.4 180.04) rotate(149.71)"></rect><rect class="cls-2" x="84.42" y="115.91" width="21.41" height="0.53" transform="translate(200.16 223.48) rotate(174.93)"></rect><rect class="cls-2" x="96.85" y="101.76" width="21.41" height="0.53" transform="translate(33.62 230.52) rotate(-103.57)"></rect><rect class="cls-2" x="88.75" y="103.72" width="21.41" height="0.53" transform="translate(85.06 247.16) rotate(-130.53)"></rect><path class="cls-8" d="M64.5,84.67"></path><path class="cls-8" d="M108,92.36"></path><path class="cls-8" d="M71.23,102.13"></path><path class="cls-8" d="M97.81,129.25"></path><path class="cls-8" d="M94.6,130.83"></path><circle class="cls-6" cx="109.55" cy="115.12" r="5.89"></circle><path class="cls-6" d="M109.55,109.47a5.63,5.63,0,0,1,5.2,3.46,5.55,5.55,0,0,1,.45,2.2,5.93,5.93,0,0,1-.42,2.12,5.64,5.64,0,0,1-1.19,1.81,5.7,5.7,0,0,1-4,1.71,5.63,5.63,0,0,1-5.2-3.46,5.55,5.55,0,0,1-.45-2.2,5.93,5.93,0,0,1,.42-2.12,5.64,5.64,0,0,1,1.19-1.81,5.7,5.7,0,0,1,4-1.71m0-.24a5.74,5.74,0,0,0-2.28.46A5.89,5.89,0,0,0,109.55,121a5.74,5.74,0,0,0,2.28-.46,5.89,5.89,0,0,0-2.28-11.32Z"></path><circle class="cls-10" cx="87.24" cy="130.79" r="4.43"></circle><path class="cls-10" d="M87.23,126.6a4.25,4.25,0,0,1,2.06.54,4.19,4.19,0,0,1,.06,7.26,4.23,4.23,0,0,1-2.11.57,4.08,4.08,0,0,1-2-.54,4.15,4.15,0,0,1-2-4.71,4.15,4.15,0,0,1,1.94-2.55,4.22,4.22,0,0,1,2.1-.57m0-.25a4.43,4.43,0,1,0,3.83,2.2,4.43,4.43,0,0,0-3.83-2.2Z"></path><circle class="cls-10" cx="80.09" cy="117.36" r="4.32"></circle><path class="cls-10" d="M80.09,113.29a4.12,4.12,0,0,1,2.23.66,4.08,4.08,0,0,1-.65,7.17,4.13,4.13,0,0,1-1.58.32,4,4,0,0,1-2.23-.67,4,4,0,0,1-1.52-1.83,4,4,0,0,1,0-3.11,4,4,0,0,1,2.19-2.22,4.13,4.13,0,0,1,1.58-.32m0-.25a4.26,4.26,0,0,0-1.67.34,4.32,4.32,0,0,0,1.67,8.31,4.26,4.26,0,0,0,1.67-.34A4.32,4.32,0,0,0,80.09,113Z"></path><circle class="cls-10" cx="104.43" cy="88.25" r="4.43"></circle><path class="cls-10" d="M104.43,84.07A4.19,4.19,0,0,1,107,85a4.24,4.24,0,0,1,.93,1,4.38,4.38,0,0,1,.57,1.31,4.2,4.2,0,0,1-.5,3.17,4.14,4.14,0,0,1-2.59,1.88,4,4,0,0,1-1,.12,4.19,4.19,0,0,1-2.57-.88,4.24,4.24,0,0,1-.93-1,4.5,4.5,0,0,1-.57-1.31,4.2,4.2,0,0,1,.5-3.17,4.14,4.14,0,0,1,2.59-1.88,4,4,0,0,1,1-.12h0m0-.25a4.17,4.17,0,0,0-1,.13,4.43,4.43,0,0,0,1,8.74,4.17,4.17,0,0,0,1-.13,4.43,4.43,0,0,0-1-8.74Z"></path><rect class="cls-2" x="185.23" y="116.56" width="21.41" height="0.53" transform="translate(127.48 -100.78) rotate(41.73)"></rect><path class="cls-8" d="M200.14,125.11"></path><circle class="cls-6" cx="206.35" cy="126.36" r="4.43"></circle><path class="cls-6" d="M206.35,122.18a4.19,4.19,0,0,1,1.68,8,4.19,4.19,0,1,1-1.68-8h0m0-.25a4.43,4.43,0,0,0-2.95,7.74,4.38,4.38,0,0,0,2.95,1.13,4.44,4.44,0,0,0,0-8.87Z"></path><path class="cls-8" d="M186.16,77.37"></path><rect class="cls-2" x="176.33" y="92.56" width="21.41" height="0.53" transform="translate(55.53 255.01) rotate(-77.36)"></rect><rect class="cls-2" x="184.39" y="95.35" width="21.41" height="0.53" transform="translate(-3.44 183.86) rotate(-50.07)"></rect><rect class="cls-2" x="189.94" y="107.03" width="21.41" height="0.53" transform="translate(8.97 -15.31) rotate(4.47)"></rect><polygon class="cls-2" points="235.75 121.03 217.74 110.8 217.46 111.23 235.46 121.46 235.75 121.03"></polygon><path class="cls-8" d="M239,96.23"></path><path class="cls-8" d="M202.86,121.53"></path><path class="cls-8" d="M171.27,96.88"></path><path class="cls-8" d="M183.73,84.91"></path><circle class="cls-10" cx="185.64" cy="106.56" r="5.89"></circle><path class="cls-10" d="M185.64,100.91a5.58,5.58,0,0,1,2.13.42,5.51,5.51,0,0,1,1.87,1.24,5.63,5.63,0,0,1,1.65,3.92,5.64,5.64,0,0,1-10.85,2.25,5.51,5.51,0,0,1-.44-2.12,5.65,5.65,0,0,1,5.64-5.71m0-.25A5.89,5.89,0,0,0,183.42,112a5.78,5.78,0,0,0,2.22.44,5.89,5.89,0,0,0,2.23-11.35,5.83,5.83,0,0,0-2.23-.44Z"></path><circle class="cls-9" cx="189.5" cy="79.52" r="4.43"></circle><path class="cls-9" d="M189.5,75.34a4.24,4.24,0,0,1,1.11.15,4.18,4.18,0,0,1,2.93,5.14A4.13,4.13,0,0,1,192,82.86a4.18,4.18,0,0,1-2.52.85A4.19,4.19,0,0,1,187,76.18a4.26,4.26,0,0,1,2.52-.84m0-.25a4.43,4.43,0,0,0-1.17,8.71,4.75,4.75,0,0,0,1.17.15,4.43,4.43,0,0,0,1.17-8.7,4.29,4.29,0,0,0-1.17-.16Z"></path><circle class="cls-10" cx="204.89" cy="84.14" r="4.43"></circle><path class="cls-10" d="M204.89,80a4.32,4.32,0,0,1,1.58.31,4.19,4.19,0,0,1,2.29,5.46,4.18,4.18,0,0,1-3.88,2.6,4,4,0,0,1-1.57-.31A4.13,4.13,0,0,1,201,85.76a4.18,4.18,0,0,1,0-3.2,4.08,4.08,0,0,1,1.57-1.91,4.15,4.15,0,0,1,2.31-.7m0-.25a4.43,4.43,0,0,0-1.68,8.54,4.51,4.51,0,0,0,1.67.33,4.44,4.44,0,0,0,0-8.87Z"></path><circle class="cls-10" cx="215.7" cy="108.33" r="4.43"></circle><path class="cls-10" d="M215.7,103.89v.25a4.28,4.28,0,0,1,1.58.31,4.18,4.18,0,0,1,2.29,5.46,4.15,4.15,0,0,1-3.87,2.6,4.12,4.12,0,0,1-1.58-.31,4.19,4.19,0,0,1-2.28-2.25,4.19,4.19,0,0,1,3.86-5.81v-.25m0,0a4.43,4.43,0,1,0,1.68.33,4.53,4.53,0,0,0-1.68-.33Z"></path><circle class="cls-10" cx="236.63" cy="121.36" r="3.62"></circle><path class="cls-10" d="M236.63,118a3.27,3.27,0,0,1,1.27.25,3.37,3.37,0,0,1,1.85,4.4,3.39,3.39,0,0,1-1.26,1.54,3.44,3.44,0,0,1-1.86.56,3.51,3.51,0,0,1-1.28-.25,3.37,3.37,0,0,1-.58-5.94,3.33,3.33,0,0,1,1.86-.56h0m0-.25a3.62,3.62,0,0,0-1.37,7,3.49,3.49,0,0,0,1.37.27,3.62,3.62,0,0,0,1.37-7,3.71,3.71,0,0,0-1.37-.27Z"></path><circle class="cls-6" cx="151.6" cy="217.14" r="3.53"></circle><path class="cls-6" d="M151.6,213.86a3.31,3.31,0,0,1,2.16.81,3.27,3.27,0,0,1,1.11,2.25,3.28,3.28,0,1,1-5.74-1.94,3.28,3.28,0,0,1,2.47-1.12m0-.25a3.54,3.54,0,1,0,2.32.88,3.53,3.53,0,0,0-2.32-.88Z"></path><polygon class="cls-2" points="228.63 176.55 207.72 173.53 207.76 173.03 228.67 176.05 228.63 176.55"></polygon><polygon class="cls-2" points="178 212.84 181.76 192.48 181.26 192.35 177.51 212.72 178 212.84"></polygon><polygon class="cls-2" points="191.45 214.62 185.54 194.34 185.05 194.46 190.96 214.74 191.45 214.62"></polygon><path class="cls-8" d="M213.74,182.86"></path><path class="cls-8" d="M205.67,190"></path><circle class="cls-10" cx="204.34" cy="172.46" r="4.32"></circle><path class="cls-10" d="M204.33,168.39h.22a4.07,4.07,0,0,1-.21,8.14h-.22a4.07,4.07,0,0,1,.21-8.14m0-.25a4.32,4.32,0,0,0-.22,8.63h.23a4.32,4.32,0,0,0,.22-8.63Z"></path><circle class="cls-10" cx="184.14" cy="190.96" r="4.32"></circle><path class="cls-10" d="M184.14,186.64v.25h.22a4.07,4.07,0,0,1-.21,8.14h-.22a4.07,4.07,0,0,1,.21-8.14v-.25m0,0a4.32,4.32,0,0,0-.23,8.64h.24a4.32,4.32,0,0,0,.22-8.63Z"></path><polygon class="cls-2" points="212.17 196.57 206.26 176.29 205.77 176.41 211.68 196.69 212.17 196.57"></polygon><circle class="cls-10" cx="230.18" cy="177.19" r="3.53"></circle><path class="cls-10" d="M230.18,173.91a3.26,3.26,0,0,1,2.07.74,3.31,3.31,0,0,1,1.15,1.91,3.29,3.29,0,0,1-2.59,3.85,3.39,3.39,0,0,1-.64.06,3.28,3.28,0,0,1-2.07-.74,3.24,3.24,0,0,1-1.14-1.91,3.27,3.27,0,0,1,2.59-3.85,3.36,3.36,0,0,1,.63-.06m0-.25a3.21,3.21,0,0,0-.68.07,3.53,3.53,0,0,0,.67,7,3.23,3.23,0,0,0,.69-.07,3.53,3.53,0,0,0-.68-7Z"></path><polygon class="cls-2" points="201.7 207.68 188.39 191.81 187.97 192.12 201.28 207.98 201.7 207.68"></polygon><circle class="cls-10" cx="203.44" cy="210.05" r="3.62"></circle><path class="cls-10" d="M203.44,206.68a3.38,3.38,0,0,1,3.35,3,3.37,3.37,0,0,1-2.95,3.75,2.73,2.73,0,0,1-.41,0,3.37,3.37,0,0,1-3.34-3,3.33,3.33,0,0,1,.7-2.49,3.28,3.28,0,0,1,2.25-1.26,2.69,2.69,0,0,1,.4,0h0m0-.25a3.11,3.11,0,0,0-.43,0,3.62,3.62,0,0,0,.42,7.21,3.17,3.17,0,0,0,.44,0,3.62,3.62,0,0,0-.43-7.22Z"></path><circle class="cls-6" cx="192.57" cy="217.59" r="3.53"></circle><path class="cls-6" d="M192.58,214.31a3.28,3.28,0,0,1,2.57,5.31,3.24,3.24,0,0,1-2.19,1.23,2.55,2.55,0,0,1-.39,0,3.28,3.28,0,0,1-.39-6.54l.4,0h0m0-.25a3.11,3.11,0,0,0-.43,0,3.53,3.53,0,0,0,.42,7l.42,0a3.53,3.53,0,0,0-.41-7Z"></path><circle class="cls-9" cx="176.76" cy="215.62" r="3.53"></circle><path class="cls-9" d="M176.75,212.34a3.27,3.27,0,0,1,3.27,3.58,3.23,3.23,0,0,1-1.17,2.22,3.28,3.28,0,0,1-4.19-5,3.32,3.32,0,0,1,2.09-.75h0m0-.25a3.53,3.53,0,0,0,0,7.06,3.53,3.53,0,1,0,0-7.06Z"></path><path class="cls-8" d="M235.28,134.83"></path><rect class="cls-2" x="209.15" y="132.48" width="21.21" height="0.53" transform="translate(66.44 -73.19) rotate(22.2)"></rect><path class="cls-8" d="M224.81,130.39"></path><path class="cls-8" d="M228.16,131.54"></path><circle class="cls-9" cx="232.77" cy="137.85" r="3.62"></circle><path class="cls-9" d="M232.77,134.48a3.51,3.51,0,0,1,1.28.25,3.38,3.38,0,0,1,1.84,4.4,3.33,3.33,0,0,1-1.26,1.54,3.41,3.41,0,0,1-1.86.56,3.46,3.46,0,0,1-1.27-.25,3.37,3.37,0,0,1-1.85-4.4,3.39,3.39,0,0,1,1.26-1.54,3.35,3.35,0,0,1,1.86-.56m0-.25a3.63,3.63,0,0,0-1.37,7,3.67,3.67,0,0,0,1.37.27,3.63,3.63,0,0,0,1.37-7,3.67,3.67,0,0,0-1.37-.27Z"></path><circle class="cls-9" cx="213.75" cy="199.08" r="3.53"></circle><path class="cls-9" d="M213.75,195.8a3.29,3.29,0,0,1,2.1,5.81,3.35,3.35,0,0,1-2.1.75,3.28,3.28,0,0,1-2.1-5.8,3.3,3.3,0,0,1,2.1-.76h0m0-.25A3.53,3.53,0,1,0,216,201.8a3.53,3.53,0,0,0-2.25-6.25Z"></path><circle class="cls-9" cx="133.91" cy="152.4" r="4.43"></circle><path class="cls-9" d="M133.91,148.21a4.18,4.18,0,0,1,2.29.69,4.19,4.19,0,0,1-.67,7.36,4.29,4.29,0,0,1-1.62.32,4.17,4.17,0,0,1-2.29-.68,4.23,4.23,0,0,1-1.57-1.88,4.19,4.19,0,0,1,3.86-5.81m0-.24a4.58,4.58,0,0,0-1.72.34,4.43,4.43,0,0,0,1.72,8.52,4.58,4.58,0,0,0,1.72-.34,4.43,4.43,0,0,0-1.72-8.52Z"></path><path class="cls-7" d="M217.81,110.86h-4.17a.42.42,0,0,1-.42-.42v-3.88h.33v3.88a.09.09,0,0,0,.09.09h4.17a.09.09,0,0,0,.09-.09v-4.17a.09.09,0,0,0-.09-.09h-3.94v-.33h3.94a.42.42,0,0,1,.42.42v4.17A.42.42,0,0,1,217.81,110.86Z"></path><path class="cls-7" d="M216.73,110.7h-.23v-1.93h.62l.06-.48h-.68v-.57c0-.19.05-.46.47-.46h.25v-.41h-.43a.74.74,0,0,0-.79.81v.64h-.61v.48H216v1.93h-.23V109h-.61v-.94h.61v-.41a1,1,0,0,1,1-1.05,4.27,4.27,0,0,1,.56,0h.11v.86H217c-.21,0-.24.07-.24.22v.34h.72l-.12.94h-.6Z"></path><circle class="cls-7" cx="213.42" cy="106.11" r="0.27"></circle><circle class="cls-7" cx="203.79" cy="124.37" r="0.27"></circle><path class="cls-7" d="M206.34,129.14a.45.45,0,1,1,.45-.45A.45.45,0,0,1,206.34,129.14Zm0-.66a.21.21,0,0,0-.21.21.22.22,0,1,0,.43,0A.21.21,0,0,0,206.34,128.48Z"></path><path class="cls-7" d="M208.26,129.14a.45.45,0,1,1,.44-.45A.45.45,0,0,1,208.26,129.14Zm0-.66a.21.21,0,0,0-.22.21.22.22,0,1,0,.43,0A.21.21,0,0,0,208.26,128.48Z"></path><path class="cls-7" d="M209,127.45h-3.18a.17.17,0,0,1-.17-.17.16.16,0,0,1,.17-.16h2.92l.32-1.58h-3.69a.16.16,0,0,1-.16-.17.16.16,0,0,1,.16-.16h4.09Z"></path><polygon class="cls-7" points="208.73 128.14 205.84 128.14 205.01 124.53 204.28 124.53 204.28 124.21 205.27 124.21 206.1 127.81 208.73 127.81 208.73 128.14"></polygon><polygon class="cls-7" points="208.65 125.5 207.69 124.55 207.06 125.18 206.82 124.95 207.69 124.08 208.88 125.27 208.65 125.5"></polygon><polygon class="cls-7" points="206.04 125.45 205.81 125.22 206.6 124.43 207.38 125.22 207.15 125.45 206.6 124.9 206.04 125.45"></polygon><circle class="cls-7" cx="96.09" cy="176.54" r="0.27"></circle><path class="cls-7" d="M98.65,181.3a.45.45,0,1,1,.45-.44A.45.45,0,0,1,98.65,181.3Zm0-.66a.22.22,0,1,0,0,.43.21.21,0,0,0,.21-.21A.21.21,0,0,0,98.65,180.64Z"></path><path class="cls-7" d="M100.56,181.3a.45.45,0,1,1,.45-.44A.45.45,0,0,1,100.56,181.3Zm0-.66a.22.22,0,1,0,0,.43.21.21,0,0,0,.21-.21A.21.21,0,0,0,100.56,180.64Z"></path><path class="cls-7" d="M101.31,179.61H98.12a.17.17,0,0,1-.17-.16.18.18,0,0,1,.17-.17H101l.33-1.58H97.68a.16.16,0,1,1,0-.32h4.09Z"></path><polygon class="cls-7" points="101.03 180.3 98.15 180.3 97.32 176.7 96.59 176.7 96.59 176.37 97.58 176.37 98.41 179.97 101.03 179.97 101.03 180.3"></polygon><polygon class="cls-7" points="100.95 177.67 100 176.71 99.36 177.35 99.13 177.12 100 176.25 101.19 177.44 100.95 177.67"></polygon><polygon class="cls-7" points="98.35 177.62 98.11 177.38 98.9 176.6 99.69 177.38 99.46 177.62 98.9 177.06 98.35 177.62"></polygon><circle class="cls-7" cx="124.78" cy="199.26" r="0.27"></circle><path class="cls-7" d="M127.34,204a.45.45,0,1,1,0-.89.45.45,0,1,1,0,.89Zm0-.66a.21.21,0,0,0-.21.21.21.21,0,0,0,.21.22.22.22,0,1,0,0-.43Z"></path><path class="cls-7" d="M129.25,204a.45.45,0,1,1,.45-.45A.45.45,0,0,1,129.25,204Zm0-.66a.22.22,0,0,0,0,.43.22.22,0,1,0,0-.43Z"></path><path class="cls-7" d="M130,202.34h-3.19a.16.16,0,0,1-.16-.16.17.17,0,0,1,.16-.17h2.92l.33-1.58h-3.69a.16.16,0,0,1-.16-.16.17.17,0,0,1,.16-.17h4.09Z"></path><polygon class="cls-7" points="129.72 203.03 126.84 203.03 126.01 199.43 125.28 199.43 125.28 199.1 126.27 199.1 127.1 202.7 129.72 202.7 129.72 203.03"></polygon><polygon class="cls-7" points="129.65 200.4 128.69 199.44 128.05 200.07 127.82 199.84 128.69 198.97 129.88 200.17 129.65 200.4"></polygon><polygon class="cls-7" points="127.04 200.34 126.81 200.11 127.59 199.33 128.38 200.11 128.15 200.34 127.59 199.79 127.04 200.34"></polygon><circle class="cls-7" cx="149.64" cy="215.48" r="0.21"></circle><path class="cls-7" d="M151.66,219.25a.36.36,0,0,1,0-.71.36.36,0,1,1,0,.71Zm0-.52a.17.17,0,0,0-.17.17.17.17,0,1,0,.34,0A.17.17,0,0,0,151.66,218.73Z"></path><path class="cls-7" d="M153.17,219.25a.36.36,0,0,1,0-.71.36.36,0,1,1,0,.71Zm0-.52a.17.17,0,0,0-.17.17.18.18,0,0,0,.17.17.17.17,0,0,0,.17-.17A.16.16,0,0,0,153.17,218.73Z"></path><path class="cls-7" d="M153.77,217.91h-2.53a.13.13,0,0,1,0-.26h2.31l.26-1.25h-2.92a.13.13,0,1,1,0-.26h3.24Z"></path><polygon class="cls-7" points="153.55 218.46 151.26 218.46 150.61 215.6 150.03 215.6 150.03 215.35 150.81 215.35 151.47 218.2 153.55 218.2 153.55 218.46"></polygon><polygon class="cls-7" points="153.49 216.37 152.73 215.61 152.22 216.12 152.04 215.94 152.73 215.25 153.67 216.19 153.49 216.37"></polygon><polygon class="cls-7" points="151.42 216.33 151.24 216.15 151.86 215.53 152.48 216.15 152.3 216.33 151.86 215.89 151.42 216.33"></polygon><circle class="cls-7" cx="190.51" cy="216.12" r="0.21"></circle><path class="cls-7" d="M192.54,219.9a.36.36,0,1,1,0-.71.36.36,0,0,1,0,.71Zm0-.53a.17.17,0,0,0,0,.34.17.17,0,0,0,0-.34Z"></path><path class="cls-7" d="M194.05,219.9a.36.36,0,1,1,0-.71.36.36,0,0,1,0,.71Zm0-.53a.17.17,0,1,0,.17.17A.18.18,0,0,0,194.05,219.37Z"></path><path class="cls-7" d="M194.64,218.55h-2.52a.12.12,0,0,1-.13-.12.13.13,0,0,1,.13-.13h2.31l.26-1.26h-2.92a.13.13,0,0,1-.13-.13.12.12,0,0,1,.13-.12H195Z"></path><polygon class="cls-7" points="194.42 219.1 192.14 219.1 191.48 216.25 190.91 216.25 190.91 215.99 191.69 215.99 192.35 218.84 194.42 218.84 194.42 219.1"></polygon><polygon class="cls-7" points="194.36 217.02 193.6 216.26 193.1 216.76 192.91 216.58 193.6 215.89 194.55 216.84 194.36 217.02"></polygon><polygon class="cls-7" points="192.3 216.97 192.11 216.79 192.74 216.17 193.36 216.79 193.18 216.97 192.74 216.54 192.3 216.97"></polygon><circle class="cls-7" cx="173.28" cy="159.15" r="0.35"></circle><path class="cls-7" d="M176.66,165.46a.6.6,0,1,1,.59-.59A.59.59,0,0,1,176.66,165.46Zm0-.88a.29.29,0,1,0,.28.29A.28.28,0,0,0,176.66,164.58Z"></path><path class="cls-7" d="M179.19,165.46a.6.6,0,1,1,.59-.59A.6.6,0,0,1,179.19,165.46Zm0-.88a.29.29,0,1,0,0,.57.29.29,0,0,0,0-.57Z"></path><path class="cls-7" d="M180.18,163.22H176a.22.22,0,0,1-.22-.22.21.21,0,0,1,.22-.21h3.86l.43-2.09h-4.87a.22.22,0,1,1,0-.44h5.41Z"></path><polygon class="cls-7" points="179.81 164.13 176 164.13 174.9 159.37 173.93 159.37 173.93 158.93 175.24 158.93 176.34 163.7 179.81 163.7 179.81 164.13"></polygon><polygon class="cls-7" points="179.71 160.65 178.44 159.38 177.6 160.22 177.29 159.92 178.44 158.77 180.02 160.34 179.71 160.65"></polygon><polygon class="cls-7" points="176.26 160.58 175.95 160.27 176.99 159.23 178.03 160.27 177.73 160.58 176.99 159.85 176.26 160.58"></polygon><path class="cls-7" d="M203.55,174.93a3.3,3.3,0,0,1-1.78-.52.19.19,0,0,1-.07-.2.2.2,0,0,1,.19-.12l.24,0a1.91,1.91,0,0,0,.91-.22,1.26,1.26,0,0,1-.74-.79.18.18,0,0,1,0-.17h0a1.3,1.3,0,0,1-.44-1v0a.17.17,0,0,1,.09-.14l.07,0a1.53,1.53,0,0,1-.11-.27.17.17,0,0,1,.12-.21.17.17,0,0,1,.21.12,1,1,0,0,0,.38.52.18.18,0,0,1,.07.2.17.17,0,0,1-.17.12,1.35,1.35,0,0,1-.28,0,.93.93,0,0,0,.7.65.17.17,0,0,1,.14.16.2.2,0,0,1-.12.18l-.26,0a.93.93,0,0,0,.74.4.16.16,0,0,1,.16.12.17.17,0,0,1-.05.19,2.31,2.31,0,0,1-1,.46,2.85,2.85,0,0,0,1,.18.17.17,0,0,1,.17.17A.18.18,0,0,1,203.55,174.93Z"></path><path class="cls-7" d="M203.55,174.93a.17.17,0,0,1-.17-.17.16.16,0,0,1,.17-.17,2.92,2.92,0,0,0,2.95-3v-.13a.16.16,0,0,1,.07-.15l.12-.09h-.08a.18.18,0,0,1-.19-.12.18.18,0,0,1,.08-.2l.1-.07-.2.05a.16.16,0,0,1-.15-.06,1,1,0,0,0-.68-.29.93.93,0,0,0-.93.93.76.76,0,0,0,0,.21.18.18,0,0,1-.18.21,3.3,3.3,0,0,1-1.34-.36.17.17,0,0,1-.07-.23.17.17,0,0,1,.23-.08,2.86,2.86,0,0,0,1,.31v-.06a1.27,1.27,0,0,1,1.27-1.27,1.3,1.3,0,0,1,.86.33,1.89,1.89,0,0,0,.55-.23.18.18,0,0,1,.2,0,.17.17,0,0,1,0,.18.94.94,0,0,1-.1.23h0a.18.18,0,0,1,.2,0,.18.18,0,0,1,0,.21,2.51,2.51,0,0,1-.52.56v0a3.44,3.44,0,0,1-.84,2.22A3.15,3.15,0,0,1,203.55,174.93Z"></path><path class="cls-7" d="M202,171.5a1.27,1.27,0,0,1,0-.34v-.06l.34,0v0a1,1,0,0,0,0,.25Z"></path><path class="cls-7" d="M203.15,171.57a3,3,0,0,1-.66-.45l.23-.26a2.92,2.92,0,0,0,.59.4Z"></path><circle class="cls-7" cx="202.25" cy="170.67" r="0.28"></circle><path class="cls-7" d="M138.68,197.16a3.27,3.27,0,0,1-1.77-.52.16.16,0,0,1-.07-.2.16.16,0,0,1,.18-.11h.24a2.07,2.07,0,0,0,.92-.21,1.25,1.25,0,0,1-.74-.8.16.16,0,0,1,0-.16l0,0a1.24,1.24,0,0,1-.45-1v0a.19.19,0,0,1,.09-.14l.07,0a1.25,1.25,0,0,1-.1-.27.16.16,0,0,1,.12-.21.17.17,0,0,1,.21.12,1,1,0,0,0,.38.53.18.18,0,0,1,.07.19.19.19,0,0,1-.17.12,1.35,1.35,0,0,1-.29,0,.91.91,0,0,0,.71.65.19.19,0,0,1,.14.17.17.17,0,0,1-.13.17l-.26,0a.92.92,0,0,0,.75.4.18.18,0,0,1,.16.12.18.18,0,0,1-.06.19,2.4,2.4,0,0,1-1,.47,3,3,0,0,0,1,.17.17.17,0,0,1,.17.17A.16.16,0,0,1,138.68,197.16Z"></path><path class="cls-7" d="M138.68,197.16a.17.17,0,0,1-.17-.17.18.18,0,0,1,.17-.17,2.92,2.92,0,0,0,2.95-2.95v-.14a.19.19,0,0,1,.07-.14l.13-.1h-.09a.17.17,0,0,1-.18-.11.17.17,0,0,1,.07-.21l.11-.07-.2,0a.18.18,0,0,1-.16,0,.92.92,0,0,0-.68-.3.93.93,0,0,0-.92.93,1.49,1.49,0,0,0,0,.21.16.16,0,0,1-.17.21,3.08,3.08,0,0,1-1.34-.36.17.17,0,1,1,.15-.3,3,3,0,0,0,1,.3.13.13,0,0,1,0-.06,1.27,1.27,0,0,1,2.13-.94,2.41,2.41,0,0,0,.56-.22.15.15,0,0,1,.19,0,.17.17,0,0,1,.06.19,2.29,2.29,0,0,1-.1.23h0a.17.17,0,0,1,.2.05.15.15,0,0,1,0,.2,2.27,2.27,0,0,1-.51.56v.06a3.4,3.4,0,0,1-.85,2.22A3.16,3.16,0,0,1,138.68,197.16Z"></path><path class="cls-7" d="M137.1,193.73a1.26,1.26,0,0,1,0-.33v-.06h.35v.05a1,1,0,0,0,0,.24Z"></path><path class="cls-7" d="M138.29,193.8a3.28,3.28,0,0,1-.67-.45l.23-.26a3,3,0,0,0,.59.41Z"></path><circle class="cls-7" cx="137.38" cy="192.9" r="0.28"></circle><path class="cls-7" d="M101.89,194.22a3.27,3.27,0,0,1-1.77-.52.18.18,0,0,1-.07-.21.17.17,0,0,1,.18-.11l.24,0a2.08,2.08,0,0,0,.92-.22,1.24,1.24,0,0,1-.74-.79.17.17,0,0,1,0-.17l0,0a1.24,1.24,0,0,1-.45-1v0a.18.18,0,0,1,.09-.14s0,0,.07,0a1.08,1.08,0,0,1-.1-.27.16.16,0,0,1,.12-.21.18.18,0,0,1,.21.12.9.9,0,0,0,.38.53.17.17,0,0,1,.06.2.15.15,0,0,1-.16.11.92.92,0,0,1-.29,0,.92.92,0,0,0,.71.66.17.17,0,0,1,0,.33,1.09,1.09,0,0,1-.26,0,.93.93,0,0,0,.75.41.17.17,0,0,1,.1.3,2.4,2.4,0,0,1-1,.47,3,3,0,0,0,1,.17.17.17,0,0,1,.17.17A.17.17,0,0,1,101.89,194.22Z"></path><path class="cls-7" d="M101.89,194.22a.18.18,0,0,1-.17-.18.18.18,0,0,1,.17-.17,2.92,2.92,0,0,0,3-3v-.13a.17.17,0,0,1,.07-.15l.13-.1H105a.16.16,0,0,1-.18-.11.16.16,0,0,1,.07-.2l.11-.08-.2.05a.18.18,0,0,1-.16-.05.91.91,0,0,0-.68-.29.92.92,0,0,0-.92.92,1.5,1.5,0,0,0,0,.22.17.17,0,0,1-.17.21,3.38,3.38,0,0,1-1.34-.36.18.18,0,0,1-.08-.24.18.18,0,0,1,.23-.07,3.23,3.23,0,0,0,1,.31.2.2,0,0,1,0-.07,1.27,1.27,0,0,1,1.27-1.27,1.24,1.24,0,0,1,.86.34,2.21,2.21,0,0,0,.55-.23.18.18,0,0,1,.2,0,.18.18,0,0,1,.06.19,1.6,1.6,0,0,1-.1.23h0a.17.17,0,0,1,.2,0,.17.17,0,0,1,0,.21,2.23,2.23,0,0,1-.51.55v.06a3.4,3.4,0,0,1-.85,2.22A3.16,3.16,0,0,1,101.89,194.22Z"></path><path class="cls-7" d="M100.31,190.78a1.26,1.26,0,0,1,0-.33v-.06l.35,0v0a1,1,0,0,0,0,.24Z"></path><path class="cls-7" d="M101.5,190.86a4.36,4.36,0,0,1-.67-.45l.23-.26a2.92,2.92,0,0,0,.59.4Z"></path><circle class="cls-7" cx="100.59" cy="189.96" r="0.28"></circle><path class="cls-7" d="M203.89,86.72a3.27,3.27,0,0,1-1.77-.52.17.17,0,0,1-.07-.2.17.17,0,0,1,.18-.12l.24,0a2,2,0,0,0,.92-.22,1.26,1.26,0,0,1-.74-.79.17.17,0,0,1,0-.17h0a1.31,1.31,0,0,1-.45-1v0a.16.16,0,0,1,.08-.14.12.12,0,0,1,.08,0,1,1,0,0,1-.11-.28.17.17,0,0,1,.12-.21.18.18,0,0,1,.21.12.9.9,0,0,0,.38.53.17.17,0,0,1-.1.32,1.47,1.47,0,0,1-.29-.05,1,1,0,0,0,.71.66.16.16,0,0,1,.14.16.17.17,0,0,1-.13.17,1.09,1.09,0,0,1-.26,0,1,1,0,0,0,.75.4.16.16,0,0,1,.16.11.17.17,0,0,1-.06.19,2.29,2.29,0,0,1-1,.47,2.79,2.79,0,0,0,1,.17.18.18,0,0,1,.18.18A.18.18,0,0,1,203.89,86.72Z"></path><path class="cls-7" d="M203.89,86.72a.18.18,0,0,1-.17-.17.18.18,0,0,1,.17-.18,2.93,2.93,0,0,0,3-3,.57.57,0,0,0,0-.13.21.21,0,0,1,.07-.15L207,83l-.09,0a.17.17,0,0,1-.18-.12.16.16,0,0,1,.07-.2l.11-.08-.2,0a.18.18,0,0,1-.16,0,.94.94,0,0,0-.67-.29.93.93,0,0,0-.93.93,1.49,1.49,0,0,0,0,.21.17.17,0,0,1,0,.15.2.2,0,0,1-.14.06,3.47,3.47,0,0,1-1.34-.36.17.17,0,0,1-.08-.23.18.18,0,0,1,.24-.08,3.09,3.09,0,0,0,1,.31V83.3a1.27,1.27,0,0,1,2.12-.94,2.28,2.28,0,0,0,.56-.23.17.17,0,0,1,.19,0,.18.18,0,0,1,.06.19,1.6,1.6,0,0,1-.1.23h0a.16.16,0,0,1,.2,0,.18.18,0,0,1,0,.21,2.48,2.48,0,0,1-.52.55v.06a3.4,3.4,0,0,1-.85,2.22A3.16,3.16,0,0,1,203.89,86.72Z"></path><path class="cls-7" d="M202.31,83.28a1.2,1.2,0,0,1-.05-.33.13.13,0,0,1,0-.06l.34,0v0a.93.93,0,0,0,0,.24Z"></path><path class="cls-7" d="M203.5,83.36a3.84,3.84,0,0,1-.66-.45l.22-.26a2.73,2.73,0,0,0,.6.4Z"></path><circle class="cls-7" cx="202.6" cy="82.46" r="0.28"></circle><path class="cls-7" d="M205.12,212h-3.25a.33.33,0,0,1-.33-.33v-3h.26v3a.08.08,0,0,0,.07.08h3.25a.08.08,0,0,0,.07-.08v-3.24a.08.08,0,0,0-.07-.08h-3.07v-.25h3.07a.33.33,0,0,1,.33.33v3.24A.33.33,0,0,1,205.12,212Z"></path><path class="cls-7" d="M204.28,211.87h-.18v-1.5h.49l0-.37h-.53v-.44c0-.16,0-.36.36-.36h.2v-.32h-.33a.58.58,0,0,0-.62.63v.5h-.47v.37h.47v1.5h-.18v-1.32h-.48v-.73h.48v-.32a.75.75,0,0,1,.8-.82,2.77,2.77,0,0,1,.44,0h.08v.66h-.39c-.16,0-.18.06-.18.18v.26h.56l-.09.73h-.47Z"></path><circle class="cls-7" cx="201.7" cy="208.3" r="0.21"></circle><path class="cls-7" d="M87.23,133.24h-1a1.84,1.84,0,0,1-.61-.12,1.33,1.33,0,0,1-.76-.76,2.13,2.13,0,0,1-.12-.61c0-.24,0-.33,0-1s0-.7,0-.95a2.13,2.13,0,0,1,.12-.6l.31.12a1.43,1.43,0,0,0-.1.5c0,.24,0,.32,0,.93s0,.7,0,.94a1.48,1.48,0,0,0,.1.5.93.93,0,0,0,.57.57,1.48,1.48,0,0,0,.5.1h1.87a1.43,1.43,0,0,0,.5-.1.91.91,0,0,0,.35-.22,1.18,1.18,0,0,0,.23-.35,1.79,1.79,0,0,0,.09-.5c0-.24,0-.32,0-.94s0-.69,0-.93a1.72,1.72,0,0,0-.09-.5A1.18,1.18,0,0,0,89,129a1.07,1.07,0,0,0-.35-.23,1.72,1.72,0,0,0-.5-.09H86.29a1.79,1.79,0,0,0-.5.09l-.12-.3a1.84,1.84,0,0,1,.61-.12h1.9a1.78,1.78,0,0,1,.6.12,1.33,1.33,0,0,1,.76.76,1.83,1.83,0,0,1,.12.6c0,.25,0,.33,0,.95s0,.71,0,1a1.84,1.84,0,0,1-.12.61,1.26,1.26,0,0,1-.3.46,1.19,1.19,0,0,1-.46.3,1.78,1.78,0,0,1-.6.12Z"></path><path class="cls-7" d="M87.23,129.81a1,1,0,1,1-1,1,1,1,0,0,1,1-1m0-.23a1.22,1.22,0,1,0,1.21,1.21,1.22,1.22,0,0,0-1.21-1.21Z"></path><circle class="cls-7" cx="88.49" cy="129.53" r="0.28"></circle><circle class="cls-7" cx="85.36" cy="128.92" r="0.27"></circle><path class="cls-7" d="M104.51,90.73h-1a1.84,1.84,0,0,1-.61-.12,1.26,1.26,0,0,1-.46-.3,1.41,1.41,0,0,1-.3-.46,1.84,1.84,0,0,1-.11-.61c0-.24,0-.33,0-1s0-.7,0-.94a1.84,1.84,0,0,1,.11-.61l.31.12a1.43,1.43,0,0,0-.1.5c0,.24,0,.32,0,.93s0,.7,0,.94a1.48,1.48,0,0,0,.1.5.89.89,0,0,0,.23.35.87.87,0,0,0,.34.22,1.49,1.49,0,0,0,.51.1h1.86a1.43,1.43,0,0,0,.5-.1.91.91,0,0,0,.35-.22,1,1,0,0,0,.23-.35,1.79,1.79,0,0,0,.09-.5c0-.24,0-.32,0-.94s0-.69,0-.93a1.72,1.72,0,0,0-.09-.5,1,1,0,0,0-.23-.35.91.91,0,0,0-.35-.22,1.43,1.43,0,0,0-.5-.1h-1.86a1.49,1.49,0,0,0-.51.1L103,86a1.84,1.84,0,0,1,.61-.12h1.9a1.78,1.78,0,0,1,.6.12,1.12,1.12,0,0,1,.46.3,1.26,1.26,0,0,1,.3.46,1.84,1.84,0,0,1,.12.61c0,.24,0,.32,0,.94s0,.71,0,1a1.84,1.84,0,0,1-.12.61,1.26,1.26,0,0,1-.3.46,1.12,1.12,0,0,1-.46.3,1.78,1.78,0,0,1-.6.12Z"></path><path class="cls-7" d="M104.51,87.3a1,1,0,1,1-1,1,1,1,0,0,1,1-1m0-.23a1.22,1.22,0,1,0,1.22,1.21,1.22,1.22,0,0,0-1.22-1.21Z"></path><circle class="cls-7" cx="105.77" cy="87.02" r="0.28"></circle><circle class="cls-7" cx="102.64" cy="86.41" r="0.27"></circle><path class="cls-7" d="M236.65,123a11.62,11.62,0,0,1-1.71-.1.67.67,0,0,1-.47-.47,5.66,5.66,0,0,1-.09-1.06,6.58,6.58,0,0,1,.07-1l.27.05a6,6,0,0,0-.07.93,5.61,5.61,0,0,0,.08,1,.43.43,0,0,0,.28.29,16.75,16.75,0,0,0,3.27,0,.42.42,0,0,0,.29-.29,6.17,6.17,0,0,0,0-2,.42.42,0,0,0-.29-.29,11.86,11.86,0,0,0-1.63-.08,15.39,15.39,0,0,0-1.58.07l0-.26a13.81,13.81,0,0,1,1.62-.08,11.49,11.49,0,0,1,1.7.1.66.66,0,0,1,.47.47,5.67,5.67,0,0,1,0,2.12.66.66,0,0,1-.47.47A11.49,11.49,0,0,1,236.65,123Z"></path><path class="cls-7" d="M236.13,122.17v-1.62l1.39.81Zm.19-1.29v1l.82-.48Z"></path><path class="cls-7" d="M236.13,122.17v-1.61l1.39.8Zm.19-1.29v1l.82-.48Z"></path><circle class="cls-7" cx="234.74" cy="120.09" r="0.22"></circle><polygon class="cls-7" points="136.51 154.19 131.41 154.19 131.41 151.18 131.74 151.18 131.74 153.86 136.18 153.86 136.18 150.85 132.08 150.85 132.08 150.52 136.51 150.52 136.51 154.19"></polygon><polygon class="cls-7" points="133.96 152.79 132.15 151.3 132.3 151.12 133.96 152.49 136.19 150.66 136.34 150.84 133.96 152.79"></polygon><circle class="cls-7" cx="131.58" cy="150.68" r="0.27"></circle><circle class="cls-7" cx="131.58" cy="150.68" r="0.27"></circle><polygon class="cls-7" points="101.97 144.73 96.88 144.73 96.88 141.72 97.21 141.72 97.21 144.4 101.64 144.4 101.64 141.39 97.54 141.39 97.54 141.06 101.97 141.06 101.97 144.73"></polygon><polygon class="cls-7" points="99.42 143.33 97.61 141.85 97.76 141.66 99.42 143.03 101.65 141.2 101.8 141.38 99.42 143.33"></polygon><circle class="cls-7" cx="97.04" cy="141.22" r="0.27"></circle><circle class="cls-7" cx="97.04" cy="141.22" r="0.27"></circle><path class="cls-7" d="M79.24,119.82a3.3,3.3,0,0,1-1.78-.52.19.19,0,0,1-.07-.2.18.18,0,0,1,.19-.12l.24,0a2,2,0,0,0,.91-.22A1.29,1.29,0,0,1,78,118a.18.18,0,0,1,0-.17h0a1.3,1.3,0,0,1-.44-1v0a.17.17,0,0,1,.09-.14l.07,0a1.53,1.53,0,0,1-.11-.27.17.17,0,0,1,.12-.21.16.16,0,0,1,.21.12,1,1,0,0,0,.38.52.17.17,0,0,1-.1.32l-.28,0a.93.93,0,0,0,.7.65.17.17,0,0,1,.14.16.16.16,0,0,1-.12.17,1.32,1.32,0,0,1-.26,0,.93.93,0,0,0,.74.4.16.16,0,0,1,.16.12.16.16,0,0,1,0,.18,2.23,2.23,0,0,1-1,.47,2.76,2.76,0,0,0,1,.18.17.17,0,0,1,.17.17A.18.18,0,0,1,79.24,119.82Z"></path><path class="cls-7" d="M79.24,119.82a.17.17,0,0,1-.17-.17.16.16,0,0,1,.17-.17,2.93,2.93,0,0,0,3-3v-.13a.16.16,0,0,1,.07-.15l.12-.1-.08,0a.18.18,0,0,1-.19-.12.18.18,0,0,1,.08-.2l.1-.07-.19,0a.14.14,0,0,1-.16,0,1,1,0,0,0-.68-.29.93.93,0,0,0-.93.93.76.76,0,0,0,0,.21.18.18,0,0,1-.18.21,3.47,3.47,0,0,1-1.34-.36.18.18,0,0,1-.07-.23.17.17,0,0,1,.23-.08,2.93,2.93,0,0,0,1,.31v-.06a1.27,1.27,0,0,1,1.27-1.27,1.3,1.3,0,0,1,.86.33,2.21,2.21,0,0,0,.55-.23.2.2,0,0,1,.2,0,.19.19,0,0,1,0,.19.94.94,0,0,1-.1.23h0a.17.17,0,0,1,.2,0,.18.18,0,0,1,0,.21,2.51,2.51,0,0,1-.52.56v0a3.44,3.44,0,0,1-.84,2.22A3.18,3.18,0,0,1,79.24,119.82Z"></path><path class="cls-7" d="M77.65,116.39a1.32,1.32,0,0,1,0-.34V116l.34,0v0a1.07,1.07,0,0,0,0,.25Z"></path><path class="cls-7" d="M78.84,116.46a3.66,3.66,0,0,1-.66-.45l.23-.26a2.92,2.92,0,0,0,.59.4Z"></path><circle class="cls-7" cx="77.94" cy="115.56" r="0.28"></circle><polygon class="cls-7" points="192.14 81.43 187.04 81.43 187.04 78.42 187.37 78.42 187.37 81.1 191.81 81.1 191.81 78.08 187.71 78.08 187.71 77.75 192.14 77.75 192.14 81.43"></polygon><polygon class="cls-7" points="189.59 80.03 187.78 78.54 187.93 78.36 189.59 79.72 191.82 77.89 191.97 78.08 189.59 80.03"></polygon><circle class="cls-7" cx="187.21" cy="77.92" r="0.27"></circle><circle class="cls-7" cx="187.21" cy="77.92" r="0.27"></circle><path class="cls-8" d="M155.87,137.87"></path><polygon class="cls-7" points="124.11 91.18 119.01 91.18 119.01 88.17 119.34 88.17 119.34 90.85 123.78 90.85 123.78 87.84 119.67 87.84 119.67 87.51 124.11 87.51 124.11 91.18"></polygon><polygon class="cls-7" points="121.56 89.78 119.75 88.3 119.9 88.11 121.56 89.48 123.78 87.65 123.93 87.83 121.56 89.78"></polygon><circle class="cls-7" cx="119.18" cy="87.67" r="0.27"></circle><circle class="cls-7" cx="119.18" cy="87.67" r="0.27"></circle><path class="cls-7" d="M136.14,228.69H132.9a.33.33,0,0,1-.33-.33v-3h.25v3a.08.08,0,0,0,.08.07h3.24a.08.08,0,0,0,.08-.07v-3.25a.08.08,0,0,0-.08-.07h-3.07v-.26h3.07a.33.33,0,0,1,.33.33v3.25A.33.33,0,0,1,136.14,228.69Z"></path><path class="cls-7" d="M135.31,228.56h-.19v-1.5h.49l0-.37h-.54v-.45c0-.15,0-.36.37-.36h.2v-.31l-.34,0a.58.58,0,0,0-.61.64v.5h-.48v.37h.48v1.5h-.19v-1.32h-.47v-.73h.47v-.32a.75.75,0,0,1,.8-.82l.44,0h.08v.67h-.38c-.17,0-.18.05-.18.17v.27h.56l-.1.73h-.46Z"></path><circle class="cls-7" cx="132.73" cy="224.99" r="0.21"></circle><path class="cls-7" d="M109.78,222.28h-3.25a.33.33,0,0,1-.33-.33v-3h.26v3a.07.07,0,0,0,.07.07h3.25a.07.07,0,0,0,.07-.07V218.7a.07.07,0,0,0-.07-.07h-3.07v-.26h3.07a.33.33,0,0,1,.33.33V222A.33.33,0,0,1,109.78,222.28Z"></path><path class="cls-7" d="M108.94,222.15h-.18v-1.5h.48l.05-.37h-.53v-.45c0-.15,0-.36.36-.36h.2v-.32H109a.58.58,0,0,0-.62.64v.5h-.48v.37h.48v1.5h-.18v-1.32h-.48v-.74h.48v-.31a.75.75,0,0,1,.8-.82l.43,0h.08v.67h-.38c-.16,0-.18.05-.18.17v.26h.56l-.1.74h-.46Z"></path><circle class="cls-7" cx="106.36" cy="218.57" r="0.21"></circle><path class="cls-7" d="M231.83,179.07h-3.24a.32.32,0,0,1-.33-.33v-3h.25v3a.07.07,0,0,0,.08.08h3.24a.08.08,0,0,0,.08-.08V175.5a.09.09,0,0,0-.08-.08h-3.07v-.25h3.07a.33.33,0,0,1,.33.33v3.24A.33.33,0,0,1,231.83,179.07Z"></path><path class="cls-7" d="M231,179h-.19v-1.51h.49l0-.37h-.54v-.44c0-.15,0-.36.37-.36h.2V176H231a.58.58,0,0,0-.61.64v.49H230v.37h.48V179h-.19v-1.32h-.47v-.74h.47v-.31a.75.75,0,0,1,.8-.82l.44,0h.08v.66h-.38c-.17,0-.18.06-.18.18v.26h.56l-.1.74H231Z"></path><circle class="cls-7" cx="228.42" cy="175.37" r="0.21"></circle><polygon class="cls-7" points="234.95 139.35 230.82 139.35 230.82 136.91 231.09 136.91 231.09 139.08 234.68 139.08 234.68 136.64 231.36 136.64 231.36 136.37 234.95 136.37 234.95 139.35"></polygon><polygon class="cls-7" points="232.88 138.21 231.42 137.01 231.54 136.86 232.88 137.97 234.69 136.49 234.81 136.64 232.88 138.21"></polygon><circle class="cls-7" cx="230.96" cy="136.51" r="0.22"></circle><circle class="cls-7" cx="230.96" cy="136.51" r="0.22"></circle><polygon class="cls-7" points="178.9 217.09 174.77 217.09 174.77 214.65 175.04 214.65 175.04 216.82 178.63 216.82 178.63 214.38 175.31 214.38 175.31 214.11 178.9 214.11 178.9 217.09"></polygon><polygon class="cls-7" points="176.83 215.95 175.37 214.75 175.49 214.6 176.83 215.71 178.63 214.23 178.75 214.38 176.83 215.95"></polygon><circle class="cls-7" cx="174.9" cy="214.25" r="0.22"></circle><circle class="cls-7" cx="174.9" cy="214.25" r="0.22"></circle><polygon class="cls-7" points="215.81 200.45 211.68 200.45 211.68 198.01 211.95 198.01 211.95 200.18 215.54 200.18 215.54 197.74 212.22 197.74 212.22 197.48 215.81 197.48 215.81 200.45"></polygon><polygon class="cls-7" points="213.75 199.32 212.28 198.11 212.4 197.97 213.75 199.07 215.55 197.59 215.67 197.74 213.75 199.32"></polygon><circle class="cls-7" cx="211.82" cy="197.61" r="0.22"></circle><circle class="cls-7" cx="211.82" cy="197.61" r="0.22"></circle><circle class="cls-6" cx="338.75" cy="314.78" r="4.43"></circle><path class="cls-6" d="M338.75,310.59a4,4,0,0,1,1.13.16,4.18,4.18,0,0,1,1.37,7.38,4,4,0,0,1-1.17.61,4,4,0,0,1-1.33.22,4.2,4.2,0,0,1-3.65-2.14,4.15,4.15,0,0,1-.38-3.18,4.2,4.2,0,0,1,1.52-2.22,4.41,4.41,0,0,1,1.18-.61,4,4,0,0,1,1.33-.22m0-.25a4.43,4.43,0,0,0-1.2,8.7,4.14,4.14,0,0,0,1.2.17,4.43,4.43,0,0,0,1.2-8.7,4.57,4.57,0,0,0-1.2-.17Z"></path><circle class="cls-7" cx="336.21" cy="312.81" r="0.27"></circle><path class="cls-7" d="M338.77,317.58a.45.45,0,1,1,.44-.44A.45.45,0,0,1,338.77,317.58Zm0-.66a.22.22,0,1,0,0,.43.22.22,0,0,0,0-.43Z"></path><path class="cls-7" d="M340.68,317.58a.45.45,0,1,1,0-.89.45.45,0,1,1,0,.89Zm0-.66a.22.22,0,1,0,0,.43.21.21,0,0,0,.21-.21A.21.21,0,0,0,340.68,316.92Z"></path><path class="cls-7" d="M341.42,315.89h-3.18a.17.17,0,0,1-.17-.16.18.18,0,0,1,.17-.17h2.92l.32-1.58H337.8a.16.16,0,1,1,0-.32h4.09Z"></path><polygon class="cls-7" points="341.15 316.58 338.26 316.58 337.43 312.98 336.71 312.98 336.71 312.65 337.69 312.65 338.53 316.25 341.15 316.25 341.15 316.58"></polygon><polygon class="cls-7" points="341.07 313.95 340.11 312.99 339.48 313.63 339.25 313.39 340.11 312.53 341.31 313.72 341.07 313.95"></polygon><polygon class="cls-7" points="338.46 313.89 338.23 313.66 339.02 312.88 339.81 313.66 339.57 313.89 339.02 313.34 338.46 313.89"></polygon><rect class="cls-2" x="263.53" y="296.18" width="21.41" height="0.53" transform="translate(416.16 674.52) rotate(-157.8)"></rect><rect class="cls-2" x="265.66" y="328.62" width="35.8" height="0.53" transform="translate(695.27 190.82) rotate(112.23)"></rect><rect class="cls-2" x="296.1" y="290.5" width="37.48" height="0.53" transform="translate(-88.08 144.75) rotate(-22.8)"></rect><rect class="cls-2" x="275.39" y="358.08" width="21.41" height="0.53" transform="translate(372.78 -91.93) rotate(49.5)"></rect><path class="cls-8" d="M238.81,310.06"></path><polygon class="cls-2" points="245.08 329.14 238.7 309.01 239.17 308.83 245.55 328.96 245.08 329.14"></polygon><polygon class="cls-2" points="230.8 355.94 233.03 331.91 232.45 331.73 230.22 355.76 230.8 355.94"></polygon><polygon class="cls-2" points="218.56 349.35 229.83 331.96 229.42 331.66 218.15 349.04 218.56 349.35"></polygon><rect class="cls-2" x="253.14" y="357.1" width="21.41" height="0.53" transform="translate(696.57 457.77) rotate(139.5)"></rect><path class="cls-8" d="M227.05,348.94"></path><path class="cls-8" d="M218.58,384.91"></path><path class="cls-8" d="M232.92,318.49"></path><path class="cls-8" d="M205.48,321.06"></path><path class="cls-8" d="M318.36,323.3"></path><path class="cls-8" d="M348.49,268.57"></path><path class="cls-8" d="M345.74,271.27"></path><circle class="cls-11" cx="292.13" cy="303.59" r="9.63"></circle><circle class="cls-7" cx="292.11" cy="303.61" r="7.24"></circle><circle class="cls-11" cx="286.33" cy="306.64" r="0.35"></circle><circle class="cls-11" cx="285.99" cy="305.77" r="0.35"></circle><circle class="cls-11" cx="285.76" cy="304.96" r="0.35"></circle><circle class="cls-11" cx="285.64" cy="304.01" r="0.35"></circle><circle class="cls-11" cx="285.64" cy="303.07" r="0.35"></circle><circle class="cls-11" cx="286.82" cy="307.41" r="0.35"></circle><circle class="cls-11" cx="287.43" cy="308.1" r="0.35"></circle><circle class="cls-11" cx="288.13" cy="308.69" r="0.35"></circle><circle class="cls-11" cx="288.86" cy="309.24" r="0.35"></circle><circle class="cls-11" cx="289.62" cy="309.59" r="0.35"></circle><circle class="cls-11" cx="290.52" cy="309.93" r="0.35"></circle><circle class="cls-11" cx="291.33" cy="310.13" r="0.35"></circle><circle class="cls-11" cx="292.15" cy="310.25" r="0.35"></circle><circle class="cls-11" cx="292.97" cy="310.13" r="0.35"></circle><circle class="cls-11" cx="293.83" cy="309.93" r="0.35"></circle><circle class="cls-11" cx="294.63" cy="309.66" r="0.35"></circle><circle class="cls-11" cx="295.42" cy="309.31" r="0.35"></circle><circle class="cls-11" cx="296.11" cy="308.79" r="0.35"></circle><circle class="cls-11" cx="297.3" cy="307.56" r="0.35"></circle><circle class="cls-11" cx="297.75" cy="306.86" r="0.35"></circle><circle class="cls-11" cx="298.09" cy="306.14" r="0.35"></circle><circle class="cls-11" cx="298.36" cy="305.38" r="0.35"></circle><circle class="cls-11" cx="298.53" cy="304.56" r="0.35"></circle><circle class="cls-11" cx="298.64" cy="303.77" r="0.35"></circle><circle class="cls-11" cx="298.6" cy="302.97" r="0.35"></circle><circle class="cls-11" cx="298.23" cy="301.44" r="0.35"></circle><circle class="cls-11" cx="297.92" cy="300.72" r="0.35"></circle><circle class="cls-11" cx="297.52" cy="300" r="0.35"></circle><circle class="cls-11" cx="285.76" cy="302.21" r="0.35"></circle><circle class="cls-11" cx="285.99" cy="301.42" r="0.35"></circle><circle class="cls-11" cx="286.33" cy="300.62" r="0.35"></circle><circle class="cls-11" cx="286.78" cy="299.93" r="0.35"></circle><circle class="cls-11" cx="287.22" cy="299.24" r="0.35"></circle><circle class="cls-11" cx="287.82" cy="298.67" r="0.35"></circle><circle class="cls-11" cx="288.51" cy="298.17" r="0.35"></circle><circle class="cls-11" cx="289.2" cy="297.75" r="0.35"></circle><circle class="cls-11" cx="289.9" cy="297.4" r="0.35"></circle><circle class="cls-11" cx="290.64" cy="297.18" r="0.35"></circle><circle class="cls-11" cx="291.43" cy="297.06" r="0.35"></circle><circle class="cls-11" cx="292.22" cy="297.03" r="0.35"></circle><circle class="cls-11" cx="293.04" cy="297.06" r="0.35"></circle><circle class="cls-11" cx="293.83" cy="297.26" r="0.35"></circle><circle class="cls-11" cx="294.63" cy="297.53" r="0.35"></circle><circle class="cls-11" cx="295.32" cy="297.87" r="0.35"></circle><circle class="cls-11" cx="295.94" cy="298.32" r="0.35"></circle><circle class="cls-11" cx="296.54" cy="298.79" r="0.35"></circle><circle class="cls-11" cx="297.08" cy="299.36" r="0.35"></circle><path class="cls-8" d="M300.15,298.42"></path><path class="cls-8" d="M297.66,295.77"></path><path class="cls-8" d="M283.58,293.1"></path><path class="cls-11" d="M292.15,298a5.44,5.44,0,0,1,2.15.44,5.35,5.35,0,0,1,1.75,1.18,5.53,5.53,0,0,1,1.19,1.76,5.57,5.57,0,0,1,0,4.29,5.53,5.53,0,0,1-1.19,1.76,5.35,5.35,0,0,1-1.75,1.18,5.47,5.47,0,0,1-4.3,0,5.35,5.35,0,0,1-1.75-1.18,5.53,5.53,0,0,1-1.19-1.76,5.57,5.57,0,0,1,0-4.29,5.53,5.53,0,0,1,1.19-1.76,5.35,5.35,0,0,1,1.75-1.18,5.44,5.44,0,0,1,2.15-.44m0-.17a5.7,5.7,0,1,0,5.69,5.69,5.69,5.69,0,0,0-5.69-5.69Z"></path><path class="cls-8" d="M298.77,305.86"></path><path class="cls-8" d="M290.68,362.25"></path><circle class="cls-10" cx="275.76" cy="347.29" r="5.89"></circle><path class="cls-10" d="M275.75,341.64A5.63,5.63,0,0,1,281,345.1a5.37,5.37,0,0,1,.44,2.2,5.53,5.53,0,0,1-.42,2.12,5.64,5.64,0,0,1-8.31,2.59,5.54,5.54,0,0,1-2.12-2.54,5.72,5.72,0,0,1-.44-2.2,5.53,5.53,0,0,1,.42-2.12,5.64,5.64,0,0,1,1.19-1.81,5.73,5.73,0,0,1,1.85-1.26,5.66,5.66,0,0,1,2.18-.44m0-.25a5.9,5.9,0,1,0,0,11.79,6,6,0,0,0,2.28-.46,5.9,5.9,0,0,0-2.29-11.33Z"></path><circle class="cls-10" cx="295.33" cy="370.05" r="4.43"></circle><path class="cls-10" d="M295.32,365.87a4.18,4.18,0,0,1,1.62,8,4.07,4.07,0,0,1-1.61.33,4.13,4.13,0,0,1-2.29-.69,4.07,4.07,0,0,1-1.57-1.88,4.13,4.13,0,0,1,0-3.2,4.18,4.18,0,0,1,2.26-2.28,4.24,4.24,0,0,1,1.61-.32m0-.25a4.33,4.33,0,0,0-1.71.35,4.43,4.43,0,0,0,1.72,8.51,4.49,4.49,0,0,0,1.71-.34,4.43,4.43,0,0,0-1.72-8.52Z"></path><circle class="cls-10" cx="252.47" cy="367.28" r="4.32"></circle><path class="cls-10" d="M252.46,363.2a4.1,4.1,0,0,1,3.76,2.5,4.07,4.07,0,0,1-6,5,4.11,4.11,0,0,1-1.53-1.84,4,4,0,0,1,0-3.11,4.07,4.07,0,0,1,3.76-2.54h0m0-.24a4.32,4.32,0,1,0,4,2.64,4.32,4.32,0,0,0-4-2.64Z"></path><polygon class="cls-2" points="219.9 323.05 235.57 308.89 235.26 308.5 219.58 322.66 219.9 323.05"></polygon><circle class="cls-6" cx="218.96" cy="324.44" r="3.53"></circle><path class="cls-6" d="M219,321.16a3.28,3.28,0,0,1,3,4.53,3.28,3.28,0,0,1-6.06,0,3.28,3.28,0,0,1,1.75-4.29,3.32,3.32,0,0,1,1.27-.26h0m0-.25a3.45,3.45,0,0,0-1.36.28A3.53,3.53,0,0,0,219,328a3.49,3.49,0,0,0,1.37-.27,3.53,3.53,0,0,0-1.37-6.79Z"></path><polygon class="cls-2" points="232.01 329.94 237.51 309.55 237.03 309.39 231.54 329.78 232.01 329.94"></polygon><circle class="cls-9" cx="231.29" cy="330.97" r="3.53"></circle><path class="cls-9" d="M231.3,327.69a3.27,3.27,0,0,1,2.7,5.13,3.3,3.3,0,0,1-2.71,1.43,3.28,3.28,0,0,1-2.7-5.14,3.28,3.28,0,0,1,2.71-1.42h0m0-.25a3.53,3.53,0,1,0,2,.62,3.51,3.51,0,0,0-2-.62Z"></path><circle class="cls-10" cx="245.18" cy="330.82" r="3.53"></circle><path class="cls-10" d="M245.18,327.54a3.31,3.31,0,0,1,1.45.33,3.37,3.37,0,0,1,1.18,1,3.29,3.29,0,0,1,.62,2.43,3.29,3.29,0,0,1-3.25,2.82,3.31,3.31,0,0,1-1.44-.34,3.08,3.08,0,0,1-1.18-1,3.28,3.28,0,0,1-.63-2.44,3.31,3.31,0,0,1,1.28-2.16,3.26,3.26,0,0,1,2-.65m0-.25a3.52,3.52,0,0,0-2.82,5.65,3.53,3.53,0,1,0,2.82-5.65Z"></path><polygon class="cls-2" points="207.14 299.67 227.27 293.27 227.45 293.74 207.32 300.14 207.14 299.67"></polygon><rect class="cls-2" x="239.32" y="298.63" width="21.41" height="0.53" transform="translate(616.68 430.87) rotate(149.71)"></rect><rect class="cls-2" x="235.12" y="291.3" width="21.41" height="0.53" transform="matrix(-1, 0.09, -0.09, -1, 516.47, 560.25)"></rect><rect class="cls-2" x="239.45" y="279.12" width="21.41" height="0.53" transform="translate(200.38 651.07) rotate(-130.53)"></rect><polygon class="cls-2" points="263.7 233.62 270.25 253.27 270.75 253.14 264.2 233.49 263.7 233.62"></polygon><polygon class="cls-2" points="223.35 249.9 237.51 265.57 237.9 265.26 223.74 249.59 223.35 249.9"></polygon><path class="cls-8" d="M217.78,287.5"></path><path class="cls-8" d="M215.19,260.06"></path><path class="cls-8" d="M221.92,277.53"></path><path class="cls-8" d="M248.5,304.64"></path><path class="cls-8" d="M245.29,306.22"></path><circle class="cls-10" cx="260.24" cy="290.52" r="5.89"></circle><path class="cls-10" d="M260.24,284.87a5.66,5.66,0,0,1,5.21,3.46,5.72,5.72,0,0,1,.44,2.2,5.53,5.53,0,0,1-.42,2.12,5.64,5.64,0,0,1-8.31,2.59A5.54,5.54,0,0,1,255,292.7a5.36,5.36,0,0,1-.44-2.19,5.69,5.69,0,0,1,1.6-3.94,5.68,5.68,0,0,1,4-1.7m0-.25A5.9,5.9,0,1,0,262.53,296a5.9,5.9,0,0,0-2.29-11.33Z"></path><circle class="cls-10" cx="237.93" cy="306.18" r="4.43"></circle><path class="cls-10" d="M237.93,302a4.2,4.2,0,0,1,3.61,2.07,4.18,4.18,0,0,1-1.5,5.73,4.18,4.18,0,0,1-4.16,0,4,4,0,0,1-1.56-1.54,4.17,4.17,0,0,1,1.5-5.72,4.23,4.23,0,0,1,2.11-.57m0-.25a4.43,4.43,0,1,0,3.83,2.2,4.47,4.47,0,0,0-3.83-2.2Z"></path><circle class="cls-10" cx="230.78" cy="292.76" r="4.32"></circle><path class="cls-10" d="M230.78,288.69a4.07,4.07,0,0,1,3.76,2.49,4.06,4.06,0,0,1-3.76,5.65,4.07,4.07,0,0,1-3.75-2.49A4.06,4.06,0,0,1,229.2,289a4,4,0,0,1,1.58-.32m0-.25a4.26,4.26,0,0,0-1.67.34,4.3,4.3,0,1,0,1.67-.34Z"></path><circle class="cls-9" cx="240.24" cy="268.01" r="4.32"></circle><path class="cls-9" d="M240.24,263.94a4,4,0,0,1,2.23.66,4.09,4.09,0,0,1,1.54,4.95,4.06,4.06,0,0,1-2.19,2.21,4,4,0,0,1-1.58.32,4.12,4.12,0,0,1-2.23-.66,4.08,4.08,0,0,1,.65-7.17,4.12,4.12,0,0,1,1.58-.31h0m0-.25a4.26,4.26,0,0,0-1.67.34,4.32,4.32,0,0,0,1.67,8.3,4.26,4.26,0,0,0,1.67-.34,4.32,4.32,0,0,0-1.67-8.3Z"></path><circle class="cls-9" cx="264.04" cy="230.82" r="3.62"></circle><path class="cls-9" d="M264,227.45a3.42,3.42,0,0,1,2,.67,3.37,3.37,0,0,1,1.23,1.8,3.38,3.38,0,0,1-2.35,4.15,3.5,3.5,0,0,1-.91.12,3.42,3.42,0,0,1-2-.67,3.32,3.32,0,0,1-1.22-1.8,3.36,3.36,0,0,1,2.35-4.15,3.42,3.42,0,0,1,.9-.12h0m0-.25a3.62,3.62,0,1,0,3.48,2.65A3.6,3.6,0,0,0,264,227.2Z"></path><circle class="cls-10" cx="221.95" cy="248.97" r="3.53"></circle><path class="cls-10" d="M222,245.69a3.28,3.28,0,0,1,1.27,6.31,3.28,3.28,0,1,1-2.54-6.05,3.11,3.11,0,0,1,1.27-.26h0m0-.25a3.53,3.53,0,1,0,3.25,2.16,3.5,3.5,0,0,0-3.25-2.16Z"></path><path class="cls-8" d="M350.83,300.51"></path><circle class="cls-6" cx="330.45" cy="251.93" r="4.43"></circle><path class="cls-6" d="M330.45,247.74a4.15,4.15,0,0,1,2.78,1.07,4.18,4.18,0,0,1-2.79,7.3,4.19,4.19,0,0,1-3.12-7,4.22,4.22,0,0,1,1.44-1,4.11,4.11,0,0,1,1.69-.36h0m0-.24a4.42,4.42,0,1,0,2.95,1.12,4.42,4.42,0,0,0-2.95-1.12Z"></path><rect class="cls-2" x="335.08" y="270.75" width="21.41" height="0.53" transform="translate(-83.97 362.25) rotate(-50.07)"></rect><rect class="cls-2" x="340.63" y="282.42" width="21.41" height="0.53" transform="translate(23.09 -26.51) rotate(4.47)"></rect><path class="cls-8" d="M372.61,264"></path><path class="cls-8" d="M322,272.27"></path><circle class="cls-10" cx="336.33" cy="281.95" r="5.89"></circle><path class="cls-10" d="M336.34,276.31a5.62,5.62,0,0,1,2.13.42,5.42,5.42,0,0,1,1.86,1.24,5.61,5.61,0,0,1,1.21,1.79,5.74,5.74,0,0,1,.44,2.12,5.52,5.52,0,0,1-.42,2.2,5.61,5.61,0,0,1-2.11,2.58,5.68,5.68,0,0,1-3.12.94,5.58,5.58,0,0,1-2.13-.42,5.72,5.72,0,0,1-1.86-1.24,5.65,5.65,0,0,1-1.21-1.8,5.74,5.74,0,0,1-.44-2.12,5.56,5.56,0,0,1,.42-2.2,5.61,5.61,0,0,1,2.11-2.58,5.67,5.67,0,0,1,3.12-.93m0-.25a5.89,5.89,0,0,0-2.23,11.35,6,6,0,0,0,2.22.44,5.89,5.89,0,0,0,2.23-11.35,5.82,5.82,0,0,0-2.22-.44Z"></path><circle class="cls-10" cx="355.58" cy="259.53" r="4.43"></circle><path class="cls-10" d="M355.58,255.35a4.12,4.12,0,0,1,1.58.31,4.19,4.19,0,0,1,2.28,2.25,4.19,4.19,0,0,1-3.86,5.81,4.28,4.28,0,0,1-1.58-.31,4.21,4.21,0,0,1-2.28-2.26,4.13,4.13,0,0,1,0-3.2,4.15,4.15,0,0,1,3.87-2.6m0-.25a4.44,4.44,0,0,0-1.68,8.54,4.53,4.53,0,0,0,1.68.33,4.44,4.44,0,0,0,0-8.87Z"></path><circle class="cls-10" cx="366.39" cy="283.72" r="4.43"></circle><path class="cls-10" d="M366.4,279.29v.25a4,4,0,0,1,1.57.31,4.13,4.13,0,0,1,2.28,2.25,4.18,4.18,0,0,1,0,3.2,4.08,4.08,0,0,1-1.57,1.91,4.15,4.15,0,0,1-2.31.7,4.32,4.32,0,0,1-1.58-.31,4.19,4.19,0,0,1-2.27-2.26,4.13,4.13,0,0,1,0-3.2,4.18,4.18,0,0,1,3.88-2.6v-.25m0,0a4.44,4.44,0,1,0,1.67.33,4.51,4.51,0,0,0-1.67-.33Z"></path><path class="cls-8" d="M375.5,305.79"></path><circle class="cls-9" cx="315.98" cy="290.16" r="4.43"></circle><path class="cls-9" d="M316,286a4.12,4.12,0,0,1,2.29.68,4.18,4.18,0,0,1-.67,7.36,4.07,4.07,0,0,1-1.61.33,4.19,4.19,0,0,1-2.3-.69,4,4,0,0,1-1.56-1.88,4.19,4.19,0,0,1,2.23-5.48A4.33,4.33,0,0,1,316,286m0-.25a4.49,4.49,0,0,0-1.71.34,4.43,4.43,0,0,0,1.72,8.52,4.49,4.49,0,0,0,1.71-.34,4.43,4.43,0,0,0-1.72-8.52Z"></path><path class="cls-8" d="M297.2,269.1"></path><path class="cls-7" d="M259.12,293.67a4.26,4.26,0,0,1-2.3-.67.22.22,0,0,1-.08-.26.22.22,0,0,1,.23-.15l.31,0a2.7,2.7,0,0,0,1.19-.28,1.65,1.65,0,0,1-1-1,.22.22,0,0,1,0-.22l0,0a1.67,1.67,0,0,1-.57-1.25v0a.23.23,0,0,1,.11-.18.19.19,0,0,1,.1,0,1.35,1.35,0,0,1-.14-.35.22.22,0,0,1,.15-.27.24.24,0,0,1,.28.16,1.2,1.2,0,0,0,.49.68.22.22,0,0,1-.13.4,1.5,1.5,0,0,1-.37-.05,1.21,1.21,0,0,0,.91.85.21.21,0,0,1,.18.21.22.22,0,0,1-.16.22,1.27,1.27,0,0,1-.34.05,1.22,1.22,0,0,0,1,.52.21.21,0,0,1,.2.15.22.22,0,0,1-.07.25,3,3,0,0,1-1.35.6,3.77,3.77,0,0,0,1.29.23.22.22,0,0,1,0,.44Z"></path><path class="cls-7" d="M259.12,293.67a.22.22,0,0,1,0-.44,3.77,3.77,0,0,0,3.81-3.82v-.17a.22.22,0,0,1,.09-.19l.16-.13-.11,0a.24.24,0,0,1-.24-.15.22.22,0,0,1,.1-.26l.14-.1a1.22,1.22,0,0,1-.26.06.21.21,0,0,1-.2-.06,1.23,1.23,0,0,0-.88-.38,1.2,1.2,0,0,0-1.2,1.2.84.84,0,0,0,0,.27.25.25,0,0,1-.05.19.21.21,0,0,1-.18.08,4.32,4.32,0,0,1-1.73-.46.22.22,0,0,1,.2-.4,3.82,3.82,0,0,0,1.28.4v-.08a1.64,1.64,0,0,1,1.64-1.64,1.67,1.67,0,0,1,1.11.42,2.59,2.59,0,0,0,.71-.29.23.23,0,0,1,.26,0,.22.22,0,0,1,.07.24,1.94,1.94,0,0,1-.13.3h0a.22.22,0,0,1,.26.06.22.22,0,0,1,0,.27,3.21,3.21,0,0,1-.66.72v.07a4.4,4.4,0,0,1-1.1,2.87A4.09,4.09,0,0,1,259.12,293.67Z"></path><path class="cls-7" d="M257.07,289.23a1.54,1.54,0,0,1-.06-.43v-.07l.45,0a.43.43,0,0,0,0,.05,1.19,1.19,0,0,0,.05.32Z"></path><path class="cls-7" d="M258.61,289.33a4.23,4.23,0,0,1-.86-.59l.29-.33a4.34,4.34,0,0,0,.77.52Z"></path><circle class="cls-7" cx="257.44" cy="288.17" r="0.36"></circle><path class="cls-7" d="M368.5,286.26h-4.17a.42.42,0,0,1-.42-.42V282h.33v3.89a.09.09,0,0,0,.09.09h4.17a.09.09,0,0,0,.09-.09v-4.17a.09.09,0,0,0-.09-.1h-3.94v-.33h3.94a.42.42,0,0,1,.42.43v4.17A.42.42,0,0,1,368.5,286.26Z"></path><path class="cls-7" d="M367.43,286.09h-.24v-1.93h.63l.06-.47h-.69v-.57c0-.2.05-.46.47-.46h.25v-.41l-.42,0a.75.75,0,0,0-.8.82v.64h-.6v.47h.6v1.93h-.23V284.4h-.61v-.95h.61v-.4a1,1,0,0,1,1-1.05,4.41,4.41,0,0,1,.56,0h.1v.85h-.49c-.21,0-.23.07-.23.23v.33h.71l-.12.95h-.59Z"></path><circle class="cls-7" cx="364.12" cy="281.5" r="0.27"></circle><circle class="cls-7" cx="327.88" cy="249.93" r="0.27"></circle><path class="cls-7" d="M330.44,254.7a.45.45,0,1,1,0-.89.45.45,0,1,1,0,.89Zm0-.66a.21.21,0,0,0-.21.22.21.21,0,0,0,.21.21.22.22,0,1,0,0-.43Z"></path><path class="cls-7" d="M332.35,254.7a.45.45,0,1,1,.45-.44A.44.44,0,0,1,332.35,254.7Zm0-.66a.22.22,0,1,0,.22.22A.22.22,0,0,0,332.35,254Z"></path><path class="cls-7" d="M333.1,253h-3.19a.16.16,0,0,1-.16-.16.17.17,0,0,1,.16-.17h2.92l.33-1.58h-3.69a.16.16,0,1,1,0-.32h4.09Z"></path><polygon class="cls-7" points="332.82 253.7 329.94 253.7 329.11 250.1 328.38 250.1 328.38 249.77 329.37 249.77 330.2 253.37 332.82 253.37 332.82 253.7"></polygon><polygon class="cls-7" points="332.75 251.07 331.79 250.11 331.15 250.75 330.92 250.52 331.79 249.65 332.98 250.84 332.75 251.07"></polygon><polygon class="cls-7" points="330.14 251.02 329.91 250.78 330.69 250 331.48 250.78 331.25 251.02 330.69 250.46 330.14 251.02"></polygon><path class="cls-7" d="M294.47,372.56a3.33,3.33,0,0,1-1.78-.52.17.17,0,0,1-.06-.2.16.16,0,0,1,.18-.12l.24,0a2,2,0,0,0,.91-.22,1.29,1.29,0,0,1-.74-.79.18.18,0,0,1,0-.17h0a1.28,1.28,0,0,1-.45-1v0a.17.17,0,0,1,.09-.14l.07,0c0-.09-.08-.18-.11-.27a.17.17,0,0,1,.12-.21.16.16,0,0,1,.21.12,1,1,0,0,0,.38.52.16.16,0,0,1,.07.2.17.17,0,0,1-.17.12l-.28,0a.93.93,0,0,0,.71.65.17.17,0,0,1,.13.16.16.16,0,0,1-.12.17,1.19,1.19,0,0,1-.26.05,1,1,0,0,0,.75.4.18.18,0,0,1,.16.12.16.16,0,0,1-.06.18,2.19,2.19,0,0,1-1,.47,2.76,2.76,0,0,0,1,.18.17.17,0,0,1,.17.17A.18.18,0,0,1,294.47,372.56Z"></path><path class="cls-7" d="M294.47,372.56a.18.18,0,0,1-.17-.17.17.17,0,0,1,.17-.17,2.93,2.93,0,0,0,2.95-3v-.13a.18.18,0,0,1,.07-.15l.13-.1-.09,0a.17.17,0,0,1-.11-.32l.1-.07-.19,0a.14.14,0,0,1-.16-.05,1,1,0,0,0-.68-.29.93.93,0,0,0-.92.93.75.75,0,0,0,0,.21.18.18,0,0,1-.18.21,3.47,3.47,0,0,1-1.34-.36A.18.18,0,0,1,294,369a.17.17,0,0,1,.23-.08,2.93,2.93,0,0,0,1,.31v-.06a1.27,1.27,0,0,1,1.27-1.27,1.3,1.3,0,0,1,.86.33,2.21,2.21,0,0,0,.55-.23.2.2,0,0,1,.2,0,.17.17,0,0,1,0,.19.94.94,0,0,1-.1.23h0a.17.17,0,0,1,.2,0,.18.18,0,0,1,0,.21,2.3,2.3,0,0,1-.52.56v.05a3.4,3.4,0,0,1-.85,2.22A3.16,3.16,0,0,1,294.47,372.56Z"></path><path class="cls-7" d="M292.88,369.13a1.27,1.27,0,0,1,0-.34v-.06l.34,0v0a1.07,1.07,0,0,0,0,.25Z"></path><path class="cls-7" d="M294.07,369.2a3.66,3.66,0,0,1-.66-.45l.23-.26a2.92,2.92,0,0,0,.59.4Z"></path><circle class="cls-7" cx="293.17" cy="368.3" r="0.28"></circle><path class="cls-7" d="M251.81,369.61a3.27,3.27,0,0,1-1.77-.52.16.16,0,0,1-.07-.2.17.17,0,0,1,.18-.11h.24a2,2,0,0,0,.92-.21,1.25,1.25,0,0,1-.74-.8.16.16,0,0,1,0-.16l0,0a1.24,1.24,0,0,1-.45-1v0a.19.19,0,0,1,.09-.14l.07,0a1.25,1.25,0,0,1-.1-.27.17.17,0,0,1,.12-.21.17.17,0,0,1,.21.12.93.93,0,0,0,.38.53.18.18,0,0,1,.07.19.19.19,0,0,1-.17.12,1.35,1.35,0,0,1-.29,0,.91.91,0,0,0,.71.65.19.19,0,0,1,.14.17.17.17,0,0,1-.13.17,1.09,1.09,0,0,1-.26,0,.92.92,0,0,0,.75.4.18.18,0,0,1,.16.12.18.18,0,0,1-.06.19,2.4,2.4,0,0,1-1,.47,3,3,0,0,0,1,.17.17.17,0,0,1,.17.17A.16.16,0,0,1,251.81,369.61Z"></path><path class="cls-7" d="M251.81,369.61a.17.17,0,0,1-.17-.17.18.18,0,0,1,.17-.17,2.92,2.92,0,0,0,2.95-2.95v-.14a.19.19,0,0,1,.07-.14l.13-.1h-.09a.17.17,0,0,1-.18-.11.17.17,0,0,1,.07-.21l.11-.07-.2.05a.18.18,0,0,1-.16-.05.92.92,0,0,0-.68-.3.93.93,0,0,0-.92.93,1.49,1.49,0,0,0,0,.21.16.16,0,0,1-.17.21,3.11,3.11,0,0,1-1.34-.36.17.17,0,1,1,.15-.3,3,3,0,0,0,1,.3s0,0,0-.06a1.27,1.27,0,0,1,2.13-.94,2.25,2.25,0,0,0,.56-.22.15.15,0,0,1,.19,0,.17.17,0,0,1,.06.19,2.29,2.29,0,0,1-.1.23h0a.17.17,0,0,1,.2.05.15.15,0,0,1,0,.2,2.27,2.27,0,0,1-.51.56v.06a3.4,3.4,0,0,1-.85,2.22A3.16,3.16,0,0,1,251.81,369.61Z"></path><path class="cls-7" d="M250.23,366.18a1.26,1.26,0,0,1,0-.33v-.06h.35v.05a1,1,0,0,0,0,.24Z"></path><path class="cls-7" d="M251.42,366.25a3,3,0,0,1-.66-.45l.22-.26a3,3,0,0,0,.59.41Z"></path><circle class="cls-7" cx="250.51" cy="365.35" r="0.28"></circle><path class="cls-7" d="M354.66,262.11a3.27,3.27,0,0,1-1.77-.52.16.16,0,0,1-.07-.2.17.17,0,0,1,.18-.11h.24a2,2,0,0,0,.92-.21,1.28,1.28,0,0,1-.74-.8.16.16,0,0,1,0-.16l0,0a1.27,1.27,0,0,1-.45-1v0a.16.16,0,0,1,.08-.14l.08,0a.81.81,0,0,1-.11-.27.17.17,0,0,1,.12-.21.18.18,0,0,1,.21.12.93.93,0,0,0,.38.53.18.18,0,0,1,.07.19.17.17,0,0,1-.17.12,1.45,1.45,0,0,1-.29,0,1,1,0,0,0,.71.66.16.16,0,0,1,.14.16.17.17,0,0,1-.13.17,1.09,1.09,0,0,1-.26,0,.93.93,0,0,0,.75.4.17.17,0,0,1,.1.31,2.4,2.4,0,0,1-1,.47,3,3,0,0,0,1,.17.18.18,0,0,1,.18.17A.17.17,0,0,1,354.66,262.11Z"></path><path class="cls-7" d="M354.66,262.11a.17.17,0,0,1-.17-.17.18.18,0,0,1,.17-.17,2.93,2.93,0,0,0,3-2.95.66.66,0,0,0,0-.14.19.19,0,0,1,.07-.14l.13-.1h-.09a.17.17,0,0,1-.11-.32.41.41,0,0,0,.11-.07l-.2.05a.18.18,0,0,1-.16-.05.9.9,0,0,0-.67-.29.93.93,0,0,0-.93.92,1.49,1.49,0,0,0,0,.21.16.16,0,0,1,0,.15.16.16,0,0,1-.14.06,3.15,3.15,0,0,1-1.34-.36.17.17,0,0,1-.08-.23.18.18,0,0,1,.24-.07,2.84,2.84,0,0,0,1,.3v-.06a1.27,1.27,0,0,1,2.12-.94,1.92,1.92,0,0,0,.56-.22.17.17,0,0,1,.19,0,.17.17,0,0,1,.06.19,1.6,1.6,0,0,1-.1.23h0a.17.17,0,0,1,.2.05.17.17,0,0,1,0,.2,2.53,2.53,0,0,1-.52.56v.06a3.4,3.4,0,0,1-.85,2.22A3.16,3.16,0,0,1,354.66,262.11Z"></path><path class="cls-7" d="M353.08,258.68a1.26,1.26,0,0,1-.05-.33v-.06h.35v.05a1,1,0,0,0,0,.24Z"></path><path class="cls-7" d="M354.27,258.75a3,3,0,0,1-.66-.45l.22-.26a2.77,2.77,0,0,0,.6.41Z"></path><circle class="cls-7" cx="353.37" cy="257.85" r="0.28"></circle><path class="cls-7" d="M237.92,308.64c-.62,0-.7,0-.95,0a1.78,1.78,0,0,1-.6-.11,1.29,1.29,0,0,1-.77-.77,1.78,1.78,0,0,1-.11-.6c0-.25,0-.33,0-.95s0-.7,0-.95a1.89,1.89,0,0,1,.11-.61l.31.12a1.5,1.5,0,0,0-.09.51c0,.24,0,.32,0,.93s0,.69,0,.93a1.44,1.44,0,0,0,.09.5.93.93,0,0,0,.23.35,1,1,0,0,0,.34.23,1.86,1.86,0,0,0,.51.09c.24,0,.32,0,.93,0s.69,0,.93,0a1.79,1.79,0,0,0,.51-.09,1,1,0,0,0,.34-.23.93.93,0,0,0,.23-.35,1.44,1.44,0,0,0,.09-.5c0-.24,0-.32,0-.93s0-.69,0-.93a1.5,1.5,0,0,0-.09-.51,1,1,0,0,0-.23-.34.86.86,0,0,0-.34-.23,1.5,1.5,0,0,0-.51-.09c-.24,0-.32,0-.93,0s-.69,0-.93,0a1.55,1.55,0,0,0-.51.09l-.11-.31a1.78,1.78,0,0,1,.6-.11c.25,0,.33,0,.95,0s.7,0,1,0a1.78,1.78,0,0,1,.6.11,1.35,1.35,0,0,1,.47.3,1.41,1.41,0,0,1,.3.46,1.89,1.89,0,0,1,.11.61c0,.25,0,.33,0,.95s0,.7,0,.95a1.78,1.78,0,0,1-.11.6,1.29,1.29,0,0,1-.77.77,1.78,1.78,0,0,1-.6.11C238.62,308.63,238.54,308.64,237.92,308.64Z"></path><path class="cls-7" d="M237.92,305.21a1,1,0,1,1-1,1,1,1,0,0,1,1-1m0-.24a1.22,1.22,0,1,0,1.22,1.22,1.22,1.22,0,0,0-1.22-1.22Z"></path><circle class="cls-7" cx="239.19" cy="304.92" r="0.28"></circle><circle class="cls-7" cx="236.05" cy="304.32" r="0.27"></circle><polygon class="cls-7" points="318.58 291.95 313.49 291.95 313.49 288.94 313.82 288.94 313.82 291.62 318.25 291.62 318.25 288.61 314.15 288.61 314.15 288.28 318.58 288.28 318.58 291.95"></polygon><polygon class="cls-7" points="316.04 290.55 314.23 289.06 314.37 288.88 316.04 290.25 318.26 288.42 318.41 288.6 316.04 290.55"></polygon><circle class="cls-7" cx="313.65" cy="288.44" r="0.27"></circle><circle class="cls-7" cx="313.65" cy="288.44" r="0.27"></circle><path class="cls-8" d="M306.56,313.27"></path><path class="cls-7" d="M247,332.83h-3.25a.33.33,0,0,1-.33-.33v-3h.26v3a.07.07,0,0,0,.07.07H247a.07.07,0,0,0,.07-.07v-3.25a.07.07,0,0,0-.07-.07H244v-.26H247a.33.33,0,0,1,.33.33v3.25A.33.33,0,0,1,247,332.83Z"></path><path class="cls-7" d="M246.2,332.7H246v-1.5h.49l0-.37H246v-.44c0-.16,0-.36.36-.36h.2v-.32h-.33a.57.57,0,0,0-.62.63v.5h-.47v.37h.47v1.5h-.18v-1.32H245v-.73h.47v-.32a.76.76,0,0,1,.8-.82l.44,0,.08,0v.66h-.39c-.16,0-.18.05-.18.18v.26h.56l-.09.73h-.47Z"></path><circle class="cls-7" cx="243.62" cy="329.13" r="0.21"></circle><polygon class="cls-7" points="266.15 232.36 262.02 232.36 262.02 229.92 262.29 229.92 262.29 232.09 265.88 232.09 265.88 229.65 262.56 229.65 262.56 229.38 266.15 229.38 266.15 232.36"></polygon><polygon class="cls-7" points="264.08 231.22 262.62 230.02 262.74 229.87 264.08 230.98 265.88 229.5 266 229.65 264.08 231.22"></polygon><circle class="cls-7" cx="262.15" cy="229.52" r="0.22"></circle><circle class="cls-7" cx="262.15" cy="229.52" r="0.22"></circle><circle class="cls-6" cx="230.71" cy="357.18" r="2.48"></circle><path class="cls-6" d="M230.71,355a2.23,2.23,0,0,1,.27,4.44l-.27,0a2.23,2.23,0,0,1-.27-4.44l.27,0h0m0-.25-.3,0a2.47,2.47,0,0,0,.3,4.93h.3a2.48,2.48,0,0,0-.3-4.94Z"></path><circle class="cls-10" cx="218.08" cy="349.99" r="2.48"></circle><path class="cls-10" d="M218.08,347.76a2.3,2.3,0,0,1,.45.05,2.24,2.24,0,0,1,1.41.95,2.23,2.23,0,0,1-1.86,3.46,2.3,2.3,0,0,1-.45-.05,2.23,2.23,0,0,1,.45-4.41h0m0-.25a2.48,2.48,0,0,0-.5,4.91,2.92,2.92,0,0,0,.5.05,2.48,2.48,0,0,0,.5-4.9,2.2,2.2,0,0,0-.5-.06Z"></path><circle class="cls-7" cx="229.38" cy="356.08" r="0.13"></circle><path class="cls-7" d="M230.66,358.46a.22.22,0,0,1-.22-.23.22.22,0,1,1,.44,0A.22.22,0,0,1,230.66,358.46Zm0-.33a.1.1,0,0,0-.11.1.11.11,0,1,0,.22,0A.1.1,0,0,0,230.66,358.13Z"></path><path class="cls-7" d="M231.61,358.46a.22.22,0,0,1-.22-.23.22.22,0,0,1,.22-.22.23.23,0,1,1,0,.45Zm0-.33a.09.09,0,0,0-.1.1.1.1,0,0,0,.1.11.11.11,0,0,0,.11-.11A.1.1,0,0,0,231.61,358.13Z"></path><path class="cls-7" d="M232,357.61H230.4a.09.09,0,0,1-.09-.08.08.08,0,0,1,.09-.08h1.45l.17-.79h-1.84a.09.09,0,0,1-.09-.08.08.08,0,0,1,.09-.08h2Z"></path><polygon class="cls-7" points="231.85 357.95 230.41 357.95 230 356.16 229.63 356.16 229.63 356 230.13 356 230.54 357.79 231.85 357.79 231.85 357.95"></polygon><polygon class="cls-7" points="231.81 356.64 231.33 356.16 231.01 356.48 230.9 356.37 231.33 355.93 231.93 356.53 231.81 356.64"></polygon><polygon class="cls-7" points="230.51 356.62 230.39 356.5 230.79 356.11 231.18 356.5 231.06 356.62 230.79 356.34 230.51 356.62"></polygon><path class="cls-7" d="M219.11,351.22h-2a.21.21,0,0,1-.21-.21v-1.89H217V351a0,0,0,0,0,.05,0h2a0,0,0,0,0,0,0v-2a0,0,0,0,0,0-.05h-1.92v-.16h1.92a.21.21,0,0,1,.21.21v2A.21.21,0,0,1,219.11,351.22Z"></path><path class="cls-7" d="M218.59,351.14h-.12v-.95h.31l0-.23h-.34v-.28c0-.09,0-.22.23-.22h.13v-.2h-.21a.37.37,0,0,0-.39.4V350h-.3v.23h.3v.95h-.11v-.83h-.3v-.46h.3v-.2a.47.47,0,0,1,.5-.51h.32v.41h-.24c-.1,0-.11,0-.11.11v.17h.35l-.06.46h-.29Z"></path><circle class="cls-7" cx="216.97" cy="348.9" r="0.13"></circle><polygon class="cls-7" points="233.34 332.35 229.22 332.35 229.22 329.91 229.49 329.91 229.49 332.08 233.08 332.08 233.08 329.64 229.76 329.64 229.76 329.37 233.34 329.37 233.34 332.35"></polygon><polygon class="cls-7" points="231.28 331.21 229.82 330.01 229.94 329.86 231.28 330.96 233.08 329.49 233.2 329.63 231.28 331.21"></polygon><circle class="cls-7" cx="229.35" cy="329.5" r="0.22"></circle><circle class="cls-7" cx="229.35" cy="329.5" r="0.22"></circle><path class="cls-8" d="M263.47,263.89"></path><circle class="cls-6" cx="269.39" cy="254.65" r="4.43"></circle><path class="cls-6" d="M269.38,250.47a4,4,0,0,1,1.14.16,4.18,4.18,0,0,1,1.37,7.37,4,4,0,0,1-1.18.62,4.25,4.25,0,0,1-1.32.22,4.42,4.42,0,0,1-1.14-.16,4.19,4.19,0,0,1-1.37-7.38,4.29,4.29,0,0,1,1.18-.62,4.24,4.24,0,0,1,1.32-.21m0-.25a4.43,4.43,0,0,0-1.2,8.7,4.65,4.65,0,0,0,1.21.17,4.43,4.43,0,0,0,1.2-8.7,4.21,4.21,0,0,0-1.21-.17Z"></path><circle class="cls-7" cx="266.69" cy="252.56" r="0.28"></circle><path class="cls-7" d="M269.4,257.6a.47.47,0,1,1,.47-.47A.47.47,0,0,1,269.4,257.6Zm0-.7a.23.23,0,0,0-.23.23.23.23,0,1,0,.45,0A.22.22,0,0,0,269.4,256.9Z"></path><path class="cls-7" d="M271.41,257.6a.47.47,0,1,1,.48-.47A.47.47,0,0,1,271.41,257.6Zm0-.7a.22.22,0,0,0-.22.23.23.23,0,1,0,.45,0A.23.23,0,0,0,271.41,256.9Z"></path><path class="cls-7" d="M272.2,255.81h-3.36a.17.17,0,0,1-.18-.17.18.18,0,0,1,.18-.17h3.08l.35-1.67h-3.9a.17.17,0,0,1-.17-.18.17.17,0,0,1,.17-.17h4.32Z"></path><polygon class="cls-7" points="271.91 256.54 268.87 256.54 267.99 252.74 267.22 252.74 267.22 252.39 268.26 252.39 269.14 256.2 271.91 256.2 271.91 256.54"></polygon><polygon class="cls-7" points="271.83 253.76 270.82 252.75 270.15 253.42 269.9 253.18 270.82 252.26 272.08 253.52 271.83 253.76"></polygon><polygon class="cls-7" points="269.08 253.71 268.83 253.46 269.66 252.63 270.49 253.46 270.25 253.71 269.66 253.12 269.08 253.71"></polygon><circle class="cls-6" cx="343.19" cy="347.05" r="4.43"></circle><path class="cls-6" d="M343.18,342.86a4,4,0,0,1,1.14.16,4.17,4.17,0,0,1,2.89,5.16,4.1,4.1,0,0,1-1.52,2.22,4.35,4.35,0,0,1-1.17.61,4.14,4.14,0,0,1-2.47.06,4.19,4.19,0,0,1-2.89-5.16,4.2,4.2,0,0,1,1.52-2.22,4.41,4.41,0,0,1,1.18-.61,4,4,0,0,1,1.32-.22m0-.25a4.43,4.43,0,0,0-1.2,8.7,4.65,4.65,0,0,0,1.21.17,4.43,4.43,0,0,0,1.2-8.7,4.59,4.59,0,0,0-1.21-.17Z"></path><circle class="cls-7" cx="340.65" cy="345.08" r="0.27"></circle><path class="cls-7" d="M343.21,349.85a.45.45,0,1,1,.44-.45A.45.45,0,0,1,343.21,349.85Zm0-.66a.22.22,0,1,0,.21.21A.22.22,0,0,0,343.21,349.19Z"></path><path class="cls-7" d="M345.12,349.85a.45.45,0,1,1,.44-.45A.45.45,0,0,1,345.12,349.85Zm0-.66a.22.22,0,1,0,.21.21A.22.22,0,0,0,345.12,349.19Z"></path><path class="cls-7" d="M345.86,348.16h-3.18a.17.17,0,0,1-.17-.16.18.18,0,0,1,.17-.17h2.92l.32-1.58h-3.69a.16.16,0,0,1-.16-.16.17.17,0,0,1,.16-.17h4.09Z"></path><polygon class="cls-7" points="345.59 348.85 342.7 348.85 341.87 345.25 341.14 345.25 341.14 344.92 342.13 344.92 342.96 348.52 345.59 348.52 345.59 348.85"></polygon><polygon class="cls-7" points="345.51 346.22 344.55 345.26 343.92 345.9 343.68 345.66 344.55 344.8 345.74 345.99 345.51 346.22"></polygon><polygon class="cls-7" points="342.9 346.16 342.67 345.93 343.46 345.15 344.24 345.93 344.01 346.16 343.46 345.61 342.9 346.16"></polygon><circle class="cls-7" cx="216.84" cy="322.92" r="0.21"></circle><path class="cls-7" d="M218.86,326.7a.36.36,0,0,1,0-.71.36.36,0,1,1,0,.71Zm0-.52a.17.17,0,0,0-.17.17.17.17,0,0,0,.34,0A.17.17,0,0,0,218.86,326.18Z"></path><path class="cls-7" d="M220.37,326.7a.36.36,0,0,1,0-.71.36.36,0,1,1,0,.71Zm0-.52a.17.17,0,0,0-.17.17.18.18,0,0,0,.17.17.17.17,0,0,0,.17-.17A.16.16,0,0,0,220.37,326.18Z"></path><path class="cls-7" d="M221,325.36h-2.53a.13.13,0,0,1,0-.26h2.31l.26-1.25h-2.92a.13.13,0,0,1,0-.26h3.24Z"></path><polygon class="cls-7" points="220.75 325.91 218.47 325.91 217.81 323.05 217.23 323.05 217.23 322.8 218.01 322.8 218.67 325.65 220.75 325.65 220.75 325.91"></polygon><polygon class="cls-7" points="220.69 323.82 219.93 323.06 219.42 323.57 219.24 323.38 219.93 322.7 220.87 323.64 220.69 323.82"></polygon><polygon class="cls-7" points="218.62 323.78 218.44 323.6 219.06 322.98 219.68 323.6 219.5 323.78 219.06 323.34 218.62 323.78"></polygon><path class="cls-7" d="M221.91,251h-.79a1.54,1.54,0,0,1-.51-.1,1.09,1.09,0,0,1-.38-.25,1,1,0,0,1-.26-.38,1.93,1.93,0,0,1-.09-.51c0-.21,0-.27,0-.79s0-.59,0-.79a1.86,1.86,0,0,1,.09-.51l.26.1a1.26,1.26,0,0,0-.08.42c0,.2,0,.27,0,.78s0,.58,0,.78a1.36,1.36,0,0,0,.08.42.91.91,0,0,0,.19.29.79.79,0,0,0,.29.18,1,1,0,0,0,.42.08h1.56a1.08,1.08,0,0,0,.42-.08.75.75,0,0,0,.47-.47,1.12,1.12,0,0,0,.08-.42c0-.2,0-.27,0-.78s0-.58,0-.78a1,1,0,0,0-.08-.42.79.79,0,0,0-.18-.29.91.91,0,0,0-.29-.19,1.31,1.31,0,0,0-.42-.08h-1.56a1.26,1.26,0,0,0-.42.08l-.1-.26a1.86,1.86,0,0,1,.51-.09h1.58a1.93,1.93,0,0,1,.51.09,1,1,0,0,1,.38.26,1.09,1.09,0,0,1,.25.38,1.54,1.54,0,0,1,.1.51c0,.2,0,.27,0,.79s0,.58,0,.79a1.59,1.59,0,0,1-.1.51,1.13,1.13,0,0,1-.63.63,1.59,1.59,0,0,1-.51.1Z"></path><path class="cls-7" d="M221.91,248.14a.82.82,0,1,1-.82.82.82.82,0,0,1,.82-.82m0-.2a1,1,0,1,0,0,2,1,1,0,0,0,0-2Z"></path><circle class="cls-7" cx="222.96" cy="247.9" r="0.24"></circle><circle class="cls-7" cx="220.35" cy="247.4" r="0.22"></circle><polygon class="cls-7" points="242.93 269.8 237.83 269.8 237.83 266.79 238.16 266.79 238.16 269.47 242.6 269.47 242.6 266.45 238.5 266.45 238.5 266.12 242.93 266.12 242.93 269.8"></polygon><polygon class="cls-7" points="240.38 268.4 238.57 266.91 238.72 266.73 240.38 268.09 242.61 266.26 242.76 266.45 240.38 268.4"></polygon><circle class="cls-7" cx="238" cy="266.29" r="0.27"></circle><circle class="cls-7" cx="238" cy="266.29" r="0.27"></circle><path class="cls-7" d="M275.75,350.7c-.87,0-1,0-1.33,0a3.06,3.06,0,0,1-.85-.16,1.83,1.83,0,0,1-.64-.42,2,2,0,0,1-.42-.65,2.61,2.61,0,0,1-.17-.85c0-.34,0-.46,0-1.33s0-1,0-1.33a2.61,2.61,0,0,1,.17-.84l.43.16a2.35,2.35,0,0,0-.14.71c0,.33,0,.44,0,1.3s0,1,0,1.31a2.28,2.28,0,0,0,.14.7,1.32,1.32,0,0,0,.31.49,1.6,1.6,0,0,0,.49.32,2.3,2.3,0,0,0,.7.13c.34,0,.45,0,1.31,0s1,0,1.31,0a2.3,2.3,0,0,0,.7-.13,1.49,1.49,0,0,0,.49-.32,1.32,1.32,0,0,0,.31-.49,2.28,2.28,0,0,0,.14-.7c0-.34,0-.45,0-1.31s0-1,0-1.3a2.35,2.35,0,0,0-.14-.71,1.28,1.28,0,0,0-.31-.48,1.34,1.34,0,0,0-.49-.32,2,2,0,0,0-.7-.13c-.34,0-.45,0-1.31,0s-1,0-1.31,0a2,2,0,0,0-.7.13l-.17-.43a2.73,2.73,0,0,1,.85-.17h2.66a2.67,2.67,0,0,1,.85.17,1.83,1.83,0,0,1,.64.42,1.56,1.56,0,0,1,.42.65,2.61,2.61,0,0,1,.17.84c0,.35,0,.46,0,1.33s0,1,0,1.33a2.61,2.61,0,0,1-.17.85,1.69,1.69,0,0,1-.42.65,1.83,1.83,0,0,1-.64.42,3,3,0,0,1-.85.16C276.73,350.7,276.62,350.7,275.75,350.7Z"></path><path class="cls-7" d="M275.75,345.9a1.38,1.38,0,1,1-1.37,1.37,1.37,1.37,0,0,1,1.37-1.37m0-.33a1.71,1.71,0,1,0,1.7,1.7,1.7,1.7,0,0,0-1.7-1.7Z"></path><circle class="cls-7" cx="277.52" cy="345.5" r="0.4"></circle><circle class="cls-7" cx="273.13" cy="344.65" r="0.37"></circle><path class="cls-7" d="M230.78,294.61a13.92,13.92,0,0,1-2-.11.76.76,0,0,1-.54-.54,6.71,6.71,0,0,1-.1-1.22,7.64,7.64,0,0,1,.08-1.13l.3.07a6.83,6.83,0,0,0-.08,1.06,6,6,0,0,0,.1,1.14.46.46,0,0,0,.32.33,17.72,17.72,0,0,0,3.76,0,.45.45,0,0,0,.32-.33,6.55,6.55,0,0,0,0-2.28.43.43,0,0,0-.32-.32,13.68,13.68,0,0,0-1.88-.1,17.59,17.59,0,0,0-1.81.08l-.05-.3a16.32,16.32,0,0,1,1.86-.09,13.92,13.92,0,0,1,2,.11.77.77,0,0,1,.54.54,6.22,6.22,0,0,1,.11,1.22,6.11,6.11,0,0,1-.11,1.22.76.76,0,0,1-.54.54A13.92,13.92,0,0,1,230.78,294.61Z"></path><path class="cls-7" d="M230.18,293.67v-1.85l1.6.92Zm.22-1.47v1.09l.95-.55Z"></path><path class="cls-7" d="M230.18,293.67v-1.85l1.6.92Zm.22-1.47v1.09l.95-.55Z"></path><circle class="cls-7" cx="228.59" cy="291.28" r="0.25"></circle><circle class="cls-6" cx="204.62" cy="300.52" r="3.53"></circle><path class="cls-6" d="M204.62,297.24a3.28,3.28,0,0,1,1.27,6.31,3.29,3.29,0,0,1-4.31-4.27,3.3,3.3,0,0,1,1.77-1.79,3.27,3.27,0,0,1,1.27-.25h0m0-.25a3.45,3.45,0,0,0-1.36.28,3.52,3.52,0,1,0,1.36-.28Z"></path><circle class="cls-7" cx="202.48" cy="298.88" r="0.21"></circle><path class="cls-7" d="M204.5,302.66a.36.36,0,1,1,.36-.36A.36.36,0,0,1,204.5,302.66Zm0-.53a.18.18,0,0,0-.17.17.17.17,0,0,0,.17.17.16.16,0,0,0,.17-.17A.17.17,0,0,0,204.5,302.13Z"></path><path class="cls-7" d="M206,302.66a.36.36,0,1,1,0-.71.36.36,0,0,1,0,.71Zm0-.53a.17.17,0,0,0-.17.17.16.16,0,0,0,.17.17.17.17,0,0,0,.17-.17A.18.18,0,0,0,206,302.13Z"></path><path class="cls-7" d="M206.61,301.32h-2.53a.12.12,0,0,1-.12-.13.12.12,0,0,1,.12-.13h2.32l.26-1.25h-2.92a.13.13,0,0,1-.13-.13.12.12,0,0,1,.13-.13H207Z"></path><polygon class="cls-7" points="206.39 301.86 204.11 301.86 203.45 299.01 202.87 299.01 202.87 298.75 203.66 298.75 204.31 301.6 206.39 301.6 206.39 301.86"></polygon><polygon class="cls-7" points="206.33 299.78 205.57 299.02 205.07 299.52 204.88 299.34 205.57 298.65 206.51 299.6 206.33 299.78"></polygon><polygon class="cls-7" points="204.26 299.74 204.08 299.55 204.7 298.93 205.33 299.55 205.14 299.74 204.7 299.3 204.26 299.74"></polygon><circle class="cls-11" cx="298.48" cy="302.2" r="0.35"></circle><path class="cls-7" d="M339.1,285.15h-5.43a.56.56,0,0,1-.55-.56v-5h.43v5a.13.13,0,0,0,.12.13h5.43a.13.13,0,0,0,.13-.13v-5.43a.13.13,0,0,0-.13-.12H334v-.43h5.13a.56.56,0,0,1,.56.55v5.43A.56.56,0,0,1,339.1,285.15Z"></path><path class="cls-7" d="M337.71,284.93h-.31v-2.51h.81l.08-.62h-.89v-.74c0-.26.06-.6.61-.6h.33v-.54l-.56,0a1,1,0,0,0-1,1.07v.83H336v.62h.79v2.51h-.31v-2.21h-.79v-1.23h.79V281a1.26,1.26,0,0,1,1.34-1.37,7.23,7.23,0,0,1,.73,0l.14,0v1.11H338c-.28,0-.3.09-.3.3v.43h.93l-.16,1.23h-.77Z"></path><circle class="cls-7" cx="333.39" cy="278.95" r="0.35"></circle><path class="cls-8" d="M133.05,117.2"></path><circle class="cls-7" cx="105.88" cy="112.48" r="0.35"></circle><path class="cls-7" d="M109.26,118.79a.59.59,0,1,1,.6-.59A.59.59,0,0,1,109.26,118.79Zm0-.87a.28.28,0,1,0,.29.28A.28.28,0,0,0,109.26,117.92Z"></path><path class="cls-7" d="M111.79,118.79a.59.59,0,1,1,.6-.59A.59.59,0,0,1,111.79,118.79Zm0-.87a.28.28,0,1,0,.29.28A.28.28,0,0,0,111.79,117.92Z"></path><path class="cls-7" d="M112.78,116.55h-4.22a.21.21,0,0,1-.21-.21.21.21,0,0,1,.21-.22h3.87l.43-2.09H108a.22.22,0,0,1-.22-.22.21.21,0,0,1,.22-.21h5.41Z"></path><polygon class="cls-7" points="112.42 117.47 108.6 117.47 107.5 112.7 106.54 112.7 106.54 112.27 107.85 112.27 108.95 117.03 112.42 117.03 112.42 117.47"></polygon><polygon class="cls-7" points="112.32 113.98 111.05 112.72 110.2 113.56 109.9 113.25 111.05 112.1 112.62 113.68 112.32 113.98"></polygon><polygon class="cls-7" points="108.86 113.91 108.56 113.61 109.6 112.57 110.64 113.61 110.33 113.91 109.6 113.18 108.86 113.91"></polygon><circle class="cls-10" cx="89.67" cy="92.35" r="4.43"></circle><path class="cls-10" d="M89.68,87.91v.25a4.22,4.22,0,0,1,1.57.31,4.13,4.13,0,0,1,2.28,2.25,4.18,4.18,0,0,1-3.86,5.81,4.19,4.19,0,0,1,0-8.37v-.25m0,0a4.44,4.44,0,1,0,1.67.33,4.51,4.51,0,0,0-1.67-.33Z"></path><path class="cls-7" d="M91.78,94.88H87.61a.42.42,0,0,1-.42-.42V90.58h.33v3.88a.09.09,0,0,0,.09.09h4.17a.09.09,0,0,0,.09-.09V90.29a.09.09,0,0,0-.09-.09H87.84v-.33h3.94a.42.42,0,0,1,.42.42v4.17A.42.42,0,0,1,91.78,94.88Z"></path><path class="cls-7" d="M90.71,94.72h-.24V92.79h.63l.06-.48h-.69v-.57c0-.19,0-.46.47-.46h.25v-.41h-.42a.74.74,0,0,0-.8.81v.64h-.6v.48H90v1.93h-.23V93h-.61v-.94h.61v-.41a1,1,0,0,1,1-1,4.41,4.41,0,0,1,.56,0h.1v.86h-.49c-.21,0-.23.07-.23.22v.34h.71L91.3,93h-.59Z"></path><circle class="cls-7" cx="87.4" cy="90.13" r="0.27"></circle><path class="cls-7" d="M125.09,174.71a21.93,21.93,0,0,1-3-.16,1.2,1.2,0,0,1-.83-.83,9.76,9.76,0,0,1-.16-1.85,10.81,10.81,0,0,1,.13-1.72l.46.09a11.26,11.26,0,0,0-.13,1.63,10.16,10.16,0,0,0,.15,1.73.74.74,0,0,0,.5.5,27.25,27.25,0,0,0,5.71,0,.71.71,0,0,0,.49-.5,10.11,10.11,0,0,0,0-3.47.68.68,0,0,0-.49-.49,19.54,19.54,0,0,0-2.86-.15,27,27,0,0,0-2.75.12l-.08-.46a26.05,26.05,0,0,1,2.83-.13,22,22,0,0,1,3,.16,1.17,1.17,0,0,1,.82.83,10.21,10.21,0,0,1,0,3.71,1.17,1.17,0,0,1-.82.83A22,22,0,0,1,125.09,174.71Z"></path><path class="cls-7" d="M124.18,173.27v-2.81l2.44,1.41Zm.33-2.23v1.66l1.44-.83Z"></path><path class="cls-7" d="M124.18,173.27v-2.81l2.44,1.41Zm.33-2.23v1.66l1.44-.83Z"></path><circle class="cls-7" cx="121.76" cy="169.64" r="0.38"></circle><polygon class="cls-2" points="237.22 95.75 219.21 105.98 218.92 105.56 236.93 95.32 237.22 95.75"></polygon><circle class="cls-9" cx="236.19" cy="95.69" r="3.53"></circle><path class="cls-9" d="M236.19,92.41a3.12,3.12,0,0,1,1.24.25,3.25,3.25,0,0,1,1.79,1.76,3.31,3.31,0,0,1,0,2.51,3.3,3.3,0,0,1-3,2,3.31,3.31,0,0,1-1.24-.25A3.24,3.24,0,0,1,233.17,97a3.29,3.29,0,0,1,3-4.56h0m0-.25a3.53,3.53,0,0,0-1.33,6.8,3.43,3.43,0,0,0,1.33.26,3.52,3.52,0,0,0,1.33-6.79,3.44,3.44,0,0,0-1.33-.27Z"></path><polygon class="cls-7" points="238.25 97.07 234.13 97.07 234.13 94.64 234.39 94.64 234.39 96.8 237.99 96.8 237.99 94.36 234.66 94.36 234.66 94.1 238.25 94.1 238.25 97.07"></polygon><polygon class="cls-7" points="236.19 95.94 234.72 94.73 234.84 94.58 236.19 95.69 237.99 94.21 238.11 94.36 236.19 95.94"></polygon><circle class="cls-7" cx="234.26" cy="94.23" r="0.22"></circle><circle class="cls-7" cx="234.26" cy="94.23" r="0.22"></circle><path class="cls-7" d="M185.66,109.88c-.87,0-1,0-1.33,0a2.67,2.67,0,0,1-.85-.17,1.83,1.83,0,0,1-.64-.42,1.7,1.7,0,0,1-.42-.64,2.73,2.73,0,0,1-.17-.85c0-.35,0-.46,0-1.33s0-1,0-1.33a2.67,2.67,0,0,1,.17-.85l.43.17a2.28,2.28,0,0,0-.14.7c0,.34,0,.45,0,1.31s0,1,0,1.31a2.28,2.28,0,0,0,.14.7,1.32,1.32,0,0,0,.8.8,2.28,2.28,0,0,0,.7.14H187a2.28,2.28,0,0,0,.7-.14,1.32,1.32,0,0,0,.8-.8,2.28,2.28,0,0,0,.14-.7c0-.34,0-.45,0-1.31s0-1,0-1.31a2.28,2.28,0,0,0-.14-.7,1.32,1.32,0,0,0-.8-.8,2.28,2.28,0,0,0-.7-.14c-.34,0-.45,0-1.31,0s-1,0-1.31,0a2.28,2.28,0,0,0-.7.14l-.17-.43a2.67,2.67,0,0,1,.85-.17c.35,0,.46,0,1.33,0s1,0,1.33,0a2.73,2.73,0,0,1,.85.17,1.7,1.7,0,0,1,.64.42,1.83,1.83,0,0,1,.42.64,2.73,2.73,0,0,1,.17.85c0,.35,0,.46,0,1.33s0,1,0,1.33a2.73,2.73,0,0,1-.17.85,1.88,1.88,0,0,1-1.06,1.06,2.73,2.73,0,0,1-.85.17C186.64,109.87,186.53,109.88,185.66,109.88Z"></path><path class="cls-7" d="M185.66,105.08a1.37,1.37,0,1,1-1.37,1.37,1.37,1.37,0,0,1,1.37-1.37m0-.33a1.7,1.7,0,1,0,1.7,1.7,1.7,1.7,0,0,0-1.7-1.7Z"></path><circle class="cls-7" cx="187.43" cy="104.68" r="0.4"></circle><circle class="cls-7" cx="183.04" cy="103.83" r="0.37"></circle><path class="cls-7" d="M184.27,193.42c-.62,0-.71,0-1,0a1.84,1.84,0,0,1-.61-.11,1.41,1.41,0,0,1-.46-.3,1.22,1.22,0,0,1-.3-.47,1.78,1.78,0,0,1-.12-.6c0-.25,0-.33,0-.95s0-.7,0-.95a1.78,1.78,0,0,1,.12-.6l.31.11a1.49,1.49,0,0,0-.1.51c0,.24,0,.32,0,.93s0,.69,0,.93a1.49,1.49,0,0,0,.1.51,1,1,0,0,0,.22.34,1,1,0,0,0,.35.23,1.49,1.49,0,0,0,.5.09c.24,0,.32,0,.94,0s.69,0,.93,0a1.44,1.44,0,0,0,.5-.09,1,1,0,0,0,.35-.23,1.13,1.13,0,0,0,.23-.34,1.86,1.86,0,0,0,.09-.51c0-.24,0-.32,0-.93s0-.69,0-.93a1.79,1.79,0,0,0-.09-.51,1.13,1.13,0,0,0-.23-.34,1,1,0,0,0-.35-.23,1.44,1.44,0,0,0-.5-.09c-.24,0-.32,0-.93,0s-.7,0-.94,0a1.49,1.49,0,0,0-.5.09l-.12-.31a1.84,1.84,0,0,1,.61-.11c.24,0,.33,0,1,0s.7,0,.95,0a1.83,1.83,0,0,1,.6.11,1.31,1.31,0,0,1,.46.3,1.22,1.22,0,0,1,.3.47,1.78,1.78,0,0,1,.12.6c0,.25,0,.33,0,.95s0,.7,0,.95a1.78,1.78,0,0,1-.12.6,1.22,1.22,0,0,1-.3.47,1.31,1.31,0,0,1-.46.3,1.83,1.83,0,0,1-.6.11C185,193.41,184.89,193.42,184.27,193.42Z"></path><path class="cls-7" d="M184.27,190a1,1,0,1,1-1,1,1,1,0,0,1,1-1m0-.24a1.22,1.22,0,1,0,1.21,1.22,1.22,1.22,0,0,0-1.21-1.22Z"></path><circle class="cls-7" cx="185.53" cy="189.71" r="0.28"></circle><circle class="cls-7" cx="182.4" cy="189.1" r="0.27"></circle><circle class="cls-11" cx="292.16" cy="303.5" r="5.55"></circle><circle class="cls-11" cx="296.77" cy="308.21" r="0.35"></circle><path class="cls-7" d="M294.89,306.72h-5.51v-.25a2.76,2.76,0,1,1,5.51,0Zm-5-.5h4.5a2.26,2.26,0,0,0-4.5,0Z"></path><circle class="cls-7" cx="291.09" cy="300.36" r="0.4"></circle><path class="cls-7" d="M292.13,303.4a1.85,1.85,0,0,1-1.69-2.58l.46.2a1.25,1.25,0,0,0-.12.54,1.35,1.35,0,1,0,1.35-1.35,1.49,1.49,0,0,0-.36.05l-.14-.48a2.14,2.14,0,0,1,.5-.06,1.84,1.84,0,1,1,0,3.68Z"></path><circle class="cls-11" cx="141.86" cy="128.54" r="9.63"></circle><circle class="cls-7" cx="141.84" cy="128.56" r="7.24"></circle><circle class="cls-11" cx="136.06" cy="131.59" r="0.35"></circle><circle class="cls-11" cx="135.72" cy="130.72" r="0.35"></circle><circle class="cls-11" cx="135.49" cy="129.91" r="0.35"></circle><circle class="cls-11" cx="135.37" cy="128.97" r="0.35"></circle><circle class="cls-11" cx="135.37" cy="128.02" r="0.35"></circle><circle class="cls-11" cx="136.55" cy="132.36" r="0.35"></circle><circle class="cls-11" cx="137.16" cy="133.05" r="0.35"></circle><circle class="cls-11" cx="137.86" cy="133.64" r="0.35"></circle><circle class="cls-11" cx="138.59" cy="134.19" r="0.35"></circle><circle class="cls-11" cx="139.36" cy="134.54" r="0.35"></circle><circle class="cls-11" cx="140.25" cy="134.88" r="0.35"></circle><circle class="cls-11" cx="141.06" cy="135.08" r="0.35"></circle><circle class="cls-11" cx="141.88" cy="135.2" r="0.35"></circle><circle class="cls-11" cx="142.7" cy="135.08" r="0.35"></circle><circle class="cls-11" cx="143.57" cy="134.88" r="0.35"></circle><circle class="cls-11" cx="144.36" cy="134.61" r="0.35"></circle><circle class="cls-11" cx="145.15" cy="134.26" r="0.35"></circle><circle class="cls-11" cx="145.84" cy="133.74" r="0.35"></circle><circle class="cls-11" cx="147.03" cy="132.51" r="0.35"></circle><circle class="cls-11" cx="147.48" cy="131.81" r="0.35"></circle><circle class="cls-11" cx="147.82" cy="131.09" r="0.35"></circle><circle class="cls-11" cx="148.09" cy="130.33" r="0.35"></circle><circle class="cls-11" cx="148.27" cy="129.51" r="0.35"></circle><circle class="cls-11" cx="148.37" cy="128.72" r="0.35"></circle><circle class="cls-11" cx="148.33" cy="127.93" r="0.35"></circle><circle class="cls-11" cx="147.96" cy="126.39" r="0.35"></circle><circle class="cls-11" cx="147.65" cy="125.67" r="0.35"></circle><circle class="cls-11" cx="147.25" cy="124.95" r="0.35"></circle><circle class="cls-11" cx="135.49" cy="127.16" r="0.35"></circle><circle class="cls-11" cx="135.72" cy="126.37" r="0.35"></circle><circle class="cls-11" cx="136.06" cy="125.57" r="0.35"></circle><circle class="cls-11" cx="136.51" cy="124.88" r="0.35"></circle><circle class="cls-11" cx="136.96" cy="124.19" r="0.35"></circle><circle class="cls-11" cx="137.55" cy="123.62" r="0.35"></circle><circle class="cls-11" cx="138.24" cy="123.12" r="0.35"></circle><circle class="cls-11" cx="138.94" cy="122.7" r="0.35"></circle><circle class="cls-11" cx="139.63" cy="122.36" r="0.35"></circle><circle class="cls-11" cx="140.37" cy="122.13" r="0.35"></circle><circle class="cls-11" cx="141.16" cy="122.01" r="0.35"></circle><circle class="cls-11" cx="141.96" cy="121.98" r="0.35"></circle><circle class="cls-11" cx="142.77" cy="122.01" r="0.35"></circle><circle class="cls-11" cx="143.57" cy="122.21" r="0.35"></circle><circle class="cls-11" cx="144.36" cy="122.48" r="0.35"></circle><circle class="cls-11" cx="145.05" cy="122.83" r="0.35"></circle><circle class="cls-11" cx="145.67" cy="123.27" r="0.35"></circle><circle class="cls-11" cx="146.27" cy="123.74" r="0.35"></circle><circle class="cls-11" cx="146.81" cy="124.31" r="0.35"></circle><path class="cls-8" d="M149.88,123.38"></path><path class="cls-8" d="M147.39,120.72"></path><path class="cls-11" d="M141.88,122.92a5.44,5.44,0,0,1,2.15.44,5.5,5.5,0,0,1,1.76,1.18A5.67,5.67,0,0,1,147,126.3a5.57,5.57,0,0,1,0,4.29,5.67,5.67,0,0,1-1.18,1.76,5.5,5.5,0,0,1-1.76,1.18,5.47,5.47,0,0,1-4.3,0,5.52,5.52,0,0,1,0-10.17,5.48,5.48,0,0,1,2.15-.44m0-.17a5.7,5.7,0,1,0,5.7,5.7,5.7,5.7,0,0,0-5.7-5.7Z"></path><path class="cls-8" d="M148.5,130.81"></path><circle class="cls-11" cx="148.21" cy="127.15" r="0.35"></circle><circle class="cls-11" cx="141.89" cy="128.45" r="5.55"></circle><circle class="cls-11" cx="146.5" cy="133.16" r="0.35"></circle><path class="cls-7" d="M144.62,131.67h-5.51v-.25a2.76,2.76,0,1,1,5.51,0Zm-5-.5h4.5a2.26,2.26,0,0,0-4.5,0Z"></path><circle class="cls-7" cx="140.82" cy="125.31" r="0.4"></circle><path class="cls-7" d="M141.87,128.35a1.84,1.84,0,0,1-1.85-1.84,1.7,1.7,0,0,1,.16-.74l.45.2a1.24,1.24,0,0,0-.11.54,1.35,1.35,0,1,0,1.35-1.35,1.5,1.5,0,0,0-.37,0l-.13-.48a2.07,2.07,0,0,1,.5-.06,1.84,1.84,0,1,1,0,3.68Z"></path></svg> 