<?xml version="1.0" encoding="UTF-8"?> <svg xmlns="http://www.w3.org/2000/svg" id="Layer_2" data-name="Layer 2" viewBox="0 0 440 450"><defs><style>.cls-1,.cls-8{fill:#808b94;}.cls-1{opacity:0.25;}.cls-1,.cls-6{isolation:isolate;}.cls-2,.cls-3{fill:#fff;}.cls-2{stroke:#fff;stroke-miterlimit:10;stroke-width:10.33px;}.cls-4{opacity:0.55;}.cls-5,.cls-6{fill:#009ca6;}.cls-7{fill:none;}.cls-9{fill:#ffd069;}.cls-10{fill:#2858a5;}.cls-11{fill:#ffe7b2;}</style></defs><rect class="cls-1" width="440" height="450"></rect><path class="cls-2" d="M111.27,238.65"></path><path class="cls-2" d="M116.7,246.64"></path><circle class="cls-3" cx="91.95" cy="181.54" r="8.63"></circle><circle class="cls-3" cx="118.49" cy="181.54" r="8.63"></circle><circle class="cls-3" cx="145.03" cy="181.54" r="8.63"></circle><path class="cls-3" d="M238,290.82H65V153.88H238ZM75.53,281.74h151.9V163H75.53Z"></path><rect class="cls-3" x="69.99" y="198.6" width="162.64" height="7.61"></rect><g class="cls-4"><rect class="cls-3" x="194.45" y="212.59" width="27.39" height="1.26"></rect><rect class="cls-3" x="194.45" y="218.62" width="27.39" height="1.26"></rect><rect class="cls-3" x="194.45" y="224.28" width="27.39" height="1.26"></rect><rect class="cls-3" x="194.45" y="230.3" width="27.39" height="1.26"></rect><rect class="cls-3" x="194.45" y="236.33" width="27.39" height="1.26"></rect><rect class="cls-3" x="194.45" y="242.35" width="27.39" height="1.26"></rect><rect class="cls-3" x="194.45" y="248.38" width="27.39" height="1.26"></rect><rect class="cls-3" x="194.45" y="254.4" width="27.39" height="1.26"></rect><rect class="cls-3" x="194.45" y="260.06" width="27.39" height="1.26"></rect><rect class="cls-3" x="194.45" y="266.09" width="27.39" height="1.26"></rect><rect class="cls-3" x="194.45" y="272.11" width="27.39" height="1.26"></rect></g><path class="cls-3" d="M188.5,276.83h-108V211H188.5Zm-106.08-2H186.53V212.93H82.42Z"></path><path class="cls-5" d="M307.93,227.27a2.66,2.66,0,1,1-2.66-2.66,2.66,2.66,0,0,1,2.66,2.66"></path><path class="cls-6" d="M324.48,217.3a27.27,27.27,0,0,0-16.68,5.61l2,2.63a24,24,0,0,1,13.49-4.92v9.54a14.75,14.75,0,0,0-13.52,13.52h-9.54a24.09,24.09,0,0,1,3.69-11.76l-2.79-1.76a27.6,27.6,0,1,0,23.36-12.86Zm24.25,26.41H339.2a14.76,14.76,0,0,0-13.53-13.52v-9.57A24.3,24.3,0,0,1,348.73,243.71Zm-25.41-11.16v.86h2.35v-.86a12.43,12.43,0,0,1,11.17,11.16H336v2.36h.83a12.44,12.44,0,0,1-11.17,11.17v-1h-2.35v1a12.45,12.45,0,0,1-11.17-11.17H313v-2.36h-.86A12.34,12.34,0,0,1,323.32,232.55Zm-23.1,13.52h9.54a14.77,14.77,0,0,0,13.52,13.53v9.53A24.31,24.31,0,0,1,300.22,246.07Zm25.45,23.06V259.6a14.78,14.78,0,0,0,13.53-13.53h9.53A24.27,24.27,0,0,1,325.67,269.13Z"></path><polygon class="cls-6" points="321.22 240.72 321.22 238.66 327.77 238.66 327.77 240.72 325.64 240.72 325.64 251.65 323.31 251.65 323.31 240.72 321.22 240.72"></polygon><circle class="cls-7" cx="324.49" cy="245.52" r="46.38"></circle><path class="cls-8" d="M326.11,296.12l-.27-8.54a21.77,21.77,0,0,0,3.41-.27l1.17,8.45h-.27C328.89,295.94,327.46,296,326.11,296.12Zm-7.19-.36c-1.35-.18-2.7-.36-4.05-.63l1.62-8.36,3.42.54Zm18.6-1.35-2.16-8.18c1.08-.27,2.25-.63,3.24-1l2.88,8C340.13,293.69,338.78,294.05,337.52,294.41Zm-29.66-1.08c-1.26-.45-2.6-1-3.86-1.53l3.41-7.73c1.08.45,2.16.9,3.15,1.26Zm40.18-3-4-7.55c1-.54,2-1.08,3-1.71l4.58,7.19C350.46,289,349.3,289.65,348,290.37Zm-50.42-2c-1.17-.72-2.34-1.53-3.42-2.34l5.12-6.83a32.56,32.56,0,0,0,2.88,2ZM357.38,284l-5.57-6.47a32.79,32.79,0,0,0,2.52-2.33l6,6C359.45,282.1,358.46,283.09,357.38,284Zm-68.57-2.69c-1-1-1.89-2-2.79-3.06l6.47-5.48a31,31,0,0,0,2.34,2.52Zm76.3-5.57-6.83-5a33.93,33.93,0,0,0,2-2.87l7.19,4.49C366.73,273.47,365.92,274.55,365.11,275.72Zm-83.4-3.24c-.72-1.17-1.44-2.34-2.07-3.6l7.55-3.95c.54,1,1.08,2,1.71,3Zm89.16-6.56-7.82-3.42c.45-1.07.9-2.15,1.25-3.23l8,2.78C371.85,263.4,371.4,264.66,370.87,265.92Zm-94.1-3.6a28.18,28.18,0,0,1-1.17-3.95l8.27-2.16c.27,1.08.62,2.25,1,3.33Zm97.42-7.19-8.36-1.61c.18-1.08.36-2.25.54-3.42l8.45.9C374.64,252.35,374.46,253.79,374.19,255.13Zm-99.94-3.86h0a33,33,0,0,1-.27-4.14l8.54-.26a21.87,21.87,0,0,0,.27,3.41Zm92.3-7.19a20.77,20.77,0,0,0-.27-3.33l8.45-1.16v.17a28.31,28.31,0,0,1,.27,4Zm-83.85-3.24-8.45-.9c.18-1.34.36-2.69.63-4l8.36,1.62A21.26,21.26,0,0,0,282.7,240.84Zm82.5-6.11a33,33,0,0,0-1-3.23l8-2.79a29,29,0,0,1,1.17,3.95Zm-80.44-3-8-2.79c.44-1.26,1-2.61,1.52-3.86l7.73,3.41C285.57,229.52,285.12,230.6,284.76,231.68Zm77-5.67c-.54-1-1.08-2-1.71-3l7.19-4.59c.72,1.17,1.44,2.34,2.07,3.6Zm-73-2.78-7.19-4.5c.72-1.16,1.53-2.33,2.34-3.41l6.83,5.12A22,22,0,0,0,288.81,223.23Zm67.77-5a32.63,32.63,0,0,0-2.34-2.51l6-6c1,1,1.89,2,2.79,3.05Zm-61.84-2.33-6-6c1-1,2-1.89,3-2.79l5.49,6.47A31,31,0,0,0,294.74,215.86Zm54.91-4.14a30.91,30.91,0,0,0-2.87-2l4.49-7.19c1.17.72,2.34,1.52,3.42,2.33ZM302,209.93l-4.58-7.19c1.17-.72,2.33-1.44,3.59-2.07l4,7.55C304,208.76,303,209.3,302,209.93Zm39.46-2.88c-1.08-.45-2.16-.9-3.24-1.26l2.79-8c1.26.45,2.6,1,3.86,1.53Zm-30.92-1.26-2.79-8a28.72,28.72,0,0,1,4-1.17l2.15,8.27A20.3,20.3,0,0,0,310.56,205.79Zm21.93-1.62-3.42-.54.9-8.44c1.35.18,2.7.36,4,.63Zm-12.94-.45-.18-3-.72-5.48h.09a30.46,30.46,0,0,1,4-.27l.27,8.53a20.56,20.56,0,0,0-3.32.27C319.73,203.72,319.64,203.72,319.55,203.72Z"></path><g class="cls-4"><rect class="cls-3" x="96.97" y="238.29" width="2.37" height="25.69"></rect><rect class="cls-3" x="118.31" y="238.29" width="2.37" height="25.69"></rect><rect class="cls-3" x="97.36" y="261.21" width="22.14" height="2.77"></rect><circle class="cls-3" cx="100.4" cy="227.42" r="1.78"></circle><path class="cls-3" d="M108.9,233.53c-2.85,0-5.23-2.68-5.53-6.24l-.09-1.07h11.24l-.09,1.07C114.14,230.85,111.76,233.53,108.9,233.53Zm-3.38-5.33c.5,2,1.86,3.36,3.38,3.36s2.89-1.41,3.39-3.36Z"></path><polygon class="cls-3" points="128.52 239.5 119.27 229.87 113.86 228.52 114.44 226.22 120.51 227.73 130.24 237.86 128.52 239.5"></polygon><path class="cls-3" d="M114.09,227.35"></path><path class="cls-3" d="M113.57,227.22"></path><rect class="cls-3" x="92.66" y="240.11" width="6.21" height="2.77" transform="translate(-143.71 140.78) rotate(-45.56)"></rect><rect class="cls-3" x="90.67" y="236.86" width="2.37" height="7.2" transform="translate(-146.09 142.27) rotate(-46.67)"></rect><rect class="cls-3" x="86.14" y="232.56" width="13.7" height="2.37" transform="translate(-140.02 138.94) rotate(-46.17)"></rect><rect class="cls-3" x="120.46" y="238.39" width="2.77" height="6.21" transform="translate(-134.24 154.39) rotate(-44.44)"></rect><rect class="cls-3" x="122.15" y="239.28" width="7.2" height="2.37" transform="translate(-130.73 151.84) rotate(-43.33)"></rect></g><path class="cls-9" d="M181.84,267.59h-44.3V220.42h44.3Zm-41.54-2.76h38.78V223.18H140.3Z"></path><rect class="cls-10" x="142.85" y="234.5" width="33.78" height="2.36"></rect><rect class="cls-10" x="142.85" y="226.19" width="33.78" height="2.36"></rect><rect class="cls-10" x="142.85" y="242.9" width="33.78" height="2.36"></rect><rect class="cls-10" x="142.85" y="251.3" width="33.78" height="2.36"></rect><rect class="cls-10" x="142.85" y="259.51" width="33.78" height="2.36"></rect><rect class="cls-11" x="223.03" y="221.52" width="2.36" height="88.36" transform="translate(-69.43 451.82) rotate(-82.21)"></rect><rect class="cls-11" x="180.17" y="222.32" width="89.02" height="2.36" transform="translate(-22.99 25.78) rotate(-6.25)"></rect></svg> 