<?xml version="1.0" encoding="UTF-8"?> <svg xmlns="http://www.w3.org/2000/svg" id="Layer_2" data-name="Layer 2" viewBox="0 0 440 450"><defs><style>.cls-1,.cls-4{fill:#808b94;}.cls-1{opacity:0.25;isolation:isolate;}.cls-2{fill:#2858a5;}.cls-3{fill:#009ca6;}.cls-5{fill:#fff;}</style></defs><rect class="cls-1" width="440" height="450"></rect><path class="cls-2" d="M234.57,268.4a2.81,2.81,0,0,1-2.78-2.84V159.16a2.78,2.78,0,1,1,5.56,0v106.4a2.81,2.81,0,0,1-2.78,2.84"></path><path class="cls-2" d="M286.71,216.55H182.42a2.78,2.78,0,1,1,0-5.55H286.71a2.78,2.78,0,1,1,0,5.55"></path><path class="cls-2" d="M234.57,271.59c-17,0-30.3-25.39-30.3-57.82S217.58,156,234.57,156s30.3,25.4,30.3,57.81-13.31,57.82-30.3,57.82m0-110.07c-13.41,0-24.74,23.93-24.74,52.25S221.16,266,234.57,266s24.74-23.93,24.74-52.26S248,161.52,234.57,161.52"></path><path class="cls-2" d="M271.56,258.15l-2.07-1.85a52.24,52.24,0,0,0-69.79-.05l-2.07,1.85L193.92,254l2.07-1.85a57.75,57.75,0,0,1,77.21,0l2.07,1.86Z"></path><path class="cls-2" d="M234.57,272.35a58.58,58.58,0,1,1,58.58-58.57A58.64,58.64,0,0,1,234.57,272.35Zm0-110.55a52,52,0,1,0,52,52A52,52,0,0,0,234.57,161.8Z"></path><path class="cls-2" d="M271.53,170.05l-2.07,1.85a52.27,52.27,0,0,1-69.79,0l-2.06-1.86-3.72,4.14,2.07,1.85a57.74,57.74,0,0,0,77.21,0l2.07-1.86Z"></path><polygon class="cls-3" points="364.81 246.47 336 246.47 336 229.47 337.96 229.47 337.96 244.51 362.85 244.51 362.85 227.63 339.8 227.63 339.8 225.67 364.81 225.67 364.81 246.47"></polygon><path class="cls-3" d="M338.57,226.65a1.59,1.59,0,1,1-1.59-1.59,1.59,1.59,0,0,1,1.59,1.59"></path><rect class="cls-3" x="344.61" y="248.37" width="11.43" height="2.57"></rect><path class="cls-4" d="M350.32,262.06h0a24.34,24.34,0,0,1-4.51-.42l.48-2.59a22.62,22.62,0,0,0,4,.36h.08l-.06.94Zm3.19-.21-.34-2.62a22.08,22.08,0,0,0,4-.9l.82,2.52A24.82,24.82,0,0,1,353.51,261.85Zm-10.81-1a23.52,23.52,0,0,1-4.19-1.8l1.26-2.32a22.08,22.08,0,0,0,3.74,1.61Zm18.22-1.2-1.14-2.38a23,23,0,0,0,3.5-2.09l1.55,2.14A24.16,24.16,0,0,1,360.92,259.66Zm-25.11-2.3a25.08,25.08,0,0,1-3.43-3l1.92-1.82a22.34,22.34,0,0,0,3.06,2.68Zm31.47-2.07-1.81-1.92a21.68,21.68,0,0,0,2.68-3.06l2.14,1.56A24.41,24.41,0,0,1,367.28,255.29Zm-36.94-3.38A25,25,0,0,1,328,248l2.39-1.14a22,22,0,0,0,2.08,3.49ZM372,249.17l-2.32-1.27a22.34,22.34,0,0,0,1.61-3.73l2.51.81A25.43,25.43,0,0,1,372,249.17ZM326.81,245a24.82,24.82,0,0,1-1-4.44l2.62-.34a22.27,22.27,0,0,0,.9,4Zm47.77-3.14-2.59-.48a22.88,22.88,0,0,0,.37-4.06v-.09H375v.07A24.64,24.64,0,0,1,374.58,241.89Zm-48.5-4.5h-.48a25,25,0,0,1,.4-4.52l2.6.48a22.29,22.29,0,0,0-.36,4Zm46.08-3a22.38,22.38,0,0,0-.9-4l2.51-.82a24.84,24.84,0,0,1,1,4.44Zm-42.86-3.83-2.52-.82a24.51,24.51,0,0,1,1.8-4.18l2.32,1.26A21.26,21.26,0,0,0,329.3,230.59Zm40.89-2.78a22.86,22.86,0,0,0-2.09-3.49l2.13-1.56a23.79,23.79,0,0,1,2.34,3.91Zm-37.77-3.38-2.14-1.55a25.08,25.08,0,0,1,3-3.43l1.82,1.92A22.25,22.25,0,0,0,332.42,224.43Zm33.85-2.29a23,23,0,0,0-3.07-2.68l1.55-2.14a25.7,25.7,0,0,1,3.43,3Zm-29-2.6-1.56-2.13a24.13,24.13,0,0,1,3.9-2.34l1.15,2.38A22.38,22.38,0,0,0,337.29,219.54Zm23.5-1.59a21.26,21.26,0,0,0-3.74-1.6l.81-2.52a25.76,25.76,0,0,1,4.19,1.79Zm-17.37-1.56-.82-2.51a24.84,24.84,0,0,1,4.44-1l.35,2.62A21.53,21.53,0,0,0,343.42,216.39Zm10.86-.73a22,22,0,0,0-4-.36h-.07v-2.65h.07a24.59,24.59,0,0,1,4.46.41Z"></path><rect class="cls-5" x="307.96" y="215.19" width="1.32" height="30.13" transform="translate(35.27 501.45) rotate(-81.5)"></rect><path class="cls-4" d="M293.34,328.42a2,2,0,0,1,1.75-2.19h0a2,2,0,0,1,2.19,1.76h0a2,2,0,0,1-1.76,2.19h-.21A2,2,0,0,1,293.34,328.42Zm-4.89,1.67h0a2,2,0,0,1-1.7-2.23h0a2,2,0,0,1,2.23-1.7h0a2,2,0,0,1,1.7,2.23h0a2,2,0,0,1-2,1.72h0Zm11.41-2.71a2,2,0,0,1,1.18-2.54h0a2,2,0,0,1,2.54,1.17h0a2,2,0,0,1-1.17,2.55h0a2.09,2.09,0,0,1-.69.12h0A2,2,0,0,1,299.86,327.38Zm-18.25.92h0a2,2,0,0,1-1.11-2.57h0a2,2,0,0,1,2.57-1.11h0a2,2,0,0,1,1.11,2.57h0a2,2,0,0,1-1.84,1.25h0A2.1,2.1,0,0,1,281.61,328.3Zm24.33-3.5a2,2,0,0,1,.53-2.75h0a2,2,0,0,1,2.75.52h0a2,2,0,0,1-.53,2.75h0a1.92,1.92,0,0,1-1.11.35h0A2,2,0,0,1,305.94,324.8Zm-30.54.11a2,2,0,0,1-.46-2.77h0a2,2,0,0,1,2.77-.45h0a2,2,0,0,1,.46,2.76h0a2,2,0,0,1-1.62.83h0A2,2,0,0,1,275.4,324.91Zm35.81-4.09a2,2,0,0,1-.15-2.8h0a2,2,0,0,1,2.8-.15h0a2,2,0,0,1,.16,2.8h0a2,2,0,0,1-1.48.66h0A2,2,0,0,1,311.21,320.82Zm-41-.69a2,2,0,0,1,.22-2.8h0a2,2,0,0,1,2.79.22h0a2,2,0,0,1-.22,2.8h0a2,2,0,0,1-1.29.47h0A2,2,0,0,1,270.2,320.13Zm45.18-4.44a2,2,0,0,1-.82-2.68h0a2,2,0,0,1,2.68-.82h0a2,2,0,0,1,.83,2.68h0a2,2,0,0,1-1.75,1.05h0A2,2,0,0,1,315.38,315.69Zm-49.08-1.46a2,2,0,0,1,.88-2.66h0a2,2,0,0,1,2.66.89h0a2,2,0,0,1-.89,2.65h0a1.84,1.84,0,0,1-.88.21h0A2,2,0,0,1,266.3,314.23Zm51.89-4.52a2,2,0,0,1-1.44-2.4h0a2,2,0,0,1,2.39-1.45h0a2,2,0,0,1,1.45,2.4h0a2,2,0,0,1-1.92,1.51h0A2,2,0,0,1,318.19,309.71Zm-54.26-2.15h0a2,2,0,0,1,1.51-2.36h0a2,2,0,0,1,2.36,1.5h0a2,2,0,0,1-1.5,2.36h0a2.18,2.18,0,0,1-.43.05h0A2,2,0,0,1,263.93,307.56Zm53.55-6.32h0a2,2,0,0,1,2-2h0a2,2,0,0,1,2,2h0a2,2,0,0,1-2,2h0A2,2,0,0,1,317.48,301.24Zm-52.29,1.31a2,2,0,0,1-1.94-2h0a2,2,0,0,1,2-1.94h0a2,2,0,0,1,1.94,2h0a2,2,0,0,1-2,1.93h-.05ZM317,296.4a2,2,0,0,1,1.57-2.32h0a2,2,0,0,1,2.32,1.56h0a2,2,0,0,1-1.56,2.33h0a2.43,2.43,0,0,1-.38,0h0A2,2,0,0,1,317,296.4ZM265.67,296a2,2,0,0,1-1.39-2.44h0a2,2,0,0,1,2.43-1.39h0a2,2,0,0,1,1.39,2.44h0a2,2,0,0,1-1.91,1.45h0A2.31,2.31,0,0,1,265.67,296Zm49.45-5.37a2,2,0,0,1,1-2.64h0a2,2,0,0,1,2.63,1h0a2,2,0,0,1-1,2.63h0a1.87,1.87,0,0,1-.83.19h0A2,2,0,0,1,315.12,290.6Zm-47.39-.91A2,2,0,0,1,267,287h0a2,2,0,0,1,2.7-.75h0a2,2,0,0,1,.76,2.7h0a2,2,0,0,1-1.73,1h0A2,2,0,0,1,267.73,289.69Zm44.15-4.26h0a2,2,0,0,1,.3-2.79h0a2,2,0,0,1,2.79.29h0a2,2,0,0,1-.3,2.79h0a2,2,0,0,1-1.24.44h0A2,2,0,0,1,311.88,285.43Zm-40.63-1.34a2,2,0,0,1-.09-2.8h0a2,2,0,0,1,2.81-.08h0a2,2,0,0,1,.08,2.8h0a2,2,0,0,1-1.45.62h0A2,2,0,0,1,271.25,284.09Zm36.23-2.91a2,2,0,0,1-.39-2.78h0a2,2,0,0,1,2.78-.39h0a2,2,0,0,1,.39,2.78h0a2,2,0,0,1-1.58.79h0A2,2,0,0,1,307.48,281.18ZM276,279.51a2,2,0,0,1,.59-2.74h0a2,2,0,0,1,2.74.59h0a2,2,0,0,1-.59,2.74h0a2,2,0,0,1-1.07.32h0A2,2,0,0,1,276,279.51Zm26.19-1.4a2,2,0,0,1-1.05-2.6h0a2,2,0,0,1,2.61-1h0a2,2,0,0,1,1.05,2.6h0a2,2,0,0,1-1.83,1.2h0A1.93,1.93,0,0,1,302.2,278.11Zm-20.47-1.91a2,2,0,0,1,1.24-2.51h0a2,2,0,0,1,2.51,1.24h0a2,2,0,0,1-1.24,2.51h0a1.76,1.76,0,0,1-.64.11h0A2,2,0,0,1,281.73,276.2Zm14.6.22a2,2,0,0,1-1.65-2.27h0a2,2,0,0,1,2.27-1.64h0a2,2,0,0,1,1.65,2.27h0a2,2,0,0,1-2,1.67h0Zm-8.25-2a2,2,0,0,1,1.81-2.13h0a2,2,0,0,1,2.14,1.81h0a2,2,0,0,1-1.81,2.14h-.17A2,2,0,0,1,288.08,274.38Z"></path><rect class="cls-5" x="264.79" y="266.44" width="1.32" height="14.79" transform="translate(-115.88 267.91) rotate(-45)"></rect><path class="cls-4" d="M318.06,178.57c-.6,0-1.22,0-1.83-.06l.25-3.95c.52,0,1,0,1.57,0h0v2.05l.09,1.92Zm0-1.92h0v0Zm3.25,1.74-.43-3.94c.53-.06,1.07-.14,1.59-.23l.69,3.9C322.58,178.23,322,178.32,321.34,178.39Zm-8.34-.26c-.62-.1-1.23-.23-1.83-.37l.93-3.86c.52.13,1,.24,1.58.33Zm13.36-.75-1.12-3.8q.78-.22,1.53-.51l1.36,3.73C327.55,177,327,177.21,326.36,177.38Zm-18.31-.56c-.58-.21-1.17-.45-1.74-.7l1.59-3.63c.49.22,1,.42,1.5.6Zm23.08-1.31L329.36,172c.48-.24,1-.49,1.42-.76l2,3.43C332.24,174.94,331.69,175.23,331.13,175.51Zm-27.73-.86c-.54-.31-1.07-.64-1.58-1l2.19-3.3c.44.29.91.58,1.37.85Zm32.09-1.81-2.35-3.19c.43-.32.86-.65,1.26-1l2.56,3C336.49,172.09,336,172.47,335.49,172.84Zm-36.28-1.12c-.47-.4-.94-.81-1.39-1.24l2.73-2.87c.39.37.79.73,1.2,1.07Zm40.12-2.26-2.87-2.74c.37-.39.74-.79,1.08-1.2l3,2.55C340.18,168.54,339.76,169,339.33,169.46Zm-43.75-1.35c-.39-.48-.78-1-1.15-1.46l3.19-2.36c.32.43.65.85,1,1.26Zm46.95-2.65-3.3-2.2c.29-.44.58-.9.85-1.37l3.43,2C343.2,164.42,342.87,165,342.53,165.46Zm-49.89-1.54c-.31-.53-.61-1.09-.88-1.64l3.55-1.77c.23.48.49,1,.76,1.42ZM345,161l-3.63-1.59c.22-.49.42-1,.6-1.5l3.73,1.36C345.47,159.82,345.23,160.4,345,161Zm-54.51-1.68c-.21-.58-.41-1.18-.59-1.77l3.81-1.12c.15.51.32,1,.5,1.52Zm56.15-3.18-3.85-.93c.12-.52.23-1.05.33-1.57l3.9.68C346.89,154.9,346.77,155.51,346.62,156.11Zm-57.48-1.77c-.11-.6-.2-1.22-.27-1.84l3.94-.44c.06.53.14,1.07.23,1.59Zm58.24-3.29-3.95-.24c0-.54.05-1.08.05-1.62v-.1h4v.07C347.44,149.81,347.42,150.43,347.38,151.05Zm-58.69-1.81v-.05c0-.59,0-1.2.05-1.8l4,.24c0,.52-.05,1-.05,1.56Zm54.62-3c-.06-.54-.14-1.07-.23-1.6l3.9-.7c.11.61.2,1.23.27,1.85ZM293,144.83l-3.9-.68c.1-.61.23-1.23.37-1.83l3.86.93C293.23,143.77,293.12,144.3,293,144.83Zm49.41-2.89q-.23-.76-.51-1.53l3.72-1.37c.22.58.41,1.18.59,1.77Zm-48.27-1.39-3.73-1.35c.21-.58.44-1.17.69-1.73l3.64,1.58C294.54,139.54,294.34,140.05,294.16,140.55Zm46.64-2.72c-.24-.48-.5-1-.77-1.42l3.43-2c.31.54.61,1.09.89,1.64ZM296,136.53l-3.43-2c.31-.54.64-1.07,1-1.58l3.3,2.19C296.58,135.6,296.29,136.06,296,136.53Zm42.46-2.47c-.32-.43-.65-.85-1-1.27l3-2.56c.4.48.79,1,1.16,1.47Zm-39.92-1.16-3-2.54c.4-.48.81-1,1.24-1.39l2.87,2.73C299.27,132.08,298.9,132.49,298.56,132.9Zm37-2.15c-.39-.37-.79-.74-1.2-1.08l2.54-3c.47.39.94.81,1.39,1.24Zm-33.85-1-2.56-3c.47-.4,1-.79,1.46-1.16l2.36,3.19C302.52,129.08,302.09,129.42,301.69,129.76ZM332.07,128c-.44-.3-.9-.58-1.37-.85l2-3.44c.54.31,1.07.64,1.59,1Zm-26.77-.78-2-3.43c.53-.31,1.08-.6,1.64-.88l1.77,3.54C306.24,126.68,305.77,126.94,305.3,127.21Zm22.88-1.34c-.49-.21-1-.41-1.5-.59l1.35-3.73c.58.21,1.16.44,1.73.69Zm-18.87-.54-1.37-3.72c.58-.22,1.18-.41,1.77-.59l1.13,3.8Q310.06,125,309.31,125.33Zm14.67-.86c-.51-.12-1-.23-1.57-.32l.67-3.91c.61.11,1.23.23,1.82.38Zm-10.4-.3-.7-3.9c.61-.11,1.23-.2,1.85-.27l.44,3.94C314.64,124,314.1,124.08,313.58,124.17Zm6-.35c-.51,0-1,0-1.54,0H318v-4h.06c.61,0,1.2,0,1.79.06Z"></path><polygon class="cls-3" points="310.1 167.68 310.03 158.51 303.35 158.51 303.35 139.19 305.6 139.19 305.6 156.26 312.27 156.26 312.28 158.77 313.62 156.26 331.67 156.26 331.67 137.03 307.83 137.03 307.83 134.78 333.92 134.78 333.92 158.51 314.97 158.51 310.1 167.68"></polygon><rect class="cls-5" x="282.45" y="174.61" width="14.79" height="1.32" transform="translate(-39.04 256.29) rotate(-45)"></rect><path class="cls-5" d="M145.52,277.33a64.16,64.16,0,0,1-53.43-99.69l7.78,5.18a54.8,54.8,0,1,0,17.44-16.65l-4.83-8a64.16,64.16,0,1,1,33,119.17"></path><rect class="cls-5" x="60.09" y="274.02" width="56.09" height="9.35" transform="translate(-171.25 143.94) rotate(-45)"></rect><path class="cls-5" d="M111.28,169.73a7.26,7.26,0,1,1-7.26-7.26,7.26,7.26,0,0,1,7.26,7.26"></path><path class="cls-3" d="M306.06,135.91a1.59,1.59,0,1,1-1.59-1.59,1.59,1.59,0,0,1,1.59,1.59"></path><path class="cls-3" d="M292.37,313.57a2.24,2.24,0,1,1,2.24-2.24A2.24,2.24,0,0,1,292.37,313.57Zm0-3a.73.73,0,1,0,.73.73A.73.73,0,0,0,292.37,310.6Z"></path><rect class="cls-3" x="289.92" y="290.94" width="4.89" height="1.51"></rect><polygon class="cls-3" points="302.01 317.24 282.72 317.24 282.72 289.7 284.84 289.7 284.84 315.12 299.89 315.12 299.89 287.54 287 287.54 287 285.42 302.01 285.42 302.01 317.24"></polygon><circle class="cls-3" cx="283.78" cy="286.48" r="1.72"></circle></svg> 