<?xml version="1.0" encoding="UTF-8"?> <svg xmlns="http://www.w3.org/2000/svg" xmlns:xlink="http://www.w3.org/1999/xlink" id="Layer_2" data-name="Layer 2" viewBox="0 0 440 450"><defs><style>.cls-1,.cls-21,.cls-31,.cls-34,.cls-36{fill:none;}.cls-2{fill:#808b94;opacity:0.25;isolation:isolate;}.cls-3{clip-path:url(#clip-path);}.cls-4{fill:#f2f2f4;}.cls-5{clip-path:url(#clip-path-3);}.cls-6{fill:#fff;}.cls-7{fill:#2558a5;}.cls-8{fill:#d7daef;}.cls-9{clip-path:url(#clip-path-4);}.cls-10{clip-path:url(#clip-path-5);}.cls-11{clip-path:url(#clip-path-6);}.cls-12{clip-path:url(#clip-path-7);}.cls-13{clip-path:url(#clip-path-8);}.cls-14{clip-path:url(#clip-path-9);}.cls-15{clip-path:url(#clip-path-11);}.cls-16{clip-path:url(#clip-path-13);}.cls-17{clip-path:url(#clip-path-15);}.cls-18{clip-path:url(#clip-path-16);}.cls-19{clip-path:url(#clip-path-17);}.cls-20{clip-path:url(#clip-path-18);}.cls-21,.cls-31,.cls-34{stroke:#d9d9d9;}.cls-21,.cls-31,.cls-34,.cls-36{stroke-linecap:round;stroke-linejoin:round;}.cls-21{stroke-width:0.42px;}.cls-22{fill:#d9d9d9;}.cls-23{fill:#1b9cab;}.cls-24{fill:#feb000;}.cls-25{clip-path:url(#clip-path-20);}.cls-26{clip-path:url(#clip-path-21);}.cls-27{clip-path:url(#clip-path-22);}.cls-28{clip-path:url(#clip-path-23);}.cls-29{clip-path:url(#clip-path-24);}.cls-30{clip-path:url(#clip-path-25);}.cls-31{stroke-width:0.21px;}.cls-32{fill:#bcd99b;}.cls-33{clip-path:url(#clip-path-27);}.cls-34{stroke-width:0.28px;}.cls-35{fill:#ffe7b3;}.cls-36{stroke:#385568;stroke-width:8.35px;}.cls-37{fill:#f1f1f4;}</style><clipPath id="clip-path"><rect class="cls-1" x="60.5" y="35.89" width="325" height="355.47"></rect></clipPath><clipPath id="clip-path-3"><rect class="cls-1" x="86.16" y="86.87" width="271.27" height="296.7"></rect></clipPath><clipPath id="clip-path-4"><rect class="cls-1" x="227.98" y="241.42" width="86.39" height="5.18"></rect></clipPath><clipPath id="clip-path-5"><rect class="cls-1" x="225.98" y="131.45" width="101.47" height="5.18"></rect></clipPath><clipPath id="clip-path-6"><rect class="cls-1" x="96.72" y="162.03" width="83.21" height="4.98"></rect></clipPath><clipPath id="clip-path-7"><rect class="cls-1" x="103.43" y="200.92" width="20.81" height="2.74"></rect></clipPath><clipPath id="clip-path-8"><rect class="cls-1" x="137.75" y="200.92" width="20.81" height="2.74"></rect></clipPath><clipPath id="clip-path-9"><rect class="cls-1" x="171.45" y="200.92" width="20.81" height="2.74"></rect></clipPath><clipPath id="clip-path-11"><path class="cls-1" d="M105.4,184.82a8.44,8.44,0,1,0,8.43-8.7,8.57,8.57,0,0,0-8.43,8.7"></path></clipPath><clipPath id="clip-path-13"><path class="cls-1" d="M139.73,184.82a8.43,8.43,0,1,0,8.43-8.7,8.56,8.56,0,0,0-8.43,8.7"></path></clipPath><clipPath id="clip-path-15"><path class="cls-1" d="M173.43,184.82a8.43,8.43,0,1,0,8.43-8.7,8.56,8.56,0,0,0-8.43,8.7"></path></clipPath><clipPath id="clip-path-16"><rect class="cls-1" x="104.31" y="182.89" width="19.05" height="4.99"></rect></clipPath><clipPath id="clip-path-17"><rect class="cls-1" x="138.64" y="182.89" width="19.05" height="4.99"></rect></clipPath><clipPath id="clip-path-18"><rect class="cls-1" x="172.34" y="182.89" width="19.05" height="4.99"></rect></clipPath><clipPath id="clip-path-20"><rect class="cls-1" x="243.91" y="270.68" width="4.82" height="2.56"></rect></clipPath><clipPath id="clip-path-21"><rect class="cls-1" x="244.51" y="298.94" width="3.61" height="2.56"></rect></clipPath><clipPath id="clip-path-22"><rect class="cls-1" x="300.7" y="284.09" width="4.71" height="2.56"></rect></clipPath><clipPath id="clip-path-23"><rect class="cls-1" x="301.24" y="300.99" width="3.61" height="2.56"></rect></clipPath><clipPath id="clip-path-24"><rect class="cls-1" x="289.98" y="290.48" width="3.61" height="2.56"></rect></clipPath><clipPath id="clip-path-25"><rect class="cls-1" x="289.98" y="303.42" width="3.61" height="2.56"></rect></clipPath><clipPath id="clip-path-27"><rect class="cls-1" x="99.19" y="216.96" width="23.96" height="3.57"></rect></clipPath></defs><rect class="cls-2" width="440" height="450"></rect><g class="cls-3"><g class="cls-3"><rect class="cls-4" x="91.02" y="138.19" width="113.65" height="174.35"></rect><g class="cls-5"><path class="cls-6" d="M197.77,308.77H97.43a2.56,2.56,0,0,1-2.54-2.55v-90.9a2.56,2.56,0,0,1,2.54-2.54H197.77a2.55,2.55,0,0,1,2.54,2.54v90.9a2.55,2.55,0,0,1-2.54,2.55"></path><rect class="cls-4" x="219.03" y="123.2" width="132.57" height="89.01"></rect><rect class="cls-4" x="219.25" y="233.24" width="132.57" height="89.01"></rect><rect class="cls-7" x="91.02" y="154.85" width="113.65" height="55.18"></rect><path class="cls-8" d="M188.47,150.7H98.62a2,2,0,0,1-2-2v-4.48a2,2,0,0,1,2-2h89.85a2,2,0,0,1,2,2v4.48a2,2,0,0,1-2,2"></path><path class="cls-6" d="M346,318H225.1c-.94,0-1.7-1.31-1.7-2.92V240.39c0-1.61.76-2.92,1.7-2.92H346c.94,0,1.7,1.31,1.7,2.92V315.1c0,1.61-.76,2.92-1.7,2.92"></path><path class="cls-6" d="M344.48,208H223.6c-.94,0-1.7-1.31-1.7-2.92V130.35c0-1.61.76-2.92,1.7-2.92H344.48c.94,0,1.7,1.31,1.7,2.92v74.71c0,1.61-.76,2.92-1.7,2.92"></path></g><g class="cls-9"><path class="cls-7" d="M228.32,242h.47l.9,1.64h0l.9-1.64h.47v2.74h-.47v-1.83h0l-.75,1.3h-.31l-.75-1.3h0v1.83h-.47Z"></path><path class="cls-7" d="M231.8,243.37a1.39,1.39,0,1,1,1.38,1.4A1.34,1.34,0,0,1,231.8,243.37Zm2.28,0a.9.9,0,1,0-.9,1A.91.91,0,0,0,234.08,243.37Z"></path><path class="cls-7" d="M235.32,242h.46l1.34,2h0v-2h.46v2.74h-.47l-1.33-1.93h0v1.93h-.46Z"></path><path class="cls-7" d="M239.05,242.42h-.77V242h2v.42h-.79v2.32h-.47Z"></path><path class="cls-7" d="M241.24,242h.47v1.23h1.23V242h.47v2.74h-.47v-1.1h-1.23v1.1h-.47Z"></path><path class="cls-7" d="M244.41,242h.47v2.33h1.27v.41h-1.74Z"></path><path class="cls-7" d="M247.44,243.53l-.91-1.53h.53l.61,1.06h0l.61-1.06h.54l-.92,1.53v1.21h-.47Z"></path><path class="cls-7" d="M251.12,242h1.73v.42h-1.26v.76h1v.41h-1v.74h1.34v.41h-1.81Z"></path><path class="cls-7" d="M254.13,242h.46l1.34,2h0v-2h.46v2.74h-.47l-1.33-1.93h0v1.93h-.47Z"></path><path class="cls-7" d="M257.3,242h1.79v.42h-1.32v.82h1.11v.42h-1.11v1.08h-.47Z"></path><path class="cls-7" d="M259.87,243.37a1.38,1.38,0,1,1,1.38,1.4A1.34,1.34,0,0,1,259.87,243.37Zm2.28,0a.9.9,0,1,0-.9,1A.91.91,0,0,0,262.15,243.37Z"></path><path class="cls-7" d="M263.45,242h1a.83.83,0,0,1,.94.89.79.79,0,0,1-.61.83l.71,1h-.56l-.66-1h-.37v1h-.46Zm.91,1.35c.37,0,.55-.2.55-.47s-.19-.46-.52-.46h-.48v.93Z"></path><path class="cls-7" d="M266.25,243.38a1.32,1.32,0,0,1,1.37-1.41,1.4,1.4,0,0,1,1.09.53l-.35.29a.9.9,0,0,0-.74-.38,1,1,0,0,0,0,1.92,1,1,0,0,0,.74-.37l.34.29a1.35,1.35,0,0,1-1.08.52A1.32,1.32,0,0,1,266.25,243.38Z"></path><path class="cls-7" d="M269.79,242h1.73v.42h-1.26v.76h1v.41h-1v.74h1.34v.41h-1.81Z"></path><path class="cls-7" d="M272.76,242h.47l.9,1.64h0l.91-1.64h.46v2.74h-.46v-1.83h0l-.75,1.3H274l-.74-1.3h0v1.83h-.47Z"></path><path class="cls-7" d="M276.36,242h1.73v.42h-1.26v.76h1v.41h-1v.74h1.34v.41h-1.81Z"></path><path class="cls-7" d="M279.33,242h.46l1.34,2h0v-2h.46v2.74h-.47l-1.33-1.93h0v1.93h-.47Z"></path><path class="cls-7" d="M283.07,242.42h-.78V242h2v.42h-.79v2.32h-.46Z"></path><path class="cls-7" d="M286.71,242h1a.83.83,0,0,1,.94.89.79.79,0,0,1-.61.83l.71,1h-.56l-.65-1h-.37v1h-.47Zm.91,1.35c.38,0,.56-.2.56-.47s-.19-.46-.53-.46h-.47v.93Z"></path><path class="cls-7" d="M289.89,242h1.72v.42h-1.26v.76h1v.41h-1v.74h1.34v.41h-1.8Z"></path><path class="cls-7" d="M292.62,242h1a.83.83,0,0,1,.94.89c0,.59-.4.88-1,.88h-.47v1h-.47Zm.89,1.35c.38,0,.56-.2.56-.47s-.19-.46-.52-.46h-.46v.93Z"></path><path class="cls-7" d="M295.31,243.37a1.35,1.35,0,0,1,1.39-1.4,1.4,1.4,0,1,1-1.39,1.4Zm2.29,0a.9.9,0,1,0-.9,1A.91.91,0,0,0,297.6,243.37Z"></path><path class="cls-7" d="M299.21,242h1a.83.83,0,0,1,.94.89.79.79,0,0,1-.61.83l.71,1h-.56l-.65-1h-.37v1h-.47Zm.91,1.35c.38,0,.56-.2.56-.47s-.19-.46-.53-.46h-.47v.93Z"></path><path class="cls-7" d="M303,242.42h-.78V242h2v.42h-.79v2.32H303Z"></path></g><g class="cls-10"><path class="cls-7" d="M226.32,132h.47l.9,1.64h0l.9-1.64h.47v2.74h-.47v-1.83h0l-.75,1.3h-.3l-.75-1.3h0v1.83h-.47Z"></path><path class="cls-7" d="M229.8,133.4a1.38,1.38,0,1,1,1.38,1.4A1.34,1.34,0,0,1,229.8,133.4Zm2.28,0a.9.9,0,1,0-.9,1A.91.91,0,0,0,232.08,133.4Z"></path><path class="cls-7" d="M233.31,132h.47l1.34,2h0v-2h.47v2.74h-.48l-1.32-1.93h0v1.93h-.47Z"></path><path class="cls-7" d="M237.05,132.45h-.77V132h2v.42h-.79v2.32h-.47Z"></path><path class="cls-7" d="M239.24,132h.46v1.23h1.24V132h.47v2.74h-.47v-1.1H239.7v1.1h-.46Z"></path><path class="cls-7" d="M242.41,132h.47v2.33h1.27v.41h-1.74Z"></path><path class="cls-7" d="M245.44,133.56l-.92-1.53h.53l.62,1.06h0l.61-1.06h.54l-.93,1.53v1.21h-.46Z"></path><path class="cls-7" d="M249.14,132h.46v2.74h-.46Z"></path><path class="cls-7" d="M250.62,132h.46l1.34,2h0v-2h.47v2.74h-.48l-1.32-1.93h0v1.93h-.47Z"></path><path class="cls-7" d="M253.8,132h1.79v.42h-1.33v.82h1.12v.42h-1.12v1.08h-.46Z"></path><path class="cls-7" d="M256.54,132h1a.83.83,0,0,1,.93.89.78.78,0,0,1-.61.83l.71,1H258l-.66-1H257v1h-.47Zm.92,1.35c.37,0,.55-.2.55-.47s-.19-.46-.52-.46H257v.93Z"></path><path class="cls-7" d="M259.73,132h.47v2.74h-.47Z"></path><path class="cls-7" d="M261.18,132h.46l1.34,2h0v-2h.46v2.74H263l-1.32-1.93h0v1.93h-.47Z"></path><path class="cls-7" d="M264.23,133.41A1.32,1.32,0,0,1,265.6,132a1.46,1.46,0,0,1,1.07.45l-.33.29a1,1,0,0,0-.75-.3,1,1,0,0,0,0,1.93,1.09,1.09,0,0,0,.61-.18v-.46h-.67v-.42h1.14v1.14a1.74,1.74,0,0,1-1.08.35A1.32,1.32,0,0,1,264.23,133.41Z"></path><path class="cls-7" d="M267.68,132h1.72v.42h-1.26v.76h1v.41h-1v.74h1.34v.41h-1.8Z"></path><path class="cls-7" d="M270.72,132h.46l.91,1.64h0L273,132h.47v2.74H273v-1.83h0l-.75,1.3h-.3l-.75-1.3h0v1.83h-.46Z"></path><path class="cls-7" d="M274.32,132H276v.42h-1.25v.76h1v.41h-1v.74h1.33v.41h-1.8Z"></path><path class="cls-7" d="M277.28,132h.47l1.34,2h0v-2h.47v2.74h-.48l-1.32-1.93h0v1.93h-.47Z"></path><path class="cls-7" d="M281,132.45h-.78V132h2v.42h-.79v2.32H281Z"></path><path class="cls-7" d="M284.67,132h1a.83.83,0,0,1,.94.89.79.79,0,0,1-.61.83l.71,1h-.56l-.66-1h-.37v1h-.46Zm.91,1.35c.37,0,.55-.2.55-.47s-.19-.46-.52-.46h-.48v.93Z"></path><path class="cls-7" d="M287.84,132h1.73v.42h-1.26v.76h1v.41h-1v.74h1.34v.41h-1.81Z"></path><path class="cls-7" d="M290.58,132h1a.83.83,0,0,1,.93.89c0,.59-.4.88-1,.88H291v1h-.46Zm.89,1.35c.38,0,.55-.2.55-.47s-.18-.46-.52-.46H291v.93Z"></path><path class="cls-7" d="M293.27,133.4a1.39,1.39,0,1,1,1.39,1.4A1.34,1.34,0,0,1,293.27,133.4Zm2.28,0a.9.9,0,0,0-.89-1,1,1,0,1,0,.89,1Z"></path><path class="cls-7" d="M297.17,132h1a.83.83,0,0,1,.94.89.79.79,0,0,1-.61.83l.71,1h-.56l-.66-1h-.37v1h-.46Zm.91,1.35c.37,0,.55-.2.55-.47s-.19-.46-.52-.46h-.48v.93Z"></path><path class="cls-7" d="M300.91,132.45h-.78V132h2v.42h-.79v2.32h-.46Z"></path></g><g class="cls-11"><path class="cls-6" d="M97.65,164.06l-.88-1.48h.51l.59,1h0l.59-1H99l-.89,1.48v1.16h-.45Z"></path><path class="cls-6" d="M99.74,162.58h1.66v.4h-1.21v.73h1v.41h-1v.7h1.29v.4H99.74Z"></path><path class="cls-6" d="M103.49,162.58h.44l1,2.64h-.47l-.2-.56h-1.08l-.2.56h-.47Zm.63,1.69-.41-1.15h0l-.4,1.15Z"></path><path class="cls-6" d="M105.69,162.58h1a.8.8,0,0,1,.9.86.76.76,0,0,1-.59.8l.69,1h-.54l-.64-.94h-.35v.94h-.45Zm.88,1.3c.36,0,.54-.19.54-.45s-.19-.45-.51-.45h-.46v.9Z"></path><path class="cls-6" d="M110.8,163h-.75v-.4h2v.4h-.76v2.24h-.45Z"></path><path class="cls-6" d="M112.71,163.9a1.34,1.34,0,1,1,1.34,1.35A1.29,1.29,0,0,1,112.71,163.9Zm2.2,0a.88.88,0,0,0-.86-.93.93.93,0,0,0,0,1.86A.88.88,0,0,0,114.91,163.9Z"></path><path class="cls-6" d="M117.5,162.58h.84a1.28,1.28,0,0,1,1.37,1.33,1.25,1.25,0,0,1-1.36,1.31h-.85Zm.82,2.24a.92.92,0,1,0,0-1.84H118v1.84Z"></path><path class="cls-6" d="M121.3,162.58h.44l1,2.64h-.47l-.2-.56H121l-.2.56h-.47Zm.62,1.69-.4-1.15h0l-.4,1.15Z"></path><path class="cls-6" d="M123.87,163h-.75v-.4h2v.4h-.76v2.24h-.45Z"></path><path class="cls-6" d="M125.89,162.58h1.66v.4h-1.21v.73h1v.41h-1v.7h1.29v.4h-1.74Z"></path><path class="cls-6" d="M129.77,163.9a1.34,1.34,0,1,1,1.33,1.35A1.29,1.29,0,0,1,129.77,163.9Zm2.2,0a.87.87,0,1,0-.87.93A.88.88,0,0,0,132,163.9Z"></path><path class="cls-6" d="M133.12,162.58h.48l.71,2h0l.7-2h.48l-1,2.64h-.39Z"></path><path class="cls-6" d="M136.27,162.58h1.67v.4h-1.22v.73h1v.41h-1v.7H138v.4h-1.74Z"></path><path class="cls-6" d="M139.19,162.58h1a.8.8,0,0,1,.9.86.76.76,0,0,1-.58.8l.68,1h-.54l-.63-.94h-.36v.94h-.45Zm.88,1.3c.36,0,.54-.19.54-.45s-.18-.45-.51-.45h-.46v.9Z"></path><path class="cls-6" d="M142,162.58h.48l.71,2h0l.7-2h.48l-1,2.64H143Z"></path><path class="cls-6" d="M145.14,162.58h.45v2.64h-.45Z"></path><path class="cls-6" d="M146.62,162.58h1.67v.4h-1.22v.73h1v.41h-1v.7h1.3v.4h-1.75Z"></path><path class="cls-6" d="M149.09,162.58h.48l.56,1.91h0l.52-1.91h.47l.52,1.9h0l.57-1.9h.48l-.84,2.64h-.42l-.54-2h0l-.56,2h-.42Z"></path></g><g class="cls-12"><path class="cls-6" d="M108,201.22h.46a.7.7,0,0,1,.75.73.69.69,0,0,1-.75.72H108Zm.45,1.23a.51.51,0,0,0,0-1h-.22v1Z"></path><path class="cls-6" d="M109.6,201.22h.91v.22h-.66v.4h.53v.22h-.53v.39h.71v.22h-1Z"></path><path class="cls-6" d="M111.29,201.44h-.41v-.22H112v.22h-.42v1.23h-.25Z"></path><path class="cls-6" d="M112.35,201.22h.91v.22h-.66v.4h.53v.22h-.53v.39h.7v.22h-1Z"></path><path class="cls-6" d="M114,202a.71.71,0,0,1,.73-.75.74.74,0,0,1,.58.28l-.19.15a.49.49,0,1,0-.38.82.49.49,0,0,0,.39-.2l.18.16a.74.74,0,0,1-.57.27A.7.7,0,0,1,114,202Z"></path><path class="cls-6" d="M116,201.44h-.42v-.22h1.08v.22h-.42v1.23H116Z"></path><path class="cls-6" d="M117,201.22h.92v.22h-.67v.4h.54v.22h-.54v.39H118v.22h-1Z"></path><path class="cls-6" d="M118.57,201.22H119a.71.71,0,0,1,.76.73.69.69,0,0,1-.75.72h-.47Zm.46,1.23a.48.48,0,0,0,.5-.5.48.48,0,0,0-.49-.51h-.22v1Z"></path></g><g class="cls-13"><path class="cls-6" d="M142.08,201.22H143v.22h-.67v.4h.54v.22h-.54v.39H143v.22h-.95Z"></path><path class="cls-6" d="M143.59,201.22h.25l.7,1h0v-1h.24v1.45h-.25l-.7-1h0v1h-.25Z"></path><path class="cls-6" d="M145.21,201.22h.95v.22h-.7v.43h.59v.23h-.59v.57h-.25Z"></path><path class="cls-6" d="M146.52,201.94a.73.73,0,1,1,.73.75A.71.71,0,0,1,146.52,201.94Zm1.21,0a.48.48,0,1,0-.48.52A.49.49,0,0,0,147.73,201.94Z"></path><path class="cls-6" d="M148.36,201.22h.53a.44.44,0,0,1,.5.47.42.42,0,0,1-.32.44l.37.54h-.29l-.35-.52h-.2v.52h-.24Zm.48.71c.2,0,.29-.1.29-.25s-.1-.24-.27-.24h-.26v.49Z"></path><path class="cls-6" d="M149.79,202a.7.7,0,0,1,.72-.75.72.72,0,0,1,.58.28l-.18.15a.5.5,0,0,0-.4-.19.51.51,0,0,0,0,1,.49.49,0,0,0,.39-.2l.18.16a.73.73,0,0,1-.57.27A.69.69,0,0,1,149.79,202Z"></path><path class="cls-6" d="M151.61,201.22h.91v.22h-.67v.4h.54v.22h-.54v.39h.71v.22h-.95Z"></path><path class="cls-6" d="M153.12,201.22h.47a.7.7,0,0,1,.75.73.69.69,0,0,1-.75.72h-.47Zm.46,1.23a.48.48,0,0,0,.5-.5.48.48,0,0,0-.49-.51h-.22v1Z"></path></g><g class="cls-14"><path class="cls-6" d="M174.61,201.44h-.41v-.22h1.08v.22h-.42v1.23h-.25Z"></path><path class="cls-6" d="M175.61,201.94a.71.71,0,0,1,.74-.74.75.75,0,0,1,0,1.49A.72.72,0,0,1,175.61,201.94Zm1.21,0a.48.48,0,1,0-.47.52A.49.49,0,0,0,176.82,201.94Z"></path><path class="cls-6" d="M177.72,201.44h-.41v-.22h1.07v.22H178v1.23h-.24Z"></path><path class="cls-6" d="M179.08,201.22h.24l.54,1.45h-.25l-.11-.31h-.6l-.11.31h-.25Zm.34.92-.22-.63h0l-.22.63Z"></path><path class="cls-6" d="M180.29,201.22h.25v1.23h.67v.22h-.92Z"></path><path class="cls-6" d="M182.26,201.22h.27l.38,1.09h0l.38-1.09h.26l-.54,1.45h-.22Z"></path><path class="cls-6" d="M184.15,201.22h.24l.55,1.45h-.26l-.11-.31H184l-.11.31h-.26Zm.35.92-.23-.63h0l-.22.63Z"></path><path class="cls-6" d="M185.37,201.22h.24v1.23h.68v.22h-.92Z"></path><path class="cls-6" d="M186.75,202.07v-.85H187v.83c0,.24.13.4.33.4s.34-.15.34-.4v-.83h.24v.85a.58.58,0,1,1-1.15,0Z"></path><path class="cls-6" d="M188.39,201.22h.92v.22h-.67v.4h.54v.22h-.54v.39h.71v.22h-1Z"></path></g><g class="cls-5"><path class="cls-6" d="M105.4,184.82a8.44,8.44,0,1,0,8.43-8.7,8.57,8.57,0,0,0-8.43,8.7"></path></g><g class="cls-15"><rect class="cls-6" x="105.4" y="176.12" width="16.86" height="17.39"></rect></g><g class="cls-5"><path class="cls-6" d="M139.73,184.82a8.43,8.43,0,1,0,8.43-8.7,8.56,8.56,0,0,0-8.43,8.7"></path></g><g class="cls-16"><rect class="cls-6" x="139.73" y="176.12" width="16.86" height="17.39"></rect></g><g class="cls-5"><path class="cls-6" d="M173.43,184.82a8.43,8.43,0,1,0,8.43-8.7,8.56,8.56,0,0,0-8.43,8.7"></path></g><g class="cls-17"><rect class="cls-6" x="173.43" y="176.12" width="16.86" height="17.39"></rect></g><g class="cls-18"><path class="cls-7" d="M108.91,185.27a.86.86,0,0,1-.92.84.94.94,0,0,1-.91-1,1.63,1.63,0,0,1,1.33-1.63l.14.36a1.28,1.28,0,0,0-1,.77h0a1,1,0,0,1,.51-.13A.77.77,0,0,1,108.91,185.27Zm-.43,0a.42.42,0,0,0-.47-.42.68.68,0,0,0-.51.25v0a.54.54,0,0,0,.52.57A.44.44,0,0,0,108.48,185.26Z"></path><path class="cls-7" d="M109.6,185.79l.82-.87a1,1,0,0,0,.36-.62.38.38,0,0,0-.39-.4.56.56,0,0,0-.49.3l-.31-.22a.88.88,0,0,1,.83-.48.75.75,0,0,1,.8.75,1.19,1.19,0,0,1-.42.86l-.54.56h1v.39h-1.64Z"></path><path class="cls-7" d="M112,185.83a.29.29,0,0,1,.29-.28.28.28,0,0,1,.27.28.27.27,0,0,1-.27.27A.28.28,0,0,1,112,185.83Z"></path><path class="cls-7" d="M114.4,185.64h-1.11v-.29l1.18-1.83h.36v1.74h.36v.38h-.36v.43h-.43Zm0-.37v-1l-.63,1Z"></path><path class="cls-7" d="M117.67,184.5a1.64,1.64,0,0,1-1.35,1.66l-.14-.36a1.32,1.32,0,0,0,1-.78h0a1,1,0,0,1-.51.14.77.77,0,0,1-.8-.82.85.85,0,0,1,.92-.84A.93.93,0,0,1,117.67,184.5Zm-.93.25a.65.65,0,0,0,.51-.25v0a.51.51,0,0,0-.49-.57.45.45,0,0,0-.48.44A.42.42,0,0,0,116.74,184.75Z"></path><path class="cls-7" d="M118.36,183.43h.45v1.26h0l1-1.26h.57l-1,1.18,1,1.46h-.56l-.77-1.1-.3.35v.75h-.45Z"></path></g><g class="cls-19"><path class="cls-7" d="M145.09,184l-.46.35-.2-.32.75-.54h.35v2.56h-.44Z"></path><path class="cls-7" d="M146.4,184.8c0-.78.37-1.31,1-1.31s1,.47,1,1.31-.37,1.3-1,1.3S146.4,185.63,146.4,184.8Zm1.53,0c0-.58-.21-.91-.55-.91s-.54.33-.54.91.22.9.55.9S147.93,185.37,147.93,184.8Z"></path><path class="cls-7" d="M149.55,183.43H150v1.27h0l1-1.27h.58l-1,1.18,1,1.46h-.56l-.76-1.1-.31.36v.74h-.45Z"></path></g><g class="cls-20"><path class="cls-7" d="M181,185.26a.83.83,0,0,1-.9.84,1.06,1.06,0,0,1-.87-.41l.31-.25a.62.62,0,0,0,.52.27.45.45,0,1,0,0-.9.62.62,0,0,0-.42.13l-.23-.08.07-1.34h1.39v.39h-1l0,.57a1.16,1.16,0,0,1,.33-.06A.78.78,0,0,1,181,185.26Z"></path><path class="cls-7" d="M181.83,183.43h.46l.87,1.58h0l.88-1.58h.45v2.64H184V184.3h0l-.72,1.26H183l-.72-1.25h0v1.76h-.45Z"></path></g><line class="cls-21" x1="228.83" y1="307.27" x2="340.52" y2="307.27"></line><line class="cls-21" x1="228.83" y1="303.05" x2="340.52" y2="303.05"></line><line class="cls-21" x1="228.83" y1="297.84" x2="340.52" y2="297.84"></line><line class="cls-21" x1="228.83" y1="293.42" x2="340.52" y2="293.42"></line><line class="cls-21" x1="228.83" y1="289" x2="340.52" y2="289"></line><line class="cls-21" x1="228.83" y1="284.58" x2="340.52" y2="284.58"></line><line class="cls-21" x1="228.83" y1="280.17" x2="340.52" y2="280.17"></line><line class="cls-21" x1="228.83" y1="275.75" x2="340.52" y2="275.75"></line><line class="cls-21" x1="228.83" y1="271.33" x2="340.52" y2="271.33"></line><line class="cls-21" x1="228.83" y1="266.91" x2="340.52" y2="266.91"></line><line class="cls-21" x1="228.83" y1="262.49" x2="340.52" y2="262.49"></line><line class="cls-21" x1="228.83" y1="258.08" x2="340.52" y2="258.08"></line><line class="cls-21" x1="228.83" y1="253.66" x2="340.52" y2="253.66"></line><line class="cls-21" x1="228.83" y1="249.24" x2="340.52" y2="249.24"></line><path class="cls-22" d="M230.84,308.82h.85v.2h-.62v.38h.5v.2h-.5V310h.66v.2h-.89Z"></path><path class="cls-22" d="M232.43,310.05h0v.12h-.2v-1.4h.21v.58h0a.38.38,0,0,1,.3-.12.48.48,0,0,1,0,1A.36.36,0,0,1,232.43,310.05Zm.54-.34a.27.27,0,0,0-.27-.29.27.27,0,0,0-.27.29.27.27,0,0,0,.27.28A.26.26,0,0,0,233,309.71Z"></path><path class="cls-22" d="M233.49,309.71a.45.45,0,0,1,.45-.48.35.35,0,0,1,.29.13h0v-.11h.22v.93h-.21v-.12h0a.36.36,0,0,1-.3.14A.44.44,0,0,1,233.49,309.71Zm.75,0a.27.27,0,0,0-.26-.29.27.27,0,0,0-.27.29.26.26,0,0,0,.27.28A.26.26,0,0,0,234.24,309.71Z"></path><path class="cls-22" d="M234.91,310.12l-.39-.88h.23l.26.62h0l.24-.62h.22l-.51,1.31h-.22Z"></path><path class="cls-22" d="M240.6,309.5a.65.65,0,0,1,.68-.7.7.7,0,0,1,.53.26l-.17.14a.45.45,0,0,0-.36-.18.48.48,0,0,0,0,1,.45.45,0,0,0,.36-.19l.17.15a.66.66,0,0,1-.53.25A.65.65,0,0,1,240.6,309.5Z"></path><path class="cls-22" d="M242.16,309.24h.21v.14h0a.34.34,0,0,1,.29-.15h0v.24h-.06a.25.25,0,0,0-.26.27v.44h-.21Z"></path><path class="cls-22" d="M243,309.71a.45.45,0,0,1,.45-.48.35.35,0,0,1,.29.13h0v-.11h.22v.93h-.21v-.12h0a.36.36,0,0,1-.3.14A.44.44,0,0,1,243,309.71Zm.75,0a.27.27,0,0,0-.26-.29.27.27,0,0,0-.27.29.26.26,0,0,0,.27.28A.26.26,0,0,0,243.7,309.71Z"></path><path class="cls-22" d="M244.29,309a.14.14,0,0,1,.14-.14.14.14,0,1,1,0,.28A.14.14,0,0,1,244.29,309Zm0,.28h.21v.93h-.21Z"></path><path class="cls-22" d="M245,310.47l.05-.19a.63.63,0,0,0,.32.09c.18,0,.27-.1.27-.23V310h0a.4.4,0,0,1-.28.12.45.45,0,0,1-.46-.46.44.44,0,0,1,.44-.47.42.42,0,0,1,.29.11h0v-.1h.21v.84a.42.42,0,0,1-.47.48A.76.76,0,0,1,245,310.47Zm.65-.78a.26.26,0,0,0-.27-.27.25.25,0,0,0-.26.27.25.25,0,0,0,.26.27A.26.26,0,0,0,245.66,309.69Z"></path><path class="cls-22" d="M246.19,310.05l.11-.16a.35.35,0,0,0,.27.11c.08,0,.13,0,.13-.09s-.07-.07-.19-.11-.28-.13-.28-.31.14-.26.33-.26a.5.5,0,0,1,.32.11l-.1.17a.36.36,0,0,0-.24-.1s-.1,0-.1.08.06.08.15.12.32.11.32.3-.11.28-.34.28A.56.56,0,0,1,246.19,310.05Z"></path><path class="cls-22" d="M247.28,308.77h.21v1.4h-.21Z"></path><path class="cls-22" d="M247.9,309a.14.14,0,0,1,.14-.14.14.14,0,1,1,0,.28A.14.14,0,0,1,247.9,309Zm0,.28h.21v.93h-.21Z"></path><path class="cls-22" d="M248,310.05l.1-.16a.39.39,0,0,0,.27.11c.09,0,.13,0,.13-.09s-.06-.07-.18-.11-.28-.13-.28-.31.13-.26.32-.26a.51.51,0,0,1,.33.11l-.11.17a.34.34,0,0,0-.23-.1s-.1,0-.1.08.06.08.15.12.32.11.32.3-.11.28-.35.28A.51.51,0,0,1,248,310.05Z"></path><path class="cls-22" d="M249.23,309.88v-.46h-.11v-.18h.11v-.31l.22,0v.33h.27v.18h-.27v.44c0,.09,0,.13.09.13l.13,0,.06.18a.46.46,0,0,1-.24.06C249.33,310.19,249.23,310.09,249.23,309.88Z"></path><path class="cls-22" d="M253.08,308.82h.23l.5,1.35h-.24l-.1-.29h-.55l-.1.29h-.24Zm.32.86-.2-.59h0l-.2.59Z"></path><path class="cls-22" d="M254.09,309.24h.21v.13h0a.4.4,0,0,1,.29-.14.29.29,0,0,1,.28.15h0a.42.42,0,0,1,.34-.15c.2,0,.32.13.32.4v.54h-.21v-.48c0-.17,0-.27-.18-.27s-.22.11-.22.29v.46h-.21v-.48c0-.17-.06-.27-.19-.27s-.22.11-.22.29v.46h-.21Z"></path><path class="cls-22" d="M255.88,309.71a.45.45,0,0,1,.45-.48.35.35,0,0,1,.29.13h0v-.11h.21v.93h-.2v-.12h0a.33.33,0,0,1-.29.14A.44.44,0,0,1,255.88,309.71Zm.75,0a.27.27,0,0,0-.27-.29.26.26,0,0,0-.26.29.26.26,0,0,0,.26.28A.27.27,0,0,0,256.63,309.71Z"></path><path class="cls-22" d="M257.18,310l.48-.59h-.45v-.18H258v.15l-.48.6h.47v.18h-.76Z"></path><path class="cls-22" d="M258.26,309.71a.49.49,0,1,1,.49.48A.46.46,0,0,1,258.26,309.71Zm.76,0a.27.27,0,0,0-.27-.29.29.29,0,1,0,.27.29Z"></path><path class="cls-22" d="M259.32,309.24h.21v.13h0a.41.41,0,0,1,.31-.14c.21,0,.34.11.34.39v.55H260v-.49c0-.2-.07-.26-.2-.26s-.24.1-.24.28v.47h-.21Z"></path><path class="cls-22" d="M266.76,309h-.38v-.2h1v.2H267v1.15h-.23Z"></path><path class="cls-22" d="M267.67,309a.14.14,0,0,1,.14-.14.14.14,0,1,1,0,.28A.14.14,0,0,1,267.67,309Zm0,.28h.21v.93h-.21Z"></path><path class="cls-22" d="M268.24,309.81v-.57h.22v.51c0,.19.05.24.18.24s.24-.1.24-.3v-.45h.21v.93h-.21v-.11h0a.35.35,0,0,1-.28.14C268.38,310.19,268.24,310.08,268.24,309.81Z"></path><path class="cls-22" d="M275.52,310l.14-.17a.49.49,0,0,0,.35.17c.15,0,.22-.06.22-.16s-.09-.16-.26-.22-.41-.16-.41-.41a.41.41,0,0,1,.43-.38.72.72,0,0,1,.45.17l-.14.18A.53.53,0,0,0,276,309a.17.17,0,0,0-.19.16c0,.1.09.13.25.19s.42.16.42.42a.43.43,0,0,1-.46.41A.66.66,0,0,1,275.52,310Z"></path><path class="cls-22" d="M277,308.77h.22v.59h0a.4.4,0,0,1,.31-.13c.21,0,.35.11.35.38v.56h-.21v-.5c0-.18-.08-.25-.2-.25s-.25.1-.25.28v.47H277Z"></path><path class="cls-22" d="M278.22,309.71a.49.49,0,1,1,.49.48A.46.46,0,0,1,278.22,309.71Zm.76,0a.28.28,0,1,0-.55,0,.28.28,0,1,0,.55,0Z"></path><path class="cls-22" d="M279.56,309.24h.21v.11h0a.38.38,0,0,1,.3-.12.48.48,0,0,1,0,1,.38.38,0,0,1-.29-.13h0v.49h-.21Zm.74.47a.27.27,0,0,0-.27-.29.27.27,0,0,0-.27.29.27.27,0,0,0,.27.28A.26.26,0,0,0,280.3,309.71Z"></path><path class="cls-22" d="M281.72,309.78H281a.26.26,0,0,0,.28.21.28.28,0,0,0,.23-.11l.15.13a.49.49,0,1,1-.41-.78.43.43,0,0,1,.44.47A.19.19,0,0,1,281.72,309.78Zm-.67-.17h.46a.22.22,0,0,0-.22-.19A.24.24,0,0,0,281.05,309.61Z"></path><path class="cls-22" d="M282.64,309.78H282a.26.26,0,0,0,.28.21.28.28,0,0,0,.23-.11l.15.13a.49.49,0,1,1-.41-.78.43.43,0,0,1,.44.47A.19.19,0,0,1,282.64,309.78Zm-.67-.17h.46a.22.22,0,0,0-.22-.19A.24.24,0,0,0,282,309.61Z"></path><path class="cls-22" d="M287,308.82h.23l.44.81h0l.44-.81h.23v1.35h-.23v-.9h0l-.37.64h-.15l-.37-.64h0v.9H287Z"></path><path class="cls-22" d="M289.65,309.78H289a.26.26,0,0,0,.28.21.28.28,0,0,0,.23-.11l.15.13a.49.49,0,1,1-.41-.78.43.43,0,0,1,.44.47A.19.19,0,0,1,289.65,309.78Zm-.67-.17h.46a.22.22,0,0,0-.22-.19A.24.24,0,0,0,289,309.61Z"></path><path class="cls-22" d="M290,309.24h.21v.14h0a.33.33,0,0,1,.28-.15h0v.24h-.06a.25.25,0,0,0-.26.27v.44H290Z"></path><path class="cls-22" d="M290.81,309.71a.46.46,0,0,1,.48-.48.54.54,0,0,1,.4.17l-.15.13a.29.29,0,0,0-.51.18.26.26,0,0,0,.28.28.27.27,0,0,0,.23-.11l.15.13a.48.48,0,0,1-.4.18A.46.46,0,0,1,290.81,309.71Z"></path><path class="cls-22" d="M292,309.71a.46.46,0,0,1,.45-.48.35.35,0,0,1,.29.13h0v-.11h.21v.93h-.21v-.12h0a.36.36,0,0,1-.29.14A.45.45,0,0,1,292,309.71Zm.75,0a.27.27,0,0,0-.26-.29.27.27,0,0,0-.27.29.26.26,0,0,0,.27.28A.26.26,0,0,0,292.71,309.71Z"></path><path class="cls-22" d="M293.33,309.24h.21v.14h0a.36.36,0,0,1,.29-.15h0v.24h-.07a.25.25,0,0,0-.25.27v.44h-.21Z"></path><path class="cls-22" d="M293.73,309a.15.15,0,0,1,.15-.14.14.14,0,0,1,0,.28A.15.15,0,0,1,293.73,309Zm0,.28H294v.93h-.21Z"></path><path class="cls-22" d="M296.23,308.82h.23l.45.81h0l.45-.81h.23v1.35h-.23v-.9h0l-.37.64h-.16l-.37-.64h0v.9h-.23Z"></path><path class="cls-22" d="M298.88,309.78h-.68a.26.26,0,0,0,.27.21.31.31,0,0,0,.24-.11l.15.13a.48.48,0,0,1-.4.18.46.46,0,0,1-.48-.48.45.45,0,0,1,.47-.48.43.43,0,0,1,.44.47S298.88,309.76,298.88,309.78Zm-.68-.17h.47a.22.22,0,0,0-.22-.19A.26.26,0,0,0,298.2,309.61Z"></path><path class="cls-22" d="M299.25,309.24h.21v.14h0a.36.36,0,0,1,.29-.15h0v.24h-.07a.25.25,0,0,0-.25.27v.44h-.21Z"></path><path class="cls-22" d="M300,309.71a.46.46,0,0,1,.48-.48.51.51,0,0,1,.39.17l-.14.13a.3.3,0,0,0-.24-.11.27.27,0,0,0-.27.29.26.26,0,0,0,.27.28.28.28,0,0,0,.24-.11l.14.13a.45.45,0,0,1-.4.18A.46.46,0,0,1,300,309.71Z"></path><path class="cls-22" d="M301.19,309.71a.46.46,0,0,1,.45-.48.37.37,0,0,1,.3.13h0v-.59h.21v1.4H302v-.12h0a.37.37,0,0,1-.31.14A.45.45,0,0,1,301.19,309.71Zm.76,0a.27.27,0,0,0-.27-.29.27.27,0,0,0-.27.29.26.26,0,0,0,.27.28A.27.27,0,0,0,302,309.71Z"></path><path class="cls-22" d="M302.51,309.71a.46.46,0,0,1,.49-.48.46.46,0,0,1,.49.48.46.46,0,0,1-.49.48A.47.47,0,0,1,302.51,309.71Zm.76,0a.27.27,0,0,0-.27-.29.27.27,0,0,0-.27.29.27.27,0,1,0,.54,0Z"></path><path class="cls-22" d="M303.87,308.77h.21v1.4h-.21Z"></path><path class="cls-22" d="M304.49,309a.14.14,0,0,1,.14-.14.14.14,0,1,1,0,.28A.14.14,0,0,1,304.49,309Zm0,.28h.21v.93h-.21Z"></path><path class="cls-22" d="M305.38,310.05h0v.12h-.2v-1.4h.21v.58h0a.41.41,0,0,1,.3-.12.45.45,0,0,1,.45.48.44.44,0,0,1-.45.48A.35.35,0,0,1,305.38,310.05Zm.53-.34a.27.27,0,0,0-.27-.29.27.27,0,0,0-.27.29.27.27,0,0,0,.28.28A.26.26,0,0,0,305.91,309.71Z"></path><path class="cls-22" d="M306.49,309.24h.22v.14h0a.35.35,0,0,1,.29-.15h0v.24H307a.25.25,0,0,0-.25.27v.44h-.22Z"></path><path class="cls-22" d="M307.36,309.78h-.68a.26.26,0,0,0,.28.21.28.28,0,0,0,.23-.11l.15.13a.48.48,0,0,1-.4.18.48.48,0,0,1,0-1,.43.43,0,0,1,.44.47S307.36,309.76,307.36,309.78Zm-.67-.17h.46a.22.22,0,0,0-.22-.19A.24.24,0,0,0,306.69,309.61Z"></path><path class="cls-22" d="M310.78,308.82h.49a.41.41,0,0,1,.47.44c0,.29-.2.43-.49.43H311v.48h-.23Zm.44.66c.19,0,.28-.09.28-.23s-.09-.23-.26-.23H311v.46Z"></path><path class="cls-22" d="M312.17,309.24h.21v.14h0a.34.34,0,0,1,.29-.15h0v.24h-.06a.25.25,0,0,0-.26.27v.44h-.21Z"></path><path class="cls-22" d="M313,309.71a.46.46,0,0,1,.49-.48.46.46,0,0,1,.49.48.46.46,0,0,1-.49.48A.47.47,0,0,1,313,309.71Zm.76,0a.27.27,0,1,0-.54,0,.27.27,0,1,0,.54,0Z"></path><path class="cls-22" d="M314.15,309.24h.21v.13h0a.4.4,0,0,1,.29-.14.29.29,0,0,1,.28.15h0a.39.39,0,0,1,.33-.15c.2,0,.33.13.33.4v.54h-.22v-.48c0-.17-.05-.27-.18-.27s-.22.11-.22.29v.46h-.21v-.48c0-.17-.06-.27-.18-.27s-.23.11-.23.29v.46h-.21Z"></path><path class="cls-22" d="M321.43,308.82h.22l.51,1.35h-.24l-.11-.29h-.55l-.1.29h-.24Zm.32.86-.21-.59h0l-.21.59Z"></path><path class="cls-22" d="M322.44,308.77h.22v1.4h-.22Z"></path><path class="cls-22" d="M323.07,309a.14.14,0,1,1,.14.14A.14.14,0,0,1,323.07,309Zm0,.28h.22v.93h-.22Z"></path><path class="cls-22" d="M324,310.05h0v.12h-.2v-1.4H324v.58h0a.41.41,0,0,1,.3-.12.45.45,0,0,1,.45.48.44.44,0,0,1-.45.48A.37.37,0,0,1,324,310.05Zm.54-.34a.27.27,0,0,0-.27-.29.27.27,0,0,0-.27.29.27.27,0,0,0,.27.28A.26.26,0,0,0,324.49,309.71Z"></path><path class="cls-22" d="M325,309.71a.46.46,0,0,1,.45-.48.35.35,0,0,1,.29.13h0v-.11H326v.93h-.21v-.12h0a.36.36,0,0,1-.3.14A.45.45,0,0,1,325,309.71Zm.75,0a.27.27,0,0,0-.26-.29.27.27,0,0,0-.27.29.26.26,0,0,0,.27.28A.26.26,0,0,0,325.76,309.71Z"></path><path class="cls-22" d="M326.58,310.05h0v.12h-.2v-1.4h.21v.58h0a.38.38,0,0,1,.3-.12.48.48,0,0,1,0,1A.36.36,0,0,1,326.58,310.05Zm.54-.34a.27.27,0,0,0-.27-.29.27.27,0,0,0-.27.29.27.27,0,0,0,.27.28A.26.26,0,0,0,327.12,309.71Z"></path><path class="cls-22" d="M327.11,309.71a.45.45,0,0,1,.45-.48.33.33,0,0,1,.28.13h0v-.11h.21v.93h-.2v-.12h0a.33.33,0,0,1-.29.14A.44.44,0,0,1,327.11,309.71Zm.75,0a.28.28,0,0,0-.27-.29.26.26,0,0,0-.26.29.25.25,0,0,0,.26.28A.27.27,0,0,0,327.86,309.71Z"></path><path class="cls-22" d="M331.8,308.82h.48c.27,0,.44.11.44.33a.31.31,0,0,1-.2.3h0a.33.33,0,0,1,.27.34c0,.22-.15.37-.45.37h-.54Zm.46.56c.13,0,.22-.05.22-.18s-.07-.18-.23-.18H332v.36Zm.05.59c.15,0,.23-.07.23-.19s-.08-.2-.26-.2H332V310Z"></path><path class="cls-22" d="M333.14,309.71a.46.46,0,0,1,.49-.48.46.46,0,0,1,.49.48.47.47,0,0,1-.49.48A.46.46,0,0,1,333.14,309.71Zm.76,0a.27.27,0,0,0-.27-.29.29.29,0,1,0,.27.29Z"></path><path class="cls-22" d="M334.48,309.24h.21v.13h0a.42.42,0,0,1,.32-.14c.2,0,.34.11.34.39v.55h-.22v-.49c0-.2-.07-.26-.2-.26s-.24.1-.24.28v.47h-.21Z"></path><path class="cls-22" d="M335.69,309.71a.45.45,0,0,1,.45-.48.35.35,0,0,1,.29.13h0v-.11h.21v.93h-.2v-.12h0a.36.36,0,0,1-.3.14A.44.44,0,0,1,335.69,309.71Zm.75,0a.27.27,0,0,0-.27-.29.27.27,0,0,0-.26.29.26.26,0,0,0,.26.28A.27.27,0,0,0,336.44,309.71Z"></path><path class="cls-22" d="M337.05,309.24h.22v.13h0a.41.41,0,0,1,.31-.14c.21,0,.34.11.34.39v.55h-.21v-.49c0-.2-.08-.26-.2-.26s-.24.1-.24.28v.47h-.22Z"></path><path class="cls-22" d="M337.94,310l.48-.59H338v-.18h.74v.15l-.48.6h.47v.18h-.76Z"></path><path class="cls-22" d="M339,309.71a.45.45,0,0,1,.45-.48.35.35,0,0,1,.29.13h0v-.11H340v.93h-.21v-.12h0a.36.36,0,0,1-.3.14A.44.44,0,0,1,339,309.71Zm.75,0a.27.27,0,0,0-.26-.29.27.27,0,0,0-.27.29.26.26,0,0,0,.27.28A.26.26,0,0,0,339.79,309.71Z"></path><g class="cls-5"><path class="cls-23" d="M237.75,307.17h-5.53a.42.42,0,0,1-.43-.42v-1.62a.43.43,0,0,1,.43-.43h5.53a.42.42,0,0,1,.42.43v1.62a.42.42,0,0,1-.42.42"></path><path class="cls-24" d="M237.77,307.17h-5.64a.37.37,0,0,1-.37-.37.38.38,0,0,1,.37-.37h5.64a.37.37,0,0,1,.37.37.36.36,0,0,1-.37.37"></path><path class="cls-23" d="M249.1,307.17h-5.54a.42.42,0,0,1-.42-.42V254.64a.42.42,0,0,1,.42-.42h5.54a.42.42,0,0,1,.42.42v52.11a.42.42,0,0,1-.42.42"></path><path class="cls-24" d="M249.07,307.17h-5.54a.42.42,0,0,1-.42-.42v-15a.42.42,0,0,1,.42-.43h5.54a.42.42,0,0,1,.42.43v15a.42.42,0,0,1-.42.42"></path><path class="cls-23" d="M260.43,307.17H254.9a.42.42,0,0,1-.43-.42v-1a.43.43,0,0,1,.43-.43h5.53a.42.42,0,0,1,.42.43v1a.42.42,0,0,1-.42.42"></path><path class="cls-24" d="M260.52,307.17h-5.75a.31.31,0,0,1-.31-.31v-.62a.31.31,0,0,1,.31-.32h5.75a.32.32,0,0,1,.32.32v.62a.32.32,0,0,1-.32.31"></path><path class="cls-23" d="M283.12,307.17h-5.53a.42.42,0,0,1-.42-.42v-1a.42.42,0,0,1,.42-.43h5.53a.43.43,0,0,1,.43.43v1a.42.42,0,0,1-.43.42"></path><path class="cls-24" d="M283.21,307.17h-5.74a.31.31,0,0,1-.32-.31v-.62a.32.32,0,0,1,.32-.32h5.74a.32.32,0,0,1,.32.32v.62a.31.31,0,0,1-.32.31"></path><path class="cls-23" d="M271.79,307.17h-5.53a.42.42,0,0,1-.43-.42v-1.27a.42.42,0,0,1,.43-.42h5.53a.42.42,0,0,1,.42.42v1.27a.42.42,0,0,1-.42.42"></path><path class="cls-24" d="M271.87,307.17h-5.75a.32.32,0,0,1-.32-.31V306a.32.32,0,0,1,.32-.31h5.75a.31.31,0,0,1,.31.31v.83a.31.31,0,0,1-.31.31"></path><path class="cls-23" d="M294.48,307.17H289a.42.42,0,0,1-.42-.42V285.57a.42.42,0,0,1,.42-.42h5.53a.42.42,0,0,1,.43.42v21.18a.42.42,0,0,1-.43.42"></path><path class="cls-24" d="M294.45,307.17h-5.53a.42.42,0,0,1-.42-.42V301a.42.42,0,0,1,.42-.42h5.53a.42.42,0,0,1,.43.42v5.75a.42.42,0,0,1-.43.42"></path><path class="cls-23" d="M339.87,307.17h-5.53a.42.42,0,0,1-.42-.42v-1.62a.42.42,0,0,1,.42-.43h5.53a.43.43,0,0,1,.43.43v1.62a.42.42,0,0,1-.43.42"></path><path class="cls-24" d="M339.9,307.17h-5.64a.36.36,0,0,1-.37-.37.37.37,0,0,1,.37-.37h5.64a.38.38,0,0,1,.37.37.37.37,0,0,1-.37.37"></path><path class="cls-23" d="M305.83,307.17H300.3a.42.42,0,0,1-.42-.42v-35a.42.42,0,0,1,.42-.42h5.53a.42.42,0,0,1,.43.42v35a.42.42,0,0,1-.43.42"></path><path class="cls-24" d="M305.8,307.17h-5.53a.42.42,0,0,1-.42-.42v-9.89a.42.42,0,0,1,.42-.42h5.53a.42.42,0,0,1,.43.42v9.89a.42.42,0,0,1-.43.42"></path><path class="cls-23" d="M317.16,307.17h-5.53a.42.42,0,0,1-.42-.42v-1a.42.42,0,0,1,.42-.43h5.53a.43.43,0,0,1,.43.43v1a.42.42,0,0,1-.43.42"></path><path class="cls-24" d="M317.26,307.17h-5.75a.32.32,0,0,1-.32-.31v-.62a.32.32,0,0,1,.32-.32h5.75a.31.31,0,0,1,.31.32v.62a.31.31,0,0,1-.31.31"></path><path class="cls-23" d="M328.53,307.17H323a.42.42,0,0,1-.42-.42v-1.27a.42.42,0,0,1,.42-.42h5.54a.42.42,0,0,1,.42.42v1.27a.42.42,0,0,1-.42.42"></path><path class="cls-24" d="M328.6,307.17h-5.74a.31.31,0,0,1-.32-.31V306a.31.31,0,0,1,.32-.31h5.74a.31.31,0,0,1,.32.31v.83a.31.31,0,0,1-.32.31"></path></g><g class="cls-25"><path class="cls-6" d="M244.28,271.27l-.24.18-.1-.17.38-.28h.18v1.32h-.22Z"></path><path class="cls-6" d="M244.86,272.05l.19-.08a.24.24,0,0,0,.26.15.2.2,0,0,0,.22-.19c0-.1-.08-.2-.25-.2h-.09v-.18h.12a.18.18,0,0,0,.19-.18.18.18,0,0,0-.2-.17.24.24,0,0,0-.22.11l-.17-.1a.41.41,0,0,1,.4-.22.37.37,0,0,1,.41.35.33.33,0,0,1-.17.29h0a.35.35,0,0,1,.21.32.4.4,0,0,1-.44.37A.47.47,0,0,1,244.86,272.05Z"></path><path class="cls-6" d="M247,271.51a.84.84,0,0,1-.69.85l-.07-.18a.69.69,0,0,0,.5-.4h0a.5.5,0,0,1-.27.07.39.39,0,0,1-.4-.42.43.43,0,0,1,.46-.43A.48.48,0,0,1,247,271.51Zm-.47.13a.35.35,0,0,0,.26-.13v0a.27.27,0,0,0-.25-.29.23.23,0,0,0-.25.22A.22.22,0,0,0,246.54,271.64Z"></path><path class="cls-6" d="M248.54,271.9a.43.43,0,0,1-.46.43.48.48,0,0,1-.47-.53.83.83,0,0,1,.68-.84l.07.19a.66.66,0,0,0-.49.39h0a.44.44,0,0,1,.26-.07A.38.38,0,0,1,248.54,271.9Zm-.22,0a.22.22,0,0,0-.24-.22.35.35,0,0,0-.26.13v0a.28.28,0,0,0,.27.29A.22.22,0,0,0,248.32,271.9Z"></path></g><g class="cls-26"><path class="cls-6" d="M245.54,300.16a.44.44,0,0,1-.47.43.48.48,0,0,1-.46-.53.82.82,0,0,1,.68-.83l.07.18a.67.67,0,0,0-.49.4h0a.48.48,0,0,1,.26-.07A.4.4,0,0,1,245.54,300.16Zm-.22,0a.22.22,0,0,0-.24-.22.35.35,0,0,0-.26.13v0a.28.28,0,0,0,.27.3A.23.23,0,0,0,245.32,300.16Z"></path><path class="cls-6" d="M246.63,299.27v.14l-.48,1.19-.22,0,.45-1.09h-.56v-.2Z"></path><path class="cls-6" d="M247.93,299.77a.84.84,0,0,1-.69.85l-.07-.18a.73.73,0,0,0,.5-.4h0a.44.44,0,0,1-.26.07.38.38,0,0,1-.4-.42.43.43,0,0,1,.46-.43A.48.48,0,0,1,247.93,299.77Zm-.47.13a.31.31,0,0,0,.25-.13v0a.26.26,0,0,0-.24-.29.23.23,0,0,0-.25.22A.22.22,0,0,0,247.46,299.9Z"></path></g><g class="cls-27"><path class="cls-6" d="M301.07,284.68l-.24.18-.1-.16.38-.28h.18v1.31h-.22Z"></path><path class="cls-6" d="M302.17,284.68l-.24.18-.1-.16.38-.28h.18v1.31h-.22Z"></path><path class="cls-6" d="M303.71,284.92a.86.86,0,0,1-.69.86l-.07-.19a.65.65,0,0,0,.5-.4h0a.6.6,0,0,1-.27.07.4.4,0,0,1-.4-.43.43.43,0,0,1,.46-.42A.47.47,0,0,1,303.71,284.92Zm-.47.13a.35.35,0,0,0,.26-.13h0a.27.27,0,0,0-.25-.3.23.23,0,0,0-.25.23A.21.21,0,0,0,303.24,285.05Z"></path><path class="cls-6" d="M305.23,285.32a.43.43,0,0,1-.47.42.48.48,0,0,1-.47-.52.83.83,0,0,1,.69-.84l.07.18a.67.67,0,0,0-.49.4h0a.59.59,0,0,1,.26-.07A.4.4,0,0,1,305.23,285.32Zm-.22,0a.23.23,0,0,0-.24-.22.36.36,0,0,0-.26.14h0a.28.28,0,0,0,.27.3A.23.23,0,0,0,305,285.31Z"></path></g><g class="cls-28"><path class="cls-6" d="M301.88,302.41h-.57v-.15l.61-.94h.18v.9h.18v.19h-.18v.22h-.22Zm0-.19v-.52l-.33.52Z"></path><path class="cls-6" d="M303.46,302.21a.43.43,0,0,1-.46.44.59.59,0,0,1-.45-.21l.16-.13a.35.35,0,0,0,.27.14.24.24,0,0,0,.26-.24A.24.24,0,0,0,303,302a.34.34,0,0,0-.22.07l-.12,0,0-.69h.71v.21h-.5l0,.29.17,0A.4.4,0,0,1,303.46,302.21Z"></path><path class="cls-6" d="M304.62,302.21a.43.43,0,0,1-.46.44.59.59,0,0,1-.45-.21l.17-.13a.31.31,0,0,0,.26.14.24.24,0,0,0,.26-.24.24.24,0,0,0-.25-.23.36.36,0,0,0-.22.07l-.12,0,0-.69h.71v.21h-.5l0,.29.17,0A.4.4,0,0,1,304.62,302.21Z"></path></g><g class="cls-29"><path class="cls-6" d="M290.62,291.9H290v-.15l.61-.94h.19v.9H291v.19h-.18v.22h-.22Zm0-.19v-.52l-.32.52Z"></path><path class="cls-6" d="M292.26,291.71a.44.44,0,0,1-.47.43.49.49,0,0,1-.47-.53.84.84,0,0,1,.68-.84l.07.19a.66.66,0,0,0-.49.39h0a.44.44,0,0,1,.26-.07A.39.39,0,0,1,292.26,291.71Zm-.22,0a.22.22,0,0,0-.25-.22.31.31,0,0,0-.25.13v0a.27.27,0,0,0,.26.29A.23.23,0,0,0,292,291.71Z"></path><path class="cls-6" d="M293.37,291.7a.43.43,0,0,1-.47.44.52.52,0,0,1-.44-.21l.16-.13a.31.31,0,0,0,.26.14.24.24,0,0,0,.26-.24.24.24,0,0,0-.25-.23.36.36,0,0,0-.22.07l-.12,0,0-.69h.71V291h-.5l0,.29.17,0A.4.4,0,0,1,293.37,291.7Z"></path></g><g class="cls-30"><path class="cls-6" d="M290,304.79l.19-.08a.24.24,0,0,0,.25.15c.13,0,.23-.07.23-.19s-.08-.2-.25-.2h-.1v-.18h.12a.17.17,0,0,0,.19-.18.17.17,0,0,0-.19-.17.23.23,0,0,0-.22.11l-.18-.1a.44.44,0,0,1,.4-.22.37.37,0,0,1,.42.35.32.32,0,0,1-.18.29h0a.34.34,0,0,1,.21.32.39.39,0,0,1-.43.37A.47.47,0,0,1,290,304.79Z"></path><path class="cls-6" d="M292.15,304.64a.43.43,0,0,1-.46.43.54.54,0,0,1-.45-.21l.16-.13a.33.33,0,0,0,.27.14.23.23,0,1,0,0-.46.31.31,0,0,0-.21.06l-.12,0,0-.69h.71V304h-.51v.29l.17,0A.4.4,0,0,1,292.15,304.64Z"></path><path class="cls-6" d="M293.25,303.74v.15l-.49,1.19-.22,0L293,304h-.57v-.21Z"></path></g><line class="cls-31" x1="230.85" y1="140.39" x2="230.85" y2="202.06"></line><line class="cls-31" x1="232.6" y1="140.39" x2="232.6" y2="202.06"></line><line class="cls-31" x1="234.36" y1="140.39" x2="234.36" y2="202.06"></line><line class="cls-31" x1="236.12" y1="140.39" x2="236.12" y2="202.06"></line><line class="cls-31" x1="237.88" y1="140.39" x2="237.88" y2="202.06"></line><line class="cls-31" x1="239.63" y1="140.39" x2="239.63" y2="202.06"></line><line class="cls-31" x1="241.39" y1="140.39" x2="241.39" y2="202.06"></line><line class="cls-31" x1="243.15" y1="140.39" x2="243.15" y2="202.06"></line><line class="cls-31" x1="244.91" y1="140.39" x2="244.91" y2="202.06"></line><line class="cls-31" x1="246.66" y1="140.39" x2="246.66" y2="202.06"></line><line class="cls-31" x1="248.42" y1="140.39" x2="248.42" y2="202.06"></line><line class="cls-31" x1="250.18" y1="140.39" x2="250.18" y2="202.06"></line><line class="cls-31" x1="251.93" y1="140.39" x2="251.93" y2="202.06"></line><line class="cls-31" x1="253.69" y1="140.39" x2="253.69" y2="202.06"></line><line class="cls-31" x1="255.45" y1="140.39" x2="255.45" y2="202.06"></line><line class="cls-31" x1="257.21" y1="140.39" x2="257.21" y2="202.06"></line><line class="cls-31" x1="258.96" y1="140.39" x2="258.96" y2="202.06"></line><line class="cls-31" x1="260.72" y1="140.39" x2="260.72" y2="202.06"></line><line class="cls-31" x1="262.48" y1="140.39" x2="262.48" y2="202.06"></line><line class="cls-31" x1="264.24" y1="140.39" x2="264.24" y2="202.06"></line><line class="cls-31" x1="265.99" y1="140.39" x2="265.99" y2="202.06"></line><line class="cls-31" x1="267.75" y1="140.39" x2="267.75" y2="202.06"></line><line class="cls-31" x1="269.51" y1="140.39" x2="269.51" y2="202.06"></line><line class="cls-31" x1="271.27" y1="140.39" x2="271.27" y2="202.06"></line><line class="cls-31" x1="273.02" y1="140.39" x2="273.02" y2="202.06"></line><line class="cls-31" x1="274.78" y1="140.39" x2="274.78" y2="202.06"></line><line class="cls-31" x1="276.54" y1="140.39" x2="276.54" y2="202.06"></line><line class="cls-31" x1="278.3" y1="140.39" x2="278.3" y2="202.06"></line><line class="cls-31" x1="280.05" y1="140.39" x2="280.05" y2="202.06"></line><line class="cls-31" x1="281.81" y1="140.39" x2="281.81" y2="202.06"></line><line class="cls-31" x1="283.57" y1="140.39" x2="283.57" y2="202.06"></line><line class="cls-31" x1="285.32" y1="140.39" x2="285.32" y2="202.06"></line><line class="cls-31" x1="287.08" y1="140.39" x2="287.08" y2="202.06"></line><line class="cls-31" x1="288.84" y1="140.39" x2="288.84" y2="202.06"></line><line class="cls-31" x1="290.6" y1="140.39" x2="290.6" y2="202.06"></line><line class="cls-31" x1="292.35" y1="140.39" x2="292.35" y2="202.06"></line><line class="cls-31" x1="294.11" y1="140.39" x2="294.11" y2="202.06"></line><line class="cls-31" x1="295.87" y1="140.39" x2="295.87" y2="202.06"></line><line class="cls-21" x1="224.59" y1="202.06" x2="342.12" y2="202.06"></line><line class="cls-21" x1="224.59" y1="197.2" x2="342.12" y2="197.2"></line><line class="cls-21" x1="224.59" y1="191.21" x2="342.12" y2="191.21"></line><line class="cls-21" x1="224.59" y1="186.13" x2="342.12" y2="186.13"></line><line class="cls-21" x1="224.59" y1="181.04" x2="342.12" y2="181.04"></line><line class="cls-21" x1="224.59" y1="175.96" x2="342.12" y2="175.96"></line><line class="cls-21" x1="224.59" y1="170.88" x2="342.12" y2="170.88"></line><line class="cls-21" x1="224.59" y1="165.8" x2="342.12" y2="165.8"></line><line class="cls-21" x1="224.59" y1="160.72" x2="342.12" y2="160.72"></line><line class="cls-21" x1="224.59" y1="155.64" x2="342.12" y2="155.64"></line><line class="cls-21" x1="224.59" y1="150.55" x2="342.12" y2="150.55"></line><line class="cls-21" x1="224.59" y1="145.47" x2="342.12" y2="145.47"></line><line class="cls-21" x1="224.59" y1="140.39" x2="342.12" y2="140.39"></line><g class="cls-5"><path class="cls-32" d="M230.85,202a.36.36,0,0,1-.37-.36V190.8a.37.37,0,1,1,.73,0v10.81a.36.36,0,0,1-.36.36"></path><path class="cls-32" d="M232.6,202a.36.36,0,0,1-.36-.36V188.2a.37.37,0,1,1,.73,0v13.41a.36.36,0,0,1-.37.36"></path><path class="cls-32" d="M234.36,202a.37.37,0,0,1-.37-.36v-14.9a.37.37,0,1,1,.74,0v14.9a.37.37,0,0,1-.37.36"></path><path class="cls-32" d="M236.12,202a.37.37,0,0,1-.37-.36V185.94a.37.37,0,0,1,.74,0v15.67a.37.37,0,0,1-.37.36"></path><path class="cls-32" d="M237.88,202a.36.36,0,0,1-.37-.36V185.53a.37.37,0,1,1,.73,0v16.08a.36.36,0,0,1-.36.36"></path><path class="cls-32" d="M239.63,202a.36.36,0,0,1-.36-.36V185.53a.37.37,0,1,1,.73,0v16.08a.36.36,0,0,1-.37.36"></path><path class="cls-32" d="M241.39,202a.37.37,0,0,1-.37-.36v-15.8a.37.37,0,1,1,.74,0v15.8a.37.37,0,0,1-.37.36"></path><path class="cls-32" d="M243.15,202a.37.37,0,0,1-.37-.36v-14.9a.37.37,0,0,1,.74,0v14.9a.37.37,0,0,1-.37.36"></path><path class="cls-32" d="M244.91,202a.36.36,0,0,1-.37-.36V188a.37.37,0,1,1,.73,0v13.58a.36.36,0,0,1-.36.36"></path><path class="cls-32" d="M246.66,202a.36.36,0,0,1-.36-.36V190.3a.37.37,0,1,1,.73,0v11.31a.36.36,0,0,1-.37.36"></path><path class="cls-32" d="M248.42,202a.37.37,0,0,1-.37-.36v-8.29a.37.37,0,1,1,.74,0v8.29a.37.37,0,0,1-.37.36"></path><path class="cls-32" d="M250.18,202a.37.37,0,0,1-.37-.36V196.2a.37.37,0,0,1,.74,0v5.41a.37.37,0,0,1-.37.36"></path><path class="cls-32" d="M251.94,202a.36.36,0,0,1-.37-.36V198a.37.37,0,1,1,.73,0v3.57a.36.36,0,0,1-.36.36"></path><path class="cls-32" d="M253.69,202a.36.36,0,0,1-.36-.36v-2.17a.37.37,0,1,1,.73,0v2.17a.36.36,0,0,1-.37.36"></path><path class="cls-32" d="M255.45,202a.37.37,0,0,1-.37-.36v-1.56a.37.37,0,1,1,.74,0v1.56a.37.37,0,0,1-.37.36"></path><path class="cls-32" d="M257.21,202a.36.36,0,0,1-.37-.36v-1.27a.37.37,0,0,1,.37-.37.38.38,0,0,1,.37.37v1.27a.37.37,0,0,1-.37.36"></path><path class="cls-32" d="M259,202a.36.36,0,0,1-.37-.36v-1a.37.37,0,1,1,.73,0v1a.36.36,0,0,1-.36.36"></path><path class="cls-32" d="M260.72,202a.36.36,0,0,1-.36-.36v-1.27a.37.37,0,1,1,.73,0v1.27a.36.36,0,0,1-.37.36"></path><path class="cls-32" d="M262.48,202a.37.37,0,0,1-.37-.36v-2a.37.37,0,1,1,.74,0v2a.37.37,0,0,1-.37.36"></path><path class="cls-32" d="M264.24,202a.36.36,0,0,1-.37-.36v-3.35a.36.36,0,0,1,.37-.36.37.37,0,0,1,.37.36v3.35a.37.37,0,0,1-.37.36"></path><path class="cls-32" d="M266,202a.36.36,0,0,1-.37-.36V196a.37.37,0,1,1,.73,0v5.66a.36.36,0,0,1-.36.36"></path><path class="cls-32" d="M267.75,202a.36.36,0,0,1-.36-.36v-8.5a.37.37,0,1,1,.73,0v8.5a.36.36,0,0,1-.37.36"></path><path class="cls-32" d="M269.51,202a.37.37,0,0,1-.37-.36v-12.9a.37.37,0,0,1,.74,0v12.9a.37.37,0,0,1-.37.36"></path><path class="cls-32" d="M271.27,202a.36.36,0,0,1-.37-.36v-18a.37.37,0,1,1,.73,0v18a.36.36,0,0,1-.36.36"></path><path class="cls-32" d="M273,202a.36.36,0,0,1-.36-.36V179.8a.37.37,0,1,1,.73,0v21.81a.36.36,0,0,1-.37.36"></path><path class="cls-32" d="M274.78,202a.37.37,0,0,1-.37-.36V177.87a.38.38,0,0,1,.37-.37.37.37,0,0,1,.37.37v23.74a.36.36,0,0,1-.37.36"></path><path class="cls-32" d="M276.54,202a.37.37,0,0,1-.37-.36V177.49a.37.37,0,0,1,.74,0v24.12a.37.37,0,0,1-.37.36"></path><path class="cls-32" d="M278.3,202a.36.36,0,0,1-.37-.36V178.05a.37.37,0,1,1,.73,0v23.56a.36.36,0,0,1-.36.36"></path><path class="cls-32" d="M280.05,202a.36.36,0,0,1-.36-.36v-21a.37.37,0,0,1,.73,0v21a.36.36,0,0,1-.37.36"></path><path class="cls-32" d="M281.81,202a.37.37,0,0,1-.37-.36V186.29a.38.38,0,0,1,.37-.37.37.37,0,0,1,.37.37v15.32a.36.36,0,0,1-.37.36"></path><path class="cls-32" d="M283.57,202a.37.37,0,0,1-.37-.36v-8.1a.37.37,0,0,1,.74,0v8.1a.37.37,0,0,1-.37.36"></path><path class="cls-32" d="M285.33,202a.36.36,0,0,1-.37-.36v-4.05a.37.37,0,1,1,.73,0v4.05a.36.36,0,0,1-.36.36"></path><path class="cls-32" d="M287.08,202a.36.36,0,0,1-.36-.36v-2.17a.37.37,0,1,1,.73,0v2.17a.36.36,0,0,1-.37.36"></path><path class="cls-32" d="M288.84,202a.37.37,0,0,1-.37-.36v-2a.37.37,0,1,1,.74,0v2a.37.37,0,0,1-.37.36"></path><path class="cls-32" d="M290.6,202a.37.37,0,0,1-.37-.36v-2.17a.37.37,0,0,1,.74,0v2.17a.37.37,0,0,1-.37.36"></path><path class="cls-32" d="M292.36,202a.36.36,0,0,1-.37-.36v-3.35a.37.37,0,0,1,.73,0v3.35a.36.36,0,0,1-.36.36"></path><path class="cls-32" d="M294.11,202a.36.36,0,0,1-.36-.36V195.7a.37.37,0,1,1,.73,0v5.91a.36.36,0,0,1-.37.36"></path><path class="cls-32" d="M295.87,202a.37.37,0,0,1-.37-.36V191.14a.37.37,0,0,1,.74,0v10.47a.37.37,0,0,1-.37.36"></path><line class="cls-31" x1="298.07" y1="140.39" x2="298.07" y2="202.06"></line><line class="cls-31" x1="299.83" y1="140.39" x2="299.83" y2="202.06"></line><line class="cls-31" x1="301.58" y1="140.39" x2="301.58" y2="202.06"></line><line class="cls-31" x1="303.34" y1="140.39" x2="303.34" y2="202.06"></line><line class="cls-31" x1="305.1" y1="140.39" x2="305.1" y2="202.06"></line><line class="cls-31" x1="306.85" y1="140.39" x2="306.85" y2="202.06"></line><line class="cls-31" x1="308.61" y1="140.39" x2="308.61" y2="202.06"></line><line class="cls-31" x1="310.37" y1="140.39" x2="310.37" y2="202.06"></line><line class="cls-31" x1="312.13" y1="140.39" x2="312.13" y2="202.06"></line><line class="cls-31" x1="313.88" y1="140.39" x2="313.88" y2="202.06"></line><line class="cls-31" x1="315.64" y1="140.39" x2="315.64" y2="202.06"></line><line class="cls-31" x1="317.4" y1="140.39" x2="317.4" y2="202.06"></line><line class="cls-31" x1="319.16" y1="140.39" x2="319.16" y2="202.06"></line><line class="cls-31" x1="320.91" y1="140.39" x2="320.91" y2="202.06"></line><line class="cls-31" x1="322.67" y1="140.39" x2="322.67" y2="202.06"></line><line class="cls-31" x1="324.43" y1="140.39" x2="324.43" y2="202.06"></line><line class="cls-31" x1="326.19" y1="140.39" x2="326.19" y2="202.06"></line><line class="cls-31" x1="327.94" y1="140.39" x2="327.94" y2="202.06"></line><line class="cls-31" x1="329.7" y1="140.39" x2="329.7" y2="202.06"></line><line class="cls-31" x1="331.46" y1="140.39" x2="331.46" y2="202.06"></line><path class="cls-32" d="M298.07,202a.36.36,0,0,1-.37-.36V188.2a.37.37,0,0,1,.37-.37.38.38,0,0,1,.37.37v13.41a.37.37,0,0,1-.37.36"></path><path class="cls-32" d="M299.83,202a.36.36,0,0,1-.37-.36v-14.9a.37.37,0,1,1,.73,0v14.9a.36.36,0,0,1-.36.36"></path><path class="cls-32" d="M301.58,202a.37.37,0,0,1-.37-.36V185.94a.38.38,0,0,1,.37-.37.37.37,0,0,1,.37.37v15.67a.36.36,0,0,1-.37.36"></path><path class="cls-32" d="M303.34,202a.37.37,0,0,1-.37-.36V185.53a.37.37,0,1,1,.74,0v16.08a.37.37,0,0,1-.37.36"></path><path class="cls-32" d="M305.1,202a.36.36,0,0,1-.37-.36V185.53a.37.37,0,1,1,.73,0v16.08a.36.36,0,0,1-.36.36"></path><path class="cls-32" d="M306.85,202a.36.36,0,0,1-.36-.36v-15.8a.37.37,0,1,1,.73,0v15.8a.36.36,0,0,1-.37.36"></path><path class="cls-32" d="M308.61,202a.37.37,0,0,1-.37-.36v-14.9a.38.38,0,0,1,.37-.37.37.37,0,0,1,.37.37v14.9a.36.36,0,0,1-.37.36"></path><path class="cls-32" d="M310.37,202a.37.37,0,0,1-.37-.36V188a.37.37,0,1,1,.74,0v13.58a.37.37,0,0,1-.37.36"></path><path class="cls-32" d="M312.13,202a.36.36,0,0,1-.37-.36V190.3a.37.37,0,1,1,.73,0v11.31a.36.36,0,0,1-.36.36"></path><path class="cls-32" d="M313.88,202a.36.36,0,0,1-.36-.36v-8.29a.37.37,0,1,1,.73,0v8.29a.36.36,0,0,1-.37.36"></path><path class="cls-32" d="M315.64,202a.37.37,0,0,1-.37-.36V196.2a.37.37,0,0,1,.74,0v5.41a.37.37,0,0,1-.37.36"></path><path class="cls-32" d="M317.4,202a.37.37,0,0,1-.37-.36V198a.37.37,0,1,1,.74,0v3.57a.37.37,0,0,1-.37.36"></path><path class="cls-32" d="M319.16,202a.36.36,0,0,1-.37-.36v-2.17a.37.37,0,1,1,.73,0v2.17a.36.36,0,0,1-.36.36"></path><path class="cls-32" d="M320.91,202a.36.36,0,0,1-.36-.36v-1.56a.37.37,0,1,1,.73,0v1.56a.36.36,0,0,1-.37.36"></path><path class="cls-32" d="M322.67,202a.37.37,0,0,1-.37-.36v-1.27a.37.37,0,1,1,.74,0v1.27a.37.37,0,0,1-.37.36"></path><path class="cls-32" d="M324.43,202a.37.37,0,0,1-.37-.36v-1a.37.37,0,1,1,.74,0v1a.37.37,0,0,1-.37.36"></path><path class="cls-32" d="M326.19,202a.36.36,0,0,1-.37-.36v-1.27a.37.37,0,1,1,.73,0v1.27a.36.36,0,0,1-.36.36"></path><path class="cls-32" d="M327.94,202a.36.36,0,0,1-.36-.36v-2a.37.37,0,1,1,.73,0v2a.36.36,0,0,1-.37.36"></path><path class="cls-32" d="M329.7,202a.37.37,0,0,1-.37-.36v-3.35a.37.37,0,0,1,.74,0v3.35a.37.37,0,0,1-.37.36"></path><path class="cls-32" d="M331.46,202a.37.37,0,0,1-.37-.36V196a.37.37,0,1,1,.74,0v5.66a.37.37,0,0,1-.37.36"></path><line class="cls-31" x1="332.99" y1="140.39" x2="332.99" y2="202.06"></line><line class="cls-31" x1="334.74" y1="140.39" x2="334.74" y2="202.06"></line><line class="cls-31" x1="336.5" y1="140.39" x2="336.5" y2="202.06"></line><line class="cls-31" x1="338.26" y1="140.39" x2="338.26" y2="202.06"></line><path class="cls-32" d="M333,202a.36.36,0,0,1-.37-.36v-1.27a.37.37,0,1,1,.73,0v1.27a.36.36,0,0,1-.36.36"></path><path class="cls-32" d="M334.74,202a.36.36,0,0,1-.36-.36v-2a.37.37,0,1,1,.73,0v2a.36.36,0,0,1-.37.36"></path><path class="cls-32" d="M336.5,202a.37.37,0,0,1-.37-.36v-3.35a.37.37,0,0,1,.74,0v3.35a.37.37,0,0,1-.37.36"></path><path class="cls-32" d="M338.26,202a.37.37,0,0,1-.37-.36V196a.37.37,0,1,1,.74,0v5.66a.37.37,0,0,1-.37.36"></path><line class="cls-31" x1="339.99" y1="140.39" x2="339.99" y2="202.06"></line><line class="cls-31" x1="341.75" y1="140.39" x2="341.75" y2="202.06"></line><path class="cls-32" d="M340,202a.36.36,0,0,1-.36-.36v-3.35a.37.37,0,0,1,.73,0v3.35a.36.36,0,0,1-.37.36"></path><path class="cls-32" d="M341.75,202a.37.37,0,0,1-.37-.36V196a.37.37,0,1,1,.74,0v5.66a.37.37,0,0,1-.37.36"></path></g><path class="cls-22" d="M125.94,217.36h.6a.91.91,0,0,1,1,.94.89.89,0,0,1-1,.94h-.61Zm.59,1.6a.63.63,0,0,0,.66-.66.62.62,0,0,0-.64-.65h-.29V219Z"></path><path class="cls-22" d="M129.3,218.69h-.94a.35.35,0,0,0,.38.3.37.37,0,0,0,.32-.15l.21.18a.69.69,0,0,1-1.22-.42.63.63,0,0,1,.65-.67.6.6,0,0,1,.61.65S129.3,218.67,129.3,218.69Zm-.94-.23H129a.3.3,0,0,0-.31-.26A.33.33,0,0,0,128.36,218.46Z"></path><path class="cls-22" d="M129.9,218.84v-.64h-.15V218h.15v-.43l.3,0V218h.38v.25h-.38v.61c0,.13,0,.18.13.18a.41.41,0,0,0,.19-.06l.07.26a.57.57,0,0,1-.32.08C130,219.27,129.9,219.12,129.9,218.84Z"></path><path class="cls-22" d="M132.29,218.69h-.95a.36.36,0,0,0,.38.3.39.39,0,0,0,.33-.15l.21.18a.64.64,0,0,1-.55.25.67.67,0,0,1,0-1.34.6.6,0,0,1,.61.65S132.29,218.67,132.29,218.69Zm-.94-.23H132a.31.31,0,0,0-.32-.26A.32.32,0,0,0,131.35,218.46Z"></path><path class="cls-22" d="M132.79,218.6a.64.64,0,0,1,.67-.67.72.72,0,0,1,.55.24l-.2.18a.43.43,0,0,0-.33-.15.38.38,0,0,0-.39.4.37.37,0,0,0,.39.39.41.41,0,0,0,.33-.15l.2.18a.66.66,0,0,1-.56.25A.64.64,0,0,1,132.79,218.6Z"></path><path class="cls-22" d="M134.57,218.84v-.64h-.16V218h.16v-.43l.3,0V218h.38v.25h-.38v.61c0,.13,0,.18.12.18a.41.41,0,0,0,.19-.06l.08.26a.63.63,0,0,1-.33.08C134.71,219.27,134.57,219.12,134.57,218.84Z"></path><path class="cls-22" d="M137,218.69H136a.35.35,0,0,0,.38.3.37.37,0,0,0,.32-.15l.21.18a.69.69,0,0,1-1.22-.42.63.63,0,0,1,.65-.67.6.6,0,0,1,.61.65S137,218.67,137,218.69Zm-.94-.23h.65a.3.3,0,0,0-.31-.26A.33.33,0,0,0,136,218.46Z"></path><path class="cls-22" d="M137.28,218.6a.63.63,0,0,1,.63-.67.51.51,0,0,1,.41.18h0v-.82h.3v2h-.29v-.17h0a.53.53,0,0,1-.42.2A.63.63,0,0,1,137.28,218.6Zm1.05,0a.38.38,0,1,0-.38.39A.36.36,0,0,0,138.33,218.6Z"></path><g class="cls-33"><path class="cls-7" d="M100,217.36h.31l.71,1.88h-.34l-.14-.4h-.77l-.14.4h-.34Zm.44,1.2-.28-.82h0l-.28.82Z"></path><path class="cls-7" d="M101.51,218.47v-1.11h.32v1.09c0,.3.16.51.43.51s.43-.19.43-.51v-1.09H103v1.11a.75.75,0,1,1-1.5,0Z"></path><path class="cls-7" d="M104.18,217.65h-.53v-.29H105v.29h-.54v1.59h-.32Z"></path><path class="cls-7" d="M105.55,218.3a1,1,0,1,1,1,1A.92.92,0,0,1,105.55,218.3Zm1.57,0a.62.62,0,0,0-.61-.66.63.63,0,0,0-.63.66.64.64,0,0,0,.63.67A.63.63,0,0,0,107.12,218.3Z"></path><path class="cls-7" d="M109.41,217.36h.32l.7,1.88h-.33l-.14-.4h-.77l-.15.4h-.33Zm.45,1.2-.29-.82h0l-.29.82Z"></path><path class="cls-7" d="M111,217.36h.32l.92,1.35h0v-1.35h.31v1.88h-.32l-.91-1.33h0v1.33H111Z"></path><path class="cls-7" d="M113.81,217.36h.32l.7,1.88h-.33l-.14-.4h-.77l-.14.4h-.34Zm.45,1.2-.29-.82h0l-.29.82Z"></path><path class="cls-7" d="M115.43,217.36h.32V219h.88v.28h-1.2Z"></path><path class="cls-7" d="M117.52,218.41l-.63-1h.36l.43.73h0l.42-.73h.37l-.63,1v.83h-.32Z"></path><path class="cls-7" d="M118.93,219l.93-1.34H119v-.29h1.31v.25l-.94,1.34h.94v.28h-1.35Z"></path><path class="cls-7" d="M121,217.36h1.19v.29h-.87v.52h.7v.28h-.7V219h.93v.28H121Z"></path></g><line class="cls-34" x1="99.73" y1="246.57" x2="189.39" y2="246.57"></line><line class="cls-34" x1="99.73" y1="243.2" x2="189.39" y2="243.2"></line><line class="cls-34" x1="99.73" y1="239.84" x2="189.39" y2="239.84"></line><line class="cls-34" x1="99.73" y1="236.48" x2="189.39" y2="236.48"></line><line class="cls-34" x1="99.73" y1="233.12" x2="189.39" y2="233.12"></line><line class="cls-34" x1="99.73" y1="230.15" x2="189.39" y2="230.15"></line><line class="cls-34" x1="99.73" y1="226.78" x2="189.39" y2="226.78"></line><line class="cls-34" x1="99.73" y1="250.54" x2="189.39" y2="250.54"></line><line class="cls-34" x1="99.73" y1="278.05" x2="189.39" y2="278.05"></line><line class="cls-34" x1="99.73" y1="274.68" x2="189.39" y2="274.68"></line><line class="cls-34" x1="99.73" y1="271.32" x2="189.39" y2="271.32"></line><line class="cls-34" x1="99.73" y1="267.96" x2="189.39" y2="267.96"></line><line class="cls-34" x1="99.73" y1="264.6" x2="189.39" y2="264.6"></line><line class="cls-34" x1="99.73" y1="261.24" x2="189.39" y2="261.24"></line><line class="cls-34" x1="99.73" y1="257.87" x2="189.39" y2="257.87"></line><line class="cls-34" x1="99.73" y1="254.51" x2="189.39" y2="254.51"></line><line class="cls-34" x1="99.73" y1="282.02" x2="189.39" y2="282.02"></line><line class="cls-34" x1="99.73" y1="302.8" x2="189.39" y2="302.8"></line><line class="cls-34" x1="99.73" y1="299.44" x2="189.39" y2="299.44"></line><line class="cls-34" x1="99.73" y1="292.72" x2="189.39" y2="292.72"></line><line class="cls-34" x1="99.73" y1="295.84" x2="189.39" y2="295.84"></line><line class="cls-34" x1="99.73" y1="289.35" x2="189.39" y2="289.35"></line><line class="cls-34" x1="99.73" y1="285.99" x2="189.39" y2="285.99"></line><g class="cls-5"><path class="cls-35" d="M104.43,302.71h-.66a.27.27,0,0,1-.27-.27V237.23a.27.27,0,0,1,.27-.27h.66a.27.27,0,0,1,.27.27v65.21a.27.27,0,0,1-.27.27"></path><path class="cls-35" d="M107.23,302.71h-.66a.27.27,0,0,1-.27-.27V281.32a.27.27,0,0,1,.27-.27h.66a.27.27,0,0,1,.27.27v21.12a.27.27,0,0,1-.27.27"></path><path class="cls-35" d="M110,302.71h-.67a.27.27,0,0,1-.26-.27V267.58a.26.26,0,0,1,.26-.26H110a.26.26,0,0,1,.26.26v34.86a.27.27,0,0,1-.26.27"></path><path class="cls-35" d="M112.65,302.71H112a.27.27,0,0,1-.27-.27V255.62a.27.27,0,0,1,.27-.27h.66a.27.27,0,0,1,.27.27v46.82a.27.27,0,0,1-.27.27"></path><path class="cls-35" d="M115.45,302.71h-.66a.27.27,0,0,1-.27-.27V281.32a.27.27,0,0,1,.27-.27h.66a.27.27,0,0,1,.27.27v21.12a.27.27,0,0,1-.27.27"></path><path class="cls-35" d="M118.26,302.71h-.66a.27.27,0,0,1-.27-.27V267.58a.27.27,0,0,1,.27-.26h.66a.27.27,0,0,1,.27.26v34.86a.27.27,0,0,1-.27.27"></path><path class="cls-35" d="M120.88,302.71h-.67a.27.27,0,0,1-.26-.27V243.63a.27.27,0,0,1,.26-.27h.67a.27.27,0,0,1,.26.27v58.81a.27.27,0,0,1-.26.27"></path><path class="cls-35" d="M123.67,302.71H123a.27.27,0,0,1-.27-.27V281.32a.27.27,0,0,1,.27-.27h.66a.27.27,0,0,1,.27.27v21.12a.27.27,0,0,1-.27.27"></path><path class="cls-35" d="M126.48,302.71h-.66a.27.27,0,0,1-.27-.27V267.58a.27.27,0,0,1,.27-.26h.66a.27.27,0,0,1,.27.26v34.86a.27.27,0,0,1-.27.27"></path><path class="cls-35" d="M129.1,302.71h-.66a.27.27,0,0,1-.27-.27V243.63a.27.27,0,0,1,.27-.27h.66a.27.27,0,0,1,.27.27v58.81a.27.27,0,0,1-.27.27"></path><path class="cls-35" d="M131.89,302.71h-.66a.27.27,0,0,1-.27-.27V281.32a.27.27,0,0,1,.27-.27h.66a.27.27,0,0,1,.27.27v21.12a.27.27,0,0,1-.27.27"></path><path class="cls-35" d="M134.7,302.71H134a.27.27,0,0,1-.27-.27V267.58a.27.27,0,0,1,.27-.26h.66a.27.27,0,0,1,.27.26v34.86a.27.27,0,0,1-.27.27"></path><path class="cls-35" d="M137.32,302.71h-.67a.27.27,0,0,1-.26-.27V228.87a.27.27,0,0,1,.26-.27h.67a.27.27,0,0,1,.27.27v73.57a.27.27,0,0,1-.27.27"></path><path class="cls-35" d="M140.11,302.71h-.66a.28.28,0,0,1-.27-.27V281.32a.28.28,0,0,1,.27-.27h.66a.27.27,0,0,1,.27.27v21.12a.27.27,0,0,1-.27.27"></path><path class="cls-35" d="M142.92,302.71h-.66a.27.27,0,0,1-.27-.27V267.58a.27.27,0,0,1,.27-.26h.66a.27.27,0,0,1,.27.26v34.86a.27.27,0,0,1-.27.27"></path><path class="cls-35" d="M145.54,302.71h-.66a.27.27,0,0,1-.27-.27V243.63a.27.27,0,0,1,.27-.27h.66a.27.27,0,0,1,.27.27v58.81a.27.27,0,0,1-.27.27"></path><path class="cls-35" d="M148.34,302.71h-.67a.27.27,0,0,1-.26-.27V281.32a.27.27,0,0,1,.26-.27h.67a.27.27,0,0,1,.26.27v21.12a.27.27,0,0,1-.26.27"></path><path class="cls-35" d="M151.14,302.71h-.66a.27.27,0,0,1-.27-.27V267.58a.27.27,0,0,1,.27-.26h.66a.27.27,0,0,1,.27.26v34.86a.27.27,0,0,1-.27.27"></path><path class="cls-35" d="M153.77,302.71h-.68a.27.27,0,0,1-.26-.27V228.87a.27.27,0,0,1,.26-.27h.68a.27.27,0,0,1,.26.27v73.57a.27.27,0,0,1-.26.27"></path><path class="cls-35" d="M156.56,302.71h-.66a.27.27,0,0,1-.27-.27V281.32a.27.27,0,0,1,.27-.27h.66a.27.27,0,0,1,.27.27v21.12a.27.27,0,0,1-.27.27"></path><path class="cls-35" d="M159.36,302.71h-.66a.27.27,0,0,1-.27-.27V267.58a.27.27,0,0,1,.27-.26h.66a.27.27,0,0,1,.27.26v34.86a.27.27,0,0,1-.27.27"></path><path class="cls-35" d="M162,302.71h-.66a.27.27,0,0,1-.27-.27V243.63a.27.27,0,0,1,.27-.27H162a.27.27,0,0,1,.27.27v58.81a.27.27,0,0,1-.27.27"></path><path class="cls-35" d="M164.78,302.71h-.66a.27.27,0,0,1-.27-.27V281.32a.27.27,0,0,1,.27-.27h.66a.27.27,0,0,1,.27.27v21.12a.27.27,0,0,1-.27.27"></path><path class="cls-35" d="M167.58,302.71h-.66a.27.27,0,0,1-.27-.27V267.58a.27.27,0,0,1,.27-.26h.66a.27.27,0,0,1,.27.26v34.86a.27.27,0,0,1-.27.27"></path><path class="cls-35" d="M170.2,302.71h-.66a.27.27,0,0,1-.27-.27V243.63a.27.27,0,0,1,.27-.27h.66a.27.27,0,0,1,.27.27v58.81a.27.27,0,0,1-.27.27"></path><path class="cls-35" d="M173,302.71h-.66a.27.27,0,0,1-.27-.27V281.32a.27.27,0,0,1,.27-.27H173a.27.27,0,0,1,.27.27v21.12a.27.27,0,0,1-.27.27"></path><path class="cls-35" d="M175.8,302.71h-.66a.27.27,0,0,1-.27-.27V267.58a.27.27,0,0,1,.27-.26h.66a.27.27,0,0,1,.27.26v34.86a.27.27,0,0,1-.27.27"></path><path class="cls-35" d="M178.81,302.71h-.66a.27.27,0,0,1-.27-.27V267.58a.27.27,0,0,1,.27-.26h.66a.27.27,0,0,1,.27.26v34.86a.27.27,0,0,1-.27.27"></path><path class="cls-35" d="M181.43,302.71h-.66a.27.27,0,0,1-.27-.27V243.63a.27.27,0,0,1,.27-.27h.66a.27.27,0,0,1,.27.27v58.81a.27.27,0,0,1-.27.27"></path><path class="cls-35" d="M184.22,302.71h-.66a.27.27,0,0,1-.27-.27V281.32a.27.27,0,0,1,.27-.27h.66a.27.27,0,0,1,.27.27v21.12a.27.27,0,0,1-.27.27"></path><path class="cls-35" d="M187,302.71h-.66a.27.27,0,0,1-.27-.27V267.58a.27.27,0,0,1,.27-.26H187a.27.27,0,0,1,.27.26v34.86a.27.27,0,0,1-.27.27"></path><polygon class="cls-22" points="139.56 218 139.89 217.71 140.63 218.53 141.36 217.69 141.72 217.94 140.67 219.23 139.56 218"></polygon><line class="cls-36" x1="219.25" y1="206.78" x2="202.62" y2="219.97"></line><polyline class="cls-36" points="217.49 216.56 219.25 206.78 209.33 206.27"></polyline><line class="cls-36" x1="219.25" y1="251.06" x2="202.62" y2="237.86"></line><polyline class="cls-36" points="217.49 241.28 219.25 251.06 209.33 251.57"></polyline></g><rect class="cls-37" x="346.13" y="123.16" width="5.72" height="89.16"></rect></g></g></svg> 