<?xml version="1.0" encoding="UTF-8"?> <svg xmlns="http://www.w3.org/2000/svg" id="Layer_1" data-name="Layer 1" viewBox="0 0 107.37 107.37"><defs><style>.cls-1{fill:#ffb000;}.cls-2{opacity:0.81;}.cls-3{fill:#fff;}</style></defs><circle class="cls-1" cx="18.27" cy="17.75" r="5.67"></circle><g class="cls-2"><path class="cls-3" d="M97.38,148.22A53.69,53.69,0,0,1,53.32,63.86l5.74,4a46.73,46.73,0,1,0,12.16-12l-3.93-5.8a53.69,53.69,0,1,1,30.09,98.15Z" transform="translate(-43.7 -40.85)"></path><path class="cls-3" d="M97.38,123.32a28.79,28.79,0,1,1,28.79-28.78A28.81,28.81,0,0,1,97.38,123.32Zm0-52.57a23.79,23.79,0,1,0,23.79,23.79A23.81,23.81,0,0,0,97.38,70.75Z" transform="translate(-43.7 -40.85)"></path><rect class="cls-3" x="51.19" y="3.77" width="5" height="37.62"></rect><rect class="cls-3" x="51.19" y="65.98" width="5" height="38.12"></rect><rect class="cls-3" x="3.77" y="51.19" width="37.62" height="5"></rect><rect class="cls-3" x="65.98" y="51.19" width="37.62" height="5"></rect></g></svg> 