<?xml version="1.0" encoding="UTF-8"?> <svg xmlns="http://www.w3.org/2000/svg" id="TedBaker" width="203.189" height="46.861" viewBox="0 0 203.189 46.861"><path id="Path_889" data-name="Path 889" d="M120,89.841h4.452V88.623h-3.093V81.5H120Z" transform="translate(-63.767 -43.308)" fill="#8e8e8e"></path><path id="Path_890" data-name="Path 890" d="M154.138,85.458a3.05,3.05,0,0,1-.937,2.2,3,3,0,0,1-2.2.89,3.2,3.2,0,0,1-2.2-.89,3,3,0,0,1-.89-2.2,3.118,3.118,0,0,1,.89-2.2,3,3,0,0,1,2.2-.89,3.2,3.2,0,0,1,2.2.89,2.973,2.973,0,0,1,.937,2.2m1.453,0a4.329,4.329,0,0,0-1.312-3.093,4.531,4.531,0,0,0-3.233-1.265,4.61,4.61,0,0,0-3.233,1.265,4.147,4.147,0,0,0-1.312,3.093,4.329,4.329,0,0,0,1.312,3.093,4.531,4.531,0,0,0,3.233,1.265,4.827,4.827,0,0,0,3.233-1.265,4.25,4.25,0,0,0,1.312-3.093" transform="translate(-77.849 -43.096)" fill="#8e8e8e"></path><path id="Path_891" data-name="Path 891" d="M154.138,85.458a3.05,3.05,0,0,1-.937,2.2,3,3,0,0,1-2.2.89,3.2,3.2,0,0,1-2.2-.89,3,3,0,0,1-.89-2.2,3.118,3.118,0,0,1,.89-2.2,3,3,0,0,1,2.2-.89,3.2,3.2,0,0,1,2.2.89,2.973,2.973,0,0,1,.937,2.2m1.453,0a4.329,4.329,0,0,0-1.312-3.093,4.531,4.531,0,0,0-3.233-1.265,4.61,4.61,0,0,0-3.233,1.265,4.147,4.147,0,0,0-1.312,3.093,4.329,4.329,0,0,0,1.312,3.093,4.531,4.531,0,0,0,3.233,1.265,4.827,4.827,0,0,0,3.233-1.265,4.25,4.25,0,0,0,1.312-3.093" transform="translate(-77.849 -43.096)" fill="#8e8e8e"></path><path id="Path_892" data-name="Path 892" d="M185.5,89.469h1.265V83.659a5.264,5.264,0,0,0,.843.937l5.483,5.2V81.128h-1.265v5.811a9.331,9.331,0,0,0-.937-1.031L185.5,80.8Z" transform="translate(-98.573 -42.936)" fill="#8e8e8e"></path><path id="Path_893" data-name="Path 893" d="M185.5,89.469h1.265V83.659a5.264,5.264,0,0,0,.843.937l5.483,5.2V81.128h-1.265v5.811a9.331,9.331,0,0,0-.937-1.031L185.5,80.8Z" transform="translate(-98.573 -42.936)" fill="#8e8e8e"></path><path id="Path_894" data-name="Path 894" d="M223.459,88.57v-5.9h.515c1.265,0,2.2-.047,2.952.562a2.913,2.913,0,0,1,.984,2.39,2.852,2.852,0,0,1-.984,2.39c-.75.609-1.687.562-2.952.562ZM222.1,89.788h1.874c1.546,0,2.765.047,3.843-.8a3.989,3.989,0,0,0,1.5-3.374,4.081,4.081,0,0,0-1.5-3.421c-1.031-.8-2.249-.8-3.843-.8H222.1Z" transform="translate(-118.022 -43.255)" fill="#8e8e8e"></path><path id="Path_895" data-name="Path 895" d="M223.459,88.57v-5.9h.515c1.265,0,2.2-.047,2.952.562a2.913,2.913,0,0,1,.984,2.39,2.852,2.852,0,0,1-.984,2.39c-.75.609-1.687.562-2.952.562ZM222.1,89.788h1.874c1.546,0,2.765.047,3.843-.8a3.989,3.989,0,0,0,1.5-3.374,4.081,4.081,0,0,0-1.5-3.421c-1.031-.8-2.249-.8-3.843-.8H222.1Z" transform="translate(-118.022 -43.255)" fill="#8e8e8e"></path><path id="Path_896" data-name="Path 896" d="M263.938,85.458a3.05,3.05,0,0,1-.937,2.2,3.005,3.005,0,0,1-2.2.89,3.2,3.2,0,0,1-2.2-.89,3,3,0,0,1-.89-2.2,3.118,3.118,0,0,1,.89-2.2,3,3,0,0,1,2.2-.89,3.2,3.2,0,0,1,2.2.89,2.973,2.973,0,0,1,.937,2.2m1.453,0a4.329,4.329,0,0,0-1.312-3.093,4.531,4.531,0,0,0-3.233-1.265,4.61,4.61,0,0,0-3.233,1.265,4.147,4.147,0,0,0-1.312,3.093,4.329,4.329,0,0,0,1.312,3.093,4.531,4.531,0,0,0,3.233,1.265,4.827,4.827,0,0,0,3.233-1.265,4.25,4.25,0,0,0,1.312-3.093" transform="translate(-136.196 -43.096)" fill="#8e8e8e"></path><path id="Path_897" data-name="Path 897" d="M263.938,85.458a3.05,3.05,0,0,1-.937,2.2,3.005,3.005,0,0,1-2.2.89,3.2,3.2,0,0,1-2.2-.89,3,3,0,0,1-.89-2.2,3.118,3.118,0,0,1,.89-2.2,3,3,0,0,1,2.2-.89,3.2,3.2,0,0,1,2.2.89,2.973,2.973,0,0,1,.937,2.2m1.453,0a4.329,4.329,0,0,0-1.312-3.093,4.531,4.531,0,0,0-3.233-1.265,4.61,4.61,0,0,0-3.233,1.265,4.147,4.147,0,0,0-1.312,3.093,4.329,4.329,0,0,0,1.312,3.093,4.531,4.531,0,0,0,3.233,1.265,4.827,4.827,0,0,0,3.233-1.265,4.25,4.25,0,0,0,1.312-3.093" transform="translate(-136.196 -43.096)" fill="#8e8e8e"></path><path id="Path_898" data-name="Path 898" d="M295.3,89.469h1.265V83.659a5.263,5.263,0,0,0,.843.937l5.483,5.2V81.128h-1.265v5.811a9.336,9.336,0,0,0-.937-1.031L295.3,80.8Z" transform="translate(-156.92 -42.936)" fill="#8e8e8e"></path><path id="Path_899" data-name="Path 899" d="M295.3,89.469h1.265V83.659a5.263,5.263,0,0,0,.843.937l5.483,5.2V81.128h-1.265v5.811a9.336,9.336,0,0,0-.937-1.031L295.3,80.8Z" transform="translate(-156.92 -42.936)" fill="#8e8e8e"></path><path id="Path_900" data-name="Path 900" d="M6.092,4.465h3.8V1.7H0V4.465H3.8V21.756h2.3Z" transform="translate(0 -0.903)" fill="#8e8e8e"></path><path id="Path_901" data-name="Path 901" d="M6.092,4.465h3.8V1.7H0V4.465H3.8V21.756h2.3Z" transform="translate(0 -0.903)" fill="#8e8e8e"></path><path id="Path_902" data-name="Path 902" d="M52.3,21.756h7.966V18.8H54.6V12.337h5.67V9.479H54.6V4.465h5.67V1.7H52.3Z" transform="translate(-27.792 -0.903)" fill="#8e8e8e"></path><path id="Path_903" data-name="Path 903" d="M52.3,21.756h7.966V18.8H54.6V12.337h5.67V9.479H54.6V4.465h5.67V1.7H52.3Z" transform="translate(-27.792 -0.903)" fill="#8e8e8e"></path><path id="Path_904" data-name="Path 904" d="M104.6,18.8V4.605h.843c2.156,0,3.7-.094,4.92,1.312A8.9,8.9,0,0,1,112,11.681a8.807,8.807,0,0,1-1.64,5.764c-1.218,1.5-2.812,1.312-4.92,1.312H104.6Zm-2.3,2.952h3.14c2.624,0,4.686.094,6.467-1.874,1.64-1.781,2.53-4.546,2.53-8.154s-.89-6.373-2.531-8.154C110.173,1.7,108.111,1.7,105.44,1.7H102.3V21.756Z" transform="translate(-54.361 -0.903)" fill="#8e8e8e"></path><path id="Path_905" data-name="Path 905" d="M104.6,18.8V4.605h.843c2.156,0,3.7-.094,4.92,1.312A8.9,8.9,0,0,1,112,11.681a8.807,8.807,0,0,1-1.64,5.764c-1.218,1.5-2.812,1.312-4.92,1.312H104.6Zm-2.3,2.952h3.14c2.624,0,4.686.094,6.467-1.874,1.64-1.781,2.53-4.546,2.53-8.154s-.89-6.373-2.531-8.154C110.173,1.7,108.111,1.7,105.44,1.7H102.3V21.756Z" transform="translate(-54.361 -0.903)" fill="#8e8e8e"></path><path id="Path_906" data-name="Path 906" d="M203.7,10.188V4.471h.89c2.062,0,3.046.469,3.046,2.952,0,2.109-.937,2.765-3.046,2.765Zm0,8.9v-6.42h.8a4.2,4.2,0,0,1,2.577.422,3.3,3.3,0,0,1,1.078,2.765,3.451,3.451,0,0,1-.89,2.53,4.115,4.115,0,0,1-2.765.609h-.8Zm-2.3,2.718h3.608c2.015,0,3.374-.094,4.358-1.5a7.558,7.558,0,0,0,1.172-4.171c0-2.671-1.031-4.592-2.671-4.92,1.359-.562,2.062-2.062,2.062-4.171a6.012,6.012,0,0,0-1.406-4.217c-.89-.937-2.015-1.031-3.515-1.031H201.4Z" transform="translate(-107.022 -0.957)" fill="#8e8e8e"></path><path id="Path_907" data-name="Path 907" d="M203.7,10.188V4.471h.89c2.062,0,3.046.469,3.046,2.952,0,2.109-.937,2.765-3.046,2.765Zm0,8.9v-6.42h.8a4.2,4.2,0,0,1,2.577.422,3.3,3.3,0,0,1,1.078,2.765,3.451,3.451,0,0,1-.89,2.53,4.115,4.115,0,0,1-2.765.609h-.8Zm-2.3,2.718h3.608c2.015,0,3.374-.094,4.358-1.5a7.558,7.558,0,0,0,1.172-4.171c0-2.671-1.031-4.592-2.671-4.92,1.359-.562,2.062-2.062,2.062-4.171a6.012,6.012,0,0,0-1.406-4.217c-.89-.937-2.015-1.031-3.515-1.031H201.4Z" transform="translate(-107.022 -0.957)" fill="#8e8e8e"></path><path id="Path_908" data-name="Path 908" d="M254.067,12.934l1.453-4.592c.141-.515.328-1.265.515-2.249.187,1.031.375,1.734.515,2.249L258,12.934h-3.936Zm6.42,7.919h2.484L256.035,0,249.1,20.853h2.437l1.64-5.155h5.717Z" transform="translate(-132.37)" fill="#8e8e8e"></path><path id="Path_909" data-name="Path 909" d="M254.067,12.934l1.453-4.592c.141-.515.328-1.265.515-2.249.187,1.031.375,1.734.515,2.249L258,12.934h-3.936Zm6.42,7.919h2.484L256.035,0,249.1,20.853h2.437l1.64-5.155h5.717Z" transform="translate(-132.37)" fill="#8e8e8e"></path><path id="Path_910" data-name="Path 910" d="M308.8,21.756h2.343V11.494l5.623,10.263h3L313.439,10.6l5.67-8.9h-2.859l-5.108,8.294V1.7H308.8Z" transform="translate(-164.094 -0.903)" fill="#8e8e8e"></path><path id="Path_911" data-name="Path 911" d="M308.8,21.756h2.343V11.494l5.623,10.263h3L313.439,10.6l5.67-8.9h-2.859l-5.108,8.294V1.7H308.8Z" transform="translate(-164.094 -0.903)" fill="#8e8e8e"></path><path id="Path_912" data-name="Path 912" d="M362.6,21.756h7.966V18.8H364.9V12.337h5.67V9.479H364.9V4.465h5.67V1.7H362.6Z" transform="translate(-192.683 -0.903)" fill="#8e8e8e"></path><path id="Path_913" data-name="Path 913" d="M362.6,21.756h7.966V18.8H364.9V12.337h5.67V9.479H364.9V4.465h5.67V1.7H362.6Z" transform="translate(-192.683 -0.903)" fill="#8e8e8e"></path><path id="Path_914" data-name="Path 914" d="M415,10.176V4.459h.422c2.062,0,3.046.515,3.046,3,0,2.39-1.031,2.765-3.046,2.765H415Zm-.141,2.53h.281l4.733,9h2.624l-4.92-9.138c2.156-.375,3.28-2.2,3.28-5.436a6.68,6.68,0,0,0-1.359-4.4c-.89-.937-2.015-1.125-3.561-1.125H412.7V21.656h2.2v-8.95Z" transform="translate(-219.305 -0.85)" fill="#8e8e8e"></path><path id="Path_915" data-name="Path 915" d="M415,10.176V4.459h.422c2.062,0,3.046.515,3.046,3,0,2.39-1.031,2.765-3.046,2.765H415Zm-.141,2.53h.281l4.733,9h2.624l-4.92-9.138c2.156-.375,3.28-2.2,3.28-5.436a6.68,6.68,0,0,0-1.359-4.4c-.89-.937-2.015-1.125-3.561-1.125H412.7V21.656h2.2v-8.95Z" transform="translate(-219.305 -0.85)" fill="#8e8e8e"></path></svg> 