<?xml version="1.0" encoding="UTF-8"?> <svg xmlns="http://www.w3.org/2000/svg" xmlns:xlink="http://www.w3.org/1999/xlink" id="Unilever" width="87.602" height="96.914" viewBox="0 0 87.602 96.914"><defs><clipPath id="clip-path"><rect id="Rectangle_131" data-name="Rectangle 131" width="87.602" height="96.914" fill="#8e8e8e"></rect></clipPath></defs><g id="Group_148" data-name="Group 148"><g id="Group_147" data-name="Group 147" clip-path="url(#clip-path)"><path id="Path_862" data-name="Path 862" d="M11.283,103.021a15.782,15.782,0,0,1-.676-2.242,2.632,2.632,0,0,1,1.433-3.039c.9-.252,1.258.2,1.608,1.258A21.973,21.973,0,0,1,14,105.732c-.2,4.122-2.26,9.1-7.386,9-4.425-.1-6.382-2.963-6.586-7.335a20.083,20.083,0,0,1,.9-7.036c.453-1.56.857-2.116,2.262-2.415,1.1-.2,1,.953.755,2.315a26.774,26.774,0,0,0-.6,7.889c.2,3.619,1.859,5.027,3.669,5.027,2.714.052,3.92-2.209,4.425-5.48A9.541,9.541,0,0,0,11.283,103.021Zm57.875,3.57c1.057,0,1.36,1.25,1.108,2.008a3.223,3.223,0,0,1-2.562,1.861C67.4,109.7,67.249,106.591,69.158,106.591Zm-19.648,1.7c0-.851-.455-1.556-1-1.556-.458,0-1.509.5-1.509,2.11a3.12,3.12,0,0,0,.653,2.115A2.608,2.608,0,0,0,49.51,108.294ZM33.875,98.043a1.476,1.476,0,0,0-1.558-1.355,2,2,0,0,0-1.757,2.258,1.473,1.473,0,0,0,1.51,1.511A2.134,2.134,0,0,0,33.875,98.043Zm8.174,2.952c-.087-1.406-.428-2.04-1.183-1.988-1,.06-1.463,3.21-1.259,6.52.13,2.16.452,2.493.752,2.472C40.913,107.965,42.241,104.107,42.049,100.995Zm33.343,5.291c-.623,2.584-2.512,6.386-5.329,6.386-.652,0-1.809-.253-1.809-.906,0-.7,4.426-.8,4.426-4.171a3.132,3.132,0,0,0-2.866-3.017c-2.262,0-4.468,2.465-4.468,5.882,0,3.064,1.9,4.07,3.813,4.07,3.319,0,5.329-2.716,6.384-4.976.5,1.508.8,4.976,2.063,4.976.5,0,.855-.252,1.459-1.607,1.5-3.37,2.964-7.24,4.975-7.24.752,0,.3,1.36,2.11,1.36a1.468,1.468,0,0,0,1.454-1.512c0-1.157-1.054-2.059-2.661-2.059-4.726,0-5.728,7.088-6.483,7.088-1.257,0-.855-5.68-1.762-5.68C75.894,104.879,75.5,105.837,75.391,106.286Zm-40.209,6.031a3.524,3.524,0,0,0,3.069-1.877,18.743,18.743,0,0,1-1.057-4.864c-.3-4.873,1.578-9.456,3.632-9.583,1.507-.091,2.712,1.335,2.85,3.645.371,6.071-1.652,8.606-2.664,10.792a3.6,3.6,0,0,0,2.966,2.291,1.948,1.948,0,0,0,1.259-.455,4.984,4.984,0,0,1-.2-1.457c0-3.518,2.262-6.485,4.223-6.485,1.558,0,2.463,2.06,2.463,3.421,0,1.606-1.358,2.916-3.368,4.172a2.409,2.409,0,0,0,1.559.6c2.868,0,4.368-3.469,5.478-6.637.2-.6.555-1.457,1.257-1.457,1.206,0,1.711,7.942,3.716,7.942.858,0,1.56-1.761,1.56-3.114,0-1.007-.352-1.108-.352-2.565,0-1.607.855-2.963,2.014-2.963.7,0,.957.7.957,1.553,0,3.218-2.315,9.2-5.729,9.2-2.568,0-2.367-4.424-3.271-4.424-1.01,0-2.417,4.474-7.388,4.474a3.19,3.19,0,0,1-2.363-1.208,5.782,5.782,0,0,1-3.369,1.158c-1.858,0-2.664-1.911-3.416-1.911-.906,0-1.909,1.96-4.928,1.96-2.412,0-2.815-3.214-3.667-3.214-.756,0-1.911,3.214-3.167,3.214-2.114,0-2.562-5.578-4.425-5.578-1.457,0-6.062,5.665-7.313,5.536-.5-.052-.714-.428-.661-.931a35.472,35.472,0,0,1,.912-3.438c.406-1.529.779-3.2.988-3.738a1.335,1.335,0,0,1,1.213-.882c.226.021.293.442.363.79.254,1.243.608,2.51,1.008,2.51.706,0,3.038-4.474,4.395-4.474,1.661,0,1.86,7.039,4.121,7.039.756,0,1.31-.9,1.811-2.012.051-1.863.554-4.521,2.061-4.521,1.056,0,1.56,2.36.8,4.424,0,2.461,1.605,3.065,2.663,3.065" transform="translate(0 -17.815)" fill="#8e8e8e"></path></g></g><path id="Path_863" data-name="Path 863" d="M85.774,18.585a1.157,1.157,0,0,1-1.2-.586c-.241-.48-.16-1.255-.613-1.6a4.648,4.648,0,0,0,1.306.133c1.2,0,2.35-.827,3.232-.827a.691.691,0,0,1,.768.746C89.267,17.626,86.9,18.585,85.774,18.585Zm.586,3.014c2.771,0,5.309-2.214,5.309-4.16a1.625,1.625,0,0,0-1.522-1.788,1.173,1.173,0,0,1,.266.853c0,1.468-2.236,3.095-4.666,3.095a1.02,1.02,0,0,0-1.148.932C84.6,21.28,85.322,21.6,86.361,21.6Zm-.213,1.121c.348,2.533,4.186,5.948,5.226,5.867.7-.059.962-3.307.962-5.867,0-1.467.081-2.614-.694-2.881-1.229,2.481-4.452,2.988-5.494,2.881" transform="translate(-15.583 -2.905)" fill="#8e8e8e"></path><path id="Path_864" data-name="Path 864" d="M12.423,43.538c.906,0,.719-5.549,2.186-5.549.348,0,.454.347.454.774,0,1.253-.614,3.095-.614,4.107,0,.507.134.668.374.668.641,0,1.761-6.109,2.854-6.109.347,0,.507.347.507.694,0,1.28-1.626,4.961-1.626,6,0,.16.052.293.186.293.667,0,2-2.88,2.426-4.32.24-.748.56-1.148.854-1.148.266,0,.507.294.507.908,0,1.44-1.335,4.827-2.508,7.1-.906,1.76-2.319,4.292-2.319,5.706a2.829,2.829,0,0,0,1.172,2.374c-1.707-.107-2.4-.266-3.039-1.6-2.854,5.68,5.254,5.121,2.48,10.16-.507-.9-4.507-1.839-4.507-7.12,0-4.561,4-7.228,4-9.121a1.217,1.217,0,0,0-.479-.986c-.881-.748-.908-1.36-1.6-1.36-.506,0-1.121,1.173-.48,2.213.214.347.4.56.4.88,0,.746-1.174,2.745-2,2.745s-1.466-2.051-1.466-5.36c0-2.935.665-5.894,1.493-5.894.239,0,.319.16.319.374,0,.347-.106,1.039-.106,2.213,0,1.253.293,1.361.533,1.361" transform="translate(-1.89 -6.947)" fill="#8e8e8e"></path><path id="Path_865" data-name="Path 865" d="M20.953,51.57c1.121,0,2.054-.828,2.054-2.666V46.183a4.665,4.665,0,0,1,.774-3.041A4.772,4.772,0,0,0,23.7,44.21c0,2.294,1.279,3.868,1.279,6.081,0,.826-.24,1.28-.879,1.28-.614,0-.56-.56-.695-.56-.106,0-.266.346-.266.72a1.442,1.442,0,0,0,1.52,1.44A1.829,1.829,0,0,0,26.394,51.3c0-2.4-1.867-5.067-1.867-7.627a6,6,0,0,1,.533-2.455c0,5.308,4.507,9.175,4.507,11.388a.89.89,0,0,1-.933.908.871.871,0,0,1-.907-.855c0-.186-.027-.239-.107-.239a1.366,1.366,0,0,0-.639,1.228A2,2,0,0,0,29.034,55.6a2.363,2.363,0,0,0,2.346-2.429c0-2.8-5.467-7.041-5.467-11.573a6.262,6.262,0,0,1,.694-2.987,9.169,9.169,0,0,0-4.614,7.921c0,2.294-.08,3.439-1.253,3.439-.614,0-.774-.559-.988-.559-.16,0-.24.48-.24.612a1.463,1.463,0,0,0,1.442,1.547" transform="translate(-3.621 -7.166)" fill="#8e8e8e"></path><path id="Path_866" data-name="Path 866" d="M70.86,17.419c.339-.227,1.842.133,3.786-.828a1.447,1.447,0,0,1,.693-.185c.935,0,.695,1.066,1.549,1.066.665,0,1.521-.56,2.029-.56.795,0,1.942,2.508,1.942,3.681,0,1.36-2.05,2.187-4.478,2.187A5.7,5.7,0,0,1,70.7,17.685.284.284,0,0,1,70.86,17.419Zm5.815,3.387c1.174,0,2.055-.533,2.055-.854,0-.105-.16-.186-.507-.186a14.588,14.588,0,0,1-2.349-.24c-1.122-.186-1.976-.613-2.3-.613-.107,0-.16.053-.16.133,0,.695,1.282,1.761,3.258,1.761" transform="translate(-13.122 -3.045)" fill="#8e8e8e"></path><path id="Path_867" data-name="Path 867" d="M21.448,66.657a3.882,3.882,0,0,0-2.294,3.789c0,2.612,2.8,6.641,7.414,6.641,3.893,0,4.854-2.694,4.854-4.509,0-4.026-2.479-6.854-5.706-6.854A3.217,3.217,0,0,0,22.381,68.9a4.415,4.415,0,0,0,4.507,4.4,2.248,2.248,0,0,0,2.373-2.292,2.951,2.951,0,0,0-2.694-2.854.781.781,0,0,0-.826.826c0,.638.879,1.28,1.973,1.28a1.428,1.428,0,0,0,.587-.107.655.655,0,0,1,.08.321c0,.614-.587.988-1.494.988a2.611,2.611,0,0,1-2.667-2.617c0-.958.827-1.651,2.027-1.651a3.966,3.966,0,0,1,3.786,4.215c0,1.892-1.038,2.987-3.173,2.987-4.267,0-6.346-3.842-5.413-7.737" transform="translate(-3.555 -12.198)" fill="#8e8e8e"></path><path id="Path_868" data-name="Path 868" d="M53.873,83.791a12.557,12.557,0,0,0,1.613-.107c.4,0,.427.24.427.4,0,.587-1.308,1.307-3.628,1.307a2.354,2.354,0,0,1-2.427-1.52A10.512,10.512,0,0,1,44.5,85.5c-5.466,0-6.853-2.376-8.561-3.147-1.307-.587-3.307.56-6.108-2.56a6.691,6.691,0,0,0,1.281.107c2.452,0,3.759-1.2,3.759-3.12a6.9,6.9,0,0,0-.054-.744,5.294,5.294,0,0,1,2.856,3.838c.052.267,1.145.507,1.839.507a2.17,2.17,0,0,0,2.374-1.972c3.2-.266,5.362-2.159,5.816-4.562a6.325,6.325,0,0,1,2.772,1.949,4.819,4.819,0,0,1,1.6-.24,10.257,10.257,0,0,1,2.96.507c.054-.347.107-.774.641-.774.8,0,.586.88.853,1.384.134.267.8.427.8.961a.685.685,0,0,1-.7.7,1.18,1.18,0,0,1-.321-.053c-.533.187-.56,4.025-2.8,4.025a4.492,4.492,0,0,1-3.841-3.065,1.142,1.142,0,0,0-.96-.827c-.426,0-.666.081-1.172.641a9.272,9.272,0,0,1-6.8,2.932c-.907,0-1.627-.081-1.814-.081-.108,0-.108.027-.108.053,0,.187.906.908,2.881.908,4.694,0,5.842-2.641,6.588-2.641a.618.618,0,0,1,.612.428A5.24,5.24,0,0,0,53.873,83.791Zm-2.068-5.33a1.067,1.067,0,1,0,1.068-1.069,1.071,1.071,0,0,0-1.068,1.069" transform="translate(-5.536 -13.705)" fill="#8e8e8e"></path><path id="Path_869" data-name="Path 869" d="M80.605,62.913c-.374,0-.774.294-.774,1.016a1.688,1.688,0,0,0,.96,1.464,1.639,1.639,0,0,0,.772.215c.774,0,1.389-.215,1.389-.856C82.952,63.929,81.75,62.913,80.605,62.913Zm-2.877,1.652c-.56,0-3.658,4.134-5.654,4.134-.48,0-.88-.906-.88-1.6,0-.374.239-.641,1.1-.829,4.586-1.04,3.571-4.482,7.488-4.482a4.476,4.476,0,0,1,4.564,4.775c0,3.521-5.011,7.893-5.759,7.893-.614,0-1.281-.88-1.281-1.466,0-.186.081-.427.614-.64,2.557-1.015,4.022-3.361,4.022-4.562a.473.473,0,0,0-.48-.531c-.453,0-2.394,4.425-4.557,4.425-1.5,0-3.017-1.357-3.017-2,0-1.068,4.325-3.04,4.325-4.535,0-.561-.267-.586-.48-.586" transform="translate(-13.213 -11.468)" fill="#8e8e8e"></path><path id="Path_870" data-name="Path 870" d="M13.5,21.046a3.2,3.2,0,0,1-1.733.586,2,2,0,0,1-2.053-2.053,2.248,2.248,0,0,1,1.413-2.108,2.65,2.65,0,0,0-.026.454A3.1,3.1,0,0,0,13.5,21.046Zm5.707,5.121a5.065,5.065,0,0,0-1.2,3.066,2.4,2.4,0,0,0,2.241,2.639,2.018,2.018,0,0,0,1.92-2.266C22.169,27.82,20.542,26.565,19.208,26.167Zm-8.853,1.066a.522.522,0,0,0,.425.8c.213,0,.347-.053.454-.053.639,0,1.36.453,2.4.453a5.09,5.09,0,0,0,2.24-.639,5.566,5.566,0,0,0,2.668-3.735c0-.507-.407-.441-.748-.907s-.21-.876-.427-1.094c-.123-.125-.506-.133-.987-.186-.16-.017-.374-.027-.587-.027A5.409,5.409,0,0,0,12.7,22.7C10.386,24.176,10.727,26.62,10.354,27.233Zm6.267-3.307c.185.252.695.561.695.748,0,.372-.215.853-.641.853-.934,0-1.68-1.414-1.68-2.215,0-.506.294-.559.693-.559a.643.643,0,0,1,.4.107C16.327,22.993,16.327,23.526,16.621,23.926ZM14.167,27.18a2.2,2.2,0,0,1-1.84-2.081c0-.533.4-1.2.693-1.2.107,0,.16.081.186.268a3.033,3.033,0,0,0,1.814,2.426c.08.053.134.08.134.133C15.155,26.913,14.647,27.18,14.167,27.18Zm2.268-6.721a5.254,5.254,0,0,0,.239-1.547c0-1.279-.588-3.227-2.4-3.227A1.777,1.777,0,0,0,12.486,17.5C12.486,19.606,14.593,20.459,16.435,20.459ZM9.527,31.127c0,2.026.614,2.987,1.707,2.987.853,0,2-.614,3.359-1.788a11.822,11.822,0,0,1-2.56.4A2.8,2.8,0,0,1,9.527,31.127Zm.934-2.374a2.071,2.071,0,0,0-.026.4c0,1.253.665,1.947,1.546,1.947a2.867,2.867,0,0,0,2.131-1.281,5.613,5.613,0,0,1-.959.08A3.194,3.194,0,0,1,10.461,28.753ZM17,28.38A2.536,2.536,0,0,0,15.1,30.62a1.571,1.571,0,0,0,1.68,1.574,1.741,1.741,0,0,0,1.04-.267,3.107,3.107,0,0,1-1.013-2.319A3.565,3.565,0,0,1,17,28.38Zm.959-7.308A1.067,1.067,0,1,0,19.021,20,1.071,1.071,0,0,0,17.954,21.072Zm1.386,2.4a1.068,1.068,0,1,0,1.069-1.066,1.072,1.072,0,0,0-1.069,1.066" transform="translate(-1.768 -2.911)" fill="#8e8e8e"></path><path id="Path_871" data-name="Path 871" d="M70.328,38.317a1.025,1.025,0,0,1,2.049,0,1.025,1.025,0,1,1-2.049,0ZM60.964,30.1a1.068,1.068,0,1,0,1.066-1.066A1.071,1.071,0,0,0,60.964,30.1Zm-.906,3.76a1.52,1.52,0,1,0,1.52-1.52A1.535,1.535,0,0,0,60.058,33.864Zm3.361-1.707a1.626,1.626,0,1,0,1.622-1.626A1.615,1.615,0,0,0,63.419,32.157Zm.134-3.467a1.011,1.011,0,1,0,1.008-1.012A1.013,1.013,0,0,0,63.553,28.69Zm4.825-2.559a1.015,1.015,0,1,0,1.015-1.015A1.013,1.013,0,0,0,68.379,26.131Zm-2,3.28A1.709,1.709,0,1,0,68.085,27.7,1.719,1.719,0,0,0,66.377,29.411Zm-2.745,6.24A1.066,1.066,0,1,0,64.7,34.584,1.068,1.068,0,0,0,63.632,35.651Zm3.492-2.135a1.068,1.068,0,1,0,1.068-1.066A1.071,1.071,0,0,0,67.125,33.517Zm-.987,3.761a1.842,1.842,0,1,0,1.841-1.841A1.845,1.845,0,0,0,66.138,37.277Zm3.842-2.268a1.252,1.252,0,1,0,1.25-1.253A1.252,1.252,0,0,0,69.98,35.009Zm-.08-3.36a1.119,1.119,0,1,0,1.115-1.119A1.127,1.127,0,0,0,69.9,31.649" transform="translate(-11.147 -4.661)" fill="#8e8e8e"></path><path id="Path_872" data-name="Path 872" d="M73.286,75.444a7.855,7.855,0,0,1-5.013,1.732,6.583,6.583,0,0,1-2.295-.454c-.267,0-.56.266-.854.614a6.018,6.018,0,0,0-1.462,3.653,2.185,2.185,0,0,0,2.369,2.131c4.992,0,8.723-3.119,8.723-5.651C74.754,76.031,73.9,75.444,73.286,75.444ZM71.9,75.15a.975.975,0,0,0,.266-.774v-.613c0-.774-1.169-1.226-2.771-1.226-1.949,0-2.99.878-2.99,1.253v1.226c0,.508,1.175,1.015,2.617,1.015A4.451,4.451,0,0,0,71.9,75.15Zm-.215,2.64c.134,0,.293.079.293.56a2.337,2.337,0,0,1-1.222,1.971,5.123,5.123,0,0,1-2.909.853,6.272,6.272,0,0,0,.374-1.943,5.144,5.144,0,0,0-.053-.614h.347a6.014,6.014,0,0,0,3.17-.827" transform="translate(-11.815 -13.463)" fill="#8e8e8e"></path><path id="Path_873" data-name="Path 873" d="M60.611,38.97c.293,2.266,3.337,1.119,3.337,3.865,0,.4-.107.989-.107,1.494,0,.587.052,1.094.5,1.094s.56-.319.56-.747-.107-.96-.107-1.253a1.033,1.033,0,0,1,1.069-1.147c1.014,0,1.788,1.04,3.31,1.04-.348,1.707-3.871,1.253-3.871,3.121,0,.934.934,1.146,1.548,1.146.56,0,.748-.08.748-.559,0-.268-.054-.561-.054-.748a.211.211,0,0,1,.214-.214c.589,0,3.464,2.187,3.464,2.855,0,.612-3.037,1.226-3.917,1.226a.284.284,0,0,1-.321-.293c0-.187.454-.747.454-1.066,0-.24-.4-.4-1.468-.4-.507,0-.881.054-.881.454,0,.718,1.174,1.6,1.174,2.265,0,.534-.32.854-1.174.854-.721,0-1.81-.561-1.81-1.494,0-.747.77-1.492.77-1.946a.371.371,0,0,0-.422-.347c-.989,0-1.255,2.613-4.75,2.907a2.678,2.678,0,0,0,1.039-2.212c0-.56-.132-1.015-.132-1.627,0-.8.372-1.2.906-1.2.986,0,1.467,1.386,2.109,1.386a.771.771,0,0,0,.721-.8c0-2.027-3.9-1.734-3.9-4.588A6.623,6.623,0,0,1,60.611,38.97Zm12.721,7.814c0,.665.215,1.439.882,1.439.56,0,1.04-.852,1.04-1.786,0-1.067-.187-1.894-.187-2.322,0-.186.081-.265.187-.265.4.027.774,1.12,1.2,1.12.48,0,1.2-.881,1.489-.881.081,0,.107.107.107.134,0,.4-.614,1.282-.614,1.628,0,.293,1.548.346,1.548.613,0,.4-1.623.4-2.4.748-.747.319-1.2.719-1.2,1.253s.534.639,1.282.639c1.782,0,3.036-.959,3.436-.959a.125.125,0,0,1,.133.133c0,.267-.906,1.147-.906,1.547,0,.453,1.655.985,1.628,1.253-.026.08-.134.106-.32.106-.295,0-.748-.08-1.1-.08a.616.616,0,0,0-.481.133c-.185.214.054,1.628-.318,1.628-.348,0-1.255-3.147-3.3-3.147-.294,0-.507.24-.507.64a4.016,4.016,0,0,0,2.029,2.88c.447.294,1.2.587,1.2.748,0,.318-1.7.026-1.7.559,0,.48.213,1.2.213,1.627,0,.134-.027.292-.187.292-.32,0-1.1-1.466-1.468-1.466-.32,0-1.014.88-1.308.88a.148.148,0,0,1-.133-.159c0-.614.988-2,.988-3.361,0-.64-.081-2.027-.855-2.027-.64,0-1.362,1.013-1.682,2.027-.186.586-.053,2.854-.48,2.854-.4,0-.293-1.52-.828-1.52-.393,0-1.248.719-1.542.719-.054,0-.108-.027-.108-.08,0-.319.774-1.36.774-1.573,0-.4-1.762-.453-1.762-.773,0-.187.694-.32,1.334-.428,1.357-.24,3.358-1.226,3.358-2.613,0-1.547-1.494-2.214-2.477-2.854-.507-.32-1.068-.586-1.068-.8s.64-.214.907-.214c.4,0,.8-.027.8-.346,0-.241-.054-.72-.054-1.094,0-.267.026-.48.134-.48.4,0,.96,1.306,1.228,1.306.426,0,1.013-1.067,1.415-1.067.132,0,.186.081.186.32,0,.987-.507,2.107-.507,3.069" transform="translate(-10.927 -7.233)" fill="#8e8e8e"></path><path id="Path_874" data-name="Path 874" d="M60.091,57.178c1.228.16,1.522.586,1.522.934,0,.587-.534.773-1.042.773-.372,0-.8-.08-1.253-.08a2.019,2.019,0,0,0-1.653.694.912.912,0,0,1,.853.828c0,1.547-4.294.265-4.294,4.241,0,2.106,2.187,4.4,5.493,4.4,1.709,0,2.8-.56,2.8-1.2,0-.506-.906-.16-.906-.587,0-.187.32-.534.32-.829,0-.129-.107-.371-.32-.371-.482,0-1.389.771-3.23.771-1.441,0-2.854-.824-2.854-1.946,0-.239.107-.374.267-.374s.373.108.56.108c.16,0,.187-.108.187-.4s0-1.121.506-1.121,1.468,1.867,5.151,1.867c1.222,0,3.6-.239,4.479-1.04a6.933,6.933,0,0,1-7.122,6.8A7.526,7.526,0,0,1,51.9,62.965,7.852,7.852,0,0,1,59.8,55.179c1.172,0,2.161.4,2.161.906C61.958,56.78,60.224,56.353,60.091,57.178Zm8.189,1.415a1.584,1.584,0,0,1,.267.852c0,.748-.507,1.441-.507,2.215a1.591,1.591,0,0,0,1.677,1.6,1.845,1.845,0,0,0,1.841-1.92C71.558,59.926,70.277,58.727,68.28,58.594ZM59.45,60.3a1.075,1.075,0,0,1,.347.8c0,.4-.186.827-.186,1.281a1.173,1.173,0,0,0,1.173,1.2A1.243,1.243,0,0,0,62.04,62.3,2.343,2.343,0,0,0,59.45,60.3ZM63,55.765a4.932,4.932,0,0,1,4.324,4.615,2.413,2.413,0,0,1-2.349,2.612,2.258,2.258,0,0,1-2.344-2.426c0-1.12.875-2.293.875-3.441A2.066,2.066,0,0,0,63,55.765Zm1.388,3.548a.639.639,0,0,0,.641.667.734.734,0,0,0,.694-.8c0-.559-.507-1.333-.988-1.333-.214,0-.134.32-.186.667-.028.266-.16.586-.16.8" transform="translate(-9.633 -10.241)" fill="#8e8e8e"></path><path id="Path_875" data-name="Path 875" d="M30.073,24.88c.906,0,1.946-4.908,1.946-5.735,0-.213-.079-.374-.265-.374-.827,0-1.973,4.668-1.973,5.709C29.779,24.667,29.832,24.88,30.073,24.88Zm6.534,1.467c.665,0,1.412-2.561,1.412-4.162,0-.347-.053-.719-.214-.719-.56,0-1.494,2.64-1.494,4.08C36.312,26.107,36.447,26.347,36.607,26.347Zm-4.35-2.374c.293,0,.667-.322,1.363-1.093a6.973,6.973,0,0,0,.052-1.068c0-.533-.213-1.12-.533-1.12-.8,0-1.2,2.134-1.2,2.695C31.94,23.706,32.1,23.973,32.257,23.973Zm3.655-1.093c0-.454-.108-.561-.213-.561-.267,0-.559.321-.986,1.041.053.96.213,1.387.48,1.387C35.486,24.747,35.912,23.813,35.912,22.88Zm2.054-3.148c1.761,0,2.56,1.52,2.56,3.227,0,.746-.212,1.841-.559,1.841s-.293-.614-.347-1.174c-.053-.72-.187-.88-.428-.88-.454,0-.746,1.066-.746,2.054,0,.612.107,1.306.586,1.306a.972.972,0,0,0,.668-.293,2.387,2.387,0,0,1-2.294,2.294c-2.347,0-3.227-2.748-3.493-4.348-1.414,1.494-2.72,2.587-5.068,2.587a3,3,0,0,1-3.173-3.12c0-.454.16-1.627.721-1.627.666,0,.08,2.186,1.386,2.186.321,0,.906-.267,1.227-1.146a4.947,4.947,0,0,0,.293-1.574c0-.721-.16-1.173-.693-1.173a2.091,2.091,0,0,0-1.2.533A4.018,4.018,0,0,1,31.3,17.519c2.109,0,3.228,1.867,3.228,3.947a5.179,5.179,0,0,1-.081.906c.907-1.494,2.162-2.64,3.521-2.64" transform="translate(-4.765 -3.251)" fill="#8e8e8e"></path><path id="Path_876" data-name="Path 876" d="M32.779,29.045c-1.147,0-1.2,1.389-1.2,4.188-.854-1.84-2.266-3.814-3.921-3.814-1.12,0-1.546.748-1.546,2.053a4.933,4.933,0,0,0,.08.906,1.011,1.011,0,0,1,1.093-.639,4.865,4.865,0,0,1,3.441,2.081,17.731,17.731,0,0,0-2.906-.374,3.351,3.351,0,0,0-1.414.24,3.545,3.545,0,0,0-1.814,3.227,5.337,5.337,0,0,0,.081.88,5.743,5.743,0,0,1,5.013-3.014,5.053,5.053,0,0,1,.747.054,4.347,4.347,0,0,0-1.068,2.933c-.025.427-.186.454-.48.454,0,.879.695,2.187.695,2.853a.566.566,0,0,1-.266.507c0,1.174,1.172,2.027,1.172,2.773a.623.623,0,0,1-.134.428c.081.48,1.371,1.288,1.538,1.692.205.492.436.575.569.575.454,0,1.172-.534,1.172-1.015a.636.636,0,0,0-.239-.427,3.93,3.93,0,0,1-.988-1.705.5.5,0,0,1-.513-.393c-.146-.552-.153-1.581-.366-2.195-.347-.08-.507-.213-.507-.933,0-.347.214-1.708.214-2.188a.379.379,0,0,1-.373-.427c0-.853.854-1.52,1.093-2.613a3.923,3.923,0,0,1,1.893,3.28,7,7,0,0,1-.186,1.52c1.121-.561,2.8-1.388,2.8-3.068,0-.988-.454-2.081-3.468-2.508a9.429,9.429,0,0,1,3.094-.533c1.708,0,2.694.533,2.907,1.732a3.325,3.325,0,0,0,.614-1.706,2.255,2.255,0,0,0-2.481-2.16c-1.627,0-3.067.852-4.614,1.893.7-1.44,1.173-2.293,2.028-2.293a2.05,2.05,0,0,1,.4.054c-.32-1.173-1.52-2.321-2.161-2.321" transform="translate(-4.564 -5.391)" fill="#8e8e8e"></path><path id="Path_877" data-name="Path 877" d="M88.714,52.657c1.336,0,2.4,1.733,2.4,3.761a8.383,8.383,0,0,1-2.824,6.106c-.027-3.6-4.433-2.453-4.433-5.066a1.771,1.771,0,0,1,1.763-1.867,2.7,2.7,0,0,1,2,.722,2.366,2.366,0,0,1-.721-1.708,1.813,1.813,0,0,1,1.81-1.948" transform="translate(-15.564 -9.773)" fill="#8e8e8e"></path><path id="Path_878" data-name="Path 878" d="M60.422,20.538a2.836,2.836,0,0,0,2.054.959c.295,0,.643-.079.83-.079.24,0,.4.106.4.292a1.678,1.678,0,0,1-.586,1.042,2.682,2.682,0,0,0,1.041.187,3.138,3.138,0,0,0,3.249-3.36,3.557,3.557,0,0,1,.508,1.707,3.825,3.825,0,0,1-4.105,4.026,5.758,5.758,0,0,1-2.084-.428c-.506,0-.479,1.015-.826.988-.614-.107-1.173-1.467-1.173-2.907A4.252,4.252,0,0,1,60.422,20.538Zm4.026-1.947a1.991,1.991,0,0,0-1.382-.533,2.156,2.156,0,0,0-2.136,1.573,2.5,2.5,0,0,1-.187-.907,2.577,2.577,0,0,1,2.75-2.613,4.683,4.683,0,0,1,2.61.906c.266,0,.533-.267.748-.267.293,0,.293.454.293.774,0,1.066-.481,2.907-1.682,3.574a2.72,2.72,0,0,0-1.33-1.28.421.421,0,0,1-.266-.4,1.074,1.074,0,0,1,.581-.827" transform="translate(-11.085 -2.99)" fill="#8e8e8e"></path><path id="Path_879" data-name="Path 879" d="M32.617,9.793c0,.933,3.333,5.494,3.974,5.494.534,0,.933-.933.933-1.735a1.091,1.091,0,0,0-.159-.586c-.48-.667-3.868-3.334-4.615-3.334A.15.15,0,0,0,32.617,9.793Zm-19.6-2.747c0,.534-2.026,2.32-2.745,2.32-.266,0-.348-.319-.348-.612a2.372,2.372,0,0,1,.534-1.521,2.978,2.978,0,0,1,1.759-.478C12.588,6.754,13.014,6.832,13.014,7.046ZM37.366,8.593c0-1.6-4.327-4.508-4.375-5.76a.471.471,0,0,1,.155-.331c.741-.782,3.819-1.352,3.819-2.018,0-.345-.641-.345-.961-.345-2.48,0-6.107.906-6.107,1.786,0,.908,3.254,3.122,3.254,4.215,0,.293-.186.4-.48.4-.906,0-2.88-1.095-3.813-1.095-.427,0-.588.293-.588.722,0,1.279,1.52,3.706,1.52,4.425,0,.081-.027.187-.134.187-.48,0-2.745-2.666-3.547-2.666-.292,0-.32.4-.32.986v.906c0,.613-.027.987-.318.987-.7,0-1.015-1.946-1.681-1.946-.694,0-.827,3.466-1.493,3.466-.774,0-.108-3.814-.854-3.814-.827,0-1.761,2.534-2.348,2.534-.213,0-.265-.214-.265-.4,0-.773.452-2.026.452-2.772,0-.375-.107-.587-.425-.587-.828,0-2.641,1.333-3.334,1.333-.107,0-.24-.053-.24-.16,0-.638,2.907-2.666,2.907-3.573,0-.881-4-.293-4-1.308,0-.853,2.856-1.733,2.856-2.613,0-.774-3.388-1.119-4.694-1.119-1.574,0-2.427.185-2.427.638,0,.694,3.574.908,3.574,1.52,0,.587-3.708,2.161-3.708,3.067,0,.8,5.227.053,5.227.881,0,.906-4.559,4.825-4.559,6.132,0,.294.213.428.506.428,1.387,0,4.986-2.64,5.974-2.64.347,0,.374.426.374.8,0,.694-.239,1.76-.239,2.534,0,.612.16,1.039.692,1.039.989,0,1.893-1.68,2.562-1.68.853,0,.346,4.934,1.626,4.934,1.093,0,1.546-5.334,2.24-5.334S25.444,13.9,26.083,13.9c.8,0,.426-2.693,1.28-2.693.932,0,3.6,3.2,4.8,3.2.373,0,.506-.294.506-.668,0-1.414-1.972-4.613-1.972-5.626,0-.266.079-.347.372-.347,1.04,0,4.082,1.44,5.521,1.44C37.074,9.206,37.366,8.94,37.366,8.593ZM34.591,3.313c0,.48,1.68,1.52,2.455,1.52.453,0,.586-.614.586-1.254,0-.8-.345-.827-1.04-.827C35.712,2.752,34.591,2.993,34.591,3.313ZM28.324.592c0-.16-.8-.321-1.893-.321C24.7.271,24.937,1.713,23.6,1.713c-1.387,0-1.042-1.5-2.8-1.5-1.067,0-2.052.187-2.052.427C18.75.965,20,.832,20,1.713c0,.932-2.694,1.2-2.694,1.76,0,.186.213.266.48.266.588,0,1.52-.266,2.187-.266.374,0,.721.079.721.426,0,.667-1.441,1.867-1.441,2.4,0,.16.133.214.266.214.534,0,1.441-1.361,2.294-1.361,1.414,0,.481,3.013,1.253,3.013.8,0,.454-2.961,1.6-2.961.935,0,1.627,2.054,2.267,2.054a.3.3,0,0,0,.293-.32c0-.559-.8-1.707-.8-2.453,0-.454.32-.668.747-.668.612,0,1.44.374,1.892.374.16,0,.32-.053.32-.239,0-.64-2.372-1.333-2.372-2.16s1.306-.827,1.306-1.2" transform="translate(-1.816 -0.006)" fill="#8e8e8e"></path><path id="Path_880" data-name="Path 880" d="M88.218,4.926c0,2.372-1.729,4.186-4.853,4.693.348.026.668.026.989.026,3.651,0,4.987-1.652,4.987-3.039A1.7,1.7,0,0,0,88.218,4.926ZM83.713,7.618c0-1.893-4.531-2.374-4.531-2.8,0-.346,2.53-.934,3.837-.961-2-2.56-4.851-2.293-4.851-2.746,0-.267,2.135-.8,4.105-.8,1.653,0,3.2.374,3.2,1.627,0,.695-.56,1.415-.56,2.481a.986.986,0,0,0,1.068,1.094C86.811,5.511,87,4.632,87,3.7c0-.772-.133-1.359-.133-1.733A1.773,1.773,0,0,1,88.726.1c.907,0,1.121.4,2.456.4a2.036,2.036,0,0,0-.988,1.574c0,1.121.722,1.894.722,4.188,0,4.212-3.947,5.706-8.776,5.706a27.665,27.665,0,0,1-4.132-.319c-.213-.027-.266-.08-.266-.213,0-.347,1.9-.534,1.9-2.24a13.265,13.265,0,0,0-.214-1.547.211.211,0,0,1,.214-.214c.4,0,1.2,1.547,2.691,1.547A1.27,1.27,0,0,0,83.713,7.618Zm4.346-5.893a.667.667,0,1,0,.667-.668.66.66,0,0,0-.667.668" transform="translate(-14.429 -0.018)" fill="#8e8e8e"></path><path id="Path_881" data-name="Path 881" d="M85.026,31.058c0-.559-1.415-.612-1.548-2.187-.028-.239-.108-.665-.4-.665-.48,0-.107,1.467-.64,1.467-1.226,0-1.626-2.4-2.08-2.4-.108,0-.235.08-.235.4,0,.294.054.48.054.826s-.081.588-.4.588c-.721,0-1.362-1.681-1.976-1.681a.242.242,0,0,0-.266.214c0,.32.533.906.533,1.2,0,.641-1.735.293-1.735.827,0,.24.239.319.56.319.561,0,1.442-.239,1.9-.239.267,0,.667.053.667.4,0,.374-.961.853-.961,1.2a.268.268,0,0,0,.293.239c.721,0,2-1.253,2.9-1.253.16,0,.559.08.559.32,0,.346-.906.959-.906,1.466a.27.27,0,0,0,.241.293c.477,0,1.118-1.253,2.026-1.253.347,0,.854.134,1.122.134C84.946,31.273,85.026,31.139,85.026,31.058Zm.694,12.935a16.215,16.215,0,0,1,1.836-3.707c-.874-.452-3.2-1.414-3.2-2.987,0-1.841,2.294-3.28,2.77-3.28.214,0,.267.187.267.534,0,.959-.454,2.506-.454,3.333,0,.746.48,1.468.907,1.468.454,0,1.708-1.6,1.708-3.175a3.6,3.6,0,0,0-3.25-3.68c-.721,0-2.029,1.173-5.1,1.173-5.733,0-7.041-5.679-7.041-8.16,0-.107.025-.134.052-.134a4.073,4.073,0,0,0,2.509.695c.934,0,1.788-.241,3.15-.241,3.195,0,4.61,2.215,6.586,5.04,1.195.746,4.052,1.947,4.052,5.334,0,2.987-3.176,4.64-3.945,7.841,1.222-.133,1.943-2.321,3.2-2.321.641,0,.934.507.934,1.309a5.8,5.8,0,0,1-1.949,4.026,1.815,1.815,0,0,0,.026-.4c0-.746-.292-1.812-1.148-1.812-1.328,0-1.755,1.44-2.5,2.639-.774-2.719-1.815-5.174-3.682-6.668C79.56,39.3,76.3,40.126,76.3,37.353c0-.748.481-1.814.481-2.667a1.248,1.248,0,0,0-.215-.774c2.563.961,1.655,2.666,3.232,4.427.981,1.121,3.7,2.187,5.277,6.8a5.061,5.061,0,0,0,.053-.719c0-3.947-5.225-7.816-5.679-9.416,3.035.347,3.569,1.095,5.01,5.095a16.564,16.564,0,0,1,1.257,3.894" transform="translate(-13.765 -4.71)" fill="#8e8e8e"></path><path id="Path_882" data-name="Path 882" d="M68.39,11.067c-1.869,0-3.1-.932-3.1-1.414a.371.371,0,0,1,.375-.4c.586,0,1.867.906,2.293.906.108,0,.187-.052.187-.213,0-.48-.454-1.28-.454-1.679,0-.108.081-.186.24-.186.72,0,1.788.293,2.35.293.186,0,.239-.107.239-.214,0-.586-1.735-1.733-1.735-2.08,0-.32,2.157-.8,2.157-1.306,0-.534-2.932-.16-2.932-.668,0-.373.561-1.013.561-1.306,0-.134-.107-.186-.293-.186a21.033,21.033,0,0,1-2.056.507c-.266,0-.587-.053-.587-.428,0-.613,1.041-1.279,2.67-1.279,2.636,0,4.212,1.814,4.212,4.854C72.522,10.108,69.832,11.067,68.39,11.067ZM63.191,6c0-.294-1.042-.853-1.042-1.174,0-.053.052-.08.133-.08.295,0,.8.107,1.2.107.347,0,.4-1.494.662-1.494.186,0,.506,1.414.8,1.414.346,0,.986-.4,1.253-.4.053,0,.107.026.107.081,0,.186-.667.906-.667,1.119,0,.24,1.5.534,1.5.748,0,.267-1.522.24-1.522.48,0,.185.561.932.561,1.173a.072.072,0,0,1-.081.081c-.214,0-1.041-.375-1.281-.375-.294,0-.769,1.094-1.009,1.094-.08,0-.133-.107-.133-.24l-.054-1.066a.189.189,0,0,0-.187-.214c-.321,0-.935-.027-1.123-.027-.134,0-.187-.026-.187-.08C62.122,6.933,63.191,6.187,63.191,6Zm-.776,4.372c.428,0,.508,1.042.59,1.654.053.321.107.347.24.347.321,0,.827-1.226,1.169-1.226.506,0,1.868,1.414,4.136,1.414a6.077,6.077,0,0,0,6.268-6.267c0-3.868-2.724-6.135-6.482-6.135-1.787,0-3.1.88-3.79.88C64.125,1.066,63.485,0,63.163,0c-.133,0-.266.265-.266.719,0,.294,0,1.226-.321,1.226-.642,0-3.121-1.839-3.121-1.174,0,.614,1.652,2.481,1.652,2.961s-1.626.934-1.626,1.253c0,.586,1.733.693,1.733,1.441S59.4,7.76,59.4,8.321c0,.453,1.814.134,1.814.693s-1.333,2.427-1.333,2.959c0,.134.026.134.132.134.507,0,2.028-1.735,2.4-1.735" transform="translate(-11.024)" fill="#8e8e8e"></path><path id="Path_883" data-name="Path 883" d="M46.329,69.793a1.223,1.223,0,0,1-.294.773,1.963,1.963,0,0,0-1.494-.8c-2.747,0-1.707,3.974-4.64,3.974a13.874,13.874,0,0,1-1.786-.16c-.187,0-.294.081-.294.24,0,.695.987,2.4,3.734,2.4s5.388-1.679,5.388-3.762a2.782,2.782,0,0,0-.24-1.091.782.782,0,0,1,.614-.267c.426,0,.666.482,1.066.482a.731.731,0,0,0,.748-.748.807.807,0,0,0-.506-.749A.917.917,0,0,0,49,69.368a.847.847,0,0,0-.855-.88.765.765,0,0,0-.586.264c-.052-.477-.32-.931-.827-.931a.688.688,0,0,0-.695.748c0,.424.294.772.294,1.225" transform="translate(-7.019 -12.587)" fill="#8e8e8e"></path><path id="Path_884" data-name="Path 884" d="M29.878,63.594c2.134.53,3.2,1.678,3.413,3.039a5.923,5.923,0,0,0,.986,2.907A4.608,4.608,0,0,0,37.4,70.951c.96,0,1.732-.317,1.732-1.2A3.658,3.658,0,0,0,35.9,66.632c-.186,0-.427.028-.694.028a1.275,1.275,0,0,1-.8-.24c-.426-.375-.56-2.375-1.36-3.574a3.354,3.354,0,0,0-3.146-1.708c-.932,0-1.974.506-1.974,1.253C27.931,62.846,28.171,63.166,29.878,63.594Zm7.441,5.973c-.8,0-2-.855-2-1.336a.647.647,0,0,1,.665-.614c.668,0,1.867.829,1.867,1.522,0,.186-.133.428-.531.428" transform="translate(-5.184 -11.347)" fill="#8e8e8e"></path><path id="Path_885" data-name="Path 885" d="M36.342,44.579c0-1.707,4.055-2.613,4.055-4.721a3.488,3.488,0,0,0-.374-1.413c1.412.773,2.453,2.081,2.453,3.147,0,1.841-1.92,2.694-1.92,3.842,0,1.333,2.053,1.547,2.053,3.2,0,1.359-1.947,2.933-1.947,4.693a2.663,2.663,0,0,0,2.426,2.666,6.158,6.158,0,0,1-1.359.186c-2.695,0-5.468-2.213-5.468-4.854a4.552,4.552,0,0,1,1.412-3.279,3.812,3.812,0,0,0,1.975,1.066c.426,0,.614-.213.614-.533C40.263,47.592,36.342,46.687,36.342,44.579ZM44.85,58.048c-.915.419-1.279.347-1.279,1.281,0,.346-.081.8-.081,1.038,0,.32.053.507.426.507.961,0,2.481-1.626,2.481-3.014,0-.375-.214-.532-.454-.532C45.729,57.329,45.491,57.754,44.85,58.048Zm-.107-1.921c0-1.2-2.481-1.226-2.481-3.04a4.157,4.157,0,0,1,.88-2.055,2.893,2.893,0,0,0,2,2.562c2.372.879,2.693,2.212,2.693,3.627,0,2.4-1.68,5.387-6,5.387A6.073,6.073,0,0,1,35.888,56.9c0-.721.187-1.52.64-1.52.4,0,.533.319.853.638a5.552,5.552,0,0,0,4.4,1.52c1.707,0,2.96-.692,2.96-1.413" transform="translate(-6.661 -7.135)" fill="#8e8e8e"></path><path id="Path_886" data-name="Path 886" d="M22.431,60.086a1.014,1.014,0,1,1-1.125-.893A1.013,1.013,0,0,1,22.431,60.086Zm-4.984,1.049a1.742,1.742,0,0,0,1.921,1.494,2.194,2.194,0,0,0,.881-.266,1.641,1.641,0,0,0,1.9,1.275,1.691,1.691,0,0,0,1.544-1.889,1.932,1.932,0,0,0-.16-.614s.129-.014.227-.032a1.775,1.775,0,0,0,1.532-1.889,1.732,1.732,0,0,0-1.864-1.562,1.678,1.678,0,0,0-.883.362,1.8,1.8,0,0,0-2.019-1.324,1.723,1.723,0,0,0-1.448,1.938,1.755,1.755,0,0,0,.134.533l-.265.039a1.8,1.8,0,0,0-1.5,1.935" transform="translate(-3.236 -10.517)" fill="#8e8e8e"></path></svg> 