<?xml version="1.0" encoding="UTF-8"?> <!-- Generator: Adobe Illustrator 24.3.0, SVG Export Plug-In . SVG Version: 6.00 Build 0) --> <svg xmlns="http://www.w3.org/2000/svg" xmlns:xlink="http://www.w3.org/1999/xlink" version="1.1" id="Layer_1" x="0px" y="0px" viewBox="0 0 92 83.8" style="enable-background:new 0 0 92 83.8;" xml:space="preserve"> <style type="text/css"> .st0{fill:#009CA6;} .st1{fill:#FFB000;} </style> <g id="Group_128" transform="translate(-842.462 -475.635)"> <rect id="Rectangle_121" x="871.9" y="555.5" class="st0" width="33.7" height="3.9"></rect> <circle id="Ellipse_17" class="st1" cx="846.9" cy="480.1" r="4.4"></circle> <path id="Path_838" class="st0" d="M934.5,547.5h-90.3v-59.1h5.5V542H929v-59.2h-73.8v-5.5h79.3L934.5,547.5z"></path> <g id="Group_127" transform="translate(866.825 490.926)"> <path id="Path_839" class="st0" d="M22,0C9.7-0.1-0.3,9.7-0.5,22c-0.1,12.3,9.7,22.4,22,22.5c12.3,0.1,22.4-9.7,22.5-22 c0-0.1,0-0.2,0-0.2C44.1,10,34.2,0.1,22,0z M22,41.6C11.3,41.7,2.6,33.1,2.5,22.5C2.4,11.8,10.9,3,21.6,2.9S41,11.4,41.1,22 c0,0.1,0,0.1,0,0.2C41.2,32.9,32.6,41.5,22,41.6L22,41.6z"></path> <g id="Group_121" transform="translate(22.018 44.057)"> <path id="Path_840" class="st0" d="M0,0"></path> </g> <g id="Group_122" transform="translate(20.98 0.783)"> <path id="Path_841" class="st0" d="M1,41.1c-0.6,0-1-0.5-1-1c0,0,0,0,0,0V1c0-0.6,0.5-1,1-1s1,0.5,1,1l0,0v39 C2.1,40.6,1.6,41.1,1,41.1"></path> </g> <g id="Group_123" transform="translate(1.473 21.217)"> <path id="Path_842" class="st0" d="M40,2.1H1c-0.6,0-1-0.5-1-1v0c0-0.6,0.5-1,1-1h39c0.6,0,1,0.5,1,1S40.6,2.1,40,2.1L40,2.1"></path> </g> <g id="Group_124" transform="translate(10.689 0.619)"> <path id="Path_843" class="st0" d="M11.3,43.2C5,43.2,0,33.7,0,21.6C0,9.5,5,0,11.3,0s11.3,9.5,11.3,21.6 C22.7,33.7,17.7,43.2,11.3,43.2 M11.3,2.1c-5,0-9.3,8.9-9.3,19.5c0,10.6,4.2,19.5,9.3,19.5s9.3-8.9,9.3-19.5S16.3,2.1,11.3,2.1"></path> </g> <g id="Group_125" transform="translate(6.846 31.071)"> <path id="Path_844" class="st0" d="M29,7.8l-0.8-0.7c-3.6-3.2-8.2-5-13-5c-4.8,0-9.5,1.8-13,5L1.4,7.8L0,6.2l0.8-0.7 c8.2-7.4,20.7-7.4,28.9,0l0.8,0.7L29,7.8z"></path> </g> <g id="Group_126" transform="translate(6.846 5.245)"> <path id="Path_845" class="st0" d="M1.4,0l0.8,0.7c3.6,3.2,8.2,5,13,5c4.8,0,9.5-1.8,13-5L29,0l1.4,1.5l-0.8,0.7 C21.4,9.6,9,9.6,0.8,2.2L0,1.5L1.4,0z"></path> </g> </g> </g> </svg> 