<?xml version="1.0" encoding="UTF-8"?> <!-- Generator: Adobe Illustrator 24.0.1, SVG Export Plug-In . SVG Version: 6.00 Build 0) --> <svg xmlns="http://www.w3.org/2000/svg" xmlns:xlink="http://www.w3.org/1999/xlink" id="Layer_1" x="0px" y="0px" viewBox="0 0 245.2 26.4" style="enable-background:new 0 0 245.2 26.4;" xml:space="preserve"> <style type="text/css"> .st0{fill:#6D777D;} </style> <title>Element 2</title> <g> <path class="st0" d="M4.5,26.3H0L10.7,0.1h3.8l10.6,26.2h-4.5l-2.5-6.2H6.9L4.5,26.3z M12.5,5L8.1,16.8H17L12.5,5z"></path> <polygon class="st0" points="28,0.2 32.2,0.2 32.2,22.7 41.4,22.7 41.4,26.3 28,26.3 "></polygon> <polygon class="st0" points="44.1,0.2 58.7,0.2 58.7,3.9 48.2,3.9 48.2,11.3 58.6,11.3 58.6,14.9 48.2,14.9 48.2,22.7 58.7,22.7 58.7,26.3 44.1,26.3 "></polygon> <polygon class="st0" points="69.9,12.7 61.6,0.2 66.3,0.2 72.3,9.6 78.3,0.2 83,0.2 74.8,12.8 83.8,26.3 79.1,26.3 72.2,15.7 65.5,26.3 60.9,26.3 "></polygon> <path class="st0" d="M97.9,26.3h-4.5l10.7-26.2h3.8l10.6,26.2H114l-2.5-6.2h-11.2L97.9,26.3z M105.8,5l-4.4,11.8h8.9L105.8,5z"></path> <polygon class="st0" points="138.7,20.1 138.7,0.2 142.7,0.2 142.7,26.3 138.9,26.3 125.2,6.4 125.3,26.3 121.2,26.3 121.2,0.2 125.2,0.2 "></polygon> <path class="st0" d="M147.7,0.2h8.1c3.5,0,7.8,0.5,10.7,4.2c2,2.4,2.9,5.4,2.9,8.8c0,7.6-4.1,13.1-13.3,13.1h-8.4V0.2z M151.9,22.7 h4.4c6.2,0,9-3.9,9-9.4c0-2.5-0.7-4.9-2.1-6.7c-1.4-1.6-3.5-2.8-6.8-2.8h-4.5L151.9,22.7L151.9,22.7z"></path> <path class="st0" d="M184.6,26.3h-4.5l10.7-26.1h3.8l10.6,26.2h-4.5l-2.5-6.2H187L184.6,26.3z M192.5,5l-4.4,11.8h8.9L192.5,5z"></path> <polygon class="st0" points="225.4,20.1 225.3,0.2 229.4,0.2 229.4,26.3 225.6,26.3 211.9,6.4 211.9,26.3 207.9,26.3 207.9,0.2 211.8,0.2 "></polygon> <rect x="234.4" y="0.2" class="st0" width="4.2" height="26.2"></rect> <path class="st0" d="M243.1,0c0.4,0,0.7,0.1,1,0.3s0.6,0.4,0.8,0.8c0.2,0.3,0.3,0.7,0.3,1c0,0.4-0.1,0.7-0.3,1 c-0.2,0.3-0.4,0.6-0.7,0.7c-0.3,0.2-0.7,0.3-1,0.3s-0.7-0.1-1-0.3s-0.6-0.4-0.8-0.7c-0.2-0.3-0.3-0.7-0.3-1c0-0.4,0.1-0.7,0.3-1 c0.2-0.3,0.4-0.6,0.8-0.8C242.4,0.1,242.7,0,243.1,0 M243.1,0.4c-0.3,0-0.5,0.1-0.8,0.2c-0.3,0.1-0.5,0.3-0.6,0.6s-0.2,0.5-0.2,0.8 s0.1,0.6,0.2,0.8c0.1,0.3,0.3,0.5,0.6,0.6c0.3,0.1,0.5,0.2,0.8,0.2s0.6-0.1,0.8-0.2c0.3-0.1,0.5-0.3,0.6-0.6s0.2-0.5,0.2-0.8 s-0.1-0.6-0.2-0.8c-0.1-0.3-0.4-0.5-0.6-0.6C243.6,0.5,243.4,0.4,243.1,0.4 M242.2,3.1V0.9h0.4c0.4,0,0.6,0,0.7,0s0.3,0,0.3,0.1 c0.1,0,0.1,0.1,0.2,0.2c0.1,0.1,0.1,0.2,0.1,0.3c0,0.2,0,0.3-0.2,0.4c-0.1,0.1-0.2,0.2-0.4,0.2c0.1,0,0.1,0.1,0.2,0.1 c0,0,0.1,0.1,0.1,0.2c0,0,0.1,0.1,0.2,0.3l0.3,0.4h-0.5l-0.2-0.4c-0.1-0.2-0.2-0.4-0.3-0.4c-0.1-0.1-0.2-0.1-0.3-0.1h-0.1v0.9 H242.2z M242.6,1.9h0.2c0.3,0,0.4,0,0.5,0s0.1-0.1,0.1-0.1c0-0.1,0.1-0.1,0.1-0.2c0-0.1,0-0.1-0.1-0.2l-0.1-0.1c-0.1,0-0.2,0-0.5,0 h-0.2V1.9z"></path> </g> </svg> 