<?xml version="1.0" encoding="UTF-8"?> <!-- Generator: Adobe Illustrator 24.0.1, SVG Export Plug-In . SVG Version: 6.00 Build 0) --> <svg xmlns="http://www.w3.org/2000/svg" xmlns:xlink="http://www.w3.org/1999/xlink" id="Layer_1" x="0px" y="0px" viewBox="0 0 98 50" style="enable-background:new 0 0 98 50;" xml:space="preserve"> <style type="text/css"> .st0{fill:#6E777E;} </style> <path class="st0" d="M0.9,49.7H3l0.7-1h3.8l0.4,1H10l-2.3-5.9H5.3L0.9,49.7 M6.2,45.1L7,47.4H4.6L6.2,45.1z"></path> <polyline class="st0" points="11.1,49.7 12.9,49.7 13.7,45.4 13.7,45.4 15.4,49.7 16.8,49.7 20,45.4 20.1,45.4 19.3,49.7 21.1,49.7 22.2,43.8 19.3,43.8 16.5,47.6 15.1,43.8 12.2,43.8 11.1,49.7 "></polyline> <polyline class="st0" points="22.8,49.7 29.6,49.7 29.9,48.3 24.9,48.3 25.1,47.3 29.7,47.3 29.9,46.1 25.3,46.1 25.5,45.1 30.3,45.1 30.6,43.8 23.9,43.8 22.8,49.7 "></polyline> <path class="st0" d="M33.8,45.2h2.9c0.6,0,0.8,0.1,0.7,0.6l0,0.2c-0.1,0.4-0.3,0.6-0.8,0.6h-3.1L33.8,45.2 M31.2,49.7H33l0.3-1.5 h2.9c0.6,0,0.7,0.2,0.6,0.8l-0.1,0.7h1.9l0.2-1c0.2-1-0.2-1.2-0.8-1.3l0,0c0.9-0.2,1.2-0.7,1.3-1.5l0.1-0.4c0.2-1.1-0.1-1.8-1.5-1.8 h-5.7L31.2,49.7z"></path> <path class="st0" d="M45.1,48.1c-0.2,1.3,0.4,1.6,2.1,1.6h2.3c2.5,0,3.1-0.3,3.4-1.9c0.3-1.7-0.3-1.9-3.2-1.9c-2,0-2.2,0-2.1-0.5 c0.1-0.3,0.4-0.5,0.8-0.5h2.1c0.9,0,0.9,0.2,0.8,0.6H53l0-0.2c0.2-1,0.1-1.7-2-1.7h-2.6c-2.4,0-2.6,0.8-2.8,1.9 c-0.3,1.5,0,1.8,2.8,1.8c2.4,0,2.6,0,2.5,0.5c-0.1,0.5-0.5,0.5-0.9,0.5h-2.3c-0.5,0-0.8,0-0.7-0.7h-1.9L45.1,48.1"></path> <path class="st0" d="M54.1,49.7H56l0.3-1.5H60c1.3,0,1.9-1,2.1-1.9l0.1-0.5c0.2-1.2-0.1-2-1.8-2h-5.1L54.1,49.7 M56.8,45.2h2.8 c0.6,0,0.7,0.2,0.7,0.6l0,0.2c-0.1,0.3-0.3,0.6-0.7,0.6h-2.9L56.8,45.2z"></path> <path class="st0" d="M63.1,47.6c-0.3,1.7,0.6,2.1,2.3,2.1h3c1.7,0,2.8-0.4,3.1-2.1l0.3-1.8c0.3-1.7-0.6-2.1-2.3-2.1h-3 c-1.7,0-2.8,0.4-3.1,2.1L63.1,47.6 M65.3,46.4c0.1-0.7,0.4-1.2,1.4-1.2h2.2c1,0,1.1,0.4,1,1.2L69.7,47c-0.2,0.9-0.4,1.2-1.3,1.2H66 c-0.9,0-1-0.3-0.9-1.2L65.3,46.4z"></path> <path class="st0" d="M75.4,45.2h2.9c0.6,0,0.8,0.1,0.7,0.6l0,0.2c-0.1,0.4-0.3,0.6-0.8,0.6h-3.1L75.4,45.2 M72.7,49.7h1.9l0.3-1.5 h2.9c0.6,0,0.7,0.2,0.6,0.8l-0.1,0.7h1.9l0.2-1c0.2-1-0.2-1.2-0.8-1.3l0,0c0.9-0.2,1.2-0.7,1.3-1.5l0.1-0.4c0.2-1.1-0.1-1.8-1.5-1.8 h-5.7L72.7,49.7z"></path> <polyline class="st0" points="82,45.2 84.6,45.2 83.8,49.7 85.7,49.7 86.5,45.2 89.1,45.2 89.4,43.8 82.3,43.8 82,45.2 "></polyline> <path class="st0" d="M89.7,48.1c-0.2,1.3,0.4,1.6,2.1,1.6H94c2.5,0,3.1-0.3,3.4-1.9c0.3-1.7-0.3-1.9-3.2-1.9c-2,0-2.2,0-2.1-0.5 c0.1-0.3,0.4-0.5,0.8-0.5h2.1c0.9,0,0.9,0.2,0.8,0.6h1.9l0-0.2c0.2-1,0.1-1.7-2.1-1.7h-2.6c-2.4,0-2.6,0.8-2.8,1.9 c-0.3,1.5,0,1.8,2.8,1.8c2.4,0,2.6,0,2.5,0.5c-0.1,0.5-0.5,0.5-0.9,0.5h-2.3c-0.5,0-0.8,0-0.7-0.7h-1.9L89.7,48.1"></path> <path class="st0" d="M71.4,17c-0.7,2-1.3,3.6-2,6.6c-0.2,0.8-0.8,1.2-1.5,1.1c-4.1-0.4-8.3-0.7-13.7-0.9c-1.2-0.1-1.3-0.7,0.1-1.4 c3-1.6,9.3-4.3,16-6.5C71.4,15.5,71.7,16.2,71.4,17 M76.6,10.5c-13.4,3.9-22.7,7.6-34.6,15c-2.4,1.5-2.2,2-0.7,2 c12-0.5,17.3-0.4,29.3,1c0.6,0.1,1.2-0.3,1.4-0.9c1.4-7.1,3-10.7,5.7-16C77.9,10.8,77.6,10.2,76.6,10.5z M84.5,6.6 c-4.5,6.6-8.9,15.4-9.7,24.4c-0.1,0.9-0.8,1.2-1.6,1.1c-12.2-2.1-30.3-2.1-43.2-0.2c-1.5,0.1-1.5-0.7,0.5-2.4 c14-11.5,33-19.6,52.7-24.2C84.4,5,85,5.7,84.5,6.6z M92.1,0.2C65.7,4.6,37.4,16.3,20.3,34.6c-1.2,1.3-1.8,2-1.8,2.4 c0,0.2,0.1,0.4,0.3,0.5c0.2,0.1,0.4,0,0.7,0c16.7-4.5,39.6-5,57.3-1.4c0.8,0.1,1.4-0.3,1.3-1.1c-0.6-11.5,5.5-23.1,14.6-33.5 C93.2,0.9,93,0.1,92.1,0.2z"></path> </svg> 