<?xml version="1.0" encoding="UTF-8"?> <svg xmlns="http://www.w3.org/2000/svg" id="Layer_1" data-name="Layer 1" viewBox="0 0 150 190.49"><title>Bad Customer Experience Icon_Teal_RGB</title><g style="opacity:0.8"><circle cx="86.33" cy="37.72" r="6.95" style="fill:#009db1"></circle></g><g style="opacity:0.8"><path d="M196.57,211.71h-150V205a75,75,0,0,1,150,0ZM60.35,198.29H182.79a61.59,61.59,0,0,0-122.44,0Z" transform="translate(-46.57 -21.21)" style="fill:#009db1;opacity:0.8"></path></g><circle cx="46.62" cy="17.58" r="10.87" style="fill:#009db1"></circle><g style="opacity:0.8"><path d="M121.57,121.55a50.2,50.2,0,0,1-46-70.28l12.29,5.38A36.73,36.73,0,1,0,111.61,36L108,23.08a50.17,50.17,0,1,1,13.59,98.47Z" transform="translate(-46.57 -21.21)" style="fill:#009db1;opacity:0.8"></path></g><path d="M104,93.24l-4.87-3c4.59-7.35,13.06-11.86,22.63-12.08s18,3.76,22.81,10.63L139.87,92c-3.6-5.2-10.52-8.29-17.94-8.15C114.29,84,107.6,87.54,104,93.24Z" transform="translate(-46.57 -21.21)" style="fill:#009db1;opacity:0.8"></path><g style="opacity:0.8"><circle cx="62.88" cy="37.72" r="6.95" style="fill:#009db1"></circle></g></svg> 