<?xml version="1.0" encoding="UTF-8"?> <!-- Generator: Adobe Illustrator 24.0.1, SVG Export Plug-In . SVG Version: 6.00 Build 0) --> <svg xmlns="http://www.w3.org/2000/svg" xmlns:xlink="http://www.w3.org/1999/xlink" id="Layer_1" x="0px" y="0px" viewBox="0 0 359.2 80.8" style="enable-background:new 0 0 359.2 80.8;" xml:space="preserve"> <style type="text/css"> .st0{fill:#6D777D;} </style> <title>Element 2</title> <g id="Ebene_2"> <g id="Ebene_1-2"> <path class="st0" d="M32.8,80.6c17,0,29.4-11.1,32.5-25.8v24.3h15.5V48.8c0-1.4,0.1-2.9,0.1-4.3c0.3-9.2,6.3-14.7,15.9-14.9 c-9.9,15.4-5.4,36,10,45.9c15.4,9.9,36,5.4,45.9-10c2.3-3.5,3.8-7.5,4.7-11.6V54c0,16,12.8,26.8,28.2,26.8 c6.3,0,12.4-2.7,16.6-7.3v5.6h15.6V45.8c0-0.6,0.1-1.1,0.1-1.7c0.4-10.6,6.6-15.2,13.4-15.2s12.6,4.6,12.8,15.1 c0,0.9,0.1,1.5,0.1,2.5V79h15.7V54.4c2.9,16,16.4,26.3,32.5,26.3c18.3,0,28.6-11.7,31.3-23.9h-15.2c-2.5,6.7-8.9,11.2-16.1,11 c-8.5,0-15.7-5.8-17.5-15.2h50.5v26.5H341V48.8c0-1.4,0.1-2.9,0.1-4.3c0.3-9.4,6.5-14.9,16.4-14.9h1.7V14.7h-1.7 c-20.6,0-31.6,11.6-32,26.6c-3-16.3-17-27-33.1-27S262.8,25,259.9,41.2c0-14.4-11.2-26.8-25.8-26.8c-6.1,0-11.9,2.4-16.3,6.7v-21 h-15.5v46.6c0,1.6-0.1,3.2-0.3,4.8c-1,9.7-7.5,14.5-14.6,14.5c-7.4,0-14-3.5-14.2-14.4c0-1.9-0.1-2.7-0.1-4V30.1h24.2V15.5h-24.2 V0.1h-15.7v41c-3.6-18-21-29.7-39-26.1c-7.6,1.5-14.4,5.6-19.3,11.6V14.7h-1.7c-20.3,0-31.3,11.2-32,25.8 c-3-14.8-15.2-25.8-30.7-25.8c-7.3-0.2-14.3,2.7-19.4,7.9V0H0v39.3c0,2.9,0.1,5.6,0.1,8.2C0.3,65.7,13,80.6,32.8,80.6z M292.4,27.4c7.8,0.1,14.7,5.3,16.9,12.8h-33.7C278.2,32.3,284.8,27.4,292.4,27.4L292.4,27.4z M124.8,29.4 c9.9-0.1,18,7.7,18.1,17.6c0,0.2,0,0.3,0,0.5c0,10-8.1,18.1-18.1,18.1s-18.1-8.1-18.1-18.1c-0.2-9.9,7.7-18,17.6-18.2 C124.5,29.4,124.6,29.4,124.8,29.4L124.8,29.4z M32.8,29.4c9.9-0.1,18,7.8,18.1,17.6c0,0.2,0,0.3,0,0.5c0.1,9.9-7.7,18-17.6,18.1 c-0.2,0-0.3,0-0.5,0c-10-0.1-18-8.4-17.7-18.5C15.3,37.4,23.1,29.6,32.8,29.4L32.8,29.4z"></path> </g> </g> </svg> 