<?xml version="1.0" encoding="UTF-8"?> <!-- Generator: Adobe Illustrator 24.0.1, SVG Export Plug-In . SVG Version: 6.00 Build 0) --> <svg xmlns:cc="http://web.resource.org/cc/" xmlns:dc="http://purl.org/dc/elements/1.1/" xmlns:inkscape="http://www.inkscape.org/namespaces/inkscape" xmlns:rdf="http://www.w3.org/1999/02/22-rdf-syntax-ns#" xmlns:sodipodi="http://sodipodi.sourceforge.net/DTD/sodipodi-0.dtd" xmlns:svg="http://www.w3.org/2000/svg" xmlns="http://www.w3.org/2000/svg" xmlns:xlink="http://www.w3.org/1999/xlink" id="svg2" x="0px" y="0px" viewBox="0 0 567 241" style="enable-background:new 0 0 567 241;" xml:space="preserve"> <style type="text/css"> .st0{fill-rule:evenodd;clip-rule:evenodd;fill:#6E777E;} </style> <g id="layer1" transform="translate(-174.90205,-420.26565)" inkscape:groupmode="layer" inkscape:label="Layer 1"> <path id="path3298" class="st0" d="M407.7,540.6c-16.9,9.6-31.1,29.6-39.1,45.9c-4.1,6.2-2.2,18.7,9.5,10.8 c8.6-5.8,25.7-30.3,36.8-48.6c1.2-2,2.6-6.2,2.1-8.2C415.2,537,409.8,539.6,407.7,540.6 M476.6,552.8 c-11.9,3.3-20.5,13.6-25.1,24.3c-2.4,5.6-5.3,14.8-1.9,19.4c1.4,1.7,3.8,0.7,5.2-0.3c4.7-3.3,8.2-8.4,11.1-12.9 c5.3-9.5,10-19.6,11.3-30.7L476.6,552.8z M523.2,556c-6.2,3.2-9.7,13.5-10.9,19.3c-1.5,7.2-2.9,17,0.4,21.3 c0.8,0.7,1.7,1.3,2.9,1.2c4.9,0.1,8.3-7.5,10.3-11.9c3.2-7.3,6.1-18.7,5.1-26.1C530.6,556.2,527,554.5,523.2,556 M401.7,441.8 c12,12.2,15.6,30.6,9.8,46.3c-13.7,34.9-49.1,59.8-86.4,69.8c-17.6,4-43.1,5.9-59.3-2.3c-14.5-8-21.4-24.8-18.6-40.8 c4.5-24.4,23.3-42.1,45.4-53.8c18.5-8.9,40.3-12.9,62.3-10.4c2.4,0.4,4.7,1.6,5.3,4.4c0.2,2-0.1,3.4-1,4.7 c-1.6,1.9-3.4,2.4-5.4,2.2c-24.9-0.2-50.4,6-68.7,22.2c-10.7,10.1-19.3,26.2-11,43.2c5.3,10.7,24.2,14,35.3,13 c64.6-6,84.6-45.5,88.4-59c7.8-27.8-19.5-51.5-71.9-44.2c-67.8,9.4-110,55.4-118.6,102.6c-9.1,49.6,38.7,70.6,88.4,60.1 c20.3-4.2,41.6-13.9,62.5-33.7c17.2-18,40.7-44.3,67.3-40.2c3.3,0.7,7.3,2.4,8.2,6c1.6,6.4-1.7,12.2-3.8,17.9 c-21.2,36.1-19,50.8-15.2,52.7c7.8,2.5,12.8-8.6,16.6-14.8c5.1-23.4,23.5-45.5,47.3-52.3c0.7-2.8,0.8-5.7,0.7-8.6 c-0.4-12.5-6.2-21.2-10-31.4c-0.9-2.7,0-6,2.1-8c1.7-1.7,5.3-3.6,8.2-2.8c2.8,0.5,4.8,2.8,6.3,4.8c5.4,8.3,11.4,13.1,22.7,13.1 c8.4,0.3,17-0.3,23.8-4.7c4.3-4.9,9.1-10.1,15.5-11.9c3.1-0.6,5.5,0,7.7,1.9c2,2,2.5,5,1.4,7.7c-2,5-8.9,9.9-13.9,15.1 c-8.1,8.6-14,19.1-18.2,30.3c2.5-0.8,6.1-1.6,9.4-1c9.4,1.8,12.4,10.8,12.9,19.4c0.2,2.7,0.1,5.6-0.3,8.4c5.4-0.8,8.8-2.9,12.9-4.9 c6.9-3.9,12.7-9.6,18.2-15c2.5-2.3,6.2-3.1,9-2c2.2,0.7,4,2.6,4.4,5c1,6.5-4.8,8.6-13.2,21.2c-4.7,7.1-10,14.4-10.8,23.1 c-0.1,1.6,0.3,3,1.3,4.2c1.9,1.6,5.1,0.8,7.1-0.4c4.3-2.4,7.7-6.2,10.2-10.2c3.7-13.4,9-26.2,19.7-35.5c2.7-2,6-4,9.6-3.2 c1.9,0.3,3.5,1.7,3.9,3.3c2.1,6.4-2.3,14.8-5.3,20.2c-3.9,6.9-10.3,13.6-15.7,19.7c-0.1,3.2,0.6,5.3,3.1,5.9 c3.8,0.5,6.8-2.3,9.7-4.7c8.2-7.6,16-16.6,20.8-26.8c-0.8-9.2,2.4-19.8,10.6-24.7c2.8-1.4,6-1.3,8.3,0.3c2.3,1.8,2.4,5.1,1.9,7.9 c-0.6,3.3-2.5,6-4.2,8.8c4.6,0.3,8.6-1.9,12.8-2.9c2.2-0.5,3.5,0.2,4.7,1.1c2.2,2.1,2.4,4.8,1.3,7.5c-2.3,4.9-5.5,7.6-8.8,12.2 c-4.6,6.4-8.8,15-8.9,21.4c0,1.5,0.7,2.6,1.7,3c2.5,0.9,4.6-1,6.6-2.2c14.2-10.7,25-26,36.8-38.7c3.1-2.9,6.6-5.8,10.9-4.5 c1.5,0.5,2.7,1.7,3.1,3.4c0.7,3.1-1.1,6.9-3.1,9.5c-5.9,9-13.7,19.2-14,29.7c0,1.9,0.6,2.5,1.5,2.7c3.4,1,7.5-2.5,10.6-5.3 c10.3-9.5,17.2-21.5,25-32.6c1.5-2.4,3.9-4.4,6.7-4.7c2-0.1,3.6,0.4,4.9,1.7c3.4,4.8,0.6,12-1.8,16.6c-10.5,19.8-21.6,39.8-32.6,60 c-5.6,9.7-8.6,15.2-9,22.8c-0.3,0.9-1.1,1.3-2.3,0.9c-6.3-2.3-8.8-6.2-8.8-10.8c0-4.1,3.6-10,5-12.7c5.4-10.7,12.8-22,17.9-32.6 c-0.7,0.6-2,1.9-3.2,2.9c-6.8,5.6-13.3,12.7-22.4,11.4c-3-0.5-5.6-3.6-6.5-6.6c-1.5-5.1-0.5-12.5,1-17.7l-0.6,0.6 c-7.8,8.3-16.2,17.6-26.7,22.7c-3.2,1.5-8.8,2.5-12.1-0.4c-6.2-6.4-4.7-17.7-1.3-25.9c2.7-6.8,6.4-13.2,10.5-19.2 c-3,0.9-5.7,1.3-8.7,1.4l-1,1.5c-9.6,14.3-18.6,30.4-32.7,40.3c-4.8,3.4-11.2,3.7-15.2,1.1c-3.4-2.2-4.7-6.1-5.7-9.8 c-7.1,5.4-19.4,14.8-28,10.6c-5.1-2.7-7.3-8.6-7.1-14.4c0.2-8.5,3.9-17.3,7.3-24.9c-1.3,0.6-2,0.9-3.4,1.5c-3.3,1.5-6.6,2.5-10,3.8 c-2.4,6.9-7.6,16.6-10.5,20.5c-4.2,6.5-12.6,14.7-20.2,14.9c-6,0.4-11.3-2.4-14.2-7.4c-6.8-11.1-3.6-26.2-0.9-39.2 c4.9-19.5,12.7-37.7,21.9-54.7c-3,0.4-5.3,0.5-8.3,0.7c-5.3,0.3-9.4,0.8-15.1-0.3c0.4,31.2-7.8,63.3-28.2,87.9 c-5.8,7-15.1,14.3-25.3,12.7c-6.5-1-11.2-7.5-12.1-13.5c-4.6,7.8-13.3,17.2-25.8,10.3c-7.5-4.1-7.6-7.8-8.1-16 c0,0-15.7,23.9-36.4,18.3c-9.3-2.6-17.3-11.9-12.4-26.7c-25.7,19.8-54.6,32.7-80.3,33.1c-35.4,0.6-66.7-13.8-81.9-38 c-20.9-33.2-7.6-79.7,19.1-109.2s57-41.7,76.6-48.2C335.4,411.3,382.3,422.9,401.7,441.8"></path> </g> </svg> 