<?xml version="1.0" encoding="UTF-8"?> <!-- Generator: Adobe Illustrator 24.0.1, SVG Export Plug-In . SVG Version: 6.00 Build 0) --> <svg xmlns="http://www.w3.org/2000/svg" xmlns:xlink="http://www.w3.org/1999/xlink" id="Layer_1" x="0px" y="0px" viewBox="0 0 288.1 164" style="enable-background:new 0 0 288.1 164;" xml:space="preserve"> <style type="text/css"> .st0{fill:#6D777D;} </style> <title>DRM-Ico-File-SP01</title> <path d="M187.2,105.4c-0.2-0.3-0.4-0.7-0.9-0.7c-0.4,0.2-0.6,0.7-0.5,1.1c0.3,0.4,0.7,0.6,1.2,0.6 C186.9,106.1,187.4,105.9,187.2,105.4z"></path> <path d="M133.5,135.8L133.5,135.8z"></path> <path d="M201,102.3c-0.5-0.1-1.4-0.7-0.7-1.3c-0.1-0.8-1.1-1.1-1.4-0.3c-0.7,1.4,1.5,0.7,1,2c-0.2,0.5-0.7,0.9-1.3,0.9 c-1.2-0.1-0.2-1.2-0.8-1.7c-0.3-0.4-0.9-0.4-1.3,0l-0.1,0.1c-0.9,1.2,1.1,0.9,0.8,2c0,0.3-0.3,0.8-0.8,0.7c-0.5-0.2-0.8-0.7-0.6-1.2 c-0.3-0.4-0.7-0.6-1.2-0.6c-0.5,0.2-0.9,0.7-1.1,1.2c-0.3,0.3-0.8,0.1-1.1,0c-1.4,0.1-1.2,2.4-2.8,1.4c-0.4,0.3-0.5,0.8-0.9,1.1 c-0.5,0.5-1.3,0.1-1.9,0c-0.1,0.6-0.1,1.1-0.6,1.4c-1.3,0.4-1.2-0.9-1.6-1.6c-1.1-0.9-1.3,0.9-1.9,1.2c-2-1.3-1.5,2.2-3.4,1.2 c-1.1-0.1-0.8,1.7-1.9,1.4c-0.4-0.2-1.3-0.6-0.8-1.2c-0.1-0.3-0.4-0.8-0.9-0.8c-1.8,0.9,0.8,1.3,0.5,2.6c-0.2,0.4-0.7,0.7-1.2,0.7 c-0.6-0.2-0.9-0.8-0.7-1.4V110c-0.3-0.4-0.7-0.6-1.2-0.6c-0.2,0.2-0.6,0.4-0.6,0.9c-0.2,0.8-1,0.4-1.5,0.3c-0.4,0-0.7,0.3-0.9,0.7 c-0.2,0.6-0.7,0.9-1.3,0.8c-1.6,0.1,0-1.4-1-1.9c-0.3-0.4-0.9-0.1-1.1,0.2c-0.8,1.5,1.8,0.7,1,2.2c-0.2,0.5-0.7,0.7-1.2,0.7 c-0.5-0.2-0.8-0.7-0.7-1.3v-0.1c-0.2-0.3-0.5-0.8-1.1-0.7c-0.8,0.2-0.8,1.1-1.2,1.5c-1.6-1.4-1.6,1.3-3,1.1c-0.6,0-1.4-0.6-0.8-1.2 c-0.1-0.5-0.5-0.8-1-0.8c-1.9,1.2,1.1,1.3,0.5,2.4c-0.1,0.5-0.6,0.9-1.1,0.8H158c-0.6-0.1-0.6-0.9-0.5-1.4c-0.3-0.4-0.7-0.6-1.2-0.6 c-0.5,0.1-0.8,0.8-1,1.2c-0.5,0.3-1.3-0.1-1.8,0c-0.3,0.6-0.6,1.4-1.4,1.3s-0.7-0.9-0.7-1.6c-0.3-0.3-0.6-0.7-1.2-0.6 c-0.5,0.3-0.6,0.9-1,1.3c-0.7,0.2-1.4,0-1.9-0.5c0.2-0.6,0.4-1.2-0.2-1.6c-0.3-0.2-0.7-0.2-0.9,0.1c0,0.1-0.1,0.1-0.1,0.2 c-0.9,1.3,1.5,0.8,1,2.1c-0.1,0.5-0.6,0.9-1.1,0.8s-0.9-0.6-0.8-1.1c0-0.1,0.1-0.3,0.2-0.4c-1.3-2.1-1.8,1-3.2,0.6 c-0.3-0.1-1-0.4-0.6-1c-0.1-0.6-0.4-1.1-0.9-1.1s-0.8,0.8-0.9,1.3c0.3,0.3,0.9,0.3,1.2,0.7c0.2,0.4,0.1,1-0.3,1.2 c-2.3,0.6,0-2.2-1.8-2c-1.6-0.9-1,1.8-2.6,1.3c-1.3-0.3,0-1.7-1-2.1c-1.6-0.8-1,1.9-2.6,1.2c-1.6,0.2-0.2-1.6-1.3-2 c-0.4-0.2-0.9-0.1-1.1,0.3c-0.9,1.7,1.7,0.7,1.1,2.2c-0.2,0.4-0.6,0.7-1.1,0.7c-1.1-0.1-0.5-1.4-0.8-1.9c-1.6-1.4-1.3,1.4-2.9,1.1 c-0.5-0.1-0.9-0.7-0.7-1.2c0-0.1,0-0.2,0.1-0.2c-1.2-2.1-1.8,0.9-3,0.5c-0.6-0.1-1.3-0.6-0.8-1.3c-0.1-0.5-0.6-0.8-1.1-0.8 c-2.2,1.5,1.5,1.2,0.7,2.7c-0.2,0.5-0.7,0.9-1.3,0.8c-1.2-0.3-0.1-1.5-0.8-2.1c-1.7-1.1-1.2,1.6-2.6,1.2c-1.3-0.8-1.2,1-1.7,1.5 c-0.4,0.1-0.8-0.1-1.2-0.1c-0.4,0.2-0.7,0.6-0.8,1c0.1,0.5,0.5,0.9,1.1,1c0.4-0.1,0.7-0.4,0.8-0.8c0-0.5,0.4-0.8,0.9-0.8 c0.1,0,0.2,0,0.3,0.1c0.5,0.3,0.7,0.8,0.6,1.3c-0.1,0.9-1.2,0.7-1.7,0.5c-0.4,0.3-0.6,0.7-0.6,1.2c0.2,0.5,0.6,0.8,1.1,0.8 c0.8,0,0.7-1,1.1-1.4c0.5-0.2,1.1,0.1,1.4,0.6c0.2,0.5,0.1,1-0.2,1.4c-0.4,0.1-0.8-0.1-1.2-0.1s-0.6,0.4-0.5,0.8 c0.2,0.3,0.5,0.5,0.7,0.8c0.8,0.7,0.9-0.7,1.2-1.1c0.5,0,1.1,0,1.4,0.6c0.3,0.3,0,0.9,0,1.3c0.3,0.7,1.1,0.5,1.6,0.9v-0.1v-0.3 c0.1-0.5,0.2-1.3,1-1.3s1.2,0.5,1.2,1c0,0,0,0,0-0.1v0.1c0,0.1,0,0.2,0,0.3c0,0.2-0.1,0.4-0.2,0.6s-0.4,0.3-0.6,0.3l-1-0.2 c-0.1,0-0.3-0.1-0.3-0.2c0.1,0.4-0.5,1,0,1.4c1.6,2.1,1.2-1.4,2.9-0.8c0.5,0.1,0.6,0.8,0.6,1.2c0,1-1.1,0.8-1.6,0.6 c0.6,1.7,1.4-0.3,2.6,0.6c0.4,0.2,0.6,0.8,0.4,1.2c0.4,0.4,0.9,0.7,1.5,0.9c0.1-0.1,0.3-0.2,0.3-0.4c0.2-0.5,0.7-0.8,1.2-0.8 c0.5,0.2,0.7,0.7,0.6,1.2c-0.8,1.5,1.5,0.9,2,1.9c0.1,1.9,1.4-0.1,2.2,0.2c0.8-0.1,1,0.8,1.3,1.2c0.5,1.7,1.5-0.3,2.2-0.2 c1.1-0.1,1.1,1.1,1.7,1.7c0.9,0.3,1.3-0.9,2.1-0.6s1,1,1.4,1.6c0.5,0.1,1.1-0.1,1.4-0.5c0.7-0.1,1.4,0,2,0.5c0.1,0.6-0.3,1-0.4,1.3 c-0.6,0.3-1.3-0.1-1.9-0.1c-0.3,0.4-0.6,1.3-1.4,1s-0.2-1.2-1.1-1.6c-1.3-0.9-1.4,1.4-2.7,0.9c-1-0.1-0.2-1.2-0.9-1.6 c-1.3-1-1.4,1.2-2.7,0.8c-1.1,0-0.3-1.3-1.2-1.7c-1.3-0.9-1.2,1.2-2.4,0.8c-1,0-0.7-1.1-1.2-1.6c-1.2-1.2-1.4,0.9-2.6,0.5 c-0.4-0.1-1-0.7-0.7-1.1c-0.6-2-2,0-3,0c-1-0.2-0.4-1.3-1-1.9c-1.1-1.2-1.6,0.6-2.5,0.8c-0.4,0-0.7-0.6-0.6-1.1s0.7-0.4,1.2-0.3 c0.1-0.2,0.4-0.1,0.3-0.4c-0.7-1.3-1.4,0.5-2.5-0.1c-1.2-0.1-0.5-1.6-1.4-1.9c-0.5-0.4-1.2,0.1-1.4,0.5c-1.5,0.7-1.2-1.3-1.9-1.9 c-1.5,0.1-0.7-1.7-1.8-2.2c-0.8-0.7-1.2,1.1-2,0.6c-1-0.2-0.1-1.3-0.7-1.8c-1.4,0.1-1.4-1.4-2-2.3c-1.4,0.1-1.1-1.6-2.1-2 c-0.3-0.4-0.6,0.1-0.9,0.3c-0.4,0.3-0.9,0.2-1.2-0.1l0,0c-0.3-0.6-0.1-1.3,0.5-1.6c0.1,0,0.1-0.1,0.2-0.1c-0.5-1-1.7,0.4-2.2-0.8 c0.2-1.3-0.5-1.7-1.5-2.1c-0.1-1.7-1.9-1.9-2.4-3.3c-0.5-1.1-1.1,0.4-1.8,0.1c-0.6-0.3-0.9-0.9-0.7-1.6c-0.1-0.3-0.4-0.1-0.8-0.2 c-0.3,0.1-0.5,0.4-0.4,0.8c1.3,3.1,2.9,6.1,4.8,8.9c1.6,2.2,3.3,4.3,5.2,6.2c0.7,1,1.8,1.3,2.3,2.3c7.9,7.6,17.6,12,28,14.3 c1.6,0,3,1.1,4.5,0.5c1.6,1.1,4,0.3,5.7,0.9c0.9-0.3,1.8-0.3,2.7,0c1.4-0.5,3.2,0.1,4.5-0.5c2.8-0.2,5.7-0.7,8.4-1.4 c2.2-0.5,4.4-1,6.5-1.7c1.2-0.8,2.7-0.9,3.8-1.7c5.3-2.2,10.1-5.3,14.4-9.1c1.5-1.2,2.8-2.5,3.9-4c4-3.8,6.9-8.7,9.5-13.4 c0.7-2.5,2.2-4.7,2.6-7.4C201.9,102.8,202.4,101.5,201,102.3z M132.1,116.6c0.3-0.1,0.7,0,0.9,0.3l0,0c0.1,0.2,0,0.5-0.1,0.7 s-0.3,0.3-0.5,0.3c-0.1,0-0.2-0.1-0.3-0.1l-0.4-0.4C131.6,117,131.8,116.7,132.1,116.6L132.1,116.6z M130.1,118.2 c0.2,0,0.4,0.2,0.5,0.4c0,0.1,0,0.3,0,0.4c-0.1,0.2-0.4,0.2-0.6,0.2c-0.1,0-0.2,0-0.2-0.1c-0.2-0.2-0.2-0.4-0.1-0.6 C129.7,118.4,129.9,118.3,130.1,118.2L130.1,118.2z M128.1,115.5c0.3-0.2,0.6-0.3,0.9-0.2c0.3,0.1,0.5,0.4,0.5,0.7c0,0,0,0,0-0.1 c0,0,0,0,0,0.1l0,0c0,0.1,0,0.2,0,0.3c0,0.3-0.2,0.6-0.4,0.7c-0.1,0-0.2,0-0.4,0l-0.8-0.2c0,0-0.2-0.5-0.2-0.4 C127.7,116.1,127.8,115.7,128.1,115.5L128.1,115.5z M127.3,119.9c0.1-0.2,0.4-0.3,0.6-0.3c0.1,0,0.2,0.3,0.3,0.4c0,0.2,0,0.3,0,0.5 c-0.1,0.2-0.4,0.3-0.6,0.2c-0.1,0-0.2,0-0.2-0.1C127.1,120.4,127.1,120.1,127.3,119.9L127.3,119.9z M126.7,116.9 c0.2,0.1,0.4,0.3,0.4,0.6v-0.1c0.2,0.4-0.1,0.7-0.3,0.9c-0.1,0.1-0.1,0.1-0.2,0.1c-0.3,0-0.6-0.1-0.8-0.3c-0.1-0.2-0.1-0.3-0.1-0.3 c-0.1-0.2-0.1-0.5,0.1-0.7C126.1,116.9,126.4,116.8,126.7,116.9L126.7,116.9z M124.7,114.1c0.1,0,0.2,0,0.3,0c0.4,0.1,0.8,0.3,1,0.7 l0,0l0,0l0,0v0.9c-0.3,0.2-0.5,0.5-0.8,0.7c-0.6,0.1-1.1-0.4-1.2-0.9c0,0,0,0,0-0.1C124,114.8,124.3,114.3,124.7,114.1L124.7,114.1z M117.8,115.9c0-0.1,0-0.3,0.1-0.4c0-0.5,0.3-0.8,0.7-1l1.1,0.2l0.5,0.7c0,0.1,0,0,0,0.1c0,0.4-0.2,0.8-0.4,1.1 c-0.2,0.2-0.5,0.2-0.7,0.2C118.4,116.8,117.9,116.4,117.8,115.9L117.8,115.9z M120.3,119.2c-0.5,0-0.9-0.4-0.9-0.9 c-0.2-0.7,0.4-0.9,0.9-1s1.1,0,1.1,0.9l0,0l0,0l0,0l-0.3,0.8L120.3,119.2z M121.9,121.5h-0.7l-0.5-0.6c-0.1-0.5,0.1-1,0.6-1.1 c0,0,0,0,0.1,0c0.4-0.1,0.8,0.1,1.1,0.4c0.1,0.1,0.1,0.1,0.1,0.2C122.5,120.6,122.5,121.3,121.9,121.5L121.9,121.5z M121.9,117.3 c-0.1-0.1-0.2-0.3-0.2-0.4s0-0.2,0.1-0.3l-0.1-0.3c0.2-0.2,0.4-0.4,0.6-0.5c0.3-0.1,0.6-0.1,0.8,0.1c0.2,0.1,0.3,0.4,0.3,0.6v-0.1 v0.1l0,0c0.1,0.4-0.1,0.9-0.5,1l0,0C122.6,117.6,122.3,117.5,121.9,117.3L121.9,117.3z M124.1,119.8c-0.4,0-0.7-0.3-0.8-0.7 c0-0.4,0.3-0.7,0.7-0.7c0.3-0.1,0.6,0.1,0.7,0.4v0.1C124.7,119.3,124.5,119.7,124.1,119.8L124.1,119.8z M124.7,121.8 c-0.2-0.3,0-0.7,0.3-0.9l0,0c0.4-0.2,0.8-0.1,1,0.3c0,0.1,0,0.1,0,0.2c0,0.6-0.2,0.9-0.5,0.8C125.2,122.4,124.9,122.1,124.7,121.8 L124.7,121.8z M126.7,124.8l-0.5-0.2c-0.2-0.1-0.3-0.2-0.3-0.4c0-0.6,0.2-1,0.7-1.2c0.2-0.1,0.5,0,0.7,0.1s0.3,0.4,0.3,0.6v-0.1v0.1 l0,0l0,0l0,0c0,0.1,0,0.1,0,0.2c0,0.2-0.1,0.4-0.2,0.6C127.1,124.8,126.9,124.9,126.7,124.8L126.7,124.8z M129.2,126.3l-0.4,0.9 c-0.2,0.1-0.3,0.2-0.5,0.3c-0.3,0.1-0.7,0-0.9-0.2c-0.3-0.2-0.4-0.5-0.4-0.9c0-0.5,0.3-0.9,0.8-1.1 C128.4,125.2,129.1,125.6,129.2,126.3C129.2,126.3,129.2,126.2,129.2,126.3L129.2,126.3z M129.5,123c-0.1,0.1-0.2,0.2-0.4,0.2 c-0.1,0-0.2,0-0.3,0c-0.2-0.2-0.3-0.6-0.1-0.9c0.1-0.1,0.4-0.1,0.5-0.1s0.4,0.2,0.4,0.3l0,0C129.6,122.6,129.6,122.8,129.5,123 L129.5,123z M129.7,125.2c-0.1-0.3,0.1-0.6,0.3-0.8c0.2-0.2,0.6-0.2,0.8-0.1s0.4,0.3,0.4,0.6l0,0c0,0.6-0.3,0.9-0.6,0.9 C130.1,125.7,129.8,125.5,129.7,125.2L129.7,125.2z M131.9,128.4l-0.8-0.3l-0.2-0.6c0-0.7,0.4-1.1,0.8-1.1l0.6,0.1l0.5,0.6l0,0 c0,0.1,0,0.2,0,0.2C132.8,127.9,132.3,128.2,131.9,128.4L131.9,128.4z M133.9,130.6c-0.2,0.2-0.6,0.3-0.9,0.2 c-0.3-0.1-0.9-0.2-0.8-0.9c0-0.5,0.3-0.9,0.8-1.1c0.5-0.1,1,0.2,1.2,0.7c0,0,0,0,0,0.1C134.2,129.9,134.1,130.3,133.9,130.6 L133.9,130.6z M133.9,120.2c-0.2,0-0.4,0-0.6-0.2c-0.1-0.2-0.1-0.4,0-0.6c0.1-0.1,0.5-0.1,0.6,0s0.4,0.3,0.4,0.5 C134.2,120.1,134,120.2,133.9,120.2L133.9,120.2z M134.9,116.6c-0.4,0.1-0.8-0.1-1.1-0.7c0-0.4,0-1,0.6-1.2c0.4,0,0.7,0.1,1,0.3 c0.1,0.1,0.2,0.3,0.1,0.4v0.1c0,0.1,0,0.1,0,0.2c0,0.2-0.1,0.4-0.2,0.5C135.3,116.5,135.1,116.6,134.9,116.6L134.9,116.6z M135.5,118.5c-0.1-0.3,0.1-0.7,0.4-0.8c0.3-0.1,0.6,0.1,0.7,0.4c0,0,0,0,0-0.1c0,0,0,0.1,0.1,0.1l0,0c0.1,0.1,0.1,0.2,0.1,0.2 c0,0.2-0.1,0.4-0.3,0.5c-0.1,0.1-0.2,0.1-0.3,0.1C135.9,119,135.6,118.9,135.5,118.5C135.5,118.6,135.5,118.5,135.5,118.5 L135.5,118.5z M137.8,130.6L137.8,130.6l-0.1,0.6c-0.2,0.2-0.4,0.3-0.6,0.5l-1-0.3c-0.1-0.2-0.1-0.4-0.2-0.5c-0.1-0.3,0-0.6,0.2-0.8 s0.4-0.3,0.7-0.3C137.2,129.8,137.6,130.2,137.8,130.6L137.8,130.6C137.7,130.6,137.8,130.7,137.8,130.6L137.8,130.6z M138.5,117.6 c-0.4,0-0.9-0.3-0.8-0.7c-0.1-0.3,0-0.6,0.2-0.8c0.3-0.2,0.6-0.2,0.9-0.1c0.2,0.1,0.3,0.4,0.3,0.6v0.1 C139.1,117.2,138.9,117.5,138.5,117.6L138.5,117.6z M140,119.8c-0.1,0.1-0.2,0.2-0.3,0.1c-0.2-0.1-0.4-0.3-0.6-0.4 c-0.1-0.2-0.1-0.5,0.1-0.6c0.2-0.2,0.6-0.2,0.8,0c0.1,0.1,0.1,0.2,0.2,0.3C140.4,119.4,140.2,119.7,140,119.8L140,119.8z M142.8,117.7l-0.4,0.8c-0.1,0.1-0.1,0.1-0.2,0.1c-0.4,0-0.7-0.3-0.7-0.6c-0.1-0.4,0.1-0.8,0.5-0.9l0,0c0.2,0,0.3,0,0.4,0.1 L142.8,117.7C142.8,117.7,142.8,117.6,142.8,117.7L142.8,117.7z M143.9,120.6c-0.1,0.2-0.4,0.3-0.6,0.2c-0.1,0-0.2,0-0.2-0.1 c-0.2-0.2-0.2-0.5-0.1-0.7c0.1-0.2,0.4-0.3,0.6-0.3c0.1,0,0.2,0.3,0.3,0.4C143.9,120.3,143.9,120.4,143.9,120.6L143.9,120.6z M144.6,117.1c-0.4,0.1-0.8-0.1-1.1-0.6c-0.1-0.4,0.2-0.9,0.6-1l0.9,0.3l0.2,0.5C145.2,116.7,144.9,117,144.6,117.1L144.6,117.1z M146.2,119.2c-0.1,0.1-0.3,0.2-0.5,0.2s-0.4-0.1-0.5-0.3c-0.1-0.1-0.1-0.2-0.1-0.3c0-0.2,0.1-0.4,0.3-0.5s0.4-0.1,0.6,0l0.1,0.2 C146.3,118.7,146.3,119,146.2,119.2L146.2,119.2z M106.8,120.7c-0.1,0.2-0.4,0.3-0.6,0.3c-0.3-0.1-0.5-0.3-0.7-0.4 c-0.1-0.5,0.1-1,0.6-1.2c0.4,0,0.8,0.3,0.8,0.7l0,0c0,0.1,0,0.1,0,0.2C107,120.4,106.9,120.5,106.8,120.7L106.8,120.7z M118.2,129.8 L118.2,129.8C118.1,129.8,118.1,129.8,118.2,129.8c-0.3,0.4-0.5,0.4-0.9,0.4c-0.4-0.2-0.5-0.7-0.3-1.1l0,0c0.1-0.2,0.3-0.3,0.5-0.3 c0.3,0,0.5,0.2,0.6,0.5c0,0.1,0,0.2,0,0.2c0,0.1-0.1,0.3-0.2,0.4C118,129.7,118.1,129.8,118.2,129.8L118.2,129.8z M122.9,133.3 c0,0.1-0.2,0.1-0.3,0.1c-0.2,0-0.3-0.1-0.4-0.3c-0.1-0.3,0-0.6,0.2-0.8c0.1-0.1,0.3,0,0.4,0.1s0.2,0.3,0.2,0.4L122.9,133.3z M126.9,133.8L126.9,133.8c0,0.2,0,0.5-0.6,0.7c-0.2,0-0.7,0-0.7-0.4c-0.1-0.3,0-0.6,0.2-0.8s0.5-0.2,0.8-0.1 c0.2,0.1,0.3,0.3,0.3,0.5C126.9,133.7,126.9,133.8,126.9,133.8L126.9,133.8z M130.4,135.3c-0.2,0.1-0.4,0.1-0.5,0.2 c-0.3,0.1-0.5-0.1-0.6-0.4c-0.1-0.5,0.1-1,0.6-1.2c0.3,0,0.7,0.2,0.7,0.7L130.4,135.3z M134,136.2L134,136.2c0,0-0.2,0.1-0.4,0.1 s-0.3,0-0.4-0.1c-0.1-0.2-0.1-0.4-0.1-0.6c0-0.1,0.1-0.2,0.2-0.3c0.2-0.1,0.5-0.1,0.6,0.2v0.1c0,0,0,0.1,0,0S134.3,135.8,134,136.2 L134,136.2z M148.6,117.7c-0.1,0.2-0.3,0.3-0.6,0.4c-0.3,0-0.6-0.3-0.7-0.6c-0.1-0.2,0-0.5,0.2-0.6c0.2-0.2,0.6-0.2,0.8-0.1 s0.3,0.3,0.3,0.5C148.7,117.5,148.7,117.6,148.6,117.7L148.6,117.7z M149.6,120.3c-0.1,0.1-0.2,0.1-0.4,0.1 c-0.2-0.1-0.3-0.2-0.4-0.4c0-0.2,0.1-0.5,0.3-0.6s0.4-0.1,0.5,0c0.2,0.2,0.2,0.4,0.2,0.6C149.9,120.1,149.7,120.2,149.6,120.3 L149.6,120.3z M150.9,116.6c-0.1,0.1-0.3,0.2-0.5,0.2c-0.4,0.1-0.7-0.1-0.9-0.4c0-0.1,0-0.2,0-0.3v-0.3c0-0.3,0-0.7,0.5-0.8 c0.3-0.1,0.6,0,0.8,0.1s0.3,0.3,0.3,0.6l0,0v0.1c0,0,0,0,0-0.1C151.2,116,151.2,116.3,150.9,116.6L150.9,116.6z M152.3,118.4 l-0.3,0.5c-0.1,0.1-0.1,0.1-0.3,0.1c-0.5,0-0.6-0.2-0.6-0.4s0.1-0.6,0.2-0.6l0.5-0.1l0.4,0.3C152.4,118.3,152.4,118.2,152.3,118.4 L152.3,118.4z M154.6,117.4c-0.1,0.2-0.3,0.3-0.6,0.3c-0.1,0-0.2-0.1-0.3-0.1l-0.4-0.4c-0.1-0.2,0-0.5,0.1-0.7 c0.2-0.2,0.6-0.3,0.8-0.1c0.2,0.1,0.4,0.4,0.4,0.6v-0.1v0.1l0,0v0.1C154.7,117.2,154.7,117.3,154.6,117.4L154.6,117.4z M157,116.1 c-0.1,0.2-0.3,0.3-0.5,0.3c-0.2,0.1-0.5,0-0.7-0.1s-0.3-0.4-0.4-0.7c-0.1-0.3,0-0.6,0.2-0.8c0.3-0.2,0.7-0.3,1-0.2 c0.3,0.1,0.5,0.4,0.4,0.7l0,0c0,0.1,0,0.1,0,0.2C157.2,115.7,157.2,115.9,157,116.1L157,116.1z M157.3,117.8c0,0.1,0.2,0.6,0.4,0.6 C157.3,118.4,157.3,117.8,157.3,117.8L157.3,117.8z M157.8,118.1c-0.1,0.2-0.2-0.1-0.2-0.2C157.8,117.7,157.9,117.8,157.8,118.1 L157.8,118.1z M160.6,116.9c-0.1,0.1-0.2,0.2-0.3,0.3c-0.2,0.1-0.4,0.1-0.6,0c-0.2-0.1-0.3-0.3-0.3-0.5c-0.1-0.2,0-0.5,0.2-0.6 c0.2-0.2,0.5-0.2,0.7-0.1s0.3,0.3,0.3,0.5v-0.1v0.1l0,0v0.1C160.7,116.7,160.7,116.8,160.6,116.9L160.6,116.9z M162.9,115.8 c-0.1,0.1-0.3,0.2-0.4,0.1c-0.2,0.1-0.5,0-0.7-0.1s-0.2-0.3-0.3-0.5c-0.1-0.4,0.1-0.8,0.5-1l0,0c0.4-0.2,0.8,0.2,1,0.4 c0.1,0.1,0.1,0.1,0.1,0.2C163.2,115.2,163.1,115.6,162.9,115.8L162.9,115.8z M163.3,117.5C163.3,117.5,163.3,117.4,163.3,117.5 L163.3,117.5L163.3,117.5C163.3,117.4,163.3,117.4,163.3,117.5c0,0.2,0.1,0.3,0.2,0.5C163.3,117.8,163.3,117.7,163.3,117.5 L163.3,117.5z M163.9,117.5L163.9,117.5c0,0.1,0,0.2-0.1,0.2h-0.1l0,0l0,0c0,0,0,0,0-0.1l0,0l0,0c0,0.1-0.1,0.1-0.1,0.1v-0.2 l0.1,0.1v-0.1v-0.1h0.1l0,0C163.8,117.4,164,117.5,163.9,117.5L163.9,117.5L163.9,117.5c0,0,0,0.1,0,0.2V117.5z M163.7,114 c0-0.1,0-0.2,0-0.4c0-0.4,0-1,0.6-1.2c0.4,0,0.7,0.1,1,0.4c0.1,0.2,0.2,0.3,0.2,0.5c0,0.1,0,0.1,0,0.2s0,0.1,0,0.2 c0,0.4-0.3,0.8-0.7,0.9C164.4,114.8,163.9,114.5,163.7,114L163.7,114z M166.1,116.8c-0.3,0-0.6-0.2-0.7-0.5 c-0.2-0.2-0.1-0.6,0.2-0.7c0,0,0,0,0.1,0c0.3-0.2,0.7,0,0.9,0.3c0,0.1,0,0.2,0,0.3C166.6,116.3,166.5,116.7,166.1,116.8L166.1,116.8 z M168.7,115.3c-0.1,0.1-0.1,0.1-0.3,0.1c-0.3,0-0.6-0.1-0.8-0.4c-0.1-0.2-0.1-0.5,0.1-0.7c0.2-0.2,0.6-0.3,0.9-0.2 c0.2,0.1,0.4,0.3,0.4,0.6L168.7,115.3z M171,114c-0.2,0.1-0.6,0.2-1.1-0.4c-0.1-0.3-0.1-0.6,0.1-0.8c0.3-0.2,0.6-0.3,0.9-0.2 c0.3,0.1,0.4,0.3,0.4,0.6v-0.1v0.1l0,0C171.5,113.5,171.3,113.8,171,114z M173,112.8c-0.4,0-0.8-0.3-0.9-0.7 c-0.1-0.7,0.1-1.2,0.6-1.4c0.3-0.1,0.6,0,0.9,0.3c0.1,0,0.3,0.3,0.3,0.3c0.1,0.4,0,0.8-0.2,1.2C173.5,112.7,173.2,112.8,173,112.8 L173,112.8z M174.9,114.6C174.9,114.7,174.9,114.7,174.9,114.6l-0.5,0.3c-0.1,0.1-0.3,0.1-0.4,0c-0.4-0.4-0.2-0.7-0.1-0.8 c0.2-0.2,0.5-0.3,0.8-0.1C174.9,114.1,175,114.4,174.9,114.6L174.9,114.6z M177.3,113.1c0,0.1-0.1,0.2-0.2,0.3l-0.6,0.2 c-0.1,0-0.1,0-0.2-0.1c-0.2-0.2-0.3-0.4-0.2-0.6c0-0.2,0.1-0.3,0.5-0.5c0.3,0,0.6,0.1,0.7,0.4C177.3,112.8,177.3,112.9,177.3,113.1 L177.3,113.1z M179.3,112.1c-0.2,0.1-0.4,0.1-0.6,0c-0.2-0.1-0.3-0.3-0.3-0.5c-0.1-0.3,0-0.5,0.3-0.6l0,0c0.3-0.1,0.7,0,0.8,0.3 c0,0.1,0,0.2,0,0.3C179.5,111.7,179.4,111.9,179.3,112.1L179.3,112.1z M181.6,110.7c-0.2,0.1-0.5,0.1-0.7,0 c-0.1-0.1-0.2-0.2-0.3-0.4c-0.1-0.3,0-0.6,0.2-0.8c0.2-0.2,0.6-0.2,0.8,0c0.2,0.1,0.3,0.4,0.3,0.6V110 C181.9,110.6,181.7,110.7,181.6,110.7L181.6,110.7z M184.3,109.1c-0.1,0.1-0.3,0.2-0.4,0.3c-0.4,0.1-0.8-0.1-1-0.5 c0-0.1,0-0.2,0-0.3c-0.1-0.4,0.2-0.8,0.6-1c0.3,0,0.7,0.1,0.9,0.4c0.1,0.1,0.2,0.3,0.2,0.5v0.1c0,0.1,0,0.1,0,0.2 C184.4,108.8,184.4,109,184.3,109.1L184.3,109.1z M187,110c-0.1-0.2-0.1-0.5,0.1-0.7c0,0-0.1,0.1-0.1,0.2s0,0.3,0.1,0.4 c0,0,0.1,0,0.1,0.1l-0.1-0.3c0,0.1,0.1,0.1,0.1,0.1l0,0c0-0.1,0-0.1,0.1-0.2c0.1,0,0.2,0,0.2,0.1c0,0,0,0,0.1,0.1v0.1l0,0v0.1 c-0.1,0-0.1,0-0.2,0l0,0c0,0,0,0,0-0.1l0,0l0,0l0,0c0,0.1,0,0.1,0,0.2c0.1,0.1,0.3,0.3,0.4,0.2C187.4,110.3,187.1,110.2,187,110z M190.3,108.4c-0.1,0.2-0.2,0.4-0.5,0.5c-0.2,0-0.4-0.1-0.6-0.2c-0.1-0.1-0.1-0.3-0.1-0.5s0.2-0.3,0.5-0.5c0.3,0,0.6,0.1,0.7,0.4 C190.3,108.2,190.3,108.3,190.3,108.4L190.3,108.4z M192.3,107.4c-0.1,0-0.2,0-0.3,0c-0.3,0.1-0.5-0.1-0.6-0.3 c-0.1-0.3-0.1-0.6,0.1-0.8c0.1-0.2,0.4-0.3,0.6-0.2c0.2,0.1,0.4,0.3,0.4,0.5v0.1C192.6,107,192.5,107.3,192.3,107.4L192.3,107.4z M194.5,106.1c-0.1,0-0.3,0-0.4-0.1c-0.2-0.1-0.6-0.2-0.4-0.5c-0.1-0.2-0.1-0.5,0.1-0.8c0.2-0.2,0.6-0.3,0.8-0.1 c0.3,0.1,0.5,0.4,0.5,0.7C195,105.6,194.8,106,194.5,106.1L194.5,106.1z"></path> <path d="M133.5,135.8L133.5,135.8v-0.1c0,0,0,0-0.1,0S133.4,135.7,133.5,135.8z"></path> <path d="M116.1,113.8c0.4-0.1,0.6-0.5,0.7-0.9c-0.2-0.5-0.6-0.9-1.2-0.9c-0.4,0.1-0.7,0.7-0.7,1.1 C115.1,113.6,115.6,113.9,116.1,113.8z"></path> <path d="M114.5,110.9c0.1,0,0.3-0.2,0.2-0.5s-0.6-0.1-0.8,0.2C114.1,110.8,114.3,110.9,114.5,110.9z"></path> <path d="M124.1,111.6c0.1,0,0.3-0.2,0.2-0.6c-0.1-0.1-0.1-0.2-0.2-0.2C123.7,111,123.7,111.5,124.1,111.6z"></path> <path d="M118.3,112.2c0.1-0.2,0.3-0.3,0.3-0.7s-0.3-0.6-0.6-0.7c-0.3,0.2-0.5,0.5-0.5,0.9C117.7,112,117.9,112.3,118.3,112.2z"></path> <path d="M112.3,112.5c0.1-0.1,0.4-0.3,0.4-0.6c-0.2-0.7-1.1-0.7-1.1,0.1C111.7,112.3,112,112.4,112.3,112.5z"></path> <path d="M127.8,112.9c0.2-0.2,0.8-0.4,0.6-0.9s-1-0.9-1.2-0.2C126.9,112.2,127.4,112.8,127.8,112.9z"></path> <path d="M121.8,123.7L121.8,123.7L121.8,123.7L121.8,123.7z"></path> <path d="M110,113.8c0.1-0.2,0.2-0.4,0.3-0.6c-0.2-0.3-1-0.6-0.8,0.1C109.6,113.5,109.7,113.8,110,113.8z"></path> <path d="M113.6,115.1c0.4-0.2,0.9-0.6,0.8-1.1c-0.2-0.4-0.6-0.6-1-0.6c-0.4,0.1-0.6,0.5-0.7,0.9C113,114.7,113.2,115.1,113.6,115.1z "></path> <path d="M111.7,116c0.1-0.1,0.1-0.3,0.1-0.4c-0.1-0.2-0.3-0.6-0.6-0.4S111.3,115.9,111.7,116z"></path> <path d="M178.4,107.8c0.2,0,0.3-0.3,0.3-0.6c-0.2-0.2-0.3-0.4-0.5-0.4c-0.2,0.2-0.6,0.3-0.5,0.7S178.1,108.1,178.4,107.8z"></path> <path d="M180.6,106.4c0.1-0.1,0.3-0.2,0.3-0.4c-0.1-0.2-0.2-0.3-0.4-0.3C179.8,105.8,180.3,106.3,180.6,106.4z"></path> <path d="M170,109.8c0.2-0.1,0.5-0.4,0.4-0.8c-0.2-0.3-0.5-0.4-0.9-0.3c-0.2,0.1-0.3,0.3-0.3,0.5C169.4,109.5,169.7,109.7,170,109.8z "></path> <path d="M164.2,109.6c-0.1,0-0.2-0.2-0.3-0.2s-0.4,0.3-0.1,0.6C164,110,164,109.7,164.2,109.6z"></path> <path d="M188.9,104.6c0.2-0.2,0.4-0.3,0.4-0.6c-0.2-0.7-1-0.4-1.1,0.1C188.4,104.3,188.6,104.8,188.9,104.6z"></path> <path d="M133.8,112.2c0.1-0.1,0.5-0.2,0.4-0.6c-0.1-0.2-0.3-0.3-0.5-0.3c-0.2,0.1-0.4,0.3-0.3,0.6S133.6,112.2,133.8,112.2z"></path> <path d="M191.4,102.6c-0.1-0.4-0.6-0.2-0.5,0.2c0.1,0.1,0.2,0.2,0.3,0.2S191.5,102.8,191.4,102.6z"></path> <path d="M201.1,99.7c0.1,0.2,0.4,0.4,0.6,0.4c0.3,0,0.4-0.4,0.4-0.7C202,98.6,201,99,201.1,99.7z"></path> <path d="M150,111.9c-0.2-0.1-0.3-0.4-0.5-0.4s-0.5,0.6-0.2,0.8C149.5,112.7,149.9,112.2,150,111.9z"></path> <path d="M143.6,112.9c0.3,0,0.6-0.3,0.5-0.7c-0.1-0.3-0.5-0.5-0.8-0.3c-0.2,0.1-0.3,0.2-0.4,0.4C143,112.5,143.2,112.9,143.6,112.9z "></path> <path d="M153.4,113.7c0.4-0.2,0.6-0.7,0.5-1.1c-0.2-0.2-0.5-0.7-1-0.6c-0.2,0.2-0.6,0.5-0.5,1S152.9,113.8,153.4,113.7z"></path> <path d="M137.4,113.5c0.4,0,0.7-0.4,0.7-0.8l0,0c0-0.3-0.4-0.4-0.7-0.6c-0.4,0.1-0.6,0.5-0.5,0.9 C136.9,113.1,137.2,113.5,137.4,113.5z"></path> <path d="M161.6,111.6c0.2-0.1,0.6-0.3,0.5-0.7s-0.4-0.7-0.7-0.4s-0.5,0.2-0.4,0.6C161,111.3,161.3,111.6,161.6,111.6z"></path> <path d="M155.5,111.9c0.2-0.1,0.4-0.2,0.4-0.6c-0.2-0.6-0.9-0.2-0.9,0.2C155.2,111.6,155.3,112,155.5,111.9z"></path> <path class="st0" d="M187.2,105.4c-0.2-0.3-0.4-0.7-0.9-0.7c-0.4,0.2-0.6,0.7-0.5,1.1c0.3,0.4,0.7,0.6,1.2,0.6 C186.9,106.1,187.4,105.9,187.2,105.4z"></path> <path d="M133.5,135.8L133.5,135.8z"></path> <path class="st0" d="M201,102.3c-0.5-0.1-1.4-0.7-0.7-1.3c-0.1-0.8-1.1-1.1-1.4-0.3c-0.7,1.4,1.5,0.7,1,2c-0.2,0.5-0.7,0.9-1.3,0.9 c-1.2-0.1-0.2-1.2-0.8-1.7c-0.3-0.4-0.9-0.4-1.3,0l-0.1,0.1c-0.9,1.2,1.1,0.9,0.8,2c0,0.3-0.3,0.8-0.8,0.7c-0.5-0.2-0.8-0.7-0.6-1.2 c-0.3-0.4-0.7-0.6-1.2-0.6c-0.5,0.2-0.9,0.7-1.1,1.2c-0.3,0.3-0.8,0.1-1.1,0c-1.4,0.1-1.2,2.4-2.8,1.4c-0.4,0.3-0.5,0.8-0.9,1.1 c-0.5,0.5-1.3,0.1-1.9,0c-0.1,0.6-0.1,1.1-0.6,1.4c-1.3,0.4-1.2-0.9-1.6-1.6c-1.1-0.9-1.3,0.9-1.9,1.2c-2-1.3-1.5,2.2-3.4,1.2 c-1.1-0.1-0.8,1.7-1.9,1.4c-0.4-0.2-1.3-0.6-0.8-1.2c-0.1-0.3-0.4-0.8-0.9-0.8c-1.8,0.9,0.8,1.3,0.5,2.6c-0.2,0.4-0.7,0.7-1.2,0.7 c-0.6-0.2-0.9-0.8-0.7-1.4V110c-0.3-0.4-0.7-0.6-1.2-0.6c-0.2,0.2-0.6,0.4-0.6,0.9c-0.2,0.8-1,0.4-1.5,0.3c-0.4,0-0.7,0.3-0.9,0.7 c-0.2,0.6-0.7,0.9-1.3,0.8c-1.6,0.1,0-1.4-1-1.9c-0.3-0.4-0.9-0.1-1.1,0.2c-0.8,1.5,1.8,0.7,1,2.2c-0.2,0.5-0.7,0.7-1.2,0.7 c-0.5-0.2-0.8-0.7-0.7-1.3v-0.1c-0.2-0.3-0.5-0.8-1.1-0.7c-0.8,0.2-0.8,1.1-1.2,1.5c-1.6-1.4-1.6,1.3-3,1.1c-0.6,0-1.4-0.6-0.8-1.2 c-0.1-0.5-0.5-0.8-1-0.8c-1.9,1.2,1.1,1.3,0.5,2.4c-0.1,0.5-0.6,0.9-1.1,0.8H158c-0.6-0.1-0.6-0.9-0.5-1.4c-0.3-0.4-0.7-0.6-1.2-0.6 c-0.5,0.1-0.8,0.8-1,1.2c-0.5,0.3-1.3-0.1-1.8,0c-0.3,0.6-0.6,1.4-1.4,1.3s-0.7-0.9-0.7-1.6c-0.3-0.3-0.6-0.7-1.2-0.6 c-0.5,0.3-0.6,0.9-1,1.3c-0.7,0.2-1.4,0-1.9-0.5c0.2-0.6,0.4-1.2-0.2-1.6c-0.3-0.2-0.7-0.2-0.9,0.1c0,0.1-0.1,0.1-0.1,0.2 c-0.9,1.3,1.5,0.8,1,2.1c-0.1,0.5-0.6,0.9-1.1,0.8s-0.9-0.6-0.8-1.1c0-0.1,0.1-0.3,0.2-0.4c-1.3-2.1-1.8,1-3.2,0.6 c-0.3-0.1-1-0.4-0.6-1c-0.1-0.6-0.4-1.1-0.9-1.1s-0.8,0.8-0.9,1.3c0.3,0.3,0.9,0.3,1.2,0.7c0.2,0.4,0.1,1-0.3,1.2 c-2.3,0.6,0-2.2-1.8-2c-1.6-0.9-1,1.8-2.6,1.3c-1.3-0.3,0-1.7-1-2.1c-1.6-0.8-1,1.9-2.6,1.2c-1.6,0.2-0.2-1.6-1.3-2 c-0.4-0.2-0.9-0.1-1.1,0.3c-0.9,1.7,1.7,0.7,1.1,2.2c-0.2,0.4-0.6,0.7-1.1,0.7c-1.1-0.1-0.5-1.4-0.8-1.9c-1.6-1.4-1.3,1.4-2.9,1.1 c-0.5-0.1-0.9-0.7-0.7-1.2c0-0.1,0-0.2,0.1-0.2c-1.2-2.1-1.8,0.9-3,0.5c-0.6-0.1-1.3-0.6-0.8-1.3c-0.1-0.5-0.6-0.8-1.1-0.8 c-2.2,1.5,1.5,1.2,0.7,2.7c-0.2,0.5-0.7,0.9-1.3,0.8c-1.2-0.3-0.1-1.5-0.8-2.1c-1.7-1.1-1.2,1.6-2.6,1.2c-1.3-0.8-1.2,1-1.7,1.5 c-0.4,0.1-0.8-0.1-1.2-0.1c-0.4,0.2-0.7,0.6-0.8,1c0.1,0.5,0.5,0.9,1.1,1c0.4-0.1,0.7-0.4,0.8-0.8c0-0.5,0.4-0.8,0.9-0.8 c0.1,0,0.2,0,0.3,0.1c0.5,0.3,0.7,0.8,0.6,1.3c-0.1,0.9-1.2,0.7-1.7,0.5c-0.4,0.3-0.6,0.7-0.6,1.2c0.2,0.5,0.6,0.8,1.1,0.8 c0.8,0,0.7-1,1.1-1.4c0.5-0.2,1.1,0.1,1.4,0.6c0.2,0.5,0.1,1-0.2,1.4c-0.4,0.1-0.8-0.1-1.2-0.1s-0.6,0.4-0.5,0.8 c0.2,0.3,0.5,0.5,0.7,0.8c0.8,0.7,0.9-0.7,1.2-1.1c0.5,0,1.1,0,1.4,0.6c0.3,0.3,0,0.9,0,1.3c0.3,0.7,1.1,0.5,1.6,0.9v-0.1v-0.3 c0.1-0.5,0.2-1.3,1-1.3s1.2,0.5,1.2,1c0,0,0,0,0-0.1v0.1c0,0.1,0,0.2,0,0.3c0,0.2-0.1,0.4-0.2,0.6s-0.4,0.3-0.6,0.3l-1-0.2 c-0.1,0-0.3-0.1-0.3-0.2c0.1,0.4-0.5,1,0,1.4c1.6,2.1,1.2-1.4,2.9-0.8c0.5,0.1,0.6,0.8,0.6,1.2c0,1-1.1,0.8-1.6,0.6 c0.6,1.7,1.4-0.3,2.6,0.6c0.4,0.2,0.6,0.8,0.4,1.2c0.4,0.4,0.9,0.7,1.5,0.9c0.1-0.1,0.3-0.2,0.3-0.4c0.2-0.5,0.7-0.8,1.2-0.8 c0.5,0.2,0.7,0.7,0.6,1.2c-0.8,1.5,1.5,0.9,2,1.9c0.1,1.9,1.4-0.1,2.2,0.2c0.8-0.1,1,0.8,1.3,1.2c0.5,1.7,1.5-0.3,2.2-0.2 c1.1-0.1,1.1,1.1,1.7,1.7c0.9,0.3,1.3-0.9,2.1-0.6s1,1,1.4,1.6c0.5,0.1,1.1-0.1,1.4-0.5c0.7-0.1,1.4,0,2,0.5c0.1,0.6-0.3,1-0.4,1.3 c-0.6,0.3-1.3-0.1-1.9-0.1c-0.3,0.4-0.6,1.3-1.4,1s-0.2-1.2-1.1-1.6c-1.3-0.9-1.4,1.4-2.7,0.9c-1-0.1-0.2-1.2-0.9-1.6 c-1.3-1-1.4,1.2-2.7,0.8c-1.1,0-0.3-1.3-1.2-1.7c-1.3-0.9-1.2,1.2-2.4,0.8c-1,0-0.7-1.1-1.2-1.6c-1.2-1.2-1.4,0.9-2.6,0.5 c-0.4-0.1-1-0.7-0.7-1.1c-0.6-2-2,0-3,0c-1-0.2-0.4-1.3-1-1.9c-1.1-1.2-1.6,0.6-2.5,0.8c-0.4,0-0.7-0.6-0.6-1.1s0.7-0.4,1.2-0.3 c0.1-0.2,0.4-0.1,0.3-0.4c-0.7-1.3-1.4,0.5-2.5-0.1c-1.2-0.1-0.5-1.6-1.4-1.9c-0.5-0.4-1.2,0.1-1.4,0.5c-1.5,0.7-1.2-1.3-1.9-1.9 c-1.5,0.1-0.7-1.7-1.8-2.2c-0.8-0.7-1.2,1.1-2,0.6c-1-0.2-0.1-1.3-0.7-1.8c-1.4,0.1-1.4-1.4-2-2.3c-1.4,0.1-1.1-1.6-2.1-2 c-0.3-0.4-0.6,0.1-0.9,0.3c-0.4,0.3-0.9,0.2-1.2-0.1l0,0c-0.3-0.6-0.1-1.3,0.5-1.6c0.1,0,0.1-0.1,0.2-0.1c-0.5-1-1.7,0.4-2.2-0.8 c0.2-1.3-0.5-1.7-1.5-2.1c-0.1-1.7-1.9-1.9-2.4-3.3c-0.5-1.1-1.1,0.4-1.8,0.1c-0.6-0.3-0.9-0.9-0.7-1.6c-0.1-0.3-0.4-0.1-0.8-0.2 c-0.3,0.1-0.5,0.4-0.4,0.8c1.3,3.1,2.9,6.1,4.8,8.9c1.6,2.2,3.3,4.3,5.2,6.2c0.7,1,1.8,1.3,2.3,2.3c7.9,7.6,17.6,12,28,14.3 c1.6,0,3,1.1,4.5,0.5c1.6,1.1,4,0.3,5.7,0.9c0.9-0.3,1.8-0.3,2.7,0c1.4-0.5,3.2,0.1,4.5-0.5c2.8-0.2,5.7-0.7,8.4-1.4 c2.2-0.5,4.4-1,6.5-1.7c1.2-0.8,2.7-0.9,3.8-1.7c5.3-2.2,10.1-5.3,14.4-9.1c1.5-1.2,2.8-2.5,3.9-4c4-3.8,6.9-8.7,9.5-13.4 c0.7-2.5,2.2-4.7,2.6-7.4C201.9,102.8,202.4,101.5,201,102.3z M132.1,116.6c0.3-0.1,0.7,0,0.9,0.3l0,0c0.1,0.2,0,0.5-0.1,0.7 s-0.3,0.3-0.5,0.3c-0.1,0-0.2-0.1-0.3-0.1l-0.4-0.4C131.6,117,131.8,116.7,132.1,116.6L132.1,116.6z M130.1,118.2 c0.2,0,0.4,0.2,0.5,0.4c0,0.1,0,0.3,0,0.4c-0.1,0.2-0.4,0.2-0.6,0.2c-0.1,0-0.2,0-0.2-0.1c-0.2-0.2-0.2-0.4-0.1-0.6 C129.7,118.4,129.9,118.3,130.1,118.2L130.1,118.2z M128.1,115.5c0.3-0.2,0.6-0.3,0.9-0.2c0.3,0.1,0.5,0.4,0.5,0.7c0,0,0,0,0-0.1 c0,0,0,0,0,0.1l0,0c0,0.1,0,0.2,0,0.3c0,0.3-0.2,0.6-0.4,0.7c-0.1,0-0.2,0-0.4,0l-0.8-0.2c0,0-0.2-0.5-0.2-0.4 C127.7,116.1,127.8,115.7,128.1,115.5L128.1,115.5z M127.3,119.9c0.1-0.2,0.4-0.3,0.6-0.3c0.1,0,0.2,0.3,0.3,0.4c0,0.2,0,0.3,0,0.5 c-0.1,0.2-0.4,0.3-0.6,0.2c-0.1,0-0.2,0-0.2-0.1C127.1,120.4,127.1,120.1,127.3,119.9L127.3,119.9z M126.7,116.9 c0.2,0.1,0.4,0.3,0.4,0.6v-0.1c0.2,0.4-0.1,0.7-0.3,0.9c-0.1,0.1-0.1,0.1-0.2,0.1c-0.3,0-0.6-0.1-0.8-0.3c-0.1-0.2-0.1-0.3-0.1-0.3 c-0.1-0.2-0.1-0.5,0.1-0.7C126.1,116.9,126.4,116.8,126.7,116.9L126.7,116.9z M124.7,114.1c0.1,0,0.2,0,0.3,0c0.4,0.1,0.8,0.3,1,0.7 l0,0l0,0l0,0v0.9c-0.3,0.2-0.5,0.5-0.8,0.7c-0.6,0.1-1.1-0.4-1.2-0.9c0,0,0,0,0-0.1C124,114.8,124.3,114.3,124.7,114.1L124.7,114.1z M117.8,115.9c0-0.1,0-0.3,0.1-0.4c0-0.5,0.3-0.8,0.7-1l1.1,0.2l0.5,0.7c0,0.1,0,0,0,0.1c0,0.4-0.2,0.8-0.4,1.1 c-0.2,0.2-0.5,0.2-0.7,0.2C118.4,116.8,117.9,116.4,117.8,115.9L117.8,115.9z M120.3,119.2c-0.5,0-0.9-0.4-0.9-0.9 c-0.2-0.7,0.4-0.9,0.9-1s1.1,0,1.1,0.9l0,0l0,0l0,0l-0.3,0.8L120.3,119.2z M121.9,121.5h-0.7l-0.5-0.6c-0.1-0.5,0.1-1,0.6-1.1 c0,0,0,0,0.1,0c0.4-0.1,0.8,0.1,1.1,0.4c0.1,0.1,0.1,0.1,0.1,0.2C122.5,120.6,122.5,121.3,121.9,121.5L121.9,121.5z M121.9,117.3 c-0.1-0.1-0.2-0.3-0.2-0.4s0-0.2,0.1-0.3l-0.1-0.3c0.2-0.2,0.4-0.4,0.6-0.5c0.3-0.1,0.6-0.1,0.8,0.1c0.2,0.1,0.3,0.4,0.3,0.6v-0.1 v0.1l0,0c0.1,0.4-0.1,0.9-0.5,1l0,0C122.6,117.6,122.3,117.5,121.9,117.3L121.9,117.3z M124.1,119.8c-0.4,0-0.7-0.3-0.8-0.7 c0-0.4,0.3-0.7,0.7-0.7c0.3-0.1,0.6,0.1,0.7,0.4v0.1C124.7,119.3,124.5,119.7,124.1,119.8L124.1,119.8z M124.7,121.8 c-0.2-0.3,0-0.7,0.3-0.9l0,0c0.4-0.2,0.8-0.1,1,0.3c0,0.1,0,0.1,0,0.2c0,0.6-0.2,0.9-0.5,0.8C125.2,122.4,124.9,122.1,124.7,121.8 L124.7,121.8z M126.7,124.8l-0.5-0.2c-0.2-0.1-0.3-0.2-0.3-0.4c0-0.6,0.2-1,0.7-1.2c0.2-0.1,0.5,0,0.7,0.1s0.3,0.4,0.3,0.6v-0.1v0.1 l0,0l0,0l0,0c0,0.1,0,0.1,0,0.2c0,0.2-0.1,0.4-0.2,0.6C127.1,124.8,126.9,124.9,126.7,124.8L126.7,124.8z M129.2,126.3l-0.4,0.9 c-0.2,0.1-0.3,0.2-0.5,0.3c-0.3,0.1-0.7,0-0.9-0.2c-0.3-0.2-0.4-0.5-0.4-0.9c0-0.5,0.3-0.9,0.8-1.1 C128.4,125.2,129.1,125.6,129.2,126.3C129.2,126.3,129.2,126.2,129.2,126.3L129.2,126.3z M129.5,123c-0.1,0.1-0.2,0.2-0.4,0.2 c-0.1,0-0.2,0-0.3,0c-0.2-0.2-0.3-0.6-0.1-0.9c0.1-0.1,0.4-0.1,0.5-0.1s0.4,0.2,0.4,0.3l0,0C129.6,122.6,129.6,122.8,129.5,123 L129.5,123z M129.7,125.2c-0.1-0.3,0.1-0.6,0.3-0.8c0.2-0.2,0.6-0.2,0.8-0.1s0.4,0.3,0.4,0.6l0,0c0,0.6-0.3,0.9-0.6,0.9 C130.1,125.7,129.8,125.5,129.7,125.2L129.7,125.2z M131.9,128.4l-0.8-0.3l-0.2-0.6c0-0.7,0.4-1.1,0.8-1.1l0.6,0.1l0.5,0.6l0,0 c0,0.1,0,0.2,0,0.2C132.8,127.9,132.3,128.2,131.9,128.4L131.9,128.4z M133.9,130.6c-0.2,0.2-0.6,0.3-0.9,0.2 c-0.3-0.1-0.9-0.2-0.8-0.9c0-0.5,0.3-0.9,0.8-1.1c0.5-0.1,1,0.2,1.2,0.7c0,0,0,0,0,0.1C134.2,129.9,134.1,130.3,133.9,130.6 L133.9,130.6z M133.9,120.2c-0.2,0-0.4,0-0.6-0.2c-0.1-0.2-0.1-0.4,0-0.6c0.1-0.1,0.5-0.1,0.6,0s0.4,0.3,0.4,0.5 C134.2,120.1,134,120.2,133.9,120.2L133.9,120.2z M134.9,116.6c-0.4,0.1-0.8-0.1-1.1-0.7c0-0.4,0-1,0.6-1.2c0.4,0,0.7,0.1,1,0.3 c0.1,0.1,0.2,0.3,0.1,0.4v0.1c0,0.1,0,0.1,0,0.2c0,0.2-0.1,0.4-0.2,0.5C135.3,116.5,135.1,116.6,134.9,116.6L134.9,116.6z M135.5,118.5c-0.1-0.3,0.1-0.7,0.4-0.8c0.3-0.1,0.6,0.1,0.7,0.4c0,0,0,0,0-0.1c0,0,0,0.1,0.1,0.1l0,0c0.1,0.1,0.1,0.2,0.1,0.2 c0,0.2-0.1,0.4-0.3,0.5c-0.1,0.1-0.2,0.1-0.3,0.1C135.9,119,135.6,118.9,135.5,118.5C135.5,118.6,135.5,118.5,135.5,118.5 L135.5,118.5z M137.8,130.6L137.8,130.6l-0.1,0.6c-0.2,0.2-0.4,0.3-0.6,0.5l-1-0.3c-0.1-0.2-0.1-0.4-0.2-0.5c-0.1-0.3,0-0.6,0.2-0.8 s0.4-0.3,0.7-0.3C137.2,129.8,137.6,130.2,137.8,130.6L137.8,130.6C137.7,130.6,137.8,130.7,137.8,130.6L137.8,130.6z M138.5,117.6 c-0.4,0-0.9-0.3-0.8-0.7c-0.1-0.3,0-0.6,0.2-0.8c0.3-0.2,0.6-0.2,0.9-0.1c0.2,0.1,0.3,0.4,0.3,0.6v0.1 C139.1,117.2,138.9,117.5,138.5,117.6L138.5,117.6z M140,119.8c-0.1,0.1-0.2,0.2-0.3,0.1c-0.2-0.1-0.4-0.3-0.6-0.4 c-0.1-0.2-0.1-0.5,0.1-0.6c0.2-0.2,0.6-0.2,0.8,0c0.1,0.1,0.1,0.2,0.2,0.3C140.4,119.4,140.2,119.7,140,119.8L140,119.8z M142.8,117.7l-0.4,0.8c-0.1,0.1-0.1,0.1-0.2,0.1c-0.4,0-0.7-0.3-0.7-0.6c-0.1-0.4,0.1-0.8,0.5-0.9l0,0c0.2,0,0.3,0,0.4,0.1 L142.8,117.7C142.8,117.7,142.8,117.6,142.8,117.7L142.8,117.7z M143.9,120.6c-0.1,0.2-0.4,0.3-0.6,0.2c-0.1,0-0.2,0-0.2-0.1 c-0.2-0.2-0.2-0.5-0.1-0.7c0.1-0.2,0.4-0.3,0.6-0.3c0.1,0,0.2,0.3,0.3,0.4C143.9,120.3,143.9,120.4,143.9,120.6L143.9,120.6z M144.6,117.1c-0.4,0.1-0.8-0.1-1.1-0.6c-0.1-0.4,0.2-0.9,0.6-1l0.9,0.3l0.2,0.5C145.2,116.7,144.9,117,144.6,117.1L144.6,117.1z M146.2,119.2c-0.1,0.1-0.3,0.2-0.5,0.2s-0.4-0.1-0.5-0.3c-0.1-0.1-0.1-0.2-0.1-0.3c0-0.2,0.1-0.4,0.3-0.5s0.4-0.1,0.6,0l0.1,0.2 C146.3,118.7,146.3,119,146.2,119.2L146.2,119.2z M106.8,120.7c-0.1,0.2-0.4,0.3-0.6,0.3c-0.3-0.1-0.5-0.3-0.7-0.4 c-0.1-0.5,0.1-1,0.6-1.2c0.4,0,0.8,0.3,0.8,0.7l0,0c0,0.1,0,0.1,0,0.2C107,120.4,106.9,120.5,106.8,120.7L106.8,120.7z M118.2,129.8 L118.2,129.8C118.1,129.8,118.1,129.8,118.2,129.8c-0.3,0.4-0.5,0.4-0.9,0.4c-0.4-0.2-0.5-0.7-0.3-1.1l0,0c0.1-0.2,0.3-0.3,0.5-0.3 c0.3,0,0.5,0.2,0.6,0.5c0,0.1,0,0.2,0,0.2c0,0.1-0.1,0.3-0.2,0.4C118,129.7,118.1,129.8,118.2,129.8L118.2,129.8z M122.9,133.3 c0,0.1-0.2,0.1-0.3,0.1c-0.2,0-0.3-0.1-0.4-0.3c-0.1-0.3,0-0.6,0.2-0.8c0.1-0.1,0.3,0,0.4,0.1s0.2,0.3,0.2,0.4L122.9,133.3z M126.9,133.8L126.9,133.8c0,0.2,0,0.5-0.6,0.7c-0.2,0-0.7,0-0.7-0.4c-0.1-0.3,0-0.6,0.2-0.8s0.5-0.2,0.8-0.1 c0.2,0.1,0.3,0.3,0.3,0.5C126.9,133.7,126.9,133.8,126.9,133.8L126.9,133.8z M130.4,135.3c-0.2,0.1-0.4,0.1-0.5,0.2 c-0.3,0.1-0.5-0.1-0.6-0.4c-0.1-0.5,0.1-1,0.6-1.2c0.3,0,0.7,0.2,0.7,0.7L130.4,135.3z M134,136.2L134,136.2c0,0-0.2,0.1-0.4,0.1 s-0.3,0-0.4-0.1c-0.1-0.2-0.1-0.4-0.1-0.6c0-0.1,0.1-0.2,0.2-0.3c0.2-0.1,0.5-0.1,0.6,0.2v0.1c0,0,0,0.1,0,0S134.3,135.8,134,136.2 L134,136.2z M148.6,117.7c-0.1,0.2-0.3,0.3-0.6,0.4c-0.3,0-0.6-0.3-0.7-0.6c-0.1-0.2,0-0.5,0.2-0.6c0.2-0.2,0.6-0.2,0.8-0.1 s0.3,0.3,0.3,0.5C148.7,117.5,148.7,117.6,148.6,117.7L148.6,117.7z M149.6,120.3c-0.1,0.1-0.2,0.1-0.4,0.1 c-0.2-0.1-0.3-0.2-0.4-0.4c0-0.2,0.1-0.5,0.3-0.6s0.4-0.1,0.5,0c0.2,0.2,0.2,0.4,0.2,0.6C149.9,120.1,149.7,120.2,149.6,120.3 L149.6,120.3z M150.9,116.6c-0.1,0.1-0.3,0.2-0.5,0.2c-0.4,0.1-0.7-0.1-0.9-0.4c0-0.1,0-0.2,0-0.3v-0.3c0-0.3,0-0.7,0.5-0.8 c0.3-0.1,0.6,0,0.8,0.1s0.3,0.3,0.3,0.6l0,0v0.1c0,0,0,0,0-0.1C151.2,116,151.2,116.3,150.9,116.6L150.9,116.6z M152.3,118.4 l-0.3,0.5c-0.1,0.1-0.1,0.1-0.3,0.1c-0.5,0-0.6-0.2-0.6-0.4s0.1-0.6,0.2-0.6l0.5-0.1l0.4,0.3C152.4,118.3,152.4,118.2,152.3,118.4 L152.3,118.4z M154.6,117.4c-0.1,0.2-0.3,0.3-0.6,0.3c-0.1,0-0.2-0.1-0.3-0.1l-0.4-0.4c-0.1-0.2,0-0.5,0.1-0.7 c0.2-0.2,0.6-0.3,0.8-0.1c0.2,0.1,0.4,0.4,0.4,0.6v-0.1v0.1l0,0v0.1C154.7,117.2,154.7,117.3,154.6,117.4L154.6,117.4z M157,116.1 c-0.1,0.2-0.3,0.3-0.5,0.3c-0.2,0.1-0.5,0-0.7-0.1s-0.3-0.4-0.4-0.7c-0.1-0.3,0-0.6,0.2-0.8c0.3-0.2,0.7-0.3,1-0.2 c0.3,0.1,0.5,0.4,0.4,0.7l0,0c0,0.1,0,0.1,0,0.2C157.2,115.7,157.2,115.9,157,116.1L157,116.1z M157.3,117.8c0,0.1,0.2,0.6,0.4,0.6 C157.3,118.4,157.3,117.8,157.3,117.8L157.3,117.8z M157.8,118.1c-0.1,0.2-0.2-0.1-0.2-0.2C157.8,117.7,157.9,117.8,157.8,118.1 L157.8,118.1z M160.6,116.9c-0.1,0.1-0.2,0.2-0.3,0.3c-0.2,0.1-0.4,0.1-0.6,0c-0.2-0.1-0.3-0.3-0.3-0.5c-0.1-0.2,0-0.5,0.2-0.6 c0.2-0.2,0.5-0.2,0.7-0.1s0.3,0.3,0.3,0.5v-0.1v0.1l0,0v0.1C160.7,116.7,160.7,116.8,160.6,116.9L160.6,116.9z M162.9,115.8 c-0.1,0.1-0.3,0.2-0.4,0.1c-0.2,0.1-0.5,0-0.7-0.1s-0.2-0.3-0.3-0.5c-0.1-0.4,0.1-0.8,0.5-1l0,0c0.4-0.2,0.8,0.2,1,0.4 c0.1,0.1,0.1,0.1,0.1,0.2C163.2,115.2,163.1,115.6,162.9,115.8L162.9,115.8z M163.3,117.5C163.3,117.5,163.3,117.4,163.3,117.5 L163.3,117.5L163.3,117.5C163.3,117.4,163.3,117.4,163.3,117.5c0,0.2,0.1,0.3,0.2,0.5C163.3,117.8,163.3,117.7,163.3,117.5 L163.3,117.5z M163.9,117.5L163.9,117.5c0,0.1,0,0.2-0.1,0.2h-0.1l0,0l0,0c0,0,0,0,0-0.1l0,0l0,0c0,0.1-0.1,0.1-0.1,0.1v-0.2 l0.1,0.1v-0.1v-0.1h0.1l0,0C163.8,117.4,164,117.5,163.9,117.5L163.9,117.5L163.9,117.5c0,0,0,0.1,0,0.2V117.5z M163.7,114 c0-0.1,0-0.2,0-0.4c0-0.4,0-1,0.6-1.2c0.4,0,0.7,0.1,1,0.4c0.1,0.2,0.2,0.3,0.2,0.5c0,0.1,0,0.1,0,0.2s0,0.1,0,0.2 c0,0.4-0.3,0.8-0.7,0.9C164.4,114.8,163.9,114.5,163.7,114L163.7,114z M166.1,116.8c-0.3,0-0.6-0.2-0.7-0.5 c-0.2-0.2-0.1-0.6,0.2-0.7c0,0,0,0,0.1,0c0.3-0.2,0.7,0,0.9,0.3c0,0.1,0,0.2,0,0.3C166.6,116.3,166.5,116.7,166.1,116.8L166.1,116.8 z M168.7,115.3c-0.1,0.1-0.1,0.1-0.3,0.1c-0.3,0-0.6-0.1-0.8-0.4c-0.1-0.2-0.1-0.5,0.1-0.7c0.2-0.2,0.6-0.3,0.9-0.2 c0.2,0.1,0.4,0.3,0.4,0.6L168.7,115.3z M171,114c-0.2,0.1-0.6,0.2-1.1-0.4c-0.1-0.3-0.1-0.6,0.1-0.8c0.3-0.2,0.6-0.3,0.9-0.2 c0.3,0.1,0.4,0.3,0.4,0.6v-0.1v0.1l0,0C171.5,113.5,171.3,113.8,171,114z M173,112.8c-0.4,0-0.8-0.3-0.9-0.7 c-0.1-0.7,0.1-1.2,0.6-1.4c0.3-0.1,0.6,0,0.9,0.3c0.1,0,0.3,0.3,0.3,0.3c0.1,0.4,0,0.8-0.2,1.2C173.5,112.7,173.2,112.8,173,112.8 L173,112.8z M174.9,114.6C174.9,114.7,174.9,114.7,174.9,114.6l-0.5,0.3c-0.1,0.1-0.3,0.1-0.4,0c-0.4-0.4-0.2-0.7-0.1-0.8 c0.2-0.2,0.5-0.3,0.8-0.1C174.9,114.1,175,114.4,174.9,114.6L174.9,114.6z M177.3,113.1c0,0.1-0.1,0.2-0.2,0.3l-0.6,0.2 c-0.1,0-0.1,0-0.2-0.1c-0.2-0.2-0.3-0.4-0.2-0.6c0-0.2,0.1-0.3,0.5-0.5c0.3,0,0.6,0.1,0.7,0.4C177.3,112.8,177.3,112.9,177.3,113.1 L177.3,113.1z M179.3,112.1c-0.2,0.1-0.4,0.1-0.6,0c-0.2-0.1-0.3-0.3-0.3-0.5c-0.1-0.3,0-0.5,0.3-0.6l0,0c0.3-0.1,0.7,0,0.8,0.3 c0,0.1,0,0.2,0,0.3C179.5,111.7,179.4,111.9,179.3,112.1L179.3,112.1z M181.6,110.7c-0.2,0.1-0.5,0.1-0.7,0 c-0.1-0.1-0.2-0.2-0.3-0.4c-0.1-0.3,0-0.6,0.2-0.8c0.2-0.2,0.6-0.2,0.8,0c0.2,0.1,0.3,0.4,0.3,0.6V110 C181.9,110.6,181.7,110.7,181.6,110.7L181.6,110.7z M184.3,109.1c-0.1,0.1-0.3,0.2-0.4,0.3c-0.4,0.1-0.8-0.1-1-0.5 c0-0.1,0-0.2,0-0.3c-0.1-0.4,0.2-0.8,0.6-1c0.3,0,0.7,0.1,0.9,0.4c0.1,0.1,0.2,0.3,0.2,0.5v0.1c0,0.1,0,0.1,0,0.2 C184.4,108.8,184.4,109,184.3,109.1L184.3,109.1z M187,110c-0.1-0.2-0.1-0.5,0.1-0.7c0,0-0.1,0.1-0.1,0.2s0,0.3,0.1,0.4 c0,0,0.1,0,0.1,0.1l-0.1-0.3c0,0.1,0.1,0.1,0.1,0.1l0,0c0-0.1,0-0.1,0.1-0.2c0.1,0,0.2,0,0.2,0.1c0,0,0,0,0.1,0.1v0.1l0,0v0.1 c-0.1,0-0.1,0-0.2,0l0,0c0,0,0,0,0-0.1l0,0l0,0l0,0c0,0.1,0,0.1,0,0.2c0.1,0.1,0.3,0.3,0.4,0.2C187.4,110.3,187.1,110.2,187,110z M190.3,108.4c-0.1,0.2-0.2,0.4-0.5,0.5c-0.2,0-0.4-0.1-0.6-0.2c-0.1-0.1-0.1-0.3-0.1-0.5s0.2-0.3,0.5-0.5c0.3,0,0.6,0.1,0.7,0.4 C190.3,108.2,190.3,108.3,190.3,108.4L190.3,108.4z M192.3,107.4c-0.1,0-0.2,0-0.3,0c-0.3,0.1-0.5-0.1-0.6-0.3 c-0.1-0.3-0.1-0.6,0.1-0.8c0.1-0.2,0.4-0.3,0.6-0.2c0.2,0.1,0.4,0.3,0.4,0.5v0.1C192.6,107,192.5,107.3,192.3,107.4L192.3,107.4z M194.5,106.1c-0.1,0-0.3,0-0.4-0.1c-0.2-0.1-0.6-0.2-0.4-0.5c-0.1-0.2-0.1-0.5,0.1-0.8c0.2-0.2,0.6-0.3,0.8-0.1 c0.3,0.1,0.5,0.4,0.5,0.7C195,105.6,194.8,106,194.5,106.1L194.5,106.1z"></path> <path d="M133.5,135.8L133.5,135.8v-0.1c0,0,0,0-0.1,0S133.4,135.7,133.5,135.8z"></path> <path class="st0" d="M116.1,113.8c0.4-0.1,0.6-0.5,0.7-0.9c-0.2-0.5-0.6-0.9-1.2-0.9c-0.4,0.1-0.7,0.7-0.7,1.1 C115.1,113.6,115.6,113.9,116.1,113.8z"></path> <path class="st0" d="M114.5,110.9c0.1,0,0.3-0.2,0.2-0.5s-0.6-0.1-0.8,0.2C114.1,110.8,114.3,110.9,114.5,110.9z"></path> <path class="st0" d="M124.1,111.6c0.1,0,0.3-0.2,0.2-0.6c-0.1-0.1-0.1-0.2-0.2-0.2C123.7,111,123.7,111.5,124.1,111.6z"></path> <path class="st0" d="M118.3,112.2c0.1-0.2,0.3-0.3,0.3-0.7s-0.3-0.6-0.6-0.7c-0.3,0.2-0.5,0.5-0.5,0.9 C117.7,112,117.9,112.3,118.3,112.2z"></path> <path class="st0" d="M112.3,112.5c0.1-0.1,0.4-0.3,0.4-0.6c-0.2-0.7-1.1-0.7-1.1,0.1C111.7,112.3,112,112.4,112.3,112.5z"></path> <path class="st0" d="M127.8,112.9c0.2-0.2,0.8-0.4,0.6-0.9s-1-0.9-1.2-0.2C126.9,112.2,127.4,112.8,127.8,112.9z"></path> <path d="M121.8,123.7L121.8,123.7L121.8,123.7L121.8,123.7z"></path> <path class="st0" d="M110,113.8c0.1-0.2,0.2-0.4,0.3-0.6c-0.2-0.3-1-0.6-0.8,0.1C109.6,113.5,109.7,113.8,110,113.8z"></path> <path class="st0" d="M113.6,115.1c0.4-0.2,0.9-0.6,0.8-1.1c-0.2-0.4-0.6-0.6-1-0.6c-0.4,0.1-0.6,0.5-0.7,0.9 C113,114.7,113.2,115.1,113.6,115.1z"></path> <path class="st0" d="M111.7,116c0.1-0.1,0.1-0.3,0.1-0.4c-0.1-0.2-0.3-0.6-0.6-0.4S111.3,115.9,111.7,116z"></path> <path class="st0" d="M178.4,107.8c0.2,0,0.3-0.3,0.3-0.6c-0.2-0.2-0.3-0.4-0.5-0.4c-0.2,0.2-0.6,0.3-0.5,0.7 S178.1,108.1,178.4,107.8z"></path> <path class="st0" d="M180.6,106.4c0.1-0.1,0.3-0.2,0.3-0.4c-0.1-0.2-0.2-0.3-0.4-0.3C179.8,105.8,180.3,106.3,180.6,106.4z"></path> <path class="st0" d="M170,109.8c0.2-0.1,0.5-0.4,0.4-0.8c-0.2-0.3-0.5-0.4-0.9-0.3c-0.2,0.1-0.3,0.3-0.3,0.5 C169.4,109.5,169.7,109.7,170,109.8z"></path> <path class="st0" d="M164.2,109.6c-0.1,0-0.2-0.2-0.3-0.2s-0.4,0.3-0.1,0.6C164,110,164,109.7,164.2,109.6z"></path> <path class="st0" d="M188.9,104.6c0.2-0.2,0.4-0.3,0.4-0.6c-0.2-0.7-1-0.4-1.1,0.1C188.4,104.3,188.6,104.8,188.9,104.6z"></path> <path class="st0" d="M133.8,112.2c0.1-0.1,0.5-0.2,0.4-0.6c-0.1-0.2-0.3-0.3-0.5-0.3c-0.2,0.1-0.4,0.3-0.3,0.6 S133.6,112.2,133.8,112.2z"></path> <path class="st0" d="M191.4,102.6c-0.1-0.4-0.6-0.2-0.5,0.2c0.1,0.1,0.2,0.2,0.3,0.2S191.5,102.8,191.4,102.6z"></path> <path class="st0" d="M201.1,99.7c0.1,0.2,0.4,0.4,0.6,0.4c0.3,0,0.4-0.4,0.4-0.7C202,98.6,201,99,201.1,99.7z"></path> <path class="st0" d="M150,111.9c-0.2-0.1-0.3-0.4-0.5-0.4s-0.5,0.6-0.2,0.8C149.5,112.7,149.9,112.2,150,111.9z"></path> <path class="st0" d="M143.6,112.9c0.3,0,0.6-0.3,0.5-0.7c-0.1-0.3-0.5-0.5-0.8-0.3c-0.2,0.1-0.3,0.2-0.4,0.4 C143,112.5,143.2,112.9,143.6,112.9z"></path> <path class="st0" d="M153.4,113.7c0.4-0.2,0.6-0.7,0.5-1.1c-0.2-0.2-0.5-0.7-1-0.6c-0.2,0.2-0.6,0.5-0.5,1S152.9,113.8,153.4,113.7z "></path> <path class="st0" d="M137.4,113.5c0.4,0,0.7-0.4,0.7-0.8l0,0c0-0.3-0.4-0.4-0.7-0.6c-0.4,0.1-0.6,0.5-0.5,0.9 C136.9,113.1,137.2,113.5,137.4,113.5z"></path> <path class="st0" d="M161.6,111.6c0.2-0.1,0.6-0.3,0.5-0.7s-0.4-0.7-0.7-0.4s-0.5,0.2-0.4,0.6C161,111.3,161.3,111.6,161.6,111.6z"></path> <path class="st0" d="M155.5,111.9c0.2-0.1,0.4-0.2,0.4-0.6c-0.2-0.6-0.9-0.2-0.9,0.2C155.2,111.6,155.3,112,155.5,111.9z"></path> <path class="st0" d="M135.9,33c-0.5,0.4-2.3,2.3-2.9,1.5c-0.4-0.6,0.5-1.3,0.5-1.3l-7.4-1l-1.3,3.9l1.6,1.1l-1.8,10.5l4.7,3l4.2-4.7 l-1.7-1.7c0,0-1.2,1.2-1.6,0.1c-0.1-0.3,0.6-2.1,1-3.5s1.5-3.9,2.4-2.4c0.6,1.2,1.2,2.4,1.5,3.7l2.7-3.4l-0.5-5 C137.2,34,136.4,33.5,135.9,33z"></path> <path class="st0" d="M199.1,31.6c-0.6,0.4-2.6,2-3,1.2c-0.3-0.6,0.6-1.2,0.6-1.2l-6.4-1.6l-1.7,3.6l1.5,1.2l-2.9,10.1l4.3,3.4 l4.6-4.1l-1.6-1.8c0,0-1.3,1-1.6-0.1c0-1.1,0.3-2.3,0.9-3.3c0.6-1.3,1.6-3.1,2.3-2.1c0.6,1.2,0.9,2.4,1.1,3.7l3-3v-4.9 C200.3,32.7,199.6,32.1,199.1,31.6z"></path> <path class="st0" d="M119.3,23.5c-1.8,0.1-3.1,1.6-3,3.4s1.6,3.1,3.4,3c1.7-0.1,3-1.5,3-3.2C122.6,24.9,121.1,23.4,119.3,23.5z M118.8,45.5c-0.6-0.6,2.4-10,2.4-10l-7.7-2.1l-1,3.7l1.6,1.6l-1,11.1c0,0,4.3,2.6,4.5,2.6s3.8-5.6,3.8-5.6l-1.4-1.6 C120,45.1,119.4,46.2,118.8,45.5L118.8,45.5z"></path> <path class="st0" d="M183.6,20.8c-1.8-0.1-3.3,1.4-3.4,3.2c-0.1,1.9,1.3,3.5,3.2,3.6s3.5-1.3,3.6-3.2c0.1-1.9-1.3-3.5-3.2-3.6 C183.7,20.8,183.6,20.8,183.6,20.8z M183.1,42.4c-0.6-0.6,2.4-9.7,2.4-9.7l-7.1-2.2l-1,3.6l1.6,1.6l-1.4,10.7c0,0,4.1,2.7,4.3,2.7 s3.9-5.4,3.9-5.4l-1.5-1.6C184.4,42,183.8,43,183.1,42.4L183.1,42.4z"></path> <path class="st0" d="M162.4,22l-7.6,14.4l-0.7-0.6c-0.1-4.1,0.1-8.2,0.4-12.3l-7.5,4.6l-0.7,5.7c-0.5,0.6-0.9,1.2-1.3,1.8 c0-1.9-0.4-15.3-0.4-15.3l-7.1,4.9l0.2,3.1l1.6,0.2c0.8,6.8,1.4,15.6,1.6,18.1c1.5,1,3,1.8,4.7,2.4c0-0.2,3.8-8.7,3.8-8.7l1.4,9 l5.1-2.6c0,0,7.8-18.3,9.2-20.5c0.9-0.2,1.9-0.4,2.8-0.4l0.6-4.4L162.4,22z"></path> <path class="st0" d="M172.1,41.9c0.8-3.5,1.8-7,3.1-10.3l-6.7-1.3l-3.1,3.5l1.6,1c0.3-0.2,0.5-0.5,0.8-0.7c0.8-0.5,1.1,0.6,0.5,1.5 c-3,2.1-6.6,4.5-9.1,7.8l2.4,5.5l6.4-2l3,2.4l3.8-4.7c0,0-0.8-1.4-1.2-2.1C172.4,43.7,171.9,42.7,172.1,41.9z M167.5,43.7 c-1.2,0.5-2.5,1-3.7,1.4c-0.4,0.1-0.9,0.3-0.9-0.1c0-1.5,5.2-4.9,5.2-4.9L167.5,43.7z"></path> <path class="st0" d="M108.1,50.5c-0.6-4.4,0.4-23.6,0.6-23.9c-0.8,0.2-7.2,2.1-7.2,2.1l-8.2,21.6L91.2,50l-1.5,3.6l6.2,4l3.2-8.5 l3.4,0.8c0.3,3.4,1.1,7,1.1,7l7.1-3.5v-3.3C110.6,50.2,108.6,50.5,108.1,50.5z M102.1,45.4l-1.9-0.4l2.4-6.7L102.1,45.4z"></path> <g> <path class="st0" d="M182.9,142.1c-0.3-0.1-0.7,0-0.9,0.2c-0.3,0.2-0.5,0.5-0.6,0.8c0,0.7,0.4,1.4,1.1,1.6c0.3,0.1,0.7,0,0.9-0.2 c0.3-0.2,0.5-0.4,0.5-0.8l0,0c0-0.1,0-0.1,0-0.2c0-0.3-0.1-0.6-0.3-0.8C183.5,142.4,183.2,142.2,182.9,142.1z"></path> <path class="st0" d="M121.8,148.7H121c-0.4,0-0.6,0-0.7,0.3c-0.5,1.4-0.2,1.8,0.7,2.1s1.7,0.4,2-0.3c0.1-0.8-0.1-1.6-0.7-2.1 C122.2,148.6,122,148.6,121.8,148.7z"></path> <path class="st0" d="M169.5,151.4c-0.8,0.4-1.1,1.2-0.8,1.8l0,0c0.4,0.7,1.3,0.8,2,0.4l0,0c0.8-0.4,1.2-1.1,0.8-1.8 C171.1,151.2,170.2,151,169.5,151.4z"></path> <path class="st0" d="M168.5,148.7C168.6,148.7,168.6,148.7,168.5,148.7c0.6-0.2,1-0.8,0.8-1.4c0-0.1,0-0.1-0.1-0.2 c-0.3-0.5-0.9-0.6-1.4-0.4c0,0,0,0-0.1,0c-0.6,0.2-0.9,0.8-0.7,1.3l0,0c0,0.1,0,0.1,0.1,0.2C167.5,148.8,168.1,148.9,168.5,148.7z"></path> <path class="st0" d="M130.2,149.6C130.2,149.6,130.1,149.6,130.2,149.6c-1.2-0.4-1.9,0.6-2.1,1.4c-0.4,0.9,0,1.9,0.9,2.2h0.1 c1.2,0.3,1.8-0.7,2-1.5l0,0C131.5,151,131.1,150,130.2,149.6z"></path> <path class="st0" d="M123.3,145.8c-1.1-0.5-1.8-0.3-2.3,1.2c-0.1,0.2-0.2,0.4,0.1,0.5c0.2,0.1,0.5,0.1,0.7,0.1l1-0.1 c0.4-0.1,1-0.3,1.2-0.7S123.8,145.9,123.3,145.8z"></path> <path class="st0" d="M207.8,97.6C203,125,177.7,146,147.1,146c-26.2,0-48.6-15.4-57.4-37h-9.2c8.5,30.2,35.1,52.3,66.6,52.3 c36.3,0,66.1-29,69.2-66.3L207.8,97.6z M100.6,137.3l-0.7-0.7c0,0,0,0,0-0.1c0,0,0,0,0-0.1l1.3-2.1l0.2-0.3l-0.3,0.2l-2.1,1.2h-0.1 l-0.7-0.7v-0.1l1.9-3.8c0,0,0-0.1,0.1-0.1h0.1l0.8,0.8c0,0,0,0,0,0.1l0,0l-1.2,2.1l-0.1,0.2l2.2-1.3h0.1l0.8,0.8c0,0,0,0,0,0.1 c0,0,0,0,0,0.1l-1.3,2l-0.1,0.2l0.2-0.1l2.1-1.2h0.1l0.7,0.8v0.1c0,0.1,0,0.1,0,0.2L100.6,137.3 C100.7,137.3,100.7,137.3,100.6,137.3z M103.7,140L103.7,140l-0.8-0.7c0,0,0-0.1,0-0.2l2.7-3h0.1h0.1l0.8,0.7l0,0v0.1L103.7,140 C103.8,140,103.7,140,103.7,140z M107.1,142.7c0,0-0.1,0-0.2,0l-0.8-0.6c0,0,0,0,0-0.1c0,0,0,0,0-0.1l2-2.5l-1.1-0.8c0,0,0,0,0-0.1 c0,0,0,0,0-0.1l0.4-0.6h0.1l3.1,2.4c0,0,0,0.1,0,0.2l-0.4,0.6c0,0,0,0-0.1,0l0,0H110l-1.1-0.8L107.1,142.7z M115.2,143.4l-2.2,3.4 c0,0,0,0-0.1,0h-0.1l-0.8-0.6v-0.1c0,0,0,0,0-0.1l0.9-1.4l-1.4-0.9l-0.9,1.4l0,0h-0.1l-0.8-0.5c0,0,0,0,0-0.1v-0.1l2.2-3.4 c0,0,0,0,0.1,0h0.1l0.9,0.5v0.1c0,0,0,0,0,0.1l-1,1.3l1.5,0.9l0.8-1.2c0,0,0,0,0.1,0h0.1l0.8,0.6 C115.2,143.3,115.2,143.4,115.2,143.4z M126,147.1c-0.4,1-1.9,1.1-2,1.4c-0.1,0.3,1.4,1.8,0.8,3.4c-0.3,0.9-1.3,1.5-3.2,0.7 l-3.4-1.4c-0.3-0.1-0.7-0.1,0.7-3.5c1.8-4.6,2.3-4.2,2.5-4.1l2.9,1.2C126.2,145.7,126.2,146.6,126,147.1z M132.6,152.3 c0,0.1,0,0.1-0.1,0.2c-0.3,1.6-1.8,2.7-3.4,2.5c-0.1,0-0.2,0-0.3-0.1c-1.7-0.5-2.6-2.2-2.2-3.9c0-0.1,0-0.1,0-0.2 c0.3-1.6,1.8-2.7,3.5-2.5c0.1,0,0.2,0,0.3,0.1C132.1,148.9,133,150.6,132.6,152.3z M139.5,153.5c-0.5,3.6-0.8,3.4-1.7,3.3 c-1.3-0.2-0.2-0.6-0.9-0.7c-0.2,0.1-0.4,0.1-0.6,0.2c-0.3,0.1-0.6,0.1-0.9,0.1c-1-0.2-1.8-0.8-1.4-3.6c0-0.2,0.5-3.1,1-3l1.1,0.2 c0.1,0,0.5,0,0.5,0.2c-0.5,0.9-0.9,1.9-1,2.9c-0.1,0.5-0.3,2,0.7,2.2c0.4,0.1,1.3,0.1,1.6-2c0.1-1,0.1-1.9,0-2.9 c0-0.1,0.3-0.1,0.4,0l1.2,0.1C140,150.5,139.7,152.6,139.5,153.5z M147.1,153.6c-0.2,3.9-0.5,3.7-0.9,3.7l-1.1-0.1 c-0.2,0-0.4,0-0.4-0.2c0.4-1.1,0.7-2.2,0.8-3.4c0-0.7,0-1.6-0.8-1.6c-0.5,0-1.4,0.2-1.5,2.2c0,1,0.1,1.9,0.2,2.8 c0,0.1-0.2,0.1-0.3,0.1h-1c-0.4,0-0.6,0.2-0.5-2.5c0.2-4.5,0.6-4.2,1.5-4.2c0.4,0,0.9,0,0.9,0.2s-0.1,0.2-0.1,0.4 c0,0.1,0.1,0.2,0.2,0.2l0,0c0.5-0.2,1-0.3,1.6-0.4C145.8,150.9,147.2,151,147.1,153.6z M151.7,157.2c-1.5,0.1-2.9-1-3-2.5 c0-0.1,0-0.2,0-0.3l0,0c-0.2-1.9,1.1-3.6,3-3.9c0.1,0,0.1,0,0.2,0c1-0.1,1.8,0.3,1.9,0.9c0,0.3-0.2,0.9-0.7,0.9 c-0.3,0-0.3-0.7-1.3-0.7c-1.3,0.1-1.6,1.5-1.6,2.3c0,0.9,0.7,1.6,1.6,1.7c0.1,0,0.2,0,0.2,0c0.7,0,1.3-0.5,1.7-1.1 c0.1,0,0.2,0.2,0.2,0.6C154,156.3,153.1,157.1,151.7,157.2z M154.9,148.9L154.9,148.9L154.9,148.9c-0.1-0.4,0.4-0.8,0.8-0.8 c0.5-0.1,1,0.1,1,0.5s-0.3,0.7-0.8,0.8C155.4,149.4,155,149.3,154.9,148.9L154.9,148.9z M157.3,156.4l-0.8,0.2 c-0.6,0.1-0.6,0.2-1.1-3.2s-0.2-3.1,0.2-3.1l0.7-0.1c0.5-0.1,0.5-0.1,0.5,0.1c0,0.6,0,1.2,0.1,1.8c0.2,1.4,0.5,2.7,1,4 C157.9,156.4,157.6,156.4,157.3,156.4z M164.6,154.9l-1,0.2c-0.1,0-0.4,0.1-0.5-0.1c0.1-1.2,0.1-2.3-0.2-3.5 c-0.2-0.7-0.4-1.5-1.2-1.3c-0.4,0.1-1.3,0.6-0.9,2.5c0.3,0.9,0.6,1.8,1,2.7c0,0.1-0.2,0.2-0.3,0.2l-1,0.3c-0.4,0.1-0.6,0.3-1.2-2.2 c-1-4.4-0.5-4.2,0.4-4.4c0.4-0.1,0.8-0.3,0.9,0s-0.1,0.2,0,0.4c0,0.1,0.1,0.2,0.2,0.1l0,0c0.4-0.3,0.9-0.6,1.4-0.8 c0.3-0.1,1.7-0.4,2.3,2.2C165.4,154.9,165,154.8,164.6,154.9z M173.1,153.1c-0.3,0.7-0.9,1.3-1.6,1.6c-1.5,0.7-3.1,0.6-3.8-0.5 c-0.3-0.4-0.3-0.9-0.2-1.4c-0.5,0-0.9-0.3-1.1-0.7c-0.4-1.1,0.9-1.7,0.8-1.9c-0.1-0.2-1-0.3-1.4-1.3c-0.4-1.2,0.3-2.3,1.8-2.9 c0.2-0.1,0.5-0.1,0.7-0.2c0.5-0.2,0.5-1.2,1-1.3c0.5,0,0.9,0.2,1.2,0.5c0.1,0.3-1.1,0.4-0.9,0.9c0.1,0.3,0.8,0.3,1.1,1.3 s-0.1,2.3-1.8,2.9c-0.6,0.2-1.3,0.8-1.2,1.1c0.1,0.1,0.2,0.2,0.3,0.2c0.3-0.1,0.5-0.4,1-0.7l0,0c1.3-0.8,3-0.4,3.8,0.8l0,0 C173.2,151.8,173.3,152.5,173.1,153.1z M180.2,147.1c-0.3,0.5-0.7,0.8-1.2,1.1s-1,0.4-1.6,0.4c-0.4,0-0.8-0.3-1-0.7v-0.1l0.9-0.5 h0.1l0.3,0.2c0.3,0,0.6,0,0.8-0.2l0.5-0.3c0.2-0.2,0.2-0.4,0.1-0.5c0-0.1-0.1-0.1-0.2-0.1l-0.7,0.2l-0.5,0.2l-1.1,0.3 c-0.4,0-0.8-0.2-0.9-0.6c-0.2-0.4-0.2-0.8,0-1.1c0.3-0.5,0.6-0.8,1.1-1c0.4-0.2,0.9-0.4,1.4-0.4c0.4,0,0.8,0.2,1.1,0.6 c0,0,0,0.1,0,0.2l-0.9,0.5h-0.1c-0.1-0.2-0.3-0.3-0.5-0.2l-0.5,0.2l-0.5,0.4c-0.1,0.1-0.1,0.2,0,0.3c0,0.1,0.1,0.1,0.3,0.1l0.6-0.2 l0.8-0.3l0.9-0.2l0,0c0.4,0,0.7,0.3,0.8,0.6C180.4,146.3,180.4,146.8,180.2,147.1z M185,143.9c-0.5,1.1-1.6,1.8-2.8,1.9 c-0.7,0-1.3-0.4-1.6-1c-0.4-0.5-0.5-1.2-0.3-1.9c0.2-0.6,0.6-1,1.1-1.4s1.1-0.5,1.7-0.5c0.7,0,1.3,0.4,1.6,1 c0.3,0.4,0.4,0.8,0.4,1.3C185.1,143.5,185.1,143.7,185,143.9z M189.8,140.7L189.8,140.7l-2.7,2.2c0,0-0.1,0-0.2,0l-2.5-3.2 c0,0,0-0.1,0-0.2l0.8-0.6h0.1c0,0,0,0,0.1,0l2,2.5l1.8-1.4h0.1L189.8,140.7C189.8,140.6,189.8,140.6,189.8,140.7z M193.5,137.2 C193.5,137.3,193.5,137.3,193.5,137.2l-2.7,2.6h-0.1l-2.8-3c0,0,0-0.1,0-0.2l2.6-2.4l0,0h0.1l0.5,0.5c0,0,0,0,0,0.1v0.1l-1.8,1.6 l0.4,0.5l1.6-1.5c0,0,0.1,0,0.2,0l0.5,0.5v0.1v0.1l-1.6,1.5l0.6,0.6l1.9-1.7l0,0h0.1L193.5,137.2 C193.6,137.2,193.6,137.2,193.5,137.2z M196.8,133.3c-0.1,0.5-0.4,1-0.8,1.4c-0.4,0.4-0.8,0.7-1.3,0.9c-0.4,0.1-0.9,0-1.2-0.3 c0,0,0,0,0-0.1v-0.1l0.7-0.7h0.1l0.4,0.1c0.3-0.1,0.5-0.2,0.7-0.4l0.3-0.5c0.2-0.3,0-0.5,0-0.5s-0.1,0-0.3,0l-0.6,0.4l-0.4,0.3 l-1,0.6c-0.4,0.1-0.8,0-1.1-0.3s-0.4-0.7-0.4-1.1c0.1-0.5,0.3-1,0.7-1.3c0.3-0.4,0.7-0.6,1.2-0.8c0.4-0.1,0.9,0,1.2,0.3 c0,0,0,0,0,0.1v0.1l-0.7,0.7h-0.1c-0.2-0.1-0.4-0.1-0.5,0l-0.5,0.3L193,133c0,0.1,0,0.2,0.1,0.3c0,0,0.1,0.1,0.3,0l0.5-0.4l0.7-0.5 l0.8-0.4c0.4-0.1,0.7,0,1,0.3l0,0C196.8,132.5,196.9,132.9,196.8,133.3z"></path> </g> <path class="st0" d="M33.8,17.3v19.6c-0.1,5.2-8.5,4.3-8.5,4.3V13C25.2,13,33.6,12.1,33.8,17.3z M169.9,93.1 c-7.8,1.2-15.6,2.1-23.4,2.6l0.3,2.4c7.8-0.5,15.6-1.4,23.4-2.7L169.9,93.1z M170.7,99.9l0.3,2.1c-3.9,0.9-17.6,2.4-23.3,2.7 l-0.3-2.2C155.1,102,162.9,101.1,170.7,99.9L170.7,99.9z M170.6,98.9c-7.8,1.2-15.6,2.2-23.3,2.7l-0.3-2.4 c7.8-0.5,15.6-1.4,23.4-2.7L170.6,98.9z M169.8,92c-7.8,1.2-15.6,2.1-23.4,2.6l-0.3-2.3c0,0,4.3-0.8,4-4.6c-0.1-0.6-0.8-6.5-1-7.4 c-0.5-2.8-3.8-1.9-3.8-1.9s-1.3-10.6-1.2-10.7c0.9-0.1,3.4-0.4,3.1-3.1c-0.3-2.4-1.1-8-1.1-8l14.7-1.7c0,0,0.6,5.6,0.9,8.1 c0.3,2.8,2.8,2.3,3.7,2.2c0.1,0,1.4,10.6,1.4,10.6s-3.4,0-3.2,2.9c0.1,0.9,0.8,6.8,0.9,7.4c0.7,3.7,5,3.4,5,3.4L169.8,92z M41.4,51.5H3.1V40.9c0,0,6.4,0,6.7-5.4V18.7c-0.3-5.4-6.7-5.4-6.7-5.4V2.7h38.3c0,0,7.6,0.1,7.9,8v32.8 C49,51.5,41.4,51.5,41.4,51.5z M33.8,17.3c-0.1-5.2-8.5-4.3-8.5-4.3v28.2c0,0,8.4,0.9,8.5-4.3V17.3z M51.5,43v8h12.9v-7.9 c-1,0-1.8-0.9-1.7-1.9v-4.7c0-3.8,3.9-3.9,3.9,0.2v1.4h7.2v-3.4c0-8.6-7.6-9.2-11.7-4.9v-2.6H51.5v6.4c1,0,1.8,0.9,1.7,1.9v5.6 C53.3,42.1,52.6,42.9,51.5,43C51.6,43,51.5,43,51.5,43z M67.3,51h6.9v-7.8h-6.9V51z M25.2,13v28.2c0,0,8.4,0.9,8.5-4.3V17.3 C33.6,12.1,25.2,13,25.2,13z M102.2,96.3l-36.5,0.2c0.4,0.8,0.8,1.6,1.3,2.4l35.2-0.2V96.3z M102.2,103.2v2.3H85.7v-2.2L102.2,103.2 z M102.2,102.2l-16.6,0.1v-0.8c-0.2,0.3-0.3,0.6-0.6,0.8l-15,0c-0.8-0.7-1.6-1.5-2.3-2.4l34.5-0.2V102.2z M71.5,103.3H84 c-3.2,2-7.2,2.4-10.7,1C72.7,104.1,72.1,103.7,71.5,103.3L71.5,103.3z M99.6,90V68.3l-13.9,0.1v4.1c-1.6-3.1-7.9-4.8-12.4-2.9 c-6.8,3-9.4,10.4-9.4,17.3c0,2.9,0.4,5.7,1.4,8.5l36.9-0.2v-2.3C100.7,92.9,99.5,91.6,99.6,90z M82.7,92.9c-2.3,0-4.1-3.4-4.1-7.6 s1.8-7.6,4.1-7.6s4.1,3.4,4.1,7.6S85,92.9,82.7,92.9z M61.2,92.8c0,0-6.9,0.1-7-4.2s-0.1-14.2,0-17.4c0.2-5.7,6.7-5.5,6.7-5.5V55.5 H41.1L32,72.3l-9.2-16.8H3v10.3c0,0,6.8-0.2,6.9,5.5c0.1,3.3,0,13.1,0,17.4s-7.2,4.2-7.2,4.2v2.9l25.2-0.1v-2.5c0,0-3.4-0.1-3.4-3 V84l7.5,9.5l7.4-9.5v6.1c0,2.9-3.4,3-3.4,3v2.5l25.2-0.1V92.8z M2.7,103.7l25.2-0.1v2.3H2.7V103.7z M2.7,96.8l25.2-0.1v2.4L2.7,99.2 V96.8z M2.7,100.2l25.2-0.1v2.4l-25.2,0.1C2.7,102.6,2.7,100.2,2.7,100.2z M61.2,98.9L36,99v-2.4l25.2-0.1V98.9z M61.2,103.4v2.5H36 v-2.4L61.2,103.4z M61.2,102.4L36,102.5v-2.4l25.2-0.1V102.4z M127.1,96.2L107,96.3v2.4l20.1-0.1V96.2z M127.1,102.1l-20.1,0.1v-2.4 l20.1-0.1V102.1z M127.1,103.1v2.3H107v-2.3H127.1z M127.1,95.1L107,95.2v-2.4c1.5-0.1,2.8-1.4,2.7-2.9v-8.7 c0.1-1.6-1.2-2.9-2.7-2.9v-10h16.6v4.1c6.4-6.8,18.2-5.8,18.2,7.6c0,2.9,0,5.3,0,5.3h-11.2v-2.2c0-6.4-6-6.2-6-0.3v7.5 c-0.1,1.6,1.1,2.9,2.7,2.9L127.1,95.1z M285,50.9c0-0.1-0.1-0.2-0.1-0.4c-9.3,5.7-18.8,10.9-28.7,15.6l1,2c9.7-4.6,19-9.7,28.1-15.4 C285.3,52.1,285.2,51.5,285,50.9z M285,56.5c-8.5,5.3-17.2,10.1-26.2,14.4l-1-1.8c9.5-4.5,18.7-9.5,27.6-15c0,0.1,0,0.1,0,0.2 C285.3,55,285.2,55.7,285,56.5z M266.5,59.9c-3.5,1.8-7.1,3.6-10.7,5.3l-1.3-2.4c0,0,8.7-4.6,10.2-5.4c0.4,0.8,0.9,1.5,1.4,2.2 C266.2,59.7,266.4,59.8,266.5,59.9L266.5,59.9z M284.6,49.5c-4.1,2.6-8.5,5.1-13,7.6c0-0.4-0.1-0.7-0.3-1c-1-1.8-2.2-2.2-9.5,0.2 c-2.1,0.7-8.9,2.4-13.2-2.1c-0.9-1.1-1.7-2.3-2.3-3.6c-3-6.6,2.4-12.2,5.9-14.2c1.6-1,17.3-9,17.3-9l5.4,10.2c0,0-9.5,5-11,5.8 c-0.3-0.3-0.7-1.3-1.4-1.6c-1.6-0.5-4.8,1.3-4.7,2.8c0,0.5,0.2,1,0.6,1.4c0.6,0.5,1.9,0.8,6-0.7C278.9,39.8,282.9,45.6,284.6,49.5 L284.6,49.5z M284.4,58.1c0,0.1-0.1,0.2-0.1,0.3c-1.4,2.8-3.7,5-6.5,6.4c-1.6,0.9-14,7.4-17.4,9.2l-1.1-2.2 C267.9,67.7,276.2,63.1,284.4,58.1L284.4,58.1z M215.3,88.1c6.5-2.1,12.8-4.3,19-6.7l-0.8-2c-6.2,2.4-12.6,4.5-19.1,6.5L215.3,88.1z M253.5,73.3c-5.2,2.4-10.6,4.7-16.1,6.9l-0.8-2c5.5-2.2,10.9-4.4,16.1-6.8L253.5,73.3z M253.9,74.3l0.8,1.9c-2.8,1.4-13.3,5.8-16,7 l-0.8-2C243.3,79,248.7,76.7,253.9,74.3L253.9,74.3z M213.2,82.9c6.5-2,12.9-4.2,19.1-6.6l0.8,2.2c-6.2,2.4-12.6,4.5-19.1,6.5 L213.2,82.9z M251.2,67.3c-5.2,2.4-10.6,4.6-16.1,6.8l-4.9-12.4c-2-5.2-7.8-3.4-5.6,2.2c0.9,2.3,1.9,4.8,2.7,7 c1,2.5,3.6,1.7,3.6,1.7l1.1,2.8c-6.2,2.4-12.6,4.6-19.1,6.6l-0.8-2.2c0,0,2.3-1.5,1.4-3.9c-0.7-2-2.2-5.7-3-7.8 c-1.2-3.1-3.7-2.1-3.7-2.1l-3.6-9.3l15.4-6c0,0,1.5,3.7,1.5,3.8c1.4-3,5.7-6.6,9.8-7.6c9.3-2.3,11.9,4.5,16.9,16.3 c0.4,1.3,1.8,2.1,3.1,1.7c0.2,0,0.3-0.1,0.5-0.2L251.2,67.3z M252.4,70.4c-5.2,2.4-10.6,4.7-16.1,6.8l-0.8-2.2 c5.5-2.2,10.9-4.4,16.1-6.8L252.4,70.4z M215.6,89.1c6.5-2.1,12.8-4.3,19-6.7l0.8,2c-1.8,0.7-17.2,6.3-18.9,6.9L215.6,89.1z M189.3,88.2c-4.9,1.1-9.8,2.1-14.7,3c-0.1-0.2-0.1-0.4-0.2-0.6c-1.3-4.2-2.3-8.4-3.2-12.7c-3.2-18.9,28.6-23,31.9-10.3l2.6,9.6 L187,82.1l1.3,4.9h0.1C188.6,87.5,188.9,87.9,189.3,88.2z M185.9,77.5L192,76c0,0-0.8-3.4-1.1-4.4c-1.1-3.2-6.6-1.8-5.9,1.4 C185.1,74.2,185.9,77.5,185.9,77.5z M206.5,81.2L194,84.3l0.7,2.7c4.2-1,8.3-2.2,12.4-3.3L206.5,81.2z M208.2,87.9 c-10.3,3-20.8,5.5-31.4,7.4c0.6,0.8,1.4,1.4,2.3,1.9l0,0c10-1.9,19.9-4.3,29.6-7.2L208.2,87.9z M207.4,84.6 c-10.7,3.1-21.5,5.6-32.4,7.6l0,0c0.3,0.8,0.7,1.5,1.1,2.2l0,0c10.7-1.9,21.4-4.4,31.9-7.5L207.4,84.6z M180.6,98.1 c2.1,1,4.5,1.3,6.8,0.8c5-0.9,17-3.9,22.3-5.5l-0.6-2.3C199.7,93.9,190.2,96.2,180.6,98.1z"></path> </svg> 