<?xml version="1.0" encoding="UTF-8"?> <!-- Generator: Adobe Illustrator 24.0.1, SVG Export Plug-In . SVG Version: 6.00 Build 0) --> <svg xmlns="http://www.w3.org/2000/svg" xmlns:xlink="http://www.w3.org/1999/xlink" id="Layer_1" x="0px" y="0px" viewBox="0 0 567.6 149.7" style="enable-background:new 0 0 567.6 149.7;" xml:space="preserve"> <style type="text/css"> .st0{fill-rule:evenodd;clip-rule:evenodd;fill:#9DAAB2;} .st1{fill-rule:evenodd;clip-rule:evenodd;fill:#6E777E;} .st2{fill-rule:evenodd;clip-rule:evenodd;fill:#D3D6D8;} .st3{fill-rule:evenodd;clip-rule:evenodd;fill:#BBBBBC;} .st4{fill:#D3D6D8;} </style> <path class="st0" d="M208.1,102.2c-1.2,1.7-1.6,2.3-3.1,4.5c-4.5,7.1-8.3,12-13.5,15.3c-4.3,2.8-10.3,4.3-17.8,4.9 c-28.6,2.5-62.7,6.7-91.2,10.2c8.2-11.9,13.7-21.3,18.2-35.6c1.1-3.4,3-9,4.2-12.6c-4.7,0.1-7.3,0.2-11.9,0.4 c-2.2,6.9-4.3,11.4-6.6,18.2c-1.1,3.5-2.2,7.2-3.7,10.5c-5.5,13.2-15.1,21.6-31.3,23.9c-11.3,1.6-22.7,3.2-33.9,5L0,149.7 c3.7-4.8,8.3-11,10.9-16.9c1-2.3,3.9-8.5,4.8-10.7c2.4-5.9,7.2-19.6,9.4-25.6c6-16.7,10.6-29.3,16.4-46c4-11.7,6.4-18.1,10.5-29.7 c1.6-4.6,3.3-8.7,7.1-11.9c2.6-2.2,6-4.4,9.8-6c4-1.7,8.4-2.9,12.7-2.9h48.7c-2.2,1.5-5.6,5.9-7.7,9.1c-2.3,3.4-4.7,9.9-6.2,13.7 c-2.4,6.1-4.6,12.6-6.7,18.8c4.5-0.1,7.5-0.1,11.9-0.1c2.8-8.3,5.7-16.6,8.4-25c1.3-3.5,3.9-7.1,7.8-9.8c5.9-4,13.4-6.7,18.9-6.7h48 c-3.2,3.1-6.7,7.7-8.7,11.8c-3.4,6.7-6.5,15.4-8.9,22.5c-3.1,9.1-3.3,9.5-6.4,19c9.9-14.6,13.6-20.4,23.3-34.3 c6-8.6,20.8-14.6,29.2-14.6H287c-3.2,6.3-4,9.6-4,16.9c0,12.2,0.2,18.7,0.9,30.6c3.9-12.1,6.7-19.7,10.5-31.7 c2.7-8.7,14.2-15.9,24.3-15.9h45c-5.2,5.1-8.4,12.4-10.5,19.4c-5.4,17.5-11.4,35.2-16.9,52.7c6.6-0.1,11.9-0.1,18.6-0.2 c6-18.2,11.9-36.6,17.8-54.8c2-6.2,6.4-10.5,12.2-13.1c3.4-1.5,8.4-3.9,12.8-3.9h44.9c-5.5,6.1-7.8,12.4-9.7,18.2 c-4.8,14.4-9.7,29.3-14.4,43.7c-1.3,3.9-2.5,8.2-3.8,12c18.9,0.6,36,2.4,51.5,3.3c-3.4-1.4-6.7-3-9-4.5 c-11.4-7.3-17.6-17.6-17.6-31.3c0-8.4,3-15.3,7.7-21.1c3.9-4.8,9-8.8,14.7-12.4c11.1-7,26.3-9.3,38.9-9.3c17.5,0,32.3,2.5,49.2,6.3 c-4.6,9.2-7.9,17.9-13.1,27.9c-3.1,6-10.9,10.9-16.6,11c-2.6,0.1-3.8-0.3-5.2-0.5c13.7,7.2,21.1,15.7,21.1,32.6c0,7.3-1.7,14-5.3,20 c-3,5-9.3,12.3-16.5,16.8c-11.9,7.5-26.2,9.7-39.7,9.7c-14.1,0-32.1-2-46.1-3.2c-23.4-2-53.3-3-81.9-3.3c-46-0.5-91.6,0.8-123.9,2.6 c3-6,5.5-12.7,5.4-21.6C221.5,101.8,214.7,102,208.1,102.2z"></path> <path class="st1" d="M231.1,117.8c2.9-6,3.9-12.6,3.7-21.5c-7.7,0.3-15.6,0.7-23.3,0.9c-2.2,3.2-4.3,6.4-6.4,9.5 c-6.9,10.9-12.4,14.1-25.2,15.2c-28.6,2.5-56.7,5.2-85.8,8.7c7.9-12.3,9.6-17.9,14.1-32.2c1.1-3.4,3.8-11.3,4.9-14.9 c-6.3,0.2-12.2,0.4-18.5,0.5c-2.3,7.8-5.6,15.6-8.2,23.4c-1.1,3.5-2.3,7.1-3.7,10.5c-3.8,9.5-9.3,15.5-19.9,17.2 c-11.3,1.7-22.7,3-33.9,5l-17,2.5c3.7-4.7,6.2-9.1,8.8-15c1-2.3,2.7-6.7,3.6-8.8c2.4-5.9,5.7-16.9,7.8-22.9 C38.1,79.2,43,65,48.7,48.3c4-11.7,6.6-19,10.8-30.6c1.6-4.6,4.7-10.5,8.6-13.6c4.2-3.3,8.2-4,13.4-4h48.7c-2.2,1.5-5.6,5.9-7.7,9.1 c-2.3,3.4-4.7,9.9-6.2,13.7c-2.4,6.1-4.6,12.6-6.7,18.8c6-0.1,12-0.1,17.9-0.2c3.1-9.3,6.3-18.6,9.4-27.9c3.4-9,10.8-13.5,19.7-13.5 h48c-3.2,3.1-6.7,7.7-8.7,11.8c-3.4,6.7-6.5,15.4-8.9,22.5c-4.2,12.4-8.8,26-12.8,38.5c12.5-18.3,26-38.5,38.4-56.8 C217,9.3,223.3,4.5,233,4.5h53.8c-3.2,6.3-4,9.6-4,16.9c0,16.3,0.9,32,1.8,48.2c5.5-17,10.9-34.6,16.4-51.7 c2.4-7.6,9-13.5,17.5-13.5h45c-5.2,5.1-8.4,12.4-10.5,19.4c-5.4,17.5-11.4,35.2-16.9,52.7c8.1-0.1,16.7-0.2,24.8-0.2 c6.4-19.2,12.6-38.6,18.8-57.8c2.6-8,8.7-14,17.7-14h44.9c-5.5,6.1-7.8,12.4-9.7,18.2c-4.8,14.4-9.7,29.3-14.4,43.7 c-1.3,3.9-2.5,8.2-3.8,12c24.7,0.8,46.3,3.6,65.4,3.9c-4.8-2.1-12.9-5.2-17.3-8C451.1,67,444.9,56.7,444.9,43 c0-10,3.7-18.6,10.7-25.7c11-10.9,29.9-14.1,45-14.1c17.5,0,32.3,2.5,49.2,6.3c-4.6,9.2-7.9,17.9-13.1,27.9 c-2.4,4.6-9.2,7.2-16.8,6.4c-3-0.3-5.9-0.7-8.9-1.1c-2.9-0.4-7-1-9.9-1c2.7,1.2,7.7,3.3,8.8,3.8c16.3,7.6,25.9,16.4,25.9,35 c0,10.4-3.5,19.9-11.1,27.2c-12.2,11.8-31.7,14.7-48,14.7c-14.1,0-29.2-1.9-43.2-3.2C372.8,114.1,283.4,114.8,231.1,117.8z"></path> <path class="st2" d="M473.8,89.7c-6.4,0-16.8-1.8-21.8-1.8c-3.4,0-6.7,1-8.6,5c-2.9,6-7.7,15.6-8.3,18c11.9,1.9,28,3.1,41.9,3.1 c16.3,0,32.6-3.1,42.1-12.4c5.2-5.1,8.4-12,8.4-21.2c0-15.9-11.5-23-22.1-28c-9.2-4.3-18.4-7.2-18.4-12.7c0-2,1.2-3.3,2.8-4.2 c2.8-1.6,7.2-1.9,10.9-1.9c9.4,0,14.8,1.3,20.1,1.7c5,0.4,7.8-0.5,9.6-2.9c2.2-2.9,8.2-16.6,8.2-17.6c-8-1.5-22.8-4-37.8-4 c-14,0-30.8,3.1-39.3,12c-4.8,4.9-7.9,11.3-7.9,20.1c0,12.4,6.3,19.5,13.8,24.3c10.9,7,24.8,9.4,24.8,15.5c0,2.1-0.9,3.6-2.8,4.6 C485.4,89.2,478.9,89.7,473.8,89.7z"></path> <path class="st2" d="M419.5,110.1c7.5-0.1,11-3.8,13-7.2c1.9-3,6-10,8.9-15.5c-13.8-0.7-31.9-1.6-43.2-1.9c3.4-0.8,7.3-4.7,9.3-12 c0.6-2.1,15-46.2,17.4-53.2c1-3,3-6.9,3.6-8.2h-31.6c-4.6,0-7.3,3.8-9,8.9c-4.5,13.9-20.5,61.7-28.7,86.8 c14.5,0.7,31.4,1.1,44.7,1.6C410.7,109.7,415.3,110.2,419.5,110.1z"></path> <path class="st2" d="M356.2,98.3c1-2.5,5.3-10.9,6.8-14c-14.1,0.1-28.5,0.2-43,0.5c4.1-2.4,6.7-5.8,8.1-10.3 c5.1-16.4,13.1-40.9,16.9-53.2c1.2-3.8,2.8-7,4.2-9.2h-32c-3.8,0-6.5,3-8.2,8.3c-5.4,17-19.5,60-28.5,87.5 c13.4-0.1,37.7-0.4,56.5-0.6c5.7-0.1,10.3-0.4,13.5-2.4C353.5,103,355.5,100.2,356.2,98.3z"></path> <path class="st3" d="M455.3,88.1c-1.1-0.1-2.2-0.2-3.4-0.2c-3.4,0-6.7,1-8.6,5c-2.9,6-7.7,15.6-8.3,18c1.9,0.3,3.7,0.6,5.6,0.8 c1-2.5,6-13,8.8-19C451,89.8,453,88.7,455.3,88.1z M504.5,11c-1.3,0-2.5-0.1-3.7-0.1c-14,0-30.8,3.1-39.3,12 c-4.8,4.9-7.9,11.3-7.9,20.1c0,12.4,6.3,19.5,13.8,24.3c10.9,7,24.8,9.4,24.8,15.5c0,2.1-0.9,3.6-2.8,4.6c-2.9,1.5-7.4,2.1-11.7,2.3 c7.9-0.1,20.2-1.9,20.2-8.2c0-6-6.2-8.1-16-12.6c-4.8-2.2-12.6-5.4-17.7-11.4c-3.4-4-5.2-10.1-5.2-15.1c0-8.8,3.7-15.4,8.4-20.3 C475.2,13.8,491.2,11.4,504.5,11z"></path> <path class="st3" d="M365.2,108.1c8.2-25.1,24-73.1,28.5-86.9c1.7-5.1,4.8-8.4,6.5-9h-3.4c-4.6,0-7.3,3.8-9,8.9 c-4.5,13.9-20.5,61.7-28.7,86.8C361.4,107.9,363,108,365.2,108.1z"></path> <path class="st3" d="M321.2,12.2h-4c-3.8,0-6.5,3-8.2,8.3c-5.4,17-19.5,60-28.5,87.5l6.2-0.1c9-27.5,23-70.4,28.4-87.4 C316.8,15.2,319.2,12.7,321.2,12.2z"></path> <path class="st1" d="M559.6,12c4.5,0,8.1,3.4,8.1,7.9s-3.6,8-8.1,8s-8.1-3.5-8.1-8S555.1,12,559.6,12z"></path> <path class="st4" d="M558.6,20.7h0.7c0.8,0,1.2,0.3,1.3,1c0.2,0.7,0.3,1.3,0.5,1.5h1.6c-0.1-0.2-0.2-0.6-0.4-1.6 c-0.2-0.8-0.5-1.3-1.1-1.5V20c0.8-0.2,1.3-0.8,1.3-1.4s-0.3-1.1-0.6-1.4c-0.5-0.3-1-0.5-2.2-0.5c-1,0-1.8,0.1-2.4,0.2v6.2h1.4 L558.6,20.7L558.6,20.7z M558.6,17.9c0.1-0.1,0.4-0.1,0.8-0.1c0.9,0,1.3,0.4,1.3,0.9c0,0.7-0.6,0.9-1.4,0.9h-0.7L558.6,17.9 L558.6,17.9z M559.6,13.7c-3.5,0-6.4,2.8-6.4,6.2c0,3.5,2.8,6.3,6.4,6.3c3.6,0,6.4-2.8,6.4-6.3C565.9,16.5,563.2,13.7,559.6,13.7z M559.6,15c2.8,0,4.8,2.2,4.8,5c0,2.7-2,4.9-4.7,4.9c-2.8,0-4.9-2.2-4.9-4.9C554.7,17.2,556.8,15,559.6,15z"></path> <path class="st2" d="M61.6,126.9c8.7-1.3,11.4-7,13.4-12c2.5-6.2,8.5-26.1,13.5-39c12.7-0.4,29.2-0.8,43.4-1.4 c-2.6,1.3-7.9,4-8.9,6.4c-2.6,6-6.4,22.9-14.3,40c12.5-1.3,22.9-2.6,36-4c3-0.3,7.4-3.7,9.3-9.5c25.7-78.1,29.4-90.8,34.5-99.7h-31 c-8.6,0-10.9,3.1-12.7,8.5c-1.8,5.5-9.3,27.6-11.3,33.6c-11.9,0.2-23.6,0.2-35.7,0.5c3.5-10.6,8.5-25.1,10.6-30.5c2-5,4.7-9.7,6-12 h-32c-4.2,0-7,0.8-9.1,2.5c-2.3,1.8-3.6,4.6-4.9,8.3C53,62,33.6,123.3,27.4,131.9C36.5,130.4,50,128.7,61.6,126.9z"></path> <path class="st3" d="M123,81c-2.6,6-6.4,22.9-14.3,40c2.5-0.3,3.1-0.3,4.8-0.5c1.5-0.2,3.3-2.5,4.1-4.8c3.8-10.6,12-35.3,14.3-41.1 c-1.5,0.7-4.6,2.3-6.7,3.9C124.1,79.4,123.3,80.3,123,81z M160.2,7.7h-2.7c-8.6,0-10.9,3.1-12.7,8.5c-1.8,5.5-9.3,27.6-11.3,33.6 c2.3,0,4.3,0,6.5,0c2-6,9.1-27.4,10.9-32.8C152.8,11.5,157,7.7,160.2,7.7z M84.5,7.7h-2c-4.2,0-7,0.8-9.1,2.5 c-2.3,1.8-3.6,4.6-4.9,8.3C53,62,33.6,123.3,27.4,131.9c2.3-0.4,4.8-0.8,7.5-1.2c6.9-12.1,25.4-70.4,40.3-112.3 c1.3-3.7,2.7-6.5,4.9-8.3C82.3,8.5,83.8,7.7,84.5,7.7z"></path> <path class="st2" d="M221.6,66.7C229,55,233.5,47.9,242.5,34l1,32.4C237.4,66.3,230,66.4,221.6,66.7z M275.8,12.2h-44 c-6.3,0-11.5,7.2-13,9.3c-19.3,28.5-40.2,59-64.3,94.5c7.8-0.5,16.8-1.6,24.5-2.4c9.5-0.9,13.5-2.3,19.2-11.3 c3.2-5.2,5.8-8.5,8.2-13.3c11.1-0.3,18.5-0.6,27.9-1c3.2-0.1,11-0.5,14.2-0.7c-1.6,1-5.5,3.8-5.6,5.2c-0.4,5.2-0.1,11.5-1.2,17.1 c13.7-1,18.1-0.5,28.3-1.1c1.1-0.1,3.5-0.6,5.3-2.5c3-3,2-9,1.9-11.5c-0.5-10.6-1.1-22.4-1.6-31.3c-0.8-14.4-1.3-25.4-1.3-41.7 C274.5,16.3,275.4,13.8,275.8,12.2z"></path> <path class="st3" d="M242.5,34l1,32.4c2.3,0,3,0,5.2,0l-0.6-41.1C245.6,29.1,244.4,30.9,242.5,34z M238.5,12.2h-6.8 c-6.3,0-11.5,7.2-13,9.3c-19.3,28.5-40.2,59-64.3,94.5c2.3-0.1,4.7-0.3,7.2-0.6c23.8-35.3,44.7-65.6,63.9-93.9 C227,19.3,232.2,12.2,238.5,12.2z M243.1,92.5c-0.4,5.2-0.1,11.5-1.2,17.1c2.6-0.2,4.2-0.3,6.3-0.4c0.4-5.7,0.5-16.3,0.5-21.9 c-0.6,0.3-1.6,1-2.6,1.8C244.6,90.2,243.1,91.6,243.1,92.5z"></path> </svg> 