<?xml version="1.0" encoding="UTF-8"?> <!-- Generator: Adobe Illustrator 24.0.1, SVG Export Plug-In . SVG Version: 6.00 Build 0) --> <svg xmlns="http://www.w3.org/2000/svg" xmlns:xlink="http://www.w3.org/1999/xlink" id="Layer_1" x="0px" y="0px" viewBox="0 0 51.9 84.4" style="enable-background:new 0 0 51.9 84.4;" xml:space="preserve"> <style type="text/css"> .st0{fill:#FFFFFF;} .st1{fill:#FFB900;} </style> <g> <path class="st0" d="M26.8,74.9c-3.2,0-5.8-2.6-5.8-5.8c0-3.2,2.6-5.8,5.8-5.8c3.2,0,5.8,2.6,5.8,5.8C32.6,72.3,30,74.9,26.8,74.9 M26.8,67.2c-1,0-1.9,0.9-1.9,1.9c0,1,0.8,1.9,1.9,1.9c1,0,1.9-0.8,1.9-1.9C28.7,68,27.8,67.2,26.8,67.2"></path> <rect x="20.4" y="16.1" class="st0" width="12.7" height="3.9"></rect> <polygon class="st0" points="51.9,84.4 1.7,84.4 1.7,12.8 7.2,12.8 7.2,78.9 46.3,78.9 46.3,7.2 12.8,7.2 12.8,1.7 51.9,1.7 "></polygon> <path class="st1" d="M8.9,4.5c0,2.5-2,4.5-4.5,4.5C2,8.9,0,6.9,0,4.5C0,2,2,0,4.5,0C6.9,0,8.9,2,8.9,4.5"></path> </g> </svg> 