<?xml version="1.0" encoding="UTF-8"?> <!-- Generator: Adobe Illustrator 24.0.1, SVG Export Plug-In . SVG Version: 6.00 Build 0) --> <svg xmlns="http://www.w3.org/2000/svg" xmlns:xlink="http://www.w3.org/1999/xlink" id="Layer_1" x="0px" y="0px" viewBox="0 0 100.5 62.8" style="enable-background:new 0 0 100.5 62.8;" xml:space="preserve"> <style type="text/css"> .st0{fill:#FFFFFF;} .st1{fill:#FFB900;} </style> <g> <path class="st0" d="M49.7,42c-5.4,0-9.8-4.4-9.8-9.8c0-5.4,4.4-9.8,9.8-9.8c5.4,0,9.8,4.4,9.8,9.8C59.5,37.6,55.1,42,49.7,42 M49.7,26.5c-3.2,0-5.8,2.6-5.8,5.8c0,3.2,2.6,5.8,5.8,5.8c3.2,0,5.8-2.6,5.8-5.8C55.5,29,52.9,26.5,49.7,26.5"></path> <path class="st1" d="M9.1,4.6c0,2.5-2,4.6-4.6,4.6C2,9.1,0,7.1,0,4.6C0,2,2,0,4.6,0C7.1,0,9.1,2,9.1,4.6"></path> <path class="st0" d="M100.5,11.9L71,23.3V1.7H13.1v5.6h52.2v18.1v13.6v18.1H7.4V13.1H1.7v49.7H71V41.2l29.6,11.4V11.9z M94.9,44.5 L71,35.2v-5.8l23.9-9.3V44.5z"></path> </g> </svg> 