<?xml version="1.0" encoding="UTF-8"?> <!-- Generator: Adobe Illustrator 24.0.1, SVG Export Plug-In . SVG Version: 6.00 Build 0) --> <svg xmlns="http://www.w3.org/2000/svg" xmlns:xlink="http://www.w3.org/1999/xlink" id="Layer_1" x="0px" y="0px" viewBox="0 0 122.6 91.5" style="enable-background:new 0 0 122.6 91.5;" xml:space="preserve"> <style type="text/css"> .st0{fill:#FFB900;} .st1{fill:#FFFFFF;} </style> <g> <path class="st0" d="M10.8,41.1c0,2.8-2.3,5-5,5s-5-2.3-5-5c0-2.8,2.3-5,5-5S10.8,38.3,10.8,41.1"></path> <path class="st1" d="M23.1,62.4c-6.2,0-11.4-5-11.7-11.3c-0.2-6.4,4.8-11.9,11.2-12.1c3.1-0.1,6.1,1,8.4,3.1c2.3,2.1,3.6,5,3.7,8.1 c0.1,3.1-1,6.1-3.1,8.4c-2.1,2.3-5,3.6-8.1,3.7C23.4,62.4,23.2,62.4,23.1,62.4 M23.1,43.5c-0.1,0-0.2,0-0.3,0c-4,0.1-7.1,3.5-7,7.5 c0.1,4,3.5,7.1,7.5,7c1.9-0.1,3.7-0.9,5-2.3c1.3-1.4,2-3.3,1.9-5.2c-0.1-1.9-0.9-3.7-2.3-5C26.7,44.1,24.9,43.5,23.1,43.5"></path> <path class="st1" d="M122.6,30.1l-1.1-6.1l-29.2,5.5L81.1,18.3L92.7,6.7l28.8,5.1l1.1-6.1L90.6,0L80.1,10.5l0-4.6L58.3,1.8 C53.4,1,48.5,2.3,44.7,5.4L10.1,31.6l3.8,5l34.6-26.3l0.1-0.1c2.4-2,5.5-2.8,8.6-2.2l16.7,3.1l0,14.7L61.5,28L43.9,51.2l11.9,17.3 l0.1,0.1c1.2,1.6,1.7,3.3,1.8,5.6c0.2,5.9-4.4,10.9-10.3,11.1c-2.4,0.1-4.8-0.7-6.8-2.1l-0.1-0.1c0,0-25.8-17.7-26.1-17.9 c-5-3.5-8.2-9.3-8.2-15L0,50.2c-0.1,7.8,4.1,15.5,10.9,20.1c0,0,0,0,26.1,17.9c2.9,2.1,6.5,3.3,10.1,3.3c0.2,0,0.4,0,0.6,0 C57,91.2,64.3,83.3,63.9,74c-0.1-3.5-1.1-6.4-3-9l-9.3-13.6L65,33.7l15-2.8l0-4.9l10.1,10.1L122.6,30.1z"></path> </g> </svg> 