<?xml version="1.0" encoding="UTF-8"?> <!-- Generator: Adobe Illustrator 24.0.1, SVG Export Plug-In . SVG Version: 6.00 Build 0) --> <svg xmlns="http://www.w3.org/2000/svg" xmlns:xlink="http://www.w3.org/1999/xlink" id="Layer_1" x="0px" y="0px" viewBox="0 0 155.5 61.1" style="enable-background:new 0 0 155.5 61.1;" xml:space="preserve"> <style type="text/css"> .st0{clip-path:url(#SVGID_2_);fill:#FFB900;} .st1{clip-path:url(#SVGID_2_);fill:#FFFFFF;} </style> <g> <g> <defs> <rect id="SVGID_1_" width="155.5" height="61.1"></rect> </defs> <clipPath id="SVGID_2_"> <use xlink:href="#SVGID_1_" style="overflow:visible;"></use> </clipPath> <path class="st0" d="M10.7,18.7c0,2.9-2.4,5.3-5.3,5.3S0,21.7,0,18.7c0-2.9,2.4-5.3,5.3-5.3S10.7,15.8,10.7,18.7"></path> <path class="st1" d="M33.5,61.1c-8.3,0-15.1-6.8-15.1-15.1c0-8.3,6.8-15.1,15.1-15.1c8.3,0,15.1,6.8,15.1,15.1 C48.6,54.3,41.9,61.1,33.5,61.1 M33.5,37.4c-4.7,0-8.5,3.8-8.5,8.5c0,4.7,3.8,8.5,8.5,8.5c4.7,0,8.5-3.8,8.5-8.5 C42.1,41.3,38.2,37.4,33.5,37.4"></path> <path class="st1" d="M126.1,61.1c-8.3,0-15.1-6.8-15.1-15.1c0-8.3,6.8-15.1,15.1-15.1c8.3,0,15.1,6.8,15.1,15.1 C141.2,54.3,134.4,61.1,126.1,61.1 M126.1,37.4c-4.7,0-8.5,3.8-8.5,8.5c0,4.7,3.8,8.5,8.5,8.5c4.7,0,8.5-3.8,8.5-8.5 C134.6,41.3,130.8,37.4,126.1,37.4"></path> <path class="st1" d="M144.2,52.8H137v-6.6h7.2c4.7,0,4.7-1.7,4.7-3.1V31.2c0-0.4,0-1.3-2.6-1.9l-33.5-6.7 c-0.5-0.1-1.1-0.2-1.6-0.3c-2.2-0.4-4.8-1-7-2.5c-5-3.5-13.4-8.6-18-11.3c-2-1.2-4.4-1.8-6.7-1.8H47.7c-2.3,0-4.6,0.6-6.7,1.8 L25,17.8c-1.3,0.8-2.7,1.3-4.3,1.7c-0.3,0.1-0.7,0.1-5.5,0.3L15,13.1c1.7,0,3.8-0.1,4.4-0.2c0.8-0.2,1.6-0.5,2.3-0.9l16.1-9.4 c3-1.8,6.5-2.7,10-2.7h31.7c3.5,0,7,1,10.1,2.8c5.7,3.4,13.5,8.1,18.4,11.5c1.1,0.8,2.7,1.1,4.5,1.5c0.6,0.1,1.2,0.2,1.7,0.4 l33.7,6.8c6.6,1.7,7.7,5.9,7.7,8.3v11.9C155.5,46,154.4,52.8,144.2,52.8"></path> <path class="st1" d="M21.2,52.9c-2.6-0.4-11.1-1.9-14.7-2.5l-1.4-0.2c-1.5-0.3-4.9-1.4-4.6-6.2l0-0.2L1,28.6l6.6,0.2L7.1,43.8 l0.5,0.1c3.3,0.6,12,2.1,14.5,2.5L21.2,52.9z"></path> <rect x="46.2" y="46.2" class="st1" width="67.3" height="6.6"></rect> </g> </g> </svg> 