<?xml version="1.0" encoding="UTF-8"?> <!-- Generator: Adobe Illustrator 24.0.1, SVG Export Plug-In . SVG Version: 6.00 Build 0) --> <svg xmlns="http://www.w3.org/2000/svg" xmlns:xlink="http://www.w3.org/1999/xlink" id="Layer_1" x="0px" y="0px" viewBox="0 0 61.7 79" style="enable-background:new 0 0 61.7 79;" xml:space="preserve"> <style type="text/css"> .st0{fill:#FFFFFF;} .st1{fill:#FFB900;} </style> <g> <path class="st0" d="M44.9,29.5l-10.8,7.3c-0.5-0.3-1-0.4-1.6-0.4c-0.6,0-1.1,0.1-1.6,0.4l-7.4-5.1l-1.8,2.6l7.4,5.1 c0,0.1,0,0.3,0,0.4c0,1.9,1.5,3.4,3.4,3.4c1.9,0,3.4-1.5,3.4-3.4c0-0.1,0-0.2,0-0.4l10.8-7.3L44.9,29.5z"></path> <g> <path class="st0" d="M61.7,11.7H46.4V0H19.3v11.7H14v5.2h42.5v45.7H8.6V22.3H3.4v14.2H0v7.3h3.4v24.2h16V79h27.1V67.9h15.3V11.7z M24.6,5.2h16.6v6.4H24.6V5.2z M41.2,73.8H24.6v-5.8h16.6V73.8z"></path> <path class="st1" d="M10.2,14.1c0,2.3-1.9,4.2-4.2,4.2c-2.3,0-4.2-1.9-4.2-4.2c0-2.3,1.9-4.2,4.2-4.2C8.3,9.9,10.2,11.8,10.2,14.1 "></path> </g> </g> </svg> 