<?xml version="1.0" encoding="UTF-8"?> <!-- Generator: Adobe Illustrator 24.0.1, SVG Export Plug-In . SVG Version: 6.00 Build 0) --> <svg xmlns="http://www.w3.org/2000/svg" xmlns:xlink="http://www.w3.org/1999/xlink" id="Layer_1" x="0px" y="0px" viewBox="0 0 84 99.8" style="enable-background:new 0 0 84 99.8;" xml:space="preserve"> <style type="text/css"> .st0{fill:#FFFFFF;} .st1{fill:#FFB900;} </style> <g> <path class="st0" d="M59.3,19.2v-2.9C59.3,7.3,52,0,43.1,0c-9,0-16.2,7.3-16.2,16.2v2.9H15.4v6.6h11.4v10.6c-1.2,0.8-2,2.1-2,3.6 c0,2.4,2,4.3,4.3,4.3c2.4,0,4.3-1.9,4.3-4.3c0-1.5-0.8-2.9-2-3.6V25.8h23v10.6c-1.2,0.8-2,2.1-2,3.6c0,2.4,1.9,4.3,4.3,4.3 c2.4,0,4.3-1.9,4.3-4.3c0-1.5-0.8-2.9-2-3.6V25.8h18.1v67.4H8.6V32.6H2v67.2H84V19.2H59.3z M31.5,19.2v-2.9 c0-6.4,5.2-11.5,11.5-11.5c6.4,0,11.5,5.2,11.5,11.5v2.9H31.5z"></path> <path class="st1" d="M10.7,22.5c0,3-2.4,5.3-5.3,5.3c-3,0-5.3-2.4-5.3-5.3c0-3,2.4-5.3,5.3-5.3C8.3,17.1,10.7,19.5,10.7,22.5"></path> </g> </svg> 