<?xml version="1.0" encoding="UTF-8"?> <!-- Generator: Adobe Illustrator 24.0.1, SVG Export Plug-In . SVG Version: 6.00 Build 0) --> <svg xmlns="http://www.w3.org/2000/svg" xmlns:xlink="http://www.w3.org/1999/xlink" id="Layer_1" x="0px" y="0px" viewBox="0 0 113.1 95.8" style="enable-background:new 0 0 113.1 95.8;" xml:space="preserve"> <style type="text/css"> .st0{fill:#FFB900;} .st1{fill:#FFFFFF;} </style> <g> <path class="st0" d="M10.1,5c0,2.8-2.3,5-5,5c-2.8,0-5-2.3-5-5c0-2.8,2.3-5,5-5C7.8,0,10.1,2.3,10.1,5"></path> <path class="st1" d="M53.7,95.8c-4.7,0-8.5-3.8-8.5-8.5c0-4.7,3.8-8.5,8.5-8.5c4.7,0,8.5,3.8,8.5,8.5C62.2,92,58.4,95.8,53.7,95.8 M53.7,83.2c-2.2,0-4.1,1.8-4.1,4.1c0,2.2,1.8,4.1,4.1,4.1c2.2,0,4.1-1.8,4.1-4.1C57.8,85,56,83.2,53.7,83.2"></path> <path class="st1" d="M90.1,95.8c-4.7,0-8.5-3.8-8.5-8.5c0-4.7,3.8-8.5,8.5-8.5c4.7,0,8.5,3.8,8.5,8.5C98.6,92,94.8,95.8,90.1,95.8 M90.1,83.2c-2.2,0-4.1,1.8-4.1,4.1c0,2.2,1.8,4.1,4.1,4.1c2.2,0,4.1-1.8,4.1-4.1C94.2,85,92.3,83.2,90.1,83.2"></path> <path class="st1" d="M113.1,21H37.7L33.3,1.9H14.5v6.2h13.9l3.8,16.6c0,0,0,0.1,0,0.1l8.4,36.2c0,0,0,0,0,0.1l3.6,15.6H99v-6.2 H49.1l-1.6-6.9h56.7L113.1,21z M46.1,57.4l-6.9-30.1h66.2l-6.2,30.1H46.1z"></path> </g> </svg> 