<?xml version="1.0" encoding="UTF-8"?> <!-- Generator: Adobe Illustrator 24.0.1, SVG Export Plug-In . SVG Version: 6.00 Build 0) --> <svg xmlns="http://www.w3.org/2000/svg" xmlns:xlink="http://www.w3.org/1999/xlink" id="Layer_1" x="0px" y="0px" viewBox="0 0 98.4 98.8" style="enable-background:new 0 0 98.4 98.8;" xml:space="preserve"> <style type="text/css"> .st0{fill:#FFFFFF;} .st1{fill:#FFB900;} </style> <g> <polygon class="st0" points="65.9,98.8 32.4,98.8 32.4,66.9 0,66.9 0,33.9 32.4,33.9 32.4,14.9 38.9,14.9 38.9,40.3 6.5,40.3 6.5,60.5 38.9,60.5 38.9,92.4 59.5,92.4 59.5,60.5 91.9,60.5 91.9,40.3 59.5,40.3 59.5,8.4 45.5,8.4 45.5,2 65.9,2 65.9,33.9 98.4,33.9 98.4,66.9 65.9,66.9 "></polygon> <path class="st1" d="M40.9,5.2c0,2.9-2.4,5.2-5.3,5.2S30.4,8,30.4,5.2c0-2.9,2.4-5.2,5.3-5.2S40.9,2.3,40.9,5.2"></path> </g> </svg> 