<?xml version="1.0" encoding="UTF-8"?> <!-- Generator: Adobe Illustrator 24.0.1, SVG Export Plug-In . SVG Version: 6.00 Build 0) --> <svg xmlns="http://www.w3.org/2000/svg" xmlns:xlink="http://www.w3.org/1999/xlink" id="Layer_1" x="0px" y="0px" viewBox="0 0 376 148" xml:space="preserve"> <title>lindt</title> <desc>Created with Sketch.</desc> <g id="Page-1"> <g id="newX_AUSGOLD_Mstr-Choclatier1845_RGB-resized"> <path id="Fill-1" fill="#6E777E" d="M35.057,104.994c0.05,0.717,0.101,1.459,0.178,2.176c0.126,1.1,0.304,2.201,0.431,3.299 c0.228,1.689,0.431,3.404,0.659,5.094c0.127,1.049,0.305,2.097,0.431,3.145c0.152,0.923,0.229,1.868,0.38,2.789 c0.103,0.614,0.254,1.229,0.381,1.843c-0.862-0.18-1.217-0.23-1.673-0.23c-0.431,0-0.659,0.025-1.42,0.152 c-0.101-1.893-0.229-3.76-0.405-5.652c-0.254-2.662-0.609-5.322-0.963-7.984c-1.775,3.455-3.55,6.908-5.223,10.361 c-0.279,0.564-0.533,1.102-0.787,1.664c-0.229,0.539-0.431,1.102-0.634,1.664h-0.76c-0.583-1.356-1.166-2.688-1.851-4.018 c-0.735-1.457-1.572-2.917-2.358-4.35c-0.938-1.688-1.877-3.402-2.789-5.092c-0.178,1.639-0.355,3.275-0.507,4.913 c-0.177,1.458-0.33,2.891-0.432,4.351c-0.126,1.381-0.177,2.789-0.252,4.17c-0.178-0.051-0.634-0.18-1.166-0.18 c-0.305,0-0.431,0-0.963,0.102c0.228-1.1,0.431-2.149,0.633-3.248c0.862-4.939,1.446-9.979,2.054-14.994 c0.329,0.025,0.456,0.076,1.014,0c0.303,0.716,0.659,1.459,1.014,2.149c0.557,1.076,1.166,2.124,1.724,3.174 c0.862,1.585,1.698,3.147,2.56,4.708c0.76,1.381,1.572,2.763,2.358,4.12c0.355-0.59,0.71-1.152,1.04-1.768 c0.633-1.15,1.217-2.353,1.825-3.53c0.761-1.483,1.521-2.942,2.282-4.427c0.761-1.457,1.471-2.941,2.206-4.4H35.057"></path> <path id="Fill-2" fill="#6E777E" d="M48.873,115.127l-2.89-6.525c-0.481,0.998-0.989,1.996-1.419,3.02 c-0.508,1.176-0.963,2.328-1.446,3.506H48.873z M47.276,105.148c0.253,0.717,0.533,1.433,0.837,2.123 c0.38,0.844,0.811,1.687,1.217,2.559c0.558,1.202,1.065,2.457,1.598,3.659c0.608,1.381,1.217,2.713,1.8,4.068 c0.456,1.075,0.888,2.175,1.369,3.224c0.406,0.869,0.837,1.689,1.268,2.508c-0.862-0.129-1.191-0.18-1.673-0.18 c-0.406,0-0.786,0.051-1.622,0.205c-0.735-2.329-0.963-3.097-2.663-6.908c-1.039-0.026-2.079-0.051-3.118-0.051 c-1.243,0-2.459,0.051-3.701,0.101c-1.496,3.761-1.699,4.477-2.358,6.805c-0.583-0.101-0.786-0.127-1.115-0.127 c-0.228,0-0.558,0.025-1.065,0.076c0.811-1.661,1.623-3.352,2.409-5.039c0.837-1.92,1.648-3.838,2.485-5.758 c0.608-1.406,1.242-2.789,1.85-4.195c0.457-1.024,0.888-2.047,1.294-3.098L47.276,105.148L47.276,105.148z"></path> <path id="Fill-3" fill="#6E777E" d="M59.825,109.318c-0.025,0.973-0.025,1.918-0.025,2.865c0,1.74,0.025,3.48,0.05,5.221 c0,1.229,0,2.431,0.077,3.633c0.051,0.768,0.126,1.51,0.203,2.252c-0.507-0.051-1.014-0.102-1.521-0.102 c-0.456,0-0.71,0.023-1.521,0.127c0.101-1.434,0.177-2.866,0.177-4.324c0.026-1.562,0.026-3.122,0.026-4.684 c0-0.945,0.025-1.893,0.025-2.863c0-1.486-0.025-2.994-0.126-4.453c-0.025-0.59-0.076-1.176-0.127-1.74 c0.786,0.103,1.04,0.129,1.496,0.129c0.558,0,0.938-0.053,1.471-0.104C59.952,106.632,59.876,107.988,59.825,109.318z M59.242,99.852l2.967,4.043h-0.786l-2.966-2.38l-2.942,2.405h-0.938l3.321-4.068H59.242L59.242,99.852z"></path> <path id="Fill-4" fill="#6E777E" d="M76.052,106.197c0,0.256,0.025,0.384,0.126,0.869c-0.963-0.204-1.318-0.23-2.941-0.254 c-0.862,0-1.749-0.026-2.637-0.026c-0.026,1.355-0.076,2.687-0.076,4.042c0,1.561,0.025,3.146,0.025,4.708 c-0.025,1.56-0.051,3.147,0.025,4.708c0.026,1.023,0.102,2.02,0.152,3.045c-0.862-0.129-1.141-0.154-1.597-0.154 c-0.432,0-0.584,0.025-1.318,0.104c0.101-2.968,0.177-5.961,0.202-8.955c0-2.508-0.025-4.99-0.05-7.497 c-1.116,0-2.206,0-3.321,0.05c-0.812,0.052-1.649,0.128-2.485,0.205c0.025-0.228,0.076-0.588,0.076-0.818 c0-0.281-0.025-0.461-0.126-0.973c0.887,0.076,1.775,0.154,2.662,0.205c0.938,0.052,1.877,0.052,2.815,0.052 c1.217,0,2.434,0,3.65-0.026c0.938,0,1.876-0.025,2.815-0.076c0.734-0.052,1.47-0.129,2.205-0.205 C76.203,105.303,76.052,105.787,76.052,106.197"></path> <path id="Fill-5" fill="#6E777E" d="M80.867,110.419c0,1.075,0,2.175,0.026,3.274c0.253,0,2.358,0.128,3.752-0.357 c0.761-0.281,2.485-1.126,2.485-3.506c0-2.328-1.597-3.018-2.434-3.249c-0.558-0.153-1.242-0.204-1.85-0.204 c-0.634,0-1.243,0.051-1.877,0.102C80.918,107.783,80.867,109.088,80.867,110.419z M79.828,105.353h4.894 c0.304,0,0.633,0.026,0.938,0.052c0.607,0.051,2.357,0.179,3.422,1.713c0.481,0.691,0.786,1.56,0.786,2.405 c-0.026,0.614-0.204,1.995-1.421,3.2c-1.064,1.049-2.382,1.303-3.828,1.611c1.166,1.534,2.308,3.07,3.524,4.555 c1.115,1.406,2.307,2.789,3.498,4.144l-0.025,0.281c-0.608-0.053-1.192-0.127-1.8-0.127c-0.584,0-1.141,0.051-1.724,0.127 c-0.938-1.383-1.877-2.738-2.866-4.068c-1.217-1.611-2.484-3.198-3.752-4.785l-0.584,0.104c0.025,1.508,0.025,3.045,0.025,4.555 c0,0.766,0,1.508,0.026,2.25c0.025,0.666,0.076,1.306,0.127,1.945c-0.559-0.076-0.964-0.127-1.547-0.127 c-0.481,0-0.963,0.051-1.445,0.102c0.153-1.51,0.279-2.994,0.304-4.479c0.051-1.561,0.051-3.121,0.076-4.707v-2.228 c0-1.431,0-2.864-0.076-4.298c-0.051-0.792-0.101-1.586-0.151-2.354L79.828,105.353L79.828,105.353z"></path> <path id="Fill-6" fill="#6E777E" d="M96.332,113.155c1.09-0.024,2.206-0.024,3.296-0.024c0.406,0,0.786,0,1.192-0.025 c0.583-0.025,1.191-0.128,1.774-0.18c-0.127,0.718-0.127,0.922-0.05,1.663c-0.432-0.077-0.837-0.128-1.243-0.154 c-0.659-0.05-1.318-0.05-2.003-0.075c-0.481,0-0.962-0.025-1.445-0.025c-0.532,0-1.065,0.025-1.572,0.076v7.549 c1.623,0,3.22,0,4.843-0.051c0.761-0.027,1.496-0.078,2.256-0.104c-0.025,0.127-0.076,0.408-0.076,0.742 c0,0.282,0.025,0.358,0.102,0.844c-1.978-0.102-3.955-0.18-5.958-0.18c-1.293,0-2.56,0.027-3.854,0.078 c0.051-0.691,0.128-1.357,0.152-2.073c0.025-0.589,0-1.202,0-1.792c0.025-0.74,0.025-1.482,0.025-2.225 c0.026-1.867,0.051-3.736,0.051-5.629c0-0.998-0.025-1.995-0.051-3.02c-0.025-1.049,0.076-1.434-0.177-3.198 c1.242,0.077,2.51,0.154,3.753,0.154c1.977,0,3.904-0.128,5.857-0.231c-0.203,0.717-0.229,0.922-0.127,1.664 c-1.293-0.127-2.586-0.231-3.878-0.257c-0.963,0-1.928,0.026-2.891,0.026L96.332,113.155"></path> <path id="Fill-7" fill="#6E777E" d="M125.894,108.576c-0.355-0.435-0.76-0.896-1.217-1.254c-0.786-0.664-2.155-1.484-4.563-1.484 c-0.888,0-2.663,0.077-4.386,1.664c-1.039,0.972-2.383,2.865-2.383,6.319c0,0.794,0.051,3.378,1.42,5.451 c0.735,1.126,2.434,2.967,5.78,2.967c0.33,0,1.115-0.026,2.004-0.257c1.673-0.433,2.56-1.227,3.879-2.378l0.355,0.204 c-0.229,0.844-0.229,0.947-0.279,1.816c-0.126,0.076-0.862,0.565-1.445,0.846c-0.836,0.383-2.636,1.021-5.07,1.021 c-4.234,0-6.592-1.867-7.733-3.324c-0.76-0.947-1.85-2.943-1.85-6.115c0-0.743,0.051-2.662,0.963-4.53 c1.698-3.454,5.4-4.783,9.001-4.783c3.118,0,5.198,0.869,6.363,1.329c-0.354,1.102-0.431,1.331-0.532,2.508H125.894"></path> <path id="Fill-8" fill="#6E777E" d="M141.282,114.435c-1.572-0.05-3.144-0.128-4.74-0.128c-1.775-0.023-3.575,0-5.35,0.053 c-0.025,1.74-0.076,3.48-0.025,5.219c0.025,1.229,0.101,2.457,0.177,3.684c-0.533-0.074-0.963-0.152-1.496-0.152 c-0.431,0-0.66,0.025-1.445,0.152c0.101-1.15,0.178-2.302,0.229-3.453c0.05-1.586,0.05-3.197,0.05-4.81v-4.784 c0-0.82,0-1.664-0.05-2.482c-0.026-0.818-0.127-1.664-0.204-2.482c0.609,0.076,1.015,0.154,1.598,0.154 c0.456,0,0.913-0.052,1.395-0.078c-0.127,1.332-0.229,2.662-0.253,3.992c-0.026,1.178,0,2.328,0.025,3.506 c1.724,0.051,3.448,0.102,5.172,0.102c1.648,0,3.296-0.025,4.944-0.076c0-1.689,0.025-3.377-0.051-5.066 c-0.025-0.844-0.076-1.688-0.127-2.533c0.482,0.025,0.938,0.076,1.445,0.076c0.406,0,0.735-0.024,1.546-0.127 c-0.101,0.793-0.177,1.587-0.202,2.379c-0.051,1.229-0.026,2.482-0.051,3.711c-0.051,1.715-0.077,3.402-0.077,5.117 c0,1.535,0.026,3.045,0.127,4.554c0.025,0.768,0.102,1.535,0.151,2.302c-0.811-0.127-1.09-0.152-1.546-0.152 c-0.533,0-0.938,0.078-1.444,0.152c0.177-1.049,0.202-1.534,0.202-2.635V114.435"></path> <path id="Fill-9" fill="#6E777E" d="M150.739,119.885c1.774,2.482,4.386,2.738,5.425,2.738c0.964,0,3.271-0.229,5.045-2.352 c0.964-1.151,1.851-2.943,1.851-6.321c0-0.869-0.025-3.249-1.572-5.373c-0.177-0.231-0.685-0.896-1.369-1.382 c-0.989-0.716-2.129-0.946-2.535-1.022c-0.152-0.025-0.963-0.153-1.648-0.153c-0.76,0-2.256,0.102-3.879,1.329 c-2.332,1.792-2.915,4.324-2.84,7.164C149.268,117.327,150.004,118.861,150.739,119.885z M148.584,107.91 c1.191-1.252,3.448-2.942,7.479-2.942c1.09,0,4.665,0.076,7.276,2.457c1.166,1.074,2.637,2.941,2.637,6.678 c0,2.789-0.811,5.065-2.79,6.958c-2.687,2.534-5.704,2.611-7.074,2.611c-2.256,0-4.462-0.435-6.338-1.843 c-0.278-0.18-0.887-0.666-1.47-1.382c-0.786-0.946-2.054-3.069-2.003-6.423C146.353,110.727,147.671,108.883,148.584,107.91 L148.584,107.91z"></path> <path id="Fill-10" fill="#6E777E" d="M183.039,108.576c-0.355-0.435-0.76-0.896-1.217-1.254c-0.786-0.664-2.155-1.484-4.564-1.484 c-0.888,0-2.663,0.077-4.386,1.664c-1.04,0.972-2.383,2.865-2.383,6.319c0,0.794,0.051,3.378,1.42,5.451 c0.734,1.126,2.434,2.967,5.78,2.967c0.33,0,1.115-0.026,2.003-0.257c1.673-0.433,2.561-1.227,3.879-2.378l0.355,0.204 c-0.229,0.844-0.229,0.947-0.279,1.816c-0.127,0.076-0.862,0.565-1.444,0.846c-0.837,0.383-2.638,1.021-5.071,1.021 c-4.234,0-6.592-1.867-7.733-3.324c-0.76-0.947-1.85-2.943-1.85-6.115c0-0.743,0.051-2.662,0.963-4.53 c1.698-3.454,5.4-4.783,9.001-4.783c3.118,0,5.197,0.869,6.363,1.329c-0.355,1.102-0.431,1.331-0.532,2.508H183.039"></path> <path id="Fill-11" fill="#6E777E" d="M189.352,119.885c1.774,2.482,4.386,2.738,5.425,2.738c0.964,0,3.271-0.229,5.046-2.352 c0.964-1.151,1.851-2.943,1.851-6.321c0-0.869-0.026-3.249-1.572-5.373c-0.178-0.231-0.684-0.896-1.369-1.382 c-0.989-0.716-2.131-0.946-2.535-1.022c-0.152-0.025-0.965-0.153-1.649-0.153c-0.762,0-2.257,0.102-3.879,1.329 c-2.333,1.792-2.917,4.324-2.84,7.164C187.881,117.327,188.616,118.861,189.352,119.885z M187.196,107.91 c1.192-1.252,3.448-2.942,7.48-2.942c1.09,0,4.665,0.076,7.277,2.457c1.166,1.074,2.637,2.941,2.637,6.678 c0,2.789-0.812,5.065-2.79,6.958c-2.688,2.534-5.704,2.611-7.073,2.611c-2.257,0-4.463-0.435-6.339-1.843 c-0.279-0.18-0.888-0.666-1.47-1.382c-0.787-0.946-2.054-3.069-2.003-6.423C184.965,110.727,186.283,108.883,187.196,107.91 L187.196,107.91z"></path> <path id="Fill-12" fill="#6E777E" d="M210.039,115.484c0,2.15,0.025,4.248,0.076,6.371c4.107,0.053,4.867-0.051,7.251-0.306 c-0.051,0.562-0.102,0.767-0.026,1.739c-1.748-0.078-3.473-0.154-5.223-0.154c-1.622,0-3.22,0.104-4.842,0.205 c0.076-0.742,0.152-1.484,0.177-2.226c0.026-1.024,0.026-2.048,0.026-3.071c0.025-1.279,0.051-2.559,0.051-3.838 c0-2.992-0.102-5.986-0.178-8.955c0.051,0,0.861,0.103,1.42,0.103c0.33,0,0.76-0.05,1.496-0.153 c-0.127,1.125-0.203,2.227-0.203,3.352c-0.025,1.049,0,2.1-0.025,3.147V115.484"></path> <path id="Fill-13" fill="#6E777E" d="M228.394,115.127l-2.89-6.525c-0.481,0.998-0.988,1.996-1.42,3.02 c-0.508,1.176-0.964,2.328-1.445,3.506H228.394z M226.797,105.148c0.255,0.717,0.533,1.433,0.838,2.123 c0.379,0.844,0.811,1.687,1.217,2.559c0.558,1.202,1.064,2.457,1.597,3.659c0.608,1.381,1.218,2.713,1.8,4.068 c0.457,1.075,0.888,2.175,1.369,3.224c0.406,0.869,0.838,1.689,1.268,2.508c-0.861-0.129-1.191-0.18-1.673-0.18 c-0.405,0-0.786,0.051-1.622,0.205c-0.735-2.329-0.964-3.097-2.662-6.908c-1.039-0.026-2.08-0.051-3.119-0.051 c-1.242,0-2.459,0.051-3.701,0.101c-1.496,3.761-1.699,4.477-2.357,6.805c-0.584-0.101-0.787-0.127-1.116-0.127 c-0.227,0-0.558,0.025-1.065,0.076c0.812-1.661,1.623-3.352,2.408-5.039c0.838-1.92,1.648-3.838,2.486-5.758 c0.607-1.406,1.242-2.789,1.85-4.195c0.457-1.024,0.887-2.047,1.294-3.098L226.797,105.148L226.797,105.148z"></path> <path id="Fill-14" fill="#6E777E" d="M246.674,106.197c0,0.256,0.025,0.384,0.127,0.869c-0.964-0.204-1.32-0.23-2.942-0.254 c-0.862,0-1.749-0.026-2.636-0.026c-0.025,1.355-0.076,2.687-0.076,4.042c0,1.561,0.025,3.146,0.025,4.708 c-0.025,1.56-0.051,3.147,0.025,4.708c0.025,1.023,0.102,2.02,0.152,3.045c-0.862-0.129-1.141-0.154-1.598-0.154 c-0.432,0-0.583,0.025-1.318,0.104c0.102-2.968,0.178-5.961,0.202-8.955c0-2.508-0.024-4.99-0.05-7.497 c-1.116,0-2.206,0-3.321,0.05c-0.811,0.052-1.648,0.128-2.485,0.205c0.025-0.228,0.076-0.588,0.076-0.818 c0-0.281-0.025-0.461-0.127-0.973c0.888,0.076,1.774,0.154,2.662,0.205c0.938,0.052,1.877,0.052,2.814,0.052 c1.217,0,2.434,0,3.65-0.026c0.938,0,1.877-0.025,2.814-0.076c0.736-0.052,1.471-0.129,2.206-0.205 C246.825,105.303,246.674,105.787,246.674,106.197"></path> <path id="Fill-15" fill="#6E777E" d="M251.819,109.318c-0.026,0.973-0.026,1.918-0.026,2.865c0,1.74,0.026,3.48,0.053,5.221 c0,1.229,0,2.431,0.075,3.633c0.051,0.768,0.126,1.51,0.202,2.252c-0.506-0.051-1.014-0.102-1.521-0.102 c-0.456,0-0.71,0.023-1.521,0.127c0.102-1.434,0.177-2.866,0.177-4.324c0.026-1.562,0.026-3.122,0.026-4.684 c0-0.945,0.026-1.893,0.026-2.863c0-1.486-0.026-2.994-0.128-4.453c-0.026-0.59-0.076-1.176-0.126-1.74 c0.785,0.103,1.039,0.129,1.495,0.129c0.558,0,0.938-0.053,1.47-0.104C251.946,106.632,251.87,107.988,251.819,109.318"></path> <path id="Fill-16" fill="#6E777E" d="M258.006,113.155c1.09-0.024,2.205-0.024,3.297-0.024c0.404,0,0.785,0,1.191-0.025 c0.583-0.025,1.191-0.128,1.775-0.18c-0.128,0.718-0.128,0.922-0.052,1.663c-0.432-0.077-0.836-0.128-1.242-0.154 c-0.658-0.05-1.318-0.05-2.002-0.075c-0.483,0-0.963-0.025-1.446-0.025c-0.532,0-1.065,0.025-1.571,0.076v7.549 c1.623,0,3.22,0,4.842-0.051c0.762-0.027,1.496-0.078,2.256-0.104c-0.024,0.127-0.074,0.408-0.074,0.742 c0,0.282,0.025,0.358,0.102,0.844c-1.978-0.102-3.956-0.18-5.959-0.18c-1.293,0-2.561,0.027-3.854,0.078 c0.051-0.691,0.127-1.357,0.152-2.073c0.025-0.589,0-1.202,0-1.792c0.025-0.74,0.025-1.482,0.025-2.225 c0.025-1.867,0.05-3.736,0.05-5.629c0-0.998-0.024-1.995-0.05-3.02c-0.025-1.049,0.076-1.434-0.178-3.198 c1.242,0.077,2.51,0.154,3.753,0.154c1.978,0,3.904-0.128,5.857-0.231c-0.203,0.717-0.229,0.922-0.127,1.664 c-1.293-0.127-2.587-0.231-3.879-0.257c-0.964,0-1.928,0.026-2.891,0.026L258.006,113.155"></path> <path id="Fill-17" fill="#6E777E" d="M269.744,110.419c0,1.075,0,2.175,0.025,3.274c0.253,0,2.358,0.128,3.752-0.357 c0.76-0.281,2.484-1.126,2.484-3.506c0-2.328-1.597-3.018-2.434-3.249c-0.559-0.153-1.243-0.204-1.851-0.204 c-0.634,0-1.243,0.051-1.876,0.102C269.794,107.783,269.744,109.088,269.744,110.419z M268.704,105.353h4.894 c0.305,0,0.633,0.026,0.938,0.052c0.608,0.051,2.357,0.179,3.423,1.713c0.48,0.691,0.785,1.56,0.785,2.405 c-0.025,0.614-0.203,1.995-1.42,3.2c-1.064,1.049-2.383,1.303-3.828,1.611c1.166,1.534,2.308,3.07,3.523,4.555 c1.117,1.406,2.309,2.789,3.5,4.144l-0.025,0.281c-0.609-0.053-1.191-0.127-1.801-0.127c-0.583,0-1.141,0.051-1.723,0.127 c-0.939-1.383-1.877-2.738-2.865-4.068c-1.218-1.611-2.486-3.198-3.754-4.785l-0.582,0.104c0.024,1.508,0.024,3.045,0.024,4.555 c0,0.766,0,1.508,0.026,2.25c0.025,0.666,0.075,1.306,0.127,1.945c-0.559-0.076-0.965-0.127-1.547-0.127 c-0.482,0-0.964,0.051-1.445,0.102c0.151-1.51,0.279-2.994,0.304-4.479c0.052-1.561,0.052-3.121,0.077-4.707v-2.228 c0-1.431,0-2.864-0.077-4.298c-0.051-0.792-0.101-1.586-0.152-2.354L268.704,105.353L268.704,105.353z"></path> <path id="Fill-18" fill="#6E777E" d="M287.491,119.809c0.228,0.332,0.431,0.64,0.659,0.922c0.33,0.408,0.912,1.125,2.154,1.509 c0.279,0.102,0.861,0.256,1.648,0.256c3.067-0.024,3.727-2.379,3.727-3.581c0-0.513-0.102-1.535-1.065-2.381 c-0.762-0.689-1.674-0.947-2.586-1.305c-1.471-0.563-2.408-0.998-2.992-1.356c-1.318-0.818-2.104-2.148-2.104-3.762 c0-0.74,0.178-2.303,1.573-3.607c0.81-0.767,2.053-1.459,4.512-1.459c0.178,0,0.861,0,1.471,0.104 c1.014,0.178,1.725,0.536,2.662,1.049c-0.279,0.615-0.432,0.947-0.709,2.148l-0.33-0.025c-0.025-0.051-0.381-0.641-0.66-0.973 c-0.405-0.512-1.268-1.252-2.967-1.252c-2.535,0-3.295,1.893-3.295,2.941c0,0.844,0.405,1.459,0.584,1.689 c0.404,0.537,1.014,0.998,2.281,1.508c1.395,0.59,3.474,1.102,4.613,2.227c0.863,0.82,1.294,2.15,1.294,3.402 c-0.025,2.84-2.003,4.35-2.814,4.836c-1.52,0.896-3.118,0.896-3.702,0.896c-2.662,0-3.701-0.767-4.791-1.484 c0.381-1.05,0.432-1.201,0.531-2.303H287.491"></path> <path id="Fill-19" fill="#6E777E" d="M313.705,105.25c0.381,0.053,0.762,0.076,1.141,0.076c0.381,0,0.762-0.024,1.142-0.051 c-0.127,1.279-0.253,2.559-0.304,3.864c-0.076,1.638-0.076,3.3-0.102,4.937c-0.025,0.794-0.025,1.613-0.051,2.406 c-0.051,0.486-0.076,0.973-0.152,1.459c-0.38,2.227-1.344,3.377-2.028,3.99c-1.015,0.897-2.536,1.741-5.451,1.741 c-0.659,0-3.955-0.026-5.907-2.176c-0.532-0.587-0.785-1.177-0.913-1.458c-0.355-0.818-0.456-1.483-0.558-3.197 c0.025-1.689,0.025-3.379,0.025-5.066c0-1.049,0.025-2.072-0.025-3.121c-0.025-1.152-0.102-2.277-0.151-3.404 c0.507,0.025,1.015,0.076,1.546,0.076c0.457,0,0.938-0.024,1.42-0.051c-0.127,1.587-0.227,3.198-0.254,4.785 c-0.051,1.97,0,3.965,0.026,5.961c0.024,0.309,0.075,1.868,0.481,3.019c0.405,1.254,1.673,3.224,4.842,3.224 c3.322,0,4.691-2.225,5.122-3.454c0.202-0.563,0.304-1.151,0.405-2.404c0.025-1.306,0.076-2.611,0.076-3.941 c0-1.944-0.102-3.889-0.178-5.833L313.705,105.25"></path> <path id="Fill-20" fill="#6E777E" d="M321.666,109.318c-0.025,0.973-0.025,1.918-0.025,2.865c0,1.74,0.025,3.48,0.052,5.221 c0,1.229,0,2.431,0.075,3.633c0.051,0.768,0.127,1.51,0.203,2.252c-0.508-0.051-1.014-0.102-1.521-0.102 c-0.456,0-0.709,0.023-1.522,0.127c0.102-1.434,0.178-2.866,0.178-4.324c0.025-1.562,0.025-3.122,0.025-4.684 c0-0.945,0.025-1.893,0.025-2.863c0-1.486-0.025-2.994-0.127-4.453c-0.025-0.59-0.076-1.176-0.126-1.74 c0.786,0.103,1.039,0.129,1.495,0.129c0.559,0,0.94-0.053,1.471-0.104C321.793,106.632,321.717,107.988,321.666,109.318"></path> <path id="Fill-21" fill="#6E777E" d="M325.063,119.809c0.228,0.332,0.431,0.64,0.659,0.922c0.33,0.408,0.913,1.125,2.154,1.509 c0.279,0.102,0.862,0.256,1.648,0.256c3.068-0.024,3.727-2.379,3.727-3.581c0-0.513-0.102-1.535-1.065-2.381 c-0.761-0.689-1.674-0.947-2.586-1.305c-1.47-0.563-2.408-0.998-2.992-1.356c-1.318-0.818-2.103-2.148-2.103-3.762 c0-0.74,0.178-2.303,1.572-3.607c0.811-0.767,2.054-1.459,4.512-1.459c0.179,0,0.863,0,1.471,0.104 c1.015,0.178,1.725,0.536,2.663,1.049c-0.279,0.615-0.432,0.947-0.71,2.148l-0.33-0.025c-0.025-0.051-0.38-0.641-0.659-0.973 c-0.405-0.512-1.268-1.252-2.967-1.252c-2.535,0-3.296,1.893-3.296,2.941c0,0.844,0.406,1.459,0.584,1.689 c0.404,0.537,1.014,0.998,2.281,1.508c1.394,0.59,3.475,1.102,4.614,2.227c0.862,0.82,1.294,2.15,1.294,3.402 c-0.026,2.84-2.003,4.35-2.815,4.836c-1.521,0.896-3.119,0.896-3.703,0.896c-2.661,0-3.701-0.767-4.791-1.484 c0.38-1.05,0.432-1.201,0.532-2.303H325.063"></path> <path id="Fill-22" fill="#6E777E" d="M337.766,119.809c0.227,0.332,0.43,0.64,0.658,0.922c0.33,0.408,0.913,1.125,2.156,1.509 c0.277,0.102,0.861,0.256,1.647,0.256c3.068-0.024,3.727-2.379,3.727-3.581c0-0.513-0.102-1.535-1.064-2.381 c-0.761-0.689-1.673-0.947-2.586-1.305c-1.471-0.563-2.409-0.998-2.991-1.356c-1.32-0.818-2.105-2.148-2.105-3.762 c0-0.74,0.178-2.303,1.572-3.607c0.81-0.767,2.054-1.459,4.513-1.459c0.178,0,0.862,0,1.47,0.104 c1.015,0.178,1.725,0.536,2.663,1.049c-0.278,0.615-0.431,0.947-0.71,2.148l-0.33-0.025c-0.025-0.051-0.38-0.641-0.659-0.973 c-0.405-0.512-1.268-1.252-2.966-1.252c-2.535,0-3.297,1.893-3.297,2.941c0,0.844,0.406,1.459,0.584,1.689 c0.406,0.537,1.014,0.998,2.281,1.508c1.395,0.59,3.475,1.102,4.615,2.227c0.861,0.82,1.293,2.15,1.293,3.402 c-0.025,2.84-2.004,4.35-2.814,4.836c-1.52,0.896-3.118,0.896-3.701,0.896c-2.662,0-3.702-0.767-4.793-1.484 c0.381-1.05,0.432-1.201,0.533-2.303H337.766"></path> <path id="Fill-23" fill="#6E777E" d="M353.51,113.155c1.09-0.024,2.205-0.024,3.297-0.024c0.404,0,0.785,0,1.19-0.025 c0.583-0.025,1.191-0.128,1.774-0.18c-0.127,0.718-0.127,0.922-0.051,1.663c-0.431-0.077-0.836-0.128-1.242-0.154 c-0.659-0.05-1.317-0.05-2.002-0.075c-0.483,0-0.964-0.025-1.445-0.025c-0.533,0-1.065,0.025-1.572,0.076v7.549 c1.623,0,3.219,0,4.842-0.051c0.762-0.027,1.496-0.078,2.257-0.104c-0.024,0.127-0.075,0.408-0.075,0.742 c0,0.282,0.025,0.358,0.101,0.844c-1.978-0.102-3.954-0.18-5.958-0.18c-1.293,0-2.561,0.027-3.854,0.078 c0.051-0.691,0.127-1.357,0.152-2.073c0.025-0.589,0-1.202,0-1.792c0.025-0.74,0.025-1.482,0.025-2.225 c0.025-1.867,0.05-3.736,0.05-5.629c0-0.998-0.024-1.995-0.05-3.02c-0.025-1.049,0.076-1.434-0.178-3.198 c1.242,0.077,2.51,0.154,3.753,0.154c1.978,0,3.904-0.128,5.857-0.231c-0.203,0.717-0.229,0.922-0.127,1.664 c-1.293-0.127-2.586-0.231-3.879-0.257c-0.965,0-1.928,0.026-2.891,0.026L353.51,113.155"></path> <path id="Fill-24" fill="#6E777E" d="M120.671,130.488c-0.051,2.1-0.101,4.172-0.101,6.27c0,1.791,0.05,3.582,0.025,5.398 c0,0.793-0.025,1.612,0,2.406c0.025,0.459,0.051,0.921,0.102,1.381c0.761,0.076,1.521,0.127,2.257,0.153 c0.507,0.026,0.988,0.026,1.47,0.026c0.508,0,0.989-0.026,1.496-0.053c1.902-0.179,3.499-0.818,4.766-2.328 c1.75-2.149,1.776-4.861,1.776-5.756c0-0.462,0-1.279-0.279-2.404c-0.229-0.947-1.014-3.48-3.728-4.582 c-0.887-0.357-1.673-0.485-3.549-0.613L120.671,130.488z M126.351,129.186l1.141,0.074c0.837,0.077,3.119,0.258,5.021,1.868 c1.115,0.948,2.84,3.021,2.84,6.73c0,3.582-1.521,5.654-2.51,6.652c-0.482,0.486-1.622,1.51-3.347,2.123 c-1.42,0.512-3.043,0.615-3.474,0.64c-0.761,0.026-1.522,0.077-2.282,0.053c-1.065-0.026-2.105-0.077-3.195-0.103 c-0.887-0.025-1.774,0-2.687,0.025c0.127-1.383,0.203-2.789,0.228-4.195c0.051-1.588,0.051-3.148,0.051-4.734 c0-1.639-0.025-3.275-0.076-4.913c-0.025-1.407-0.076-2.813-0.127-4.22c0.888,0.05,1.775,0.102,2.662,0.102 c1.268,0,2.536-0.078,3.828-0.102H126.351L126.351,129.186z"></path> <path id="Fill-25" fill="#6E777E" d="M140.142,137.166c1.09-0.024,2.206-0.024,3.296-0.024c0.405,0,0.786,0,1.192-0.026 c0.582-0.023,1.192-0.127,1.774-0.178c-0.127,0.717-0.127,0.92-0.051,1.662c-0.43-0.077-0.837-0.127-1.243-0.154 c-0.659-0.051-1.317-0.051-2.002-0.074c-0.482,0-0.963-0.026-1.445-0.026c-0.532,0-1.065,0.026-1.572,0.076v7.548 c1.623,0,3.22,0,4.843-0.051c0.76-0.026,1.495-0.076,2.257-0.103c-0.026,0.128-0.077,0.409-0.077,0.742 c0,0.282,0.026,0.358,0.102,0.845c-1.977-0.104-3.955-0.18-5.958-0.18c-1.292,0-2.56,0.025-3.854,0.076 c0.051-0.689,0.127-1.355,0.152-2.072c0.025-0.589,0-1.203,0-1.791c0.025-0.742,0.025-1.484,0.025-2.225 c0.025-1.868,0.051-3.735,0.051-5.628c0-0.999-0.026-1.996-0.051-3.02c-0.025-1.048,0.076-1.434-0.178-3.198 c1.242,0.076,2.51,0.154,3.753,0.154c1.977,0,3.905-0.128,5.856-0.23c-0.203,0.716-0.229,0.92-0.127,1.663 c-1.292-0.128-2.586-0.232-3.878-0.257c-0.963,0-1.927,0.025-2.891,0.025L140.142,137.166"></path> <path id="Fill-26" fill="#6E777E" d="M152.691,138.088c2.941,0.076,4.259-0.102,5.273-1.381c0.608-0.768,0.913-1.741,0.913-2.713 c0-1.279-0.456-2.328-1.521-3.044c-1.09-0.666-2.18-0.692-4.665-0.589V138.088z M150.004,129.209 c0.887,0.051,1.8,0.078,2.687,0.078c1.167,0,2.308-0.052,3.473-0.078c0.381,0.026,0.736,0.026,1.09,0.078 c2.206,0.23,3.195,1.178,3.702,2.021c0.253,0.383,0.685,1.253,0.685,2.532c0,1.51-0.71,2.942-1.876,3.864 c-1.446,1.125-3.677,1.559-5.426,1.533c-0.533,0-1.09-0.023-1.623-0.05c0,1.51,0.025,3.044,0.05,4.554c0,0.742,0,1.51,0.051,2.251 c0.051,0.436,0.102,0.87,0.127,1.306c-0.786-0.128-1.065-0.178-1.496-0.178c-0.559,0-0.964,0.076-1.496,0.151 c0.126-1.355,0.229-2.71,0.253-4.067c0.051-1.816,0.025-3.633,0.025-5.45c0-1.944,0-3.888-0.076-5.859L150.004,129.209 L150.004,129.209z"></path> <path id="Fill-27" fill="#6E777E" d="M176.751,129.26c0.38,0.053,0.761,0.077,1.141,0.077c0.381,0,0.761-0.024,1.141-0.05 c-0.127,1.279-0.253,2.559-0.304,3.863c-0.076,1.637-0.076,3.299-0.101,4.938c-0.026,0.793-0.026,1.612-0.052,2.406 c-0.051,0.485-0.076,0.971-0.151,1.457c-0.38,2.227-1.344,3.379-2.029,3.992c-1.013,0.896-2.535,1.74-5.451,1.74 c-0.66,0-3.956-0.025-5.907-2.176c-0.533-0.588-0.786-1.176-0.913-1.457c-0.355-0.82-0.457-1.484-0.558-3.199 c0.025-1.689,0.025-3.377,0.025-5.066c0-1.05,0.026-2.073-0.025-3.122c-0.025-1.15-0.101-2.277-0.152-3.404 c0.507,0.027,1.014,0.077,1.546,0.077c0.457,0,0.938-0.024,1.42-0.05c-0.127,1.586-0.229,3.197-0.254,4.784 c-0.051,1.97,0,3.966,0.025,5.961c0.025,0.308,0.076,1.868,0.482,3.02c0.405,1.253,1.673,3.223,4.842,3.223 c3.322,0,4.69-2.225,5.122-3.453c0.203-0.564,0.303-1.152,0.406-2.406c0.025-1.305,0.076-2.609,0.076-3.94 c0-1.944-0.102-3.888-0.178-5.833L176.751,129.26"></path> <path id="Fill-28" fill="#6E777E" d="M185.217,133.328c-0.025,0.975-0.025,1.92-0.025,2.867c0,1.74,0.025,3.479,0.051,5.219 c0,1.229,0,2.432,0.077,3.634c0.05,0.767,0.126,1.51,0.203,2.251c-0.508-0.051-1.014-0.102-1.521-0.102 c-0.457,0-0.711,0.025-1.522,0.128c0.101-1.434,0.178-2.866,0.178-4.325c0.025-1.561,0.025-3.121,0.025-4.682 c0-0.945,0.026-1.893,0.026-2.865c0-1.484-0.026-2.993-0.127-4.453c-0.025-0.588-0.076-1.176-0.126-1.74 c0.786,0.104,1.039,0.13,1.495,0.13c0.559,0,0.938-0.053,1.471-0.102C185.345,130.643,185.269,131.998,185.217,133.328"></path> <path id="Fill-29" fill="#6E777E" d="M189.123,143.82c0.227,0.331,0.43,0.639,0.658,0.92c0.33,0.409,0.913,1.125,2.155,1.51 c0.278,0.102,0.862,0.256,1.648,0.256c3.068-0.025,3.726-2.379,3.726-3.581c0-0.513-0.1-1.536-1.063-2.381 c-0.761-0.69-1.675-0.946-2.587-1.306c-1.47-0.562-2.408-0.996-2.992-1.355c-1.318-0.817-2.104-2.148-2.104-3.761 c0-0.741,0.178-2.302,1.572-3.607c0.811-0.767,2.054-1.458,4.513-1.458c0.177,0,0.861,0,1.471,0.103 c1.014,0.178,1.724,0.536,2.662,1.048c-0.278,0.615-0.431,0.947-0.71,2.15l-0.33-0.026c-0.025-0.052-0.379-0.64-0.658-0.972 c-0.406-0.512-1.268-1.254-2.967-1.254c-2.535,0-3.297,1.893-3.297,2.941c0,0.844,0.406,1.46,0.584,1.689 c0.404,0.537,1.014,0.998,2.281,1.509c1.395,0.589,3.475,1.101,4.615,2.228c0.862,0.818,1.293,2.148,1.293,3.402 c-0.025,2.839-2.004,4.35-2.815,4.834c-1.521,0.897-3.119,0.897-3.703,0.897c-2.661,0-3.701-0.767-4.791-1.483 c0.38-1.051,0.431-1.203,0.532-2.303H189.123"></path> <path id="Fill-30" fill="#6E777E" d="M215.363,129.467c-0.076,1.074-0.127,2.148-0.152,3.248 c-0.025,1.588-0.025,3.172-0.025,4.785c0,1.97,0.025,3.914,0.051,5.885c0.025,1.279,0.051,2.584,0.102,3.863 c-0.432-0.077-0.914-0.153-1.369-0.153c-0.584,0-1.217,0.128-1.395,0.128c0.305-1.971,0.203-2.227,0.203-5.426 c0-2.097,0.051-4.195,0.051-6.293c-0.026-1.201-0.051-2.431-0.076-3.658c-1.141,0.614-2.257,1.254-3.321,1.943 c-0.432,0.282-0.862,0.563-1.294,0.871l-1.217-1.151l1.978-0.768l3.702-1.843c0.432-0.256,0.862-0.537,1.293-0.793 c0.381-0.281,0.785-0.537,1.166-0.846L215.363,129.467"></path> <path id="Fill-31" fill="#6E777E" d="M223.248,136.221c0.457,0.409,0.963,0.613,1.571,0.613c0.456,0,0.938-0.154,1.319-0.385 c0.607-0.355,1.369-1.201,1.343-2.916c0-1.1-0.177-2.02-1.04-2.711c-0.252-0.206-0.734-0.564-1.546-0.564 c-0.456,0-0.862,0.154-0.989,0.181c-0.76,0.308-1.57,1.048-1.648,2.942C222.234,133.816,222.158,135.248,223.248,136.221z M222.183,144.895c0.127,0.205,0.329,0.536,0.761,0.921c0.305,0.255,1.015,0.742,2.054,0.742c0.304,0,1.015-0.052,1.673-0.512 c0.736-0.513,1.648-1.817,1.648-4.042c0-1.715-0.558-2.713-1.039-3.251c-0.128-0.179-0.456-0.536-0.988-0.794 c-0.229-0.102-0.609-0.229-1.243-0.229c-0.685,0-1.318,0.127-1.876,0.486c-1.547,0.972-1.598,3.248-1.598,3.633 C221.549,142.848,221.701,144.023,222.183,144.895z M220.18,135.043c-0.126-0.256-0.354-0.844-0.354-1.586 c0-0.384,0.076-1.227,0.634-2.072c0.634-0.998,1.877-2.021,4.487-2.021c1.268,0,2.89,0.308,3.854,1.178 c0.506,0.459,0.734,0.973,0.836,1.203c0.203,0.485,0.305,0.945,0.305,1.508c0,0.281-0.051,0.896-0.355,1.561 c-0.634,1.355-1.623,1.791-2.891,2.329c0.33,0.077,0.686,0.179,0.989,0.282c1.876,0.588,2.535,1.61,2.865,2.404 c0.405,0.895,0.431,1.715,0.431,2.072c0,1.33-0.482,2.636-1.293,3.607c-1.623,1.919-4.082,1.996-4.868,1.996 c-0.38,0-1.293,0-2.257-0.307c-2.256-0.717-3.574-2.56-3.574-4.988c0-0.848,0.127-2.944,2.231-4.197 c0.482-0.281,0.964-0.487,2.004-0.846C222.664,137.039,220.967,136.783,220.18,135.043L220.18,135.043z"></path> <path id="Fill-32" fill="#6E777E" d="M240.513,140.672v-8.57c-0.913,1.227-1.8,2.455-2.661,3.709 c-1.09,1.613-2.154,3.25-3.221,4.861H240.513z M245.102,140.621c-0.049,0.309-0.075,0.613-0.075,0.922 c0,0.332,0.026,0.461,0.101,1.048c-0.252-0.102-0.531-0.23-1.115-0.23c-0.455,0-0.912,0.026-1.369,0.026 c0.025,0.87,0.025,1.74,0.051,2.584c0.025,0.793,0.076,1.587,0.102,2.355c-0.685-0.077-0.811-0.103-1.242-0.103 c-0.482,0-0.761,0.05-1.217,0.103c0.051-0.998,0.102-1.995,0.127-2.993v-1.945h-7.81v-0.717l8.165-12.051 c0.304,0.025,0.607,0.052,0.912,0.052c0.254,0,0.533-0.026,1.039-0.077c-0.051,2.2-0.101,4.375-0.101,6.574 c-0.025,1.486-0.025,2.969-0.025,4.453H245.102L245.102,140.621z"></path> <path id="Fill-33" fill="#6E777E" d="M247.384,144.382c0.126,0.154,0.456,0.64,0.888,1.049c1.039,0.998,2.307,1.1,2.814,1.1 c0.304,0,0.963-0.025,1.674-0.332c2.205-0.973,2.408-3.608,2.408-4.299c0-0.281-0.026-0.947-0.305-1.663 c-0.582-1.484-1.953-2.405-3.474-2.405c-1.141,0-1.825,0.436-2.738,1.049l-0.38-0.205c0.05-1.125,0.127-2.227,0.127-3.352 c0-1.304-0.102-2.635-0.178-3.939l-0.229-1.74c0.989,0.076,2.004,0.128,3.017,0.128c2.029,0,4.032-0.128,6.034-0.255 c-0.101,0.613-0.126,0.793-0.126,1.125c0,0.332,0.05,0.742,0.075,1.075c-1.443-0.052-2.915-0.103-4.386-0.077 c-1.015,0.025-2.028,0.077-3.042,0.104v5.551c0.354-0.129,1.774-0.691,3.168-0.691c0.33,0,1.117,0.026,2.004,0.359 c1.015,0.383,3.144,1.56,3.144,4.58c0,3.02-2.181,5.219-4.919,5.832c-0.43,0.104-0.988,0.182-1.926,0.182 c-1.801,0-2.46-0.231-4.133-1.102c0.304-0.844,0.33-1.075,0.304-1.945L247.384,144.382"></path> <path id="Fill-34" fill="#6E777E" d="M142.257,33.955c2.751-2.583,6.284-3.267,7.894-1.524c1.61,1.742,0.691,5.25-2.059,7.834 c-2.751,2.584-6.284,3.265-7.896,1.525C138.585,40.048,139.51,36.54,142.257,33.955"></path> <path id="Fill-35" fill="#6E777E" d="M118.158,68.155h-0.008"></path> <path id="Fill-36" fill="#6E777E" d="M118.165,68.155h-0.007"></path> <path id="Fill-37" fill="#6E777E" d="M124.273,69.058h-0.008"></path> <g id="Group-41" transform="translate(0.000000, 68.489362)"> <path id="Fill-38" fill="#6E777E" d="M124.28,0.568h-0.007"></path> <polygon id="Fill-40" fill="#6E777E" points="0.047,24.685 375.916,24.685 375.916,20.21 0.047,20.21 "></polygon> </g> <path id="Fill-42" fill="#6E777E" d="M119.366,67.717c-8.266,6.64-17.839,10.49-28.837,9.33 c-3.689-0.598-7.311-1.395-10.867-2.391c-7.542,2.16-16.368,3.621-24.567,1.825c-2.042-0.595-4.742-1.659-5.203-4.113 c-0.165-2.227,1.779-4.05,3.557-4.948c9.55-4.683,21.404-0.995,30.691,1.891c3.687-2.718,6.882-6.373,9.716-9.889l6.013-7.536 c0.955-1.392,3.141-4.282,3.141-4.282c-9.782-0.5-20.456-1.629-26.384-10.195c-2.865-4.649-2.535-11.186,0.297-15.77 c5.959-8.796,15.806-11.419,25.751-12.017c6.193-0.166,11.953,1.062,17.321,3.022c0,0-0.132,0.997-0.231,1.494 c-7.803-1.991-17.289-2.589-25.059,0.066c-6.455,1.893-14.03,7.735-14.753,15.073c-0.692,4.88,1.778,9.426,6.027,12.016 c5.301,3.288,11.691,3.982,18.277,4.183c8.229-10.921,20.127-25.395,31.452-32.796c4.58-2.723,9.289-5.48,14.983-5.246 c1.384,0.07,3.098,0.664,4.051,2.191c1.846,2.755,0.264,6.209-1.052,8.698c-5.831,10.225-17.855,20.315-27.636,24.896 c-4.019,1.726-8.2,3.021-12.48,4.051c-4.84,7.469-8.467,12.654-15.536,17.925c-3.07,2.291-6.422,4.117-9.946,5.446 c6.587,2.82,16.037,2.855,22.49-0.365c5.304-2.523,10.375-6.541,14.325-11.553l9.999-12.748h10.354L123.821,73.46 c-0.374,0.495-0.469,0.949-0.272,1.349c0.784,1.508,3.488,0,3.488,0s2.874-1.111,13.347-10.608 c3.326-3.021,6.29-6.009,9.089-9.495l7.039-8.899h9.758c-2.34,3.055-4.447,5.944-6.524,8.865 c5.008-4.116,9.979-8.234,16.138-9.462c2.337-0.332,4.575,0.4,5.894,2.393c1.712,2.753,0.624,6.379-0.988,8.827l-2.074,2.625 l-12.152,14.243c-0.363,0.446-0.325,0.869,0.037,1.176c0.889,0.623,2.14-0.415,3.058-0.711c4.546-2.194,8.261-5.03,12.147-8.75 c1.085-1.228,2.115-3.236,3.133-4.498c6.222-7.901,14.659-13.344,23.944-15.171c2.564-0.364,5.729-0.764,7.638,1.262 c0.561,0.697,0.69,1.595,0.66,2.52l1.477-1.725l12.025-15.469l11.574-15.088h9.878l-28.698,37.495l-14.622,19.023 c-0.165,0.333-0.307,0.747-0.142,1.081c0.391,0.843,1.955,0.38,2.774,0.214c6.126-1.89,11.393-6.375,15.778-11.654l15.604-20.016 l-6.106-0.006l2.188-2.649h6.03c0,0,17.765-23.186,18.093-23.519h9.881l-17.799,23.386l14.635-0.028l-2.34,2.773l-14.405,0.009 l-23.516,30.31c-0.329,0.463-0.364,0.919-0.253,1.215c0.307,0.618,0.648,0.8,1.451,0.781c3.182-0.045,5.856-2.194,8.69-4.453 c3.129-2.473,8.25-7.525,8.25-7.525l1.58,1.657c-5.138,4.647-10.158,10.195-15.592,11.996c-1.616,0.631-5.031,1.398-7.604-0.121 c-2.538-1.497-2.88-4.19-1.062-7.834l-0.199,0.034c-5.464,4.25-10.766,9.429-18.242,8.202c-1.445-0.267-2.802-1.494-3.428-2.857 c-0.622-1.494-0.686-3.42-0.227-4.979c-1.418,0.961-2.833,2.291-4.28,3.286c-4.185,2.954-9.405,6.644-14.772,4.254 c-2.206-1.161-2.979-3.923-2.912-6.347c0.067-0.597,0.132-1.261,0.23-1.794c-4.018,3.32-8.05,6.061-12.628,7.983 c-1.919,0.713-6.663,1.732-9.024-0.687c-1.168-1.435-1.42-2.665-0.927-4.92c0.659-2.789,6.642-9.048,6.642-9.048l11.62-13.211 c0,0,0.521-0.587,0.027-1.277c-0.592-0.832-1.81-0.129-2.561,0.151c-5.528,2.323-11.789,7.471-19.015,14.751 c-4.347,4.052-12.268,14.068-12.268,14.068l-9.855,0.008l7.486-9.607c-0.231-0.297-0.594,0.132-0.594,0.132 s-7.54,7.563-12.578,9.622l-0.088,0.034c-1.919,0.712-6.673,1.731-9.034-0.688c-1.167-1.432-1.418-2.664-0.924-4.92 C117.941,68.924,119.366,67.717,119.366,67.717z M152.732,10.951l-0.559-0.665c-2.438-1.427-5.17,0.134-7.311,1.262 c-11.292,6.741-22.501,22.398-29.582,33.019c1.779-0.298,8.696-2.604,13.407-5.598c8.331-4.68,19.008-14.938,23.486-23.735 C152.667,13.939,153.458,12.412,152.732,10.951z M74.758,73.349c-4.279-1.661-8.594-3.222-13.303-3.886 c-3.129-0.298-6.717-0.498-9.056,1.693c-0.479,0.515-0.503,0.963-0.292,1.434c0.988,1.958,3.222,1.987,5.065,2.415 C63.167,75.772,69.225,74.844,74.758,73.349z M214.871,48.73c-1.278-1.522-3.555-0.099-5.034,0.531 c-6.061,3.684-11.561,8.696-16.565,14.339c-2.638,3.123-5.414,6.154-6.7,9.905c-0.097,0.6,0.283,1.373,0.708,1.671 c1.584,0.464,2.891-0.388,4.273-0.885c8.044-3.882,15.353-11.851,20.947-19.189C213.656,53.144,215.978,50.661,214.871,48.73 L214.871,48.73z"></path> <path id="Fill-43" fill="#6E777E" d="M280.463,22.969c0.148-0.014,0.291,0.067,0.421,0.053c0-0.232-0.065-0.501-0.065-0.744 c0.017-0.583,0.134-1.202,0.471-1.65c0.547,1.678,1.719,3.002,3.082,4.003c-0.009,0.15-0.078,0.311-0.164,0.406 c-0.206,0.449-2.461-1.813-2.84-1.621c-0.053,0.107-0.078,0.254-0.014,0.363c0.596,0.975,1.662,1.493,2.348,2.366 c0.016,0.177-0.094,0.325-0.185,0.474c-1.183-0.488-2.149-1.379-3.177-2.15c-0.432-0.274-0.834-0.609-1.355-0.69 c-0.118,0-0.26,0.056-0.353,0.056C279.022,23.197,279.738,22.941,280.463,22.969z M285.994,22.045 c0.285,0.905,0.621,1.702,1.145,2.458c0.232,0.258,0.418,0.65,0.922,0.529c0.213-0.211-0.525-0.984-0.691-1.484 c-0.2-0.63-0.787-1.705-0.295-1.878c0.193-0.015,0.285,0.055,0.414,0.173c0.078,0.328,0.243,0.718,0.393,1.027 c0.785,1.689,2.162,2.678,3.811,3.12l0.087,0.829c-0.662-0.031-1.605-0.437-2.932-1.193c-0.07-0.026-0.226-0.066-0.252,0.043 c-0.103,0.323,0.148,0.555,0.373,0.713c0.825,0.631,1.817,1.027,2.849,1.239l0.035,0.544c-2.413-0.241-4.603-1.645-5.677-3.864 c-0.299-0.65-0.545-1.352-0.621-2.082C285.59,21.799,285.886,21.882,285.994,22.045z M295.676,24.281c0,0,0.066,1.351-1.021,1.997 c1.175,0.397,2.11-0.22,2.11-0.22c-0.026,0.883-0.806,1.801-1.239,2.151c0.727,0.286,1.758-0.11,1.758-0.11 c0.34,3.264,0.272,4.368,0.272,4.368H296.1c0,0,0.147-2.573-2.628-3.678c-0.014-2.291-0.362-4.288-0.362-4.288 S294.174,24.589,295.676,24.281z M299.733,27.071c0.7,0,1.263,0.697,1.263,1.556c0,0.861-0.562,1.56-1.263,1.56 c-0.698,0-1.263-0.698-1.263-1.56C298.471,27.768,299.035,27.071,299.733,27.071z M302.2,28.099c0,0,1.03,0.396,1.755,0.11 c-0.426-0.35-1.211-1.268-1.242-2.151c0,0,0.941,0.617,2.12,0.22c-1.087-0.646-1.026-1.997-1.026-1.997 c1.502,0.309,2.566,0.22,2.566,0.22s-0.345,1.997-0.357,4.288c-2.585,1.145-2.633,3.678-2.633,3.678h-1.45 C301.933,32.466,301.871,31.524,302.2,28.099z M307.678,27.622c1.027-0.212,2.025-0.608,2.84-1.239 c0.23-0.158,0.48-0.39,0.38-0.713c-0.026-0.109-0.182-0.069-0.249-0.043c-1.33,0.756-2.275,1.162-2.938,1.193l0.088-0.829 c1.645-0.442,3.027-1.431,3.816-3.12c0.15-0.309,0.315-0.7,0.393-1.027c0.13-0.118,0.22-0.188,0.414-0.173 c0.492,0.173-0.094,1.248-0.293,1.878c-0.17,0.5-0.906,1.273-0.695,1.484c0.506,0.121,0.689-0.271,0.924-0.529 c0.518-0.756,0.859-1.554,1.145-2.458c0.111-0.163,0.408-0.246,0.443,0.175c-0.076,0.729-0.322,1.432-0.626,2.082 c-1.075,2.219-3.263,3.623-5.677,3.864L307.678,27.622z M318.068,20.628c0.34,0.448,0.463,1.068,0.47,1.65 c0,0.243-0.064,0.512-0.064,0.744c0.134,0.014,0.271-0.067,0.418-0.053c0.73-0.028,1.446,0.228,1.834,0.866 c-0.091,0-0.233-0.056-0.35-0.056c-0.522,0.082-0.923,0.417-1.354,0.69c-1.029,0.771-1.996,1.662-3.179,2.15 c-0.095-0.149-0.193-0.297-0.182-0.474c0.683-0.873,1.745-1.392,2.345-2.366c0.061-0.109,0.038-0.255-0.014-0.363 c-0.379-0.192-2.633,2.069-2.84,1.621c-0.09-0.095-0.155-0.256-0.168-0.406C316.35,23.63,317.525,22.306,318.068,20.628z M277.654,25.24c0.297-0.243,0.728-0.39,1.175-0.311c1.235,0.513,2.196,1.431,3.357,2.083c0.536,0.295,1.04,0.567,1.627,0.727 c0.976,0.22,2.149,0.03,2.823-0.673l0.117-0.19c0.928,0.864,1.955,1.421,3.092,1.893c0.639,0.185,1.281,0.38,1.986,0.428 l-0.027,0.45c3.293,0.004,3.358,3.665,3.358,3.665h2.378v0.751h4.357V33.31h2.427c0,0,0.158-3.66,3.353-3.665l-0.025-0.458 c0.655-0.064,1.26-0.247,1.864-0.419c1.132-0.472,2.164-1.029,3.087-1.893l0.116,0.19c0.678,0.703,1.853,0.894,2.823,0.673 c0.586-0.16,1.097-0.432,1.632-0.727c1.155-0.651,2.121-1.57,3.357-2.083c0.44-0.079,0.874,0.068,1.175,0.311 c0.074,0.04,0.117,0.243,0.233,0.163c0.091-0.271,0.077-0.649,0.04-0.934c-0.173-1.337-1.279-2.257-2.504-2.542 c-0.074-0.569-0.221-1.138-0.428-1.636c-0.35-0.675-0.873-1.271-1.563-1.529c-0.194,1.947-1.272,3.663-2.694,4.746 c-0.037-0.65,0.092-1.407-0.142-2.002c-0.077-0.256-0.353-0.392-0.56-0.497c-0.887-0.448-2.099-0.517-3.012-0.071 c-0.389,0.244-0.365,0.786-0.522,1.176c-0.366,1.323-1.389,2.259-2.625,2.67c0.104-0.751,0.191-1.238,0.191-1.238 s-3.355,0.445-5.258-0.382c0,0-0.424,3.265-3.113,3.267c-2.668,0.002-3.129-3.267-3.129-3.267 c-1.904,0.827-5.258,0.382-5.258,0.382s0.09,0.506,0.193,1.281c-1.291-0.387-2.369-1.344-2.758-2.712 c-0.155-0.391-0.129-0.932-0.518-1.176c-0.914-0.446-2.125-0.377-3.01,0.071c-0.207,0.105-0.484,0.241-0.562,0.497 c-0.232,0.595-0.103,1.352-0.141,2.002c-1.42-1.083-2.501-2.799-2.699-4.746c-0.686,0.258-1.208,0.854-1.562,1.529 c-0.208,0.497-0.345,1.067-0.428,1.636c-1.225,0.284-2.33,1.204-2.5,2.542c-0.038,0.284-0.051,0.663,0.041,0.934 C277.537,25.483,277.578,25.28,277.654,25.24L277.654,25.24z"></path> <path id="Fill-44" fill="#6E777E" d="M293.271,5.621c0.183-0.656,0.809-1.085,1.508-1.138c1.057-0.064,1.924,0.566,2.345,1.472 c0.476,0.862,0.509,1.9,0.557,2.927c-0.019,1.473,0.02,2.963,0.431,4.341c-0.916-0.44-0.799-1.676-0.976-2.589 c-0.124-1.498-0.025-3.192-0.802-4.502c-0.333-0.568-0.942-0.926-1.643-0.819c-0.508,0.043-0.857,0.45-1.025,0.9 c0.004,0.11-0.035,0.232-0.064,0.342C293.324,6.374,293.19,5.988,293.271,5.621z M297.668,2.948 c0.302-0.688,0.896-1.144,1.648-1.3c0.881-0.116,1.648,0.261,2.162,0.849c0.291,0.399,0.438,0.81,0.524,1.314 c0.124,1.176-0.57,2.257-0.817,3.347c-0.302,1.141-0.279,2.236-0.431,3.418c-0.043,0.768-0.125,2.295-0.107,3.084 c-0.039,0.092-0.035,0.22-0.155,0.24c-0.11,0.046-0.165-0.065-0.208-0.138c-0.268-1.789-0.195-4.684,0.19-6.381 c0.193-1.149,0.684-1.878,0.747-3.078c0.009-0.843-0.28-1.526-0.962-1.819c-0.446-0.199-1.08-0.19-1.494,0.069 c-0.488,0.226-0.688,0.763-0.674,1.298c0.035,0.1,0.039,0.213,0.096,0.3c0.276-0.251,0.453-0.353,0.677-0.369 c0.23-0.003,0.449,0.121,0.601,0.275c0.314,0.437,0.303,0.984,0.314,1.53c-0.069,1.357-0.373,2.659-0.443,4.045 c-0.041,1.112-0.051,2.952,0.225,4.106c-0.035,0.066-0.035,0.18-0.139,0.186c-0.143,0.012-0.211-0.099-0.268-0.209 c-0.195-0.532-0.24-1.167-0.318-1.786c-0.053-0.797-0.084-2.216-0.066-3.045c0.043-1.175,0.393-2.448,0.289-3.626 c-0.013-0.163-0.074-0.338-0.189-0.431c-0.168-0.116-0.344-0.218-0.535-0.129c-0.155,0.064-0.197,0.189-0.225,0.382 C297.547,4.524,297.357,3.621,297.668,2.948z M302.467,5.955c0.424-0.906,1.291-1.537,2.344-1.472 c0.699,0.053,1.326,0.482,1.512,1.138c0.082,0.368-0.048,0.753-0.328,0.933c-0.037-0.11-0.07-0.232-0.063-0.342 c-0.174-0.45-0.524-0.856-1.028-0.9c-0.704-0.106-1.312,0.251-1.646,0.819c-0.776,1.31-0.672,3.005-0.803,4.502 c-0.172,0.913-0.055,2.149-0.975,2.589c0.414-1.377,0.449-2.868,0.438-4.341C301.961,7.855,301.996,6.817,302.467,5.955z M302.104,16.276c0.174-0.04,0.315,0.083,0.382,0.218c-0.066,0.296-0.396,0.35-0.589,0.486c0.768,0.717,1.071,2,0.73,3.149 c-0.167,0.5-0.427,1.027-0.963,1.218l-0.264,0.027c0.324-0.974,0.482-2.26,0.156-3.285c-0.104-0.298-0.182-0.611-0.35-0.866 c-0.341,0.024-0.69,0.068-1.023,0.121c0.246,1.475,0.272,3.043-0.053,4.475c-0.275,0.04-0.578,0.024-0.838-0.04 c-0.207-1.055-0.272-2.271-0.154-3.379c0.051-0.352,0.129-0.69,0.195-1.041c-0.234-0.082-0.535-0.053-0.782-0.123 c-0.116,0-0.341-0.163-0.35,0.069c-0.47,1.255-0.638,2.852-0.159,4.137c-0.142,0.025-0.246-0.095-0.389-0.135 c-0.848-0.435-0.941-1.476-0.885-2.408c0.072-0.716,0.336-1.365,0.743-1.919c-0.226-0.136-0.536-0.136-0.628-0.406 c-0.013-0.121-0.025-0.269,0.103-0.311c0.311-0.041,0.524,0.163,0.795,0.217C299.126,16.899,300.831,16.831,302.104,16.276z M298.914,24.888c-0.233-0.163-0.389-0.432-0.608-0.607l-0.069-1.553l0.69,0.161l0.038,0.066 C298.94,23.605,298.928,24.237,298.914,24.888z M293.535,7.66c0.328,0.041,0.602-0.108,0.898-0.161 c0.431,0.216,0.612,0.812,0.846,1.228l-0.324-0.162c-0.457-0.187-1.031-0.121-1.471-0.403c0,0.333,0.117,0.661,0.221,0.959 c0.328,0.892,1.277,1.081,2.059,1.527c-0.363-0.069-0.77-0.042-1.105-0.179c-0.199-0.08-0.381-0.186-0.561-0.227 c0.112,0.582,0.489,1.16,0.923,1.542c0.299,0.269,0.706,0.361,1.068,0.484c0.115,0.029,0.207,0.069,0.246,0.205 c-0.375-0.094-0.816-0.014-1.186-0.068c0.408,1.147,1.762,1.71,2.701,2.319c-0.035,0.149-0.143,0.245-0.273,0.296 c-0.271,0.109-0.458,0.45-0.779,0.354c-0.339-0.055-0.675,0.136-0.848,0.405c-0.091,0.189-0.129,0.378-0.065,0.597 c-0.677,0.891-1.027,2.228-0.741,3.42c0.264,1.186,1.117,2.026,2.084,2.554v0.739c0.004,1.848,1.701,2.774,2.455,2.78 c0.998,0,2.59-0.968,2.597-2.78V22.35c0.962-0.527,1.821-1.368,2.085-2.554c0.284-1.192-0.064-2.529-0.747-3.42 c0.068-0.218,0.026-0.408-0.065-0.597c-0.168-0.269-0.505-0.46-0.846-0.405c-0.323,0.096-0.505-0.244-0.777-0.354 c-0.134-0.052-0.238-0.147-0.277-0.296c0.939-0.609,2.289-1.171,2.694-2.319c-0.366,0.054-0.812-0.026-1.183,0.068 c0.035-0.135,0.127-0.175,0.246-0.205c0.363-0.123,0.769-0.215,1.066-0.484c0.432-0.382,0.809-0.96,0.924-1.542 c-0.181,0.042-0.367,0.147-0.56,0.227c-0.338,0.137-0.738,0.109-1.107,0.179c0.776-0.446,1.733-0.635,2.056-1.527 c0.104-0.298,0.224-0.626,0.224-0.959c-0.442,0.282-1.018,0.216-1.472,0.403l-0.324,0.162c0.233-0.417,0.414-1.012,0.844-1.228 c0.302,0.053,0.573,0.202,0.9,0.161c0.652-0.027,1.209-0.553,1.404-1.163c0.314-1.095-0.17-2.204-0.947-2.878 c-0.615-0.5-1.436-0.745-2.305-0.663c-0.486,0.082-1.078,0.323-1.078,0.323s-0.457-2.74-3.29-2.744 c-2.567,0.004-3.28,2.744-3.28,2.744s-0.596-0.241-1.074-0.323c-0.878-0.083-1.697,0.163-2.305,0.663 c-0.787,0.675-1.267,1.783-0.956,2.878C292.322,7.106,292.884,7.633,293.535,7.66L293.535,7.66z"></path> <path id="Fill-45" fill="#6E777E" d="M324.255,44.942c-0.384,0.087-0.737-0.424-1.031-0.618c-1.839-1.233-3.812-2.232-5.933-2.881 c-0.418-0.126-2.879-0.616-2.904-0.884c-0.073-0.612,0.732-0.102,0.818-0.508c0.058-0.297,0.096-0.6,0.147-0.899l0.204-0.069 c0.219,0.273,0.233,0.658,0.379,0.968c0.074,0.151,0.203,0.377,0.399,0.394c0.812,0.077-0.113-2.222,0.564-2.417 c0.147,0.632,0.445,2.207,0.934,2.629c0.906,0.781-0.291-3.533,0.638-3.668l0.204,0.154c-0.014,0.646,0.227,4.122,1.027,4.187 l0.202-0.14c0.052-0.626-0.462-5.183,0.583-5.129c0.072,0.092,0.104,3.041,0.176,3.525c0.078,0.497,0.334,1.893,0.666,2.236 c0.293,0.308,0.467-0.045,0.473-0.323c0.05-1.986-0.442-4.047,0.299-5.986c0.078-0.199,0.203-0.496,0.434-0.549l0.189,0.168 c-0.577,2.992-0.202,5.685,1.149,8.403C324.004,43.802,325.324,44.695,324.255,44.942z M321.992,45.856 c-1.065,1.921-2.162,3.773-2.4,6.012c-0.064,0.605-0.181,2.357,0.068,2.866c0.16,0.328,0.542,0.572,0.363,1.013 c-0.068,0.183-0.275,0.309-0.469,0.309c-0.492,0-0.463-0.875-0.558-1.209c-0.669-2.346-1.99-4.285-3.238-6.35 c-0.419-0.69-2.835-4.236-2.771-4.75c0.03-0.265,0.543-1.76,0.945-1.154c0.018,0.47-0.26,1.415-0.148,1.773 c0.388,1.281,1.55-1.716,1.961-1.419c0.104,0.076,0.081,0.247,0.055,0.352c-0.245,0.906-0.884,1.668-0.708,2.668 c0.566,0.896,1.334-2.251,2.236-2.458c-0.025,1.087-1.156,2.583-1.272,4.062l0.149,0.25c0.308,0.008,1.806-3.451,2.746-3.876 c-0.098,1.201-2.228,4.205-1.814,5.31c0.226,0.163,0.362,0.047,0.476-0.167c0.6-1.15,1.748-3.636,2.775-4.356 c0.087,0.039,0.228,0.179,0.177,0.294c-0.788,1.718-2.029,3.307-2.204,5.284c-0.023,0.26,0.045,0.539,0.348,0.535 c0.834-1.016,1.369-3.598,2.82-5.073c0.07-0.071,0.381-0.342,0.486-0.28C322.135,45.559,322.035,45.774,321.992,45.856z M311.334,57.42c-0.061,0-0.133,0.009-0.19,0c-0.066-0.014-0.661-0.308-0.777-0.36c-1.196-0.538-2.131-0.835-3.461-0.835 c-0.342,0-0.697,0.09-1.033,0l-0.027-0.226c1.124-0.644,4.048,0.139,4.311-0.238c0.168-0.241-0.438-4.288,0.186-5.592l0.207-0.126 c0.141,1.048,0.135,2.11,0.285,3.159c0.056,0.386,0.271,3.002,0.866,2.728c0.57-0.268-0.008-6.321,0.395-7.588 c0.069-0.223,0.168-0.468,0.432-0.491c0.009,0.929,0.19,6.233,1.083,6.461c0.134,0.034,0.255-0.038,0.299-0.168 c0.275-0.814-0.291-4.859,0.432-5.268l0.207,0.142c0.125,1.215,0.103,4.206,0.59,5.14l0.26,0.071 c0.182-0.155,0.255-1.963,0.432-2.445l0.229,0.016c0.06,0.371,0.12,1.782,0.182,1.953c0.323,0.934,0.655-0.562,1.01-0.395 c0.357,0.17,0.589,0.854,0.573,1.223C314.619,55.091,313.824,55.223,311.334,57.42z M306.616,64.517 c-2.004,1.624-3.652,3.389-4.145,5.829c-0.099,0.509-0.142,1.03-0.259,1.538l-0.315-0.095 C301.125,69.113,302.635,64.054,306.616,64.517z M304.273,73.228c-1.639-1.779-0.369-4.847,1.674-5.415 c0.236-0.065,0.605-0.195,0.824-0.044C305.18,69.614,304.155,70.924,304.273,73.228z M307.15,70.5 c0.726-0.081-0.216,1.341-0.297,1.599c-0.32,1.041-0.275,2.118,0.254,3.128C305.156,75.352,304.601,70.774,307.15,70.5z M300.705,68.915l-0.223,0.083c-0.182-0.169-0.212-0.395-0.242-0.627c-0.303-2.526,0.556-4.905,2.841-6.187 c0.708-0.396,1.908-1.042,2.72-0.618C302.865,64.22,301.85,64.937,300.705,68.915z M299.57,66.122l-0.219,0.082 c-0.188-0.169-0.217-0.395-0.242-0.627c-0.302-2.528,0.556-4.905,2.84-6.185c0.704-0.396,1.908-1.047,2.721-0.62 C301.728,61.428,300.719,62.144,299.57,66.122z M298.293,63.404c-0.547-0.225-0.229-3.418-0.133-4.031l-0.113-0.212 c-0.543-0.013-0.903,1.608-1.026,2.021c-0.55-0.332-0.554-2.077-0.64-2.697l-0.172-0.167c-1.051,0.46-0.373,4.158-0.64,4.69 c-0.293,0.045-0.309-0.384-0.62-0.351c-0.321,0.034-0.525,0.455-0.584,0.734c-0.227,0.982,0.201,2.04,0.057,3.018 c-0.015,0.069-0.088,0.315-0.18,0.325c-0.27,0.018-0.389-1.086-0.879-1.378c-0.061-0.035-0.234,0.02-0.271,0.072 c-0.416,0.519-0.178,2.145-0.19,2.81l-0.152,0.237c-0.25,0.072-0.315-0.394-0.527-0.211c-0.13,0.114-0.211,0.735-0.228,0.915 c-0.074,0.907-0.087,1.803-0.138,2.712c-0.01,0.208-0.912,1.73-1.041,2.134c-0.19,0.578,0.182,1.144,0.125,1.729 c-0.441,0.141-0.518-0.285-0.816-0.451c-0.486-0.267-2.125,0.674-2.559,0.873c-0.156-0.333,0.422-0.541-0.025-0.703 c-0.402-0.146-0.855-0.237-1.27-0.336l0.008-0.227c1.028,0.23,2.594,0.607,3.467-0.253c0.203-0.198,1.42-2.867,1.463-3.162 c0.131-0.853,0.081-1.812,0.151-2.682c0.179-2.162,0.532-4.251,1.122-6.338c0.268-0.95,0.73-1.971,0.924-2.922 c0.195-0.972,0.111-2.008,0.332-3.006l0.41-1.839l-0.139-0.238c-0.564,0.096-0.828,0.897-1.108,1.319 c-0.498-0.37,0.158-2.709,0.245-3.287l-0.203-0.058c-0.534,0.417-0.756,1.053-1.032,1.644c-0.682-1.549,0.178-2.19,0.284-3.54 c-0.228-0.031-0.399,0.068-0.589,0.169c0.986-5.258,11.439-4.29,12.371-10.132c0.087-0.534,0.055-1.076,0.087-1.616 c0.409,0.421,0.647,1.012,0.755,1.59c0.611,3.393-6.839,5.729-6.839,5.729c1.97-0.197,5.353-0.841,6.852-2.188 c0.173,2.025-8.655,3.081-9.6,4.355c1.674-0.243,3.36-0.352,5.05-0.437c-1.803,1.048-3.635,0.816-5.404,2.445l0.111,0.181 c0.32-0.06,0.622-0.212,0.929-0.309c1.199-0.371,2.456-0.464,3.699-0.506c-1.519,0.696-3.134,1.222-4.247,2.558l0.039,0.183h0.215 c0.809-0.526,3.445-1.276,4.322-0.857c-1.387,0.557-2.711,1.297-3.727,2.417c0.025,0.143,0.139,0.225,0.273,0.168 c1.515-0.66,2.741-1.215,4.455-1.041c-0.165,0.406-4.179,2.229-3.712,2.953c0.047,0.072,0.191,0.064,0.258,0.027 c1.262-0.712,3.178-1.666,4.672-1.181l-0.014,0.185c-0.959,0.466-3.212,1.594-3.471,2.697c1.019-0.029,3.5-1.953,4.645-0.927 c-0.052,0.06-0.099,0.146-0.159,0.197c-0.241,0.208-0.707,0.377-0.999,0.557c-1.354,0.858-2.658,2.103-3.279,3.618 C298.626,62.022,298.453,62.729,298.293,63.404z M292.539,77.418c0,0.768-1.576,0.223-1.32-0.608 C291.355,76.682,292.384,77.264,292.539,77.418z M287.06,77.457c0.022-0.027,1.234-0.871,1.148-0.223 C288.07,78.277,286.685,77.857,287.06,77.457z M286.408,73.208c0.108,0.248,0.377,0.572,0.277,0.847 C285.463,74.425,285.727,71.67,286.408,73.208z M284.293,75.449l0.078-0.293c0.271-0.016,0.941,0.242,1.195,0.33l0.035,0.276 C285.265,76.168,284.458,75.961,284.293,75.449z M289.794,56.398c-0.436,0.031-1.396,0.784-2.009,0.922l-0.167-0.082 c0.123-0.487,0.612-0.713,0.79-1.175l-0.122-0.216c-1.468-0.474-2.61,1.205-3.886,1.489c-0.123,0.028-0.302,0.029-0.365-0.109 c0.112-0.197,0.435-0.428,0.431-0.659c-1.717-0.658-3.125-1.687-4.917-1.102c-0.121-0.208,0.225-0.389,0.207-0.61 c-0.047-0.808-0.898-0.584-1.355-0.546c-0.012-0.267,0.204-0.338,0.237-0.564c-0.169-0.215-0.341-0.461-0.37-0.753 c0.764,0.376,1.416,1.096,2.162,1.431c0.92,0.413,2.672,0.992,3.649,1.184c0.46,0.09,1.729-0.378,2.27-0.482 c1.424-0.278,2.865-0.429,4.309-0.398c0.02,0.461-0.049,0.93,0.05,1.383c0.14,0.071,0.284-0.007,0.419,0.082 c0.172,0.641,0.207,1.502,0.324,2.167C290.643,58.659,290.91,56.315,289.794,56.398z M279.078,57.019l0.271,0.076 c0.1,0.423,0.324,0.812,0.473,1.219C279.168,58.859,278.478,57.314,279.078,57.019z M280.037,50.661 c0.268,0.028,0.134,1.486-0.639,1.125C279.143,51.437,279.376,50.59,280.037,50.661z M300.326,42.06 c-0.103-0.151,0.414-0.534,0.522-0.653c1.017-1.098,1.094-2.348,0.454-3.604c1.126,0.472,1.747,1.368,1.538,2.383 C302.705,40.831,300.853,42.799,300.326,42.06z M298.963,41.008c0.241-1.345,1.359-2.042-0.463-3.699 C301.424,37.596,300.74,41.345,298.963,41.008z M297.857,40.753l-0.285,0.083c-0.173-0.355-0.043-0.744-0.15-1.108 c-0.256-0.869-0.945-1.647-1.832-2.247C297.823,37.546,298.963,39.414,297.857,40.753z M295.884,40.217 c-0.375,0.509-1.936-1.51-1.814-2.037l0.23-0.029C294.727,38.34,296.27,39.695,295.884,40.217z M292.81,39.948 c-0.122-0.909,1.26-0.068,1.502,0.283C294.864,41.022,292.932,40.865,292.81,39.948z M306.932,54.405l-0.276,0.243 c-1.412-0.258-0.135-2.703,0.189-1.73C306.982,53.323,306.892,53.973,306.932,54.405z M309.136,54.708 c-1.468,0.467-1.458-2.217-0.914-2.796c0.078-0.088,0.345-0.231,0.432-0.058C309.025,52.632,308.734,53.794,309.136,54.708z M308.34,49.381c0.654-0.625,1.832-7.122,2.166-8.486c-1.137-1.136-0.471-2.904,0.607-0.899c3.469-4.049,6.925-6.081,11.957-7.63 c0.113-0.307,0.252-0.744,0.614-0.83l0.286,0.1c0.404,0.634-0.617,1.304-1.115,1.431c-4.424,1.156-8.279,3.905-11.129,7.477 c-0.525,0.657-0.717,1.66-0.884,2.471c-0.204,0.985-0.89,5.969-1.974,6.913c-0.945,0.824-2.861,1.922-4.036,2.376 c-0.181,0.07-0.419,0.168-0.609,0.139l-0.042-0.21C305.395,51.126,307.112,50.551,308.34,49.381z M308.506,72.022 c0.199-0.002,0.307,0.205,0.352,0.361c0.365,1.352,0.466,2.506,1.281,3.73l-0.174,0.203 C308.277,76.611,307.367,72.047,308.506,72.022z M310.768,73.148l0.26-0.321c0.181-0.003,0.25,0.19,0.324,0.342 c0.514,1.104,1.307,1.988,2.223,2.664C312.192,76.561,310.613,74.707,310.768,73.148z M313.039,73.069 c0.1-0.117,0.225-0.114,0.344-0.034c0.745,0.492,0.71,1.333,2.51,2.023C315.111,76.203,312.348,73.859,313.039,73.069z M312.807,68.553c0.247,0.932,0.379,1.394,1.05,2.139C311.921,71.226,312.512,67.42,312.807,68.553z M310.57,66.865 c-0.685-1.244,1.174-2.736,2.158-1.842C311.338,65.589,311.422,65.832,310.57,66.865z M311.943,69.342 c-1.228-0.927-0.617-2.897,0.178-2.699C311.512,68.292,312.095,68.479,311.943,69.342z M313.951,64.673 c-1.046-0.74-1.201-0.958-2.444-0.653C311.398,63.328,313.598,62.58,313.951,64.673z M315.625,64.649 c-0.28-0.137-0.318-0.42-0.448-0.673c-0.319-0.653-0.915-1.106-1.473-1.545C314.128,61.988,315.896,62.904,315.625,64.649z M315.707,69.531c-1.402-0.485-3.799-2.755-1.99-4.148C315.258,64.197,317.586,66.971,315.707,69.531z M317.045,65.775 c-0.061-1.083-0.449-1.956-0.806-2.951C317.088,62.703,317.812,65.341,317.045,65.775z M317.709,66.94 c0.214-0.655,0.207-1.728,0.489-2.262c0.052-0.102,0.224-0.143,0.327-0.141c-0.051,1.105,0.113,2.778-1.005,3.485l-0.177-0.057 C317.416,67.608,317.603,67.287,317.709,66.94z M319.156,67.137c0.064-0.084,0.295-0.449,0.38-0.168 c-0.185,1.059-1.128,2.983-2.206,3.33c-0.115-0.06-0.297-0.12-0.406-0.197c-0.086-0.06,0.078-0.172,0.109-0.197 C317.957,69.147,318.475,68.087,319.156,67.137z M319.891,69.541c-0.367,0.463-0.699,1.021-1.205,1.348 c-0.254-0.014-0.465-0.181-0.691-0.279C318.198,70.381,319.574,69.593,319.891,69.541z M320.461,73.097 c0.648,0.536,0.961,1.29,0.785,2.121c-0.031,0.142-0.163,0.381-0.027,0.494h0.27c-0.26,0.352-0.605,0.629-0.973,0.855 c-0.051-0.893,0.635-1.693,0-2.6c-0.829-1.179-4.049-1.913-4.092-3.146c0.221-0.087,0.302,0.089,0.444,0.209 C317.931,71.942,319.393,72.216,320.461,73.097z M314.387,69.929l0.186,0.031c0.414,0.584,0.949,1.148,1.623,1.434l0.082,0.21 C315.314,71.942,314.316,70.873,314.387,69.929z M314.408,72.41c0.107-0.167,0.357,0.002,0.487,0.055 c0.523,0.225,1.761,0.532,2.124,0.831C316.635,74.023,314.666,73.125,314.408,72.41z M276.276,54.569 c0.095-0.881,1.373-0.114,1.302,0.218C277.391,55.644,276.233,55.009,276.276,54.569z M277.441,50.348 c0.191,0.044-0.041,0.937,0,1.255C276.394,52.234,276.622,50.16,277.441,50.348z M291.986,38.895 c-0.838,0.674-1.412,0.58-0.082,1.376l0.014,0.297c-0.588,0.485-1.485-0.173-2.018,0.378c-0.307,0.32,0.579,1.038-0.15,1.041 c-0.652,0.004-1.321-1.15-2.061-0.212c-0.389,0.494-6.547,1.562-7.242,1.054c0.229-0.21,0.553-0.163,0.842-0.168 c2.133-0.043,3.799-1.118,5.818-1.461c0.744-0.126,1.611-0.203,2.318-0.463c0.333-0.124,0.877-0.424,0.964-0.8 c0.034-0.162-0.009-0.277-0.151-0.353c-0.531-0.276-2.711-0.268-3.898-0.786c-0.315-0.138-1.145-0.62-1.422-0.631 c-0.344-0.019-0.69,0.357-0.975-0.057c-0.182-0.26-0.375-0.438-0.721-0.409c-0.746,0.064-0.669-0.131-1.26-0.42 c-0.346-0.172-0.959,0.064-1.166-0.019c-0.256-0.099,0.035-0.479-0.186-0.629c-0.139-0.092-0.329-0.092-0.476-0.042 c-0.255,0.085-0.4,0.327-0.526,0.548l-0.206-0.014c-0.476-0.412,0.12-1.124,0.587-1.206c0.656-0.117,1.412,0.642,1.989,0.842 c0.4,0.139,2.663,0.472,3.044,0.422c0.608-0.082,1.423-1.293,2.977-0.914c0.77,0.187,3.464,2.543,3.956,1.335 C292.6,37.251,292.608,38.391,291.986,38.895z M325.295,44.077c-0.074-0.267-0.284-0.484-0.514-0.62 c-1.844-3.427-1.93-6.917-0.449-10.523c0.17-0.412,0.51-0.749,0.558-1.207c0.03-0.314-0.1-0.608-0.324-0.815 c0.169-0.327,0.514-0.452,0.851-0.535c-0.518-0.526-1.416-0.237-1.775,0.324c-0.668,0.131-0.794,0.423-1.018,1.026 c-4.654,1.463-8.223,3.303-11.548,7.01c-0.376-0.4-0.815-0.492-1.286-0.154c-0.16-0.311,0.064-0.647,0.189-0.929 c-1.283,0.026-0.928,2.713-0.41,3.387c-0.211,0.87-1.512,6.776-1.799,7.165c-0.657,0.893-3.348,2.639-4.443,2.866 c-1.605-0.72,1.854-2.888,2.061-3.203c0.182-0.271-0.537-0.594-0.109-0.986c0.41-0.371,0.932-0.64,1.33-1.038 c0.186-0.188,0.566-0.554,0.379-0.842c-0.133-0.2-0.764-0.538-0.557-0.884c0.256-0.423,1.197-1.636,1.084-2.236 c-0.103-0.552-0.961-0.193-1.001-0.731c-0.052-0.721,0.534-2.767-0.203-3.286c-0.454-0.315-1.092,0.919-1.425,0.195 c-0.207-0.452-0.605-2.679-1.408-2.486c-0.396,0.096-0.625,1.145-1.316,1.041c-0.362-0.308-1.184-2.37-1.796-1.769 c-0.341,0.329-1.054,1.739-1.709,1.545c-0.463-0.142-0.52-1.571-1.229-1.167c-0.533,0.3-0.922,0.86-1.492,1.139 c-0.275,0.134-0.398-0.144-0.607-0.254c-0.42-0.22-0.843,0.169-1.223,0.324c-1.083,0.44-1.618-0.132-2.517-0.618 c-1.55-0.84-2.132-0.917-3.747-0.637c-1.317,0.229-1.648-0.943-3.293,0.973c-0.859-0.069-1.729-0.126-2.586-0.209 c-0.429-0.041-2.656-1.961-3.358,0.071c-0.397,1.137,0.733,1.53,0.457,2.486c0.269,0.597,0.712-0.323,1.394-0.07 c0.488,0.179,0.307,0.724,0.532,1.082l0.202,0.041c0.733-0.765,1.381-0.621,1.856,0.254c0.31,0.584,0.704-0.282,1.147-0.127 c0.406,0.138,0.766,0.388,1.179,0.52c0.354,0.113,1.813-0.283,2.404-0.13c0.069,0.018,0.183,0.067,0.165,0.163 c-0.052,0.28-3.031,0.907-3.558,0.938c-3.444,0.203-6.574-3.598-9.954-4.102c-0.371-0.058-0.83-0.139-1.123,0.168 c2.449,0.69,0.777,2.374,0.773,2.964c0.639-0.305,1.359-0.36,2.055-0.297c1.562,0.143,4.338,1.239,5.918,1.785 c0.068,0.026,0.199,0.137,0.178,0.226c-0.113,0.426-2.693-0.207-2.807,0.477c-0.021,0.143,0.133,0.398,0.233,0.492 c1.401,1.304,5.491,0.315,7.382,0.337c0.625,0.009,1.074,0.479,1.503,0.886c1.155-1.527,2.714-0.122,3.815-0.253l0.208-0.197 c0.078-0.347-0.351-0.539-0.233-0.913c0.443-1.394,2.97-0.571,3.846-0.366c0.344,0.079,0.758-0.224,1.083-0.321 c1.109-0.332,3.739,0.073,2.983,1.418c-0.669,1.179-2.392,0.687-3.224,1.292c-0.035,0.125,0,0.342-0.11,0.436 c-0.158,0.134-2.963,0.627-3.412,1.053c-0.142,0.139,0.055,0.301-0.04,0.408c-0.548,0.603-2.832,1.425-3.022,2.614 c-0.027,0.161,0.216,0.158,0.222,0.308c0.003,0.232-0.852,1.701-0.683,3.009c0.017,0.132,0.706,0.318,0.897,0.417 c-0.087,0.242,0.08,0.25-0.015,0.486l-1.511,0.119c-1.203,0.096-2.409,0.276-3.582,0.55c-0.471,0.111-0.988,0.334-1.463,0.409 l-0.246,0.014c-0.514-0.008-2.336-0.672-2.92-0.863c-0.568-0.185-0.431-0.813-0.654-1.257c0.143-0.305,0.314-0.621,0.336-0.969 c0.699-0.375,0.881-1.159,0.453-1.819c-0.048-0.077-0.108-0.161-0.215-0.124c0,0.405-0.026,0.78-0.516,0.828 c-0.836-1.098-1.738,0.069-1.945,0.958c-0.103-0.213-0.371-0.829-0.371-1.045c0.008-0.539,0.192-1.158-0.346-1.548 c-0.221-0.16-0.583-0.268-0.837-0.126c0.339,0.274,0.624,0.63,0.336,1.076c-1.559,0.321-1.639,1.5-0.617,2.499 c0.203,0.195,0.361,0.881,0.388,1.156c-0.275-0.09-0.578-0.119-0.857-0.016c-1.089-0.4-1.905,0.666-1.465,0.749 c0.299,0.056,0.579-0.244,0.878,0.082c-0.222,1.633,1.263,1.971,2.409,1.152c0.232-0.016,0.465,0.066,0.673,0.173 c0.587,1.318-1.278,1.531-0.312,2.891c0.962,1.353,2.24-0.431,2.222,1.384c1.356-0.929-0.81-1.362-0.097-3.474 c0.828-0.463,1.709,0.938,1.894,1.575c2.645-0.086,1.376,0.766,1.382,1.688c0.44-0.089,2.365-0.066,2.546,0.396 c0.204,0.506,0.169,1.098,0.421,1.634l0.164,0.06c0.336-0.249,1.501-1.444,1.863-0.677c0.156,0.34,1.994,0.833,1.839,1.15 c-1.225,2.489-0.388,6.082-0.44,8.848c-0.008,0.562-0.699,2.454-1.156,2.729c-1.855,1.109-2.138-1.701-2.578-2.248 c-0.202-0.258-1.182-0.56-1.174-0.183c0.326,0.132,0.734,0.557,0.557,0.941c-0.975,0.229-0.784,1.447-0.379,2.078 c-0.315-0.041-0.619-0.124-0.938-0.126c-0.746-0.51-1.572-0.38-1.857,0.577c0.32-0.255,0.797-0.16,1.115,0.041 c-0.199,3.188,2.12,0.768,2.975,1.574c-0.299,0.245-0.315,0.521-0.509,0.802c-0.449,0.642-0.964,1.121-0.11,1.853 c-0.033-0.444,0.01-0.877,0.527-0.996c0.801,1.124,2.043,0.039,2.138-1.041c2.819-1.518,0.884,0.619,2.628,1.196 c1.646,0.542,1.85-2.009,2.885-0.507c0.125-0.098,0.125-0.277,0.135-0.422c0.055-0.741-0.886-0.813-1.397-0.842 c-0.236-0.248-0.634-0.312-0.933-0.48c-0.884-0.486,0.218-3.266,1.137-3.229c0.052-0.441,0.078-1.687,0.841-1.349 c0.205,0.086,0.367,0.522,0.61,0.295c0.275-1.088,0.476-2.461,1.761-1.377l0.268-0.013c0.406-5.254,1.425-4.523,2.254-0.087 c0.393,0.074,0.772,0.048,0.855,0.523c0.068,0.441,0.224,2.098,0.512,2.557c0.204,0.052,0.401-0.054,0.604-0.058 c0.294,0.528,1.321,2.405,1.749,2.683c0.211,0.136,0.518-0.136,0.742-0.141c0.591,0.5,2.232,1.876,2.965,1.912 c0.213-0.161,0.377-0.396,0.627-0.507c0.997,0.419,2.488,1.058,3.592,1.041c0.197-0.128,0.275-0.361,0.443-0.521 c0.848-0.021,2.57-0.015,3.441-0.309c0.398-0.132,0.208-0.655,0.592-0.813c0.694-0.281,1.658-0.523,2.154-1.14 c0.061-0.071,0.21-1.385,1.194-1.755c0.8,0.239,2.003,0.842,1.46,1.897c-0.107-1.008-1.324-1.119-1.514-0.422 c-0.147,0.533,0.435,0.811,0.513,1.293c0.134,0.846-0.834,1.225-1.368,1.658c0.055,0.145,0.216,0.204,0.354,0.238 c4.234,0.988,4.951-3.488,5.988-3.471c0.094,0,0.254,0.084,0.299-0.07c0.084-0.329-0.745-0.867-1.034-0.899 c-0.788-0.087-1.046,0.633-1.204,0.702c-0.082-1.783-1.213-2.447-2.477-3.372c0.197-0.711,0.754-1.031,1.039-1.616 c0.256-0.516-0.427-0.837-0.582-1.251c-0.204-0.541,0.527-1.698,0.449-2.317c-0.059-0.444-0.515-0.341-0.801-0.463 c-0.793-0.341-0.426-1.559-0.543-2.206c-0.139-0.801-0.945-0.318-1.445-0.52c-0.665-0.265-0.733-1.088-1.301-1.433 c-0.391-0.238-0.65,0.043-0.961,0.223c-0.613,0.353-1.24-0.202-1.812-0.294c-0.447-0.071-0.674,0.291-0.94,0.563 c-0.414,0.426-1.165,0.257-1.583,0.715c-0.263,0.288-0.169,0.658-0.341,0.955c-0.213,0.374-0.699,0.595-0.916,1.013 c-0.322,0.612,0.139,1.213,0.092,1.827c-0.035,0.502-0.113,0.889-0.039,1.405c0.094,0.67,0.569,0.905,0.799,1.46 c0.353,0.861,0.924,1.321,1.787,1.644c0.306,0.461,0.794,0.707,1.247,0.998c-0.683,0.594-1.68,0.604-2.508,0.364 c-0.37-0.785-1.64-0.374-2.155-1.067c-0.103-0.144,0-0.53-0.025-0.718c-0.297-0.281-1.305-1.211-1.246-1.642 c0.043-0.332,0.577-0.658,0.504-1.183c-0.514-0.529-1.045-1.129-1.139-1.894c0.444-0.403,1.052-0.724,1.247-1.336 c-0.31-0.948-1.218-1.576-1.382-2.654c0.414-0.209,1.028-0.567,1.34-0.916c0.158-0.176,0.608-0.549,0.408-0.813 c-0.389-0.505-2.616-1.913-2.223-2.728c0.804-0.481,3.328,0.671,4.023,1.197c0.207,0.157,0.557,0.76,0.863,0.476 c0.579-0.524,0.902-1.225,1.9-2.021c1.324-1.064,3.275-1.552,4.949-1.336c0.549,0.47,0.467,1.908,2.115,0.984 c0.217,0.355,0.277,0.775,0.344,1.181c0.525-0.466,0.512-1.429,0.146-1.983c0-0.558-0.247-0.76-0.405-1.223 c-0.734-2.131,1.355-7.158,2.65-8.852c0.099-0.125,0.268-0.347,0.452-0.293c1.017,0.287,0.94,0.326,1.772-0.366 c0.216,0.254,0.404,0.543,0.488,0.871C326.349,45.267,325.895,44.47,325.295,44.077L325.295,44.077z"></path> <path id="Fill-46" fill="#6E777E" d="M288.602,38.589c0.151-0.059,0.292-0.431,0.185-0.755c0.315,0.112,0.553,0.258,0.932,0.595 C289.396,38.562,288.947,38.615,288.602,38.589z M287.308,38.365c-0.351-0.124-0.735-0.392-0.93-0.717 c0.308-0.113,0.817-0.207,1.149-0.147C287.268,37.707,287.195,38.086,287.308,38.365z M290.613,38.282 c-1.577-1.138-2.975-2.028-4.86-0.9l0.026,0.282c0.34,0.147,0.466,0.503,0.717,0.742c0.699,0.668,4.018,0.994,4.648,0.157 l-0.068-0.239L290.613,38.282L290.613,38.282z"></path> </g> </g> </svg> 