<?xml version="1.0" encoding="UTF-8"?> <!-- Generator: Adobe Illustrator 24.0.1, SVG Export Plug-In . SVG Version: 6.00 Build 0) --> <svg xmlns="http://www.w3.org/2000/svg" xmlns:xlink="http://www.w3.org/1999/xlink" id="Layer_1" x="0px" y="0px" viewBox="0 0 836 145.4" style="enable-background:new 0 0 836 145.4;" xml:space="preserve"> <style type="text/css"> .st0{fill:#001C37;} .st1{fill:#008599;} </style> <g> <rect y="2.9" class="st0" width="32.1" height="140.2"></rect> <polygon class="st0" points="141.7,143.1 87.3,66.6 78.9,54.1 78.6,54.3 78.7,69.4 78.7,143.1 50.7,143.1 50.7,2.9 77.6,2.9 127.5,75.2 135.9,87.8 136.3,87.6 135.9,72.6 135.9,2.9 163.8,2.9 163.8,143.1 "></polygon> <path class="st0" d="M368.6,0c-40.2,0-72.7,32.6-72.7,72.7c0,40.2,32.6,72.7,72.7,72.7c40.2,0,72.7-32.6,72.7-72.7 C441.3,32.6,408.8,0,368.6,0 M368.6,117.1c-24.5,0-44.4-19.9-44.4-44.4c0-24.5,19.9-44.4,44.4-44.4c24.5,0,44.4,19.9,44.4,44.4 C413,97.2,393.1,117.1,368.6,117.1"></path> <path class="st0" d="M251.2,117.1c-24.5,0-44.4-19.9-44.4-44.4c0-24.5,19.9-44.4,44.4-44.4c11.7,0,22.4,4.6,30.3,12l18.7-21.3 c-12.9-11.8-30.1-19-49.1-19c-40.2,0-72.7,32.5-72.7,72.7c0,40.1,32.6,72.7,72.7,72.7c18.8,0,35.9-7.1,48.8-18.8l-18.7-21.3 C273.4,112.6,262.8,117.1,251.2,117.1"></path> <path class="st0" d="M763.3,0c-40.2,0-72.7,32.6-72.7,72.7c0,40.2,32.6,72.7,72.7,72.7c40.2,0,72.7-32.6,72.7-72.7 C836,32.6,803.4,0,763.3,0 M763.3,117.1c-24.5,0-44.4-19.9-44.4-44.4c0-24.5,19.9-44.4,44.4-44.4c24.5,0,44.4,19.9,44.4,44.4 C807.7,97.2,787.8,117.1,763.3,117.1"></path> <path class="st0" d="M657.3,85.6c5.1-2.6,9-5.8,11.8-8.8c7.5-8,11.7-18.7,11.7-30.1c0-21.8-15.6-43.8-45.6-43.8h-58.4v140.2h31.6 V90.7h19.8l24.5,52.3h32.5L657.3,85.6z M632,29c14.4,0,19.5,9.6,19.5,17.8c0,4.7-1.7,9.1-4.6,12.3c-3.4,3.7-8.4,5.5-14.9,5.5h-23.6 V29H632z"></path> <path class="st0" d="M512.7,2.9H456v140.2h31.6V97.7h25.1c18.8,0,30.4-8.1,36.7-14.9c8.1-8.7,12.6-20.2,12.6-32.6 C562,26.8,545.1,2.9,512.7,2.9 M487.6,29h21.9c17.2,0,23.2,11.5,23.2,21.3c0,5.6-2,11-5.5,14.7c-4.1,4.4-10.1,6.6-17.7,6.6h-21.9 V29z"></path> <path class="st1" d="M797,72.7c0,18.6-15.1,33.7-33.7,33.7c-18.6,0-33.7-15.1-33.7-33.7c0-18.6,15.1-33.7,33.7-33.7 C781.9,39,797,54.1,797,72.7"></path> <path class="st1" d="M402.3,72.7c0,18.6-15.1,33.7-33.7,33.7c-18.6,0-33.7-15.1-33.7-33.7c0-18.6,15.1-33.7,33.7-33.7 C387.2,39,402.3,54.1,402.3,72.7"></path> </g> </svg> 