<?xml version="1.0" encoding="UTF-8"?> <svg xmlns="http://www.w3.org/2000/svg" id="Layer_1" data-name="Layer 1" viewBox="0 0 400 338.94"><title>Marketplace Icon_Negative_RGB</title><circle cx="17.85" cy="17.85" r="17.85" style="fill:#ffb000"></circle><path d="M290.49,469.3a30.18,30.18,0,1,1,30.18-30.17A30.2,30.2,0,0,1,290.49,469.3Zm0-44.61a14.44,14.44,0,1,0,14.44,14.44A14.46,14.46,0,0,0,290.49,424.69Z" transform="translate(-100.47 -130.36)" style="fill:#fff"></path><path d="M419.14,469.3a30.18,30.18,0,1,1,30.18-30.17A30.21,30.21,0,0,1,419.14,469.3Zm0-44.61a14.44,14.44,0,1,0,14.44,14.44A14.45,14.45,0,0,0,419.14,424.69Z" transform="translate(-100.47 -130.36)" style="fill:#fff"></path><path d="M469.41,355.3H254.82a11,11,0,0,1,0-22H451.46l22-106.41H225.17a11,11,0,0,1,0-22h275.3Z" transform="translate(-100.47 -130.36)" style="fill:#fff"></path><polygon points="350.38 271.37 156.31 271.37 100.36 28.86 51.31 28.86 51.31 6.83 117.89 6.83 173.84 249.33 350.38 249.33 350.38 271.37" style="fill:#fff"></polygon></svg> 