<?xml version="1.0" encoding="UTF-8"?> <!-- Generator: Adobe Illustrator 24.0.1, SVG Export Plug-In . SVG Version: 6.00 Build 0) --> <svg xmlns="http://www.w3.org/2000/svg" xmlns:xlink="http://www.w3.org/1999/xlink" id="Layer_1" x="0px" y="0px" viewBox="0 0 146.1 76.9" style="enable-background:new 0 0 146.1 76.9;" xml:space="preserve"> <style type="text/css"> .st0{fill-rule:evenodd;clip-rule:evenodd;fill:#747A81;} </style> <path class="st0" d="M27.2,70.7c-0.9,2.8-2.1,5.8-4.8,6.2c-2.6,0.4-5.2-0.6-4.7-6.2c0.5-5.6,6.2-19.2,5.7-33.2 c-0.2-8.4-4.4-9.2-8.7-4.2c-3.9,4.5-7.6,21.3-7.5,23.3c0,2.3-2.1,5.1-4.2,5c-1.6,0-2.8-1.3-3-5.9c-0.4-6.9,11.3-42.4,25.4-40.9 c7.9,0.8,7.2,12,7.3,13.7c0.1,1.7,1.3,1.6,1.4,0.8c0.3-2.2,7.1-6.4,9.4-0.3c0.5,1.4,1.2,0.7,1.3,0.1c0.3-2,8.5-16.4,17.6-14.8 c6,1-0.5,17.2-1.6,20c-4.5,11.7-2.5,28.2-0.1,34.4c3.1,7.9-9,9.4-10.8,1.8c-1-4-4.2-11.3,1.5-26.9c3.8-10.5-1.4-11-3.7-7.1 c-3,5-4.4,19-4.6,24c-0.5,15.4-9.5,12.2-9.3,6.3c0.2-5.7,4.2-21.6,3.8-22.9C37,42,34.4,39.4,32,44.3c-2.4,4.8-2.9,16.2-3.7,21.5 L27.2,70.7L27.2,70.7z"></path> <path class="st0" d="M67.7,27c1.5,0.9,4.7-0.2,6-2.3c1.3-2.1,1-4.8-1-5.7c-1.6-0.7-3.9,0.4-5.2,2.6C66.1,23.6,66.3,26.1,67.7,27 L67.7,27z"></path> <path class="st0" d="M63.4,36c0.8-2.6,2.9-5,5.3-5.1c2.2-0.1,3.2,3.2,2.5,5.2c-5.3,15.4,3.6,8.9,3.7-1c0-4.5-0.1-17.9,6-26.8 c2.1-3,6.8-3.1,7,2.2c0.1,2.8-2,6.4-4.4,13c-1.2,3.4-1.7,8-1.5,9.5c0.4,4,5,3.8,6.3-1.6c0.6-2.3,1.6-5.5,2-9.9 C91.4,8,98-0.9,101.3,0.1c8.2,2.5-5,16.7-3.1,20c3-3.9,10.9-8.5,13.2-3.3c2.6,5.7-6.4,14-8.1,14.8c0.2,0.8,1.2,0.9,1.5,1.5 c0.4,0.6,1.9,2.3,2.8,2.1c1.2-0.3,3.4-6.6,3.6-9.5C111.7,18,126.7,1,131.6,8.2c3.4,5-8.2,7.9-11.5,12.8c-5,7.4,3.1,10.4,5.9,3.1 c2.6-7,4.1-10.6,7.6-9.9c4.7,1-0.4,7.7-0.2,9.7c0.2,2.1,2.6,2.6,4.7,0.5c2.1-2.1,5.6-6.8,7.1-6.2c4.2,1.8-7.5,15.4-13.1,17.1 c-5.5,1.6-4.7-2.5-5.8-2c-1.1,0.5-3.7,5.5-8.5,6.7c-4.8,1.2-5.5-1.7-6.4-1.5c-0.9,0.3-0.6,4.5-7,5.7c-6.6,1.2-5.7-5.3-6.2-6.6 c-0.7-1.8-2.2-0.9-2.4,0.2c-0.2,1.1-2.3,10-4.4,10.1c-2.2,0.1-2.1-2.5-2.6-3.3C88.3,43.9,88,44,87.7,45c-0.6,1.8-3.9,7.8-7.8,8.3 c-3.5,0.4-3.6-2.5-4-2.9c-0.4-0.4-1-0.7-1.7,0.4c-0.7,1.1-4.7,8.7-8.7,8.9C58.2,60,61.1,43.7,63.4,36L63.4,36z M102.4,24.7 c-1.6-1.3-5.5,1-6.1,5C99.3,30.5,104,26,102.4,24.7L102.4,24.7z"></path> </svg> 