<?xml version="1.0" encoding="UTF-8"?> <!-- Generator: Adobe Illustrator 24.0.1, SVG Export Plug-In . SVG Version: 6.00 Build 0) --> <svg xmlns="http://www.w3.org/2000/svg" xmlns:xlink="http://www.w3.org/1999/xlink" id="Layer_1" x="0px" y="0px" viewBox="0 0 492.9 125.6" style="enable-background:new 0 0 492.9 125.6;" xml:space="preserve"> <style type="text/css"> .st0{fill:#6E777E;} </style> <g id="text4313"> </g> <g> <path class="st0" d="M52.5,83.2L52.5,83.2c-2.2,2.3-5.5,3-7.8,3.4c-4.1,0.4-8.5-1.1-11.5-4.5c-2.2-3-3.3-6.8-5.5-9.8 c-3.7-4.5-9.2-7.9-14.8-6.8C1.4,67.7-3.4,82,2.5,91.9c9.2,14,30,11.7,40.7,1.9C46.5,90.7,49.9,87.3,52.5,83.2z"></path> <path class="st0" d="M440.4,83.2L440.4,83.2c2.2,2.3,5.5,3,7.4,3.4c4.4,0.4,8.5-1.1,11.5-4.5c2.2-3,3.3-6.8,5.5-9.8 c3.7-4.5,9.2-7.9,15.2-6.8c11.5,2.3,16.7,16.6,10,26.5c-9.2,14-30,11.7-40.7,1.9C446,90.7,443,87.3,440.4,83.2z"></path> <path class="st0" d="M402.3,7.9L402.3,7.9c-0.4,0-27.7,0-28.1,0c-3,0-5.5,3-5.5,6.1c0,3.4,2.6,6.4,5.5,6.8c0.4,0,27.7,0,28.1,0 c3-0.4,5.2-3.4,5.5-6.4C407.9,11.3,405.3,7.9,402.3,7.9z"></path> <path class="st0" d="M228.1,71.5L228.1,71.5c-0.4-1.9-0.7-3.4-0.7-5.3c0-2.3,0-5.7,0-8.7c0.4-11,2.2-29.9-11.5-29.9 c-9.2,0-14.8,8.3-16.3,11c-0.4-7.6-5.9-12.9-14.4-12.9c-5.5,0-8.9,4.5-8.9,4.5s5.5,1.9,5.5,9.5c0,5.7,0,32.1,0,32.5 c0,4.5,3.3,9.1,8.9,9.1c5.5,0,8.9-4.5,8.9-9.1V48.4c0.7-3.8,2.6-7.9,5.9-7.9c3.7,0,4.1,4.9,4.1,4.9v22.7c0,0.8,0,1.5,0.4,2.3 c0,1.1,0.4,2.3,0.7,3.4c2.2,4.5,7,7.6,13.3,7.6c5.5,0,8.9-4.5,8.9-4.5S229.6,75.6,228.1,71.5z"></path> <path class="st0" d="M359.8,71.5L359.8,71.5c-0.4-1.9-0.4-3.4-0.4-5.3V9.8c0-5.7-4.4-9.8-9.6-9.8s-9.2,4.2-9.2,9.8v49.9 c0,4.5-0.4,9.1,1.5,13.2c2.2,4.9,7.4,8.3,13.7,8.3c5.5,0,8.9-4.5,8.9-4.5S361.3,75.6,359.8,71.5z"></path> <path class="st0" d="M151.2,27.2L151.2,27.2c-14.1,0-25.5,12.1-25.5,26.8c0,15.1,11.5,27.2,25.5,27.2c14,0,25.5-12.1,25.5-27.2 C176.7,39.3,165.3,27.2,151.2,27.2z M151.6,69.9L151.6,69.9h-0.4c-4.8-0.4-7-6-7-15.9c0-9.5,3-15.5,7-15.5l0,0h0.4 c4.1,0,7,6,7,15.5C158.6,63.9,156.4,69.6,151.6,69.9z"></path> <path class="st0" d="M285.1,71.5L285.1,71.5c-0.4-1.9-0.4-3.4-0.7-5.3V9.8c0-5.7-4.1-9.8-9.2-9.8c-5.2,0-9.2,4.2-9.2,9.8v26.8 c-2.2-3.4-7.4-9.1-15.2-9.1c-21.5,0-22.6,40.8-8.1,50.7c4.4,3,10.7,3.8,15.2,2.3c3.3-0.8,8.5-4.2,9.2-8.3c0.4,0.4,0.4,0.8,0.4,0.8 c2.2,4.9,7.4,8.3,13.7,8.3c5.5,0,8.9-4.5,8.9-4.5S286.6,75.6,285.1,71.5z M257.3,68.1L257.3,68.1c-4.8,0-7.4-5.3-7.4-13.6 s3.3-13.6,7.4-13.6l0,0c4.1,0,7.4,5.3,7.4,13.6S262.2,68.1,257.3,68.1z"></path> <path class="st0" d="M333.9,64.7L333.9,64.7c0,0-3,3.8-13.3,3.8c-10.7,0-12.9-8.7-12.9-8.7c15.5,0,28.5-1.1,28.5-14.4 c0-13.6-14.4-18.1-22.6-18.1c-14,0-24,12.1-24,27.6c0,17.4,12.9,26.5,24,26.5C332.8,81.3,333.9,64.7,333.9,64.7z M306.5,51 L306.5,51c0.4-4.2,1.5-9.5,5.2-12.1c3-1.9,7,0.4,7,4.2c0.4,4.5-2.2,7.2-5.9,7.9C312.4,51,306.5,51.4,306.5,51z"></path> <path class="st0" d="M408.6,64.7L408.6,64.7c0,0-3,3.8-13.3,3.8c-10.7,0-12.9-8.7-12.9-8.7c15.5,0,28.5-1.1,28.5-14.4 c0-13.6-14.4-18.1-22.6-18.1c-14.1,0-24,12.1-24,27.6c0,17.4,12.9,26.5,24,26.5C407.5,81.3,408.6,64.7,408.6,64.7z M381.2,51 L381.2,51c0.4-4.2,1.5-9.5,5.2-12.1c3-1.9,7,0.4,7,4.2c0.4,4.5-2.2,7.2-5.9,7.9C387.2,51,381.2,51.4,381.2,51z"></path> <path class="st0" d="M443.7,65.8L443.7,65.8H433c0.7,0,8.5-6.8,11.1-9.5c7-6,19.2-15.1,15.5-26.5c-0.7-2.6-2.6-4.2-2.6-4.2 s-0.7,1.9-3.3,3c-1.1,0.4-1.9,0.4-3,0.8c-0.7,0-30,0-30,0c-3.7,0-7,3-7,7.2c0,3.8,3,7.2,7,7.2h16.6c-7.8,4.9-17,10.2-21.8,18.9 c-2.6,4.5-5.5,12.1-4.4,17.8c3.7-3.4,13.7-6.8,21.1-5.3c3,0.8,5.9,2.3,8.1,3.8c14.1,9.5,22.6-9.1,15.9-17 C456.3,62,452.2,65.8,443.7,65.8z"></path> <path class="st0" d="M127.2,77.5L127.2,77.5c-8.5-10.2-11.1-26.8-11.8-38.2c-0.4-9.5,0-26.1,7-31c-2.2-3.4-7-4.5-10.4-4.5 c-8.1,0-11.8,5.7-14.8,9.8c-0.7,1.1-14.4,21.2-14.4,21.2S71.7,15.9,70.2,13.6c-1.9-3-5.5-8.7-11.8-9.5c-2.6-0.8-10-1.1-13.7,4.5 c6.7,5.7,6.7,20.4,5.2,30.3c-4.4,29.5-16.3,32.1-16.3,32.1c5.9,17.4,21.5,10.6,25.9-3.4c3-9.1,4.8-20.4,5.2-29.9l17,28l19.6-28 c-3.3,49.5,12.6,63.5,26.3,63.5c14,0,18.9-13.6,18.9-13.6C138.6,87.3,132.3,83.2,127.2,77.5z"></path> <path class="st0" d="M170.4,93.4L170.4,93.4c0.4,0.8,0.4,1.5,0.4,2.3c0,0,0,25.7,0,26.1c0,1.9,1.8,3.8,3.7,3.8 c2.2,0.4,4.1-1.5,4.4-3.8c0-0.4,0-23.4,0-23.4c0-1.9,0-3.8-0.7-5.7c-1.1-1.9-3.3-3.4-5.9-3.4c-2.2,0-3.7,1.9-3.7,1.9 S170.1,91.5,170.4,93.4z"></path> <path class="st0" d="M423.8,121.4L423.8,121.4c-0.4-0.8-0.4-1.5-0.4-2.3c0,0,0-25.7,0-26.1c0-1.9-1.8-3.8-4.1-3.8 c-1.8,0-4.1,1.9-4.1,3.8c0,0.4,0,23.4,0,23.4c0,1.9,0,3.8,0.7,5.7c0.7,1.9,3.3,3.4,5.9,3.4c2.2,0,3.7-1.9,3.7-1.9 S424.1,123.3,423.8,121.4z"></path> <path class="st0" d="M279.2,102.5L279.2,102.5c-4.1,0-6.7,3.8-7.4,4.9c0-1.1,0-2.3,0-2.3c0-2.3-1.8-3.8-3.7-3.8 c-2.2-0.4-4.1,1.5-4.1,3.8c0,0.4,0,16.3,0,16.6c0,1.9,1.9,3.8,3.7,3.8c1.8,0.4,4.1-1.5,4.1-3.8c0-0.4,0-5.7,0-9.8v-0.4 c0.4-1.5,1.5-3.4,2.6-3.4c1.8,0,1.8,2.3,1.8,2.3v11.3c0.4,1.9,2.2,3.8,4.1,3.8c1.9,0.4,4.1-1.5,4.1-3.8v-6 C284.3,109.6,285.1,102.5,279.2,102.5z"></path> <path class="st0" d="M381.2,102.5L381.2,102.5c-4.1,0-6.7,3.8-7.4,4.9c0-1.1,0-2.3,0-2.3c0-2.3-1.8-3.8-3.7-3.8 c-2.2-0.4-4.1,1.5-4.4,3.8c0,0.4,0,16.3,0,16.6c0.4,1.9,2.2,3.8,4.1,3.8c1.9,0.4,4.1-1.5,4.1-3.8c0-0.4,0-5.7,0-9.8v-0.4 c0.4-1.5,1.5-3.4,2.6-3.4c1.8,0,1.8,2.3,1.8,2.3v11.3c0,1.9,2.2,3.8,4.1,3.8c1.8,0.4,4.1-1.5,4.1-3.8v-6 C386.4,109.6,386.8,102.5,381.2,102.5z"></path> <path class="st0" d="M198.2,102.5L198.2,102.5c-4.1,0-6.7,3.8-7.4,4.9c0-1.1,0-2.3,0-2.3c0-2.3-1.8-3.8-3.7-3.8 c-2.2-0.4-4.1,1.5-4.4,3.8c0,0.4,0,16.3,0,16.6c0.4,1.9,2.2,3.8,4.1,3.8c1.8,0.4,4.1-1.5,4.1-3.8c0-0.4,0-5.7,0-9.8v-0.4 c0.4-1.5,1.1-3.4,2.6-3.4c1.8,0,1.8,2.3,1.8,2.3v11.3c0,1.9,1.8,3.8,4.1,3.8c1.9,0.4,4.1-1.5,4.1-3.8v-6 C203.4,109.6,203.7,102.5,198.2,102.5z"></path> <path class="st0" d="M352.4,101.3L352.4,101.3c-6.3,0-11.5,5.3-11.5,12.1c0,6.8,5.2,12.1,11.5,12.1c6.3,0,11.1-5.3,11.1-12.1 C363.5,106.6,358.7,101.3,352.4,101.3z M352.4,120.6L352.4,120.6c-2.2-0.4-3.3-3-3.3-7.2s1.5-6.8,3.3-6.8l0,0 c1.8,0,3.3,2.6,3.3,6.8S354.6,120.2,352.4,120.6z"></path> <path class="st0" d="M309.9,104.7L309.9,104.7c0-2.3-2.2-4.2-4.1-4.2c-2.2,0-4.4,1.9-4.4,4.2c0,0.4,0,0.8,0,0.8 c-1.1-1.5-3.3-4.2-6.7-4.2c-9.6,0-10.4,18.1-3.7,22.7c1.8,1.5,4.8,1.9,6.7,1.1c1.5-0.4,3-1.5,4.1-2.6c0.4,1.5,1.8,3,3.7,3 c2.2,0.4,4.4-1.9,4.4-4.2C309.9,121,309.9,105.1,309.9,104.7z M297.7,119.5L297.7,119.5c-2.2,0-3.3-2.3-3.3-6c0-3.8,1.5-6,3.3-6 l0,0c1.9,0,3.3,2.3,3.3,6C301,117.2,299.9,119.5,297.7,119.5z"></path> <path class="st0" d="M411.6,104.7L411.6,104.7c0-2.3-1.8-4.2-3.7-4.2c-2.2,0-4.4,1.9-4.4,4.2c0,0.4,0,0.8,0,0.8 c-1.1-1.5-3.3-4.2-6.7-4.2c-9.6,0-10.4,18.1-3.7,22.7c1.8,1.5,4.4,1.9,6.7,1.1c1.1-0.4,3-1.5,3.7-2.6c0.7,1.5,2.2,3,4.1,3 c1.8,0.4,4.1-1.9,4.1-4.2C411.6,121,411.6,105.1,411.6,104.7z M399.4,119.5L399.4,119.5c-1.8,0-3-2.3-3-6c0-3.8,1.1-6,3-6l0,0 c2.2,0,3.3,2.3,3.3,6C402.7,117.2,401.6,119.5,399.4,119.5z"></path> <path class="st0" d="M338.3,107L338.3,107c0-1.9-1.5-3.8-3.7-3.8c0,0,0,0-0.4,0c-1.5,0-3.7,1.5-3.7,3.8v7.6c0,2.6,0,7.2,0,7.2 c0,1.9,1.5,3.8,3.3,3.8c0.4,0,0.4,0,0.4,0c1.8,0,4.1-1.5,4.1-3.8v-6.4C338.3,113.1,338.3,107,338.3,107z"></path> <path class="st0" d="M338.3,96.4L338.3,96.4c0,2.3-1.8,4.2-4.1,4.2s-3.7-1.9-3.7-4.2c0-2.3,1.5-4.2,3.7-4.2S338.3,94.1,338.3,96.4z "></path> <path class="st0" d="M257.3,102.1L257.3,102.1c-2.2,0-3.3,1.9-5.2,4.5v-1.1c0-2.3-1.8-4.2-3.7-4.2c-1.8,0-4.1,1.9-4.1,4.2v6v10.2 c0,2.3,1.8,3.8,3.7,3.8c2.2,0.4,4.1-1.5,4.1-3.8v-10.2c0.4-1.5,0.7-3.4,2.2-3.4c1.5,0-0.4,4.2,3.3,4.2 C263.3,112.3,263.6,101.7,257.3,102.1z"></path> <path class="st0" d="M241.1,118L241.1,118c0,0-1.1,1.9-5.9,1.9c-4.8,0-5.9-3.8-5.9-3.8c7,0,12.9-0.8,12.9-6.8c0-6-6.3-7.9-10-7.9 c-6.3,0-10.7,5.3-10.7,12.5c0,7.9,5.9,11.7,10.7,11.7C240.7,125.5,241.1,118,241.1,118z M228.9,111.9L228.9,111.9 c0.4-1.9,0.7-4.2,2.2-5.3c1.5-0.8,3.3,0,3.3,1.9c0,1.9-1.1,3-2.6,3.4C231.5,112.3,228.9,112.3,228.9,111.9z"></path> <path class="st0" d="M220.7,121L220.7,121c0,0-1.8,4.5-5.9,4.5c-3,0-7-3-7-7.2c0,0,0-6.4,0-11.3h-1.1c-0.7,0-1.5-0.4-1.5-1.9 c0-1.5,1.1-1.9,1.5-1.9h1.1c0-1.9,0-3,0-3.4c0-2.3,1.9-4.2,4.1-3.8c1.8,0,3.7,1.9,3.7,3.8v3.4h3.3c0.7,0,1.8,0,1.8,1.9 c0,1.5-1.1,1.9-1.8,1.9h-3.3v9.5C215.6,119.5,218.1,121,220.7,121z"></path> <path class="st0" d="M327.6,121L327.6,121c0,0-2.2,4.5-5.9,4.5c-3.3,0-7-3-7-7.2c-0.4,0-0.4-6.4-0.4-11.3h-1.1 c-0.4,0-1.5-0.4-1.5-1.9c0-1.5,1.1-1.9,1.8-1.9h0.7c0-1.9,0-3,0-3.4c0.4-2.3,2.2-4.2,4.4-3.8c1.8,0,3.7,1.9,3.7,3.8v3.4h3.3 c0.4,0,1.5,0,1.5,1.9c0,1.5-1.1,1.9-1.5,1.9h-3.3v9.5C322.4,119.5,325,121,327.6,121z"></path> </g> </svg> 