<?xml version="1.0" encoding="UTF-8"?> <!-- Generator: Adobe Illustrator 24.0.1, SVG Export Plug-In . SVG Version: 6.00 Build 0) --> <svg xmlns="http://www.w3.org/2000/svg" xmlns:xlink="http://www.w3.org/1999/xlink" id="Layer_1" x="0px" y="0px" viewBox="0 0 200.8 101.4" style="enable-background:new 0 0 200.8 101.4;" xml:space="preserve"> <style type="text/css"> .st0{fill:none;stroke:#FFFFFF;stroke-width:2;} .st1{fill:#6D777D;} </style> <rect x="1" y="1" class="st0" width="198.8" height="99.4"></rect> <path class="st1" d="M1,1v99.4h198.8V1H1z M89.9,57.5L70,69c-5.1,3.6-7.6,3.2-7.6,3.2C58.6,72.3,58,69,58,69 c-0.9-1.5-3.5-1.1-3.5-1.1L25,79.3c-7.2,2.9-7.2-3.8-7.2-3.8l-6.6-49.8c-0.3-4,3.7-3.9,3.7-3.9L44.7,29c6.7,1.8,8.4,6.5,8.4,6.5 l21.8,3.7c3.9,0.4,5.4,3.2,5.4,3.2l9.3,14.3C90.1,57.2,89.9,57.5,89.9,57.5z M197.5,98H103V3.2l94.5,0.1V98z"></path> <path class="st1" d="M26.6,61.2l1.8,8.7l27-8c0,0,2.9-0.6,4.9-0.6c0,0,0.8-0.2,1.8,1.3c0,0,1.2,2.5,4.8,2.2c0,0,8.8-2.4,18.9-8 c0,0,0.8-0.2,0.3-1.1l-1.4-2.2l-22.9,6.7c0,0-1,0.6-1.3-1.1c0,0-0.5-4.4-11.5-1.9L26.6,61.2z"></path> <path class="st1" d="M25.8,56.5l11.9-1.7l-5.6-19.2l8.4,1.2c0,0,2.5,0.2,4,4.3L49,53.3c0,0,8.2-0.8,9.3,0.8l-8.1-17.9 c0,0-1.7-2.9-6.4-3.8l-9.5-2c0,0-2.4-0.3-2.7,2.3c0,0-0.4,0.4-0.5-0.1l-0.5-2.7l-10.7-2.4L25.8,56.5z"></path> <path class="st1" d="M61.3,44.3L59.2,40l17.3,1.9c0,0,0.8-0.2,2.7,2.7L61.3,44.3z"></path> <polygon class="st1" points="63.7,49.1 81.2,48.1 82.8,50.6 65.9,53.9 "></polygon> <path class="st1" d="M116.3,49.2h4.9V34l9.7,14.6c0,0,0.3,0.9,2.9,0.6c0,0,1.8-0.3,1.8-2.2V23.9h-4.8v15.4l-10.1-15.1 c0,0-3.4-1.5-4.4,1L116.3,49.2z"></path> <path class="st1" d="M143.2,34.2h12.9v4.4h-12.8v6.1h13.9v4.4h-14.5c0,0-4.4-0.3-4.4-4.6V27.9c0,0,0.6-3.8,4.6-4h14.2v4.4h-13.8 h-0.3L143.2,34.2z"></path> <path class="st1" d="M121.2,62.8H134v4.4h-12.8v6.1h13.9v4.4h-14.5c0,0-4.4-0.3-4.4-4.6V56.5c0,0,0.6-3.8,4.6-4h14.2v4.4h-13.8h-0.3 L121.2,62.8z"></path> <path class="st1" d="M159.9,23.8h5V45h4.8V24h4.8v20.9h4.7V23.8h5v20.7c0,0,0.3,4.3-4.6,4.7h-15.1c0,0-4.3,0.6-4.7-4.7L159.9,23.8z"></path> <path class="st1" d="M138.3,77.7h5V57l0.4-0.6h10.7l0.6,0.5v5.4l-0.6,0.5h-8.5l-1.8,4h6.1l5.3,10.8h5.7L155.5,67 c0,0,3.9-0.6,4.3-4.2v-6.8c0,0-0.9-3.1-4-3.6h-13.3c0,0-3.8,0.5-4,4.4L138.3,77.7z"></path> <path class="st1" d="M163,77.7h5.1V57.1l0.2-0.6h10.4l0.4,0.4v5.8H171l-2.1,4.1h10.3v10.9h5.3v-21c0,0-0.6-4.2-5.9-4.4h-11.4 c0,0-3.8,0.5-4.2,4.8V77.7z"></path> <g> <path class="st1" d="M177.8,83.7v-2.8h-1.2v-0.6h3.1v0.6h-1.2v2.8H177.8z"></path> <path class="st1" d="M180.2,83.7v-3.4h1.2l0.7,2.3l0.7-2.3h1.2v3.4h-0.7l0-2.7l-0.8,2.7h-0.8l-0.8-2.7l0,2.7H180.2z"></path> </g> </svg> 