<?xml version="1.0" encoding="UTF-8"?> <!-- Generator: Adobe Illustrator 24.0.1, SVG Export Plug-In . SVG Version: 6.00 Build 0) --> <svg xmlns="http://www.w3.org/2000/svg" xmlns:xlink="http://www.w3.org/1999/xlink" id="Livello_1" x="0px" y="0px" viewBox="0 0 175.9 73.1" style="enable-background:new 0 0 175.9 73.1;" xml:space="preserve"> <style type="text/css"> .st0{fill-rule:evenodd;clip-rule:evenodd;fill:#6E777E;stroke:#6E777E;stroke-width:5.9171;stroke-linecap:round;stroke-linejoin:round;stroke-miterlimit:2.6131;} .st1{fill-rule:evenodd;clip-rule:evenodd;fill:#929AA0;} .st2{fill-rule:evenodd;clip-rule:evenodd;fill:#A5A9AA;} .st3{fill-rule:evenodd;clip-rule:evenodd;fill:#3B317B;} .st4{fill:#6E777E;stroke:#6E777E;stroke-width:0.4199;stroke-miterlimit:2.6131;} .st5{fill-rule:evenodd;clip-rule:evenodd;fill:#6E777E;} .st6{fill:none;stroke:#6E777E;stroke-width:0.4199;stroke-miterlimit:2.6131;} .st7{fill-rule:evenodd;clip-rule:evenodd;fill:#FFFFFF;} .st8{fill-rule:evenodd;clip-rule:evenodd;fill:#AAB0B6;} .st9{fill-rule:evenodd;clip-rule:evenodd;fill:#D3D6D8;} </style> <path class="st0" d="M71.1,53.9c4.2-1.2,8.2-2.2,12.5-3.4l-0.1,0.1c1.7-0.4,3.1-1.4,4.1-3c0.5-0.9,0.8-1.8,0.8-3 c0-0.3,0-0.5-0.1-0.9c0.7,0.7,1.4,1.3,2,1.9c0,0-0.1-0.1-0.1-0.2c1.6,1.6,3.9,2.3,6.2,1.8c4.6-1.1,8.7-2.1,13.3-3.2 c0.1,0,0.1-0.1,0.2-0.1c0.9-0.3,1.6-0.8,2.2-1.4h2.3c9.1-2,17.3-3.6,25.8-5.2c1.3-0.3,2.2-0.8,2.9-2c0.3-0.5,0.4-1.1,0.5-1.6 c4.7,2.1,10.1,2.6,15.6,1.8c6.1-1.2,9.7-3.5,11.2-7.4c0.8-2.2,1.2-5.4-1.2-10.4c-1.6-3.1-3.6-5.5-6.3-7.6c-4.5-3.1-10-4.8-16.5-4.4 c-5.6,0.4-9.7,2.1-12.3,4.9c-0.1-0.1-0.1-0.3-0.2-0.4l-0.1-0.1c-1.3-2.4-3.7-3.1-5.5-3c-8.2,0.9-16.1,1.9-25,3.2h-0.1 c-1.5,0.3-2.7,1-3.4,2.1c-0.1,0.2-0.2,0.3-0.3,0.5c-3.5-1.4-7.9-1.4-15.3,0l-21.9,4.6h-0.1c-1.8,0.5-3.1,1.4-4.1,2.7 c-0.8,1.3-0.9,2.5-0.9,3.3c-6.6-3-15.2-3-25.7-0.1c-5.4,1.6-10,3.6-14.2,6.3c-4.6,2.9-7.8,6-10.3,9.8c-3.1,4.9-4.4,9.7-3.8,15.3 c0.7,5.5,2.9,9.5,7.2,12.3c6.6,4,16.3,4.2,29.1-0.1c6-2.1,14-5.7,20.6-11.9c1.6-1.7,3-3.3,4.1-5C65.1,52.8,67.4,54.6,71.1,53.9 L71.1,53.9z"></path> <path class="st1" d="M175.8,20.1C174.1,5.3,159-0.4,147.3,0.7c-5,0.4-9.4,1.9-12.4,4.1c-1.9-2.2-4.5-2.9-6.4-2.8 c-8.2,0.5-16.6,1.2-25.7,2.1l0,0h-0.1c-1.7,0.3-3.2,1-4.2,2.1C94.8,5,90.1,4.9,83.3,5.9h0.1c-0.1,0-19.2,3-22.5,3.6 c-0.1,0-0.3,0-0.3,0c-2.2,0.5-4,1.6-5.3,3.3l-0.1,0.1L55.1,13c-0.3,0.5-0.6,1-0.8,1.5c-6.8-2.7-16.3-3.4-29.1,0 C9.1,18.7-3.9,31,1.1,50c6.5,24.6,48.6,18,63-1.1c1.6,1.7,3.8,2.5,6.7,2.1c0.7-0.1,6.8-1.6,10.4-2.3l1.9-0.4h0.1 c2.2-0.5,4-1.8,5.2-3.7c0.2-0.3,0.4-0.6,0.5-1c2,1.7,4.8,2.5,7.3,2l8.2-1.6c0,0,5.2-1,5.3-1s0.3-0.1,0.4-0.1h0.1 c0.8-0.3,1.6-0.6,2.3-1.1c0.5,0.1,1.1,0.1,1.7,0c0,0,0,0-0.1,0c0,0,0,0,0.1,0l0,0c0.1,0,0.3,0,0.4,0l0,0c9.9-1.8,18.3-3.2,26.3-4.4 c1.9-0.3,3.3-1.3,4.3-2.9c0,0,0,0,0-0.1c3.4,1.3,7.2,1.9,11.1,1.9C170.1,36.2,176.8,28.6,175.8,20.1L175.8,20.1z"></path> <path class="st2" d="M175.8,20.1C174.1,5.3,159-0.4,147.3,0.7c-5,0.4-9.4,1.9-12.4,4.1c-1.9-2.2-4.5-2.9-6.4-2.8 c-8.2,0.5-16.6,1.2-25.7,2.1l0,0h-0.1c-1.7,0.3-3.2,1-4.2,2.1C94.8,5,90.1,4.9,83.3,5.9h0.1c-0.1,0-19.2,3-22.5,3.6 c-0.1,0-0.3,0-0.3,0c-2.2,0.5-4,1.6-5.3,3.3l-0.1,0.1L55.1,13c-0.3,0.5-0.6,1-0.8,1.5c-6.8-2.7-16.3-3.4-29.1,0 C9.1,18.7-3.9,31,1.1,50c6.5,24.6,48.6,18,63-1.1c1.6,1.7,3.8,2.4,6.7,2.1c0.7-0.1,6.8-1.6,10.4-2.3l1.9-0.4h0.1 c2.2-0.5,4-1.8,5.2-3.7c0.2-0.3,0.4-0.6,0.5-1c2,1.7,4.8,2.5,7.3,2l8.2-1.6c0,0,5.2-1,5.3-1s0.3-0.1,0.4-0.1h0.1 c0.8-0.3,1.6-0.6,2.3-1.1c0.5,0.1,1.1,0.1,1.7,0c0,0,0,0-0.1,0c0,0,0,0,0.1,0l0,0c0.1,0,0.3,0,0.4,0l0,0c9.9-1.8,18.3-3.2,26.3-4.4 c1.9-0.3,3.3-1.3,4.3-2.9c0,0,0,0,0-0.1c3.4,1.3,7.2,1.9,11.1,1.9C170.1,36.2,176.8,28.6,175.8,20.1L175.8,20.1z M157.7,33.6 c-3.8,0-7.4-0.5-10.9-1.8c-1.5-0.5-2.7,0-3.5,1.3l0,0l0,0l0,0c-0.7,0.9-1,1.3-2.2,1.6c-8.3,1.3-15.8,2.6-26.3,4.4 c-0.2,0-0.6,0-0.7,0c-0.2,0-0.4,0-0.6,0c-0.7-0.1-1.4,0.1-2,0.5c-0.4,0.3-0.9,0.5-1.4,0.7l0,0c0.1,0-0.1,0-0.2,0.1l0,0 c-1.8,0.3-3.4,0.7-5.3,1c-2.8,0.5-5.3,1-8.2,1.6c-1.7,0.3-3.5-0.2-5-1.5c-0.8-0.6-1.6-0.8-2.4-0.6c-0.9,0.2-1.5,0.8-1.9,1.6 c-0.1,0.2-0.2,0.4-0.3,0.6c0,0,0,0,0,0.1c-0.8,1.3-1.8,2-3.3,2.4h-0.1h-0.1c-0.7,0.1-1.1,0.2-1.8,0.4c-3.6,0.7-5.5,1.2-9.1,2 c-0.1,0-1.5,0.2-2.3,0.1c-1.8-0.3-2.5-0.9-3.1-1.5s-1.2-1.4-2.5-1.2c-1.3,0.1-2.1,1.3-2.6,2C48.1,64.1,11,70.4,4.4,49.5 c-7-22.1,16-31.9,26.3-33.9c9.6-1.8,16.7-1.5,23.4,1c0.7,0.3,1.5,0.3,2.2,0s1.1-0.9,1.5-1.6c0.1-0.3,0.2-0.7,0.5-1 c0.9-1.2,1.8-1.8,3.5-2.3l0,0c0.1,0,0.1,0,0.2,0c3.4-0.6,21.4-3.6,22.1-3.7l0,0c6.5-0.9,10.3-0.8,13.7,0.2c1.1,0.3,2,0.1,2.9-0.8 c0.6-0.7,1.4-1.1,2.5-1.3l0,0l0,0l0,0c0,0,0.1,0,0,0c9.3-1,16.9-1.7,25.6-2.3c1.2,0,2.8,0.3,4.2,1.9c1,1.2,2.6,1.3,3.9,0.5 c2.6-1.9,6.9-3.3,11.7-3.6c10.4-0.7,22.6,4.3,24.8,16.7C174.7,25.7,169.4,33.6,157.7,33.6L157.7,33.6z"></path> <path class="st3" d="M103.3,9.9l0.5-0.1c8.8-0.9,17.1-1.6,25.4-2.1c0,0,0.9-0.1,1.5,0.9c0.5,1.1,0.9,2.2,1.5,3.3 c0.3,1.1-0.5,1.1-0.5,1.1c-4.3,0.4-8.5,0.8-13,1.2c0,0-1.1,0-0.7,1.2c0.2,0.5,0.4,0.9,0.6,1.4c0,0,0.4,1,1.6,1 c3.5-0.4,7-0.8,10.4-1.1c0,0,0.8-0.1,1.5,1c0.5,1.1,1,2.3,1.5,3.5c0.2,0.5,0.2,1.1-0.5,1.2c-3.5,0.4-6.9,0.8-10.5,1.3 c0,0-1,0-0.7,1.3c0.2,0.5,0.4,1,0.6,1.4c0,0,0.4,1.2,1.6,1c4.5-0.6,8.8-1.2,13.2-1.8c0,0,0.8-0.2,1.5,1c0.5,1.3,1,2.4,1.5,3.7 c0.3,0.7-0.1,1.4-0.5,1.3c-8.5,1.3-17,2.7-26.3,4.3c-1.3,0.2-1.7-1.1-1.7-1.1l0,0c-2.9-8.4-5.8-16.2-8.8-23.9 C102.8,11,102.4,10.2,103.3,9.9L103.3,9.9z"></path> <path class="st4" d="M111.6,35c-2.9-8.4-5.8-16.2-8.8-23.9c0,0-0.4-1,0.8-1.2c8.9-1,17.2-1.6,25.6-2.2c0,0,0.9-0.1,1.5,0.9 c0.5,1.1,0.9,2.2,1.5,3.3c0.3,1.1-0.5,1.1-0.5,1.1c-4.3,0.4-8.5,0.8-13,1.2c0,0-1.1,0-0.7,1.2c0.2,0.5,0.4,0.9,0.6,1.4 c0,0,0.4,1,1.6,1c3.5-0.4,7-0.8,10.4-1.1c0,0,0.8-0.1,1.5,1c0.5,1.1,1,2.3,1.5,3.5c0.2,0.5,0.2,1.1-0.5,1.2 c-3.5,0.4-6.9,0.8-10.5,1.3c0,0-1,0-0.7,1.3c0.2,0.5,0.4,1,0.6,1.4c0,0,0.4,1.2,1.6,1c4.5-0.6,8.8-1.2,13.2-1.8c0,0,0.8-0.2,1.5,1 c0.5,1.3,1,2.4,1.5,3.7c0.3,0.7-0.1,1.4-0.5,1.3c-8.5,1.3-17,2.7-26.3,4.3C112,36.2,111.6,35,111.6,35"></path> <path class="st3" d="M61.1,16l0.7-0.1c7.3-1.2,14.5-2.4,22-3.5c7.2-1,11.2-0.7,13.9,0.9c1.6,0.9,3,2.5,3.7,4.8 c0.8,2.9-0.4,5.6-4.2,7.7c0,0-0.1,0.1-0.2,0.1c-0.1,0-0.2,0.1-0.2,0.1s-0.1,0.1-0.2,0.1c3.7,3.2,7.4,6.2,11.2,9.4 c0,0,0.5,0.4,0.4,0.9c0,0,0.1,0.5-0.5,0.7c-4.4,0.8-8.7,1.7-13.3,2.6c-0.5,0.1-1.3-0.2-1.7-0.7c-4.4-4.5-8.5-8.4-12.8-12.7l0,0 c0,0-0.4-0.4,0.1-0.6c0,0,0.2,0,1.2-0.2c3.7-0.7,5.7-1.3,6.6-2.8c0.3-0.6,0.3-1.4,0.1-1.9c-1.1-2.6-3.5-2.3-5.9-1.9 c-1.4,0.2-2.6,0.4-4,0.6c-1,0.2-1.6,1.1-1.3,2.1c1.9,6.1,3.7,12.3,5.7,18.9c0.3,0.8-0.3,1.6-1,1.8c-4.2,0.8-8.1,1.8-12.3,2.6 c-1.7,0.2-2-1.2-2-1.2c-2.5-9.2-4.7-17.8-6.9-26.3C60.1,17.4,59.8,16.4,61.1,16L61.1,16z"></path> <path class="st4" d="M79.9,26.3c0,0-0.4-0.4,0.1-0.6c0,0,0.2,0,1.2-0.2c3.7-0.7,5.7-1.3,6.6-2.8c0.3-0.6,0.3-1.4,0.1-1.9 c-1.1-2.6-3.5-2.3-5.9-1.9c-1.4,0.2-2.6,0.4-4,0.6c-1,0.2-1.6,1.1-1.3,2.1c1.9,6.1,3.7,12.3,5.7,18.9c0.3,0.8-0.3,1.6-1,1.8 c-4.2,0.8-8.1,1.8-12.3,2.6c-1.7,0.2-2-1.2-2-1.2c-2.5-9.2-4.7-17.8-6.9-26.3c0,0-0.3-1.1,1.2-1.5c7.5-1.3,14.9-2.4,22.5-3.5 c7.2-1,11.2-0.7,13.9,0.9c1.6,0.9,3,2.5,3.7,4.8c0.8,2.9-0.4,5.6-4.2,7.7c0,0-0.1,0.1-0.2,0.1c-0.1,0-0.2,0.1-0.2,0.1 s-0.1,0.1-0.2,0.1c3.7,3.2,7.4,6.2,11.2,9.4c0,0,0.5,0.4,0.4,0.9c0,0,0.1,0.5-0.5,0.7c-4.4,0.8-8.7,1.7-13.3,2.6 c-0.5,0.1-1.3-0.2-1.7-0.7C88.3,34.4,84.2,30.5,79.9,26.3"></path> <path class="st5" d="M27.9,20.7l2.7-0.6c9.5-1.8,17.7-0.6,23.2,3.1c3.3,2.3,5.4,5.4,6.4,9.6c1.6,6.7-0.7,12-5.2,16.3 c-4.7,4.2-11.3,7.1-18.3,8.8c-11,2.6-20.2,1.5-25.9-2.7c-3.2-2.5-5.2-6-5.7-10.6c-0.5-4.5,0.5-8.4,3-12c2-3,4.9-5.5,8.8-7.7 C20.1,23.1,23.7,21.7,27.9,20.7L27.9,20.7z M21.7,40.6c0.3,2.2,1.5,4.1,3.3,5.5c2.6,1.9,6.1,2.5,9.7,1.7c3.5-0.8,6.6-2.9,8.3-5.7 c1.2-2,1.6-4.1,1.1-6.3c-0.4-2.1-1.6-3.9-3.5-5.3c-2.6-1.8-5.9-2.3-9.3-1.7c-2.9,0.6-5.4,2.1-7.3,4.2C22.1,35.3,21.3,37.9,21.7,40.6 L21.7,40.6L21.7,40.6z"></path> <path class="st6" d="M60.2,32.8c1.6,6.7-0.7,12-5.2,16.3c-4.7,4.2-11.3,7.1-18.3,8.8c-11,2.6-20.2,1.5-25.9-2.7 c-3.2-2.5-5.2-6-5.7-10.6c-0.5-4.5,0.5-8.4,3-12c2-3,4.9-5.5,8.8-7.7c3.7-2.2,8.1-3.7,13.1-4.7c9.8-1.9,18.3-0.8,23.9,3 C57.1,25.6,59.2,28.7,60.2,32.8 M21.7,40.6c0.3,2.2,1.5,4.1,3.3,5.5c2.6,1.9,6.1,2.5,9.7,1.7c3.5-0.8,6.6-2.9,8.3-5.7 c1.2-2,1.6-4.1,1.1-6.3c-0.4-2.1-1.6-3.9-3.5-5.3c-2.6-1.8-5.9-2.3-9.3-1.7c-2.9,0.6-5.4,2.1-7.3,4.2C22.1,35.3,21.3,37.9,21.7,40.6 "></path> <path class="st5" d="M142.9,6.5l1.7-0.4c1-0.2,2.2-0.3,3.3-0.3c5.8-0.1,10.8,1.5,14.6,4.3c2.3,1.7,4,3.8,5.2,6.4 c2.5,6.3-1.2,12.3-8.7,13.3c-6,0.8-12-0.5-16.6-3.6c-2.7-1.9-4.7-4.3-6-7.3s-1.4-5.5-0.5-7.6C137.2,9,139.6,7.3,142.9,6.5L142.9,6.5 z M146.5,17.8c0.7,1.5,1.7,2.7,3.2,3.8c1.9,1.4,4.2,2.1,6.2,1.9c1.9-0.2,3.3-1.2,3.8-2.8c0.4-1.1,0.1-2.4-0.5-3.8 c-0.7-1.3-1.6-2.6-3-3.6c-1.8-1.3-4-2-5.9-2c-1.7,0.1-2.9,0.8-3.7,1.9C145.8,14.4,145.7,16,146.5,17.8L146.5,17.8L146.5,17.8z"></path> <path class="st6" d="M167.9,16.6c2.5,6.3-1.2,12.3-8.7,13.3c-6,0.8-12-0.5-16.6-3.6c-2.7-1.9-4.7-4.3-6-7.3s-1.4-5.5-0.5-7.6 C137.7,7.9,142,6,148,5.9c5.8-0.1,10.8,1.5,14.6,4.3C164.9,11.9,166.6,13.9,167.9,16.6 M146.5,17.8c0.7,1.5,1.7,2.7,3.2,3.8 c1.9,1.4,4.2,2.1,6.2,1.9c1.9-0.2,3.3-1.2,3.8-2.8c0.4-1.1,0.1-2.4-0.5-3.8c-0.7-1.3-1.6-2.6-3-3.6c-1.8-1.3-4-2-5.9-2 c-1.7,0.1-2.9,0.8-3.7,1.9C145.8,14.4,145.7,16,146.5,17.8"></path> <path class="st7" d="M112.8,33.1c-2.9-8.4-5.8-16.2-8.8-23.9c0,0-0.4-1,0.8-1.2c8.9-1,17.2-1.6,25.6-2.2c0,0,0.9-0.1,1.5,0.9 c0.5,1.1,0.9,2.2,1.5,3.3c0.3,1.1-0.5,1.1-0.5,1.1c-4.3,0.4-8.5,0.8-13,1.2c0,0-1.1,0-0.7,1.2c0.2,0.5,0.4,0.9,0.6,1.4 c0,0,0.4,1,1.6,1c3.5-0.4,7-0.8,10.4-1.1c0,0,0.8-0.1,1.5,1c0.5,1.1,1,2.3,1.5,3.5c0.2,0.5,0.2,1.1-0.5,1.2 c-3.5,0.4-6.9,0.8-10.5,1.3c0,0-1,0-0.7,1.3c0.2,0.5,0.4,1,0.6,1.4c0,0,0.4,1.2,1.6,1c4.5-0.6,8.8-1.2,13.2-1.8c0,0,0.8-0.2,1.5,1 c0.5,1.3,1,2.4,1.5,3.7c0.3,0.7-0.1,1.4-0.5,1.3c-8.5,1.3-17.1,2.7-26.3,4.3C113.2,34.3,112.8,33.1,112.8,33.1L112.8,33.1z"></path> <path class="st7" d="M81.9,23.8c0,0-0.4-0.4,0.1-0.6c0,0,0.2,0,1.2-0.2c3.7-0.7,5.7-1.3,6.6-2.8c0.3-0.6,0.3-1.4,0.1-1.9 c-1.1-2.6-3.5-2.3-5.9-1.9c-1.4,0.2-2.6,0.4-4,0.6c-1,0.2-1.6,1.1-1.3,2.1c1.9,6.1,3.7,12.3,5.7,18.9c0.3,0.8-0.3,1.6-1,1.8 c-4.2,0.8-8.1,1.8-12.3,2.6c-1.7,0.2-2-1.2-2-1.2c-2.5-9.2-4.7-17.8-6.9-26.3c0,0-0.3-1.1,1.2-1.5c7.5-1.3,14.9-2.5,22.5-3.5 c7.2-1,11.2-0.7,13.9,0.9c1.6,0.9,3,2.5,3.7,4.8c0.8,2.9-0.4,5.6-4.2,7.7c0,0-0.1,0.1-0.2,0.1c-0.1,0-0.2,0.1-0.2,0.1 s-0.1,0.1-0.2,0.1c3.7,3.2,7.4,6.2,11.2,9.4c0,0,0.5,0.4,0.4,0.9c0,0,0.1,0.5-0.5,0.7c-4.4,0.8-8.7,1.7-13.3,2.6 c-0.5,0.1-1.3-0.2-1.7-0.7C90.3,32,86.1,28,81.9,23.8L81.9,23.8z"></path> <path class="st7" d="M62.1,30.3c1.6,6.7-0.7,12-5.2,16.3c-4.7,4.3-11.3,7.3-18.3,9c-11,2.7-20.2,1.8-25.9-2.3 C9.5,50.8,7.5,47.4,7,42.8c-0.5-4.5,0.5-8.4,3-12.1c2-3,4.9-5.6,8.8-7.8c3.7-2.2,8.1-3.8,13.1-4.9c9.8-2.1,18.3-1,23.9,2.7 C59,23.1,61.1,26.2,62.1,30.3L62.1,30.3z M23.6,38.6c0.3,2.2,1.5,4.1,3.3,5.4c2.6,1.9,6.1,2.4,9.7,1.6c3.5-0.9,6.6-2.9,8.3-5.8 c1.2-2.1,1.6-4.1,1.1-6.3c-0.4-2.1-1.6-3.9-3.5-5.2c-2.6-1.8-5.9-2.2-9.3-1.6c-2.9,0.7-5.4,2.2-7.3,4.3C24,33.3,23.2,35.9,23.6,38.6 L23.6,38.6z"></path> <path class="st7" d="M169.3,15.3c2.5,6.3-1.2,12.3-8.7,13.3c-6,0.8-12-0.5-16.6-3.6c-2.7-1.9-4.7-4.3-6-7.3s-1.4-5.5-0.5-7.6 c1.6-3.5,5.9-5.4,11.9-5.5c5.8-0.1,10.8,1.5,14.6,4.3C166.3,10.7,168,12.7,169.3,15.3L169.3,15.3z M147.9,16.5 c0.7,1.5,1.7,2.7,3.2,3.8c1.9,1.4,4.2,2.1,6.2,1.9c1.9-0.2,3.3-1.2,3.8-2.8c0.3-1.1,0.1-2.4-0.5-3.8c-0.7-1.3-1.6-2.6-3-3.6 c-1.8-1.3-4-2-5.9-2c-1.7,0.1-2.9,0.8-3.7,1.9C147.2,13.1,147.1,14.8,147.9,16.5L147.9,16.5z"></path> <path class="st8" d="M139.8,24.8c-0.7-1.1-1.5-1-1.5-1c-4.4,0.5-8.7,1.2-13.2,1.8c-1.2,0.1-1.6-1-1.6-1c-0.2-0.5-0.4-1-0.6-1.4 c-0.3-1.3,0.7-1.3,0.7-1.3c3.6-0.5,7-0.9,10.5-1.3c0.8-0.1,0.7-0.8,0.5-1.2c-0.5-1.2-1-2.4-1.5-3.5c-0.7-1.1-1.5-1-1.5-1 c-3.4,0.3-6.9,0.7-10.4,1.1c-1.2,0.1-1.6-1-1.6-1c-0.2-0.4-0.4-0.9-0.6-1.4c-0.4-1.2,0.7-1.2,0.7-1.2c4.5-0.4,8.7-0.8,13-1.2 c0,0,0.9,0,0.5-1.1c-0.5-1.1-1-2.2-1.5-3.3c-0.5-1-1.5-0.9-1.5-0.9c-8.4,0.6-16.7,1.2-25.6,2.2c-1.3,0.2-0.8,1.2-0.8,1.2 c2.9,7.8,5.9,15.5,8.8,23.9c0,0,0.4,1.2,1.7,1.1c9.2-1.6,17.7-3,26.3-4.3c0.4,0,0.8-0.6,0.5-1.3C140.7,27.3,140.3,26.1,139.8,24.8 L139.8,24.8z"></path> <path class="st8" d="M109.7,33c-3.8-3.2-7.5-6.2-11.2-9.4c0,0,0.1-0.1,0.2-0.1c0.1-0.1,0.2-0.1,0.2-0.1s0.1-0.1,0.2-0.1 c3.8-2.1,5-4.8,4.2-7.7c-0.7-2.3-2.1-3.8-3.7-4.8c-2.7-1.6-6.7-1.9-13.9-0.9c-7.6,1.1-15,2.3-22.5,3.5c-1.5,0.4-1.2,1.5-1.2,1.5 c2.2,8.5,4.5,17,6.9,26.3c0,0,0.2,1.4,2,1.2c4.2-0.9,8.2-1.9,12.3-2.6c0.7-0.2,1.3-1,1-1.8c-2-6.7-3.8-12.8-5.7-18.9 c-0.3-1,0.3-1.9,1.3-2.1c1.4-0.2,2.6-0.4,4-0.6c2.4-0.4,4.8-0.7,5.9,1.9c0.2,0.5,0.2,1.3-0.1,1.9c-0.9,1.5-2.9,2.2-6.6,2.8 c-1,0.2-1.2,0.2-1.2,0.2c-0.5,0.2-0.1,0.6-0.1,0.6C86,28,90.1,32,94.5,36.5c0.4,0.4,1.2,0.8,1.7,0.7c4.5-0.9,8.8-1.7,13.3-2.6 c0.6-0.1,0.5-0.7,0.5-0.7C110.2,33.4,109.7,33,109.7,33L109.7,33z"></path> <path class="st8" d="M55.7,20.8c-5.6-3.7-14-4.7-23.9-2.7c-5.1,1.1-9.4,2.7-13.1,4.9c-3.8,2.2-6.8,4.8-8.8,7.8 c-2.5,3.7-3.4,7.6-3,12.1c0.5,4.5,2.4,8,5.7,10.5c5.7,4.1,14.9,5,25.9,2.3c7-1.7,13.6-4.8,18.3-9c4.5-4.3,6.8-9.6,5.2-16.3 C61.1,26.2,59,23.1,55.7,20.8L55.7,20.8z M45,39.9c-1.7,2.8-4.7,4.9-8.3,5.8c-3.6,0.8-7.1,0.3-9.7-1.6c-1.9-1.4-3-3.2-3.3-5.4 c-0.4-2.7,0.4-5.4,2.4-7.6c1.9-2.1,4.4-3.6,7.3-4.3c3.4-0.7,6.7-0.2,9.3,1.6c1.8,1.3,3.1,3.1,3.5,5.2C46.6,35.8,46.2,37.8,45,39.9 L45,39.9z"></path> <path class="st8" d="M169.3,15.3c2.5,6.3-1.2,12.3-8.7,13.3c-6,0.8-12-0.5-16.6-3.6c-2.7-1.9-4.7-4.3-6-7.3s-1.4-5.5-0.5-7.6 c1.6-3.5,5.9-5.4,11.9-5.5c5.8-0.1,10.8,1.5,14.6,4.3C166.3,10.7,168,12.7,169.3,15.3L169.3,15.3z M147.9,16.5 c0.7,1.5,1.7,2.7,3.2,3.8c1.9,1.4,4.2,2.1,6.2,1.9c1.9-0.2,3.3-1.2,3.8-2.8c0.3-1.1,0.1-2.4-0.5-3.8c-0.7-1.3-1.6-2.6-3-3.6 c-1.8-1.3-4-2-5.9-2c-1.7,0.1-2.9,0.8-3.7,1.9C147.2,13.1,147.1,14.8,147.9,16.5L147.9,16.5z"></path> <path class="st9" d="M113.7,31.8c-2.9-8.5-5.8-16.2-8.7-24c0,0-0.4-1,0.8-1.2c8.9-0.9,17.2-1.5,25.6-2.1c0,0,0.9-0.1,1.5,1 c0.5,1.1,0.9,2.2,1.5,3.3c0.3,1.1-0.5,1.1-0.5,1.1c-4.3,0.4-8.5,0.7-13,1.1c0,0-1.1,0-0.7,1.2c0.2,0.5,0.4,0.9,0.6,1.4 c0,0,0.4,1,1.6,1c3.5-0.4,7-0.8,10.4-1.1c0,0,0.8-0.1,1.5,1c0.5,1.2,1,2.3,1.5,3.5c0.2,0.5,0.2,1.1-0.5,1.2 c-3.5,0.4-6.9,0.8-10.5,1.3c0,0-1,0-0.7,1.3c0.2,0.5,0.4,1,0.6,1.4c0,0,0.4,1.2,1.6,1c4.5-0.6,8.8-1.2,13.2-1.7c0,0,0.8-0.2,1.5,1 c0.5,1.3,1,2.5,1.5,3.7c0.3,0.7-0.1,1.4-0.5,1.3c-8.5,1.3-17,2.6-26.2,4.2C114.2,33,113.7,31.8,113.7,31.8L113.7,31.8z"></path> <path class="st9" d="M82.9,22.4c0,0-0.4-0.4,0.1-0.6c0,0,0.2,0,1.2-0.2c3.6-0.7,5.7-1.3,6.6-2.8c0.3-0.6,0.3-1.4,0.1-1.9 c-1.1-2.6-3.5-2.3-5.9-2c-1.4,0.2-2.6,0.4-4,0.6c-1,0.2-1.6,1.1-1.3,2.1c1.9,6.1,3.7,12.3,5.6,18.9c0.3,0.8-0.3,1.6-1,1.8 c-4.2,0.8-8.1,1.7-12.3,2.6c-1.7,0.2-2-1.2-2-1.2c-2.4-9.2-4.7-17.8-6.9-26.3c0,0-0.3-1.1,1.2-1.5c7.5-1.2,14.8-2.4,22.4-3.4 c7.2-1,11.2-0.7,13.9,0.9c1.6,0.9,3,2.5,3.7,4.8c0.8,2.9-0.4,5.6-4.2,7.7c0,0-0.1,0.1-0.2,0.1c-0.1,0-0.2,0.1-0.2,0.1 s-0.1,0.1-0.2,0.1c3.7,3.2,7.4,6.2,11.2,9.5c0,0,0.5,0.4,0.4,0.9c0,0,0,0.5-0.5,0.7c-4.4,0.8-8.7,1.6-13.2,2.5 c-0.5,0.1-1.3-0.2-1.7-0.7C91.3,30.6,87.2,26.6,82.9,22.4L82.9,22.4z"></path> <path class="st9" d="M63.2,29c1.6,6.7-0.7,12-5.2,16.3c-4.7,4.2-11.3,7.2-18.3,8.9c-11,2.7-20.2,1.7-25.9-2.4 c-3.2-2.5-5.2-6-5.6-10.5c-0.5-4.5,0.5-8.4,3-12.1c2-3,4.9-5.5,8.8-7.7c3.7-2.2,8.1-3.8,13.1-4.8c9.8-2,18.2-1,23.8,2.8 C60.1,21.7,62.2,24.8,63.2,29L63.2,29z M24.7,37.1c0.3,2.2,1.5,4.1,3.3,5.4c2.6,1.9,6.1,2.5,9.7,1.6c3.5-0.9,6.6-2.9,8.3-5.7 c1.2-2,1.6-4.1,1.2-6.3c-0.4-2.1-1.6-3.9-3.5-5.2c-2.6-1.8-5.9-2.3-9.3-1.6c-2.8,0.7-5.4,2.1-7.3,4.2C25.1,31.8,24.3,34.4,24.7,37.1 L24.7,37.1z"></path> <path class="st9" d="M170.2,14.4c2.5,6.3-1.2,12.3-8.7,13.3c-6,0.8-12-0.5-16.6-3.6c-2.7-1.9-4.7-4.3-6-7.3s-1.4-5.5-0.5-7.6 c1.6-3.5,5.9-5.4,11.9-5.5c5.8-0.1,10.8,1.5,14.6,4.3C167.2,9.7,168.9,11.8,170.2,14.4L170.2,14.4z M148.8,15.6 c0.7,1.5,1.7,2.7,3.2,3.8c1.9,1.4,4.2,2.1,6.2,1.9c1.9-0.2,3.3-1.2,3.8-2.8c0.4-1.1,0.1-2.4-0.5-3.8c-0.7-1.3-1.6-2.6-3-3.6 c-1.8-1.3-4-2-5.9-2c-1.7,0.1-2.9,0.8-3.7,1.9C148.1,12.2,148,13.8,148.8,15.6L148.8,15.6z"></path> <path class="st5" d="M171.2,2.7V1.9h0.5c0.2,0,0.5,0.2,0.5,0.5s-0.2,0.3-0.5,0.3H171.2L171.2,2.7z M171.2,3.2h0.3l0.7,1.5h0.8 l-0.8-1.5c0.3,0,0.7-0.2,0.7-0.8c0-0.7-0.3-1-1.1-1h-1.1v3.3h0.7V3.2H171.2z M174.5,3c0-2-1.3-3-2.8-3c-1.6,0-3,1-3,3 c0,1.8,1.3,3,3,3C173.2,6,174.5,4.8,174.5,3L174.5,3z M173.7,3c0,1.3-1,2.3-2,2.3l0,0c-1.1,0-2.1-1-2.1-2.3s1-2.3,2.1-2.3 C172.7,0.7,173.7,1.7,173.7,3L173.7,3z"></path> </svg> 