<?xml version="1.0" encoding="UTF-8"?> <!-- Generator: Adobe Illustrator 24.0.1, SVG Export Plug-In . SVG Version: 6.00 Build 0) --> <svg xmlns="http://www.w3.org/2000/svg" xmlns:xlink="http://www.w3.org/1999/xlink" id="Layer_1" x="0px" y="0px" viewBox="0 0 113 78.4" style="enable-background:new 0 0 113 78.4;" xml:space="preserve"> <style type="text/css"> .st0{filter:url(#Adobe_OpacityMaskFilter);} .st1{fill-rule:evenodd;clip-rule:evenodd;fill:#FFFFFF;} .st2{mask:url(#b_1_);fill-rule:evenodd;clip-rule:evenodd;fill:#6E777E;} .st3{fill-rule:evenodd;clip-rule:evenodd;fill:#6E777E;} .st4{filter:url(#Adobe_OpacityMaskFilter_1_);} .st5{mask:url(#d_1_);fill-rule:evenodd;clip-rule:evenodd;fill:#6E777E;} .st6{filter:url(#Adobe_OpacityMaskFilter_2_);} .st7{mask:url(#f_1_);fill-rule:evenodd;clip-rule:evenodd;fill:#6E777E;} </style> <g transform="translate(0 .218)"> <g transform="translate(11.045 59.111)"> <defs> <filter id="Adobe_OpacityMaskFilter" x="0.2" y="0" width="90.4" height="19.1"> <feColorMatrix type="matrix" values="1 0 0 0 0 0 1 0 0 0 0 0 1 0 0 0 0 0 1 0"></feColorMatrix> </filter> </defs> <mask maskUnits="userSpaceOnUse" x="0.2" y="0" width="90.4" height="19.1" id="b_1_"> <g class="st0"> <path id="a_1_" class="st1" d="M0.2,0h90.4v19.1H0.2V0z"></path> </g> </mask> <path class="st2" d="M90.7,0.4L90.7,0.4C90.7,0.4,90.7,0.4,90.7,0.4c0,0.2,0,0.3-0.1,0.4C80.3,11.9,63.9,19.1,45.5,19.1 S10.6,11.9,0.4,0.8C0.3,0.7,0.2,0.6,0.2,0.4c0,0,0,0,0-0.1l0,0c0-0.1,0.1-0.3,0.2-0.3C0.6,0,0.7,0,0.8,0.1 c10.6,8.2,26.7,13.4,44.6,13.4s34-5.2,44.6-13.4C90.2,0,90.3,0,90.5,0l0,0C90.6,0.1,90.7,0.2,90.7,0.4"></path> </g> <path class="st3" d="M101.7,18.5L101.7,18.5C101.7,18.5,101.7,18.5,101.7,18.5c0-0.2,0-0.3-0.1-0.4C91.4,7,75-0.2,56.5-0.2 S21.6,7,11.4,18.1c-0.1,0.1-0.1,0.2-0.1,0.3c0,0,0,0,0,0.1l0,0c0,0.1,0.1,0.3,0.2,0.3l0,0c0.1,0.1,0.3,0.1,0.4,0 C22.5,10.6,38.6,5.4,56.5,5.4s34,5.2,44.6,13.5c0.1,0.1,0.3,0.1,0.4,0l0,0C101.6,18.8,101.7,18.7,101.7,18.5 M92.1,37.4h-2.6v-7.9 h-3.4v19.1h2.8c0.3,0,0.7-0.1,0.7-0.7v-7.4h2.6v7.3c0,0.4,0.3,0.8,0.8,0.8h2.6V29.4h-3.4V37.4z M24.2,48.6h2.4c0.7,0,1-0.3,1-1 V29.4h-3.4V48.6L24.2,48.6z M40.5,42.3l1.1-6.9l1.1,6.9H40.5z M42.7,29.4H40l-3.5,19.2l2,0c0.9,0,1.2-0.2,1.3-1.1l0.3-2.1h3.2 l0.4,2.6c0.1,0.4,0.4,0.7,0.8,0.7h2.8l-3.5-18.3C43.7,29.7,43.3,29.4,42.7,29.4z M33.1,29.4h-3.1c-0.1,0-0.3,0.1-0.3,0.3v18.9h4.5 c0.6,0,1.2-0.4,1.3-1l0.4-2h-2.8C33.1,45.5,33.1,29.4,33.1,29.4z"></path> <g transform="translate(101.955 29.585)"> <defs> <filter id="Adobe_OpacityMaskFilter_1_" x="0.1" y="-0.2" width="10.9" height="19.2"> <feColorMatrix type="matrix" values="1 0 0 0 0 0 1 0 0 0 0 0 1 0 0 0 0 0 1 0"></feColorMatrix> </filter> </defs> <mask maskUnits="userSpaceOnUse" x="0.1" y="-0.2" width="10.9" height="19.2" id="d_1_"> <g class="st4"> <path id="c_1_" class="st1" d="M0.1-0.2H11V19H0.1V-0.2z"></path> </g> </mask> <path class="st5" d="M4.3,12.7l1.1-6.9l1.1,6.9H4.3z M7.5,0.7C7.4,0.2,7-0.2,6.5-0.2H3.7L0.1,19h2c0.9,0,1.2-0.2,1.3-1.1l0.3-2.1 H7l0.4,2.6C7.5,18.7,7.8,19,8.2,19H11L7.5,0.7z"></path> </g> <path class="st3" d="M52.1,45.5H52v-13c2.7,0,2.8,4.3,2.8,6.2C54.7,40.4,54.9,45.5,52.1,45.5 M51.6,29.4h-3.1v19.1h3.1 c5.3,0,6.7-5.2,6.7-9.7C58.3,34.2,57.4,29.4,51.6,29.4 M62.9,40.5h3.4v-3.1h-3.4v-4.8h3.9v-3.1h-7.3v19.1h6.4 c0.7,0,0.9-0.3,0.9-0.9v-2.1h-4V40.5L62.9,40.5z M71.8,29.4h-3.4v19.1h5.5c0.6,0,0.9-0.2,0.9-0.9v-2.1h-3L71.8,29.4L71.8,29.4z M97.4,48.6h2.6c0.6,0,0.8-0.3,0.8-0.9V29.4h-3.4V48.6z M18.8,37.4h-2.7v-7.9h-3.4v19.1h2.8c0.5,0,0.7-0.2,0.7-0.7v-7.4h2.7V48 c0,0.3,0.2,0.5,0.5,0.5h2.9V29.4h-3.4L18.8,37.4L18.8,37.4z M0,27.4v3.3c2.9-1.5,8.2-1.1,8.2,4.2c0,3.5-2.1,5.1-3.3,5v-6.3 c0-1.9-1-3-3.5-2.9v15.2c0,2.1,0.8,4.1,3.5,4.3v-7.5c4.1-0.4,7-3.3,7-8.2C11.8,29.1,6.6,25.5,0,27.4 M79.3,39.5L79.3,39.5l0-6.9 c2,0,2.5,1.7,2.5,3.5C81.8,37.6,81.2,39.5,79.3,39.5 M78.9,29.4h-3v19.1h3.2c0.1,0,0.1,0,0.1-0.1l0,0l0-5.9c4,0,5.8-2.9,5.8-6.6 C85.1,31.9,83.1,29.4,78.9,29.4"></path> <path class="st3" d="M42.5,21.2L42.5,21.2c0-0.8-0.6-1.4-1.4-1.4c-0.8,0-1.4,0.6-1.4,1.4v0c0,0.8,0.6,1.4,1.4,1.4 C41.9,22.6,42.5,22,42.5,21.2 M38.7,21.2L38.7,21.2c0-1.3,1-2.4,2.4-2.4c1.4,0,2.4,1,2.4,2.3v0c0,1.3-1,2.4-2.4,2.4 C39.7,23.6,38.7,22.5,38.7,21.2 M46.7,21.2c0.5,0,0.8-0.3,0.8-0.6v0c0-0.4-0.3-0.6-0.8-0.6h-1v1.3H46.7z M44.7,18.9h2.1 c0.6,0,1,0.2,1.3,0.5c0.3,0.3,0.4,0.6,0.4,1v0c0,0.7-0.4,1.2-1,1.4l1.1,1.6h-1.2l-1-1.5h-0.8v1.5h-1L44.7,18.9L44.7,18.9z"></path> <defs> <filter id="Adobe_OpacityMaskFilter_2_" x="49.8" y="18.9" width="24.5" height="4.7"> <feColorMatrix type="matrix" values="1 0 0 0 0 0 1 0 0 0 0 0 1 0 0 0 0 0 1 0"></feColorMatrix> </filter> </defs> <mask maskUnits="userSpaceOnUse" x="49.8" y="18.9" width="24.5" height="4.7" id="f_1_"> <g class="st6"> <path id="e_1_" class="st1" d="M0,78.2h112.9V-0.2H0V78.2z"></path> </g> </mask> <path class="st7" d="M49.8,23.5h1v-4.6h-1V23.5z M52,21.2L52,21.2c0-1.3,1-2.4,2.4-2.4c0.8,0,1.3,0.2,1.8,0.6l-0.6,0.8 c-0.3-0.3-0.7-0.5-1.2-0.5c-0.7,0-1.3,0.6-1.3,1.4v0c0,0.8,0.6,1.4,1.4,1.4c0.4,0,0.7-0.1,0.9-0.3v-0.6h-1v-0.9h2v2 c-0.5,0.5-1.2,0.7-1.9,0.7C53,23.6,52.1,22.6,52,21.2 M57.7,23.5h1v-4.6h-1V23.5z M60.2,18.9h0.9l2.1,2.8v-2.8h1v4.6h-0.8l-2.2-2.9 v2.9h-1L60.2,18.9z M68.2,21.6l-0.6-1.5L67,21.6C67,21.6,68.2,21.6,68.2,21.6z M67.2,18.9h0.9l1.9,4.6h-1l-0.4-1h-1.9l-0.4,1h-1 L67.2,18.9L67.2,18.9z M71.1,18.9h1v3.6h2.3v0.9h-3.3V18.9z"></path> </g> </svg> 