<?xml version="1.0" encoding="UTF-8"?> <!-- Generator: Adobe Illustrator 24.0.1, SVG Export Plug-In . SVG Version: 6.00 Build 0) --> <svg xmlns:svg="http://www.w3.org/2000/svg" xmlns="http://www.w3.org/2000/svg" xmlns:xlink="http://www.w3.org/1999/xlink" id="svg2" x="0px" y="0px" viewBox="0 0 852.5 310.3" style="enable-background:new 0 0 852.5 310.3;" xml:space="preserve"> <style type="text/css"> .st0{fill:none;} .st1{fill:none;stroke:#6D777D;stroke-width:6.634;} .st2{fill:#6D777D;} </style> <g id="layer1" transform="translate(860.58717,-113.53468)"> <g id="g3512"> <path id="path3389" class="st0" d="M-857.2,420.6h845.8V116.9h-845.9v303.7H-857.2z"></path> <path id="path3391" class="st1" d="M-857.2,420.6h845.8V116.9h-845.9v303.7H-857.2z"></path> <path id="path3393" class="st2" d="M-837.2,401.1h806V277.4h-806V401.1z"></path> <path id="path3395" class="st2" d="M-837.2,401.1h806V277.4h-806V401.1z"></path> <path id="path3399" class="st2" d="M-590.2,265.1h-27.1l-10.7-30.7h-53.8l-10.2,30.7h-27.9l44.9-130.5h40.7L-590.2,265.1z M-654.6,155.5l-19.7,57.1h39.2"></path> <path id="path3403" class="st2" d="M-586.1,265.2h25.7l0.1-105.3l53.8,105.6h32.6V134.7h-26v94.6l-47.1-94.7h-38.9"></path> <path id="path3407" class="st2" d="M-390.9,135.6c17.1,0.5,24.4,3.5,31,7.7s24.7,15.8,24.7,54.1s-11.3,49.7-22.5,58.9 c-11.3,9.1-36.8,8.9-36.8,8.9h-51.6V135.3C-446.2,135.3-408,135.1-390.9,135.6z M-419.7,156.8v86.1h30.7c0,0,7.7,0.2,14.8-4.9 c5.5-4,10.6-13.1,11.5-21.6c0.9-8.4,2.2-37.4-7.2-49.5c-8.1-10.4-20-10.1-22.6-10.1C-395.1,156.8-419.7,156.8-419.7,156.8"></path> <path id="path3411" class="st2" d="M-338.1,135.7h27l34.5,103.8l35.4-103.8h27.4l-44.6,129.5h-36.8"></path> <path id="path3413" class="st2" d="M-207.7,265.2h26.5V135.7h-26.5V265.2z"></path> <path id="path3417" class="st2" d="M-127,185.4l48-49.9h39.4l-63.1,60.7l68,69.1h-38l-54.4-56.7v56.5h-26.4V135.5l26.5,0.1"></path> <path id="path3421" class="st2" d="M-748,175.6h27.9c0,0,0.7-17.8-6.8-27.9c-7.5-10.1-19.9-13.6-30.5-15.2 c-10.5-1.6-44.4-4.7-62.1,8.9c-16.2,12.4-13.7,30-13.7,29.8s-1,22.8,19,31c11.5,4.7,34,6.1,34,6.1s17.8,1.6,23.2,3.8 c5.4,2.1,10.1,6.1,10.1,13.8s-2.1,13.1-6.3,16.4s-8.4,5.4-20.6,5.4c-12.2,0-20.4-4.5-23.2-7c-2.8-2.6-6.8-8.4-7-13.8 c-0.2-5.4-0.2-8.4-0.2-8.4h-29.3c0,0-1.6,16.7,7,29.1c8.7,12.4,22,15.9,28.8,17.6c6.8,1.6,16.2,2.3,23.9,2.3s24.2-0.9,37.5-9.6 c13.4-8.7,17.1-19.7,17.1-33.5s-4-20.2-10.1-25.3c-6.1-5.2-15.7-8-26.3-9.6s-15.3-1.2-25.1-2.3c-9.8-1.2-18.3-1.9-21.8-8.9 s-3.5-15.5,3.5-22c7-6.6,19.2-6.1,22.3-6.1c3,0,16.2,0.9,21.3,6.6C-750.1,162-748.5,165.3-748,175.6"></path> </g> </g> </svg> 