<?xml version="1.0" encoding="UTF-8"?> <!-- Generator: Adobe Illustrator 24.3.0, SVG Export Plug-In . SVG Version: 6.00 Build 0) --> <svg xmlns="http://www.w3.org/2000/svg" xmlns:xlink="http://www.w3.org/1999/xlink" version="1.1" id="Layer_1" x="0px" y="0px" viewBox="0 0 99 11" style="enable-background:new 0 0 99 11;" xml:space="preserve"> <style type="text/css"> .st0{clip-path:url(#SVGID_2_);fill:#6E777E;} .st1{clip-path:url(#SVGID_4_);fill:#6E777E;} .st2{clip-path:url(#SVGID_6_);fill:#6E777E;} .st3{clip-path:url(#SVGID_8_);fill:#6E777E;} .st4{clip-path:url(#SVGID_10_);fill:#6E777E;} .st5{clip-path:url(#SVGID_12_);fill:#6E777E;} .st6{clip-path:url(#SVGID_14_);fill:#6E777E;} .st7{clip-path:url(#SVGID_16_);fill:#6E777E;} .st8{clip-path:url(#SVGID_18_);fill:#6E777E;} .st9{clip-path:url(#SVGID_20_);fill:#6E777E;} .st10{clip-path:url(#SVGID_22_);fill:#6E777E;} .st11{clip-path:url(#SVGID_24_);fill:#6E777E;} .st12{clip-path:url(#SVGID_26_);fill:#6E777E;} .st13{clip-path:url(#SVGID_28_);fill:#6E777E;} .st14{clip-path:url(#SVGID_30_);fill:#6E777E;} .st15{clip-path:url(#SVGID_32_);fill:#6E777E;} </style> <g id="g936"> <g> <defs> <rect id="SVGID_1_" x="-11.8" y="-12.2" width="110.9" height="35.4"></rect> </defs> <clipPath id="SVGID_2_"> <use xlink:href="#SVGID_1_" style="overflow:visible;"></use> </clipPath> <path id="path10" class="st0" d="M61.4,1.2c-2.4,0-4.4,2-4.4,4.4c0,2.4,2,4.4,4.4,4.4s4.4-2,4.4-4.4S63.8,1.2,61.4,1.2 M61.4,9.2 c-2,0-3.6-1.6-3.6-3.6c0-2,1.6-3.6,3.6-3.6c2,0,3.6,1.6,3.6,3.6C64.9,7.6,63.3,9.2,61.4,9.2"></path> </g> <g> <defs> <rect id="SVGID_3_" x="-11.8" y="-12.2" width="110.9" height="35.4"></rect> </defs> <clipPath id="SVGID_4_"> <use xlink:href="#SVGID_3_" style="overflow:visible;"></use> </clipPath> <path id="path12" class="st1" d="M63.2,4.8c0-0.8-0.6-1.4-1.4-1.4h-1.9v4.4h0.8V6.1h0.8l0.8,1.7h0.8l-0.9-1.7 C62.8,5.9,63.2,5.4,63.2,4.8 M61.9,5.4h-1.2V4.1h1.2c0.3,0,0.6,0.3,0.6,0.7C62.5,5.1,62.2,5.4,61.9,5.4"></path> </g> <g> <defs> <rect id="SVGID_5_" x="-11.8" y="-12.2" width="110.9" height="35.4"></rect> </defs> <clipPath id="SVGID_6_"> <use xlink:href="#SVGID_5_" style="overflow:visible;"></use> </clipPath> <path id="path14" class="st2" d="M6.4,6.1C6.3,5.9,6.1,5.8,5.9,5.6C5.7,5.5,5.4,5.3,5.1,5.2L3.8,4.6C3.4,4.5,3.2,4.3,3.1,4.1 C3,3.9,2.9,3.7,2.9,3.4c0-0.1,0-0.3,0-0.4C3,2.9,3,2.8,3.1,2.7c0.1-0.1,0.2-0.2,0.3-0.2c0.1-0.1,0.3-0.1,0.5-0.1 c0.3,0,0.6,0.1,0.7,0.3C4.8,3,4.8,3.3,4.8,3.7h1.7V3.5c0-0.4-0.1-0.8-0.2-1.1C6.2,2.1,6,1.9,5.7,1.7C5.5,1.5,5.2,1.4,4.9,1.3 C4.6,1.2,4.2,1.2,3.8,1.2c-0.8,0-1.5,0.2-2,0.6C1.4,2.2,1.2,2.8,1.2,3.7c0,0.4,0,0.7,0.1,0.9c0.1,0.3,0.2,0.5,0.4,0.7 c0.2,0.2,0.4,0.4,0.7,0.5C2.7,6,3,6.2,3.4,6.3C3.7,6.4,4,6.5,4.2,6.6c0.2,0.1,0.4,0.2,0.5,0.3C4.7,7,4.8,7.1,4.9,7.3 C4.9,7.4,5,7.6,5,7.8c0,0.4-0.1,0.6-0.3,0.8C4.4,8.7,4.2,8.8,3.9,8.8c-0.2,0-0.4,0-0.6-0.1C3.2,8.7,3.1,8.6,3,8.5 C2.9,8.3,2.9,8.2,2.8,8c0-0.2,0-0.4,0-0.5V7.2H1.1v0.3c0,0.8,0.2,1.4,0.6,1.8s1.1,0.6,2.1,0.6c0.9,0,1.7-0.2,2.2-0.6 c0.5-0.4,0.8-1.1,0.8-2c0-0.3,0-0.5-0.1-0.7C6.7,6.5,6.6,6.3,6.4,6.1"></path> </g> <g> <defs> <rect id="SVGID_7_" x="-11.8" y="-12.2" width="110.9" height="35.4"></rect> </defs> <clipPath id="SVGID_8_"> <use xlink:href="#SVGID_7_" style="overflow:visible;"></use> </clipPath> <path id="path16" class="st3" d="M11.9,7.3c0,0.2,0,0.4,0,0.6c0,0.2-0.1,0.3-0.2,0.5c-0.1,0.1-0.2,0.2-0.3,0.3 c-0.2,0.1-0.3,0.1-0.5,0.1c-0.2,0-0.3,0-0.5-0.1c-0.1-0.1-0.2-0.2-0.3-0.3C10,8.2,9.9,8.1,9.9,7.9c0-0.2,0-0.4,0-0.6v-6H8.1v6 c0,0.6,0.1,1,0.2,1.4C8.5,9.1,8.7,9.4,9,9.6C9.2,9.8,9.5,9.9,9.9,10s0.7,0.1,1,0.1s0.7,0,1-0.1c0.3-0.1,0.6-0.2,0.9-0.4 C13,9.3,13.2,9,13.4,8.7c0.2-0.4,0.2-0.8,0.2-1.4v-6h-1.7L11.9,7.3z"></path> </g> <g> <defs> <rect id="SVGID_9_" x="-11.8" y="-12.2" width="110.9" height="35.4"></rect> </defs> <clipPath id="SVGID_10_"> <use xlink:href="#SVGID_9_" style="overflow:visible;"></use> </clipPath> <path id="path18" class="st4" d="M20.1,2.1c-0.2-0.2-0.4-0.4-0.7-0.6c-0.3-0.1-0.7-0.2-1.1-0.2h-3v8.6h1.7V6.5h0.9 c0.4,0,0.8-0.1,1.1-0.2s0.6-0.3,0.9-0.5c0.2-0.2,0.4-0.5,0.6-0.8c0.1-0.3,0.2-0.7,0.2-1.2c0-0.3,0-0.6-0.1-0.9 C20.4,2.7,20.3,2.4,20.1,2.1 M18.5,4.9c-0.2,0.2-0.5,0.3-0.8,0.3h-0.8V2.6h0.7c0.4,0,0.7,0.1,0.9,0.3c0.2,0.2,0.3,0.6,0.3,1 C18.9,4.4,18.7,4.7,18.5,4.9"></path> </g> <g> <defs> <rect id="SVGID_11_" x="-11.8" y="-12.2" width="110.9" height="35.4"></rect> </defs> <clipPath id="SVGID_12_"> <use xlink:href="#SVGID_11_" style="overflow:visible;"></use> </clipPath> <path id="polygon20" class="st5" d="M26.6,4.8h-2.9v-2h3.1V1.3H22v8.6h4.9V8.5h-3.2V6.2h2.9L26.6,4.8z"></path> </g> <g> <defs> <rect id="SVGID_13_" x="-11.8" y="-12.2" width="110.9" height="35.4"></rect> </defs> <clipPath id="SVGID_14_"> <use xlink:href="#SVGID_13_" style="overflow:visible;"></use> </clipPath> <path id="path22" class="st6" d="M34,9.4c0-0.2-0.1-0.6-0.1-1l0-0.6c0-0.2,0-0.4,0-0.5c0-0.5-0.2-0.8-0.4-1 c-0.2-0.2-0.5-0.4-1-0.4v0C33,5.6,33.4,5.3,33.6,5C33.9,4.6,34,4.1,34,3.5c0-0.7-0.2-1.3-0.6-1.7s-1-0.5-1.7-0.5h-3.2v8.6h1.7V6.3 h0.9c0.4,0,0.6,0.1,0.8,0.3c0.2,0.2,0.2,0.5,0.3,0.8l0,1.6c0,0.2,0,0.3,0,0.5c0,0.2,0.1,0.3,0.2,0.4h1.9V9.9 C34.2,9.8,34,9.6,34,9.4 M31.9,4.8c-0.2,0.2-0.5,0.3-1,0.3h-0.7V2.6H31c0.8,0,1.2,0.4,1.2,1.2C32.2,4.3,32.1,4.6,31.9,4.8"></path> </g> <g> <defs> <rect id="SVGID_15_" x="-11.8" y="-12.2" width="110.9" height="35.4"></rect> </defs> <clipPath id="SVGID_16_"> <use xlink:href="#SVGID_15_" style="overflow:visible;"></use> </clipPath> <path id="path24" class="st7" d="M40.8,2.5c-0.2-0.4-0.5-0.7-0.9-0.8c-0.4-0.2-0.9-0.3-1.5-0.3h-2.8v8.6h2.7 c0.6,0,1.1-0.1,1.4-0.3c0.4-0.2,0.7-0.4,0.9-0.8C41,8.5,41.1,8,41.2,7.5c0.1-0.6,0.1-1.2,0.1-2c0-0.6,0-1.2-0.1-1.7 C41.2,3.3,41,2.8,40.8,2.5 M39.6,7c0,0.4-0.1,0.7-0.2,1c-0.1,0.2-0.3,0.4-0.4,0.5c-0.2,0.1-0.4,0.2-0.7,0.2h-0.8v-6h0.7 c0.3,0,0.6,0.1,0.8,0.2c0.2,0.1,0.3,0.3,0.4,0.6c0.1,0.2,0.2,0.6,0.2,0.9s0,0.8,0,1.3C39.6,6.1,39.6,6.6,39.6,7"></path> </g> <g> <defs> <rect id="SVGID_17_" x="-11.8" y="-12.2" width="110.9" height="35.4"></rect> </defs> <clipPath id="SVGID_18_"> <use xlink:href="#SVGID_17_" style="overflow:visible;"></use> </clipPath> <path id="path26" class="st8" d="M48.3,9.4c0-0.2-0.1-0.6-0.1-1l0-0.6c0-0.2,0-0.3,0-0.5c0-0.5-0.2-0.8-0.4-1 c-0.2-0.2-0.5-0.4-1-0.4v0c0.5-0.1,0.8-0.3,1.1-0.7c0.2-0.4,0.3-0.8,0.3-1.4c0-0.7-0.2-1.3-0.6-1.7s-1-0.5-1.7-0.5h-3.2v8.6h1.7 V6.3h0.9c0.4,0,0.6,0.1,0.8,0.3c0.2,0.2,0.2,0.5,0.3,0.8l0,1.6c0,0.2,0,0.3,0,0.5c0,0.2,0.1,0.3,0.2,0.4h1.9V9.9 C48.5,9.8,48.4,9.6,48.3,9.4 M46.2,4.8c-0.2,0.2-0.5,0.3-1,0.3h-0.7V2.6h0.8c0.8,0,1.2,0.4,1.2,1.2C46.6,4.3,46.5,4.6,46.2,4.8"></path> </g> <g> <defs> <rect id="SVGID_19_" x="-11.8" y="-12.2" width="110.9" height="35.4"></rect> </defs> <clipPath id="SVGID_20_"> <use xlink:href="#SVGID_19_" style="overflow:visible;"></use> </clipPath> <path id="polygon28" class="st9" d="M51.2,1.3h-1.9l2.2,5.2v3.4h1.7V6.5l2.2-5.2h-1.9l-1.2,3.3h0L51.2,1.3z"></path> </g> <g> <defs> <rect id="SVGID_21_" x="-11.8" y="-12.2" width="110.9" height="35.4"></rect> </defs> <clipPath id="SVGID_22_"> <use xlink:href="#SVGID_21_" style="overflow:visible;"></use> </clipPath> <path id="rect30" class="st10" d="M88.6,1.8h2.7v0.8h-2.7V1.8z"></path> </g> <g> <defs> <rect id="SVGID_23_" x="-11.8" y="-12.2" width="110.9" height="35.4"></rect> </defs> <clipPath id="SVGID_24_"> <use xlink:href="#SVGID_23_" style="overflow:visible;"></use> </clipPath> <path id="path32" class="st11" d="M96.4,8.4v0.2c0,0.2-0.1,0.3-0.3,0.3h-0.9c-0.2,0-0.3-0.1-0.3-0.3V8.2C95.5,8.1,96,8.1,96.5,8 l0,0.3l0.5-0.1c-0.1-0.5-0.2-0.9-0.4-1.4l-0.5,0.1c0.1,0.2,0.1,0.4,0.2,0.6c-0.2,0-0.4,0-0.6,0.1c0.1-0.4,0.2-0.7,0.3-1.1 l-0.6-0.1c-0.1,0.5-0.2,0.9-0.3,1.2c-0.1,0-0.2,0-0.3,0V6.1h1.7V1.8h-2.1l0.3-0.7L93.8,1l-0.3,0.8h-1.6v4.3h0.9v0.5 c0,0.7-0.2,1.3-0.7,1.8c-0.2-0.8-0.5-1.6-0.8-2.4l-0.7,0.3c0.2,0.4,0.3,0.8,0.4,1.2c-0.5,0.1-0.9,0.2-1.4,0.3 c0.3-1,0.5-1.9,0.7-2.9h1.3V4h-3.1v0.9h1.1c-0.2,1-0.4,2-0.7,3L88.4,8l0.2,0.9c0.9-0.2,1.8-0.4,2.7-0.6c0.1,0.2,0.1,0.5,0.2,0.7 l-0.5,0.2l0.6,0.7c1.3-0.7,2-1.8,2-3.4V6.1h0.5v2.9c0,0.6,0.3,0.8,0.8,0.8h1.5c0.5,0,0.8-0.3,0.8-0.8V8.6L96.4,8.4z M92.7,5.3v-1 h1.1v1H92.7z M92.7,3.6v-1h1.1v1L92.7,3.6z M95.8,2.6v1h-1.1v-1L95.8,2.6z M95.8,4.3v1h-1.1v-1H95.8z"></path> </g> <g> <defs> <rect id="SVGID_25_" x="-11.8" y="-12.2" width="110.9" height="35.4"></rect> </defs> <clipPath id="SVGID_26_"> <use xlink:href="#SVGID_25_" style="overflow:visible;"></use> </clipPath> <path id="path34" class="st12" d="M69.1,9.9h0.9V9.6h4.8v0.4h0.9V5.1h-6.5V9.9z M74.7,5.8v0.6h-4.8V5.8H74.7z M74.7,7v0.6h-4.8V7 H74.7z M74.7,8.3v0.6h-4.8V8.3H74.7z"></path> </g> <g> <defs> <rect id="SVGID_27_" x="-11.8" y="-12.2" width="110.9" height="35.4"></rect> </defs> <clipPath id="SVGID_28_"> <use xlink:href="#SVGID_27_" style="overflow:visible;"></use> </clipPath> <path id="path36" class="st13" d="M76.5,4.5V1.3h-8.3v3.2H76.5z M75.6,2v0.6h-6.5V2H75.6z M75.6,3.2v0.6h-6.5V3.2H75.6z"></path> </g> <g> <defs> <rect id="SVGID_29_" x="-11.8" y="-12.2" width="110.9" height="35.4"></rect> </defs> <clipPath id="SVGID_30_"> <use xlink:href="#SVGID_29_" style="overflow:visible;"></use> </clipPath> <path id="path38" class="st14" d="M84.8,7.4h1.7V4.9h-2V4.1h1V3.6c0.3,0.2,0.6,0.4,0.9,0.7l0.6-0.8c-1.3-0.8-2.2-1.6-2.7-2.4h-0.8 c-0.5,0.8-1.4,1.6-2.6,2.4l0.6,0.7c0.3-0.2,0.6-0.4,0.9-0.7v0.5h1.1v0.8h-2.1v2.5h1.7c-0.4,0.7-1.3,1.3-2.5,1.8l0.6,0.8 c1.3-0.5,2.2-1.3,2.7-2.2c0.3,0.5,0.7,0.9,1,1.2c0.4,0.4,0.9,0.7,1.5,1l0.6-0.8c-0.6-0.2-1.2-0.6-1.6-0.9 C85.4,8.1,85.1,7.8,84.8,7.4 M83.7,5.9c0,0.2,0,0.5-0.1,0.7h-1.2v-1h1.2L83.7,5.9z M82.8,3.4c0.5-0.4,0.9-0.9,1.3-1.4 c0.3,0.5,0.7,1,1.3,1.4H82.8z M84.5,5.9V5.6h1.2v1h-1.2C84.5,6.4,84.5,6.2,84.5,5.9"></path> </g> <g> <defs> <rect id="SVGID_31_" x="-11.8" y="-12.2" width="110.9" height="35.4"></rect> </defs> <clipPath id="SVGID_32_"> <use xlink:href="#SVGID_31_" style="overflow:visible;"></use> </clipPath> <path id="path40" class="st15" d="M81,6.7c0-0.3-0.1-0.6-0.2-0.9c-0.1-0.3-0.3-0.7-0.6-1.2L81,2.2V1.3h-2.8v8.6H79V2.1h1.2 l-0.7,2.5c0.3,0.6,0.5,1,0.6,1.3c0.1,0.3,0.1,0.6,0.1,0.8c0,0.3,0,0.4-0.1,0.6c-0.1,0.1-0.3,0.2-0.7,0.2L80,8.2 c0.2,0,0.5-0.1,0.7-0.3C80.9,7.7,81,7.4,81,6.7"></path> </g> </g> </svg> 