<?xml version="1.0" encoding="UTF-8"?> <!-- Generator: Adobe Illustrator 24.0.1, SVG Export Plug-In . SVG Version: 6.00 Build 0) --> <svg xmlns:cc="http://creativecommons.org/ns#" xmlns:dc="http://purl.org/dc/elements/1.1/" xmlns:inkscape="http://www.inkscape.org/namespaces/inkscape" xmlns:rdf="http://www.w3.org/1999/02/22-rdf-syntax-ns#" xmlns:sodipodi="http://sodipodi.sourceforge.net/DTD/sodipodi-0.dtd" xmlns:svg="http://www.w3.org/2000/svg" xmlns="http://www.w3.org/2000/svg" xmlns:xlink="http://www.w3.org/1999/xlink" id="svg3581" x="0px" y="0px" viewBox="0 0 500 202.3" style="enable-background:new 0 0 500 202.3;" xml:space="preserve"> <style type="text/css"> .st0{fill:#6E777E;} .st1{fill:#9DA5AA;} </style> <g id="layer1" transform="translate(-301.71429,-676.52292)" inkscape:groupmode="layer" inkscape:label="Ebene 1"> <path id="path91" inkscape:connector-curvature="0" class="st0" d="M306,801v17.5h14.3v51.2c0,3.4-1.8,6.9-2.3,7.9l-0.7,1.2h1.3 h25.3l-0.7-1.2c-0.7-1.2-2.3-4.5-2.3-7.9v-51.2h13.6V801h-0.8H306L306,801z M382,810.8c-7.4,0-14.4,2.8-19.7,7.9 c-5.6,5.4-8.5,12.8-8.5,20.8c0,7.9,3,15.3,8.5,20.8c5.2,5.1,12.3,8.1,19.7,8.1c16.2,0,28.3-12.4,28.3-28.8c0-8-3.2-15.5-8.8-21 C396.2,813.6,389.3,810.8,382,810.8z M662.2,810.8c-7.4,0-14.4,2.8-19.7,7.9c-5.6,5.4-8.5,12.8-8.5,20.8c0,7.9,2.9,15.3,8.5,20.8 c5.2,5.1,12.3,8.1,19.7,8.1c16.2,0,28.2-12.4,28.2-28.8c0-8-3.1-15.5-8.7-21C676.4,813.6,669.5,810.8,662.2,810.8z M417.2,812.1 l0.7,1.2c0.5,0.9,2.1,4.1,2.1,7.9v37.9c0,3.8-1.8,7.5-2.1,7.9l-0.5,1.2H450c13.3,0,19.5-9.2,19.5-18.9c0-5.8-2.3-11.4-6.5-14.2 c1.3-1.7,2.4-4,2.6-6.1c0-0.6,0.2-1.1,0.2-1.6c0-4.4-1.7-8.4-4.6-11.1c-3-2.8-6.9-4.2-13.1-4.2L417.2,812.1L417.2,812.1z M476.6,812.1l0.8,1.3c0.5,1.1,2,4,2,7.8v37.9c0,3.8-1.8,7.3-2.1,7.9l-0.5,1.2h1.3H519v-21.8l-1.3,0.8c-1.2,0.6-4.1,2.2-7.7,2.2 h-12.3v-28.1c0-3.7,1.6-7,2.1-7.9l0.7-1.2h-1.3h-21.1h-1.5V812.1z M526.2,812.1l0.5,1.2c0.5,0.9,2.1,4.2,2.1,7.9v37.9 c0,3.8-1.6,7-2.1,7.9l-0.5,1.2l1.3,0.1h42.1V847l-1.2,0.7c-1,0.5-4.2,2.2-7.8,2.2H547v-5.6h14.9v-13H547V826h12 c3.9,0,7.2,1.4,7.9,1.7l1.2,0.5v-16.1L526.2,812.1L526.2,812.1z M578.5,812.1l0.7,1.2c0.3,0.9,2,4.2,2,7.9v37.9 c0,3.7-1.5,6.7-2,7.9l-0.7,1.2l1.3,0.1h21.9l-0.7-1.2c-0.5-0.9-2-4.1-2-7.8v-13.6c2.6,0.3,7.4,2.7,11.3,14.6 c0.2,0.7,0.3,1.5,0.3,2.6s-0.1,2.5-0.6,4.1l-0.5,1.2h1.2h26.5l-1.1-1.6c-2.5-3.6-4.6-6.8-5.8-9.5c-0.8-2.3-2-4.3-3-6.2l-0.2-0.2 c-1.5-2.9-4.9-8.7-7.8-11.3c3.3-2.4,5.8-6.4,5.8-11.4c0-4.5-1.7-9-4.8-11.6c-3.3-2.9-6.9-4.2-13.3-4.2L578.5,812.1L578.5,812.1z M697.7,812.1l0.7,1.2c0.5,0.9,2.1,4.1,2.1,7.9v37.9c0,3.8-1.8,7.2-2.1,7.9l-0.5,1.2h1.2h21.3l-0.7-1.2c-0.5-0.9-2-4.1-2-7.9V846 l12.8,22.2h17.4v-47c0-3.7,1.5-7,2-7.9l0.7-1.1l-1.3-0.1H728l0.7,1.2c0.5,0.9,2.2,4.1,2.2,7.9v12.2l-12.1-21.3L697.7,812.1 L697.7,812.1z M758.3,812.1l0.7,1.2c0.5,0.9,2,4.2,2,7.9v37.9c0,3.8-1.5,7-2,7.9l-0.7,1.2l1.3,0.1h42.1V847l-1.2,0.7 c-1,0.5-4.2,2.2-7.8,2.2h-13.6v-5.6H794v-13h-14.9V826H791c3.9,0,7.4,1.4,8,1.7l1,0.5l0.2-1.2v-14.9H758.3z M597.8,825.5h8.2 c0.6,0,1.3,0.2,1.6,0.6c0.5,0.5,0.8,1.4,0.8,2.5c0,2-1,3.2-2.4,3.2h-8.2L597.8,825.5L597.8,825.5z M436.7,825.6h10 c0.8,0,1.3,0.2,1.8,0.6c0.7,0.7,0.8,1.8,0.8,2.6c0,2-1,3.2-2.6,3.2h-10L436.7,825.6L436.7,825.6z M382,828.6c2.6,0,4.9,0.9,6.5,2.6 c2.1,1.9,3.1,4.8,3.1,8s-1,6-3.1,8c-1.6,1.7-3.9,2.6-6.5,2.6s-5.1-1-6.9-2.8c-1.8-1.9-2.8-4.7-2.8-7.9 C372.3,833,376.2,828.6,382,828.6z M662.2,828.6c2.4,0,4.9,0.9,6.5,2.6c2,1.9,3.1,4.8,3.1,8s-1.2,6-3.1,8c-1.6,1.7-3.9,2.6-6.5,2.6 s-5.1-1-6.9-2.8c-1.8-1.9-3-4.7-3-7.9C652.3,833,656.4,828.6,662.2,828.6z M436.7,844c0.7,0,11.9,0,11.9,0c1.3,0,2.2,0.6,2.3,0.8 c0.7,0.6,1,1.8,1,3.2c0,2.6-1.3,4.2-3.3,4.2h-11.9V844z"></path> <path id="path109" inkscape:connector-curvature="0" class="st1" d="M301.7,797.9v17.4h14.2v51.2c0,3.4-1.8,7-2.3,7.9l-0.7,1.2 l1.3,0.1h25.2l-0.7-1.3c-0.7-1.3-2.3-4.6-2.3-7.9v-51.2H350v-17.4h-0.8H301.7z M378.2,808.2c-7.4,0-14.4,2.8-19.5,8 c-5.6,5.4-8.7,12.8-8.7,20.8s3.1,15.4,8.5,20.8c5.2,5.2,12.3,8,19.7,8c15.9,0,28.2-12.6,28.2-28.8c0-8-2.9-15.4-8.5-20.9 C392.6,811.1,385.5,808.2,378.2,808.2z M658.4,808.2c-7.4,0-14.4,2.8-19.6,8c-5.4,5.4-8.5,12.8-8.5,20.8s3.1,15.4,8.5,20.8 c5.2,5.2,12.3,8,19.6,8c15.9,0,28.2-12.6,28.2-28.8c0-8-3.1-15.4-8.5-20.9C672.8,811.1,665.8,808.2,658.4,808.2z M413.1,809 l0.5,1.3c0.5,0.9,2.1,4.1,2.1,7.8v38c0,3.8-1.8,7.5-2.1,7.9l-0.5,1.2h33.1c11.5,0,19.5-7.8,19.5-18.9c0-5.8-2.6-10.9-6.6-13.3 c1.5-1.8,2.5-4.2,2.6-6.9c0.2-0.6,0.2-1.1,0.2-1.7c0-4.4-1.6-8.4-4.4-11.1c-3.1-2.8-7.5-4.2-13.6-4.2L413.1,809L413.1,809z M472.4,809l0.8,1.3c0.5,1.1,2,4,2,7.8v38c0,3.7-1.7,7.2-2.2,7.8l-0.5,1.2h1.3h40.9v-21.8l-1.3,0.7c-1.2,0.7-4.1,2.2-7.7,2.2h-12.3 V818c0-3.6,1.6-6.9,2.1-7.8l0.7-1.2h-1.3h-21.1H472.4z M522,809l0.5,1.2c0.7,0.9,2.1,4.1,2.1,7.8v38c0,3.7-1.4,6.9-1.9,7.8L522,865 l1.3,0.1h42.1v-21.3l-1.2,0.7c-1,0.5-4.3,2.2-7.9,2.2h-13.6v-4.9h14.9v-13.7h-14.9v-4.5h12c3.9,0,7.4,1.4,7.9,1.7l1.1,0.5V809H522z M574.2,809l0.7,1.2c0.5,0.9,1.9,4.1,1.9,7.8v38c0,3.7-1.5,6.7-1.9,7.8l-0.7,1.2l1.3,0.1h22l-0.7-1.2c-0.5-0.9-2-4.1-2-7.8v-13.6 c2.6,0.3,7.4,2.7,11.3,14.6c0.2,0.6,0.3,1.5,0.3,2.6s-0.2,2.5-0.7,4.1l-0.5,1.2h1.2h25.7l-1-1.6c-2.6-3.7-4.4-6.9-5.6-9.5 c-1-2.3-2-4.3-2.9-6.2l-0.2-0.2c-1.5-2.9-4.4-7.9-7.6-10.5c2.8-1.6,4.9-4.6,5.9-8.1c0.3-1.4,0.5-2.8,0.5-4.2 c0-4.5-1.8-8.9-4.8-11.6c-3.3-2.9-7.4-4.2-13.8-4.2L574.2,809L574.2,809z M693.5,809l0.7,1.3c0.5,0.9,2.1,4,2.1,7.8v38 c0,3.7-1.8,7.2-2.1,7.9l-0.5,1.2h1.3h21.3l-0.8-1.2c-0.5-0.9-2-4.1-2-7.8v-13.1l12.8,22.2h17.4v-47c0-3.7,1.5-6.9,2-7.8l0.6-1.2 l-1.3-0.1h-21.3l0.7,1.3c0.5,0.9,2.1,4.1,2.1,7.8v13.4L713.6,809H693.5z M754.1,809l0.7,1.2c0.5,0.9,2,4.1,2,7.8v38 c0,3.7-1.5,6.9-2,7.8l-0.7,1.2l1.3,0.1h42.3v-21.3l-1.3,0.7c-0.8,0.5-4.1,2.2-7.9,2.2h-13.6v-4.9h14.9v-13.7h-14.9v-4.5h12 c3.9,0,7.4,1.4,8,1.7l1.2,0.5V809H754.1z M432.4,822.7c0.8,0,10,0,10,0c0.8,0,1.5,0.2,1.8,0.6c0.7,0.7,0.8,1.8,0.8,2.6l0,0 c0,2-1,3.1-2.6,3.1h-10L432.4,822.7L432.4,822.7z M593.7,822.8c0.6,0,8,0,8,0c0.8,0,1.3,0.2,1.8,0.6c0.5,0.5,0.8,1.4,0.8,2.5 c0,2-1,3.2-2.6,3.2h-8V822.8z M378.2,826.1c2.6,0,4.9,0.9,6.7,2.6c2,1.9,3.1,4.8,3.1,8s-1.2,6-3.1,8c-1.8,1.7-4.1,2.6-6.7,2.6 s-4.9-0.9-6.7-2.7c-2-1.9-2.9-4.7-2.9-7.9C368.5,830.5,372.4,826.1,378.2,826.1z M658.4,826.1c2.6,0,4.9,0.9,6.7,2.6 c2,1.9,3.1,4.8,3.1,8s-1.2,6-3.1,8c-1.8,1.7-4.1,2.6-6.7,2.6s-4.9-0.9-6.7-2.7c-2-1.9-2.9-4.7-2.9-7.9 C648.7,830.5,652.7,826.1,658.4,826.1z M432.4,841.1h11.9c1.5,0,2.2,0.6,2.3,0.8c0.6,0.6,1,1.8,1,3.2c0,2.6-1.3,4.2-3.3,4.2h-11.9 V841.1z"></path> <path id="path127" inkscape:connector-curvature="0" class="st0" d="M304.8,801v11.3h14.3v54.3c0,2.4-0.8,4.7-1.5,6.1h17.5 c-0.8-1.3-1.5-3.6-1.5-6.1v-54.3H347V801H304.8z M378.2,811.3c-6.9,0-13,2.7-17.5,7.2c-4.8,4.7-7.5,11.3-7.5,18.5 s2.8,13.7,7.5,18.4c4.4,4.5,10.7,7.3,17.5,7.3c14.2,0,25.1-11.4,25.1-25.7c0-7.4-2.9-14.1-7.7-18.8 C391,813.9,384.9,811.3,378.2,811.3z M658.4,811.3c-6.9,0-12.9,2.7-17.5,7.2c-4.7,4.7-7.5,11.3-7.5,18.5s2.8,13.7,7.5,18.4 c4.4,4.5,10.7,7.3,17.5,7.3c14.3,0,25.1-11.4,25.1-25.7c0-7.4-3-14.1-7.7-18.8C671.2,813.9,665.1,811.3,658.4,811.3z M698,812.1 c0.7,1.1,1.3,3,1.3,6v38c0,2.9-0.7,4.9-1.3,6h13.8c-0.5-1.1-1.3-3.1-1.3-6v-23.3l17.3,29.3h12.6v-44c0-2.9,0.7-4.9,1.3-6H728 c0.5,1.1,1.3,3.1,1.3,6v23.8l-17.5-29.7L698,812.1L698,812.1z M417.5,812.1c0.7,1.1,1.3,3,1.3,5.9v38c0,2.8-0.7,4.8-1.3,6h28.7 c9.8,0,16.4-6.6,16.4-15.8c0-6.8-3.7-11.2-8-12.5c2.4-1.8,3.9-4.9,4.3-8.2c0.3-3.7-1-7.6-3.5-10c-2.3-2.1-5.9-3.3-11.4-3.3h-26.5 V812.1z M476.9,812.1c0.7,1.1,1.3,2.9,1.3,5.9v38c0,2.9-0.7,4.8-1.3,6h34.7v-14.1c-1.1,0.6-2.9,1.3-5.9,1.3h-15.4V818 c0-2.9,0.8-4.8,1.3-5.9H476.9z M526.4,812.1c0.7,1.1,1.3,3,1.3,5.9v38c0,2.9-0.6,4.8-1.3,6h35.9v-14c-1,0.6-2.9,1.3-5.9,1.3h-16.7 v-10.4h15.1v-8.1h-15.1V821h15.1c2.9,0,4.9,0.5,5.9,0.9V812L526.4,812.1L526.4,812.1z M578.7,812.1c0.7,1.1,1.3,3,1.3,5.9v38 c0,2.9-0.7,4.8-1.3,6H593c-0.5-1.1-1.2-3-1.2-5.9v-16.7h1.5c6.1,0,11.7,3.7,15.9,16.8c0.7,2.4,0.6,4.3,0.3,5.8h16.9 c-0.8-1.5-2.1-3.2-3.6-6.8c-1-2.6-2.1-4.8-3.3-6.8c-3.4-6.5-6.9-10.1-9.5-11.9c4.4-1.2,7-4.6,7.8-8.3c1.2-4.7-0.1-10-3.3-12.7 c-2.6-2.4-6.1-3.4-11.7-3.4L578.7,812.1L578.7,812.1z M758.7,812.1c0.5,1.1,1.1,3,1.1,5.9v38c0,2.9-0.6,4.8-1.1,6h35.9v-14 c-1.2,0.6-3.1,1.3-6.1,1.3H772v-10.4h14.9v-8.1H772V821h14.9c2.9,0,4.9,0.5,6.1,0.9V812L758.7,812.1L758.7,812.1z M430,820.3h12.4 c3.6,0,5.2,2.7,5.2,5.7s-1.6,5.6-5.2,5.6H430V820.3z M591.3,820.4h10.3c3.6,0,5.2,2.5,5.2,5.6s-1.6,5.6-5.2,5.6h-10.3V820.4z M378.2,823c3.4,0,6.4,1.2,8.7,3.3c2.6,2.5,4.3,6.1,4.3,10.4c0,4.3-1.6,7.8-4.1,10.3c-2.3,2.2-5.4,3.4-8.8,3.4 c-3.8,0-7-1.5-9.3-4.1c-2.3-2.4-3.5-5.7-3.5-9.6C365.4,828.6,371,823,378.2,823z M658.4,823c3.4,0,6.4,1.2,8.7,3.3 c2.6,2.5,4.3,6.1,4.3,10.4c0,4.3-1.6,7.8-4.1,10.3c-2.3,2.2-5.4,3.4-8.8,3.4c-3.8,0-7-1.5-9.5-4.1c-2.1-2.4-3.3-5.7-3.3-9.6 C645.7,828.6,651.2,823,658.4,823z M430,838.7h14.4c1.8,0,3.1,0.6,4.1,1.6c1.2,1.2,1.8,3,1.8,4.9c0,3.5-2,6.7-5.9,6.7H430V838.7z"></path> <path id="path67" inkscape:connector-curvature="0" class="st0" d="M547.2,676.5c0,1,0.7,1.9,1.2,2.6c0.2,0.3,0.3,0.6,0.5,0.9 c0.8,1.1,1.8,2,2.9,2.7c0.5,0.2,1,0.4,1.5,0.6c0.2,0.1,0.8,0.2,1,0.4c0.1,0.1,0.1,0.2,0.2,0.3c0.1,0.3,0.2,0.8,0.3,1.1 c0,0.1,0.1,0.2,0.2,0.3c0.2,0.3,0.4,0.5,0.5,0.8c0.3,0.6,0.5,1.2,0.8,1.9c0.2,0.3,0.3,0.6,0.5,0.9c0,0.2,0.2,0.5,0.2,0.8v0.8 c0.2,0.2,0.7,0.3,0.8,0.4c0.3,0.2,0.7,0.4,0.8,0.6c0.2,0.2,0.3,0.8,0.4,1.2c0,0.1,0.1,0.3,0.1,0.4c0,0.4,0.2,0.8,0.3,1.3 c0,0.4,0.2,0.9,0.2,1.3c0.2,0.9,0.5,1.8,0.5,2.8c0,0.1,0,0.5,0.1,0.9c0.1,0.2,0.1,0.4,0.2,0.6c0.1,0.2,0.2,0.2,0.3,0.3 c1,0,4.6,0,5.1,0.1c0.2,0,0.7-0.1,0.7,0.6c0,1.4-0.2,2.1-0.3,2.6c-0.5,1.5-1.8,1.4-2.1,1.5c-0.3,0-0.8,0.1-1,0.2 c0,0.1-0.2,0.4-0.2,0.5c0,0,0.1,0,0.2,0.1c0.1,0,0.2,0.1,0.2,0.1c0.2,0.2,1.1,0.2,1.7,0.4c0.1,0,0.2,0.1,0.3,0.1 c0.2,0.1,0.3,0.2,0.3,0.4c-0.3,0.5-1.1,0.7-1.6,0.8c-0.2,0-0.3,0.1-0.3,0.2c-0.3,0.2-0.3,0.5-0.5,0.8c-0.3,0.4-0.7,0.8-0.8,1.3 c-0.3,0.3-0.8,0.6-1.2,1c0,0.2,0,0.4-0.2,0.6c-0.2,0.6-0.2,1.2-0.3,1.7c0,0.2,0,0.3,0,0.4c0,0.2,0,0.3-0.1,0.5 c0,0.2-0.2,0.4-0.2,0.7s-0.2,0.8-0.2,1.1c0,0.2,0.5,0.5,0.7,0.7c0.7,0.6,1.3,1.1,2,1.8c0.2,0.2,0.3,0.4,0.4,0.7 c0.1,0.1,0.2,0.2,0.2,0.3s0.1,0.2,0.2,0.4c0.2,0.7,0.2,1.5,0.2,2.1v2.8c0.2,0,0.5,0.1,0.8,0.2c0.2,0.1,0.4,0.1,0.6,0.2 s0.5,0.2,0.7,0.2c0.8,0.4,1.6,0.7,2.5,1c0.5,0.1,1,0.2,1.3,0.3c0.2,0,0.4,0,0.6,0s0.4,0,0.5,0.1c0.8,0.2,1.5,0.5,1.9,1.1 c0.8,0.8,0.8,1.1,1,1.5c0.6,0.8,1.3,2,0,2.6c0,0-0.2,0-0.2,0.1c-0.7,0-1.3,0-1.8-0.2c-0.5-0.1-0.8-0.2-1.3-0.3 c-0.2,0-0.5-0.2-0.8-0.2c-0.2,0-0.2,0.2-0.3,0.3c-0.2,0.1-1.6,1.4-2,1.5c-0.2,0.1-1.3,0.9-1.5,1.1c-0.5,0.2-1.2,0.5-1.2,0.5 c-0.1,0-0.2,0.1-0.4,0.1s-0.3,0-0.4,0c-0.3,0-0.7,0-1-0.1s-0.7-0.2-1-0.2c-0.5-0.1-0.8-0.3-1.3-0.4c-0.2,0-0.5-0.1-0.5,0 c-0.2,0.2,0.3,0.9,0.3,1.2c0,0.1,0,0.3,0.2,0.5c0,0.2,0,0.4,0.1,0.7c0,0.1,0,0.2,0,0.3s0,0.2-0.1,0.3v0.6c-0.1,0.4-0.2,0.9-0.3,1.3 s-0.3,0.9-0.5,1.3c-0.3,0.8-0.7,1.6-1.2,2.4c-0.3,0.7-0.7,1.4-1.2,2.1c-0.2,0.4-0.6,0.9-0.9,1.3s-0.7,0.8-1,1.2 c-0.7,0.8-1.5,1.5-2.3,2c-0.2,0.1-0.3,0.2-0.7,0.3c-0.3,0.3-0.7,0.5-1.2,0.7c-0.8,0.5-1.6,0.7-2.3,1.5c-0.1,0.1-0.2,0.1-0.2,0.2 s-0.1,0.1-0.2,0.2c-0.1,0.1-0.1,0.3-0.1,0.4h0.2v-0.1c0,0,0.1,0,0.2,0c0.1-0.1,0.2-0.1,0.3-0.2s0.2-0.1,0.3-0.2 c0.2-0.1,0.5-0.1,0.7-0.2c0.2-0.1,0.4-0.2,0.6-0.3s0.5-0.2,0.7-0.2v0.1c-0.2,0-0.2,0.1-0.2,0.2c-0.2,0.3-0.3,0.6-0.5,0.9 c-0.2,0.5-0.5,1-0.7,1.5c-0.7,1.3-1.1,2.5-1.9,3.7c-0.1,0.2-0.2,0.3-0.4,0.5c-0.7,0.7-1.3,1.5-2,2.1c-0.1,0.1-0.2,0.2-0.3,0.3 s-0.2,0.2-0.4,0.3c-1.2,1.1-2.3,2.1-3.4,3.1c-0.3,0.3-0.8,0.5-1.2,0.8c-0.3,0.2-0.5,0.4-0.8,0.6c-0.3,0.2-0.5,0.3-0.8,0.5 s-0.5,0.5-0.8,0.7c-0.3,0.3-0.7,0.5-1,0.8c-0.1,0.2-0.2,0.4-0.3,0.6c-0.3,0.6-0.5,1.4-0.5,2.1c0,0.8,0.2,1.8,0.5,2.5 c0.4,0.9,1,1.7,1.5,2.6c0.2,0.3,0.3,0.6,0.5,0.9c0.2,0.5,0.2,1.2,0.2,1.8c0.3,0,0.6,0,0.9,0s0.6,0,0.9,0c0.6,0,1.3,0.1,1.9,0.2 c0.5,0,1,0.1,1.5,0.3c0.3,0.1,0.6,0.2,0.9,0.3s0.6,0.2,0.9,0.4c0.5,0.2,1,0.5,1.5,0.5c0.1,0,0.2,0,0.3-0.1s0.2-0.1,0.3-0.1 c0.2-0.1,0.4-0.2,0.6-0.3c0.3-0.2,0.7-0.3,1.1-0.5s0.8-0.2,1.2-0.4c0.5-0.2,1.1-0.5,1.8-0.5c0.2,0,0.3,0,0.5,0c0.7,0,1.1,0,1.6,0.1 c1.2,0.2,2.3,0.3,3.3,0.4c0.5,0,1,0,1.5,0s1-0.1,1.5-0.1c0.3,0,0.6-0.1,1.1-0.1c0.8,0.1,1.8,0.2,2.8,0.2c1.5,0,2.8-0.2,4.3-0.2 c0.2,0,0.9,0.1,1.2,0c0.1,0,0.2,0,0.3-0.1c0,0,0,0,0.2,0c0-0.2-0.2-0.9-0.2-1.2c-0.2-0.5-0.3-1.1-0.3-1.7c-0.3-1-0.6-2-1-2.9 c-0.2-0.8-0.7-1.5-0.8-2.4c0.5,0,0.8,0.2,1.3,0.3c0.3,0.1,0.8,0.3,1.2,0.4c0,0.1,0.2,0.5,0.2,0.8c0.2,0.3,0.3,0.6,0.4,0.8 s0.2,0.5,0.3,0.8c0,0,0.2,0,0.3,0.1c0.3,0.1,0.6,0.2,1,0.3c0.6,0.2,1.3,0.4,1.8,0.9c0.5,0.4,0.7,1,0.8,1.5c0.2,0.4,0.2,0.7,0.3,1 c0.2,0.2,0.6,1.2,0.8,1.3c0,0,0.6,0.2,1,0.2c1,0.1,1.8,0.4,2.8,0.4s2,0.1,3.1,0.2c1,0,1.8,0.2,2.8,0.2c0.5,0,0.8,0,1.1,0 c0.4,0,0.8,0,1.3,0c0.4,0,0.8-0.1,1.2-0.1c0.3,0,0.8-0.1,1.3-0.3c0-0.1,0-0.2-0.1-0.3c-0.1-0.2-0.3-0.4-0.3-0.7 c-0.3-0.4-0.5-0.7-0.7-1.1c-0.6-1.3-1.1-2.7-1.9-3.9c0-0.2-0.2-0.3-0.2-0.5c-0.3-0.4-1-1.6-1-1.9c0.2,0,0.5-0.2,0.8-0.2 c0.2,0,0.3,0.4,0.5,0.5c0.3,0.1,0.5-0.1,0.7,0c0.7,0.1,1.1,0.5,1.3,1c0.1,0,0.3,0.1,0.5,0.2c0.6,0.3,1.3,0.9,1.5,0.9 s0.7-0.3,0.7-0.4c0-0.1-0.2-0.6-0.3-0.8c-0.2-0.7-0.5-1.4-0.8-2.1c-0.3-0.8-0.3-1.7-0.8-2.4c0,0-0.1-0.1-0.2-0.1 c-0.1,0-0.1-0.1-0.2-0.1c-0.1-0.1-0.2-0.1-0.3-0.1c-0.2-0.2-0.3-0.4-0.5-0.6c-0.2-0.3-0.2-0.5-0.3-0.7c-0.5-0.8-0.8-1.7-1.2-2.5 c0-0.2-0.2-0.4-0.2-0.7c0-0.5,0.2-1,0.3-1.5c0.2-0.8,0.3-1.3,0.3-1.6c-0.2-0.2-0.5-0.3-0.7-0.5c-0.5-0.6-1-1.4-1.6-2 c-0.3-0.2-0.8-0.6-1-0.8v-0.6c0-0.5,0.2-1.1,0.2-1.7v-2.8v-0.9c0-0.1,0.5-0.3,0.7-0.5c0.2-0.4,0.2-1,0.2-1.4v-1h0.2 c0,0.1,0.3,0.4,0.3,0.6c0.2,0.4,0.3,1,0.5,1.4c0.3,0.8,0.7,1.7,0.8,2.5c0.2,0.5,0.3,0.9,0.5,1.4c0,0.2,0.2,0.6,0.2,0.8 c0,0.4-0.2,0.8,0,1.1c0.2,0.1,0.3,0.2,0.5,0.3c0.1,0.1,0.2,0.2,0.4,0.3s0.3,0.2,0.5,0.3c0.3,0.2,0.6,0.4,0.9,0.6 c0.3,0.3,0.8,0.5,1.2,0.9c0.2,0.2,0.5,0.6,0.7,0.8c0.2,0.1,0,0.7-0.2,0.9c0,0.2-0.2,0.5,0,0.8c0,0.4,0.5,0.7,0.7,1 c0.3,0.5,0.6,1.1,1,1.7c0.3,0.5,0.5,1.1,0.7,1.7c0.2,0.5,0.3,0.8,0.7,1.3h-0.2c0.5,0,0.6,0.1,1.1,0.2c0,0.2,0.2,0.7,0.3,1 c0,0.3,0.2,0.8,0.2,0.9c0.2,0.1,1.5,0.4,1.6,0.5c0.1,0,0.1,0,0.2,0.1s0.2,0.1,0.3,0.2c0.2,0.2,0.3,0.4,0.3,0.6 c0.3,0.6,0.5,1.3,0.7,1.9c0.2,0.2,0.5,0.2,0.7,0.3c0.2,0.2,0.2,0.5,0.2,0.8v0.1c0.1,0,0.2,0,0.2,0c0.2,0,0.4,0.1,0.6,0.2 c0.3,0.1,0.7,0.2,1,0.3c0.2,0.1,0.3,0.1,0.6,0.1c0-0.1,0-0.3,0-0.4c0-0.1,0-0.2,0.1-0.3s0-0.1,0.1-0.2c0.2-0.2,0.5-0.3,0.5-0.5 c-0.2-0.3-0.5-0.9-0.7-1.2c-0.1-0.3-0.2-0.7-0.3-1c0-0.2-0.1-0.3-0.2-0.5s-0.1-0.3-0.2-0.5c-0.2-0.3-0.3-0.6-0.5-0.9 c-0.2-0.2-0.3-0.2-0.5-0.5c0-0.1,0.1-0.3,0.2-0.3c0.1,0,0.1-0.1,0.2-0.1c0.1,0,0.1,0,0.2,0c0.3,0.1,0.8,0.6,1,0.7 c1,0.6,2.1,1.2,3.1,1.9c0.1,0.1,0.2,0.1,0.3,0.2s0.3,0.2,0.3,0.3c0.2,0.4,0,1.3,0.2,1.8v0.5c0.3,0,0.7,0,1,0.1 c0.2,0,0.3,0.2,0.5,0.3c0.3,0.2,0.5,0.4,0.7,0.5c0.2,0.2,0.3,0.3,0.6,0.5s0.8,0.4,1.2,0.7c0.3,0.2,0.7,0.4,1,0.7 c0.3,0.2,0.6,0.4,1,0.6s0.6,0.6,1,0.9c1,1,1.6,2.1,2.8,2.9c0.5,0.4,1.1,0.6,1.7,0.7c0.3,0,0.6,0.1,1,0.1c0.3,0,0.6,0,1,0.1 c0.6,0.1,1.3,0.1,1.9,0.2c0.8,0.1,1.8,0.2,2.6,0.2c0.3,0,0.5,0,0.8,0c0.1,0,0.2,0,0.3-0.1c0.2,0,0,0,0-0.1s0-0.3-0.1-0.4 c-0.1-0.4-0.3-1-0.6-1.3c-0.2-0.4-0.3-0.8-0.5-1.2s-0.5-0.8-0.8-1.1c-0.2-0.3-0.4-0.6-0.6-0.9s-0.5-0.6-0.7-0.9 c-0.1-0.1-0.2-0.2-0.3-0.3s-0.2-0.3-0.3-0.4c-0.3-0.3-0.5-0.5-0.8-0.8s-0.6-0.7-1-0.9c-0.2-0.2-0.4-0.3-0.6-0.4s-0.4-0.3-0.6-0.5 c-0.2-0.5-0.4-0.9-0.7-1.4c-0.2-0.5-0.5-1.4-0.6-1.5c-0.3-0.1-1.5-0.5-2-0.6c-0.2-0.1-0.7-0.1-0.8-0.2c-0.2-0.2-0.3-0.6-0.5-0.8 c-0.3-0.5-0.5-1-0.7-1.5c-0.5-0.7-0.8-1.4-1.3-2.1c-0.7-1.3-1.3-2.7-1.8-4.1c-0.2-0.4-0.4-0.8-0.5-1.2c-0.3-0.6-0.6-1.2-0.6-1.9 c0.6,0,3.1,0.9,3.4,1.6c0.2,0.3,0.3,0.6,0.7,0.9c0,0.3,0.3,1.2,0.5,1.3c0.2,0,0.5,0.2,0.8,0.3c0.8,0.2,1.9,0.4,2.8,0.7 c0.2,0,0.3,0.7,0.5,0.9c0.2,0,0.8,0.1,1.2,0.3c0.3,0.1,0.3,0.3,0.5,0.5c0.3,0.4,0.5,1,0.8,1.4c0.3,0.2,0.5,0.5,0.8,0.7 c0.2,0.2,0.5,0.3,0.5,0.4c0.3,0.1,2,0.6,2.1,0.5v-0.4c0-0.9-0.2-1.6-0.3-2.3c-0.2-0.4-0.2-0.7-0.3-1.1c-0.2-0.9-0.5-1.8-0.8-2.7 c-0.2-0.3-0.3-0.6-0.4-0.9s-0.2-0.6-0.4-0.9c-0.3-0.8-0.7-1.6-1.2-2.4c-0.5-1-1-2.2-1.6-3.2c-0.2-0.3-0.4-0.6-0.7-0.9 c-0.6-0.8-1.3-1.6-2.1-2.2c-0.5-0.4-1.2-0.6-1.8-0.9c-0.3-0.2-0.6-0.5-1.1-0.7c-0.2-0.1-0.5-0.3-0.7-0.3c0,0-0.5,0.6-0.8,0.6 c-0.3,0.1-0.8-0.1-1.3-0.2c-0.3-0.1-1-0.1-1.3-0.3c-0.1-0.1-0.3-0.2-0.4-0.3s-0.2-0.2-0.3-0.3c-0.2-0.2-0.4-0.5-0.6-0.6 c-1.2-0.8-2.3-1.2-3.8-1.3c-0.5,0-1.1-0.1-1.5,0c-0.3,0-0.8,0-1.2,0v-0.1v-0.5c-0.2-0.6-0.2-1.2-0.2-1.8c0-0.8,0-1.5-0.2-2.3 c-0.5-1.6-2.2-2.7-3.3-3.7c-0.2-0.2-0.5-0.4-0.7-0.6c-0.1-0.1-0.3-0.2-0.4-0.3s-0.2-0.2-0.4-0.2c-0.1-0.1-0.3-0.1-0.4-0.1 s-0.2,0-0.3-0.1c-0.2,0-0.5,0-0.8,0c0-0.3,0-0.8-0.1-1.3c0-0.2-0.1-0.5-0.2-0.7s-0.1-0.3-0.2-0.4c-0.3-0.1-0.7-0.3-1-0.5 c-0.2-0.2-0.5-0.5-0.8-0.6c-0.2-0.1-0.7,0.1-0.8,0c-0.3-0.4-0.8-0.7-1.3-1c-0.2-0.1-0.3-0.3-0.3-0.4c-0.2-0.2-0.2-0.4-0.2-0.7 c-0.2-0.4-0.3-0.6-0.5-0.9c-0.3-0.2-0.5-0.3-0.6-0.5c-0.3-0.3-0.7-0.5-0.8-0.7c-0.2-0.1-0.5-0.3-0.5-0.5c-0.2-0.3,0-1.1,0.2-1.4 c0-0.8,0.2-1.5,0.2-2.3c0.2-0.5,0.2-1,0.3-1.5c0-0.4-0.2-1-0.3-1.4c-0.3-1.1-0.8-2.1-1.2-3.1c-0.2-0.5-0.5-1-0.7-1.4 s-0.4-0.9-0.7-1.4c-0.3-0.6-0.6-1.2-1-1.8c-0.2-0.5-0.5-0.9-0.7-1.4c-0.3-0.5-0.7-1-1-1.4c-0.3-0.7-0.5-1.3-0.8-2 c-0.7-1.1-1.3-2.1-1.8-3.2c-0.3-0.5-0.5-1.1-0.8-1.7c-0.5-0.8-0.8-1.5-1.2-2.3c-0.3-0.5-0.5-1.1-0.7-1.7c-0.2-0.2-0.2-0.4-0.3-0.5 c-0.2-0.2-0.3-0.4-0.6-0.6c-0.7-0.5-1.3-1-2-1.5c-0.4-0.3-0.9-0.6-1.3-1s-0.8-0.7-1.2-1c-0.8-0.7-1.6-1.5-2.4-2.3 c-0.8-0.9-1.5-2.1-2.3-3.1c-0.2-0.3-0.3-0.6-0.7-0.9c0-0.1-0.1-0.1-0.2-0.1c-0.2-0.1-0.4-0.2-0.5-0.3c-0.5-0.2-0.8-0.5-1.3-0.7 c-0.8-0.6-1.5-1.2-2.3-2c-0.3-0.5-0.8-1-1.3-1.4c-0.7-0.8-1.5-1.5-2.3-2.3c-0.2-0.3-0.5-0.6-0.7-0.8c-0.1,0-0.2-0.1-0.3-0.1 s-0.2,0-0.3-0.1c-0.7-0.1-1.3,0-2-0.2c-0.3-0.1-0.5-0.2-0.7-0.3c-0.5-0.2-1-0.4-1.5-0.6c-0.7-0.2-1.3-0.5-1.9-0.6 c-0.8-0.2-1.8-0.3-2.6-0.5c-0.2,0-0.3,0-0.5,0C548.5,676.8,547.9,676.6,547.2,676.5L547.2,676.5z M544.4,681.1 c-0.3,0.5-0.8,1-1.2,1.5c-0.2,0.2-0.3,0.3-0.3,0.5l-0.2,0.1c-0.2,0.3-0.3,0.6-0.6,0.9c-0.2,0.4-0.4,0.9-0.7,1.3 c-0.2,0.6-0.3,1.1-0.6,1.7v0.2c-0.2,0-0.2,0.3-0.3,0.6c0,0,0,0.1-0.2,0.1c-0.2,0.3-0.3,0.8-0.5,1.2c-0.3,0.5-0.6,1-0.8,1.5 c0,0.3,0,0.6,0.2,0.8c-0.2,0.3-0.2,0.7-0.2,1v1c0,0-0.3,1.3-0.2,1.1c-0.2,0.2-0.2,0.4-0.2,0.5c0,0-0.2,0.3-0.2,0.6 c-0.3,0.5-0.3,0.7-0.7,1.2c0,0-0.3,1-0.3,1.2c0.3-0.2,0.5-0.4,0.8-0.5c0.5-0.3,1.1-0.5,1.6-0.7c0.2-0.1,0.3-0.1,0.5-0.3 c0.1-0.1,0.1-0.2,0.2-0.3s0.1-0.2,0.1-0.3c0-0.2-0.1-0.5-0.1-0.7c0-0.3,0.3-0.3,0.3-0.3l0.3-0.2c0,0,1-0.4,1.2-0.5v0.3v0.1v0.7 c0,0.1,0.3,0.5,0.5,0.6c0,0,0.1,0,0.3-0.1c0,0,0.3-0.2,0.5-0.3c0.5-0.3,0.8-0.5,1.3-0.8c0.2-0.2,0.5-0.4,0.7-0.6 c0.3-0.1,0.7,0,0.7-0.1c0.1-0.1,0.2-0.2,0.3-0.3c0.3-0.4,0.4-0.8,0.7-1c0-0.1,0.3,0,0.3-0.1c0.1,0,0.2-0.1,0.2-0.1 c0.1,0,0.1-0.1,0.1-0.1s0.8-1.1,1-1.3c0,0,0.5,0,0.6,0c0.3,0,0.7-0.1,1-0.2s0.6-0.2,0.8-0.4c0.3-0.1,0.5-0.3,0.8-0.4 c0.3-0.2,0.7-0.4,1-0.6c0,0,0.2-0.1,0.3-0.2c0-0.1,0.2-0.1,0.3-0.2v-0.6c0,0,0,0-0.2,0c0,0-0.2,0-0.3,0.1l0,0c0,0,0,0-0.1,0 s-0.1,0-0.2,0c-0.2,0.1-0.5,0.2-0.7,0.2c-0.3,0.1-0.4,0.2-0.6,0.3c-0.1,0-0.1,0-0.2,0v-0.7c0,0-0.2-0.1-0.2-0.2 c-0.3-0.1-0.7-0.3-0.8-0.3c-0.3,0-1.5,1.3-1.8,1.7c0,0.1,0,0.1-0.2,0.2c-0.2,0-0.3,0.1-0.5,0.2c-0.2,0-0.5,0.1-0.6,0.2l-0.2,0.1 c-0.2,0.1-0.5,0.2-0.5,0.2c-0.2,0-0.2,0-0.3,0.1s-0.3,0.1-0.8,0.3h-0.2c-0.2-0.4-0.2-0.5-0.3-0.5c-0.2-0.1-0.6,0.3-1,0.3 c0,0-0.2,0.1-0.5,0.2c-0.2,0-0.3,0.2-0.3,0.3c-0.2,0-0.3,0.2-0.3,0.3c-0.1,0.1-0.2,0.1-0.3,0.1s-0.2,0.1-0.2,0.1 c-0.2,0-0.2,0-0.2,0c0,0.1-0.5,0.2-0.7,0.2v0c0.2,0,0.2-0.1,0.2-0.2c0.2-0.4,0.8-1.7,1.2-1.9c0.3-0.1,0.5-0.2,0.8-0.3 c0.3-0.2,0.7-0.3,1-0.5c0.2-0.1,0.5-0.2,0.8-0.3c0.3-0.3,0.6-0.8,1-1.2c0.3-0.3,1-0.4,1.3-0.7c0.2-0.1,0.3-0.1,0.5-0.2 c0.3-0.2,0.8-0.4,1.3-0.4c0.2,0,0.3,0,0.7-0.1c-0.2,0-0.2-0.1,0-0.3c0-0.1,0-0.2,0.1-0.3s0.1-0.1,0.1-0.1c0-0.1,0-0.1,0.2-0.5 c0-0.1-0.1-0.2-0.5-0.1c-0.2,0-0.5,0-0.8,0.1c-0.2,0-0.5,0.1-0.8,0.1c-0.2-0.1-0.5-0.3-0.8-0.1c-0.3,0-0.5,0-0.5,0.3 c0,0,0,0.1-0.2,0.2c0.2,0.2-0.2,0.4-0.2,0.5c0,0-0.2,0.1-0.3,0.1c0,0-0.2,0.1-0.3,0.1c-0.2-0.1-0.5-0.5-0.7-0.6 c0,0.1-0.5,0.1-0.5,0.1c0,0.1-0.3,0-0.5,0.1V685c0-0.2,1-0.5,1.2-0.5c0.3-0.1,1,0,1.2-0.3c0.2-0.1,0-0.4,0-0.6 c0.2-0.2,0.2-0.4,0.2-0.7c-0.1,0-0.2,0-0.3,0c-0.3-0.1-0.6-0.3-1-0.4c-0.2-0.1-0.5-0.2-0.8-0.4 C544.9,681.6,544.8,681.3,544.4,681.1L544.4,681.1z M552,692.6c0,0,0,0-0.2,0c0,0-0.1,0.1-0.3,0.1s-0.3,0-0.4,0c0,0-0.1,0-0.1,0.1 s-0.1,0.1-0.2,0.1h-0.3c-0.2,0-0.3,0-0.3,0.1c-0.3,0.3-0.6,0.5-1,0.8c-0.3,0.2-0.5,0.3-0.7,0.6c-0.1,0.1-0.1,0.3-0.2,0.4 s0,0.3,0,0.3c-0.1,0-0.2,0.1-0.3,0.1s-0.1,0-0.2,0c0,0-0.7,0.6-0.8,0.8v0.4l0.2,0.3c0.2,0,1-0.3,1-0.3l0.3-0.1 c0.7-0.2,1-0.4,1.1-0.4c0.3-0.2,1.7-0.8,1.7-0.8l0.7-0.3c0.3-0.2,0.6-0.3,1-0.4v-0.2V694c-0.3-0.2-0.5-0.3-0.8-0.4v-0.4 C552.3,692.9,552.3,692.8,552,692.6L552,692.6z M554.7,696.4c-0.2,0.2-0.7,0.8-0.7,0.9c0,0-0.2,0.4-0.2,0.3c0,0.1-0.2,0.3-0.3,0.4 c-0.2,0.2-0.3,0.3-0.5,0.4c-0.3,0.2-0.6,0.6-0.8,0.7c0,0.1,0.2,0.1,0.2,0.1h0.1c0,0,0.2,0,0.3,0c0.4,0,0.9-0.2,1.3-0.2 c0.2,0,0.4-0.1,0.5-0.1c0.8,0,1.5,0.3,2.1,0.6c0.5,0.1,0.8,0.3,1.3,0.3c0,0,0,0,0.2,0l-0.2-0.2c0,0-0.5-0.8-0.8-1.3V698 c-0.2-0.2-0.2-0.3-0.3-0.4c-0.2,0-0.5-0.1-0.7-0.1s-0.3,0-0.3,0s-0.2,0.1-0.2,0v-0.9C555.4,696.5,555.1,696.5,554.7,696.4 L554.7,696.4z M550.7,697.2c-0.2,0-0.4,0.1-0.6,0.2s-0.4,0.2-0.6,0.2c0,0-1.5,0.4-1.6,0.7c-0.3,0.3-0.3,0.7-0.5,1 c-0.1,0.1-0.2,0.2-0.3,0.3c-0.3,0.2-0.7,0.4-1,0.5c-0.5,0.2-1.2,0.7-1.3,0.8c-0.2,0.1-1.2,0.7-1.3,0.8v0.1c-0.2,0-0.2,0-0.3,0v0.1 v0.3c-0.1,0-0.1,0-0.2,0.1s0,0.1,0,0.1v0.3v0.3c-0.1,0-0.2,0.1-0.3,0.1s-0.2,0-0.3,0c0,0-0.5,0.1-0.7,0.3c-0.2,0.1-0.3,0.3-0.4,0.4 s-0.2,0.3-0.3,0.4c-0.2,0.3-0.3,0.7-0.3,1.2v0.1c0,0.1-0.2,0.1-0.2,0.1c0,0.2,0,0.3-0.1,0.5s-0.1,0.2-0.1,0.3c-0.2,0,0,0.2,0,0.4 l-0.2,0.1l-0.7,0.5l-0.2,0.1c-0.2,0-0.7,0.5-0.8,0.6v0.1c-0.2,0-0.6,0.1-1,0.2s-0.3,0.4-0.5,0.6c0,0.1-0.2,0.4-0.2,0.4 c-0.2,0-0.5,0.2-0.7,0.1l-0.5,0.2c-0.2,0-0.3,0.1-0.3,0.1c-0.2,0-0.3,0.1-0.5,0.1c0,0-0.3,0-0.3,0.1c0-0.2-0.1-0.6-0.1-1 c0-0.2,0-0.4,0-0.5s0-0.3,0.1-0.3c0.3-0.2,1-0.4,1.1-0.7c0-0.1,0.1-0.2,0.1-0.3c0.1-0.2,0.1-0.5,0.2-0.8c0-0.1,0.1-0.2,0.1-0.2 c0.1-0.1,0.1-0.1,0.2-0.1s0,0,0-0.1s0.2-0.4,0.2-0.4c0.2,0,0.2-0.3,0.2-0.4c0.2-0.3,0.8-0.7,1.1-0.9c0.2-0.1,0.2-0.2,0.3-0.2 c0.7-0.4,1.3-0.8,2-1.2c0-0.1,0.1-0.2,0.3-0.3s0.3-0.1,0.5-0.3s0.3-1,0.2-1.3c0,0,0.2-0.1,0.2-0.2c0.2,0,1.3-0.7,1.5-0.8 c0.3-0.3,0.5-0.5,0.7-0.7s0.2-0.3,0.2-0.3c0-0.3,0.2-1.1,0.2-1.2l-0.2-0.1c-0.2,0.1-0.3,0.1-0.5,0.2c-0.2,0.1-0.3,0.1-0.5,0.2 c-0.6,0.2-0.5,0.9-0.8,1.3c0,0.1-0.1,0.1-0.2,0.2c-0.3,0-0.7,0-0.8,0s-0.3,0.1-0.5,0.1l-0.2,0.1c-0.2,0.1-0.2,0.1-0.3,0.3 c-0.5,0.3-0.5,0.4-1,0.7c-0.2,0.2-0.5,0.4-0.8,0.5c0,0-0.3,0.2-0.3,0.3c0,0-1,0.7-1.2,0.8c-0.3,0.2-0.8,0.4-0.8,0.5v0.3 c-0.2,0-0.2,0.1-0.2,0.3v0.5c0,0.2-0.2,0.2-0.2,0.2s0,0.2-0.2,0.3l-0.3,0.1l-0.2,0.1c-0.3,0-0.8,0-0.8,0.1c-0.2,0-0.2,0.1-0.2,0.1 c-0.3,0-0.7,0.7-0.8,0.9c-0.2,0.1-0.3,0.3-0.3,0.5c0,0-0.3,0-0.3,0.1c0,0-0.3,0.1-0.5,0.1l-0.2,0.1c-0.2,0-0.2,0.2-0.3,0.3 c0,0.2-0.6,0.2-0.8,0.3c-0.2,0-0.3,0.1-0.5,0.2c0,0,0,0.3-0.2,0.4c0,0.5-0.2,1-0.2,1.4c-0.2,0.1-0.2,0.3-0.2,0.4 c0,0.2,0,0.3-0.2,0.5c0,0.6-0.2,1.2-0.3,1.8c0,0.2,0,0.4-0.2,0.6c-0.2,0.5-0.3,0.9-0.3,1.4c0,0-0.2,0.5-0.3,0.5 c0,0.2-0.3,1.2-0.3,1.3c0,0-0.2,0.2-0.2,0.3c-0.2,0.1-0.2,0.2-0.2,0.4s-0.2,0.5,0,0.8c0,0.2,0,0.5,0.2,0.8c0,0.1,0.2,0.2,0.2,0.3 v0.1c-0.2,0.3-0.5,0.4-0.8,0.6c-0.3,0.3-0.6,0.5-1,0.8c-0.3,0.4-0.5,0.8-0.8,1.3c0,0.3-0.2,0.6-0.2,0.9c-0.2,0.3-0.2,0.5-0.2,0.6 c-0.2,0.4-0.3,0.9-0.3,1.3c0,0.4,0.5,0.7,0.7,1.1v0.1c0,0.2-0.2,0.5-0.2,0.6c-0.2,0.2-0.2,0.3-0.3,0.5c-0.2,0.6-0.5,1.2-0.7,1.8 c-0.3,0.6-0.5,1.2-0.8,1.8c0,0.3,0,0.5-0.2,0.8v0.1h0.1c0.1-0.1,0.3-0.2,0.4-0.3c0.2-0.1,0.5-0.3,0.7-0.4c0.2-0.1,0.3-0.3,0.5-0.4 c0.3-0.2,0.6-0.4,0.9-0.7c0.2-0.1,0.3-0.2,0.5-0.4s0.3-0.3,0.4-0.4c0.2-0.2,0.2-0.6,0.3-0.9c0-0.1-0.2-0.3,0-0.4 c0.3-0.5,1-0.9,1.3-1.2c0.2-0.1,0.5-0.3,0.7-0.5c0.3-0.1,0.3-0.1,0.5-0.2c0.2-0.2,0.2-0.9,0.2-0.9c0.2,0,1-0.1,1-0.1v0.3l-0.2,2.8 c0.2,0,0.3,0,0.5-0.1c0.7-0.4,1.8-1.9,2.1-2.7c0.2-0.2,0.2-0.5,0.3-0.6c0.2,0,0.2-0.2,0.2-0.2c0-0.3,0.3-0.6,0.7-0.8 c0.1-0.1,0.2-0.1,0.3-0.2s0.2-0.2,0.3-0.3c0.3-0.3,0.4-0.8,0.6-1.1c0.1-0.1,0.1-0.2,0.2-0.3c0,0,0-0.1,0.1-0.1s0.1-0.1,0.2-0.1 c0-0.1,0.2-0.1,0.3-0.1c0,0,0,0,0.1-0.1c0.1,0,0.1-0.1,0.2-0.1c0.3-0.1,1.3-0.2,1.5-0.5c0.1,0,0.1-0.1,0.2-0.1s0-0.1,0-0.2v-0.3 c0-0.2,0.2-0.3,0.2-0.5v-0.4c0,0,0-0.1,0.1-0.1h0.1v-0.3c0-0.1-0.2-0.2-0.3-0.1c0,0,0,0.1-0.2,0.1s-0.3,0.1-0.5,0.1 c-0.3,0-0.7,0.2-0.8,0.2c0,0,0,0-0.1,0s-0.1,0-0.2,0c-0.2,0-0.5,0.1-0.5,0.2c-0.1,0-0.2,0-0.4,0s-0.3,0-0.3,0l-0.2,0.1 c-0.2,0-0.3,0-0.3,0s-0.1,0.1-0.2,0.2c-0.1,0.1-0.3,0.2-0.3,0.3c0,0,0,0.1-0.2,0.2c0,0.3-0.8,0.7-1.1,0.8l0,0 c-0.2,0-1.7,0.7-1.7,0.7l-0.2,0.1c-0.2,0-0.1,0-0.3,0l-0.3,0.1c-0.2,0-0.2,0-0.2,0.1c-0.2,0-0.2,0-0.3,0.1h-0.2c-0.2,0-0.2,0-0.2,0 h-0.2v-0.3c0.2-0.3,0.2-0.7,0.3-1c0-0.2,0-0.3,0-0.3s0-0.1,0.1-0.1c0,0,0,0,0.1,0c0,0,0.2-0.1,0.4-0.3s0.4-0.2,0.4-0.3 c0.2,0,0.5-0.1,0.7-0.2s0.3-0.2,0.3-0.3c0.3-0.2,0.5-0.4,0.8-0.7c0.2-0.1,0.5-0.3,0.8-0.4c0.6-0.3,0.9-0.7,1.2-1.3 c0.1-0.2,0.2-0.4,0.3-0.6c0-0.2,0.2-0.6,0.2-0.7c0-0.1,0.5-1.1,0.7-1.2c0.2-0.1,0.3,0,0.5,0c0.1,0,0.1,0,0.2,0v-0.1 c0.3-0.3,0.5-0.7,0.8-1.1c0-0.1,0.2-0.3,0.3-0.4v-0.1c0.2-0.1,0.6-0.3,1-0.6c0.2-0.1,0.3-0.3,0.5-0.3c0,0,0.2,0,0.2-0.1 c0.2,0,0.3,0.2,0.3,0.3c0.2,0,0.5,0.1,0.5,0.1s0,0.1,0.2,0.1v0.5c0,0.2,0.2,0.3,0.2,0.5c0,0.3,0.2,0.3,0.3,0.7c0,0,0,0.1-0.2,0.1 c0,0,0,0.1-0.2,0.1s-0.2,0-0.3,0.1l0,0c0,0,0,0-0.1,0c0,0-0.2,0.2-0.3,0.2h-0.2c0,0,0,0.2-0.2,0.3v0.9c0,0.1,0,0.1,0.2,0.1 s0.5,0,0.7-0.1c0.2,0,0.4-0.1,0.7-0.1c0.5-0.1,1.2,0,1.7-0.1c0.5-0.2,1.5-0.9,2-1.3c0.3-0.2,0.8-0.7,0.8-0.8v-0.7 c0-0.8,0-1.2,0.2-2c0-0.5,0.2-1.2,0-1.8c0-0.2-0.2-0.4-0.3-0.6c-0.2-0.3-0.2-0.5-0.3-0.8c-0.2-0.2-0.3-0.5-0.5-0.7 c-0.1-0.1-0.1-0.2-0.2-0.3s-0.1-0.2-0.2-0.3c0-0.1-0.2-0.3-0.2-0.6c0-0.2,0.1-0.3,0.3-0.6c0.3-0.6,0.9-1.4,1.3-1.8 c0-0.1,0.1-0.1,0.2-0.2c0.2-0.2,0.5-0.4,0.7-0.6c0.7,0,1,0.1,1.5,0.2c0.3,0,0.5,0.2,0.8,0.2c0.2,0,0.2-0.1,0.3-0.2h0.2 c0.2,0,0.3-0.1,0.3-0.1s0.7-0.4,0.8-0.5c0.2-0.2,0.2-0.4,0.2-0.6c0.2-0.4,0.3-0.9,0.3-1.4c0.2-0.4,0.3-1,0.3-1.1 C550.7,697.5,550.6,697.2,550.7,697.2L550.7,697.2z M547.5,703.1c-0.4,0.4-1.2,1.2-1.3,1.8c0,0.1,0,0.2,0,0.3 c0,0.2,1.3,1.5,1.5,1.7s0.5,0.4,0.7,0.4c0.1,0,0.2,0,0.3,0s0.3,0,0.4-0.1c0.2-0.1,0.5-0.1,0.8-0.2c0,0,0,0,0.2-0.1c0,0,0-0.1,0-0.2 s0.1-0.1,0.2-0.1c0.2-0.2,0.2-0.2,0.2-0.3c0-0.3-0.1-0.5-0.3-0.5c0,0-0.2,0-0.3,0.1h-0.2c-0.2,0-0.5,0.1-0.7,0.1 c0,0-0.1-0.1-0.2-0.2c-0.1-0.1-0.1-0.2-0.2-0.4c-0.1-0.3-0.3-0.5-0.3-0.6l0,0c0,0,0.1,0,0.1-0.1c0,0,0.1-0.1,0.1-0.2v-0.1 c0.1-0.1,0.2-0.2,0.3-0.3C548.8,703.7,547.8,703.2,547.5,703.1L547.5,703.1z M569.2,715.3c0.6,0,1.2,0.1,1.7,0.3 c0.3,0.2,0.5,0.4,0.8,0.6c0.7,0.4,2.1,1.4,2.3,2.2c0.1,0.1,0.1,0.3,0,0.5c0,0.1-0.1,0.2-0.1,0.3s-0.1,0.2-0.1,0.2 c-0.1,0-0.1,0.1-0.2,0.1c0,0-0.1,0-0.2,0c-0.3,0-0.7-0.1-0.8-0.2c-0.6-0.1-1.6-0.3-2.1-0.2c-0.2,0-0.2,0.1-0.3,0.2 c-0.5,0.2-2,1.2-2.3,1.5c-0.2,0-0.2-0.1-0.2-0.2c-0.2-0.2-0.3-0.3-0.4-0.5s-0.2-0.3-0.4-0.5c-0.3-0.7-0.8-1.3-1.3-1.9 c-0.5-0.6-1.3-1.3-1.8-1.9c0,0,0.3,0,0.5-0.1c0.7,0,1.3,0,2,0s1.5-0.2,2.1-0.3C568.7,715.4,568.8,715.3,569.2,715.3L569.2,715.3z M542.5,723.6c0,0-0.5,0.4-0.5,0.3c0-0.1-0.7,0.4-0.8,0.4c-0.8,0.7-1.1,1.1-1.5,1.3v0.1c0,0-0.1,0.1-0.1,0.3c0,0.1-0.1,0.3-0.1,0.4 v0.3v0.1c-0.5,0.1-0.8,0-1.3,0.1c-0.2,0-0.3,0.1-0.3,0.1s-0.8,0.3-1.2,0.4c-0.2,0.1-0.2,0.1-0.3,0.2c-0.2,0-0.5,0-1,0.1v0.1 c-0.2,0.8-0.8,2-1,2v0.2c0,0-0.3,0.4-0.3,0.5v0.2c0.3,0.1,0.5,0.1,0.8,0.1c0.2,0,0.3,0,0.5,0c0.3,0,0.8,0.1,1.2,0.1 c0.5,0,1-0.3,1.3-0.5c0.2-0.1,0.3-0.2,0.7-0.3c0.2-0.1,0.3-0.2,0.5-0.3s0.3-0.1,0.4-0.2s0.2-0.1,0.2-0.2c0.2-0.1,0.2,0,0.2,0v0.2 v0.2c-0.2,0-0.2,0.2-0.2,0.3s-0.2,0.4-0.2,0.6l-0.1,0.1c-0.2,0.1-0.3,0.1-0.3,0.1c-0.2,0-0.5,0.1-0.5,0.1s0,0-0.2,0.1l-0.2,0.5v0.1 c0,0.1-0.2,0.2-0.2,0.3s-0.7,1.3-0.7,1.3c-0.1,0-0.2,0-0.3,0s-0.2,0-0.3,0h-0.5c0,0.1-0.2,0.2-0.3,0.3c0,0.1-0.3,0.2-0.5,0.2 c-0.2,0.1-0.5,0.2-0.7,0.2s-0.5,0.2-1,0.4c-0.2,0-0.5,0-0.5,0c-0.3,0-0.7,1.1-0.8,1.3c0,0.1-0.2,0.7-0.5,0.8c0,0-1,0.5-1.1,0.5 c-0.2,0.1-0.8,0.3-1,0.4h-0.1l-0.1,0.1c-0.1,0.1-0.2,0.2-0.3,0.3c-0.1,0.3-0.3,0.7-0.4,1c-0.1,0.2-0.2,0.3-0.3,0.4 s-0.2,0.2-0.3,0.3c0,0,0,0.1,0.2,0.2c0,0,0.2,0,0.3-0.1c0.2-0.1,0.4-0.3,0.7-0.4c0.7-0.4,1.5-0.7,2.3-0.8c0.3-0.1,0.7-0.1,1-0.2 c0.2-0.1,0.5-0.3,0.7-0.3l0.2-0.1c0,0,0.2-0.1,0.4-0.2c0.2-0.1,0.4-0.2,0.5-0.2c0.5-0.3,0.7,0,1-0.8c0.2-0.3,0.1-0.7,0.3-1 c0,0,1.6-0.7,2-0.8c0.3-0.1,0.6-0.1,0.8-0.3c0.2,0,0.3-0.1,0.7-0.3c0.1,0,0.2-0.1,0.2-0.1s0.1,0,0.1-0.1c0.2-0.2,0.3-0.5,0.3-0.8 c0.3-0.7,0.7-1.4,1-2.1c0.5-0.8,0.8-1.5,1.2-2.3c0.2-0.5,0.2-1.1,0.2-1.8c0-0.1,0.1-0.2,0.1-0.3c0-0.3-0.1-0.5-0.1-0.8 c0-0.5,0.2-0.9,0.2-1.4v-1.6C542.6,723.6,542.5,723.6,542.5,723.6L542.5,723.6z M522.8,733.5c-0.5,0.4-1,0.6-1.5,1 c-0.2,0.1-0.3,0.2-0.5,0.3s-0.5,0.3-0.7,0.4c-0.2,0.1-0.2,0-0.5,0.2c-0.2,0.1-0.3,0.3-0.5,0.5c-0.3,0.5-1,1.6-2.6,2.4 c-0.3,0.2-0.6,0.4-1,0.6c0,0-1.9,1.3-2.9,2.1c0,0-1.5,0.8-1.7,0.9c0,0-1,0.4-1.1,0.5c-0.2,0-0.3,0.1-0.3,0.2c0,0.3-0.2,1.5-0.2,1.5 c-0.2,0.1-0.2,0.1-0.2,0.3c-4.6,3.4-6.3,7.9-6.3,7.9c-0.2,0.2-0.2,0.3-0.3,0.5c0,0.2-0.3,0.8-0.3,0.9c0,0.2,0,0.2-0.2,0.2 c-0.2,0.1-0.7,0.5-0.8,0.6c-0.2,0.1-0.2,0.4-0.2,0.6c0,0.3-0.7,2.4-0.8,2.5v0.3c0,0-0.3,0.6-0.5,0.9c0,0,0,0.5-0.2,0.6 c0,0-0.2,0.4-0.2,0.5l-0.2,0.2c0,0,0,0.2-0.2,0.5h0.2c0.1,0,0.3-0.1,0.5-0.2s0.5-0.3,0.6-0.4c0.2-0.2,0.2-0.5,0.3-0.7 c0.2-0.1,0.2-0.2,0.3-0.3v-0.1c0,0,0-0.1,0.1-0.1c0,0,0.1,0,0.1-0.1s0-0.1,0.1-0.1c0-0.1,0.1-0.1,0.2-0.2c0.5-0.1,1-0.1,1.3-0.2 c0.2,0,0.5,0,0.7,0c0.1,0,0.1,0,0.2,0c0.3-0.2,0.3-0.5,0.6-0.7v-0.1c0.2,0,0.2,0.1,0.2,0.1c0,0.1,0.1,0.1,0.1,0.2 c0.1,0.1,0.1,0.1,0.2,0.2c0.1,0.1,0.3,0.2,0.5,0.3s0.3,0.1,0.5,0.2c0.2,0,0.4,0,0.5,0s0.3,0,0.3-0.1c0.3-0.1,0.6-0.3,1-0.5 c0.1-0.1,0.1-0.1,0.2-0.2c0.1-0.2,0.1-0.4,0.5-0.4c0.2,0,0.5-0.1,0.7,0v-0.4c0.2-0.3,0-0.6,0.3-0.9c0.2-0.1,1.1-1.8,1.1-1.9 l-0.2-0.1c-0.2-0.1-0.3,0-0.3,0c-0.2,0-0.2,0.1-0.3,0.2c0,0.1-0.5,0.3-0.5,0.3s-0.7,0.5-0.8,0.6c-0.2,0.1-0.7,0.3-0.7,0.4 c-0.1,0-0.2,0.1-0.3,0.1s-0.2,0.1-0.2,0.1c0-0.1,0-0.4-0.2-0.5c0-0.1,0-0.3-0.1-0.4s-0.1-0.3-0.1-0.4c0-0.4-0.2-0.9,0-1.2 c0-0.2,0.2-0.3,0.3-0.4c0.2-0.2,0.7-0.7,0.8-0.8c0.2-0.1,0.5-0.3,0.7-0.5c0.7,0.1,1.2,0.3,1.3,0.4s0.5,0.2,0.7,0.2 c0.2-0.2,0.4-0.3,0.6-0.5s0.4-0.3,0.6-0.4c0.3-0.2,0.6-0.4,0.8-0.4c0.2-0.1,0.2-0.2,0.3-0.3c0-0.1,0.2,0.1,0.3,0.2 c0.5,0,0.9,0,1.3-0.1c0.2,0,0.4-0.1,0.7-0.2c1.1-0.3,2-0.8,2.6-1.7l0.5-0.8c0-0.2,0.2-0.5,0.2-0.7c0.2-0.2,0.4-0.2,0.6-0.3 s0.4-0.2,0.4-0.5c0-0.1,0-0.2,0.1-0.3s0.1-0.2,0.1-0.3c0-0.4,0.2-0.8,0.2-1.2v-0.1l0,0c-0.5,0.1-1.1,0.4-1.5,0.7 c-0.2,0.1-0.3,0.1-0.4,0.2s-0.2,0.1-0.3,0.2c-0.2,0.1-1.3,0.7-1.5,0.8s-1,0.2-1.3,0.2c-0.2,0-0.5,0.3-0.5,0.3 c-0.2,0.1-0.5,0.2-0.5,0.2s-0.2,0-0.2-0.1c0.2-0.9,0.3-2.4,0.7-2.9c0-0.2,0.5-0.3,0.5-0.3c0.3-0.2,0.6-0.4,1-0.6 c0.2-0.1,1.6-0.8,2.6-1.3c0.3-0.2,0.8-0.3,1.2-0.7c0.2-0.2,0.2-0.6,0.3-0.9c0.3-0.5,0.5-1.1,0.7-1.6c0.2-0.2,0.2-0.4,0.2-0.5V738 c0,0,0.1,0,0.2,0c0,0,0.1,0,0.2-0.1c0.2-0.1,0.5-0.3,0.7-0.4c0.3-0.2,0.6-0.3,0.8-0.6s0.3-0.9,0.3-1.3c-0.2-0.3-0.2-0.5-0.2-0.8 C522.7,734.4,523,733.7,522.8,733.5L522.8,733.5z M525.2,738.2c0,0-0.2,0.1-0.3,0.1c-0.8,0.2-2.8,1.9-2.9,2.4 c0,0.1-0.1,0.2-0.1,0.4c0,0.5,0,1.1-0.1,1.5v0.7l0,0c0,0,0.2-0.1,0.2-0.2c0.3-0.1,1-1,1-1.1c0.5,0,1.5,0,1.8-0.3 c0-0.3,0-0.8,0.2-1.1c0-0.2,0.1-0.4,0.3-0.7c0-0.1,0.2-0.2,0.3-0.4C525.6,739.3,525.6,738.4,525.2,738.2L525.2,738.2z M532,746.9 c-0.7,0.6-1.5,0.8-2.1,1.3c0,0,0,0.1-0.1,0.1l-0.1,0.1c-0.2,0.2-0.3,0.6-0.3,0.8c0,0.1-0.1,0.3-0.1,0.4c-0.1,0.1-0.1,0.3-0.2,0.4 c-0.3,0.2-0.5,0.4-0.8,0.5c-0.2,0.2-0.5,0.5-0.7,0.7c0,0.1-0.1,0.2-0.2,0.3c0,0.1-0.1,0.2-0.1,0.3s-0.1,0.2-0.1,0.4v0.7 c0,0.1,0,0.2,0,0.3s0,0.1-0.1,0.2s-0.1,0.1-0.1,0.1c0,0.1-1,0.8-1.2,1c-0.2,0.1-0.5,0.4-0.5,0.5s-0.2,0.6-0.2,0.7v0.3 c0,0-0.1,0-0.1,0.1c0,0-0.1,0.1-0.1,0.2c0,0.1,0,0.2,0,0.3v0.7h-0.2c0,0-0.7,0-0.7,0.1c-0.2,0.1-0.2,0.2-0.3,0.3v0.3 c-0.2,1.3-0.8,2.3-0.8,2.6c0,0.2-0.8,2.2-0.8,2.2c-0.3,1.7-0.8,2.3-1,2.5c0,0-2.9,2.9-5.6,4.3c-0.2,0,0-0.2,0-0.3 c0.3-0.8,0.3-1.6,0.7-2.3c0-0.2,0-0.5,0.2-0.7c0-0.1,0.5-0.4,0.7-0.5c0.5-0.3,0.8-0.5,1.1-0.8c0.2-0.1,0.5-0.3,0.5-0.4v-1.1 c0.2-0.4,0.2-0.9,0.2-1.3c0,0-0.2,0-0.3,0l-0.3,0.1c-0.2,0-0.5,0-0.5,0.1c-0.2,0.1,0,1.2-2.1,1.6c0,0.4-1.8,3.4-1.8,3.4 c-0.8,0.1-1.5,0.7-2,1.1c-0.3,0.4-0.5,0.7-0.7,1.1c-0.2,0.5-0.5,1-0.5,1.6c0,0.4,0.2,0.8,0.2,0.9c0,0.1-0.4,0-0.7,0.5 c-0.1,0.1-0.2,0.3-0.3,0.6c0,0-1,0.3-1.5,0.3c0,0,0,0.5,0,0.7v0.8v0.3c0,0.3-0.3,1.1-0.2,1.7c0,0.1,0.2,0.1,0.2,0.1 c0.3,0,0.5,0,0.8,0c0.8,0,1.5-0.1,2.1-0.1c0.5,0,1-0.2,1.5-0.2c0.2,0,0.3,0.1,0.5,0.1c0.5,0.1,0.5,0.1,0.5,0.1l0.3,0.1 c0.2,0,0.3,0,0.5,0c0.5,0,0.8-0.1,1.2-0.1c0.5,0,1-0.1,1-0.1s0.1,0,0.1-0.1c0.1-0.1,0.1-0.2,0.3-0.3s0.2-0.3,0.2-0.5 c0-0.3,0.2-0.5,0.2-0.8c0.1-0.1,0.1-0.3,0.2-0.4s0.1-0.3,0.2-0.4v-0.3c0.4-0.7,0.7-2,1.3-2.8c0.1-0.1,0.2-0.3,0.3-0.3 s0.2-0.2,0.3-0.2c0.5-0.2,1.3-0.3,1.5-0.4c0.2,0,0.2-0.1,0.2-0.1c0.2-0.2,0.3-0.3,0.3-0.5c0.2-0.3,0.3-0.7,0.5-1 c0-0.2,0-0.3,0.2-0.4c0.2-0.1,0.7-0.1,0.8-0.1c0.2,0,0.5,0,0.9,0c0.2,0,0.4,0,0.5,0c0.2,0,0.3,0,0.4-0.1c0.3-0.2,0.3-0.6,0.5-0.9 c0-0.2,0.2-0.5,0.3-0.7c0.2-0.3,0.3-0.6,0.5-0.9c0.2-0.2,0.1-0.5,0.3-0.7s0.3-0.4,0.3-0.6c0.2-0.1,0.3-0.4,0.3-0.6 c0.5-0.6,0.8-1.2,1.2-1.8c0.2-0.2,0.3-0.5,0.5-0.7c0.2-0.1,0.3-0.2,0.5-0.3c0.3-0.1,0.5-0.2,0.7-0.3c0.7-0.3,1.9-0.9,1.9-0.9 c0.1,0,0.1,0,0.1-0.1s0,0-0.1-0.1c0-0.1-0.5-0.9-0.7-1.1c0,0-0.3-0.6-0.5-0.8c-0.2-0.8-0.5-1.6-0.7-2.4c-0.1-0.7-0.2-1.5-0.1-2.2 c0-0.4,0.1-0.7,0.1-1.1c0.3-1.8,1-3.5,2-4.9l0,0H532V746.9z M556.1,750.6c0.3,0.1,0.8,0,1.2,0.2c0.3,0.2,0.8,0.8,1.1,1.1 c0.8,1.1,1.6,2.2,2.1,3.5c0,0.3,0.2,0.5,0.3,0.8c0,0.2,0,0.4,0.1,0.6c0,0.2,0.1,0.4,0.1,0.6c0.2,0.8,0.2,1.5-0.2,2.3 c-0.3,0.7-1,1.4-1.5,2c-0.5,0.4-0.8,0.8-1.2,1.3s-0.7,1.1-0.9,1.7c-0.1,0.2-0.1,0.4-0.1,0.6c-0.2,0.5,0,0.9,0.2,1.3 c0,0.3,0.3,0.6,0.5,0.9c0.2,0.2,0.2,0.5,0.3,0.8c0.3,0.5,0.5,1,0.7,1.6c0.1,0.2,0.1,0.4,0.2,0.6c0.1,0.2,0.1,0.4,0.2,0.6 c0.1,0.4,0.2,0.8,0.1,1.3c-0.2,0.4-0.5,0.6-0.7,1c-0.3,0-0.8-0.6-1.2-0.9c-0.2-0.2-0.5-0.4-0.8-0.7c-0.6-0.4-1.1-0.8-1.7-1.2 s-1.1-0.7-1.7-1c-0.8-0.5-1.8-0.9-2.3-1.8c-0.2-0.3-0.2-0.6-0.2-1c0-0.7,0.5-1.3,1-1.8c0.5-0.9,1.1-1.8,1.1-3c0-1.1-0.5-1.5-1-2.3 c-0.3-0.4-0.3-0.9-0.5-1.4c-0.2-1.9,0.7-3.7,1.7-5.1c0.5-0.6,0.8-1.3,1.5-1.8c0.1-0.1,0.2-0.2,0.3-0.2 C555.3,751,555.7,750.9,556.1,750.6L556.1,750.6z M571,753.9c0.5,0,2.3,1.4,2.4,1.7c0.2,0.4,0.2,0.7,0.3,1.1c0,0.2,0.2,0.5,0.2,0.6 c0.3,0.3,0.8,0.3,1,0.7c0.2,0.5,0.3,1,0.4,1.6c0,0.2,0.1,0.4,0.2,0.5c0,0.3,0,0.5,0.2,0.7c0.2,0.4,0.6,0.2,1,0.5c0,0,0.2,0,0.2-0.1 c0.5,0,1.3,0.2,1.7,0.4l0,0c0.1,0.1,0.1,0.4,0.1,0.6c0,0.1,0,0.1,0.1,0.2c0.3,0.3,0.5,0.5,0.7,0.8c0.3,0.4,0.5,0.8,0.8,1.2 c0,0.2,0.2,0.4,0.3,0.6l0,0c0,0.1-0.3,0.3-0.4,0.5l-0.1,0.1l0,0c-0.2,0-0.2-0.1-0.2-0.1c-0.2-0.1-0.3-0.3-0.5-0.4 c-0.2-0.1-0.2-0.3-0.3-0.4c-0.2-0.3-0.4-0.8-0.7-1c-0.2-0.1-0.3,0-0.5,0c0,0.1-0.3,0.1-0.3,0.1v0.1c-0.3,0-0.7,0.2-1,0.1 c-0.3-0.1-0.5-0.4-0.7-0.6c-0.3-0.4-0.7-0.3-1.2-0.3c-0.2,0-0.3,0-0.5,0c-0.1-0.1-0.1-0.2-0.1-0.3s0-0.1,0-0.2 c-0.3-0.5-0.5-1.1-0.6-1.6c-0.2-0.3-0.2-0.6-0.3-0.9c-0.2-0.5-0.3-1.1-0.5-1.7c-0.2-0.2-0.3-0.4-0.3-0.6c-0.3-0.8-0.7-1.6-0.8-2.4 C571.3,755,571.1,754.4,571,753.9L571,753.9z M510.8,761.8h-0.2c0,0,0,0.1-0.2,0.1c0,0-0.3,0.1-0.7,0.1c-0.2,0-0.3,0-0.3,0 s0,0-0.1,0.1s-0.1,0-0.1,0.1c-0.3,0-0.5,0-0.7,0.1c-0.1,0-0.2,0.1-0.4,0.1s-0.3,0-0.3,0.1v0.1h-0.2c-0.2,0-0.2,0-0.2,0.1 s-0.2-0.1-0.2,0c-0.2,0-0.2,0.1-0.2,0.1l-0.3,0.1c-0.2,0-0.2,0.2-0.2,0.3l0,0c0,0-0.1,0.1-0.2,0.1l0,0v0.2c0,0-0.2,0.3-0.2,0.4 c-0.2,0.1-0.2,0.2-0.2,0.2s0,0-0.2,0.1v0.1c-0.2,0-0.3-0.1-0.5,0c-0.3,0-0.6,0.6-0.8,0.8c0,0.1-0.2,0-0.2,0.2s-0.2,0.1-0.2,0.3 c0,0.1-0.2,0.3-0.2,0.3s-0.2,0.3-0.3,0.3h-0.2c0.2,0-0.2,0.1-0.3,0.2l0,0c0,0,0,0.1-0.1,0.1h-0.1c-0.1,0-0.2,0.1-0.3,0.2 c-0.1,0.1-0.3,0.2-0.3,0.3c0,0,0,0.1-0.1,0.1s-0.1,0-0.1,0.1s0,0-0.2,0v0.1c-0.2,0-0.2,0-0.2,0c-0.2,0.1-0.2,0.1-0.3,0.2 c0,0,0,0-0.1,0l0,0c0,0,0,0,0-0.1s-0.2,0-0.2-0.1c0.1,0,0.1-0.1,0.1-0.1v-0.1c0-0.4,0-0.6,0.2-1c0-0.2,0.2-0.9,0.2-1 s0.2-0.1,0.2-0.2c0-0.2,0.5-1.3,0.5-1.5c-0.2-0.1-0.7-0.1-0.8-0.1c0,0-1.3,0.7-1.3,0.8c0,0-0.5,0.3-0.7,0.3s0,0.1-0.2,0.1 c0,0-0.5,0.1-0.5,0.2c-0.2,0-0.2,0-0.2,0.1c-0.7,0-1,1.7-1.3,2.2v0.2v0.1c0,0,0,0.1-0.2,0.2c0,0.1,0,0.2-0.2,0.3v0.1 c0,0-0.1,0-0.2,0c0,0,0,0-0.2,0c0,0-0.3-0.1-0.5,0c-0.8,0-1-0.1-1.3,0.5v0.2c-0.2,0.3-0.3,0.5-0.5,0.7c-0.2,0.3-0.3,0.7-0.5,1 c0,0.1-0.2,0.1-0.2,0.2c0,0-0.2,0.3-0.2,0.5c-0.7,1-1.8,3.1-2,3.2c-0.2,0-0.2,0.3-0.3,0.5c-0.3,0.5-0.8,1.2-0.8,1.3 c-0.2,0-0.2,0.1-0.2,0.1c0.2,0,3.3,0.1,4.8-0.3c0.5-0.1,1-0.3,1.3-0.5s0.7-0.4,0.8-0.5c0.3,0,0.5,0.1,0.7,0.1c0.3,0,0.5,0,0.8,0.1 c0.5,0,1.1-0.2,1.5-0.4c0.7-0.4,1.3-0.8,1.8-1.3c0.2-0.3,0.5-1.1,0.8-1.3c0.3-0.1,0.5-0.2,0.8-0.2c0.3-0.1,0.5-0.2,0.8-0.4 c0.9,0,1.8-0.4,2.4-0.9c0.1-0.1,0.2-0.2,0.3-0.3c0.2-0.2,0.4-0.5,0.6-0.8c0.5-0.8,0.7-1.7,0.7-2.7c0-0.2,0-0.4-0.1-0.5 s0-0.3,0.1-0.5c-0.1,0-0.1,0-0.2,0c0,0,0,0,0-0.1c0.3,0,0.5,0.1,0.8,0.1c0.1,0,0.1,0,0.2-0.1c0.2-0.1,0.2-0.6,0.3-0.8 c0.2-0.6,0.5-1.2,0.8-1.9c0-0.2,0.2-0.4,0.2-0.7L510.8,761.8L510.8,761.8z M532.2,763.4L532.2,763.4c-0.5,0.1-0.8,0.3-1.2,0.4 c-0.5,0.2-1,0.5-1.7,0.7c0,0-0.2,0-0.3,0.1v0.1c0,0,0,0-0.1,0.1c0,0,0,0,0,0.1c0,0-0.1,0.1-0.2,0.1v0.3c0,0.1-0.3,0.4-0.3,0.6 c-0.2,0.2,0,0.4-0.2,0.4c0,0-0.2,0.4-0.2,0.5v0.1c-0.2,0.5-0.5,1.4-0.5,1.5v0.3c-0.2,0.6,0.3,1.3,0.3,1.7c-0.2-0.1-0.8-0.1-1,0 s-0.2,0.2-0.3,0.4c0,0.2-0.2,0.7-0.3,0.8c-0.2,0-0.3,0-0.5,0.1c0,0-0.1,0-0.2,0c-0.1,0-0.2,0-0.3,0v0.1c-0.2,0-0.3,0-0.5,0.1 c-0.3,0.1-0.5,0.4-0.7,0.8v0.5c0,0.1-0.2,0.1-0.2,0.2c0,0.1-0.2,0.2-0.2,0.3c-0.2,0.1-0.2,0.1-0.2,0.1v0.3c0,0-0.3,0.5-0.5,0.5v0.2 c0,0.3-0.5,0.8-0.7,1.1c0,0-0.3,0.3-0.2,0.5c0,0.1-0.1,0.1-0.1,0.2c0,0,0,0-0.1,0l0,0c0,0-0.2,0.4-0.3,0.6 c-0.1,0.1-0.1,0.2-0.2,0.2v0.2c-0.2,0.1,0,0.1,0,0.1c-0.2,0-0.3,0.5-0.2,0.7c0.2,0.2,1,0.1,1.3,0.1c0.6,0,1.5,0,2.3,0 c0.3-0.1,0.8-0.1,1.2-0.2c0.2,0,0.3-0.1,0.5-0.1c0.5,0,0.8,0.3,1,0.3c0.3,0.1,1.1,0.3,1.5,0.3c0.2,0,1.1,0,1.8,0c0.3,0,0.8,0,1.2,0 v0.1c0.5,0,0.8-0.1,1.3-0.1c0.3,0,0.7,0,1,0s0.6,0,1,0c0.1,0,0.2,0,0.3-0.1c0,0,0-0.1,0.1-0.1s0-0.1,0-0.1v-0.1 c-0.1-0.1-0.3-0.2-0.5-0.4s-0.4-0.3-0.5-0.4c-0.3-0.4-0.6-0.8-1-1.2c-0.1-0.1-0.2-0.1-0.2-0.2s-0.1-0.1-0.1-0.2 c-0.8-0.9-1.6-1.9-2.4-2.9c-0.3-0.3-0.9-0.8-1.2-1.3c0-0.1-0.1-0.2-0.1-0.3s-0.1-0.1-0.1-0.2c0-0.1-0.2-0.3-0.3-0.5 c0-0.5,0.2-0.8,0.3-1.2h0.1c0,0,0,0,0.1-0.1c0,0,0,0,0-0.1s0.8-1.1,1-1.4c0.5-1.1,1.3-2.2,1.6-3.6 C532.5,763.9,532.5,763.5,532.2,763.4L532.2,763.4z"></path> </g> </svg> 