<?xml version="1.0" encoding="UTF-8"?> <svg xmlns="http://www.w3.org/2000/svg" id="Layer_1" data-name="Layer 1" viewBox="0 0 39.97 35.88"><defs><style>.cls-1{fill:#009ca6;}.cls-2{fill:#ffb000;}</style></defs><title>Social Media Icons_Teal_RGB</title><path class="cls-1" d="M18.06,25.75A9.4,9.4,0,0,1,13,24.26a.48.48,0,0,1-.19-.57.47.47,0,0,1,.51-.32c.23,0,.46,0,.69,0a5.7,5.7,0,0,0,2.61-.62,3.62,3.62,0,0,1-2.11-2.26.5.5,0,0,1,.1-.47l.05,0a3.62,3.62,0,0,1-1.27-2.74V17.2a.5.5,0,0,1,.25-.4.42.42,0,0,1,.21-.06,4.27,4.27,0,0,1-.31-.77.49.49,0,0,1,.35-.6.49.49,0,0,1,.6.34,2.6,2.6,0,0,0,1.08,1.5.49.49,0,0,1,.19.56.5.5,0,0,1-.48.34,3.69,3.69,0,0,1-.81-.12,2.62,2.62,0,0,0,2,1.86.5.5,0,0,1,.4.47.49.49,0,0,1-.36.48,3.09,3.09,0,0,1-.74.12,2.65,2.65,0,0,0,2.13,1.15.49.49,0,0,1,.29.87,6.79,6.79,0,0,1-3,1.34,8.46,8.46,0,0,0,2.83.49.49.49,0,1,1,0,1Z" transform="translate(-12.78 -11.67)"></path><path class="cls-1" d="M18.06,25.75a.49.49,0,0,1,0-1,8.33,8.33,0,0,0,8.41-8.41c0-.13,0-.26,0-.38a.49.49,0,0,1,.2-.42,3.44,3.44,0,0,0,.36-.28l-.25,0a.49.49,0,0,1-.52-.32.51.51,0,0,1,.21-.58,1.61,1.61,0,0,0,.3-.21l-.56.14a.5.5,0,0,1-.45-.15A2.65,2.65,0,0,0,21.18,16a3.07,3.07,0,0,0,.07.6.46.46,0,0,1-.1.42.52.52,0,0,1-.4.18,9.26,9.26,0,0,1-3.82-1,.49.49,0,1,1,.45-.87,8.31,8.31,0,0,0,2.83.87c0-.06,0-.12,0-.17a3.62,3.62,0,0,1,6.06-2.68,5.7,5.7,0,0,0,1.58-.64.46.46,0,0,1,.55,0,.49.49,0,0,1,.17.53,3.89,3.89,0,0,1-.29.66l0,0a.49.49,0,0,1,.61.72,6.91,6.91,0,0,1-1.47,1.58v.17A9.66,9.66,0,0,1,25,22.68,9,9,0,0,1,18.06,25.75Z" transform="translate(-12.78 -11.67)"></path><path class="cls-1" d="M13.54,16a3.83,3.83,0,0,1-.12-1v-.16l1,0a.49.49,0,0,0,0,.12,2.37,2.37,0,0,0,.1.7Z" transform="translate(-12.78 -11.67)"></path><path class="cls-1" d="M16.93,16.17a9.6,9.6,0,0,1-1.88-1.28l.64-.74a8.69,8.69,0,0,0,1.69,1.15Z" transform="translate(-12.78 -11.67)"></path><circle class="cls-2" cx="1.58" cy="1.94" r="0.79"></circle><path class="cls-1" d="M44.66,25.89c-1.8,0-2,0-2.75,0a5.1,5.1,0,0,1-1.76-.34,3.53,3.53,0,0,1-1.34-.87,3.76,3.76,0,0,1-.88-1.34,5.4,5.4,0,0,1-.34-1.76c0-.72,0-1,0-2.76s0-2,0-2.75a5.46,5.46,0,0,1,.34-1.77l.9.35a4.36,4.36,0,0,0-.28,1.46c0,.7,0,.93,0,2.71s0,2,0,2.71A4.36,4.36,0,0,0,38.83,23a2.62,2.62,0,0,0,.65,1,2.81,2.81,0,0,0,1,.66,4.47,4.47,0,0,0,1.46.27c.7,0,.93,0,2.71,0s2,0,2.72,0a4.36,4.36,0,0,0,1.45-.27A2.94,2.94,0,0,0,50.5,23a4.62,4.62,0,0,0,.28-1.46c0-.69,0-.93,0-2.71s0-2,0-2.71a4.62,4.62,0,0,0-.28-1.46,2.81,2.81,0,0,0-.66-1,2.62,2.62,0,0,0-1-.65,4.35,4.35,0,0,0-1.45-.28c-.7,0-.94,0-2.72,0s-2,0-2.71,0a4.46,4.46,0,0,0-1.46.28l-.34-.9a5.35,5.35,0,0,1,1.76-.34c.71,0,1,0,2.75,0s2,0,2.76,0a5.4,5.4,0,0,1,1.76.34,3.88,3.88,0,0,1,1.34.87,3.69,3.69,0,0,1,.87,1.34A5.21,5.21,0,0,1,51.73,16c0,.71,0,.95,0,2.75s0,2,0,2.76a5.15,5.15,0,0,1-.34,1.76,3.84,3.84,0,0,1-2.21,2.21,5.15,5.15,0,0,1-1.76.34C46.7,25.89,46.47,25.89,44.66,25.89Z" transform="translate(-12.78 -11.67)"></path><path class="cls-1" d="M44.66,15.93a2.85,2.85,0,1,1-2.85,2.85,2.85,2.85,0,0,1,2.85-2.85m0-.68a3.54,3.54,0,1,0,3.54,3.53,3.53,3.53,0,0,0-3.54-3.53Z" transform="translate(-12.78 -11.67)"></path><circle class="cls-1" cx="35.56" cy="3.44" r="0.83"></circle><circle class="cls-2" cx="26.45" cy="1.67" r="0.78"></circle><path class="cls-1" d="M26.52,47.55H14.84a1.2,1.2,0,0,1-1.19-1.19V35.48h.93V46.36a.26.26,0,0,0,.26.26H26.52a.27.27,0,0,0,.27-.26V34.68a.27.27,0,0,0-.27-.27h-11v-.92h11a1.19,1.19,0,0,1,1.19,1.19V46.36A1.19,1.19,0,0,1,26.52,47.55Z" transform="translate(-12.78 -11.67)"></path><path class="cls-1" d="M23.51,47.08h-.66v-5.4H24.6l.18-1.33H22.85v-1.6c0-.55.14-1.29,1.31-1.29h.72V36.31c-.29,0-.72,0-1.2,0a2.07,2.07,0,0,0-2.22,2.29v1.79h-1.7v1.33h1.7v5.4H20.8V42.34H19.09V39.69H20.8V38.56a2.7,2.7,0,0,1,2.88-3,14.42,14.42,0,0,1,1.57.08l.29,0v2.39H24.16c-.59,0-.65.19-.65.63v.94h2l-.34,2.65H23.51Z" transform="translate(-12.78 -11.67)"></path><circle class="cls-2" cx="1.46" cy="22.55" r="0.75"></circle><path class="cls-1" d="M44.75,46.52a43.53,43.53,0,0,1-6-.33,2.34,2.34,0,0,1-1.66-1.66,19.47,19.47,0,0,1-.33-3.75A22,22,0,0,1,37,37.32l.93.19a20.71,20.71,0,0,0-.25,3.27,18.93,18.93,0,0,0,.3,3.51,1.41,1.41,0,0,0,1,1,41.12,41.12,0,0,0,5.76.3,41.12,41.12,0,0,0,5.76-.3,1.41,1.41,0,0,0,1-1,20.63,20.63,0,0,0,0-7,1.4,1.4,0,0,0-1-1,42.69,42.69,0,0,0-5.76-.3,50.91,50.91,0,0,0-5.55.26L39,35.31A51.22,51.22,0,0,1,44.75,35a45.18,45.18,0,0,1,6,.33A2.37,2.37,0,0,1,52.42,37a21.42,21.42,0,0,1,0,7.49,2.34,2.34,0,0,1-1.66,1.66A43.53,43.53,0,0,1,44.75,46.52Z" transform="translate(-12.78 -11.67)"></path><path class="cls-1" d="M42.91,43.62V37.94l4.92,2.84Zm.67-4.52v3.36l2.9-1.68Z" transform="translate(-12.78 -11.67)"></path><path class="cls-1" d="M42.91,43.62V37.94l4.92,2.84Zm.67-4.51v3.35l2.9-1.68Z" transform="translate(-12.78 -11.67)"></path><circle class="cls-2" cx="25.25" cy="24.62" r="0.76"></circle></svg> 