<?xml version="1.0" encoding="UTF-8"?> <svg xmlns="http://www.w3.org/2000/svg" id="layer" viewBox="0 0 599.9 61.3"><title>Devialet logo</title><path d="M121.4,31.7h43.3V41.9H131.8V53.6h32.6V63.8H131.8V75.5h32.6V85.7H121.1v-54ZM499.3,85.4h43.3V75.2H510V63.7h32.6V53.5H510v-12h32.6V31.3H499v54h.3ZM226.4,67.9,208.6,31.7H196.9l29.3,60.9,29.6-60.9h-12Zm61.4,17.8h10.7V31.4H287.8Zm75.2-54,26.5,53.8H377.8l-6.6-13.2H346.7l-6.6,13.2H328.4l26.2-53.8ZM366.3,62l-7.1-14.5-7.1,14.3Zm63.4-30.3H419V85.5h42.8V75.3H429.7V31.7Zm150.1,0V41.9h20.6V85.5h10.7V41.7h20.6V31.5h-52ZM88.1,58.4c0,15.5-10.4,26.8-28,26.8H31.8V80.6h4.8V36.3H31.8V31.7H60C77.4,31.7,88.1,43.1,88.1,58.4Zm-10.7,0c0-9.7-6.1-16.6-17.1-16.6H47.5V75H60.2C71.5,75,77.4,68.4,77.4,58.4Z" transform="translate(-31.8 -31.3)"></path></svg> 