<?xml version="1.0" encoding="UTF-8"?> <svg xmlns="http://www.w3.org/2000/svg" id="Layer_1" data-name="Layer 1" viewBox="0 0 492.92 125.58"><defs><style>.cls-1{fill:#fff;}</style></defs><title>Mondelez logo_white</title><path class="cls-1" d="M103.65,149.94h0c-2.22,2.27-5.55,3-7.77,3.4a13.63,13.63,0,0,1-11.46-4.53c-2.22-3-3.33-6.81-5.55-9.83-3.7-4.54-9.25-7.94-14.79-6.81-11.47,2.27-16.27,16.64-10.36,26.47,9.25,14,30,11.72,40.68,1.89A50.89,50.89,0,0,0,103.65,149.94Z" transform="translate(-51.18 -66.76)"></path><path class="cls-1" d="M491.59,149.94h0c2.22,2.27,5.55,3,7.4,3.4a13.24,13.24,0,0,0,11.46-4.53c2.22-3,3.33-6.81,5.55-9.83,3.69-4.54,9.24-7.94,15.16-6.81,11.46,2.27,16.66,16.64,10,26.47-9.24,14-29.95,11.72-40.68,1.89A49.71,49.71,0,0,1,491.59,149.94Z" transform="translate(-51.18 -66.76)"></path><path class="cls-1" d="M453.5,74.7H425.39c-3,0-5.55,3-5.55,6,0,3.4,2.59,6.43,5.55,6.8H453.5c3-.37,5.17-3.4,5.54-6.42C459,78.1,456.46,74.7,453.5,74.7Z" transform="translate(-51.18 -66.76)"></path><path class="cls-1" d="M279.31,138.22h0a26,26,0,0,1-.74-5.3v-8.69c.37-11,2.22-29.87-11.46-29.87-9.25,0-14.79,8.32-16.28,11-.37-7.57-5.91-12.86-14.42-12.86-5.54,0-8.87,4.54-8.87,4.54s5.54,1.89,5.54,9.45V139a8.88,8.88,0,1,0,17.75,0V115.16c.75-3.79,2.6-7.94,5.92-7.94,3.7,0,4.07,4.91,4.07,4.91v22.69a4.85,4.85,0,0,0,.37,2.26,11.29,11.29,0,0,0,.74,3.41c2.22,4.54,7,7.56,13.31,7.56,5.55,0,8.88-4.54,8.88-4.54A8.63,8.63,0,0,1,279.31,138.22Z" transform="translate(-51.18 -66.76)"></path><path class="cls-1" d="M411,138.22h0a25.51,25.51,0,0,1-.37-5.3V76.59A9.66,9.66,0,0,0,401,66.76c-5.18,0-9.24,4.16-9.24,9.83V126.5c0,4.54-.37,9.07,1.48,13.23,2.21,4.92,7.39,8.32,13.68,8.32,5.55,0,8.88-4.54,8.88-4.54A8.63,8.63,0,0,1,411,138.22Z" transform="translate(-51.18 -66.76)"></path><path class="cls-1" d="M202.39,94h0c-14,0-25.52,12.1-25.52,26.85,0,15.12,11.47,27.22,25.52,27.22s25.52-12.1,25.52-27.22C227.91,106.08,216.44,94,202.39,94Zm.37,42.73h-.37c-4.81-.38-7-6.05-7-15.88,0-9.46,3-15.5,7-15.5h.37c4.07,0,7,6,7,15.5C209.78,130.66,207.57,136.33,202.76,136.71Z" transform="translate(-51.18 -66.76)"></path><path class="cls-1" d="M336.26,138.22h0c-.36-1.89-.36-3.4-.73-5.3V76.59c0-5.67-4.08-9.83-9.25-9.83S317,70.92,317,76.59v26.84c-2.23-3.4-7.4-9.07-15.17-9.07-21.45,0-22.56,40.84-8.13,50.67a18.26,18.26,0,0,0,15.16,2.26c3.33-.75,8.51-4.15,9.24-8.31a1.16,1.16,0,0,1,.37.75,14.7,14.7,0,0,0,13.68,8.32c5.55,0,8.88-4.54,8.88-4.54A8.63,8.63,0,0,1,336.26,138.22Zm-27.73-3.4h0c-4.81,0-7.4-5.29-7.4-13.61s3.33-13.62,7.4-13.62h0c4.07,0,7.39,5.3,7.39,13.62S313.34,134.82,308.53,134.82Z" transform="translate(-51.18 -66.76)"></path><path class="cls-1" d="M385.08,131.41h0s-3,3.79-13.31,3.79c-10.73,0-12.95-8.7-12.95-8.7,15.54,0,28.48-1.13,28.48-14.37C387.3,98.52,372.87,94,364.74,94c-14.05,0-24,12.1-24,27.61,0,17.39,12.95,26.46,24,26.46C384,148.05,385.08,131.41,385.08,131.41ZM357.72,117.8h0c.37-4.15,1.47-9.45,5.17-12.1a4.68,4.68,0,0,1,7,4.16c.37,4.54-2.22,7.19-5.92,7.94C363.63,117.8,357.72,118.18,357.72,117.8Z" transform="translate(-51.18 -66.76)"></path><path class="cls-1" d="M459.78,131.41h0s-2.95,3.79-13.31,3.79c-10.72,0-12.94-8.7-12.94-8.7,15.53,0,28.47-1.13,28.47-14.37C462,98.52,447.58,94,439.45,94c-14.06,0-24,12.1-24,27.61,0,17.39,12.94,26.46,24,26.46C458.67,148.05,459.78,131.41,459.78,131.41ZM432.42,117.8h0c.37-4.15,1.48-9.45,5.17-12.1a4.68,4.68,0,0,1,7,4.16c.37,4.54-2.22,7.19-5.92,7.94C438.33,117.8,432.42,118.18,432.42,117.8Z" transform="translate(-51.18 -66.76)"></path><path class="cls-1" d="M494.92,132.55H484.19c.74,0,8.51-6.81,11.09-9.45,7-6,19.24-15.13,15.54-26.47a8.87,8.87,0,0,0-2.59-4.16,6.22,6.22,0,0,1-3.33,3c-1.11.38-1.85.38-3,.76H472a7.19,7.19,0,0,0,0,14.37h16.64c-7.76,4.91-17,10.21-21.82,18.91-2.59,4.53-5.55,12.1-4.44,17.76,3.7-3.4,13.69-6.8,21.08-5.29a27.23,27.23,0,0,1,8.14,3.78c14.05,9.45,22.56-9.07,15.9-17C507.49,128.77,503.42,132.55,494.92,132.55Z" transform="translate(-51.18 -66.76)"></path><path class="cls-1" d="M178.35,144.27h0c-8.5-10.21-11.09-26.84-11.83-38.19-.37-9.45,0-26.08,7-31-2.21-3.4-7-4.54-10.35-4.54-8.14,0-11.84,5.67-14.79,9.83-.74,1.14-14.43,21.18-14.43,21.18S122.88,82.64,121.4,80.37c-1.85-3-5.55-8.69-11.84-9.45-2.58-.76-10-1.14-13.68,4.53,6.66,5.68,6.66,20.42,5.18,30.25-4.44,29.5-16.27,32.14-16.27,32.14,5.91,17.39,21.45,10.59,25.88-3.4a117.56,117.56,0,0,0,5.18-29.87l17,28,19.6-28c-3.32,49.53,12.58,63.52,26.26,63.52,14.05,0,18.86-13.61,18.86-13.61C189.82,154.1,183.53,149.94,178.35,144.27Z" transform="translate(-51.18 -66.76)"></path><path class="cls-1" d="M221.62,160.15h0a4.9,4.9,0,0,1,.37,2.27v26.09a4,4,0,0,0,3.7,3.78c2.22.38,4.07-1.51,4.44-3.78V165.07a15,15,0,0,0-.74-5.68,7,7,0,0,0-5.92-3.4,5.21,5.21,0,0,0-3.7,1.89A2.8,2.8,0,0,1,221.62,160.15Z" transform="translate(-51.18 -66.76)"></path><path class="cls-1" d="M475,188.13h0a4.9,4.9,0,0,1-.37-2.27V159.77a4.09,4.09,0,0,0-4.07-3.78c-1.85,0-4.07,1.89-4.07,3.78v23.44a15.07,15.07,0,0,0,.74,5.68c.74,1.89,3.33,3.4,5.92,3.4a5.18,5.18,0,0,0,3.69-1.89A2.79,2.79,0,0,1,475,188.13Z" transform="translate(-51.18 -66.76)"></path><path class="cls-1" d="M330.35,169.22h0c-4.07,0-6.66,3.79-7.4,4.92v-2.27a3.75,3.75,0,0,0-3.7-3.78,3.63,3.63,0,0,0-4.07,3.78v16.64a4,4,0,0,0,3.7,3.78c1.85.38,4.07-1.51,4.07-3.78V178.3c.37-1.51,1.48-3.4,2.59-3.4,1.85,0,1.85,2.26,1.85,2.26v11.35c.37,1.89,2.22,3.78,4.06,3.78,1.86.38,4.08-1.51,4.08-3.78v-6C335.53,176.41,336.26,169.22,330.35,169.22Z" transform="translate(-51.18 -66.76)"></path><path class="cls-1" d="M432.42,169.22h0c-4.07,0-6.66,3.79-7.4,4.92v-2.27a3.75,3.75,0,0,0-3.7-3.78c-2.22-.38-4.06,1.51-4.43,3.78v16.64c.37,1.89,2.21,3.78,4.06,3.78,1.85.38,4.07-1.51,4.07-3.78V178.3c.37-1.51,1.48-3.4,2.59-3.4,1.85,0,1.85,2.26,1.85,2.26v11.35c0,1.89,2.22,3.78,4.07,3.78,1.85.38,4.06-1.51,4.06-3.78v-6C437.59,176.41,438,169.22,432.42,169.22Z" transform="translate(-51.18 -66.76)"></path><path class="cls-1" d="M249.36,169.22h0c-4.07,0-6.66,3.79-7.4,4.92v-2.27a3.75,3.75,0,0,0-3.7-3.78c-2.22-.38-4.07,1.51-4.44,3.78v16.64c.37,1.89,2.22,3.78,4.07,3.78,1.85.38,4.07-1.51,4.07-3.78V178.3c.37-1.51,1.11-3.4,2.59-3.4,1.85,0,1.85,2.26,1.85,2.26v11.35a4.09,4.09,0,0,0,4.06,3.78c1.86.38,4.07-1.51,4.07-3.78v-6C254.53,176.41,254.9,169.22,249.36,169.22Z" transform="translate(-51.18 -66.76)"></path><path class="cls-1" d="M403.57,168.09h0c-6.29,0-11.46,5.29-11.46,12.1s5.17,12.1,11.46,12.1,11.1-5.3,11.1-12.1S409.86,168.09,403.57,168.09Zm0,19.28h0c-2.22-.38-3.33-3-3.33-7.18s1.48-6.81,3.33-6.81h0c1.85,0,3.33,2.65,3.33,6.81S405.79,187,403.57,187.37Z" transform="translate(-51.18 -66.76)"></path><path class="cls-1" d="M361,171.49h0a4.42,4.42,0,0,0-4.07-4.16,4.47,4.47,0,0,0-4.43,4.16v.76c-1.11-1.51-3.33-4.16-6.66-4.16-9.62,0-10.35,18.15-3.7,22.69a7.21,7.21,0,0,0,6.66,1.13,9.53,9.53,0,0,0,4.07-2.65,4,4,0,0,0,3.69,3c2.22.38,4.44-1.89,4.44-4.16Zm-12.2,14.75h0c-2.22,0-3.33-2.27-3.33-6.05s1.48-6.05,3.33-6.05h0c1.85,0,3.33,2.27,3.33,6.05S351.06,186.24,348.84,186.24Z" transform="translate(-51.18 -66.76)"></path><path class="cls-1" d="M462.74,171.49h0a4.11,4.11,0,0,0-3.7-4.16,4.49,4.49,0,0,0-4.44,4.16v.76c-1.1-1.51-3.32-4.16-6.65-4.16-9.62,0-10.36,18.15-3.7,22.69a7,7,0,0,0,6.66,1.13,8.35,8.35,0,0,0,3.69-2.65c.75,1.52,2.23,3,4.07,3,1.85.38,4.07-1.89,4.07-4.16Zm-12.2,14.75h0c-1.85,0-3-2.27-3-6.05s1.11-6.05,3-6.05h0c2.22,0,3.33,2.27,3.33,6.05S452.76,186.24,450.54,186.24Z" transform="translate(-51.18 -66.76)"></path><path class="cls-1" d="M389.52,173.76h0a3.75,3.75,0,0,0-3.7-3.78h-.37a4,4,0,0,0-3.7,3.78v14.75c0,1.89,1.48,3.78,3.33,3.78h.37a4.07,4.07,0,0,0,4.07-3.78V173.76Z" transform="translate(-51.18 -66.76)"></path><path class="cls-1" d="M389.52,163.17h0a4.15,4.15,0,0,1-4.07,4.16c-2.22,0-3.7-1.89-3.7-4.16s1.48-4.15,3.7-4.15A4.15,4.15,0,0,1,389.52,163.17Z" transform="translate(-51.18 -66.76)"></path><path class="cls-1" d="M308.53,168.85h0c-2.22,0-3.33,1.89-5.18,4.53v-1.13a4.11,4.11,0,0,0-3.7-4.16,4.42,4.42,0,0,0-4.07,4.16v16.26a3.75,3.75,0,0,0,3.7,3.78,3.63,3.63,0,0,0,4.07-3.78V178.3c.37-1.51.74-3.4,2.22-3.4s-.37,4.15,3.33,4.15C314.44,179.05,314.81,168.47,308.53,168.85Z" transform="translate(-51.18 -66.76)"></path><path class="cls-1" d="M292.26,184.73h0s-1.12,1.89-5.92,1.89-5.92-3.78-5.92-3.78c7,0,12.95-.76,12.95-6.81s-6.29-7.94-10-7.94c-6.29,0-10.73,5.29-10.73,12.48,0,7.94,5.92,11.72,10.73,11.72C291.88,192.29,292.26,184.73,292.26,184.73Zm-12.21-6h0c.37-1.89.74-4.16,2.22-5.3a2.18,2.18,0,0,1,3.33,1.89,3.31,3.31,0,0,1-2.59,3.41C282.64,179.05,280.05,179.05,280.05,178.68Z" transform="translate(-51.18 -66.76)"></path><path class="cls-1" d="M271.92,187.75h0s-1.85,4.54-5.92,4.54c-3,0-7-3-7-7.19V173.76h-1.11c-.74,0-1.48-.38-1.48-1.89a1.7,1.7,0,0,1,1.48-1.89H259v-3.4A3.63,3.63,0,0,1,263,162.8a4,4,0,0,1,3.7,3.78V170h3.33c.74,0,1.85,0,1.85,1.89a1.74,1.74,0,0,1-1.85,1.89h-3.33v9.45C266.74,186.24,269.33,187.75,271.92,187.75Z" transform="translate(-51.18 -66.76)"></path><path class="cls-1" d="M378.79,187.75h0s-2.21,4.54-5.92,4.54a7.35,7.35,0,0,1-7-7.19c-.37,0-.37-6.42-.37-11.34h-1.11a1.7,1.7,0,0,1-1.48-1.89,1.74,1.74,0,0,1,1.85-1.89h.74v-3.4c.37-2.27,2.22-4.16,4.44-3.78a4,4,0,0,1,3.7,3.78V170h3.32c.37,0,1.48,0,1.48,1.89a1.7,1.7,0,0,1-1.48,1.89h-3.32v9.45C373.62,186.24,376.21,187.75,378.79,187.75Z" transform="translate(-51.18 -66.76)"></path></svg> 