<?xml version="1.0" encoding="UTF-8"?> <svg xmlns="http://www.w3.org/2000/svg" id="Layer_1" data-name="Layer 1" viewBox="0 0 107.57 119"><defs><style>.cls-1{fill:#6e777e;}</style></defs><path class="cls-1" d="M13.85,104.62a20.14,20.14,0,0,1-.83-2.75c-.3-2.06.77-3.42,1.76-3.73s1.55.25,2,1.54c.55,2,.62,4.57.43,8.27C17,113,14.41,119.13,8.12,119c-5.43-.12-7.84-3.64-8.09-9a24.81,24.81,0,0,1,1.11-8.64c.56-1.91,1.06-2.6,2.78-3,1.36-.25,1.23,1.17.93,2.84a32.76,32.76,0,0,0-.74,9.69c.24,4.44,2.28,6.17,4.5,6.17,3.34.06,4.82-2.71,5.44-6.73A11.71,11.71,0,0,0,13.85,104.62ZM84.92,109c1.3,0,1.67,1.53,1.36,2.46a4,4,0,0,1-3.15,2.29C82.76,112.83,82.57,109,84.92,109ZM60.79,111.1c0-1-.56-1.91-1.23-1.91s-1.85.61-1.85,2.59a3.86,3.86,0,0,0,.8,2.6A3.21,3.21,0,0,0,60.79,111.1ZM41.59,98.51a1.8,1.8,0,0,0-1.91-1.66,2.46,2.46,0,0,0-2.16,2.77,1.82,1.82,0,0,0,1.86,1.86C40.73,101.48,41.72,99.93,41.59,98.51Zm10,3.63c-.11-1.73-.52-2.51-1.45-2.45-1.23.08-1.8,4-1.55,8,.16,2.65.56,3.06.93,3C50.24,110.69,51.87,106,51.63,102.14Zm40.94,6.49c-.76,3.18-3.08,7.84-6.54,7.84-.8,0-2.22-.31-2.22-1.11s5.43-1,5.43-5.12a3.84,3.84,0,0,0-3.52-3.7c-2.77,0-5.48,3-5.48,7.22,0,3.76,2.33,5,4.68,5,4.07,0,6.54-3.34,7.84-6.11.62,1.85,1,6.11,2.53,6.11.62,0,1-.31,1.79-2,1.85-4.14,3.64-8.89,6.11-8.89.92,0,.37,1.67,2.59,1.67a1.8,1.8,0,0,0,1.79-1.85c0-1.42-1.3-2.53-3.27-2.53-5.8,0-7,8.7-8,8.7-1.54,0-1-7-2.16-7S92.7,108.08,92.57,108.63ZM43.2,116A4.33,4.33,0,0,0,47,113.73a22.8,22.8,0,0,1-1.3-6c-.37-6,1.94-11.61,4.46-11.77,1.85-.11,3.33,1.64,3.5,4.48.46,7.45-2,10.57-3.27,13.25A4.42,4.42,0,0,0,54,116.53a2.4,2.4,0,0,0,1.55-.55,6,6,0,0,1-.25-1.79c0-4.32,2.78-8,5.18-8,1.92,0,3,2.53,3,4.2,0,2-1.67,3.58-4.14,5.13a3,3,0,0,0,1.92.74c3.52,0,5.36-4.26,6.72-8.15.25-.74.68-1.79,1.55-1.79,1.48,0,2.1,9.75,4.56,9.75,1,0,1.91-2.16,1.91-3.82,0-1.24-.43-1.36-.43-3.15,0-2,1.05-3.64,2.48-3.64.86,0,1.17.86,1.17,1.9,0,4-2.84,11.3-7,11.3-3.16,0-2.91-5.43-4-5.43s-3,5.49-9.07,5.49a3.91,3.91,0,0,1-2.9-1.48,7.11,7.11,0,0,1-4.14,1.42c-2.28,0-3.27-2.34-4.19-2.34-1.12,0-2.35,2.4-6.06,2.4-3,0-3.45-3.94-4.5-3.94s-2.35,3.94-3.89,3.94c-2.59,0-3.14-6.85-5.43-6.85-1.79,0-7.45,7-9,6.8-.62-.06-.88-.52-.81-1.14a40.62,40.62,0,0,1,1.12-4.22c.5-1.88.95-3.94,1.21-4.59a1.63,1.63,0,0,1,1.49-1.09c.28,0,.36.55.45,1,.31,1.53.74,3.09,1.23,3.09.87,0,3.73-5.5,5.4-5.5,2,0,2.28,8.64,5.06,8.64.93,0,1.61-1.1,2.22-2.47.07-2.28.68-5.55,2.53-5.55,1.3,0,1.92,2.9,1,5.43,0,3,2,3.77,3.27,3.77" transform="translate(0)"></path><path class="cls-1" d="M86.19,19.25a1.42,1.42,0,0,1-1.48-.72c-.29-.59-.19-1.54-.75-2a5.82,5.82,0,0,0,1.6.16c1.48,0,2.89-1,4-1a.85.85,0,0,1,1,.91C90.48,18.08,87.57,19.25,86.19,19.25Zm.72,3.7c3.4,0,6.52-2.71,6.52-5.1a2,2,0,0,0-1.87-2.2,1.45,1.45,0,0,1,.32,1c0,1.8-2.74,3.8-5.72,3.8a1.25,1.25,0,0,0-1.41,1.15C84.75,22.56,85.63,23,86.91,23Zm-.26,1.38c.42,3.11,5.14,7.3,6.41,7.2.86-.07,1.19-4.06,1.19-7.2,0-1.8.09-3.21-.86-3.54-1.51,3.05-5.46,3.67-6.74,3.54" transform="translate(0)"></path><path class="cls-1" d="M12.93,44.93c1.12,0,.89-6.81,2.69-6.81.42,0,.55.42.55,1,0,1.54-.75,3.8-.75,5,0,.62.16.82.46.82.79,0,2.16-7.5,3.5-7.5.43,0,.63.42.63.85,0,1.57-2,6.09-2,7.37,0,.2.06.36.23.36.82,0,2.45-3.54,3-5.3.29-.92.69-1.41,1.05-1.41s.62.36.62,1.11c0,1.77-1.64,5.93-3.08,8.71-1.11,2.16-2.85,5.27-2.85,7A3.46,3.46,0,0,0,18.4,59c-2.1-.13-2.95-.32-3.73-2-3.51,7,6.45,6.29,3,12.47-.62-1.11-5.53-2.25-5.53-8.74,0-5.6,4.91-8.87,4.91-11.2a1.48,1.48,0,0,0-.59-1.21c-1.08-.92-1.11-1.67-2-1.67-.62,0-1.38,1.44-.59,2.72.26.43.49.69.49,1.08,0,.92-1.44,3.37-2.46,3.37s-1.8-2.52-1.8-6.58c0-3.6.82-7.24,1.84-7.24.29,0,.39.2.39.46,0,.43-.13,1.28-.13,2.72s.36,1.67.65,1.67" transform="translate(0)"></path><path class="cls-1" d="M21.28,54.52c1.38,0,2.52-1,2.52-3.27V47.91a5.76,5.76,0,0,1,.95-3.74,6.52,6.52,0,0,0-.09,1.32c0,2.81,1.57,4.75,1.57,7.46,0,1-.3,1.57-1.08,1.57s-.69-.68-.86-.68-.32.42-.32.88a1.77,1.77,0,0,0,1.86,1.77A2.25,2.25,0,0,0,28,54.2c0-3-2.29-6.23-2.29-9.37a7.45,7.45,0,0,1,.65-3c0,6.52,5.54,11.26,5.54,14a1.1,1.1,0,0,1-1.15,1.12,1.07,1.07,0,0,1-1.11-1.05c0-.23,0-.3-.13-.3a1.68,1.68,0,0,0-.79,1.51,2.45,2.45,0,0,0,2.52,2.39,2.89,2.89,0,0,0,2.88-3c0-3.44-6.71-8.65-6.71-14.21a7.7,7.7,0,0,1,.85-3.67c-4.32,2.78-5.66,6.48-5.66,9.73,0,2.81-.1,4.22-1.54,4.22-.75,0-.95-.69-1.21-.69s-.3.59-.3.76a1.79,1.79,0,0,0,1.77,1.89" transform="translate(0)"></path><path class="cls-1" d="M70.9,17.65c.41-.28,2.26.16,4.65-1a1.77,1.77,0,0,1,.85-.22c1.15,0,.85,1.31,1.9,1.31.82,0,1.87-.69,2.49-.69,1,0,2.39,3.08,2.39,4.52,0,1.67-2.52,2.68-5.5,2.68-4.36,0-7-3.8-7-6.25A.35.35,0,0,1,70.9,17.65ZM78,21.81c1.44,0,2.52-.66,2.52-1,0-.13-.2-.23-.62-.23a18.08,18.08,0,0,1-2.89-.29c-1.37-.23-2.42-.76-2.82-.76-.13,0-.19.07-.19.17,0,.85,1.57,2.16,4,2.16" transform="translate(0)"></path><path class="cls-1" d="M22,66.87c-1.08.26-2.82,2-2.82,4.65,0,3.21,3.44,8.16,9.11,8.16,4.78,0,6-3.31,6-5.54,0-5-3-8.42-7-8.42a4,4,0,0,0-4.09,3.9A5.42,5.42,0,0,0,28.65,75a2.76,2.76,0,0,0,2.92-2.81,3.63,3.63,0,0,0-3.31-3.5,1,1,0,0,0-1,1c0,.78,1.08,1.57,2.43,1.57a1.7,1.7,0,0,0,.72-.13.84.84,0,0,1,.1.39c0,.76-.73,1.22-1.84,1.22a3.21,3.21,0,0,1-3.27-3.22c0-1.17,1-2,2.49-2,2.91,0,4.64,2.58,4.64,5.17,0,2.32-1.27,3.67-3.89,3.67-5.24,0-7.79-4.72-6.65-9.5" transform="translate(0)"></path><path class="cls-1" d="M59.35,86.06a15.49,15.49,0,0,0,2-.13c.49,0,.53.29.53.49,0,.72-1.61,1.6-4.46,1.6a2.89,2.89,0,0,1-3-1.86,12.85,12.85,0,0,1-6.58,2c-6.71,0-8.41-2.92-10.51-3.87-1.61-.72-4.06.69-7.5-3.14a8.12,8.12,0,0,0,1.57.13c3,0,4.62-1.47,4.62-3.83,0-.3,0-.62-.07-.92a6.49,6.49,0,0,1,3.51,4.72c.06.32,1.4.62,2.26.62a2.66,2.66,0,0,0,2.91-2.42c3.93-.33,6.59-2.65,7.14-5.61a7.8,7.8,0,0,1,3.41,2.4,5.77,5.77,0,0,1,2-.3,12.53,12.53,0,0,1,3.64.63c.06-.43.13-.95.78-.95,1,0,.72,1.08,1,1.7.16.32,1,.52,1,1.18a.83.83,0,0,1-.85.85,1.18,1.18,0,0,1-.39-.07c-.66.23-.69,5-3.44,5-2,0-3.9-1.67-4.72-3.77a1.4,1.4,0,0,0-1.18-1c-.52,0-.81.1-1.44.78a11.36,11.36,0,0,1-8.35,3.6c-1.11,0-2-.1-2.22-.1s-.14,0-.14.07c0,.23,1.12,1.11,3.54,1.11,5.76,0,7.17-3.24,8.09-3.24a.76.76,0,0,1,.75.53A6.44,6.44,0,0,0,59.35,86.06Zm-2.54-6.55a1.32,1.32,0,1,0,1.31-1.31,1.31,1.31,0,0,0-1.31,1.31" transform="translate(0)"></path><path class="cls-1" d="M82.75,63.17c-.46,0-1,.36-1,1.25A2.06,2.06,0,0,0,83,66.21a1.93,1.93,0,0,0,1,.27c.95,0,1.7-.27,1.7-1C85.63,64.42,84.16,63.17,82.75,63.17Zm-3.53,2c-.69,0-4.49,5.07-7,5.07-.58,0-1.08-1.11-1.08-2,0-.46.3-.78,1.35-1,5.63-1.28,4.38-5.51,9.19-5.51a5.5,5.5,0,0,1,5.61,5.87c0,4.32-6.16,9.69-7.07,9.69-.76,0-1.58-1.08-1.58-1.8,0-.23.1-.53.76-.79,3.14-1.25,4.94-4.13,4.94-5.6a.58.58,0,0,0-.59-.65c-.56,0-2.94,5.43-5.6,5.43-1.84,0-3.7-1.66-3.7-2.45,0-1.31,5.31-3.74,5.31-5.57,0-.69-.33-.72-.59-.72" transform="translate(0)"></path><path class="cls-1" d="M14.41,22.27a3.93,3.93,0,0,1-2.13.72,2.46,2.46,0,0,1-2.52-2.52,2.75,2.75,0,0,1,1.73-2.59,3.44,3.44,0,0,0,0,.55A3.82,3.82,0,0,0,14.41,22.27Zm7,6.29a6.21,6.21,0,0,0-1.47,3.76c0,1.77,1.08,3.24,2.75,3.24s2.36-1.37,2.36-2.78C25.05,30.59,23.05,29.05,21.41,28.56Zm-10.87,1.3a.76.76,0,0,0-.1.37.7.7,0,0,0,.63.62c.26,0,.42-.07.55-.07.79,0,1.67.56,3,.56a6.2,6.2,0,0,0,2.75-.79A6.83,6.83,0,0,0,20.6,26c0-.63-.5-.54-.92-1.12s-.26-1.07-.53-1.34a3,3,0,0,0-1.21-.23c-.2,0-.46,0-.72,0a6.62,6.62,0,0,0-3.8,1.05C10.58,26.11,11,29.11,10.54,29.86Zm7.7-4.06c.23.31.85.69.85.92,0,.46-.26,1.05-.79,1.05-1.14,0-2.06-1.74-2.06-2.72,0-.62.36-.69.85-.69a.77.77,0,0,1,.49.14C17.88,24.66,17.88,25.31,18.24,25.8Zm-3,4A2.69,2.69,0,0,1,13,27.24c0-.65.49-1.47.85-1.47.13,0,.19.1.23.33a3.72,3.72,0,0,0,2.22,3c.1.06.17.1.17.16C16.44,29.47,15.81,29.8,15.22,29.8ZM18,21.55a6.6,6.6,0,0,0,.29-1.9c0-1.57-.72-4-2.94-4a2.18,2.18,0,0,0-2.2,2.22C13.16,20.5,15.75,21.55,18,21.55ZM9.53,34.65c0,2.48.75,3.66,2.09,3.66,1.05,0,2.46-.75,4.13-2.19a14.85,14.85,0,0,1-3.14.49C11.43,36.61,10.51,36.15,9.53,34.65Zm1.14-2.92a2.74,2.74,0,0,0,0,.49c0,1.54.82,2.39,1.9,2.39A3.52,3.52,0,0,0,15.16,33a7.51,7.51,0,0,1-1.18.1A3.94,3.94,0,0,1,10.67,31.73Zm8-.46A3.12,3.12,0,0,0,16.37,34,1.93,1.93,0,0,0,18.43,36a2.19,2.19,0,0,0,1.28-.33,3.85,3.85,0,0,1-1.24-2.85A4.47,4.47,0,0,1,18.7,31.27Zm1.18-9A1.31,1.31,0,1,0,21.18,21,1.31,1.31,0,0,0,19.88,22.3Zm1.7,2.95a1.31,1.31,0,1,0,1.31-1.31,1.31,1.31,0,0,0-1.31,1.31" transform="translate(0)"></path><path class="cls-1" d="M72.67,41.33a1.25,1.25,0,0,1,1.23-1.21,1.24,1.24,0,1,1-1.23,1.21ZM61.17,31.24a1.31,1.31,0,1,0,1.31-1.31A1.31,1.31,0,0,0,61.17,31.24Zm-1.11,4.62A1.87,1.87,0,1,0,61.92,34,1.88,1.88,0,0,0,60.06,35.86Zm4.12-2.1a2,2,0,1,0,2-2A2,2,0,0,0,64.18,33.76Zm.17-4.26a1.24,1.24,0,1,0,1.24-1.24A1.25,1.25,0,0,0,64.35,29.5Zm5.93-3.14a1.25,1.25,0,1,0,1.24-1.24A1.23,1.23,0,0,0,70.28,26.36Zm-2.46,4a2.1,2.1,0,1,0,2.09-2.1A2.11,2.11,0,0,0,67.82,30.39Zm-3.37,7.66a1.31,1.31,0,1,0,1.3-1.31A1.31,1.31,0,0,0,64.45,38.05Zm4.29-2.62a1.31,1.31,0,1,0,1.31-1.31A1.31,1.31,0,0,0,68.74,35.43Zm-1.22,4.62a2.27,2.27,0,1,0,2.26-2.26A2.27,2.27,0,0,0,67.52,40.05Zm4.72-2.79a1.54,1.54,0,1,0,1.54-1.53A1.54,1.54,0,0,0,72.24,37.26Zm-.1-4.12a1.38,1.38,0,1,0,1.37-1.38,1.39,1.39,0,0,0-1.37,1.38" transform="translate(0)"></path><path class="cls-1" d="M75.48,76.11a9.7,9.7,0,0,1-6.16,2.12,8.15,8.15,0,0,1-2.81-.55c-.33,0-.69.32-1.05.75a7.38,7.38,0,0,0-1.8,4.49,2.69,2.69,0,0,0,2.91,2.61c6.13,0,10.71-3.83,10.71-6.94C77.28,76.83,76.23,76.11,75.48,76.11Zm-1.7-.36a1.22,1.22,0,0,0,.32-1V74c0-1-1.43-1.5-3.4-1.5-2.39,0-3.67,1.08-3.67,1.54v1.5c0,.63,1.44,1.25,3.21,1.25A5.5,5.5,0,0,0,73.78,75.75ZM73.51,79c.17,0,.36.09.36.69a2.86,2.86,0,0,1-1.5,2.42,6.36,6.36,0,0,1-3.57,1,7.72,7.72,0,0,0,.46-2.38,5.24,5.24,0,0,0-.07-.76h.43a7.41,7.41,0,0,0,3.89-1" transform="translate(0)"></path><path class="cls-1" d="M61,39c.36,2.78,4.09,1.37,4.09,4.75,0,.49-.13,1.21-.13,1.83s.07,1.34.62,1.34.69-.39.69-.91-.14-1.18-.14-1.54A1.27,1.27,0,0,1,67.46,43c1.24,0,2.19,1.28,4.06,1.28-.43,2.09-4.75,1.54-4.75,3.83,0,1.15,1.15,1.41,1.9,1.41s.92-.1.92-.69c0-.33-.07-.69-.07-.92a.26.26,0,0,1,.26-.26c.73,0,4.26,2.68,4.26,3.5s-3.73,1.51-4.81,1.51a.35.35,0,0,1-.4-.36c0-.23.56-.92.56-1.31s-.49-.49-1.8-.49c-.63,0-1.08.06-1.08.56,0,.88,1.44,2,1.44,2.78,0,.65-.4,1.05-1.44,1.05s-2.23-.69-2.23-1.84c0-.91,1-1.83,1-2.39a.46.46,0,0,0-.52-.42c-1.21,0-1.54,3.2-5.83,3.57a3.32,3.32,0,0,0,1.27-2.72c0-.69-.16-1.25-.16-2,0-1,.46-1.47,1.11-1.47,1.21,0,1.8,1.7,2.59,1.7a1,1,0,0,0,.89-1c0-2.49-4.79-2.13-4.79-5.64A8.09,8.09,0,0,1,61,39Zm15.62,9.59c0,.82.26,1.77,1.08,1.77s1.28-1,1.28-2.19c0-1.31-.23-2.33-.23-2.85,0-.23.1-.33.23-.33.49,0,1,1.38,1.47,1.38s1.47-1.09,1.83-1.09c.1,0,.13.14.13.17,0,.49-.75,1.57-.75,2s1.9.42,1.9.75c0,.49-2,.49-2.94.92s-1.48.88-1.48,1.54.66.78,1.57.78c2.19,0,3.73-1.18,4.22-1.18a.16.16,0,0,1,.17.17c0,.33-1.12,1.41-1.12,1.9s2,1.21,2,1.54c0,.09-.16.13-.39.13s-.92-.1-1.35-.1a.76.76,0,0,0-.59.16c-.22.26.07,2-.39,2s-1.54-3.86-4-3.86c-.37,0-.63.29-.63.78,0,1.31,1.28,2.82,2.49,3.54.55.36,1.47.72,1.47.92,0,.39-2.09,0-2.09.68s.26,1.48.26,2c0,.16,0,.36-.23.36-.39,0-1.34-1.8-1.8-1.8s-1.25,1.08-1.61,1.08a.19.19,0,0,1-.16-.2c0-.75,1.21-2.45,1.21-4.12,0-.79-.1-2.49-1-2.49-.78,0-1.67,1.24-2.06,2.49-.23.72-.07,3.5-.59,3.5s-.36-1.86-1-1.86c-.48,0-1.53.88-1.89.88-.07,0-.13,0-.13-.1,0-.39,1-1.67,1-1.93,0-.49-2.17-.56-2.17-.95,0-.23.86-.39,1.64-.53,1.67-.29,4.13-1.5,4.13-3.2,0-1.9-1.84-2.72-3-3.51-.62-.39-1.31-.72-1.31-1s.79-.26,1.12-.26c.49,0,1,0,1-.43s-.06-.88-.06-1.34,0-.59.16-.59c.49,0,1.18,1.6,1.51,1.6.52,0,1.25-1.31,1.74-1.31.16,0,.23.1.23.4,0,1.21-.62,2.58-.62,3.76" transform="translate(0)"></path><path class="cls-1" d="M62,57.63c1.51.2,1.87.72,1.87,1.15,0,.72-.66.95-1.28.95-.46,0-1-.1-1.54-.1a2.49,2.49,0,0,0-2,.85c.42.07,1.05.37,1.05,1,0,1.9-5.28.33-5.28,5.21,0,2.58,2.69,5.4,6.75,5.4,2.1,0,3.44-.69,3.44-1.47,0-.63-1.11-.2-1.11-.72,0-.23.39-.66.39-1,0-.16-.13-.46-.39-.46-.59,0-1.71,1-4,1-1.77,0-3.5-1-3.5-2.39,0-.29.13-.46.32-.46s.46.13.69.13.23-.13.23-.49,0-1.37.62-1.37S60,67.1,64.55,67.1c1.5,0,4.41-.29,5.5-1.28a8.52,8.52,0,0,1-8.75,8.35,9.24,9.24,0,0,1-9.4-9.43,9.64,9.64,0,0,1,9.7-9.56c1.44,0,2.65.49,2.65,1.11C64.25,57.15,62.12,56.62,62,57.63ZM72,59.37a2,2,0,0,1,.33,1.05c0,.92-.62,1.77-.62,2.72a2,2,0,0,0,2.06,2A2.27,2.27,0,0,0,76,62.74C76,61,74.46,59.53,72,59.37Zm-10.84,2.1a1.3,1.3,0,0,1,.43,1c0,.49-.23,1-.23,1.57a1.44,1.44,0,0,0,1.44,1.47,1.52,1.52,0,0,0,1.54-1.57C64.35,62.68,63.07,61.47,61.17,61.47Zm4.35-5.57c3.44.65,5.31,3.24,5.31,5.67A3,3,0,0,1,68,64.77a2.77,2.77,0,0,1-2.88-3c0-1.37,1.07-2.81,1.07-4.22A2.52,2.52,0,0,0,65.52,55.9Zm1.71,4.36a.78.78,0,0,0,.78.81.9.9,0,0,0,.86-1c0-.69-.63-1.64-1.22-1.64-.26,0-.16.4-.23.82s-.19.72-.19,1" transform="translate(0)"></path><path class="cls-1" d="M31.08,26.56c1.11,0,2.39-6,2.39-7,0-.27-.1-.46-.33-.46-1,0-2.42,5.73-2.42,7C30.72,26.3,30.78,26.56,31.08,26.56Zm8,1.8c.82,0,1.73-3.15,1.73-5.11,0-.43-.06-.88-.26-.88-.69,0-1.83,3.24-1.83,5C38.74,28.06,38.9,28.36,39.1,28.36Zm-5.34-2.92c.36,0,.82-.39,1.67-1.34a9.08,9.08,0,0,0,.06-1.31c0-.65-.26-1.37-.65-1.37-1,0-1.47,2.62-1.47,3.31C33.37,25.12,33.56,25.44,33.76,25.44Zm4.49-1.34c0-.56-.14-.69-.27-.69-.32,0-.68.4-1.21,1.28.07,1.18.26,1.7.59,1.7S38.25,25.25,38.25,24.1Zm2.52-3.86c2.16,0,3.14,1.86,3.14,4,0,.92-.26,2.26-.68,2.26s-.36-.75-.43-1.44c-.07-.89-.23-1.08-.53-1.08-.55,0-.91,1.31-.91,2.52,0,.75.13,1.6.72,1.6a1.18,1.18,0,0,0,.82-.36,2.93,2.93,0,0,1-2.82,2.82c-2.88,0-4-3.37-4.29-5.34-1.73,1.84-3.34,3.18-6.22,3.18a3.69,3.69,0,0,1-3.9-3.83c0-.56.2-2,.89-2s.1,2.68,1.7,2.68c.39,0,1.11-.32,1.51-1.4a6.06,6.06,0,0,0,.36-1.94c0-.88-.2-1.44-.85-1.44a2.58,2.58,0,0,0-1.48.66,4.94,4.94,0,0,1,4.78-3.57c2.59,0,4,2.29,4,4.85a6,6,0,0,1-.1,1.11c1.12-1.83,2.66-3.24,4.33-3.24" transform="translate(0)"></path><path class="cls-1" d="M34.64,29.05c-1.4,0-1.47,1.7-1.47,5.14-1.05-2.26-2.78-4.69-4.81-4.69-1.38,0-1.9.92-1.9,2.53a5.73,5.73,0,0,0,.1,1.11,1.24,1.24,0,0,1,1.34-.79,6,6,0,0,1,4.22,2.56,21.6,21.6,0,0,0-3.56-.46,4.27,4.27,0,0,0-1.74.29,4.37,4.37,0,0,0-2.23,4,7.47,7.47,0,0,0,.1,1.08c1.15-2.56,4.19-3.7,6.16-3.7a6.91,6.91,0,0,1,.92.06,5.35,5.35,0,0,0-1.32,3.6c0,.53-.22.56-.59.56,0,1.08.86,2.69.86,3.51a.71.71,0,0,1-.33.62c0,1.44,1.44,2.49,1.44,3.4a.78.78,0,0,1-.16.53c.1.59,1.68,1.58,1.88,2.08s.54.7.7.7c.56,0,1.44-.65,1.44-1.24a.78.78,0,0,0-.29-.53,4.8,4.8,0,0,1-1.21-2.09.61.61,0,0,1-.63-.48c-.18-.68-.19-2-.45-2.7-.43-.1-.63-.26-.63-1.15,0-.42.27-2.09.27-2.68a.47.47,0,0,1-.46-.53c0-1,1.05-1.86,1.34-3.2a4.79,4.79,0,0,1,2.32,4,8,8,0,0,1-.23,1.87c1.38-.69,3.44-1.7,3.44-3.77,0-1.21-.55-2.55-4.25-3.08a11.66,11.66,0,0,1,3.79-.65c2.1,0,3.31.65,3.57,2.13A4.08,4.08,0,0,0,43,35,2.78,2.78,0,0,0,40,32.32c-2,0-3.76,1-5.66,2.33.85-1.77,1.44-2.82,2.49-2.82a2.14,2.14,0,0,1,.49.07c-.4-1.45-1.87-2.85-2.66-2.85" transform="translate(0)"></path><path class="cls-1" d="M89.82,52.66c1.64,0,3,2.12,3,4.62a10.28,10.28,0,0,1-3.47,7.49c0-4.42-5.44-3-5.44-6.22A2.17,2.17,0,0,1,86,56.26a3.33,3.33,0,0,1,2.46.89,2.91,2.91,0,0,1-.88-2.1,2.22,2.22,0,0,1,2.22-2.39" transform="translate(0)"></path><path class="cls-1" d="M60.58,21.55a3.47,3.47,0,0,0,2.52,1.18c.36,0,.79-.1,1-.1s.49.13.49.36a2.08,2.08,0,0,1-.72,1.28,3.35,3.35,0,0,0,1.28.22,3.85,3.85,0,0,0,4-4.12,4.4,4.4,0,0,1,.62,2.1c0,3.56-2.62,4.94-5,4.94a7.06,7.06,0,0,1-2.56-.53c-.62,0-.59,1.25-1,1.22-.76-.13-1.44-1.8-1.44-3.57A5.19,5.19,0,0,1,60.58,21.55Zm4.94-2.39a2.42,2.42,0,0,0-1.69-.66,2.66,2.66,0,0,0-2.63,1.93A3.05,3.05,0,0,1,61,19.32a3.17,3.17,0,0,1,3.38-3.21,5.8,5.8,0,0,1,3.21,1.11c.32,0,.65-.32.91-.32s.36.55.36,1c0,1.31-.59,3.57-2.06,4.39a3.38,3.38,0,0,0-1.63-1.58.51.51,0,0,1-.33-.49,1.32,1.32,0,0,1,.71-1" transform="translate(0)"></path><path class="cls-1" d="M37.82,12c0,1.14,4.09,6.74,4.88,6.74s1.15-1.14,1.15-2.13a1.34,1.34,0,0,0-.2-.72c-.59-.82-4.75-4.09-5.67-4.09A.18.18,0,0,0,37.82,12ZM13.75,8.64c0,.66-2.49,2.85-3.37,2.85-.33,0-.43-.39-.43-.75a2.94,2.94,0,0,1,.66-1.87,3.65,3.65,0,0,1,2.16-.58C13.23,8.29,13.75,8.38,13.75,8.64Zm29.9,1.9c0-2-5.31-5.53-5.37-7.07a.58.58,0,0,1,.19-.41c.91-1,4.69-1.66,4.69-2.47,0-.43-.79-.43-1.18-.43-3,0-7.5,1.12-7.5,2.2s4,3.83,4,5.17c0,.36-.23.49-.59.49-1.11,0-3.53-1.34-4.68-1.34-.52,0-.72.36-.72.89,0,1.57,1.87,4.55,1.87,5.43,0,.1,0,.23-.17.23-.59,0-3.37-3.28-4.35-3.28-.36,0-.4.49-.4,1.22v1.11c0,.75,0,1.21-.39,1.21-.85,0-1.24-2.39-2.06-2.39s-1,4.26-1.83,4.26-.14-4.69-1-4.69-2.16,3.12-2.89,3.12c-.26,0-.32-.27-.32-.5,0-.95.55-2.48.55-3.4,0-.46-.13-.72-.52-.72-1,0-3.24,1.64-4.09,1.64-.13,0-.3-.07-.3-.2,0-.79,3.57-3.27,3.57-4.39s-4.91-.36-4.91-1.6c0-1.05,3.5-2.13,3.5-3.21S14.53,0,12.93,0C11,0,10,.26,10,.82c0,.85,4.39,1.11,4.39,1.86S9.79,5.34,9.79,6.45s6.41.06,6.41,1.08-5.59,5.93-5.59,7.53c0,.36.26.53.62.53,1.7,0,6.12-3.25,7.33-3.25.43,0,.46.53.46,1,0,.85-.29,2.16-.29,3.11,0,.75.19,1.28.85,1.28,1.21,0,2.32-2.07,3.14-2.07,1.05,0,.43,6.06,2,6.06,1.34,0,1.9-6.55,2.75-6.55s1.54,1.9,2.33,1.9c1,0,.52-3.31,1.57-3.31s4.42,3.93,5.89,3.93c.46,0,.62-.36.62-.82,0-1.73-2.42-5.66-2.42-6.9,0-.33.1-.43.46-.43,1.28,0,5,1.77,6.78,1.77C43.29,11.3,43.65,11,43.65,10.54ZM40.24,4.06c0,.59,2.07,1.87,3,1.87.55,0,.72-.76.72-1.54,0-1-.43-1-1.28-1C41.62,3.37,40.24,3.67,40.24,4.06ZM32.55.72c0-.2-1-.4-2.33-.4C28.1.32,28.39,2.1,26.75,2.1S25.47.26,23.31.26c-1.31,0-2.52.23-2.52.52S22.33,1,22.33,2.1,19,3.57,19,4.26c0,.23.26.32.59.32.72,0,1.87-.32,2.69-.32.46,0,.88.09.88.52,0,.82-1.77,2.29-1.77,3,0,.19.17.26.33.26.66,0,1.77-1.67,2.82-1.67,1.73,0,.59,3.7,1.54,3.7s.55-3.64,2-3.64c1.15,0,2,2.53,2.78,2.53a.38.38,0,0,0,.36-.4c0-.68-1-2.09-1-3,0-.56.4-.82.92-.82.75,0,1.77.46,2.32.46.2,0,.4-.06.4-.29,0-.79-2.92-1.64-2.92-2.66s1.61-1,1.61-1.47" transform="translate(0)"></path><path class="cls-1" d="M90.61,6c0,2.91-2.13,5.14-6,5.76.42,0,.82,0,1.21,0,4.48,0,6.12-2,6.12-3.73A2.07,2.07,0,0,0,90.61,6Zm-5.54,3.3c0-2.32-5.56-2.91-5.56-3.44s3.11-1.14,4.71-1.18c-2.45-3.14-6-2.81-6-3.37,0-.33,2.62-1,5-1,2,0,3.93.46,3.93,2,0,.85-.69,1.73-.69,3a1.22,1.22,0,0,0,1.31,1.35c1,0,1.24-1.08,1.24-2.23,0-.95-.16-1.67-.16-2.13A2.17,2.17,0,0,1,91.23.1c1.11,0,1.38.49,3,.49A2.49,2.49,0,0,0,93,2.52c0,1.38.89,2.33.89,5.14,0,5.18-4.85,7-10.78,7a34,34,0,0,1-5.07-.39c-.26,0-.33-.1-.33-.26,0-.43,2.33-.66,2.33-2.75a16.36,16.36,0,0,0-.26-1.9.26.26,0,0,1,.26-.27c.49,0,1.48,1.9,3.3,1.9A1.56,1.56,0,0,0,85.07,9.33ZM90.41,2.1a.82.82,0,1,0,.82-.82.81.81,0,0,0-.82.82" transform="translate(0)"></path><path class="cls-1" d="M87.5,32.35c0-.68-1.74-.75-1.9-2.68,0-.3-.13-.82-.49-.82-.59,0-.13,1.8-.79,1.8-1.51,0-2-2.95-2.55-2.95-.14,0-.29.1-.29.5s.06.59.06,1-.1.72-.49.72c-.88,0-1.67-2.06-2.42-2.06a.3.3,0,0,0-.33.26c0,.39.65,1.11.65,1.47,0,.79-2.13.36-2.13,1,0,.29.3.39.69.39.69,0,1.77-.29,2.33-.29.33,0,.82.06.82.49s-1.18,1-1.18,1.47a.33.33,0,0,0,.36.3c.88,0,2.45-1.54,3.56-1.54.2,0,.69.1.69.39S83,33,83,33.63c0,.16.1.36.29.36.59,0,1.38-1.54,2.49-1.54.43,0,1,.17,1.38.17S87.5,32.45,87.5,32.35Zm.85,15.89a19.87,19.87,0,0,1,2.26-4.56C89.53,43.13,86.68,42,86.68,40c0-2.26,2.82-4,3.4-4,.26,0,.33.23.33.65,0,1.18-.56,3.08-.56,4.1s.59,1.8,1.12,1.8,2.09-2,2.09-3.9a4.42,4.42,0,0,0-4-4.52c-.88,0-2.49,1.44-6.26,1.44-7,0-8.64-7-8.64-10,0-.13,0-.16.06-.16a5.05,5.05,0,0,0,3.08.85c1.15,0,2.2-.3,3.87-.3,3.92,0,5.66,2.72,8.09,6.19,1.47.92,5,2.39,5,6.55,0,3.67-3.9,5.7-4.84,9.63,1.5-.16,2.38-2.85,3.92-2.85.79,0,1.15.62,1.15,1.61A7.12,7.12,0,0,1,92.08,52a2.33,2.33,0,0,0,0-.49c0-.92-.36-2.22-1.41-2.22-1.63,0-2.15,1.76-3.07,3.24-.95-3.34-2.23-6.36-4.52-8.19s-6.32-.85-6.32-4.26c0-.92.59-2.23.59-3.27a1.58,1.58,0,0,0-.26-1c3.14,1.18,2,3.27,4,5.43,1.21,1.38,4.55,2.69,6.48,8.35a5,5,0,0,0,.07-.88c0-4.85-6.42-9.6-7-11.56,3.72.42,4.38,1.34,6.15,6.25.36,1,1.54,3.54,1.54,4.79" transform="translate(0)"></path><path class="cls-1" d="M70.44,13.59c-2.3,0-3.8-1.15-3.8-1.74a.45.45,0,0,1,.46-.49c.72,0,2.29,1.12,2.81,1.12.14,0,.23-.07.23-.27,0-.59-.55-1.57-.55-2.06,0-.13.1-.23.29-.23.89,0,2.2.36,2.89.36.23,0,.29-.13.29-.26,0-.72-2.13-2.13-2.13-2.55s2.65-1,2.65-1.61S70,5.67,70,5c0-.46.69-1.24.69-1.6,0-.17-.14-.23-.36-.23s-1.87.62-2.53.62c-.32,0-.72-.06-.72-.52,0-.76,1.28-1.57,3.28-1.57,3.24,0,5.17,2.22,5.17,6C75.51,12.41,72.21,13.59,70.44,13.59ZM64.06,7.37c0-.36-1.28-1-1.28-1.44,0-.07.06-.1.16-.1.36,0,1,.13,1.48.13s.49-1.83.81-1.83.62,1.73,1,1.73,1.21-.49,1.54-.49c.07,0,.13,0,.13.1,0,.23-.82,1.11-.82,1.37s1.84.66,1.84.92S67,8.06,67,8.35s.69,1.15.69,1.44c0,.07,0,.1-.1.1-.26,0-1.28-.46-1.57-.46s-1,1.34-1.24,1.34c-.1,0-.16-.13-.16-.29l-.07-1.31c0-.13-.06-.26-.23-.26-.39,0-1.15,0-1.38,0s-.23,0-.23-.09C62.74,8.51,64.06,7.6,64.06,7.37Zm-1,5.37c.53,0,.63,1.28.73,2,.06.39.13.42.29.42.39,0,1-1.5,1.44-1.5.62,0,2.29,1.73,5.08,1.73a7.45,7.45,0,0,0,7.69-7.69C78.33,3,75,.2,70.37.2c-2.19,0-3.8,1.08-4.65,1.08C65.2,1.31,64.42,0,64,0c-.16,0-.33.32-.33.88,0,.36,0,1.51-.39,1.51-.79,0-3.83-2.26-3.83-1.44s2,3,2,3.63-2,1.15-2,1.54c0,.72,2.13.85,2.13,1.77S59.4,9.53,59.4,10.22s2.23.16,2.23.85S60,14.05,60,14.7c0,.17,0,.17.16.17.63,0,2.49-2.13,3-2.13" transform="translate(0)"></path><path class="cls-1" d="M48.27,70.24a1.49,1.49,0,0,1-.36,1,2.44,2.44,0,0,0-1.84-1c-3.37,0-2.09,4.88-5.69,4.88a17,17,0,0,1-2.2-.2c-.23,0-.36.1-.36.3,0,.85,1.21,3,4.59,3S49,76.07,49,73.52a3.52,3.52,0,0,0-.29-1.34,1,1,0,0,1,.75-.33c.52,0,.82.59,1.31.59a.89.89,0,0,0,.92-.92,1,1,0,0,0-.62-.92,1.12,1.12,0,0,0,.46-.88,1,1,0,0,0-1-1.08.94.94,0,0,0-.72.32c-.07-.58-.4-1.14-1-1.14a.84.84,0,0,0-.85.92c0,.52.36,1,.36,1.5" transform="translate(0)"></path><path class="cls-1" d="M30.32,64.15c2.62.66,3.93,2.06,4.19,3.74a7.34,7.34,0,0,0,1.21,3.56,5.68,5.68,0,0,0,3.84,1.74c1.18,0,2.12-.39,2.12-1.47s-1.6-3.84-4-3.84c-.23,0-.52,0-.85,0a1.57,1.57,0,0,1-1-.3c-.52-.46-.69-2.91-1.67-4.39a4.13,4.13,0,0,0-3.86-2.09c-1.15,0-2.43.62-2.43,1.54C27.93,63.24,28.23,63.63,30.32,64.15Zm9.14,7.34c-1,0-2.46-1-2.46-1.64a.8.8,0,0,1,.82-.76c.82,0,2.29,1,2.29,1.87,0,.23-.16.53-.65.53" transform="translate(0)"></path><path class="cls-1" d="M36.44,46c0-2.1,5-3.21,5-5.8A4.36,4.36,0,0,0,41,38.44c1.73,1,3,2.56,3,3.87,0,2.26-2.36,3.31-2.36,4.72,0,1.63,2.52,1.89,2.52,3.92,0,1.67-2.39,3.61-2.39,5.77a3.27,3.27,0,0,0,3,3.27,7.62,7.62,0,0,1-1.67.23c-3.31,0-6.71-2.72-6.71-6a5.59,5.59,0,0,1,1.73-4,4.67,4.67,0,0,0,2.43,1.31c.52,0,.75-.26.75-.65C41.26,49.68,36.44,48.56,36.44,46ZM46.89,62.51c-1.12.52-1.57.43-1.57,1.58,0,.42-.1,1-.1,1.27s.07.63.52.63c1.18,0,3-2,3-3.71,0-.45-.26-.65-.56-.65S47.68,62.15,46.89,62.51Zm-.13-2.35c0-1.48-3-1.51-3-3.74A5,5,0,0,1,44.8,53.9a3.56,3.56,0,0,0,2.45,3.15c2.92,1.07,3.31,2.71,3.31,4.45,0,3-2.06,6.61-7.37,6.61a7.45,7.45,0,0,1-7.3-7c0-.89.23-1.87.78-1.87s.66.39,1,.78c1.48,1.48,3.08,1.87,5.41,1.87,2.09,0,3.63-.85,3.63-1.73" transform="translate(0)"></path><path class="cls-1" d="M23.57,60.87a1.24,1.24,0,1,1-1.38-1.1A1.25,1.25,0,0,1,23.57,60.87Zm-6.12,1.28A2.14,2.14,0,0,0,19.81,64a2.65,2.65,0,0,0,1.08-.33,2,2,0,0,0,2.33,1.57,2.08,2.08,0,0,0,1.9-2.32,2.47,2.47,0,0,0-.2-.76,1.88,1.88,0,0,0,.28,0,2.17,2.17,0,0,0,1.88-2.31,2.13,2.13,0,0,0-2.29-1.92,2,2,0,0,0-1.08.44,2.21,2.21,0,0,0-2.48-1.62,2.11,2.11,0,0,0-1.78,2.38,2.56,2.56,0,0,0,.16.65l-.32.05a2.2,2.2,0,0,0-1.84,2.37" transform="translate(0)"></path></svg> 