<?xml version="1.0" encoding="UTF-8"?> <!-- Generator: Adobe Illustrator 23.0.3, SVG Export Plug-In . SVG Version: 6.00 Build 0) --> <svg xmlns:cc="http://creativecommons.org/ns#" xmlns:dc="http://purl.org/dc/elements/1.1/" xmlns:inkscape="http://www.inkscape.org/namespaces/inkscape" xmlns:rdf="http://www.w3.org/1999/02/22-rdf-syntax-ns#" xmlns:sodipodi="http://sodipodi.sourceforge.net/DTD/sodipodi-0.dtd" xmlns:svg="http://www.w3.org/2000/svg" xmlns="http://www.w3.org/2000/svg" xmlns:xlink="http://www.w3.org/1999/xlink" version="1.1" id="svg8" inkscape:version="0.92.3 (2405546, 2018-03-11)" sodipodi:docname="leh-white-pt.svg" x="0px" y="0px" viewBox="0 0 641.7 174.1" style="enable-background:new 0 0 641.7 174.1;" xml:space="preserve"> <style type="text/css"> .st0{fill:#FFFFFF;} .st1{fill:#FFFFFF;enable-background:new ;} </style> <path id="path825" inkscape:connector-curvature="0" class="st0" d="M5.8,90.7h3.6v53.3H5.8V90.7z"></path> <path id="path837" inkscape:connector-curvature="0" class="st0" d="M45.2,122.7c0.1-5-2-12.6-10.7-12.6c-8,0-11.3,7.1-12,12.6H45.2 z M22.3,125.6c0,11.5,6.3,16,13.7,16c5.2,0,7.9-1,10-2l0.9,2.8c-1.4,0.7-5,2.3-11.3,2.3c-10.3,0-16.8-7.5-16.8-18.1 c0-12,6.9-19.5,16.2-19.5c11.8,0,14,11.1,14,16.2c0,1,0,1.5-0.1,2.2H22.3z"></path> <path id="path841" inkscape:connector-curvature="0" class="st0" d="M76.9,124.7c-7.9-0.2-18.2,1-18.2,9.6c0,5.2,3.4,7.5,7.2,7.5 c6,0,9.4-3.7,10.6-7.2c0.3-0.7,0.4-1.5,0.4-2.2V124.7z M80.5,135.4c0,2.9,0.1,5.8,0.5,8.5h-3.3l-0.5-5.2h-0.1c-1.8,2.8-5.8,6-11.6,6 c-7.3,0-10.6-5.1-10.6-9.9c0-8.3,7.3-13.3,22-13.2v-1c0-3.5-0.7-10.7-9.2-10.6c-3.1,0-6.4,0.8-9.1,2.7l-1.1-2.6 c3.3-2.2,7.4-3.1,10.6-3.1c10.4,0,12.4,7.8,12.4,14.2L80.5,135.4z"></path> <path id="path845" inkscape:connector-curvature="0" class="st0" d="M117.2,122.2c0-1-0.1-2.3-0.4-3.3c-1.2-4.8-5.5-8.8-11.3-8.8 c-7.9,0-12.8,6.8-12.8,16.1c0,8.1,4,15.5,12.6,15.5c5.2,0,10-3.5,11.5-9.4c0.3-0.9,0.4-1.9,0.4-3V122.2z M120.8,90.7v45 c0,2.6,0.1,5.8,0.3,8.3h-3.2l-0.3-6.8h-0.2c-1.9,4-6.1,7.6-12.8,7.6c-8.9,0-15.5-7.4-15.5-18.1c-0.1-12,7.3-19.5,16.2-19.5 c6.2,0,10.2,3.2,11.8,6.4h0.1V90.7L120.8,90.7z"></path> <path id="path847" inkscape:connector-curvature="0" class="st0" d="M132.9,108h3.6v36h-3.6L132.9,108z M134.5,100.8 c-1.7,0-2.8-1.4-2.8-3.1c0-1.7,1.3-3.2,2.9-3.2c1.7,0,2.9,1.4,2.9,3.2C137.5,99.3,136.4,100.8,134.5,100.8L134.5,100.8z"></path> <path id="path851" inkscape:connector-curvature="0" class="st0" d="M148.6,116.6c0-3.3-0.1-5.8-0.3-8.6h3.4l0.2,6.4h0.2 c1.9-4,6.5-7.3,12.4-7.3c3.4,0,12.6,1.7,12.6,15.2v21.6h-3.6v-21.3c0-6.6-2.6-12.5-10-12.5c-5,0-9.4,3.6-10.8,8.3 c-0.2,0.8-0.4,2-0.4,3.2v22.3h-3.6L148.6,116.6z"></path> <path id="path855" inkscape:connector-curvature="0" class="st0" d="M213.9,121.8c0-1.4-0.1-2.5-0.5-3.5c-1.5-4.3-5.3-8.2-11.2-8.2 c-7.6,0-12.9,6.2-12.9,15.8c0,8.1,4.3,15,12.7,15c4.8,0,9.3-3,11.1-8.1c0.4-1.2,0.6-2.5,0.6-3.8V121.8z M217.4,138.7 c0,9.2-1.9,13.8-5,16.6c-3.3,3.1-8.2,4.3-12.2,4.3c-4.1,0-8.7-1.1-11.5-3.1l1.3-2.9c2.6,1.7,6.1,3,10.7,3c7.6,0,13-3.9,13-14.5V137 h-0.2c-1.9,3.7-6.1,7-12.5,7c-9.1,0-15.4-7.9-15.4-17.7c0-12.5,8.2-19.1,16.2-19.1c7.1,0,10.7,3.9,12.2,6.9h0.2l0.2-6.1h3.3 c-0.2,2.7-0.3,5.5-0.3,9.3L217.4,138.7z"></path> <path id="path859" inkscape:connector-curvature="0" class="st0" d="M250.9,121.8c0.1-3.4-1.4-8.9-7.6-8.9c-5.7,0-8.1,5.2-8.5,8.9 L250.9,121.8z M234.9,128.3c0.2,6.6,5.4,9.4,11.2,9.4c4.3,0,7.3-0.7,10.1-1.7l1.3,6.3c-3.2,1.4-7.5,2.3-12.7,2.3 c-11.8,0-18.8-7.3-18.8-18.4c0-10.1,6.1-19.6,17.8-19.6c11.8,0,15.7,9.7,15.7,17.8c0,1.7-0.2,3.1-0.3,3.9L234.9,128.3z"></path> <path id="path863" inkscape:connector-curvature="0" class="st0" d="M291.5,122.7c0-0.7-0.1-1.7-0.2-2.5c-0.8-3.5-3.7-6.4-7.9-6.4 c-5.9,0-9.2,5.2-9.2,12c0,6.7,3.3,11.6,9.2,11.6c3.7,0,7.1-2.5,7.9-6.5c0.2-0.8,0.3-1.7,0.3-2.7L291.5,122.7z M300.7,90.7v43 c0,3.7,0.2,7.8,0.3,10.3h-8.2l-0.5-5.8h-0.1c-2.2,4.1-6.6,6.6-11.9,6.6c-8.8,0-15.6-7.4-15.6-18.7c-0.1-12.2,7.6-19.5,16.3-19.5 c5,0,8.6,2,10.3,4.7h0.2V90.7L300.7,90.7z"></path> <path id="path867" inkscape:connector-curvature="0" class="st0" d="M334.4,122c0-0.9-0.1-1.7-0.3-2.5c-1-3.4-3.6-5.9-7.5-5.9 c-5.2,0-9,4.5-9,11.9c0,6.2,3.1,11.2,8.9,11.2c3.5,0,6.4-2.3,7.5-5.6c0.3-0.9,0.4-2.2,0.4-3.2V122z M343.6,138.6 c0,7.6-1.6,13.1-5.4,16.6c-3.7,3.4-9,4.4-14.1,4.4c-4.7,0-9.6-1.1-12.7-2.9l2-7c2.3,1.3,6.2,2.8,10.6,2.8c6,0,10.5-3.2,10.5-11v-3.1 h-0.2c-2.1,3.2-5.8,5.4-10.6,5.4c-9.1,0-15.5-7.5-15.5-17.8c0-12,7.8-19.3,16.6-19.3c5.6,0,8.9,2.7,10.6,5.7h0.2l0.4-4.9h8 c-0.2,2.5-0.3,5.5-0.3,10.5L343.6,138.6z"></path> <path id="path871" inkscape:connector-curvature="0" class="st0" d="M376.1,121.8c0.1-3.4-1.4-8.9-7.6-8.9c-5.7,0-8.1,5.2-8.5,8.9 L376.1,121.8z M360,128.3c0.2,6.6,5.4,9.4,11.3,9.4c4.3,0,7.3-0.7,10.1-1.7l1.3,6.3c-3.1,1.4-7.5,2.3-12.7,2.3 c-11.8,0-18.8-7.3-18.8-18.4c0-10.1,6.1-19.6,17.8-19.6c11.8,0,15.8,9.7,15.8,17.8c0,1.7-0.2,3.1-0.3,3.9L360,128.3z"></path> <path id="path875" inkscape:connector-curvature="0" class="st0" d="M431,88.9h11.7v21.6h0.2c1.2-1.7,2.8-3,4.6-3.9 c1.8-0.9,3.9-1.4,6.1-1.4c7.4,0,13.1,5.1,13.1,16.5v21.9h-11.7v-20.6c0-4.9-1.7-8.3-6.1-8.3c-3.1,0-5,2-5.8,4.2 c-0.3,0.7-0.4,1.7-0.4,2.5v22.3H431L431,88.9z"></path> <path id="path879" inkscape:connector-curvature="0" class="st0" d="M497.9,120.5c0-2.8-1.2-7.6-6.5-7.6c-5,0-7,4.5-7.3,7.6H497.9z M484.2,128.5c0.4,4.8,5.1,7.1,10.6,7.1c4,0,7.2-0.5,10.4-1.6l1.5,7.9c-3.9,1.6-8.5,2.4-13.6,2.4c-12.7,0-20-7.3-20-19.1 c0-9.5,6-20,18.9-20c12.1,0,16.7,9.4,16.7,18.7c0,2-0.2,3.8-0.4,4.6H484.2z"></path> <path id="path883" inkscape:connector-curvature="0" class="st0" d="M534.9,125.8c-6.1,0-10.9,1.5-10.9,5.9c0,3,2,4.5,4.6,4.5 c2.8,0,5.3-1.9,6.1-4.3c0.2-0.6,0.2-1.3,0.2-2L534.9,125.8z M546.2,134.4c0,3.5,0.2,7,0.6,9.1h-10.5l-0.7-3.8h-0.2 c-2.5,3-6.3,4.6-10.7,4.6c-7.6,0-12.1-5.5-12.1-11.5c0-9.7,8.7-14.3,22-14.3V118c0-2-1.1-4.8-6.8-4.8c-3.8,0-7.9,1.3-10.3,2.8 l-2.2-7.4c2.6-1.4,7.8-3.4,14.6-3.4c12.5,0,16.4,7.3,16.4,16.2L546.2,134.4z"></path> <path id="path885" inkscape:connector-curvature="0" class="st0" d="M554.7,88.9h11.7v54.6h-11.7V88.9z"></path> <path id="path889" inkscape:connector-curvature="0" class="st0" d="M588.1,95.8V106h8.4v8.6h-8.4v13.6c0,4.5,1.1,6.6,4.6,6.6 c1.6,0,2.4-0.1,3.5-0.3l0.1,8.8c-1.5,0.6-4.3,1-7.5,1c-3.8,0-6.9-1.3-8.8-3.2c-2.1-2.2-3.2-5.8-3.2-11.1v-15.3h-5V106h5v-7.1 L588.1,95.8z"></path> <path id="path893" inkscape:connector-curvature="0" class="st0" d="M602.4,88.9h11.7v21.6h0.2c1.2-1.7,2.7-3,4.6-3.9 c1.8-0.9,3.9-1.4,6.1-1.4c7.4,0,13.1,5.1,13.1,16.5v21.9h-11.6v-20.6c0-4.9-1.7-8.3-6.1-8.3c-3.1,0-5,2-5.8,4.2 c-0.3,0.7-0.4,1.7-0.4,2.5v22.3h-11.7L602.4,88.9z"></path> <path id="path897" inkscape:connector-curvature="0" class="st1" d="M387.6,44.6c-37.8-24.4-76.5,1.8-76.5,1.8 c73.6-20.2,78,35.4,78,35.4c-0.5-50,58.6-56.3,58.6-56.3C422.1,22.1,405.1,28,387.6,44.6"></path> <path id="path919" inkscape:connector-curvature="0" class="st1" d="M311.9,56.4c5,6.1,9,15.9,22.8,19.4l0,0 c7.7,2,13.9,3.3,21.1,2.2l0,0c9.2-1.3,14.2-1.3,20.3,4.4l0,0c3.3,2.4,8.5,12.5,8.5,12.5l0,0c-1.7-7-5.8-14.1-12.5-20.7l0,0 c-18.3-17.3-47.9-15.4-47.9-15.4l0,0c27.8-6.9,45.8,6.8,53.4,15.5l0,0c-5.7-11-14.5-22.3-29.5-24.1l0,0c-2.6-0.3-5.2-0.5-7.8-0.5 l0,0C329.9,49.7,319.9,52.1,311.9,56.4"></path> <path id="path941" inkscape:connector-curvature="0" class="st1" d="M401,66.3c-21.3,50.3,28.1,103.5,28.1,103.5l0,0 c-6-9.7-12.1-19.3-16.9-29.1l0,0c-1.9-3.8-6.4-16.6-7.1-20.3l0,0c-0.8-4.1-2.4-15.4-2.5-16.9l0,0c0.8-33.8,14-43.8,34.8-56l0,0 c0,0-29.7,25.5-27.9,52.3l0,0c5.1-24.9,19.2-15.7,33.6-35.5l0,0c6.3-12.3,5.8-18.9,4.3-29.2l0,0C432.2,39.5,414,43,401,66.3"></path> <path id="path953" inkscape:connector-curvature="0" class="st1" d="M369.8,16.5c0.4-7.5,6.7-13.3,14.2-12.9 c7.5,0.3,13.2,6.7,12.9,14.2c-0.3,7.5-6.7,13.2-14.2,12.9C375.2,30.4,369.4,24,369.8,16.5"></path> </svg> 