<?xml version="1.0" encoding="UTF-8"?> <svg xmlns="http://www.w3.org/2000/svg" xmlns:xlink="http://www.w3.org/1999/xlink" id="Layer_1" data-name="Layer 1" viewBox="0 0 197.2 268.49"><defs><clipPath id="clip-path" transform="translate(-3.46 -6.24)"><rect x="4.19" width="232.94" height="292.28" style="fill:none"></rect></clipPath></defs><title>Refund infographic UK_RGB</title><g style="clip-path:url(#clip-path)"><path d="M15.54,236.26a5.63,5.63,0,1,0-5.63-5.63,5.63,5.63,0,0,0,5.63,5.63" transform="translate(-3.46 -6.24)" style="fill:#009db1;opacity:0.6"></path><circle cx="12.08" cy="224.39" r="5.63" style="fill:none;stroke:#fff"></circle></g><path d="M35.75,225.55h1.42l3.19,8.52H38.85l-.65-1.83H34.72l-.63,1.83H32.58Zm2,5.44-1.3-3.7h0L35.17,231Z" transform="translate(-3.46 -6.24)" style="fill:#001738"></path><path d="M41.6,225.24h1.34v8.83H41.6Z" transform="translate(-3.46 -6.24)" style="fill:#001738"></path><path d="M44.18,228.22h1.38l1.23,3.88h0L48,228.22h1.11l1.18,3.88h0l1.24-3.88h1.35l-2,5.85H49.65l-1.13-3.68h0l-1.13,3.68H46.17Z" transform="translate(-3.46 -6.24)" style="fill:#001738"></path><path d="M53.3,231.17a2.85,2.85,0,0,1,2.82-3,2.25,2.25,0,0,1,1.81.81l0,0v-.7H59.3v5.85H58v-.77h0a2.21,2.21,0,0,1-1.86.88A2.79,2.79,0,0,1,53.3,231.17Zm4.71,0a1.72,1.72,0,0,0-1.66-1.84,1.69,1.69,0,0,0-1.68,1.84,1.64,1.64,0,0,0,1.68,1.76A1.66,1.66,0,0,0,58,231.18Z" transform="translate(-3.46 -6.24)" style="fill:#001738"></path><path d="M62.74,233.75l-2.4-5.53h1.44l1.61,3.92h0l1.5-3.92h1.38l-3.21,8.23H61.69Z" transform="translate(-3.46 -6.24)" style="fill:#001738"></path><path d="M66.76,233.31l.67-1a2.28,2.28,0,0,0,1.7.68c.51,0,.81-.23.81-.58s-.38-.44-1.15-.7c-1-.34-1.79-.77-1.79-1.92,0-1,.87-1.66,2.07-1.66a3.11,3.11,0,0,1,2.06.74l-.67,1A2.17,2.17,0,0,0,69,229.3c-.26,0-.63.14-.63.5s.36.49.92.71c1.25.49,2,.72,2,1.88,0,1-.7,1.78-2.18,1.78A3.51,3.51,0,0,1,66.76,233.31Z" transform="translate(-3.46 -6.24)" style="fill:#001738"></path><path d="M75.86,228.22H77.2v.87h0a2.24,2.24,0,0,1,1.81-1h.16v1.5l-.4,0a1.55,1.55,0,0,0-1.6,1.69v2.77H75.86Z" transform="translate(-3.46 -6.24)" style="fill:#001738"></path><path d="M85.47,231.59H81.2a1.62,1.62,0,0,0,1.71,1.35,1.84,1.84,0,0,0,1.48-.68l.93.8a3.12,3.12,0,0,1-5.51-1.92,2.84,2.84,0,0,1,2.94-3,2.73,2.73,0,0,1,2.75,2.94A5.2,5.2,0,0,1,85.47,231.59Zm-4.25-1.06h2.93a1.41,1.41,0,0,0-1.42-1.19A1.48,1.48,0,0,0,81.22,230.53Z" transform="translate(-3.46 -6.24)" style="fill:#001738"></path><path d="M86.55,231.16a2.9,2.9,0,0,1,3-3A3.21,3.21,0,0,1,92,229.22l-.91.8a1.88,1.88,0,0,0-1.47-.68,1.8,1.8,0,0,0,0,3.6,1.82,1.82,0,0,0,1.47-.68l.93.81a3,3,0,0,1-2.52,1.1A2.88,2.88,0,0,1,86.55,231.16Z" transform="translate(-3.46 -6.24)" style="fill:#001738"></path><path d="M98.6,231.59H94.33A1.61,1.61,0,0,0,96,232.94a1.84,1.84,0,0,0,1.48-.68l.93.8a3.07,3.07,0,1,1-2.58-4.93,2.73,2.73,0,0,1,2.76,2.94A5.2,5.2,0,0,1,98.6,231.59Zm-4.25-1.06h2.93a1.41,1.41,0,0,0-1.42-1.19A1.48,1.48,0,0,0,94.35,230.53Z" transform="translate(-3.46 -6.24)" style="fill:#001738"></path><path d="M99.88,226.45a.91.91,0,1,1,.9.9A.89.89,0,0,1,99.88,226.45Zm.23,1.77h1.34v5.85h-1.34Z" transform="translate(-3.46 -6.24)" style="fill:#001738"></path><path d="M102.65,228.22h1.44l1.53,4.17h0l1.52-4.17h1.43l-2.33,5.85H105Z" transform="translate(-3.46 -6.24)" style="fill:#001738"></path><path d="M114.65,231.59h-4.27a1.63,1.63,0,0,0,1.72,1.35,1.83,1.83,0,0,0,1.47-.68l.94.8a3.13,3.13,0,0,1-5.52-1.92,2.84,2.84,0,0,1,2.94-3,2.74,2.74,0,0,1,2.76,2.94A4.59,4.59,0,0,1,114.65,231.59Zm-4.24-1.06h2.92a1.4,1.4,0,0,0-1.41-1.19A1.47,1.47,0,0,0,110.41,230.53Z" transform="translate(-3.46 -6.24)" style="fill:#001738"></path><path d="M115.72,231.17a2.87,2.87,0,0,1,2.83-3,2.36,2.36,0,0,1,1.87.81h0v-3.7h1.33v8.83h-1.29v-.79h0a2.3,2.3,0,0,1-1.91.89A2.81,2.81,0,0,1,115.72,231.17Zm4.76,0a1.7,1.7,0,1,0-3.39,0,1.66,1.66,0,0,0,1.68,1.76A1.67,1.67,0,0,0,120.48,231.18Z" transform="translate(-3.46 -6.24)" style="fill:#001738"></path><path d="M126.38,231.17a2.85,2.85,0,0,1,2.82-3,2.25,2.25,0,0,1,1.81.81l0,0v-.7h1.35v5.85h-1.29v-.77h0a2.22,2.22,0,0,1-1.86.88A2.79,2.79,0,0,1,126.38,231.17Zm4.71,0a1.72,1.72,0,0,0-1.66-1.84,1.69,1.69,0,0,0-1.68,1.84,1.64,1.64,0,0,0,1.68,1.76A1.66,1.66,0,0,0,131.09,231.18Z" transform="translate(-3.46 -6.24)" style="fill:#001738"></path><path d="M137.29,228.22h1.34v.87h0a2.27,2.27,0,0,1,1.81-1h.17v1.5l-.41,0a1.55,1.55,0,0,0-1.59,1.69v2.77h-1.34Z" transform="translate(-3.46 -6.24)" style="fill:#001738"></path><path d="M146.91,231.59h-4.27a1.62,1.62,0,0,0,1.71,1.35,1.84,1.84,0,0,0,1.48-.68l.93.8a3.12,3.12,0,0,1-5.51-1.92,2.84,2.84,0,0,1,2.93-3,2.73,2.73,0,0,1,2.76,2.94A5.2,5.2,0,0,1,146.91,231.59Zm-4.25-1.06h2.93a1.41,1.41,0,0,0-1.42-1.19A1.48,1.48,0,0,0,142.66,230.53Z" transform="translate(-3.46 -6.24)" style="fill:#001738"></path><path d="M148.46,229.36h-.65v-1.14h.65v-1.07c0-1.31.62-2,1.77-2a2.77,2.77,0,0,1,1.47.4l-.3,1.13a2.59,2.59,0,0,0-1-.3c-.4,0-.62.28-.62.91v.93h1.44v1.14H149.8v4.71h-1.34Z" transform="translate(-3.46 -6.24)" style="fill:#001738"></path><path d="M152.24,231.78v-3.56h1.34v3.2c0,1.16.36,1.52,1.16,1.52s1.5-.66,1.5-1.92v-2.8h1.35v5.85h-1.35v-.73h0a2.31,2.31,0,0,1-1.79.84C153.14,234.17,152.24,233.52,152.24,231.78Z" transform="translate(-3.46 -6.24)" style="fill:#001738"></path><path d="M159.29,228.22h1.35v.8h0a2.53,2.53,0,0,1,2-.89c1.29,0,2.15.74,2.15,2.5v3.44h-1.34V231c0-1.24-.47-1.64-1.27-1.64s-1.51.64-1.51,1.79v2.94h-1.35Z" transform="translate(-3.46 -6.24)" style="fill:#001738"></path><path d="M166.05,231.17a2.86,2.86,0,0,1,2.83-3,2.36,2.36,0,0,1,1.87.81h0v-3.7h1.33v8.83h-1.28v-.79h0a2.3,2.3,0,0,1-1.91.89A2.8,2.8,0,0,1,166.05,231.17Zm4.76,0a1.72,1.72,0,0,0-1.7-1.84,1.7,1.7,0,0,0-1.69,1.84,1.65,1.65,0,0,0,1.68,1.76A1.67,1.67,0,0,0,170.81,231.18Z" transform="translate(-3.46 -6.24)" style="fill:#001738"></path><path d="M32.8,252.83l.91-1.12a3,3,0,0,0,2.19,1.12c.93,0,1.41-.41,1.41-1s-.56-1-1.64-1.37c-1.3-.46-2.58-1-2.58-2.59a2.55,2.55,0,0,1,2.7-2.38,4.47,4.47,0,0,1,2.82,1l-.87,1.14a3.2,3.2,0,0,0-2-.88,1.07,1.07,0,0,0-1.2,1c0,.62.56.84,1.6,1.23,1.46.58,2.63,1,2.63,2.62a2.68,2.68,0,0,1-2.93,2.55A4.24,4.24,0,0,1,32.8,252.83Z" transform="translate(-3.46 -6.24)" style="fill:#001738"></path><path d="M39.92,251.16a3.07,3.07,0,1,1,3.07,3A2.92,2.92,0,0,1,39.92,251.16Zm4.77,0A1.7,1.7,0,1,0,43,253,1.7,1.7,0,0,0,44.69,251.16Z" transform="translate(-3.46 -6.24)" style="fill:#001738"></path><path d="M47.47,248.22h1.34V249h0a2.37,2.37,0,0,1,1.82-.89,1.84,1.84,0,0,1,1.76,1h0a2.56,2.56,0,0,1,2.1-1c1.28,0,2,.8,2,2.55v3.38H55.23v-3c0-1.06-.35-1.68-1.14-1.68s-1.37.66-1.37,1.81v2.91H51.38v-3c0-1.06-.38-1.68-1.17-1.68s-1.4.66-1.4,1.81v2.91H47.47Z" transform="translate(-3.46 -6.24)" style="fill:#001738"></path><path d="M63.54,251.59H59.27A1.63,1.63,0,0,0,61,253a1.84,1.84,0,0,0,1.47-.69l.94.81a3.14,3.14,0,0,1-5.52-1.92,2.84,2.84,0,0,1,2.94-3,2.73,2.73,0,0,1,2.76,2.94A2.89,2.89,0,0,1,63.54,251.59Zm-4.24-1.05h2.92a1.39,1.39,0,0,0-1.41-1.19A1.48,1.48,0,0,0,59.3,250.54Z" transform="translate(-3.46 -6.24)" style="fill:#001738"></path><path d="M65.08,252.23v-2.87h-.72v-1.14h.72v-1.94l1.35-.15v2.09h1.71v1.14H66.43v2.74c0,.6.18.81.56.81a1.9,1.9,0,0,0,.86-.25l.35,1.16a2.75,2.75,0,0,1-1.49.35C65.71,254.17,65.08,253.53,65.08,252.23Z" transform="translate(-3.46 -6.24)" style="fill:#001738"></path><path d="M69.21,246.46a.91.91,0,0,1,1.81,0,.91.91,0,0,1-1.81,0Zm.23,1.76h1.34v5.85H69.44Z" transform="translate(-3.46 -6.24)" style="fill:#001738"></path><path d="M72.62,248.22H74V249h0a2.39,2.39,0,0,1,1.83-.89,1.84,1.84,0,0,1,1.75,1h0a2.56,2.56,0,0,1,2.1-1c1.28,0,2,.8,2,2.55v3.38H80.38v-3c0-1.06-.35-1.68-1.14-1.68s-1.37.66-1.37,1.81v2.91H76.53v-3c0-1.06-.37-1.68-1.16-1.68S74,250,74,251.16v2.91H72.62Z" transform="translate(-3.46 -6.24)" style="fill:#001738"></path><path d="M88.7,251.59H84.43A1.62,1.62,0,0,0,86.14,253a1.84,1.84,0,0,0,1.48-.69l.93.81A3.14,3.14,0,0,1,83,251.15a2.84,2.84,0,0,1,2.94-3,2.73,2.73,0,0,1,2.76,2.94A5,5,0,0,1,88.7,251.59Zm-4.25-1.05h2.93A1.41,1.41,0,0,0,86,249.35,1.48,1.48,0,0,0,84.45,250.54Z" transform="translate(-3.46 -6.24)" style="fill:#001738"></path><path d="M89.63,253.32l.68-1A2.21,2.21,0,0,0,92,253c.51,0,.81-.22.81-.57s-.38-.44-1.15-.71c-1-.33-1.79-.77-1.79-1.92,0-1,.87-1.65,2.07-1.65a3.1,3.1,0,0,1,2.06.73l-.67,1a2.17,2.17,0,0,0-1.46-.62c-.27,0-.64.14-.64.5s.36.5.92.71c1.25.49,2,.72,2,1.89,0,1-.7,1.77-2.18,1.77A3.52,3.52,0,0,1,89.63,253.32Z" transform="translate(-3.46 -6.24)" style="fill:#001738"></path><path d="M98.73,248.22h1.34v.88h0a2.24,2.24,0,0,1,1.81-1h.17v1.5l-.41,0a1.55,1.55,0,0,0-1.6,1.69v2.77H98.73Z" transform="translate(-3.46 -6.24)" style="fill:#001738"></path><path d="M108.34,251.59h-4.27a1.62,1.62,0,0,0,1.71,1.36,1.84,1.84,0,0,0,1.48-.69l.93.81a3.13,3.13,0,0,1-5.51-1.92,2.84,2.84,0,0,1,2.94-3,2.73,2.73,0,0,1,2.75,2.94A5,5,0,0,1,108.34,251.59Zm-4.25-1.05H107a1.41,1.41,0,0,0-1.42-1.19A1.49,1.49,0,0,0,104.09,250.54Z" transform="translate(-3.46 -6.24)" style="fill:#001738"></path><path d="M109.42,251.16a2.89,2.89,0,0,1,3-3,3.17,3.17,0,0,1,2.45,1.09L114,250a1.87,1.87,0,0,0-1.47-.67,1.8,1.8,0,0,0,0,3.6,1.81,1.81,0,0,0,1.47-.69l.93.82a3,3,0,0,1-2.52,1.09A2.88,2.88,0,0,1,109.42,251.16Z" transform="translate(-3.46 -6.24)" style="fill:#001738"></path><path d="M121.47,251.59H117.2a1.62,1.62,0,0,0,1.71,1.36,1.84,1.84,0,0,0,1.48-.69l.93.81a3.13,3.13,0,0,1-5.51-1.92,2.84,2.84,0,0,1,2.93-3,2.73,2.73,0,0,1,2.76,2.94A5,5,0,0,1,121.47,251.59Zm-4.25-1.05h2.93a1.41,1.41,0,0,0-1.42-1.19A1.48,1.48,0,0,0,117.22,250.54Z" transform="translate(-3.46 -6.24)" style="fill:#001738"></path><path d="M122.75,246.46a.9.9,0,0,1,.9-.89.9.9,0,1,1-.9.89Zm.23,1.76h1.35v5.85H123Z" transform="translate(-3.46 -6.24)" style="fill:#001738"></path><path d="M125.53,248.22H127l1.52,4.18h0l1.52-4.18h1.43l-2.33,5.85h-1.28Z" transform="translate(-3.46 -6.24)" style="fill:#001738"></path><path d="M137.53,251.59h-4.26A1.62,1.62,0,0,0,135,253a1.84,1.84,0,0,0,1.48-.69l.93.81a3.14,3.14,0,0,1-5.52-1.92,2.84,2.84,0,0,1,2.94-3,2.73,2.73,0,0,1,2.76,2.94A2.89,2.89,0,0,1,137.53,251.59Zm-4.24-1.05h2.93a1.41,1.41,0,0,0-1.42-1.19A1.48,1.48,0,0,0,133.29,250.54Z" transform="translate(-3.46 -6.24)" style="fill:#001738"></path><path d="M138.61,251.17a2.85,2.85,0,0,1,2.83-3,2.38,2.38,0,0,1,1.87.8h0v-3.69h1.33v8.82h-1.28v-.79h0a2.25,2.25,0,0,1-1.9.89A2.8,2.8,0,0,1,138.61,251.17Zm4.76,0a1.7,1.7,0,1,0-3.4,0,1.66,1.66,0,0,0,1.68,1.77A1.69,1.69,0,0,0,143.37,251.18Z" transform="translate(-3.46 -6.24)" style="fill:#001738"></path><path d="M149.26,251.17a2.85,2.85,0,0,1,2.82-3,2.24,2.24,0,0,1,1.81.8h0v-.71h1.35v5.85H154v-.76l0,0a2.18,2.18,0,0,1-1.86.88A2.79,2.79,0,0,1,149.26,251.17Zm4.71,0a1.71,1.71,0,0,0-1.66-1.83,1.69,1.69,0,0,0-1.68,1.83,1.65,1.65,0,0,0,1.68,1.77A1.67,1.67,0,0,0,154,251.18Z" transform="translate(-3.46 -6.24)" style="fill:#001738"></path><path d="M160.17,248.22h1.34v.88h0a2.24,2.24,0,0,1,1.81-1h.17v1.5l-.41,0a1.55,1.55,0,0,0-1.6,1.69v2.77h-1.34Z" transform="translate(-3.46 -6.24)" style="fill:#001738"></path><path d="M169.78,251.59h-4.27a1.62,1.62,0,0,0,1.71,1.36,1.84,1.84,0,0,0,1.48-.69l.93.81a3.13,3.13,0,0,1-5.51-1.92,2.84,2.84,0,0,1,2.94-3,2.73,2.73,0,0,1,2.75,2.94A5,5,0,0,1,169.78,251.59Zm-4.25-1.05h2.93a1.41,1.41,0,0,0-1.42-1.19A1.48,1.48,0,0,0,165.53,250.54Z" transform="translate(-3.46 -6.24)" style="fill:#001738"></path><path d="M171.33,249.36h-.65v-1.14h.65v-1.07c0-1.3.62-2,1.77-2a2.74,2.74,0,0,1,1.47.41l-.3,1.13a2.61,2.61,0,0,0-1-.3c-.41,0-.63.27-.63.91v.92h1.44v1.14h-1.44v4.71h-1.34Z" transform="translate(-3.46 -6.24)" style="fill:#001738"></path><path d="M175.11,251.78v-3.56h1.34v3.2c0,1.17.36,1.53,1.17,1.53s1.5-.66,1.5-1.92v-2.81h1.34v5.85h-1.34v-.73h0a2.3,2.3,0,0,1-1.79.84C176,254.17,175.11,253.52,175.11,251.78Z" transform="translate(-3.46 -6.24)" style="fill:#001738"></path><path d="M182.17,248.22h1.34V249h0a2.5,2.5,0,0,1,2-.89c1.28,0,2.14.73,2.14,2.49v3.44h-1.34V251c0-1.24-.47-1.63-1.27-1.63s-1.51.63-1.51,1.79v2.93h-1.34Z" transform="translate(-3.46 -6.24)" style="fill:#001738"></path><path d="M188.92,251.17a2.85,2.85,0,0,1,2.83-3,2.35,2.35,0,0,1,1.87.8h0v-3.69H195v8.82h-1.29v-.79h0a2.27,2.27,0,0,1-1.91.89A2.8,2.8,0,0,1,188.92,251.17Zm4.76,0a1.7,1.7,0,1,0-3.39,0A1.66,1.66,0,0,0,192,253,1.68,1.68,0,0,0,193.68,251.18Z" transform="translate(-3.46 -6.24)" style="fill:#001738"></path><path d="M33.34,265.56h1.44l4.16,6.12h0v-6.12h1.44v8.52H38.93l-4.11-6h0v6H33.34Z" transform="translate(-3.46 -6.24)" style="fill:#001738"></path><path d="M47.64,271.6H43.37A1.63,1.63,0,0,0,45.09,273a1.8,1.8,0,0,0,1.47-.68l.94.8a3.07,3.07,0,1,1-2.58-4.93,2.74,2.74,0,0,1,2.76,2.94A3,3,0,0,1,47.64,271.6Zm-4.24-1.06h2.92a1.39,1.39,0,0,0-1.41-1.19A1.48,1.48,0,0,0,43.4,270.54Z" transform="translate(-3.46 -6.24)" style="fill:#001738"></path><path d="M48.12,268.23h1.43l1.53,4.17h0l1.52-4.17H54l-2.33,5.85H50.43Z" transform="translate(-3.46 -6.24)" style="fill:#001738"></path><path d="M60.12,271.6H55.85A1.63,1.63,0,0,0,57.57,273a1.8,1.8,0,0,0,1.47-.68l.94.8a3.07,3.07,0,1,1-2.58-4.93,2.74,2.74,0,0,1,2.76,2.94A3,3,0,0,1,60.12,271.6Zm-4.24-1.06H58.8a1.39,1.39,0,0,0-1.41-1.19A1.48,1.48,0,0,0,55.88,270.54Z" transform="translate(-3.46 -6.24)" style="fill:#001738"></path><path d="M61.56,268.23H62.9v.87h0a2.27,2.27,0,0,1,1.81-1h.17v1.5l-.41,0a1.54,1.54,0,0,0-1.59,1.69v2.77H61.56Z" transform="translate(-3.46 -6.24)" style="fill:#001738"></path><path d="M69.23,268.23h1.35v.87h0a2.27,2.27,0,0,1,1.81-1h.17v1.5l-.41,0a1.54,1.54,0,0,0-1.59,1.69v2.77H69.23Z" transform="translate(-3.46 -6.24)" style="fill:#001738"></path><path d="M78.86,271.6H74.59A1.61,1.61,0,0,0,76.3,273a1.84,1.84,0,0,0,1.48-.68l.93.8a3.13,3.13,0,0,1-5.51-1.92,2.84,2.84,0,0,1,2.93-3,2.73,2.73,0,0,1,2.76,2.94A5.2,5.2,0,0,1,78.86,271.6Zm-4.25-1.06h2.93a1.41,1.41,0,0,0-1.42-1.19A1.48,1.48,0,0,0,74.61,270.54Z" transform="translate(-3.46 -6.24)" style="fill:#001738"></path><path d="M79.94,271.16a2.89,2.89,0,0,1,3-3,3.21,3.21,0,0,1,2.46,1.09l-.91.79a1.92,1.92,0,0,0-1.48-.67,1.8,1.8,0,0,0,0,3.6,1.85,1.85,0,0,0,1.48-.68l.92.81a2.91,2.91,0,0,1-2.51,1.09A2.88,2.88,0,0,1,79.94,271.16Z" transform="translate(-3.46 -6.24)" style="fill:#001738"></path><path d="M92,271.6H87.71A1.63,1.63,0,0,0,89.43,273a1.83,1.83,0,0,0,1.47-.68l.94.8a3.07,3.07,0,1,1-2.58-4.93A2.74,2.74,0,0,1,92,271.08,3,3,0,0,1,92,271.6Zm-4.24-1.06h2.92a1.39,1.39,0,0,0-1.41-1.19A1.48,1.48,0,0,0,87.74,270.54Z" transform="translate(-3.46 -6.24)" style="fill:#001738"></path><path d="M93.27,266.46a.91.91,0,0,1,1.81,0,.91.91,0,0,1-1.81,0Zm.23,1.77h1.34v5.85H93.5Z" transform="translate(-3.46 -6.24)" style="fill:#001738"></path><path d="M96,268.23h1.44L99,272.4h0l1.52-4.17H102l-2.33,5.85H98.36Z" transform="translate(-3.46 -6.24)" style="fill:#001738"></path><path d="M108,271.6h-4.27a1.62,1.62,0,0,0,1.71,1.35,1.84,1.84,0,0,0,1.48-.68l.94.8a2.9,2.9,0,0,1-2.49,1.1,2.87,2.87,0,0,1-3-3,2.84,2.84,0,0,1,2.94-3,2.74,2.74,0,0,1,2.76,2.94A4.59,4.59,0,0,1,108,271.6Zm-4.25-1.06h2.93a1.4,1.4,0,0,0-1.41-1.19A1.49,1.49,0,0,0,103.79,270.54Z" transform="translate(-3.46 -6.24)" style="fill:#001738"></path><path d="M109.11,271.18a2.86,2.86,0,0,1,2.83-3,2.36,2.36,0,0,1,1.87.81h0v-3.7h1.34v8.83h-1.29v-.79h0a2.29,2.29,0,0,1-1.91.88A2.79,2.79,0,0,1,109.11,271.18Zm4.76,0a1.7,1.7,0,1,0-3.39,0,1.65,1.65,0,0,0,1.68,1.76A1.68,1.68,0,0,0,113.87,271.19Z" transform="translate(-3.46 -6.24)" style="fill:#001738"></path><path d="M119.77,271.18a2.85,2.85,0,0,1,2.81-3,2.25,2.25,0,0,1,1.82.81l0,0v-.7h1.34v5.85h-1.28v-.77h0a2.21,2.21,0,0,1-1.86.87A2.79,2.79,0,0,1,119.77,271.18Zm4.71,0a1.72,1.72,0,0,0-1.67-1.84,1.7,1.7,0,0,0-1.68,1.84,1.65,1.65,0,0,0,1.68,1.76A1.68,1.68,0,0,0,124.48,271.19Z" transform="translate(-3.46 -6.24)" style="fill:#001738"></path><path d="M130.67,268.23H132v.87h0a2.25,2.25,0,0,1,1.81-1H134v1.5l-.41,0a1.54,1.54,0,0,0-1.59,1.69v2.77h-1.35Z" transform="translate(-3.46 -6.24)" style="fill:#001738"></path><path d="M140.29,271.6H136a1.63,1.63,0,0,0,1.72,1.35,1.84,1.84,0,0,0,1.48-.68l.93.8a3.07,3.07,0,1,1-2.58-4.93,2.73,2.73,0,0,1,2.76,2.94A3,3,0,0,1,140.29,271.6Zm-4.24-1.06H139a1.39,1.39,0,0,0-1.41-1.19A1.48,1.48,0,0,0,136.05,270.54Z" transform="translate(-3.46 -6.24)" style="fill:#001738"></path><path d="M141.83,269.36h-.64v-1.13h.64v-1.07c0-1.31.63-2,1.78-2a2.71,2.71,0,0,1,1.46.4l-.3,1.13a2.55,2.55,0,0,0-1-.3c-.41,0-.62.28-.62.91v.93h1.44v1.13h-1.44v4.72h-1.35Z" transform="translate(-3.46 -6.24)" style="fill:#001738"></path><path d="M145.61,271.79v-3.56H147v3.2c0,1.16.36,1.52,1.16,1.52s1.5-.66,1.5-1.92v-2.8H151v5.85h-1.34v-.73l0,0a2.28,2.28,0,0,1-1.79.84C146.51,274.17,145.61,273.53,145.61,271.79Z" transform="translate(-3.46 -6.24)" style="fill:#001738"></path><path d="M152.67,268.23H154v.8h0a2.48,2.48,0,0,1,2-.89c1.29,0,2.15.73,2.15,2.5v3.44H156.8V271c0-1.23-.47-1.63-1.28-1.63S154,270,154,271.14v2.94h-1.34Z" transform="translate(-3.46 -6.24)" style="fill:#001738"></path><path d="M159.43,271.18a2.86,2.86,0,0,1,2.83-3,2.38,2.38,0,0,1,1.87.81h0v-3.7h1.33v8.83h-1.28v-.79h0a2.27,2.27,0,0,1-1.9.88A2.79,2.79,0,0,1,159.43,271.18Zm4.76,0a1.71,1.71,0,1,0-3.4,0,1.66,1.66,0,0,0,1.68,1.76A1.69,1.69,0,0,0,164.19,271.19Z" transform="translate(-3.46 -6.24)" style="fill:#001738"></path><g style="clip-path:url(#clip-path)"><path d="M102.05,203.21c-53.9,0-97.59-43.86-97.59-98A98.24,98.24,0,0,1,19.65,52.76l82.4,52.49Z" transform="translate(-3.46 -6.24)" style="fill:#009db1;opacity:0.6"></path></g><path d="M102.05,202.44A97.59,97.59,0,0,1,19.65,52.56l82.4,52.29Z" transform="translate(-3.46 -6.24)" style="fill:none;stroke:#fff;stroke-linejoin:round;stroke-width:2px"></path><path d="M19.65,52.56A97.6,97.6,0,0,1,198.88,92.62l-96.83,12.23Z" transform="translate(-3.46 -6.24)" style="fill:#e30684"></path><path d="M19.65,52.56A97.6,97.6,0,0,1,198.88,92.62l-96.83,12.23Z" transform="translate(-3.46 -6.24)" style="fill:#00263e"></path><path d="M19.65,52.56A97.6,97.6,0,0,1,198.88,92.62l-96.83,12.23Z" transform="translate(-3.46 -6.24)" style="fill:none;stroke:#fff;stroke-linejoin:round;stroke-width:2px"></path><path d="M198.88,93c6.75,53.68-31.12,102.69-84.6,109.47a98,98,0,0,1-12.23.77v-98Z" transform="translate(-3.46 -6.24)" style="fill:#f4a750"></path><path d="M198.88,93c6.75,53.68-31.12,102.69-84.6,109.47a98,98,0,0,1-12.23.77v-98Z" transform="translate(-3.46 -6.24)" style="fill:#ffb000"></path><path d="M198.88,92.62a97.59,97.59,0,0,1-84.6,109,96.08,96.08,0,0,1-12.23.77V104.85Z" transform="translate(-3.46 -6.24)" style="fill:none;stroke:#fff;stroke-linejoin:round;stroke-width:2px"></path><path d="M15.54,255.25a5.63,5.63,0,1,0-5.63-5.63,5.63,5.63,0,0,0,5.63,5.63" transform="translate(-3.46 -6.24)" style="fill:#001738"></path><circle cx="12.08" cy="243.37" r="5.63" style="fill:none;stroke:#fff;stroke-miterlimit:10"></circle><path d="M15.54,274.23a5.63,5.63,0,1,0-5.63-5.63,5.63,5.63,0,0,0,5.63,5.63" transform="translate(-3.46 -6.24)" style="fill:#ffb000"></path><circle cx="12.08" cy="262.36" r="5.63" style="fill:none;stroke:#fff;stroke-miterlimit:10"></circle><path d="M31.72,134.9l2.34-1a2.33,2.33,0,0,0,2.38,1.56,1.87,1.87,0,0,0,2-1.82c0-1-.76-1.86-2.28-1.86h-1v-2.2h1.2A1.56,1.56,0,0,0,38.2,128a1.69,1.69,0,0,0-1.8-1.66,2.11,2.11,0,0,0-2,1.16l-2.18-1.18a4.5,4.5,0,0,1,4.24-2.44c2.44,0,4.42,1.34,4.42,3.68a3.49,3.49,0,0,1-1.78,3.08v.06A3.52,3.52,0,0,1,41.28,134c0,2.38-2,3.93-4.64,3.93A5.05,5.05,0,0,1,31.72,134.9Z" transform="translate(-3.46 -6.24)" style="fill:#fff;opacity:0.6"></path><path d="M42.46,134.9l2.34-1a2.33,2.33,0,0,0,2.38,1.56,1.87,1.87,0,0,0,2-1.82c0-1-.76-1.86-2.28-1.86H46v-2.2h1.2A1.56,1.56,0,0,0,48.94,128a1.69,1.69,0,0,0-1.8-1.66,2.11,2.11,0,0,0-2,1.16L43,126.3a4.5,4.5,0,0,1,4.24-2.44c2.44,0,4.42,1.34,4.42,3.68a3.49,3.49,0,0,1-1.78,3.08v.06A3.52,3.52,0,0,1,52,134c0,2.38-2,3.93-4.64,3.93A5.05,5.05,0,0,1,42.46,134.9Z" transform="translate(-3.46 -6.24)" style="fill:#fff;opacity:0.6"></path><path d="M53.16,127.36a4,4,0,1,1,4,4A3.89,3.89,0,0,1,53.16,127.36Zm6,0a2,2,0,1,0-3.9,0,2,2,0,1,0,3.9,0Zm-.7,10,6.3-14.15,2,.86-6.3,14.14Zm5.46-3.45a4,4,0,1,1,4,4A3.89,3.89,0,0,1,63.92,133.94Zm6,0a2,2,0,1,0-2,2.1A2,2,0,0,0,69.94,134Z" transform="translate(-3.46 -6.24)" style="fill:#fff;opacity:0.6"></path><path d="M127.88,150.16l4.26-4.54c1.12-1.16,1.84-2.08,1.84-3.18a1.79,1.79,0,0,0-1.82-1.86,2.69,2.69,0,0,0-2.4,1.46l-1.94-1.38a4.89,4.89,0,0,1,4.54-2.6,4.11,4.11,0,0,1,4.38,4.06c0,1.56-.5,2.78-2.28,4.62l-2.56,2.68,0,.06h4.94V152h-8.94Z" transform="translate(-3.46 -6.24)" style="fill:#fff"></path><path d="M148.54,147.56c0,2.7-2.14,4.56-5,4.56s-4.94-2.21-4.94-5.58a8.75,8.75,0,0,1,7.26-8.78l.8,2.2c-2.46.7-4.12,1.84-4.92,3.76l0,0a5.32,5.32,0,0,1,2.5-.62A4.11,4.11,0,0,1,148.54,147.56Zm-2.66-.06a2.07,2.07,0,0,0-2.26-2.08,3.13,3.13,0,0,0-2.38,1.24v.16a2.59,2.59,0,0,0,2.46,2.84A2.11,2.11,0,0,0,145.88,147.5Z" transform="translate(-3.46 -6.24)" style="fill:#fff"></path><path d="M150.14,141.54a4,4,0,1,1,4,4A3.89,3.89,0,0,1,150.14,141.54Zm6,0a2,2,0,1,0-3.9,0,2,2,0,1,0,3.9,0Zm-.7,10,6.3-14.15,2,.86-6.3,14.15Zm5.46-3.45a4,4,0,1,1,4,4A3.89,3.89,0,0,1,160.9,148.12Zm6,0a2,2,0,1,0-2,2.1A2,2,0,0,0,166.92,148.14Z" transform="translate(-3.46 -6.24)" style="fill:#fff"></path><path d="M96.16,63.22h-5.8V61.5l6.3-9.76h2.18V60.9h1.84v2.32H98.84v2.27H96.16Zm.18-2.2V56.14l-3,4.88Z" transform="translate(-3.46 -6.24)" style="fill:#fff"></path><path d="M105,55l-2.3,1.74-1.28-2,4.14-3h2.18V65.49H105Z" transform="translate(-3.46 -6.24)" style="fill:#fff"></path><path d="M109.86,55.08a4,4,0,1,1,4,4A3.89,3.89,0,0,1,109.86,55.08Zm6,0a2,2,0,1,0-3.9,0,2,2,0,1,0,3.9,0Zm-.7,10L121.46,51l2,.86L117.14,66Zm5.46-3.45a4,4,0,1,1,4,4A3.89,3.89,0,0,1,120.62,61.66Zm6,0a2,2,0,1,0-2,2.1A2,2,0,0,0,126.64,61.68Z" transform="translate(-3.46 -6.24)" style="fill:#fff"></path></svg> 