<?xml version="1.0" encoding="UTF-8"?> <svg xmlns="http://www.w3.org/2000/svg" id="Layer_1" data-name="Layer 1" viewBox="0 0 70.38 97.87"><title>Revenue Icon Yuan_Negative_RGB</title><polyline points="21.82 14.83 25.91 24.66 46.58 24.66 54.47 5.67 27.93 5.67" style="fill:none;stroke:#fff;stroke-miterlimit:10;stroke-width:7px"></polyline><path d="M126.67,89.61H108.1c-7.89,0-43,69.7-5.18,69.7h28.93C169.68,159.31,134.56,89.61,126.67,89.61Z" transform="translate(-82.2 -64.94)" style="fill:none;stroke:#fff;stroke-miterlimit:10;stroke-width:7px"></path><circle cx="18.01" cy="5.67" r="5.67" style="fill:#ffb000"></circle><path d="M121.77,122.92h4.14v3.36h-6v2.3h6v3.32h-6v6H114.1v-6h-6.27v-3.32h6.27v-2.3h-6.27v-3.36h4.51l-7.26-13.16h6.64L117,120.5h0l5.25-10.74H129Z" transform="translate(-82.2 -64.94)" style="fill:#fff"></path></svg> 