<?xml version="1.0" encoding="UTF-8"?> <!-- Generator: Adobe Illustrator 23.0.1, SVG Export Plug-In . SVG Version: 6.00 Build 0) --> <svg xmlns="http://www.w3.org/2000/svg" xmlns:xlink="http://www.w3.org/1999/xlink" version="1.1" id="Layer_1" x="0px" y="0px" viewBox="0 0 178 44.2" style="enable-background:new 0 0 178 44.2;" xml:space="preserve"> <style type="text/css"> .st0{fill:#FFFFFF;} </style> <title>Brother logo_negative_RGB</title> <path class="st0" d="M51.9,34.5h-1.4V42h4v-1.3h-2.6V34.5z M64.9,34.4c-1.1,0-2.1,0.4-2.8,1.2c-0.8,0.7-1.2,1.7-1.2,2.8 s0.4,2,1.2,2.7c0.7,0.7,1.8,1.2,2.8,1.2c1,0,2.1-0.4,2.8-1.2c0.8-0.7,1.2-1.7,1.2-2.7c0-1.1-0.4-2-1.2-2.8 C67,34.8,66,34.4,64.9,34.4z M66.7,40.1c-0.5,0.5-1.1,0.7-1.8,0.7c-0.7,0-1.3-0.3-1.8-0.7c-0.5-0.5-0.7-1.1-0.7-1.8 c0-0.7,0.3-1.3,0.7-1.8c0.5-0.5,1.1-0.7,1.8-0.7c0.7,0,1.3,0.3,1.8,0.7s0.7,1.1,0.7,1.8C67.4,39,67.1,39.6,66.7,40.1z M81.7,39.3 c-0.2-0.2-0.4-0.4-0.6-0.6l-4.6-4.4l-0.2-0.2V42h1.3v-4.8c0.1,0.2,0.3,0.3,0.5,0.5l4.6,4.5l0.2,0.2v-7.9h-1.3L81.7,39.3L81.7,39.3z M95.9,35.2c-0.9-0.7-2-0.7-3.3-0.7h-1.7V42h2c1.3,0,2.2,0,3-0.7c0.9-0.6,1.3-1.7,1.3-3C97.2,37,96.7,35.9,95.9,35.2z M94.9,40.2 c-0.5,0.4-1.1,0.4-1.8,0.4h-0.3h-0.3h-0.3v-4.8h0.3h0.2h0.2c0.9,0,1.5,0,2,0.4c0.5,0.4,0.8,1.1,0.8,2C95.7,39.1,95.4,39.8,94.9,40.2 z M108.3,34.4c-1.1,0-2.1,0.4-2.8,1.1c-0.8,0.7-1.2,1.7-1.2,2.8s0.4,2,1.2,2.7c0.7,0.7,1.8,1.2,2.8,1.2c1,0,2.1-0.4,2.8-1.2 c0.8-0.7,1.2-1.7,1.2-2.8c0-1.1-0.4-2-1.2-2.8C110.4,34.8,109.4,34.4,108.3,34.4z M110.1,40.1c-0.5,0.5-1.1,0.7-1.8,0.7 c-0.7,0-1.3-0.3-1.8-0.7c-0.5-0.5-0.7-1.1-0.7-1.8c0-0.7,0.3-1.3,0.7-1.8c0.5-0.5,1.1-0.7,1.8-0.7c0.7,0,1.3,0.3,1.8,0.7 c0.5,0.5,0.7,1.1,0.7,1.8C110.8,39,110.5,39.6,110.1,40.1z M125.1,39.3c-0.2-0.2-0.4-0.4-0.6-0.6l-4.6-4.4l-0.2-0.2V42h1.3v-4.8 c0.1,0.2,0.3,0.3,0.5,0.5l4.6,4.5l0.2,0.2v-7.9h-1.3V39.3z M3,4.8h3.2v14.9h2.2V4.8h3.1V2.2H3V4.8z M23.7,19.8h7V17h-4.8v-5.3h4.8 V8.9h-4.8V4.8h4.8V2.2h-7V19.8z M51.8,18.1c1.4-1.5,2.1-4,2.1-7.1s-0.7-5.6-2.1-7.1c-1.5-1.7-3.3-1.7-5.5-1.7h-2.8v17.6h3h0.3 C48.9,19.8,50.4,19.7,51.8,18.1z M47.2,17c-0.1,0-0.3,0-0.4,0c-0.2,0-0.3,0-0.5,0h-0.6V5h0.6h0.4H47c1.5,0,2.5,0.1,3.3,1.1 c0.9,1.1,1.3,2.7,1.3,4.9c0,2.2-0.4,3.8-1.3,4.9C49.5,16.9,48.4,17,47.2,17z M88.6,10.4c1-0.6,1.5-1.8,1.5-3.6c0-1.6-0.4-3-1.2-3.7 c-0.8-0.9-1.8-0.9-3.1-0.9h-3.2v17.6h3.2c1.8,0,2.9-0.1,3.8-1.4c0.6-0.9,1-2.3,1-3.7C90.6,12.5,89.8,10.9,88.6,10.4z M84.8,4.8h0.6 c1.7,0,2.4,0.3,2.4,2.4c0,1.7-0.6,2.3-2.4,2.3h-0.6V4.8z M87.6,16.7c-0.4,0.4-1.2,0.5-2.2,0.5h-0.6v-5.3h0.6c0.1,0,0.2,0,0.3,0 s0.2,0,0.3,0c0.6,0,1.1,0,1.5,0.4c0.6,0.4,0.9,1.2,0.9,2.3C88.3,15.5,88.1,16.2,87.6,16.7z M107.6,1.6l-0.1-0.4l-0.1,0.4l-5.8,18 l0,0.2h2.3l0-0.1l1.4-4.4h4.6l1.3,4.4l0,0.1h2.4l0-0.2L107.6,1.6z M106,12.7c0,0,1.4-4.6,1.5-5.1c0.1,0.5,1.5,5.1,1.5,5.1H106z M129.3,10l4.7-7.6l0.1-0.2h-2.7l0,0.1L127.3,9V2.2h-2.2v17.6h2.2v-8.5l4.5,8.4l0,0.1h2.8l-0.1-0.2L129.3,10z M146.4,19.8h7V17h-4.8 v-5.3h4.8V8.9h-4.8V4.8h4.8V2.2h-7L146.4,19.8L146.4,19.8z M174.7,19.6l-4.1-7.7c1.8-0.4,2.7-2,2.7-4.8c0-1.6-0.4-3-1.2-3.9 s-1.8-1-3.1-1h-2.9v17.6h2.1V12l0,0l4,7.7l0,0.1h2.5L174.7,19.6z M168.6,9.6h-0.2V4.9h0.2c1.7,0,2.4,0.4,2.4,2.4 C171,9.3,170.3,9.6,168.6,9.6z"></path> </svg> 