<?xml version="1.0" encoding="UTF-8"?> <svg xmlns="http://www.w3.org/2000/svg" id="Layer_1" data-name="Layer 1" viewBox="0 0 584.42 507.7"><title>White paper sectors_V2</title><g style="opacity:0.81"><polygon points="520.29 501.34 484.16 501.34 484.16 466.38 449.21 466.38 449.21 430.25 484.16 430.25 484.16 409.43 491.16 409.43 491.16 437.25 456.21 437.25 456.21 459.38 491.16 459.38 491.16 494.34 513.29 494.34 513.29 459.38 548.25 459.38 548.25 437.25 513.29 437.25 513.29 402.3 498.29 402.3 498.29 395.3 520.29 395.3 520.29 430.25 555.25 430.25 555.25 466.38 520.29 466.38 520.29 501.34" style="fill:#fff"></polygon></g><circle cx="487.66" cy="398.8" r="5.67" style="fill:orange"></circle><circle cx="9.17" cy="482.5" r="5.67" style="fill:orange"></circle><path d="M163.07,492.54l-1.17-2.91A59.89,59.89,0,0,0,48,525.46c.2.89.43,1.77.67,2.65l6.74-1.9c-.21-.77-.41-1.55-.59-2.33a52.89,52.89,0,0,1,99.36-34.51l-30.25,16.16h-7.62c-14.08.08-23.11,3.59-29.26,11.37-1.75,2.17-8,12.09-10.58,16.2H66.53v7h13.8l1-1.64c1.3-2.09,2.88-4.6,4.45-7.06l31.52,10.28v15.08h5V512.53h3.34Zm-45.74,43.88-28.74-9.37c1.81-2.78,3.3-5,3.92-5.79,4.72-6,12.07-8.67,23.8-8.73h1Z" transform="translate(-46.43 -54.1)" style="fill:#fff;opacity:0.81"></path><path d="M66.4,512h-5c0-8.06,1.84-15.12,5.46-21l4.25,2.63C68,498.71,66.4,504.88,66.4,512Z" transform="translate(-46.43 -54.1)" style="fill:#fff;opacity:0.81"></path><path d="M74.93,487.81l-4-3c7.7-10.34,19.27-17,33.47-19.37l.81,4.93C92.31,472.5,81.84,478.53,74.93,487.81Z" transform="translate(-46.43 -54.1)" style="fill:#fff;opacity:0.81"></path><path d="M70,484.63" transform="translate(-46.43 -54.1)" style="fill:none;stroke:#00263e;stroke-miterlimit:10"></path><circle cx="239.35" cy="230.2" r="6.13" style="fill:orange"></circle><path d="M369.12,280.8H340.28c0-.05,0-.1,0-.15l-.09-.63c0-.31-.07-.63-.1-1s-.06-.69-.08-1c0-.05,0-.1,0-.13v-.15a26.29,26.29,0,0,1,4.71-16.83c3.23-4.38,4.74-8.4,4.74-12.62A19,19,0,0,0,317,234.68a19.25,19.25,0,0,0-5.49,13.63c0,4.23,1.51,8.24,4.74,12.63a26.35,26.35,0,0,1,4.72,16.82V278c0,.35-.05.7-.09,1.06s-.06.63-.09.93l-.09.64,0,.16H297.19v7h15.37a26.45,26.45,0,1,0,35.79,0h20.77Zm-31.44,8.5-.58.15c-.22.06-.44.12-.65.16l-.34.06-.88.17h-.09a30.6,30.6,0,0,1-4.68.33,31.11,31.11,0,0,1-4.71-.33h0l-.92-.18-.33-.06-.69-.17-.56-.14,0-.11a19.18,19.18,0,0,1,14.36,0A1,1,0,0,1,337.68,289.3Zm-11.74-11.47a31.25,31.25,0,0,0-5.7-19.86h0c-2.56-3.48-3.76-6.55-3.76-9.66a14.3,14.3,0,0,1,4.06-10.13,13.78,13.78,0,0,1,9.91-4.09,14,14,0,0,1,14,14.22c0,3.1-1.2,6.17-3.77,9.66A31.25,31.25,0,0,0,335,277.85V278a1.81,1.81,0,0,0,0,.25q0,.63.09,1.23c0,.36.07.73.12,1.12a.88.88,0,0,0,0,.16h-9.55l0-.18c0-.37.08-.73.11-1.1s.08-.82.1-1.23l0-.4Zm24,29.42a19.45,19.45,0,1,1-32.1-14.74l.64.31c.32.15.64.28,1,.41l.31.13.41.17.66.23.38.12.62.21.4.1.32.08.91.23.3.06.11,0,1,.19.25,0a39.08,39.08,0,0,0,10.73,0l.27,0,1-.19.1,0,.31-.06.87-.22.36-.09.41-.11.55-.18.44-.14.66-.23.4-.17.3-.12c.33-.13.65-.27,1-.42l.64-.3A19.38,19.38,0,0,1,349.9,307.25Z" transform="translate(-46.43 -54.1)" style="fill:#fff;opacity:0.81"></path><path d="M331.09,242.93l-1.19-4.86a13.58,13.58,0,0,0-10.06,12.13l5,.37A8.62,8.62,0,0,1,331.09,242.93Z" transform="translate(-46.43 -54.1)" style="fill:#fff;opacity:0.81"></path><path d="M364.73,445H310v7h47.74v27.51H302.32V459.65h-7v97.89h4.49v4.26h10.64v-4.26H349.6v4.26h10.64v-4.26h4.49Zm-7,39.51v66.06H302.32V484.48Z" transform="translate(-46.43 -54.1)" style="fill:#fff;opacity:0.81"></path><rect x="262.31" y="435.69" width="5" height="14.41" style="fill:#fff;opacity:0.81"></rect><rect x="262.31" y="405.55" width="5" height="14.41" style="fill:#fff;opacity:0.81"></rect><circle cx="252.25" cy="394.35" r="6.13" style="fill:orange"></circle><line x1="149.57" y1="449.4" x2="211.57" y2="449.4" style="fill:none;stroke:#fff;stroke-miterlimit:10;stroke-width:2px;opacity:0.81"></line><g style="opacity:0.81"><path d="M545.89,325.49a48,48,0,0,1-40.11-74.41l5.84,3.85a41,41,0,1,0,13.12-12.6l-3.62-6a48,48,0,1,1,24.77,89.15Z" transform="translate(-46.43 -54.1)" style="fill:#fff"></path></g><g style="opacity:0.81"><rect x="591.59" y="299.64" width="7" height="41.98" transform="translate(-98.85 460.6) rotate(-45)" style="fill:#fff"></rect></g><circle cx="468.41" cy="190.87" r="5.67" style="fill:orange"></circle><line x1="355.57" y1="229.4" x2="417.57" y2="229.4" style="fill:none;stroke:#fff;stroke-miterlimit:10;stroke-width:2px;opacity:0.81"></line><circle cx="424.75" cy="19.93" r="5.67" style="fill:orange"></circle><path d="M622.69,78.42l-35.77-7.19c-.61-.15-1.23-.27-1.85-.39a13.2,13.2,0,0,1-4.81-1.56C575,65.61,566.7,60.59,560.67,57A21.05,21.05,0,0,0,550,54.1H516.24A21.11,21.11,0,0,0,505.65,57l-17.11,10a8.57,8.57,0,0,1-2.41.93c-.64,0-2.87.12-4.72.17l.18,7c5.12-.13,5.53-.22,5.86-.29A15.4,15.4,0,0,0,492.07,73l17.1-10a14.1,14.1,0,0,1,7.07-1.91H550a14,14,0,0,1,7.13,1.95c4.85,2.86,13.79,8.23,19.14,12a19.07,19.07,0,0,0,7.44,2.68c.57.11,1.14.23,1.7.36l35.66,7.17c2.79.72,2.8,1.65,2.8,2.07V99.91c0,1.47,0,3.31-5,3.31h-3.23a2.09,2.09,0,0,0,0-.25,16.08,16.08,0,0,0-32.16,0,2.62,2.62,0,0,0,0,.28H517.22a2.44,2.44,0,0,0,0-.27,16.08,16.08,0,0,0-32.16-.25c-3.83-.65-9-1.57-11.43-2l-.58-.1.55-15.86-7-.24-.56,16.07v.21c-.27,5.1,3.33,6.28,4.89,6.56l1.48.26c3.36.59,10.66,1.88,14.3,2.46a16.07,16.07,0,0,0,28.76.16h69.74a16.06,16.06,0,0,0,28.68,0h5c10.83,0,12-7.21,12-10.31V87.27C630.83,84.73,629.74,80.22,622.69,78.42ZM501.15,112.06a9.09,9.09,0,1,1,9.08-9.09A9.1,9.1,0,0,1,501.15,112.06Zm98.4,0a9.09,9.09,0,1,1,9.08-9.09A9.09,9.09,0,0,1,599.55,112.06Z" transform="translate(-46.43 -54.1)" style="fill:#fff;opacity:0.81"></path><line x1="502.07" y1="146.9" x2="502.07" y2="84.9" style="fill:none;stroke:#fff;stroke-miterlimit:10;stroke-width:2px;opacity:0.81"></line><line x1="502.07" y1="365.9" x2="502.07" y2="303.9" style="fill:none;stroke:#fff;stroke-miterlimit:10;stroke-width:2px;opacity:0.81"></line><line x1="355.57" y1="449.4" x2="417.57" y2="449.4" style="fill:none;stroke:#fff;stroke-miterlimit:10;stroke-width:2px;opacity:0.81"></line><line x1="284.07" y1="365.9" x2="284.07" y2="303.9" style="fill:none;stroke:#fff;stroke-miterlimit:10;stroke-width:2px;opacity:0.81"></line></svg> 