<?xml version="1.0" encoding="UTF-8"?> <!-- Generator: Adobe Illustrator 24.0.3, SVG Export Plug-In . SVG Version: 6.00 Build 0) --> <svg xmlns="http://www.w3.org/2000/svg" xmlns:xlink="http://www.w3.org/1999/xlink" version="1.1" id="Layer_1" x="0px" y="0px" viewBox="0 0 712.4 149.5" style="enable-background:new 0 0 712.4 149.5;" xml:space="preserve"> <style type="text/css"> .st0{opacity:0.81;} .st1{fill:none;stroke:#FFFFFF;stroke-width:2.3989;stroke-miterlimit:10;} .st2{opacity:0.71;} .st3{fill:none;stroke:#FFFFFF;stroke-width:2.7676;stroke-miterlimit:10;} .st4{fill:#1499AA;} </style> <g> <g class="st0"> <path class="st1" d="M230.4,127.1"></path> </g> <g class="st0"> <path class="st1" d="M234.5,111.5"></path> </g> <g class="st2"> <path class="st1" d="M437.2,35.5"></path> </g> <g class="st2"> <path class="st1" d="M361.6,92.4"></path> </g> <g class="st0"> <path class="st1" d="M443.2,42.8"></path> </g> <g class="st0"> <path class="st1" d="M368,117.1"></path> </g> <g class="st2"> <path class="st3" d="M120.4,58.4"></path> </g> <g class="st0"> <path class="st3" d="M114.9,52.1"></path> </g> <g class="st2"> <path class="st3" d="M316.3,98.9"></path> </g> <g> <g> <path class="st4" d="M652,135.3C652,135.3,652,135.3,652,135.3c-1.3,0-2.6,0-3.8-0.1l0.5-8.1c1.1,0.1,2.2,0.1,3.3,0.1 c0.6,0,1.1,0,1.7,0l0.3,8.1C653.3,135.3,652.7,135.3,652,135.3z M664,134.1l-1.6-7.9c1.6-0.3,3.2-0.7,4.8-1.2l2.4,7.7 C667.7,133.2,665.8,133.7,664,134.1z M638.3,133.7c0,0-0.1,0-0.1,0c-1.8-0.4-3.7-0.9-5.5-1.5l2.5-7.7c1.6,0.5,3.2,1,4.8,1.3 c0,0,0.1,0,0.1,0l-1,4.1L638.3,133.7z M639.1,129.9L639.1,129.9l0-0.2L639.1,129.9z M678.9,129l-3.6-7.2c1.5-0.7,2.9-1.6,4.4-2.4 l4.3,6.9C682.3,127.2,680.6,128.1,678.9,129z M623.5,128.2c-1.7-0.9-3.4-1.9-4.9-2.9l4.5-6.7c1.4,0.9,2.8,1.8,4.3,2.6 L623.5,128.2z M692,120.1l-5.3-6.1c1.2-1.1,2.4-2.3,3.6-3.5l5.9,5.5C694.8,117.5,693.4,118.9,692,120.1z M610.6,119 c-1.4-1.3-2.7-2.7-4-4.1l6.1-5.4c1.1,1.2,2.3,2.4,3.5,3.6L610.6,119z M702.4,108.2l-6.7-4.5c0.9-1.4,1.8-2.8,2.6-4.3l7.1,3.8 C704.4,105,703.4,106.6,702.4,108.2z M600.6,106.8c-1-1.6-2-3.3-2.8-5l7.2-3.6c0.7,1.5,1.6,2.9,2.4,4.4L600.6,106.8z M709.3,94 l-7.7-2.6c0.5-1.6,1-3.2,1.4-4.8l0-0.1l7.9,1.8l-0.1,0.2C710.4,90.4,709.9,92.2,709.3,94z M594.1,92.5c-0.6-1.8-1-3.7-1.4-5.6 l7.9-1.6c0.3,1.6,0.7,3.2,1.2,4.8L594.1,92.5z M712.3,78.4l-8.1-0.5c0.1-1,0.1-2.1,0.1-3.1c0-0.6,0-1.2,0-1.9l8.1-0.3 c0,0.7,0,1.4,0,2.1C712.4,75.9,712.4,77.2,712.3,78.4z M591.4,76.9c0-0.7,0-1.4,0-2.1c0-1.2,0-2.5,0.1-3.7l8.1,0.5 c-0.1,1.1-0.1,2.1-0.1,3.2c0,0.6,0,1.2,0,1.8L591.4,76.9z M703.3,64.2c-0.3-1.6-0.7-3.2-1.2-4.8l7.7-2.4c0.6,1.8,1,3.7,1.4,5.6 L703.3,64.2z M600.9,62.9l-7.9-1.7l0-0.2c0.4-1.7,0.9-3.6,1.5-5.4l7.7,2.5C601.7,59.7,601.2,61.3,600.9,62.9z M698.8,51.3 c-0.7-1.5-1.6-2.9-2.4-4.3l6.8-4.3c1,1.6,2,3.3,2.8,5L698.8,51.3z M605.6,50.2l-7.1-3.8c0.9-1.7,1.9-3.4,2.9-5l6.7,4.5 C607.3,47.3,606.4,48.7,605.6,50.2z M691.1,40c-1.1-1.2-2.3-2.4-3.5-3.6l5.5-5.9c1.4,1.3,2.8,2.7,4,4.1L691.1,40z M613.6,39.1 l-5.9-5.5c1.3-1.4,2.7-2.7,4.1-4l5.4,6.1C615.9,36.7,614.7,37.8,613.6,39.1z M680.8,31c-1.4-0.9-2.8-1.8-4.3-2.5l3.8-7.1 c1.7,0.9,3.4,1.9,5,2.9L680.8,31z M624.1,30.4l-4.3-6.9c1.6-1,3.3-2,5-2.8l3.6,7.2C627,28.7,625.5,29.5,624.1,30.4z M668.5,25.1 c-1.5-0.5-3.1-0.9-4.7-1.3l-0.1,0l1.8-7.9l0.1,0c1.8,0.4,3.6,0.9,5.4,1.5L668.5,25.1z M636.6,24.7l-2.4-7.7 c1.8-0.6,3.7-1,5.6-1.4l1.6,7.9C639.8,23.8,638.2,24.2,636.6,24.7z M655,22.5c-1.7-0.1-3.3-0.1-5-0.1l-0.3-8.1 c1.9-0.1,3.8,0,5.8,0.1L655,22.5z"></path> </g> </g> <g class="st0"> <g> <path class="st4" d="M651.2,74.7c-9.9,0-18-8.1-18-18c0-1.8,0.3-3.6,0.8-5.4l4.9,1.5c-0.4,1.2-0.6,2.5-0.6,3.9 c0,7.1,5.8,12.8,12.8,12.8c7.1,0,12.8-5.8,12.8-12.8c0-7.1-5.8-12.8-12.8-12.8c-1,0-2,0.1-3,0.3l-1.2-5c1.4-0.3,2.8-0.5,4.2-0.5 c9.9,0,18,8.1,18,18S661.1,74.7,651.2,74.7"></path> </g> <g> <path class="st4" d="M677.9,106.6h-53.5v-2.6c0-14.8,12-26.8,26.8-26.8c14.8,0,26.8,12,26.8,26.8V106.6z M629.7,101.5h43 c-1.3-10.7-10.4-19.1-21.5-19.1C640.1,82.4,630.9,90.8,629.7,101.5"></path> </g> <g> <path class="st4" d="M640.7,41.3c2.3,0,4.2,1.9,4.2,4.2c0,2.3-1.9,4.2-4.2,4.2c-2.3,0-4.2-1.9-4.2-4.2 C636.5,43.2,638.4,41.3,640.7,41.3"></path> </g> </g> <g> <g> <path class="st4" d="M77.4,149l-0.3-8.8c1.6-0.1,3.3-0.2,4.9-0.4l1.2,8.8l-0.2,0C81.1,148.8,79.2,148.9,77.4,149z M67.8,148.8 c-1.8-0.2-3.7-0.4-5.5-0.7l1.4-8.7c1.6,0.3,3.2,0.5,4.9,0.6L67.8,148.8z M92.4,146.9l-2.1-8.6c1.6-0.4,3.2-0.8,4.7-1.3l2.8,8.4 C96,145.9,94.2,146.4,92.4,146.9z M53,145.9c-1.8-0.5-3.5-1.1-5.3-1.8l3.2-8.3c1.5,0.6,3.1,1.1,4.6,1.6L53,145.9z M106.6,141.8 l-3.8-8c1.5-0.7,2.9-1.5,4.3-2.3l4.4,7.7C110,140.1,108.3,141,106.6,141.8z M39.1,140.1c-1.6-0.9-3.2-1.8-4.8-2.8l4.8-7.4 c1.4,0.9,2.8,1.7,4.2,2.5L39.1,140.1z M119.5,134l-5.3-7c1.3-1,2.6-2,3.8-3.1l5.9,6.6C122.4,131.7,121,132.9,119.5,134z M26.6,131.6c-1.4-1.2-2.8-2.4-4.1-3.7l6.2-6.3c1.2,1.1,2.4,2.2,3.6,3.3L26.6,131.6z M130.5,123.7l-6.6-5.8 c1.1-1.2,2.1-2.5,3.1-3.8l7.1,5.3C132.9,120.9,131.8,122.3,130.5,123.7z M16.1,120.8c-1.2-1.5-2.3-3-3.3-4.5l7.3-5 c0.9,1.3,1.9,2.7,2.9,3.9L16.1,120.8z M139.3,111.4l-7.7-4.4c0.8-1.4,1.6-2.9,2.3-4.3l8,3.8C141.1,108.2,140.2,109.8,139.3,111.4 z M8,108.1c-0.8-1.6-1.6-3.4-2.3-5.1l8.2-3.4c0.6,1.5,1.3,3,2,4.5L8,108.1z M145.4,97.6l-8.4-2.7c0.5-1.5,1-3.1,1.3-4.7l8.6,2.1 C146.5,94.1,146,95.9,145.4,97.6z M2.6,94.1c-0.5-1.8-0.9-3.6-1.2-5.4L10,87c0.3,1.6,0.7,3.2,1.1,4.8L2.6,94.1z M148.6,82.9 l-8.8-1c0.2-1.6,0.3-3.3,0.4-4.9l8.8,0.3C148.9,79.2,148.8,81.1,148.6,82.9z M0.2,79.2C0.1,77.6,0,76,0,74.4l0-0.8l8.8,0.1l0,0.7 c0,1.4,0,2.8,0.1,4.2L0.2,79.2z M139.9,68.6c0-0.5-0.1-1-0.2-1.5c-0.1-1.1-0.3-2.3-0.5-3.4l8.7-1.4c0.2,1.3,0.4,2.6,0.5,3.8 c0.1,0.6,0.1,1.1,0.2,1.7L139.9,68.6z M9.5,65.4l-8.8-1.2c0.3-1.8,0.6-3.7,1-5.5l8.6,1.9C10,62.1,9.7,63.7,9.5,65.4z M137.4,55.6 c-0.5-1.6-1-3.1-1.6-4.6l8.3-3.2c0.7,1.7,1.3,3.5,1.8,5.3L137.4,55.6z M12.7,52.5l-8.3-3c0.6-1.7,1.3-3.5,2.1-5.2l8.1,3.6 C13.8,49.4,13.2,50.9,12.7,52.5z M132.3,43.3c-0.8-1.4-1.6-2.8-2.5-4.2l7.4-4.8c1,1.6,1.9,3.2,2.8,4.8L132.3,43.3z M18.4,40.5 l-7.6-4.6c1-1.6,2-3.1,3.1-4.6l7.2,5.1C20.1,37.7,19.2,39.1,18.4,40.5z M124.9,32.3c-1-1.2-2.1-2.5-3.3-3.6l6.3-6.2 c1.3,1.3,2.6,2.7,3.7,4.1L124.9,32.3z M26.4,29.9l-6.5-6c1.3-1.4,2.6-2.7,3.9-3.9l6,6.5C28.7,27.5,27.5,28.7,26.4,29.9z M115.3,23.1c-1.3-1-2.6-2-4-2.9l5-7.3c1.5,1,3,2.1,4.5,3.3L115.3,23.1z M36.4,21.1l-5.1-7.2c1.5-1.1,3.1-2.1,4.6-3.1l4.6,7.6 C39.1,19.2,37.7,20.1,36.4,21.1z M104.1,15.9c-1.5-0.7-3-1.4-4.5-2.1l3.4-8.2c1.7,0.7,3.4,1.5,5.1,2.3L104.1,15.9z M47.9,14.5 l-3.6-8.1c1.7-0.8,3.4-1.4,5.2-2.1l3,8.3C50.9,13.2,49.4,13.8,47.9,14.5z M91.7,11.1c-1.6-0.4-3.2-0.8-4.8-1.1l1.7-8.7 c1.8,0.3,3.6,0.8,5.4,1.3L91.7,11.1z M60.5,10.4l-1.9-8.6c1.8-0.4,3.6-0.7,5.5-1l1.2,8.8C63.7,9.7,62.1,10,60.5,10.4z M78.6,9 c-1.6-0.1-3.3-0.1-4.9-0.1L73.6,0c1.8,0,3.7,0,5.6,0.1L78.6,9z"></path> </g> </g> <g> <g class="st0"> <polygon class="st4" points="120.8,105.9 31.8,105.9 31.8,53.5 37.9,53.5 37.9,99.9 114.7,99.9 114.7,47.8 43.5,47.8 43.5,41.7 120.8,41.7 "></polygon> </g> <g class="st0"> <path class="st4" d="M39.7,44.8c0,2.7-2.2,4.9-4.9,4.9c-2.7,0-4.9-2.2-4.9-4.9c0-2.7,2.2-4.9,4.9-4.9 C37.5,39.8,39.7,42,39.7,44.8"></path> </g> <g class="st0"> <rect x="58.4" y="108.6" class="st4" width="35.3" height="4.3"></rect> </g> </g> <g> <path class="st4" d="M259,140.5L259,140.5L259,140.5c-2.9-0.4-4.8-3-4.4-5.9l0,0c0.4-2.9,3-4.8,5.9-4.4l0,0c2.9,0.4,4.8,3,4.4,5.9 l0,0c-0.4,2.6-2.6,4.5-5.2,4.5l0,0C259.5,140.6,259.2,140.6,259,140.5z M271.9,136.1c-0.4-2.9,1.6-5.5,4.4-5.9l0,0 c2.9-0.4,5.5,1.6,5.9,4.4l0,0c0.4,2.8-1.6,5.5-4.4,5.9l0,0c-0.3,0-0.5,0.1-0.8,0.1l0,0C274.5,140.6,272.2,138.7,271.9,136.1z M240.9,135.3L240.9,135.3L240.9,135.3c-2.6-1.2-3.8-4.3-2.6-6.9l0,0c1.2-2.6,4.3-3.8,6.9-2.6l0,0c2.6,1.2,3.8,4.3,2.6,6.9l0,0 c-0.9,1.9-2.8,3.1-4.8,3.1l0,0C242.3,135.8,241.6,135.6,240.9,135.3z M288.9,132.6c-1.2-2.6-0.1-5.7,2.5-6.9l0,0 c2.6-1.2,5.7-0.1,6.9,2.5l0,0c1.2,2.6,0.1,5.7-2.5,6.9l0,0c-0.7,0.3-1.5,0.5-2.2,0.5l0,0C291.7,135.6,289.8,134.5,288.9,132.6z M225,125.1L225,125.1L225,125.1c-2.2-1.9-2.4-5.2-0.5-7.4l0,0c1.9-2.2,5.2-2.4,7.4-0.5l0,0c2.2,1.9,2.4,5.2,0.5,7.4l0,0 c-1,1.2-2.5,1.8-4,1.8l0,0C227.2,126.4,226,126,225,125.1z M304.2,124.4c-1.9-2.2-1.7-5.5,0.5-7.4l0,0c2.2-1.9,5.5-1.7,7.4,0.5 l0,0c1.9,2.2,1.7,5.5-0.5,7.4l0,0c-1,0.9-2.2,1.3-3.4,1.3l0,0C306.7,126.2,305.3,125.6,304.2,124.4z M212.7,110.9 c-1.6-2.4-0.9-5.6,1.6-7.2l0,0c2.4-1.6,5.6-0.9,7.2,1.6l0,0c1.6,2.4,0.9,5.6-1.6,7.2l0,0c-0.9,0.6-1.9,0.8-2.8,0.8l0,0 C215.4,113.3,213.7,112.4,212.7,110.9z M316.7,112.2c-2.4-1.5-3.2-4.8-1.6-7.2l0,0c1.5-2.4,4.8-3.2,7.2-1.6l0,0 c2.4,1.5,3.2,4.8,1.6,7.2l0,0c-1,1.6-2.7,2.4-4.4,2.4l0,0C318.5,113,317.5,112.7,316.7,112.2z M204.9,93.8L204.9,93.8L204.9,93.8 c-0.8-2.8,0.8-5.7,3.5-6.5l0,0c2.8-0.8,5.7,0.8,6.5,3.5l0,0c0.8,2.8-0.8,5.7-3.5,6.5l0,0c-0.5,0.1-1,0.2-1.5,0.2l0,0 C207.6,97.5,205.6,96.1,204.9,93.8z M325.1,97c-2.8-0.8-4.4-3.7-3.6-6.4l0,0c0.8-2.8,3.7-4.4,6.4-3.6l0,0c2.8,0.8,4.4,3.7,3.6,6.4 l0,0c-0.7,2.3-2.7,3.8-5,3.8l0,0C326.1,97.2,325.6,97.1,325.1,97z M207.4,80.4c-2.9,0-5.2-2.4-5.2-5.2l0,0l0,0l0,0 c0-2.9,2.4-5.2,5.2-5.2l0,0c2.9,0,5.2,2.4,5.2,5.2l0,0C212.7,78.1,210.3,80.4,207.4,80.4L207.4,80.4 C207.5,80.4,207.5,80.4,207.4,80.4z M323.7,74.8L323.7,74.8c0-2.9,2.3-5.2,5.2-5.3l0,0c2.9,0,5.2,2.3,5.2,5.2l0,0 c0,2.9-2.3,5.2-5.2,5.3l0,0c0,0,0,0,0,0l0,0C326,80,323.7,77.7,323.7,74.8z M208.5,63c-2.8-0.8-4.3-3.7-3.5-6.5l0,0 c0.8-2.8,3.7-4.3,6.5-3.5l0,0c2.8,0.8,4.3,3.7,3.5,6.5l0,0c-0.7,2.3-2.7,3.7-5,3.7l0,0C209.5,63.2,209,63.2,208.5,63z M321.3,59.2 c-0.8-2.8,0.7-5.7,3.5-6.5l0,0c2.8-0.8,5.7,0.7,6.5,3.5l0,0c0.8,2.8-0.7,5.7-3.5,6.5l0,0c-0.5,0.2-1,0.2-1.5,0.2l0,0 C324.1,62.9,322,61.4,321.3,59.2z M214.4,46.6c-2.4-1.6-3.1-4.8-1.5-7.2l0,0c1.6-2.4,4.8-3.1,7.2-1.5l0,0c2.4,1.6,3.1,4.8,1.5,7.2 l0,0c-1,1.5-2.7,2.4-4.4,2.4l0,0C216.2,47.5,215.2,47.2,214.4,46.6z M314.6,44.8c-1.6-2.4-0.9-5.6,1.5-7.2l0,0 c2.4-1.6,5.6-0.9,7.2,1.5l0,0c1.6,2.4,0.9,5.6-1.5,7.2l0,0c-0.9,0.6-1.9,0.9-2.9,0.9l0,0C317.3,47.2,315.6,46.4,314.6,44.8z M224.7,32.6c-1.9-2.2-1.6-5.5,0.6-7.4l0,0l0,0l0,0c2.2-1.9,5.5-1.6,7.4,0.6l0,0c1.9,2.2,1.6,5.5-0.6,7.4l0,0 c-1,0.8-2.2,1.3-3.4,1.3l0,0C227.2,34.4,225.7,33.8,224.7,32.6z M304.1,32.9c-2.2-1.9-2.5-5.2-0.6-7.4l0,0 c1.9-2.2,5.2-2.5,7.4-0.6l0,0c2.2,1.9,2.5,5.2,0.6,7.4l0,0c-1,1.2-2.5,1.8-4,1.8l0,0C306.3,34.2,305.1,33.8,304.1,32.9z M238.5,22 c-1.2-2.6,0-5.7,2.6-6.9l0,0c0,0,0,0,0,0l0,0c2.6-1.2,5.7,0,6.9,2.6l0,0c1.2,2.6,0,5.7-2.6,6.9l0,0c-0.7,0.3-1.4,0.5-2.1,0.5l0,0 C241.3,25.1,239.3,24,238.5,22z M290.7,24.5c-2.6-1.2-3.8-4.3-2.7-6.9l0,0c1.2-2.6,4.3-3.8,6.9-2.7l0,0c2.6,1.2,3.8,4.3,2.7,6.9 l0,0c-0.9,1.9-2.8,3.1-4.8,3.1l0,0C292.1,25,291.4,24.8,290.7,24.5z M254.7,15.8c-0.4-2.9,1.6-5.5,4.5-5.9l0,0 c2.9-0.4,5.5,1.6,5.9,4.5l0,0c0.4,2.9-1.6,5.5-4.5,5.9l0,0c-0.2,0-0.5,0.1-0.7,0.1l0,0C257.3,20.3,255.1,18.4,254.7,15.8z M275.4,20.2c-2.9-0.4-4.9-3-4.5-5.9l0,0c0.4-2.9,3-4.9,5.9-4.5l0,0l0,0l0,0c2.9,0.4,4.9,3,4.5,5.9l0,0c-0.3,2.6-2.6,4.5-5.2,4.5 l0,0C275.9,20.3,275.7,20.3,275.4,20.2z"></path> </g> <g> <g> <path class="st4" d="M259.5,67.8c-1.5,0-2.7-1.2-2.7-2.7c0-1.5,1.2-2.7,2.7-2.7c1.5,0,2.7,1.2,2.7,2.7 C262.2,66.6,261,67.8,259.5,67.8 M259.5,64.9c-0.1,0-0.2,0.1-0.2,0.2c0,0.1,0.1,0.2,0.2,0.2s0.2-0.1,0.2-0.2 C259.8,65,259.7,64.9,259.5,64.9"></path> </g> <g> <path class="st4" d="M276.6,67.8c-1.5,0-2.7-1.2-2.7-2.7c0-1.5,1.2-2.7,2.7-2.7s2.7,1.2,2.7,2.7C279.2,66.6,278,67.8,276.6,67.8 M276.6,64.9c-0.1,0-0.2,0.1-0.2,0.2c0,0.1,0.1,0.2,0.2,0.2s0.2-0.1,0.2-0.2C276.8,65,276.7,64.9,276.6,64.9"></path> </g> <g> <g> <polygon class="st4" points="293.1,101.8 242.9,101.8 242.9,60.6 247,60.6 247,97.8 289.1,97.8 289.1,56.4 251.1,56.4 251.1,52.4 293.1,52.4 "></polygon> </g> <g> <path class="st4" d="M278,66.5h-2.9V50.6c0-3.9-3.2-7.1-7.1-7.1c-3.9,0-7.1,3.2-7.1,7.1v15.9h-2.9V50.6c0-5.5,4.5-10,10-10 s10,4.5,10,10V66.5z"></path> </g> <g> <rect x="256.9" y="62.5" class="st4" width="5.3" height="5.3"></rect> </g> <g> <rect x="273.9" y="62.5" class="st4" width="5.3" height="5.3"></rect> </g> <g> <path class="st4" d="M248.2,54.4c0,1.8-1.5,3.3-3.3,3.3c-1.8,0-3.3-1.5-3.3-3.3c0-1.8,1.5-3.3,3.3-3.3 C246.7,51.1,248.2,52.6,248.2,54.4"></path> </g> </g> </g> <g> <path class="st4" d="M458.8,149.5c-0.3,0-0.7,0-1,0l0.1-8.1c4.4,0.1,8.7-0.3,13-1.1l1.5,8C467.9,149.1,463.3,149.5,458.8,149.5z M443.2,147.9c-4.8-1-9.5-2.5-14-4.4l3.2-7.5c4,1.7,8.2,3,12.4,3.9L443.2,147.9z M486.4,144.3l-3-7.6c4-1.6,7.9-3.6,11.6-6 l4.4,6.8C495.4,140.2,491,142.4,486.4,144.3z M416.4,136.4c-4-2.7-7.7-5.9-11.2-9.4l-0.1-0.1l2.4-2.2l3.5-3.5l0.1,0.1v0 c3,3.1,6.4,5.9,9.9,8.4L416.4,136.4z M510.8,128.4l-1.7-1.9l-4-3.9l0.1-0.1h0c3.1-3,5.9-6.4,8.4-9.9l6.7,4.6 c-2.7,4-5.9,7.7-9.4,11.1L510.8,128.4z M396.1,115.5c-2.7-4.1-4.9-8.5-6.7-13l7.6-3c1.6,4,3.6,7.9,6,11.6L396.1,115.5z M527.4,104.4l-7.5-3.2c1.7-4,3-8.2,4-12.4l8,1.7C530.9,95.2,529.4,99.9,527.4,104.4z M385.3,88.4c-0.8-4.5-1.2-9.1-1.2-13.6l0-1 l8.1,0.1l0,0.9c0,4.1,0.4,8.2,1.1,12.2L385.3,88.4z M533.5,75.9l-8.1-0.1c0-0.3,0-0.6,0-0.9c0-4-0.4-8.1-1.1-12.1l8-1.5 c0.8,4.5,1.2,9,1.2,13.5C533.5,75.1,533.5,75.5,533.5,75.9z M393.6,61l-8-1.7c1-4.8,2.5-9.5,4.4-14l7.5,3.2 C395.8,52.5,394.5,56.7,393.6,61z M520.7,50.2c-1.6-4-3.6-7.9-6-11.6l6.8-4.4c2.7,4.1,4.9,8.5,6.7,13L520.7,50.2z M403.8,37.1 l-6.7-4.6c2.8-4,5.9-7.8,9.4-11.2l0.1-0.1l5.7,5.8l-0.1,0.1C409.1,30.2,406.3,33.5,403.8,37.1z M506.6,28.4 c-0.1-0.1-0.1-0.1-0.2-0.2c-3-3.1-6.3-5.9-9.8-8.3l4.6-6.7c4,2.7,7.7,5.9,11.1,9.4l0.1,0.1L506.6,28.4z M422.6,18.9l-4.4-6.8 c4.1-2.7,8.5-4.9,13-6.7l3,7.6C430.1,14.5,426.2,16.5,422.6,18.9z M485.2,13.6c-4-1.7-8.2-3.1-12.4-4l1.7-8c4.8,1,9.5,2.5,14,4.4 L485.2,13.6z M446.7,9.3l-1.5-8c4.8-0.9,9.7-1.3,14.6-1.2l-0.1,8.1C455.4,8.1,451,8.5,446.7,9.3z"></path> </g> <g> <g class="st0"> <g> <path class="st4" d="M460.3,92.4c-3,0-5.5-2.8-5.5-6.2c0-3.4,2.5-6.2,5.5-6.1c3,0,5.4,2.8,5.4,6.2 C465.7,89.7,463.2,92.4,460.3,92.4z M464.2,79.1l-7.6,0l-1.1-31.3l10.1,0L464.2,79.1z"></path> </g> </g> <g class="st0"> <polygon class="st4" points="502.9,100.6 416.3,100.3 454.3,35 458.3,37.3 424.4,95.7 494.8,95.9 461.3,37.4 465.4,35.1 "></polygon> </g> <g class="st0"> <circle class="st4" cx="459.8" cy="30.9" r="3.8"></circle> </g> </g> </g> </svg> 