<?xml version="1.0" encoding="UTF-8"?> <!-- Generator: Adobe Illustrator 24.0.3, SVG Export Plug-In . SVG Version: 6.00 Build 0) --> <svg xmlns="http://www.w3.org/2000/svg" xmlns:xlink="http://www.w3.org/1999/xlink" version="1.1" id="Layer_1" x="0px" y="0px" viewBox="0 0 612.2 329.2" style="enable-background:new 0 0 612.2 329.2;" xml:space="preserve"> <style type="text/css"> .st0{fill:none;stroke:#FCC503;stroke-width:5.6268;stroke-linecap:round;stroke-linejoin:round;stroke-miterlimit:10;stroke-dasharray:0,12.0574;} .st1{opacity:0.71;fill:none;stroke:#FFFFFF;stroke-width:2.4115;stroke-miterlimit:10;} .st2{fill:#1499AA;} .st3{fill:#FFA500;} .st4{fill:none;stroke:#FFFFFF;stroke-width:2.4115;stroke-miterlimit:10;stroke-opacity:0.81;} .st5{fill:none;stroke:#FCC503;stroke-width:4.0191;stroke-miterlimit:10;stroke-dasharray:8.1619,5.7133;} .st6{fill:none;stroke:#FCC503;stroke-width:4.823;stroke-linejoin:round;stroke-dasharray:3.2737,5.7291;} .st7{fill:#1499AA;fill-opacity:0.81;} .st8{fill:none;stroke:#FCC503;stroke-width:4.0191;stroke-miterlimit:10;stroke-dasharray:7.8815,5.517;} .st9{fill:none;stroke:#FCC503;stroke-width:7.2345;stroke-linejoin:round;stroke-dasharray:3.1717,5.5505;} </style> <g> <g> <circle class="st0" cx="148.6" cy="260.4" r="49.5"></circle> <path class="st1" d="M197.4,231.8"></path> <path class="st1" d="M248.8,202.2"></path> </g> <g> <g> <polygon class="st2" points="360.2,216.3 236.4,216.3 236.4,143.3 244.8,143.3 244.8,207.9 351.7,207.9 351.7,135.4 252.7,135.4 252.7,127 360.2,127 "></polygon> <path class="st3" d="M247.4,131.2c0,3.8-3.1,6.8-6.8,6.8c-3.8,0-6.8-3.1-6.8-6.8c0-3.8,3.1-6.8,6.8-6.8 C244.4,124.3,247.4,127.4,247.4,131.2"></path> <rect x="273.4" y="224.5" class="st2" width="49.1" height="9.4"></rect> </g> <g> <rect x="253.8" y="185.8" class="st2" width="6.4" height="11.2"></rect> <rect x="265.6" y="179" class="st2" width="6.4" height="18"></rect> <rect x="277.3" y="172.2" class="st2" width="6.4" height="24.8"></rect> <rect x="289.1" y="183.9" class="st2" width="6.4" height="13"></rect> <rect x="300.8" y="177.1" class="st2" width="6.4" height="19.8"></rect> <rect x="312.6" y="170.4" class="st2" width="6.4" height="26.6"></rect> <rect x="324.4" y="177.1" class="st2" width="6.4" height="19.8"></rect> <rect x="336.1" y="170.4" class="st2" width="6.4" height="26.6"></rect> <polygon class="st2" points="258.6,169.4 255.4,163.9 281,148.7 292.8,160.3 316.1,147.3 327.5,156 337.3,148 341.3,153 327.6,164.1 315.5,154.9 291.7,168.2 280,156.7 "></polygon> </g> </g> <g> <g> <defs> <rect id="SVGID_1_" x="192.9" y="28.3" width="195.3" height="234.6"></rect> </defs> <clipPath id="SVGID_2_"> <use xlink:href="#SVGID_1_" style="overflow:visible;"></use> </clipPath> </g> </g> <path class="st2" d="M115.1,276.6c0.2-0.3,0.5-0.3,0.9-0.1c9.9,5.7,20.6,8.6,32.2,8.6c7.7,0,15.4-1.4,22.9-4.3 c0.2-0.1,0.5-0.2,0.9-0.4c0.4-0.2,0.6-0.3,0.8-0.4c0.6-0.2,1.1-0.1,1.4,0.4c0.3,0.5,0.2,0.9-0.3,1.3c-0.7,0.5-1.6,1.1-2.7,1.8 c-3.4,2-7.2,3.6-11.4,4.7c-4.2,1.1-8.3,1.7-12.3,1.7c-6.2,0-12-1.1-17.5-3.2c-5.5-2.1-10.4-5.2-14.7-9.1c-0.2-0.2-0.4-0.4-0.4-0.6 C115,276.9,115.1,276.8,115.1,276.6 M132.9,259.8c0-2.7,0.7-5,2-7c1.3-1.9,3.2-3.4,5.5-4.4c2.1-0.9,4.8-1.6,7.9-1.9 c1.1-0.1,2.8-0.3,5.2-0.5v-1c0-2.5-0.3-4.2-0.8-5.1c-0.8-1.2-2.1-1.8-3.9-1.8h-0.5c-1.3,0.1-2.4,0.5-3.4,1.2 c-0.9,0.7-1.6,1.7-1.8,3c-0.2,0.8-0.6,1.2-1.2,1.4l-6.8-0.8c-0.7-0.2-1-0.5-1-1.1c0-0.1,0-0.3,0.1-0.4c0.7-3.5,2.3-6.1,4.9-7.8 c2.6-1.7,5.7-2.6,9.2-2.8h1.5c4.5,0,8,1.2,10.5,3.5c0.4,0.4,0.8,0.8,1.1,1.3c0.3,0.4,0.6,0.9,0.8,1.2c0.2,0.4,0.4,0.9,0.5,1.5 c0.2,0.7,0.3,1.1,0.4,1.4c0.1,0.3,0.1,0.8,0.2,1.7c0,0.8,0.1,1.3,0.1,1.5v14.3c0,1,0.1,2,0.4,2.8c0.3,0.9,0.6,1.5,0.9,1.8 c0.3,0.4,0.7,1,1.4,1.8c0.2,0.4,0.4,0.7,0.4,0.9c0,0.3-0.2,0.6-0.5,0.8c-3.3,2.8-5,4.4-5.3,4.6c-0.5,0.4-1,0.4-1.7,0.1 c-0.6-0.5-1-0.9-1.5-1.4c-0.4-0.4-0.7-0.8-0.9-0.9c-0.2-0.2-0.5-0.6-0.9-1.2c-0.4-0.6-0.7-1-0.8-1.2c-2.2,2.4-4.4,3.9-6.5,4.5 c-1.3,0.4-3,0.6-5,0.6c-3,0-5.5-0.9-7.5-2.8C133.9,265.9,132.9,263.2,132.9,259.8 M143.1,258.6c0,1.5,0.4,2.8,1.2,3.7 c0.8,0.9,1.8,1.4,3.1,1.4c0.1,0,0.3,0,0.5-0.1c0.2,0,0.4-0.1,0.4-0.1c1.7-0.4,2.9-1.5,3.8-3.2c0.4-0.7,0.8-1.6,1-2.5 c0.2-0.9,0.3-1.6,0.4-2.2c0-0.6,0-1.5,0-2.7v-1.5c-2.3,0-4,0.2-5.2,0.5C144.9,253,143.1,255.2,143.1,258.6 M168,277.7 c0.1-0.2,0.2-0.3,0.4-0.5c1-0.7,1.9-1.1,2.8-1.4c1.5-0.4,3-0.6,4.4-0.6c0.4,0,0.8,0,1.1,0.1c1.8,0.2,2.8,0.5,3.2,0.9 c0.2,0.2,0.2,0.6,0.2,1.1v0.4c0,1.4-0.4,3-1.1,4.9c-0.7,1.9-1.8,3.4-3.1,4.5c-0.2,0.2-0.4,0.2-0.5,0.2c-0.1,0-0.2,0-0.2-0.1 c-0.2-0.1-0.3-0.3-0.2-0.7c1.5-3.4,2.2-5.8,2.2-7.2c0-0.4-0.1-0.8-0.2-0.9c-0.4-0.5-1.5-0.7-3.3-0.7c-0.7,0-1.5,0-2.4,0.1 c-1,0.1-1.9,0.2-2.7,0.4c-0.2,0-0.4,0-0.5-0.1c-0.1-0.1-0.1-0.2-0.1-0.2C167.9,277.8,167.9,277.7,168,277.7"></path> <line class="st4" x1="192.6" y1="226.3" x2="230.9" y2="188.4"></line> <g> <g> <path class="st5" d="M12.7,127.5c-14,13.6-14.3,36-0.6,50c13.6,14,36,14.3,50,0.6c14-13.6,14.3-36,0.6-50 C49,114.2,26.6,113.9,12.7,127.5z"></path> </g> <path class="st1" d="M70.5,178.3"></path> <path class="st1" d="M115.8,212.9"></path> </g> <g> <g> <path class="st6" d="M175.4,75.2c-4.1,17.7-21.8,28.8-39.6,24.6C118,95.7,107,77.9,111.1,60.2c4.1-17.7,21.8-28.8,39.6-24.6 C168.4,39.7,179.5,57.4,175.4,75.2z"></path> </g> </g> <path class="st1" d="M57.6,121.4"></path> <path class="st1" d="M110.8,88.7"></path> <path class="st2" d="M144.1,88.6V68.9h6.3l1.1-7.3h-7.4v-5.7c0-2.1,1.1-3.3,3.2-3.3h4.7V46c0,0-2.1-0.3-5.2-0.3 c-6.9,0-10.5,3.9-10.5,9.6v6.3H130v7.3h6.3v19.7H144.1z"></path> <g> <g> <path class="st7" d="M16.4,136.8c0,1.2-0.9,2.1-2.1,2.1c-1.2,0-2.1-0.9-2.1-2.1c0-1.2,1-2.1,2.1-2.1 C15.4,134.7,16.4,135.7,16.4,136.8"></path> <path class="st2" d="M34.7,174.9c-2,0-3.6-1.6-3.6-3.6c0-2,1.6-3.6,3.6-3.6c2,0,3.6,1.6,3.6,3.6 C38.2,173.3,36.6,174.9,34.7,174.9 M34.7,169.6c-0.9,0-1.7,0.8-1.7,1.7s0.8,1.7,1.7,1.7c0.9,0,1.7-0.8,1.7-1.7 S35.6,169.6,34.7,169.6"></path> <path class="st7" d="M59.5,143.6H28l-1.9-8h-7.9v2.6H24l1.6,7c0,0,0,0,0,0.1l3.5,15.2c0,0,0,0,0,0l1.5,6.5h23v-2.6H32.7l-0.7-2.9 h23.8L59.5,143.6z M31.5,158.8l-2.9-12.6h27.8l-2.6,12.6H31.5z"></path> </g> <path class="st2" d="M49.8,175.3c-2,0-3.6-1.6-3.6-3.6c0-2,1.6-3.6,3.6-3.6c2,0,3.6,1.6,3.6,3.6C53.3,173.6,51.7,175.3,49.8,175.3 M49.8,170c-0.9,0-1.7,0.8-1.7,1.7s0.8,1.7,1.7,1.7c0.9,0,1.7-0.8,1.7-1.7S50.7,170,49.8,170"></path> </g> <line class="st4" x1="70.7" y1="126.7" x2="109" y2="88.8"></line> <line class="st4" x1="231.2" y1="149.9" x2="174.9" y2="94"></line> <line class="st4" x1="411.2" y1="231.1" x2="363.8" y2="184.5"></line> <g> <g> <ellipse transform="matrix(0.9506 -0.3103 0.3103 0.9506 9.6137 149.7631)" class="st8" cx="475.5" cy="44.7" rx="42.7" ry="42.7"></ellipse> </g> <path class="st1" d="M435,73.4"></path> <path class="st1" d="M359,130.6"></path> </g> <g> <g> <g> <ellipse transform="matrix(0.8367 -0.5476 0.5476 0.8367 -76.9945 292.8546)" class="st9" cx="452.6" cy="275.5" rx="50" ry="50"></ellipse> </g> </g> <path class="st1" d="M361.4,199"></path> <path class="st1" d="M410.1,238.1"></path> </g> <circle class="st0" cx="567.3" cy="162.4" r="42.1"></circle> <path class="st1" d="M538.4,211.3"></path> <path class="st1" d="M498.2,241.9"></path> <g> <path class="st7" d="M488.9,69.6c-2.6,0-5.9-1.2-9.8-3.5c-5.1-3.1-10.3-7.4-13.3-10.5c-0.2-0.2-19.9-20-12.3-27.6l1.8-1.8l2.8,2.8 l-1.8,1.8C454,33,458.7,43,468.6,52.8c2.8,2.8,7.7,7.1,12.6,9.9c4.7,2.8,8.2,3.6,9.6,2.3l5.5-5.5l-9.3-9.3l-5.2,5.2l-1.3-0.8 c-0.2-0.1-4.4-2.7-7.6-6c-3.3-3.3-5.9-7.5-6-7.6l-0.8-1.3l5.2-5.2l-5.6-5.5l2.8-2.8l8.3,8.3l-5.8,5.8c1,1.4,2.7,3.7,4.6,5.7 c1.9,1.9,4.3,3.6,5.7,4.6l5.8-5.8l14.8,14.8l-8.2,8.2C492.3,69,490.8,69.6,488.9,69.6"></path> <path class="st7" d="M461.8,19.3c1.8,0,3.2,1.4,3.2,3.2c0,1.7-1.4,3.2-3.2,3.2c-1.7,0-3.2-1.4-3.2-3.2 C458.6,20.7,460,19.3,461.8,19.3"></path> </g> <path class="st2" d="M453.2,252.9c2.1,0,9.2,0.6,12.5,8c1.1,2.5,0.8,6.8,0.6,10.2l0,0.1c0,0.4,0,0.7-0.1,1.1 c0.2,0.1,0.4,0.2,0.8,0.2c0.6,0,1.4-0.2,2.2-0.6c0.3-0.2,0.7-0.2,1-0.2c0.4,0,0.7,0.1,1.1,0.2h0c0.9,0.3,1.5,1,1.5,1.8 c0,1-0.8,1.8-2.6,2.5c-0.2,0.1-0.5,0.2-0.7,0.3c-1,0.3-2.4,0.8-2.8,1.7c-0.2,0.5-0.1,1.1,0.2,1.8c0,0,0,0,0,0.1 c0.1,0.3,3.2,7.3,10.1,8.5c0.5,0.1,0.9,0.6,0.9,1.1c0,0.2,0,0.3-0.1,0.5c-0.5,1.2-2.7,2.1-6.6,2.7c-0.1,0.2-0.3,0.8-0.4,1.2 c-0.1,0.4-0.2,0.8-0.3,1.2c-0.2,0.6-0.6,0.9-1.2,0.9h0l0,0c-0.3,0-0.7,0-1.1-0.1c-0.8-0.1-1.6-0.3-2.7-0.3c-0.6,0-1.3,0.1-1.9,0.2 c-1.3,0.2-2.4,1-3.6,1.9c-1.8,1.3-3.8,2.7-6.9,2.7c-0.1,0-0.3,0-0.4,0c-0.1,0-0.2,0-0.3,0c-3.1,0-5.1-1.4-6.9-2.7 c-1.3-0.9-2.3-1.7-3.6-1.9c-0.7-0.1-1.3-0.2-1.9-0.2c-1.1,0-2,0.2-2.7,0.3c-0.4,0.1-0.8,0.2-1.1,0.2c-0.8,0-1.1-0.5-1.2-0.9 c-0.1-0.4-0.2-0.8-0.3-1.2c-0.1-0.4-0.2-1-0.3-1.2c-4-0.6-6.1-1.5-6.6-2.7c-0.1-0.2-0.1-0.3-0.1-0.5c0-0.5,0.3-1,0.9-1.1 c6.8-1.1,9.9-8.2,10.1-8.5c0,0,0,0,0-0.1c0.4-0.7,0.4-1.4,0.2-1.8c-0.4-0.9-1.9-1.4-2.8-1.7c-0.3-0.1-0.5-0.2-0.7-0.3 c-2.3-0.9-2.7-2-2.5-2.7c0.2-1,1.4-1.7,2.5-1.7c0.3,0,0.6,0.1,0.8,0.2c0.9,0.4,1.7,0.6,2.3,0.6c0.5,0,0.8-0.1,1-0.2 c0-0.4-0.1-0.8-0.1-1.2c-0.2-3.4-0.5-7.7,0.6-10.2c3.3-7.5,10.4-8,12.5-8c0.1,0,0.9,0,0.9,0H453.2 M453.2,249.2L453.2,249.2H453 l-0.8,0c-2.6,0-11.6,0.7-15.9,10.3c-1.1,2.4-1.2,5.6-1.1,8.6h-0.1c-2.5,0-5.6,1.7-6.2,4.7c-0.2,1.1-0.5,4.8,4.8,6.9 c0.1,0.1,0.3,0.1,0.5,0.2c-1,1.6-3.2,4.4-6.5,4.9c-2.4,0.4-4.2,2.6-4,5c0,0.6,0.2,1.2,0.4,1.7c1.1,2.6,4,3.8,7.1,4.5 c0,0.1,0,0.1,0,0.2c0.6,2.2,2.5,3.6,4.8,3.6c0.7,0,1.3-0.1,1.9-0.2c0.6-0.1,1.2-0.2,2-0.2c0.4,0,0.9,0,1.3,0.1 c0.4,0.1,1.2,0.7,2.1,1.2c2,1.4,4.8,3.4,9.1,3.4c0.1,0,0.2,0,0.3,0c0.1,0,0.2,0,0.3,0c4.3,0,7.1-2,9.1-3.4c0.8-0.6,1.6-1.2,2.1-1.2 c0.4-0.1,0.9-0.1,1.3-0.1c0.7,0,1.3,0.1,2,0.2c0.7,0.1,1.3,0.2,1.9,0.2h0c2.3,0,4.2-1.4,4.8-3.6l0-0.1c3.1-0.7,6-1.9,7.1-4.5 c0.2-0.6,0.4-1.1,0.4-1.7c0.1-2.5-1.6-4.6-4-5c-3.3-0.5-5.5-3.2-6.5-4.9c0.2-0.1,0.3-0.1,0.5-0.2c4.4-1.7,5-4.5,4.9-6 c0-2.3-1.6-4.3-4-5.2c-0.7-0.3-1.6-0.4-2.4-0.4c0.1-3-0.1-6.2-1.1-8.6C464.8,249.9,455.8,249.2,453.2,249.2"></path> <line class="st4" x1="365.4" y1="155.6" x2="441" y2="80.8"></line> <line class="st4" x1="496.9" y1="235.5" x2="535.2" y2="197.6"></line> <polygon class="st2" points="549.9,145.3 549.9,148.3 585.8,148.3 567.3,163.5 552,150.9 550.6,152.6 567.3,166.3 587.8,149.5 587.8,176.2 546.8,176.2 546.8,151.4 543.8,151.4 543.8,179.3 590.9,179.3 590.9,145.3 "></polygon> <path class="st2" d="M545.4,144.2c1.5,0,2.7,1.2,2.7,2.7c0,1.5-1.2,2.7-2.7,2.7c-1.5,0-2.7-1.2-2.7-2.7 C542.8,145.4,544,144.2,545.4,144.2"></path> </g> </svg> 