<?xml version="1.0" encoding="UTF-8"?> <!-- Generator: Adobe Illustrator 24.0.3, SVG Export Plug-In . SVG Version: 6.00 Build 0) --> <svg xmlns="http://www.w3.org/2000/svg" xmlns:xlink="http://www.w3.org/1999/xlink" version="1.1" id="Layer_1" x="0px" y="0px" viewBox="0 0 373.3 286.5" style="enable-background:new 0 0 373.3 286.5;" xml:space="preserve"> <style type="text/css"> .st0{opacity:0.71;} .st1{fill:none;stroke:#FFFFFF;stroke-width:1.7847;stroke-miterlimit:10;} .st2{opacity:0.81;} .st3{opacity:0.34;} .st4{fill:#FFFFFF;} .st5{fill:#FFA500;} </style> <g> <g class="st0"> <path class="st1" d="M95.8,216.1"></path> </g> <g class="st0"> <path class="st1" d="M95.2,141.2"></path> </g> <g class="st2"> <path class="st1" d="M81.9,131"></path> </g> <g class="st2"> <path class="st1" d="M92.3,212"></path> </g> <g class="st2"> <path class="st1" d="M79.2,114.1"></path> </g> <g class="st2"> <path class="st1" d="M82.2,102.5"></path> </g> <g class="st2"> <path class="st1" d="M180.3,128.1"></path> </g> <g class="st2"> <path class="st1" d="M215.4,162.6"></path> </g> <g class="st0"> <path class="st1" d="M233,45.9"></path> </g> <g class="st0"> <path class="st1" d="M176.7,88.2"></path> </g> <g class="st0"> <path class="st1" d="M178.5,138.8"></path> </g> <g class="st0"> <path class="st1" d="M214.6,167.8"></path> </g> <g class="st0"> <path class="st1" d="M279.8,170.6"></path> </g> <g class="st2"> <path class="st1" d="M237.4,51.4"></path> </g> <g class="st2"> <path class="st1" d="M181.5,106.7"></path> </g> <g class="st2"> <path class="st1" d="M278.8,165.8"></path> </g> <g class="st0"> <path class="st1" d="M222.1,242.2"></path> </g> <g class="st0"> <path class="st1" d="M261.2,252.1"></path> </g> <g class="st2"> <path class="st1" d="M258,238"></path> </g> <g class="st3"> <path class="st4" d="M316.1,144.9L316.1,144.9c-1.8-0.2-3.1-1.7-3-3.5l0,0c0.1-1.8,1.7-3.1,3.5-3l0,0c1.8,0.1,3.1,1.7,3,3.5l0,0 c-0.1,1.7-1.6,3-3.3,3l0,0C316.3,144.9,316.2,144.9,316.1,144.9z M325.6,141.6c-0.3-1.8,0.9-3.5,2.7-3.8l0,0 c1.8-0.3,3.5,0.9,3.8,2.7l0,0c0.3,1.8-0.9,3.5-2.7,3.8l0,0c-0.2,0-0.4,0-0.6,0l0,0C327.2,144.3,325.8,143.2,325.6,141.6z M303.1,142.1c-1.7-0.6-2.6-2.4-2-4.2l0,0c0.6-1.7,2.4-2.6,4.2-2l0,0c1.7,0.6,2.6,2.5,2,4.2l0,0c-0.5,1.3-1.7,2.2-3.1,2.2l0,0 C303.8,142.3,303.4,142.2,303.1,142.1z M337.7,138.8c-0.7-1.7,0-3.6,1.7-4.3l0,0c1.6-0.7,3.6,0,4.3,1.7l0,0c0.7,1.6,0,3.6-1.7,4.3 l0,0c-0.4,0.2-0.9,0.3-1.3,0.3l0,0C339.5,140.7,338.3,140,337.7,138.8z M291.2,136.2c-1.5-1-1.9-3-0.9-4.5l0,0 c1-1.5,3-1.9,4.5-0.9l0,0c1.5,1,1.9,3,0.9,4.5l0,0c-0.6,1-1.7,1.5-2.7,1.5l0,0C292.4,136.8,291.7,136.6,291.2,136.2z M348.8,133 c-1.1-1.4-0.9-3.5,0.5-4.6l0,0c1.4-1.1,3.5-0.9,4.6,0.5l0,0c1.1,1.4,0.9,3.5-0.5,4.6l0,0c-0.6,0.5-1.3,0.7-2,0.7l0,0 C350.4,134.3,349.5,133.9,348.8,133z M281.1,127.6c-1.2-1.3-1.1-3.4,0.2-4.6l0,0c1.3-1.2,3.4-1.1,4.6,0.2l0,0 c1.2,1.3,1.1,3.4-0.2,4.6l0,0c-0.6,0.6-1.4,0.8-2.2,0.8l0,0C282.6,128.7,281.8,128.3,281.1,127.6z M358.1,124.7 c-1.4-1.1-1.7-3.2-0.6-4.6l0,0l0,0l0,0c1.1-1.4,3.1-1.7,4.6-0.6l0,0c1.4,1.1,1.7,3.2,0.6,4.6l0,0c-0.6,0.8-1.6,1.3-2.6,1.3l0,0 C359.4,125.4,358.7,125.2,358.1,124.7z M273.5,116.7c-0.8-1.6-0.2-3.6,1.4-4.4l0,0c1.6-0.8,3.6-0.2,4.4,1.4l0,0 c0.8,1.6,0.2,3.6-1.4,4.4l0,0c-0.5,0.3-1,0.4-1.5,0.4l0,0C275.2,118.4,274.1,117.8,273.5,116.7z M365.1,114.4 c-1.7-0.7-2.4-2.6-1.7-4.3l0,0c0,0,0,0,0,0l0,0c0.7-1.7,2.6-2.4,4.3-1.7l0,0c1.7,0.7,2.4,2.6,1.7,4.3l0,0c-0.5,1.2-1.7,2-3,2l0,0 C365.9,114.6,365.5,114.5,365.1,114.4z M268.8,104.3c-0.4-1.8,0.7-3.5,2.4-3.9l0,0c1.8-0.4,3.5,0.7,3.9,2.4l0,0 c0.4,1.8-0.7,3.5-2.4,3.9l0,0c-0.3,0.1-0.5,0.1-0.8,0.1l0,0C270.5,106.8,269.2,105.8,268.8,104.3z M369.2,102.6 c-1.8-0.3-3-1.9-2.7-3.7l0,0l0,0l0,0c0.3-1.8,1.9-3,3.7-2.7l0,0c1.8,0.3,3,1.9,2.7,3.7l0,0c-0.2,1.6-1.6,2.8-3.2,2.8l0,0 C369.6,102.6,369.4,102.6,369.2,102.6z M270.6,94.4c-1.8,0-3.2-1.5-3.2-3.3l0,0c0-1.8,1.5-3.3,3.3-3.2l0,0c1.8,0,3.2,1.5,3.2,3.3 l0,0C273.9,93,272.4,94.4,270.6,94.4L270.6,94.4C270.6,94.4,270.6,94.4,270.6,94.4z M366.8,87.2C366.8,87.2,366.8,87.2,366.8,87.2 L366.8,87.2c-0.2-1.8,1.1-3.4,2.9-3.6l0,0c1.8-0.2,3.4,1.1,3.6,2.9l0,0c0.2,1.8-1.1,3.4-2.9,3.6l0,0c-0.1,0-0.2,0-0.3,0l0,0 C368.4,90.2,367,88.9,366.8,87.2z M271.6,82c-1.7-0.5-2.8-2.3-2.3-4l0,0c0-0.1,0.1-0.3,0.1-0.4l0,0c0-0.1,0-0.3,0.1-0.4l0,0 c0.5-1.7,2.3-2.7,4.1-2.2l0,0c1.7,0.5,2.7,2.3,2.2,4.1l0,0c0,0.1-0.1,0.2-0.1,0.3l0,0c0,0.1,0,0.2-0.1,0.4l0,0c0,0,0,0,0,0l0,0 c-0.4,1.5-1.7,2.4-3.2,2.4l0,0C272.1,82.1,271.8,82,271.6,82z M364.2,75.9c-0.6-1.7,0.2-3.6,1.9-4.2l0,0c1.7-0.6,3.6,0.2,4.2,1.9 l0,0c0.6,1.7-0.2,3.6-1.9,4.2l0,0c-0.4,0.1-0.8,0.2-1.1,0.2l0,0C365.9,78,364.7,77.2,364.2,75.9z M275.9,69.4 c-1.6-0.9-2.1-2.9-1.2-4.5l0,0c0.9-1.6,2.9-2.1,4.5-1.2l0,0c1.6,0.9,2.1,2.9,1.2,4.5l0,0l0,0l0,0c-0.6,1-1.7,1.6-2.8,1.6l0,0 C277,69.9,276.4,69.7,275.9,69.4z M358.8,65.6c-1-1.5-0.6-3.5,0.8-4.6l0,0c1.5-1,3.5-0.6,4.6,0.8l0,0c1,1.5,0.6,3.5-0.8,4.6l0,0 c-0.6,0.4-1.2,0.6-1.8,0.6l0,0C360.5,67,359.4,66.5,358.8,65.6z M282.9,59.1c-1.3-1.3-1.3-3.4,0-4.6l0,0c1.3-1.3,3.4-1.3,4.6,0 l0,0c1.3,1.3,1.3,3.4,0,4.6l0,0c-0.6,0.6-1.5,1-2.3,1l0,0C284.3,60,283.5,59.7,282.9,59.1z M351.1,56.9c-1.4-1.2-1.5-3.3-0.3-4.6 l0,0c1.2-1.4,3.3-1.5,4.6-0.3l0,0c1.4,1.2,1.5,3.3,0.3,4.6l0,0c-0.6,0.7-1.6,1.1-2.5,1.1l0,0C352.5,57.7,351.7,57.4,351.1,56.9z M292.2,50.8c-0.9-1.6-0.4-3.6,1.1-4.5l0,0c1.6-0.9,3.6-0.4,4.5,1.1l0,0c0.9,1.6,0.4,3.6-1.1,4.5l0,0l0,0l0,0 c-0.5,0.3-1.1,0.5-1.7,0.5l0,0C293.9,52.4,292.8,51.8,292.2,50.8z M341.4,50.4c-1.6-0.8-2.3-2.8-1.5-4.4l0,0 c0.8-1.6,2.8-2.3,4.4-1.5l0,0c1.6,0.8,2.3,2.8,1.4,4.4l0,0c-0.6,1.1-1.7,1.8-2.9,1.8l0,0C342.4,50.7,341.9,50.6,341.4,50.4z M303.3,45.1c-0.5-1.7,0.5-3.6,2.2-4.1l0,0c1.7-0.5,3.6,0.5,4.1,2.2l0,0c0.5,1.7-0.5,3.6-2.2,4.1l0,0c-0.3,0.1-0.6,0.1-0.9,0.1 l0,0C305,47.4,303.7,46.5,303.3,45.1z M330.4,46.5c-1.8-0.4-2.9-2.1-2.5-3.9l0,0c0.4-1.8,2.1-2.9,3.9-2.5l0,0 c1.8,0.4,2.9,2.1,2.5,3.9l0,0c-0.3,1.5-1.7,2.6-3.2,2.6l0,0C330.9,46.6,330.7,46.5,330.4,46.5z M315.5,42.3 c-0.1-1.8,1.4-3.3,3.2-3.4l0,0c1.8-0.1,3.3,1.3,3.4,3.2l0,0c0.1,1.8-1.3,3.3-3.2,3.4l0,0c0,0-0.1,0-0.1,0l0,0 C317,45.4,315.5,44,315.5,42.3z"></path> </g> <g class="st3"> <path class="st4" d="M321.9,123.5v-29h9.3l1.6-10.8h-10.9v-8.5c0-3.1,1.6-4.8,4.7-4.8h7v-9.7c0,0-3.1-0.5-7.7-0.5 c-10.3,0-15.4,5.7-15.4,14.2v9.3h-9.3v10.8h9.3v29H321.9z"></path> </g> <g class="st3"> <g> <g> <path class="st4" d="M188.8,169.2C188.8,169.2,188.8,169.2,188.8,169.2c-0.9,0-1.7,0-2.5-0.1l0.3-5.2c0.7,0,1.4,0.1,2.1,0.1 c0.4,0,0.7,0,1.1,0l0.2,5.2C189.7,169.2,189.2,169.2,188.8,169.2z M196.5,168.4l-1-5.1c1-0.2,2.1-0.5,3.1-0.8l1.5,5 C198.9,167.9,197.7,168.2,196.5,168.4z M180,168.2C180,168.2,179.9,168.2,180,168.2c-1.3-0.3-2.5-0.6-3.6-1l1.6-4.9 c1,0.3,2,0.6,3.1,0.9c0,0,0.1,0,0.1,0l-0.7,2.6L180,168.2z M180.5,165.8L180.5,165.8L180.5,165.8L180.5,165.8z M206.1,165.1 l-2.3-4.7c1-0.5,1.9-1,2.8-1.6l2.8,4.4C208.3,164,207.2,164.6,206.1,165.1z M170.4,164.6c-1.1-0.6-2.2-1.2-3.2-1.9l2.9-4.3 c0.9,0.6,1.8,1.1,2.8,1.6L170.4,164.6z M214.6,159.4l-3.4-3.9c0.8-0.7,1.6-1.5,2.3-2.2l3.8,3.6 C216.4,157.7,215.5,158.6,214.6,159.4z M162.1,158.7c-0.9-0.8-1.8-1.7-2.6-2.7l3.9-3.5c0.7,0.8,1.5,1.6,2.2,2.3L162.1,158.7z M221.3,151.8l-4.3-2.9c0.6-0.9,1.1-1.8,1.6-2.8l4.6,2.5C222.6,149.7,222,150.7,221.3,151.8z M155.7,150.8 c-0.7-1-1.3-2.1-1.8-3.2l4.7-2.3c0.5,1,1,1.9,1.6,2.8L155.7,150.8z M225.7,142.6l-4.9-1.7c0.3-1,0.6-2.1,0.9-3.1l0-0.1l5.1,1.1 l0,0.2C226.5,140.2,226.1,141.4,225.7,142.6z M151.4,141.6c-0.4-1.2-0.7-2.4-0.9-3.6l5.1-1c0.2,1,0.5,2.1,0.8,3.1L151.4,141.6z M227.7,132.5l-5.2-0.3c0-0.7,0.1-1.4,0.1-2c0-0.4,0-0.8,0-1.2l5.2-0.2c0,0.5,0,0.9,0,1.4C227.8,130.9,227.7,131.7,227.7,132.5z M149.8,131.5c0-0.4,0-0.9,0-1.3c0-0.8,0-1.6,0.1-2.4l5.2,0.3c0,0.7-0.1,1.4-0.1,2.1c0,0.4,0,0.8,0,1.1L149.8,131.5z M221.9,123.4c-0.2-1-0.5-2.1-0.8-3.1l5-1.5c0.4,1.2,0.7,2.4,0.9,3.6L221.9,123.4z M155.8,122.5l-5.1-1.1l0-0.1 c0.3-1.1,0.6-2.3,1-3.5l4.9,1.6C156.4,120.5,156.1,121.5,155.8,122.5z M219,115.1c-0.5-1-1-1.9-1.6-2.8l4.4-2.8 c0.7,1,1.3,2.1,1.8,3.2L219,115.1z M158.9,114.3l-4.6-2.4c0.6-1.1,1.2-2.2,1.9-3.2l4.3,2.9C160,112.4,159.4,113.4,158.9,114.3z M214,107.7c-0.7-0.8-1.5-1.6-2.2-2.3l3.6-3.8c0.9,0.8,1.8,1.7,2.6,2.7L214,107.7z M164,107.1l-3.8-3.6c0.8-0.9,1.7-1.8,2.7-2.6 l3.5,3.9C165.5,105.6,164.8,106.4,164,107.1z M207.4,102c-0.9-0.6-1.8-1.1-2.8-1.6l2.4-4.6c1.1,0.6,2.2,1.2,3.2,1.9L207.4,102z M170.8,101.5l-2.8-4.4c1-0.7,2.1-1.3,3.2-1.8l2.3,4.7C172.7,100.4,171.7,101,170.8,101.5z M199.4,98.1c-1-0.3-2-0.6-3-0.8 l-0.1,0l1.2-5.1l0.1,0c1.2,0.3,2.3,0.6,3.5,1L199.4,98.1z M178.9,97.9l-1.5-5c1.2-0.4,2.4-0.7,3.6-0.9l1,5.1 C180.9,97.3,179.9,97.6,178.9,97.9z M190.8,96.5c-1.1-0.1-2.1-0.1-3.2,0l-0.2-5.2c1.2,0,2.5,0,3.7,0L190.8,96.5z"></path> </g> </g> <g class="st2"> <g> <path class="st4" d="M188.3,130.1c-6.4,0-11.6-5.2-11.6-11.6c0-1.2,0.2-2.4,0.5-3.5l3.1,1c-0.2,0.8-0.4,1.6-0.4,2.5 c0,4.6,3.7,8.3,8.3,8.3c4.6,0,8.3-3.7,8.3-8.3c0-4.6-3.7-8.3-8.3-8.3c-0.6,0-1.3,0.1-1.9,0.2l-0.8-3.2c0.9-0.2,1.8-0.3,2.7-0.3 c6.4,0,11.6,5.2,11.6,11.6C199.8,124.9,194.6,130.1,188.3,130.1"></path> </g> <g> <path class="st4" d="M205.5,150.7H171v-1.6c0-9.5,7.7-17.3,17.3-17.3c9.5,0,17.3,7.7,17.3,17.3V150.7z M174.4,147.4h27.7 c-0.8-6.9-6.7-12.3-13.9-12.3C181.1,135.1,175.2,140.5,174.4,147.4"></path> </g> <g> <path class="st4" d="M181.5,108.6c1.5,0,2.7,1.2,2.7,2.7c0,1.5-1.2,2.7-2.7,2.7c-1.5,0-2.7-1.2-2.7-2.7 C178.8,109.8,180,108.6,181.5,108.6"></path> </g> </g> </g> <g class="st3"> <g class="st2"> <g> <path class="st4" d="M62.4,286.5l-0.3-7.1c1.3-0.1,2.6-0.2,3.9-0.3l0.9,7.1l-0.2,0C65.4,286.4,63.9,286.5,62.4,286.5z M54.7,286.4c-1.5-0.1-3-0.3-4.5-0.6l1.2-7c1.3,0.2,2.6,0.4,3.9,0.5L54.7,286.4z M74.6,284.8l-1.7-6.9c1.3-0.3,2.6-0.7,3.8-1.1 l2.2,6.8C77.5,284.1,76,284.5,74.6,284.8z M42.8,284c-1.4-0.4-2.9-0.9-4.3-1.5l2.6-6.7c1.2,0.5,2.5,0.9,3.7,1.3L42.8,284z M86,280.7l-3.1-6.4c1.2-0.6,2.4-1.2,3.5-1.8l3.5,6.2C88.7,279.4,87.4,280.1,86,280.7z M31.6,279.4c-1.3-0.7-2.6-1.5-3.9-2.3 l3.9-6c1.1,0.7,2.3,1.4,3.4,2L31.6,279.4z M96.4,274.4l-4.3-5.7c1-0.8,2.1-1.6,3.1-2.5l4.7,5.4 C98.8,272.6,97.6,273.5,96.4,274.4z M21.5,272.5c-1.1-1-2.3-2-3.3-3l5-5.1c0.9,0.9,1.9,1.8,2.9,2.7L21.5,272.5z M105.3,266.1 l-5.4-4.7c0.9-1,1.7-2,2.5-3.1l5.7,4.3C107.3,263.8,106.3,265,105.3,266.1z M13,263.8c-0.9-1.2-1.8-2.4-2.7-3.6l5.9-4 c0.7,1.1,1.5,2.2,2.3,3.2L13,263.8z M112.4,256.2l-6.2-3.5c0.7-1.1,1.3-2.3,1.8-3.5l6.4,3.1 C113.8,253.6,113.1,254.9,112.4,256.2z M6.5,253.6c-0.7-1.3-1.3-2.7-1.9-4.1l6.6-2.7c0.5,1.2,1.1,2.4,1.6,3.6L6.5,253.6z M117.3,245.1l-6.8-2.2c0.4-1.2,0.8-2.5,1.1-3.8l6.9,1.7C118.2,242.2,117.8,243.7,117.3,245.1z M2.1,242.2 c-0.4-1.4-0.7-2.9-1-4.4l7-1.3c0.2,1.3,0.5,2.6,0.9,3.9L2.1,242.2z M119.9,233.2l-7.1-0.8c0.1-1.3,0.2-2.6,0.3-3.9l7.1,0.3 C120.2,230.2,120.1,231.7,119.9,233.2z M0.1,230.2C0,228.9,0,227.6,0,226.4l0-0.6l7.1,0.1l0,0.6c0,1.1,0,2.3,0.1,3.4L0.1,230.2z M112.9,221.7c0-0.4-0.1-0.8-0.1-1.2c-0.1-0.9-0.2-1.8-0.4-2.7l7-1.2c0.2,1,0.3,2.1,0.4,3.1c0.1,0.5,0.1,0.9,0.1,1.4 L112.9,221.7z M7.7,219l-7.1-1c0.2-1.5,0.5-3,0.8-4.4l7,1.5C8.1,216.4,7.8,217.7,7.7,219z M110.9,211.1 c-0.4-1.3-0.8-2.5-1.3-3.7l6.7-2.6c0.5,1.4,1,2.8,1.5,4.2L110.9,211.1z M10.2,208.6l-6.7-2.4c0.5-1.4,1.1-2.8,1.7-4.2l6.5,2.9 C11.2,206.2,10.7,207.4,10.2,208.6z M106.8,201.3c-0.6-1.2-1.3-2.3-2-3.4l6-3.9c0.8,1.3,1.6,2.6,2.3,3.9L106.8,201.3z M14.8,199 l-6.1-3.7c0.8-1.3,1.6-2.5,2.5-3.7l5.8,4.2C16.2,196.7,15.5,197.8,14.8,199z M100.8,192.4c-0.8-1-1.7-2-2.7-2.9l5.1-5 c1,1.1,2.1,2.2,3,3.3L100.8,192.4z M21.3,190.4l-5.2-4.9c1-1.1,2.1-2.2,3.2-3.2l4.9,5.2C23.1,188.5,22.2,189.4,21.3,190.4z M93.1,184.9c-1-0.8-2.1-1.6-3.2-2.3l4-5.9c1.2,0.8,2.5,1.7,3.6,2.7L93.1,184.9z M29.3,183.3l-4.2-5.8c1.2-0.9,2.5-1.7,3.7-2.5 l3.7,6.1C31.5,181.8,30.4,182.5,29.3,183.3z M84,179.1c-1.2-0.6-2.4-1.2-3.6-1.7l2.7-6.6c1.4,0.6,2.7,1.2,4.1,1.9L84,179.1z M38.6,178l-2.9-6.5c1.4-0.6,2.8-1.2,4.2-1.7l2.4,6.7C41.1,177,39.8,177.5,38.6,178z M74,175.3c-1.3-0.3-2.6-0.6-3.9-0.9l1.3-7 c1.5,0.3,2.9,0.6,4.4,1L74,175.3z M48.8,174.7l-1.5-7c1.5-0.3,2.9-0.6,4.4-0.8l1,7.1C51.4,174.2,50.1,174.4,48.8,174.7z M63.4,173.5c-1.3-0.1-2.6-0.1-4-0.1l-0.1-7.1c1.5,0,3,0,4.5,0.1L63.4,173.5z"></path> </g> </g> <g> <g class="st2"> <polygon class="st4" points="97.4,251.8 25.7,251.8 25.7,209.4 30.5,209.4 30.5,246.9 92.6,246.9 92.6,204.9 35.1,204.9 35.1,200 97.4,200 "></polygon> </g> <g class="st2"> <path class="st4" d="M32.1,202.4c0,2.2-1.8,4-4,4c-2.2,0-4-1.8-4-4c0-2.2,1.8-4,4-4C30.3,198.5,32.1,200.2,32.1,202.4"></path> </g> <g class="st2"> <rect x="47.1" y="254" class="st4" width="28.5" height="3.5"></rect> </g> </g> </g> <g class="st3"> <path class="st4" d="M76.2,84.3L76.2,84.3L76.2,84.3c-1.8-0.3-3.1-2-2.9-3.8l0,0c0.3-1.8,2-3.1,3.8-2.9l0,0c1.8,0.3,3.1,2,2.9,3.8 l0,0c-0.2,1.7-1.7,2.9-3.3,2.9l0,0C76.5,84.3,76.3,84.3,76.2,84.3z M84.5,81.4c-0.3-1.8,1-3.5,2.8-3.8l0,0c1.8-0.3,3.5,1,3.8,2.8 l0,0c0.3,1.8-1,3.5-2.8,3.8l0,0c-0.2,0-0.3,0-0.5,0l0,0C86.2,84.3,84.7,83.1,84.5,81.4z M64.5,80.9L64.5,80.9L64.5,80.9 c-1.7-0.8-2.4-2.8-1.7-4.5l0,0c0.8-1.7,2.8-2.4,4.5-1.7l0,0c1.7,0.8,2.4,2.8,1.7,4.5l0,0c-0.6,1.2-1.8,2-3.1,2l0,0 C65.5,81.2,65,81.1,64.5,80.9z M95.5,79.1c-0.8-1.7,0-3.7,1.6-4.5l0,0c1.7-0.8,3.7,0,4.5,1.6l0,0c0.8,1.7,0,3.7-1.6,4.5l0,0 c-0.5,0.2-0.9,0.3-1.4,0.3l0,0C97.3,81.1,96.1,80.4,95.5,79.1z M54.3,74.3L54.3,74.3L54.3,74.3c-1.4-1.2-1.6-3.3-0.3-4.7l0,0 c1.2-1.4,3.3-1.6,4.7-0.3l0,0c1.4,1.2,1.6,3.3,0.3,4.7l0,0c-0.7,0.8-1.6,1.2-2.5,1.2l0,0C55.7,75.2,54.9,74.9,54.3,74.3z M105.4,73.9c-1.2-1.4-1.1-3.5,0.3-4.7l0,0c1.4-1.2,3.5-1.1,4.7,0.3l0,0c1.2,1.4,1.1,3.5-0.3,4.7l0,0c-0.6,0.6-1.4,0.8-2.2,0.8 l0,0C107,75,106,74.6,105.4,73.9z M46.4,65.2c-1-1.6-0.6-3.6,1-4.6l0,0c1.6-1,3.6-0.6,4.7,1l0,0c1,1.6,0.6,3.6-1,4.6l0,0 c-0.6,0.4-1.2,0.5-1.8,0.5l0,0C48.1,66.7,47,66.2,46.4,65.2z M113.4,66c-1.6-1-2-3.1-1-4.6l0,0c1-1.6,3.1-2,4.6-1l0,0 c1.6,1,2,3.1,1,4.6l0,0c-0.6,1-1.7,1.6-2.8,1.6l0,0C114.6,66.5,114,66.4,113.4,66z M41.3,54.1L41.3,54.1L41.3,54.1 c-0.5-1.8,0.5-3.7,2.3-4.2l0,0c1.8-0.5,3.7,0.5,4.2,2.3l0,0c0.5,1.8-0.5,3.7-2.3,4.2l0,0c-0.3,0.1-0.6,0.1-1,0.1l0,0 C43.1,56.5,41.7,55.6,41.3,54.1z M118.9,56.2c-1.8-0.5-2.8-2.4-2.3-4.2l0,0c0.5-1.8,2.4-2.8,4.2-2.3l0,0c1.8,0.5,2.8,2.4,2.3,4.2 l0,0c-0.4,1.5-1.8,2.4-3.2,2.4l0,0C119.5,56.3,119.2,56.3,118.9,56.2z M43,45.5c-1.9,0-3.4-1.5-3.4-3.4l0,0l0,0l0,0 c0-1.9,1.5-3.4,3.4-3.4l0,0c1.9,0,3.4,1.5,3.4,3.4l0,0C46.3,44,44.8,45.5,43,45.5L43,45.5C43,45.5,43,45.5,43,45.5z M117.9,41.9 L117.9,41.9c0-1.9,1.5-3.4,3.3-3.4l0,0c1.9,0,3.4,1.5,3.4,3.3l0,0c0,1.9-1.5,3.4-3.3,3.4l0,0c0,0,0,0,0,0l0,0 C119.4,45.3,117.9,43.8,117.9,41.9z M43.6,34.3c-1.8-0.5-2.8-2.4-2.3-4.2l0,0c0.5-1.8,2.4-2.8,4.2-2.3l0,0 c1.8,0.5,2.8,2.4,2.3,4.2l0,0c-0.4,1.5-1.8,2.4-3.2,2.4l0,0C44.3,34.4,44,34.4,43.6,34.3z M116.4,31.8c-0.5-1.8,0.5-3.7,2.2-4.2 l0,0c1.8-0.5,3.7,0.5,4.2,2.2l0,0c0.5,1.8-0.5,3.7-2.2,4.2l0,0c-0.3,0.1-0.7,0.1-1,0.1l0,0C118.2,34.2,116.8,33.3,116.4,31.8z M47.4,23.7c-1.6-1-2-3.1-1-4.7l0,0c1-1.6,3.1-2,4.7-1l0,0c1.6,1,2,3.1,1,4.7l0,0c-0.6,1-1.7,1.5-2.8,1.5l0,0 C48.6,24.3,48,24.1,47.4,23.7z M112.1,22.6c-1-1.6-0.6-3.6,1-4.7l0,0c1.5-1,3.6-0.6,4.7,1l0,0c1,1.6,0.6,3.6-1,4.7l0,0 c-0.6,0.4-1.2,0.6-1.8,0.6l0,0C113.8,24.1,112.7,23.5,112.1,22.6z M54.1,14.7c-1.2-1.4-1-3.5,0.4-4.7l0,0l0,0l0,0 c1.4-1.2,3.5-1.1,4.7,0.4l0,0c1.2,1.4,1,3.5-0.4,4.7l0,0c-0.6,0.5-1.4,0.8-2.2,0.8l0,0C55.7,15.8,54.7,15.5,54.1,14.7z M105.3,14.9c-1.4-1.2-1.6-3.3-0.4-4.7l0,0c1.2-1.4,3.3-1.6,4.7-0.4l0,0c1.4,1.2,1.6,3.3,0.4,4.7l0,0c-0.7,0.8-1.6,1.2-2.6,1.2 l0,0C106.7,15.7,105.9,15.4,105.3,14.9z M63,7.9c-0.8-1.7,0-3.7,1.7-4.5l0,0c0,0,0,0,0,0l0,0c1.7-0.8,3.7,0,4.5,1.7l0,0 c0.8,1.7,0,3.7-1.7,4.5l0,0C67,9.8,66.5,9.9,66,9.9l0,0C64.8,9.9,63.5,9.1,63,7.9z M96.6,9.5c-1.7-0.8-2.5-2.7-1.7-4.4l0,0 c0.8-1.7,2.7-2.5,4.4-1.7l0,0c1.7,0.8,2.5,2.7,1.7,4.4l0,0c-0.6,1.3-1.8,2-3.1,2l0,0C97.6,9.8,97.1,9.7,96.6,9.5z M73.4,3.8 c-0.3-1.8,1-3.5,2.9-3.8l0,0c1.8-0.3,3.5,1,3.8,2.9l0,0c0.3,1.8-1,3.5-2.9,3.8l0,0c-0.2,0-0.3,0-0.5,0l0,0 C75.1,6.8,73.7,5.5,73.4,3.8z M86.8,6.7c-1.8-0.2-3.1-1.9-2.9-3.8l0,0c0.2-1.8,1.9-3.1,3.8-2.9l0,0l0,0l0,0 c1.8,0.2,3.1,1.9,2.9,3.8l0,0c-0.2,1.7-1.7,2.9-3.3,2.9l0,0C87.1,6.7,87,6.7,86.8,6.7z"></path> </g> <g class="st3"> <g> <path class="st4" d="M76.6,37.4c-0.9,0-1.7-0.8-1.7-1.7c0-0.9,0.8-1.7,1.7-1.7c0.9,0,1.7,0.8,1.7,1.7 C78.3,36.6,77.5,37.4,76.6,37.4 M76.6,35.5c-0.1,0-0.1,0.1-0.1,0.1c0,0.1,0.1,0.1,0.1,0.1c0.1,0,0.1-0.1,0.1-0.1 C76.7,35.6,76.6,35.5,76.6,35.5"></path> </g> <g> <path class="st4" d="M87.5,37.4c-0.9,0-1.7-0.8-1.7-1.7c0-0.9,0.8-1.7,1.7-1.7c0.9,0,1.7,0.8,1.7,1.7 C89.2,36.6,88.5,37.4,87.5,37.4 M87.5,35.5c-0.1,0-0.1,0.1-0.1,0.1c0,0.1,0.1,0.1,0.1,0.1c0.1,0,0.1-0.1,0.1-0.1 C87.7,35.6,87.6,35.5,87.5,35.5"></path> </g> <g> <g> <polygon class="st4" points="98.2,59.3 65.8,59.3 65.8,32.7 68.4,32.7 68.4,56.7 95.6,56.7 95.6,30.1 71.1,30.1 71.1,27.4 98.2,27.4 "></polygon> </g> <g> <path class="st4" d="M88.5,36.5h-1.9V26.3c0-2.5-2-4.6-4.6-4.6s-4.6,2-4.6,4.6v10.2h-1.9V26.3c0-3.5,2.9-6.4,6.4-6.4 s6.4,2.9,6.4,6.4V36.5z"></path> </g> <g> <rect x="74.8" y="34" class="st4" width="3.4" height="3.4"></rect> </g> <g> <rect x="85.8" y="34" class="st4" width="3.4" height="3.4"></rect> </g> <g> <path class="st4" d="M69.2,28.7c0,1.2-0.9,2.1-2.1,2.1c-1.2,0-2.1-0.9-2.1-2.1c0-1.2,0.9-2.1,2.1-2.1 C68.3,26.6,69.2,27.6,69.2,28.7"></path> </g> </g> </g> <g class="st3"> <path class="st4" d="M285.1,266.7c-0.2,0-0.3,0-0.5,0l0.1-4.2c2.2,0,4.5-0.2,6.7-0.6l0.8,4.1C289.7,266.5,287.4,266.7,285.1,266.7 z M277.1,265.9c-2.4-0.5-4.9-1.3-7.2-2.3l1.6-3.8c2,0.9,4.2,1.6,6.4,2L277.1,265.9z M299.2,264l-1.5-3.9c2.1-0.8,4.1-1.9,5.9-3.1 l2.3,3.5C303.8,261.9,301.5,263.1,299.2,264z M263.4,260c-2-1.4-4-3-5.7-4.8l-0.1-0.1l1.2-1.1l1.8-1.8l0,0v0 c1.6,1.6,3.3,3,5.1,4.3L263.4,260z M311.7,255.9l-0.9-1l-2-2l0.1-0.1h0c1.6-1.6,3-3.3,4.3-5.1l3.4,2.4 C315.2,252.2,313.6,254.1,311.7,255.9L311.7,255.9z M252.9,249.3c-1.4-2.1-2.5-4.3-3.5-6.7l3.9-1.5c0.8,2.1,1.9,4.1,3.1,5.9 L252.9,249.3z M320.2,243.6l-3.8-1.6c0.9-2,1.6-4.2,2-6.4l4.1,0.9C322,238.9,321.2,241.3,320.2,243.6z M247.4,235.4 c-0.4-2.3-0.6-4.6-0.6-7l0-0.5l4.2,0l0,0.4c0,2.1,0.2,4.2,0.6,6.2L247.4,235.4z M323.3,229l-4.2-0.1c0-0.2,0-0.3,0-0.5 c0-2.1-0.2-4.1-0.6-6.2l4.1-0.8c0.4,2.3,0.6,4.6,0.6,6.9C323.3,228.6,323.3,228.8,323.3,229z M251.7,221.4l-4.1-0.9 c0.5-2.5,1.3-4.9,2.3-7.2l3.8,1.6C252.8,217,252.1,219.2,251.7,221.4z M316.8,215.8c-0.8-2.1-1.9-4.1-3.1-5.9l3.5-2.3 c1.4,2.1,2.5,4.3,3.4,6.7L316.8,215.8z M256.9,209.1l-3.4-2.4c1.4-2.1,3-4,4.8-5.7l0.1-0.1l2.9,3l-0.1,0.1 C259.6,205.6,258.2,207.3,256.9,209.1z M309.5,204.7C309.5,204.7,309.5,204.6,309.5,204.7c-1.6-1.7-3.3-3.1-5.1-4.3l2.4-3.4 c2,1.4,3.9,3,5.7,4.8l0.1,0.1L309.5,204.7z M266.5,199.8l-2.3-3.5c2.1-1.4,4.3-2.5,6.7-3.4l1.5,3.9 C270.4,197.5,268.4,198.6,266.5,199.8z M298.6,197.1c-2-0.9-4.2-1.6-6.4-2l0.9-4.1c2.5,0.5,4.9,1.3,7.1,2.3L298.6,197.1z M278.9,194.9l-0.7-4.1c2.5-0.4,5-0.7,7.5-0.6l-0.1,4.2C283.3,194.3,281.1,194.5,278.9,194.9z"></path> </g> <g class="st3"> <g class="st2"> <g> <path class="st4" d="M285.8,237.5c-1.6,0-2.8-1.4-2.8-3.2c0-1.7,1.3-3.2,2.8-3.1c1.5,0,2.8,1.4,2.8,3.2 C288.6,236,287.3,237.5,285.8,237.5z M287.8,230.6l-3.9,0l-0.6-16l5.2,0L287.8,230.6z"></path> </g> </g> <g class="st2"> <polygon class="st4" points="307.7,241.6 263.3,241.5 282.8,208 284.8,209.2 267.4,239.1 303.5,239.2 286.4,209.3 288.4,208.1 "></polygon> </g> <g class="st2"> <circle class="st4" cx="285.6" cy="206" r="1.9"></circle> </g> </g> <g> <g> <g> <g> <rect x="213.3" y="5.4" class="st4" width="7.1" height="67.3"></rect> </g> <g> <rect x="213.3" y="198.5" class="st4" width="7.1" height="67.3"></rect> </g> <g> <rect x="277.1" y="134.7" transform="matrix(1 -1.907938e-03 1.907938e-03 1 -0.2632 0.5931)" class="st4" width="67.3" height="7.1"></rect> </g> <g> <rect x="84.1" y="135.1" transform="matrix(1 -1.907938e-03 1.907938e-03 1 -0.2642 0.2249)" class="st4" width="67.3" height="7.1"></rect> </g> </g> </g> <g> <path class="st4" d="M215.5,253.7c-63.8,0-115.6-51.9-115.6-115.6c0-25.3,8-49.3,23.2-69.5l11,8.3 c-13.4,17.8-20.4,38.9-20.4,61.2c0,56.2,45.7,101.9,101.9,101.9c56.2,0,101.9-45.7,101.9-101.9S271.7,36.2,215.5,36.2 c-19.6,0-38.6,5.6-55,16.1L153,40.8c18.6-12,40.2-18.3,62.5-18.3c63.8,0,115.6,51.9,115.6,115.6S279.2,253.7,215.5,253.7z"></path> </g> <g> <path class="st5" d="M152.1,57.2c0,6.8-5.8,12.2-12.8,11.4c-5.3-0.6-9.6-4.8-10.2-10.1c-0.8-7,4.6-12.9,11.4-12.9 C146.9,45.7,152.1,50.9,152.1,57.2"></path> </g> </g> </g> </svg> 