<?xml version="1.0" encoding="UTF-8"?> <!-- Generator: Adobe Illustrator 24.0.3, SVG Export Plug-In . SVG Version: 6.00 Build 0) --> <svg xmlns="http://www.w3.org/2000/svg" xmlns:xlink="http://www.w3.org/1999/xlink" version="1.1" id="Layer_1" x="0px" y="0px" viewBox="0 0 300.8 223.5" style="enable-background:new 0 0 300.8 223.5;" xml:space="preserve"> <style type="text/css"> .st0{fill:#1499AA;} .st1{fill:none;stroke:#00263E;stroke-width:31.0032;stroke-miterlimit:10;} .st2{fill:none;stroke:#00263E;stroke-width:23.7084;stroke-miterlimit:10;} .st3{fill-rule:evenodd;clip-rule:evenodd;fill:none;stroke:#00263E;stroke-width:21.8846;stroke-miterlimit:10;} .st4{fill:none;stroke:#00263E;stroke-width:25.5321;stroke-miterlimit:10;} .st5{fill:none;stroke:#00263E;stroke-width:21.8846;stroke-miterlimit:10;} .st6{fill:#FFA500;} </style> <g> <path class="st0" d="M130.1,16.4l-3.7-13.1c7.8-2.2,15.9-3.3,24.1-3.3v13.6C143.5,13.6,136.7,14.5,130.1,16.4z"></path> <g> <path class="st1" d="M128.1,9.9"></path> </g> <path class="st0" d="M74.2,92.4H60.6c0-26,10.7-50.9,29.4-68.4l9.3,9.9C83.3,48.8,74.2,70.1,74.2,92.4z"></path> <path class="st0" d="M240.3,92.4h-13.6c0-43.4-34.2-78.8-76.3-78.8V0C200,0,240.3,41.4,240.3,92.4z"></path> <path class="st0" d="M117.9,201.5c-16.4,0-29.3-18.8-29.3-42.8h13.6c0,17.2,8.3,29.2,15.7,29.2V201.5z"></path> <path class="st0" d="M102,161.9c-23.2,0-41.3-30.6-41.3-69.6h13.6c0,15.7,3.3,30.3,9.3,41.1c5.2,9.4,11.9,14.9,18.5,14.9V161.9z"></path> <path class="st0" d="M183.3,201.5v-13.6c7.4,0,15.7-12,15.7-29.2h13.6C212.6,182.7,199.7,201.5,183.3,201.5z"></path> <rect x="117.8" y="187.9" class="st0" width="67.5" height="13.6"></rect> <path class="st0" d="M166.5,147.3h-32.1l16.1-28.7L166.5,147.3z M143.9,141.7h13l-6.5-11.6L143.9,141.7z"></path> <path class="st0" d="M118,118.8c-13.9,0-25.2-11.6-25.2-25.8c0-17.4,16.4-17.4,25.2-17.4s25.2,0,25.2,17.4 C143.3,107.2,131.9,118.8,118,118.8z M118,86c-13.5,0-14.8,1.9-14.8,7c0,8.5,6.6,15.4,14.8,15.4s14.8-6.9,14.8-15.4 C132.9,87.9,131.6,86,118,86z"></path> <path class="st0" d="M199.2,161.9v-13.6c6.5,0,13.3-5.4,18.5-14.9c6-10.9,9.3-25.5,9.3-41.1h13.6 C240.5,131.4,222.3,161.9,199.2,161.9z"></path> <path class="st0" d="M182.5,118.8c-13.9,0-25.2-11.6-25.2-25.8c0-17.4,16.4-17.4,25.2-17.4c8.8,0,25.2,0,25.2,17.4 C207.7,107.2,196.4,118.8,182.5,118.8z M182.5,86c-13.5,0-14.8,1.9-14.8,7c0,8.5,6.6,15.4,14.8,15.4c8.2,0,14.8-6.9,14.8-15.4 C197.3,87.9,196,86,182.5,86z"></path> <path class="st2" d="M14.4,50.4"></path> <path class="st2" d="M13.7,51.6"></path> <path class="st2" d="M18.2,59.9"></path> <path class="st2" d="M18.4,57.3"></path> <path class="st2" d="M18,53.1"></path> <path class="st2" d="M19.6,50.2"></path> <path class="st2" d="M9.6,47.3"></path> <path class="st0" d="M68.7,86.2L35.3,65.7c-3,1.6-6.5,2.7-10.1,3.2c-7.3,1-14.3-0.7-19.1-4.5c-3.4-2.7-5.5-6.1-6-10.1 C-1,45.2,7,36.7,18.7,34.3c-0.1-0.4-0.1-0.9-0.2-1.3C16.9,19.9,23.1,8.6,32.7,7.3c3.7-0.5,7.5,0.6,10.8,3.2 c4.9,3.8,8.3,10.6,9.3,18.1c0.2,2,0.3,3.9,0.2,5.8l29.4,18.1l-5.4,8.9L41.7,39.8l0.6-3.5c0.4-2,0.4-4.2,0.1-6.4 c-0.7-5.7-3.2-9.5-5.3-11.2c-1.1-0.8-2.1-1.2-3-1.1c-3.2,0.4-6.1,6.5-5.2,14.1c0.2,1.9,0.7,3.6,1.3,5.3l2.8,7.2l-7.7-0.1 c-1,0-2,0-3,0.2C15,45.2,10,49.7,10.4,53.1c0.1,1.1,0.8,2.2,2,3.1c2.6,2,7,2.9,11.4,2.4c3.2-0.4,6.1-1.5,8.4-3.2l2.8-2.1l34.5,21.2 L68.7,76l4.4,2.6L68.7,86.2z"></path> <path class="st3" d="M76.9,60.2"></path> <path class="st4" d="M269,180.3"></path> <path class="st4" d="M270.5,179.1"></path> <path class="st4" d="M265.4,170.7"></path> <path class="st4" d="M265.1,173.3"></path> <path class="st4" d="M265.5,177.5"></path> <path class="st4" d="M263.7,180.4"></path> <path class="st5" d="M274.5,184.3"></path> <path class="st0" d="M249.5,222.7c-3.3,0-6.5-1.2-9.3-3.6c-4.8-3.9-8-10.8-8.8-18.4c-0.2-2-0.2-3.9,0-5.9l-33.1-21.7l5.1-8.3 l4.5,2.8l0.3-0.4l34.6,22.7l-0.7,3.5c-0.4,2-0.5,4.2-0.3,6.4c0.5,5.7,2.9,9.6,5,11.3c1.1,0.9,2.1,1.3,3,1.2 c3.2-0.3,6.3-6.3,5.6-13.9c-0.2-1.9-0.6-3.6-1.2-5.3l-2.6-7.3l7.8,0.4c1,0,2,0,3-0.1c7.3-0.7,12.4-5.1,12-8.5 c-0.1-1.1-0.8-2.2-1.9-3.2c-2.6-2.1-6.9-3.2-11.4-2.7c-3.2,0.3-6.2,1.4-8.5,2.9l-2.9,2l-33.9-22.2l0.2-0.4l-4.3-2.7l5.3-8.6 l32.8,21.5c3.1-1.5,6.5-2.5,10.2-2.9c7.3-0.7,14.2,1.1,19,5c3.4,2.8,5.3,6.3,5.7,10.2c0.9,9.2-7.4,17.5-19.1,19.5 c0.1,0.4,0.1,0.9,0.1,1.3c1.2,13.2-5.3,24.3-14.9,25.2C250.4,222.7,249.9,222.7,249.5,222.7z"></path> <path class="st4" d="M31.1,181.9"></path> <path class="st4" d="M30.4,180.7"></path> <path class="st4" d="M35,174.1"></path> <path class="st4" d="M34.6,179.1"></path> <path class="st4" d="M36.4,181.2"></path> <path class="st5" d="M26.4,185.1"></path> <path class="st0" d="M51.4,223.5c-0.4,0-0.9,0-1.3-0.1c-9.6-1-16.1-12.1-14.9-25.2c0-0.4,0.1-0.9,0.1-1.3 c-11.7-2-20-10.2-19.1-19.5c0.4-3.9,2.3-7.5,5.7-10.2c4.8-3.9,11.7-5.7,19-5c3.7,0.4,7.1,1.4,10.2,2.9l32.8-21.5l5.3,8.6l-4.3,2.7 l0.2,0.4l-33.9,22.2l-2.9-2c-2.3-1.6-5.3-2.6-8.5-2.9c-4.4-0.4-8.8,0.6-11.4,2.7c-1.2,1-1.8,2-1.9,3.2c-0.3,3.4,4.8,7.7,12,8.5 c1,0.1,2,0.1,3,0.1l7.8-0.4l-2.6,7.3c-0.6,1.7-1,3.4-1.2,5.3c-0.7,7.6,2.4,13.6,5.6,13.9c0.9,0.1,1.9-0.3,3-1.2 c2.1-1.7,4.5-5.6,5-11.3c0.2-2.2,0.1-4.4-0.3-6.4l-0.7-3.5l34.6-22.7l0.3,0.4l4.5-2.8l5.1,8.3l-33.1,21.7c0.2,1.9,0.1,3.9,0,5.9 c-0.7,7.6-4,14.5-8.8,18.4C57.9,222.3,54.7,223.5,51.4,223.5z"></path> <path class="st4" d="M294.8,53.6"></path> <path class="st4" d="M295.5,54.8"></path> <path class="st4" d="M291.1,63.1"></path> <path class="st4" d="M290.8,60.5"></path> <path class="st4" d="M291.3,56.3"></path> <path class="st5" d="M299.6,50.5"></path> <g> <g> <circle class="st6" cx="109.9" cy="16.6" r="11.1"></circle> </g> </g> <rect x="105" y="172.9" transform="matrix(9.055027e-03 -1 1 9.055027e-03 -58.8634 295.2872)" class="st0" width="29.2" height="8.8"></rect> <rect x="134.4" y="167.9" class="st0" width="8.8" height="24"></rect> <rect x="157.7" y="167.9" class="st0" width="8.8" height="24"></rect> <rect x="177" y="162.7" transform="matrix(1 -9.149874e-03 9.149874e-03 1 -1.6151 1.6672)" class="st0" width="8.8" height="29.2"></rect> <path class="st4" d="M286.4,50.4"></path> <path class="st4" d="M287.1,51.6"></path> <path class="st4" d="M282.6,59.9"></path> <path class="st4" d="M282.3,57.3"></path> <path class="st4" d="M282.8,53.1"></path> <path class="st4" d="M281.1,50.2"></path> <path class="st0" d="M232,86.2l-4.4-7.7L232,76l-0.9-1.4l34.5-21.2l2.8,2.1c2.2,1.6,5.2,2.8,8.4,3.2c4.4,0.6,8.8-0.3,11.4-2.4 c1.2-0.9,1.9-2,2-3.1c0.4-3.4-4.5-7.9-11.8-8.8c-1-0.1-2-0.2-3-0.2l-7.7,0.1l2.8-7.2c0.6-1.6,1.1-3.4,1.3-5.3 c0.9-7.6-2-13.7-5.2-14.1c-0.9-0.1-2,0.2-3,1.1c-2.1,1.6-4.6,5.4-5.3,11.2c-0.3,2.2-0.2,4.4,0.1,6.4l0.6,3.5l-35.2,21.7l-5.4-8.9 l29.4-18.1c-0.1-1.9,0-3.9,0.2-5.8c0.9-7.6,4.4-14.3,9.3-18.1c3.3-2.6,7-3.7,10.7-3.2c9.6,1.2,15.8,12.5,14.2,25.7 c-0.1,0.4-0.1,0.9-0.2,1.3c11.7,2.3,19.7,10.8,18.6,20c-0.5,3.9-2.5,7.4-6,10.1c-4.9,3.8-11.9,5.4-19.1,4.5 c-3.6-0.5-7.1-1.6-10.1-3.2L232,86.2z"></path> </g> </svg> 