<?xml version="1.0" encoding="UTF-8"?> <!-- Generator: Adobe Illustrator 24.0.3, SVG Export Plug-In . SVG Version: 6.00 Build 0) --> <svg xmlns="http://www.w3.org/2000/svg" xmlns:xlink="http://www.w3.org/1999/xlink" version="1.1" id="Layer_1" x="0px" y="0px" viewBox="0 0 437 172.2" style="enable-background:new 0 0 437 172.2;" xml:space="preserve"> <style type="text/css"> .st0{fill:#FFFFFF;} .st1{fill:#FFA500;} </style> <g> <g> <path class="st0" d="M225.4,0.4v5.3h-9.1v8.5h7.6v5.5h-7.6v15h-6V0.4H225.4z"></path> <path class="st0" d="M232.3,28.3l-1,6.3h-5.4l5.8-34.2h7.6l6.1,34.2h-5.9l-1-6.3H232.3z M237.7,23.2l-1.2-7.7 c-0.6-3.8-0.9-6.2-1.1-8.2c-0.2,2-0.6,4.5-1.1,8.2l-1.2,7.7H237.7z"></path> <path class="st0" d="M248.9,0.4h6.1v15.2l6.2-15.2h6l-6.5,16l7.2,18.3h-6.3L255,18.2v16.4h-6.1V0.4z"></path> <path class="st0" d="M285.8,5.7h-9.1v8.5h7.5v5.5h-7.5v9.5h9.3v5.5h-15.3V0.4h15V5.7z"></path> <path class="st0" d="M296.9,27V8.7c0-5.2,2.2-8.7,8.3-8.7h1c6.3,0,8.1,3.5,8.1,8.5v2.3h-5.9V8.8c0-2.3-0.7-3.5-2.6-3.5 c-1.8,0-2.6,1.2-2.6,3.5v17.1c0,2.3,0.8,3.8,2.9,3.8c2.2,0,2.9-1.5,2.9-3.7v-6.4h-3.3v-5.2h9v20.2h-3.7c-0.1-0.4-0.6-2-1.1-3.4 c-0.6,1.2-2.3,3.8-5.8,3.8h-0.3C299.3,35.1,296.9,31.6,296.9,27z"></path> <path class="st0" d="M328.8,35h-0.9c-5.9,0-8.6-3.2-8.6-9.3V9.2c0-5.9,2.6-9.2,8.6-9.2h0.9c6.1,0,8.6,3.4,8.6,9.2v16.6 C337.3,31.8,334.6,35,328.8,35z M328.3,5.3c-1.8,0-2.9,1-2.9,3.9v16.5c0,2.6,1,3.9,2.9,3.9c1.9,0,2.9-1.3,2.9-3.9V9.2 C331.2,6.3,330.1,5.3,328.3,5.3z"></path> <path class="st0" d="M351.6,35h-0.9c-5.9,0-8.6-3.2-8.6-9.3V9.2c0-5.9,2.6-9.2,8.6-9.2h0.9c6.1,0,8.6,3.4,8.6,9.2v16.6 C360.2,31.8,357.5,35,351.6,35z M351.1,5.3c-1.8,0-2.9,1-2.9,3.9v16.5c0,2.6,1,3.9,2.9,3.9c1.9,0,2.9-1.3,2.9-3.9V9.2 C354,6.3,352.9,5.3,351.1,5.3z"></path> <path class="st0" d="M374.8,0.4c5.5,0,7.7,2.2,7.7,7.9v18.3c0,5.5-2.2,8.1-7.7,8.1h-9.7V0.4H374.8z M373.4,29.4 c2.2,0,2.9-1.2,2.9-3.6v-17c0-2.5-0.7-3.6-2.9-3.6h-2.3v24.2H373.4z"></path> <path class="st0" d="M386.8,28.1v-5.8h6V27c0,1.9,1,2.8,2.8,2.8c1.8,0,2.7-1.1,2.7-3.3v-0.4c0-2.3-0.7-3.4-2.6-5.1l-4.5-4 c-2.7-2.4-4.2-4.7-4.2-8.5v-1c0-5.2,2.9-7.6,8.3-7.6h1c5,0,7.9,2.2,7.9,6.6v4.5h-5.9V7.8c0-2.1-0.8-2.9-2.5-2.9 c-1.8,0-2.6,0.8-2.6,2.8V8c0,2,0.7,3,2.5,4.7l4.4,4c3,2.8,4.4,4.8,4.4,8.9v1c0,4.6-2.5,8.3-8.6,8.3h-1 C389.6,35,386.8,32.5,386.8,28.1z"></path> <path class="st0" d="M223.3,67.7c-0.1-2-0.2-3.9-0.2-9.1V45.4h5.3v34.2h-5.3l-5.5-16.1c-1.2-3.3-1.8-5.5-2.2-7.4 c0.2,1.9,0.3,4.4,0.3,9.2v14.3h-5.3V45.4h6l4.9,15.1C222.2,63.8,222.8,65.7,223.3,67.7z"></path> <path class="st0" d="M242.8,80h-0.9c-5.9,0-8.6-3.2-8.6-9.3V54.2c0-5.9,2.6-9.2,8.6-9.2h0.9c6.1,0,8.6,3.4,8.6,9.2v16.6 C251.4,76.8,248.7,80,242.8,80z M242.3,50.3c-1.8,0-2.9,1-2.9,3.9v16.5c0,2.6,1,3.9,2.9,3.9c1.9,0,2.9-1.3,2.9-3.9V54.2 C245.2,51.3,244.1,50.3,242.3,50.3z"></path> <path class="st0" d="M269.8,58.2c-0.2,1.8-0.6,4.9-1.3,9.5l-1.8,11.8h-6.6l-5.7-34.2h6l2.2,15.7c0.6,4.4,1.1,8.2,1.2,10 c0.1-1.8,0.6-5.7,1.2-10l2.2-15.7h5.3l2.3,15.7c0.6,4.2,1.1,8.2,1.2,10c0.1-1.8,0.6-5.7,1.2-10l2.2-15.7h5.7l-5.7,34.2h-6.6 l-1.8-11.8C270.4,63.1,270,60.1,269.8,58.2z"></path> <path class="st0" d="M306,79.6l-3.2-16.3c-1-5-1.5-7.8-2-10.8c0.1,3.8,0.1,7,0.1,11.9v15.2h-5.2V45.4h8.2l2.3,12.2 c0.7,4,1.2,6.3,1.5,8.9c0.4-2.6,0.7-4.9,1.5-8.9l2.3-12.2h8.1v34.2h-5.3V64.4c0-4.9,0-8.1,0.2-11.9c-0.5,2.9-1.1,5.8-2,10.4 l-3.3,16.6H306z"></path> <path class="st0" d="M329.4,73.3l-1,6.3h-5.4l5.8-34.2h7.6l6.1,34.2h-5.9l-1-6.3H329.4z M334.9,68.2l-1.2-7.7 c-0.6-3.8-0.9-6.2-1.1-8.2c-0.2,2-0.6,4.5-1.1,8.2l-1.2,7.7H334.9z"></path> <path class="st0" d="M346,45.4h6.1v15.2l6.2-15.2h6l-6.5,16l7.2,18.3h-6.3l-6.5-16.4v16.4H346V45.4z"></path> <path class="st0" d="M382.9,50.7h-9.1v8.5h7.5v5.5h-7.5v9.5h9.3v5.5h-15.3V45.4h15V50.7z"></path> <path class="st0" d="M210.2,116.6V90.4h6.2v26.1c0,2,0.8,3.2,2.7,3.2c2,0,2.7-1.1,2.7-3.2V90.4h6.2v26.2c0,4.9-2.3,8.4-8.4,8.4h-1 C212.4,125,210.2,121.6,210.2,116.6z"></path> <path class="st0" d="M239,124.6h-6.1V90.4h9.8c5,0,7.4,1.8,7.4,7.3v5.6c0,5.2-2.6,7.5-7.4,7.5H239V124.6z M241.2,105.7 c2.2,0,2.9-0.7,2.9-3.6v-3.2c0-2.8-0.7-3.6-2.9-3.6H239v10.4H241.2z"></path> <path class="st0" d="M261.1,97.3c0-4.3,1.5-7.3,7.5-7.3h0.6c6.1,0,8,2.4,8,7.3v2.9c0,3.4-1.5,5-2.9,5.6c1.5,0.4,3.4,1.6,3.4,4.8 v6.7c0,4.6-2.4,7.8-8,7.8h-1c-6.2,0-7.8-3.2-7.8-7.6v-5.2h5.8v4.7c0,1.8,0.7,2.9,2.5,2.9c1.7,0,2.3-1,2.3-2.9v-5.8 c0-1.7-0.5-2.2-2.1-2.2h-3.7v-5.3h3.4c1.7,0,2.2-0.5,2.2-2.3v-3.5c0-1.8-0.6-2.7-2.3-2.7c-1.7,0-2.2,0.9-2.2,2.7v2.9h-5.6V97.3z"></path> <path class="st0" d="M281.6,124.6v-7.1h6.4v7.1H281.6z"></path> <path class="st0" d="M292.4,97.3c0-4.3,1.5-7.3,7.5-7.3h0.6c6.1,0,8,2.4,8,7.3v2.9c0,3.4-1.5,5-2.9,5.6c1.5,0.4,3.4,1.6,3.4,4.8 v6.7c0,4.6-2.4,7.8-8,7.8h-1c-6.2,0-7.8-3.2-7.8-7.6v-5.2h5.8v4.7c0,1.8,0.7,2.9,2.5,2.9c1.7,0,2.3-1,2.3-2.9v-5.8 c0-1.7-0.5-2.2-2.1-2.2h-3.7v-5.3h3.4c1.7,0,2.2-0.5,2.2-2.3v-3.5c0-1.8-0.6-2.7-2.3-2.7c-1.7,0-2.2,0.9-2.2,2.7v2.9h-5.6V97.3z"></path> <path class="st0" d="M319.8,107.9h-0.6c-4.1,0-6.2-2.2-6.2-6.1v-5.7c0-3.9,2.1-6.1,6.2-6.1h0.6c4,0,6.1,2.2,6.1,6.1v5.7 C325.9,105.7,323.8,107.9,319.8,107.9z M321.4,101.8v-5.6c0-1.6-0.6-2.3-2-2.3s-2,0.8-2,2.3v5.6c0,1.5,0.6,2.3,2,2.3 S321.4,103.3,321.4,101.8z M322.1,124.6h-4l17-34.2h4L322.1,124.6z M337.9,124.8h-0.6c-4.1,0-6.2-2.2-6.2-6.1V113 c0-3.9,2.1-6.1,6.2-6.1h0.6c4,0,6.1,2.2,6.1,6.1v5.7C344.1,122.6,342,124.8,337.9,124.8z M339.6,118.7v-5.6c0-1.6-0.6-2.3-2-2.3 s-2,0.8-2,2.3v5.6c0,1.5,0.6,2.3,2,2.3S339.6,120.2,339.6,118.7z"></path> <path class="st0" d="M364.8,125h-0.9c-5.9,0-8.6-3.2-8.6-9.3V99.2c0-5.9,2.6-9.2,8.6-9.2h0.9c6.1,0,8.6,3.4,8.6,9.2v16.6 C373.4,121.8,370.6,125,364.8,125z M364.3,95.3c-1.8,0-2.9,1-2.9,3.9v16.5c0,2.6,1,3.9,2.9,3.9c1.9,0,2.9-1.3,2.9-3.9V99.2 C367.2,96.3,366.1,95.3,364.3,95.3z"></path> <path class="st0" d="M393.3,90.4v5.3h-9.1v8.5h7.6v5.5h-7.6v15h-6V90.4H393.3z"></path> <path class="st0" d="M224.3,148.2c-0.2,1.8-0.6,4.9-1.3,9.5l-1.8,11.8h-6.6l-5.7-34.2h6l2.2,15.7c0.6,4.4,1.1,8.2,1.2,10 c0.1-1.8,0.6-5.7,1.2-10l2.2-15.7h5.3l2.3,15.7c0.6,4.2,1.1,8.2,1.2,10c0.1-1.8,0.6-5.7,1.2-10l2.2-15.7h5.7l-5.7,34.2h-6.6 l-1.8-11.8C224.9,153.1,224.5,150.1,224.3,148.2z"></path> <path class="st0" d="M252.2,170h-0.9c-5.9,0-8.6-3.2-8.6-9.3v-16.5c0-5.9,2.6-9.2,8.6-9.2h0.9c6.1,0,8.6,3.4,8.6,9.2v16.6 C260.8,166.8,258.1,170,252.2,170z M251.7,140.3c-1.8,0-2.9,1-2.9,3.9v16.5c0,2.6,1,3.9,2.9,3.9c1.9,0,2.9-1.3,2.9-3.9v-16.5 C254.6,141.3,253.5,140.3,251.7,140.3z"></path> <path class="st0" d="M265.7,169.6v-34.2h10.8c4.4,0,6.6,1.9,6.6,6.5v3.7c0,3.6-1.9,5.1-3.5,5.5c1.8,0.7,3.5,2.2,3.5,5.7v8.7 c0,1.8,0.2,3.1,0.6,3.9v0.2h-6c-0.3-0.6-0.6-1.6-0.6-3.9v-7.9c0-2.3-0.8-3.4-2.8-3.4h-2.5v15.2H265.7z M274.3,149.5 c2.1,0,2.8-1.2,2.8-3.4v-2.9c0-2.3-0.7-3.2-2.8-3.2h-2.5v9.6H274.3z"></path> <path class="st0" d="M294.1,164h8.4v5.6H288v-34.2h6.1V164z"></path> <path class="st0" d="M316,135.4c5.5,0,7.7,2.2,7.7,7.9v18.3c0,5.5-2.2,8.1-7.7,8.1h-9.7v-34.2H316z M314.7,164.4 c2.2,0,2.9-1.2,2.9-3.6v-17c0-2.5-0.7-3.6-2.9-3.6h-2.3v24.2H314.7z"></path> <path class="st0" d="M334.5,140.8v-5.4h17.2v5.4h-5.5v28.8h-6.1v-28.8H334.5z"></path> <path class="st0" d="M355.6,169.6v-34.2h10.8c4.4,0,6.6,1.9,6.6,6.5v3.7c0,3.6-1.9,5.1-3.4,5.5c1.8,0.7,3.4,2.2,3.4,5.7v8.7 c0,1.8,0.2,3.1,0.6,3.9v0.2h-6c-0.3-0.6-0.6-1.6-0.6-3.9v-7.9c0-2.3-0.8-3.4-2.8-3.4h-2.5v15.2H355.6z M364.2,149.5 c2.1,0,2.8-1.2,2.8-3.4v-2.9c0-2.3-0.7-3.2-2.8-3.2h-2.5v9.6H364.2z"></path> <path class="st0" d="M382.6,163.3l-1,6.3h-5.4l5.8-34.2h7.6l6.1,34.2h-5.9l-1-6.3H382.6z M388.1,158.2l-1.2-7.7 c-0.6-3.8-0.9-6.2-1.1-8.2c-0.2,2-0.6,4.5-1.1,8.2l-1.2,7.7H388.1z"></path> <path class="st0" d="M408.9,135.4c5.5,0,7.7,2.2,7.7,7.9v18.3c0,5.5-2.2,8.1-7.7,8.1h-9.7v-34.2H408.9z M407.5,164.4 c2.2,0,2.9-1.2,2.9-3.6v-17c0-2.5-0.7-3.6-2.9-3.6h-2.3v24.2H407.5z"></path> <path class="st0" d="M436.7,140.7h-9.1v8.5h7.5v5.5h-7.5v9.5h9.3v5.5h-15.3v-34.2h15V140.7z"></path> </g> <g> <g> <g> <g> <circle class="st1" cx="7.9" cy="30.4" r="7.9"></circle> </g> </g> </g> <g> <g> <path class="st0" d="M83.9,172.2c-7.4,0-13.3-6-13.3-13.3s6-13.3,13.3-13.3c7.4,0,13.3,6,13.3,13.3S91.3,172.2,83.9,172.2z M83.9,152.5c-3.5,0-6.4,2.9-6.4,6.4c0,3.5,2.9,6.4,6.4,6.4c3.5,0,6.4-2.9,6.4-6.4C90.3,155.4,87.5,152.5,83.9,152.5z"></path> </g> </g> <g> <g> <path class="st0" d="M140.8,172.2c-7.4,0-13.3-6-13.3-13.3s6-13.3,13.3-13.3s13.3,6,13.3,13.3S148.1,172.2,140.8,172.2z M140.8,152.5c-3.5,0-6.4,2.9-6.4,6.4c0,3.5,2.9,6.4,6.4,6.4c3.5,0,6.4-2.9,6.4-6.4C147.2,155.4,144.3,152.5,140.8,152.5z"></path> </g> </g> <g> <g> <path class="st0" d="M163,121.9H68.2c-2.7,0-4.9-2.2-4.9-4.9s2.2-4.9,4.9-4.9h86.9l9.7-47H55.1c-2.7,0-4.9-2.2-4.9-4.9 c0-2.7,2.2-4.9,4.9-4.9h121.6L163,121.9z"></path> </g> </g> <g> <g> <polygon class="st0" points="154.8,142.4 69.1,142.4 44.3,35.3 22.7,35.3 22.7,25.5 52.1,25.5 76.8,132.7 154.8,132.7 "></polygon> </g> </g> </g> </g> </svg> 