<?xml version="1.0" encoding="UTF-8"?> <!-- Generator: Adobe Illustrator 24.0.3, SVG Export Plug-In . SVG Version: 6.00 Build 0) --> <svg xmlns="http://www.w3.org/2000/svg" xmlns:xlink="http://www.w3.org/1999/xlink" version="1.1" id="Layer_1" x="0px" y="0px" viewBox="0 0 305 199.9" style="enable-background:new 0 0 305 199.9;" xml:space="preserve"> <style type="text/css"> .st0{fill:#1499AA;} .st1{fill:#FFA500;} </style> <g> <g> <path class="st0" d="M107.9,175.8H31.2V171c0-21.1,17.2-38.4,38.4-38.4c21.1,0,38.4,17.2,38.4,38.4V175.8z M41.2,166.2h56.6 c-2.3-13.6-14.1-23.9-28.3-23.9S43.5,152.6,41.2,166.2z"></path> <path class="st0" d="M69.6,131c-14.4,0-26.2-11.7-26.2-26.2s11.7-26.2,26.2-26.2s26.2,11.7,26.2,26.2S84,131,69.6,131z M69.6,88.3 c-9.1,0-16.5,7.4-16.5,16.5s7.4,16.5,16.5,16.5c9.1,0,16.5-7.4,16.5-16.5S78.7,88.3,69.6,88.3z"></path> </g> <g> <g> <g> <g> <circle class="st1" cx="11.9" cy="61.1" r="10.9"></circle> <path class="st1" d="M11.9,73C5.3,73,0,67.7,0,61.1c0-6.5,5.3-11.9,11.9-11.9s11.9,5.3,11.9,11.9C23.8,67.7,18.4,73,11.9,73z M11.9,51.2c-5.5,0-10,4.5-10,10s4.5,10,10,10s10-4.5,10-10S17.4,51.2,11.9,51.2z"></path> </g> </g> </g> </g> <path class="st0" d="M296.9,73.8c-0.4-0.3-43.4-32.4-68.9-52.2c-16.2-12.5-29.4-6.9-30-6.7l-0.3,0.1l-65.3,25.9 c-5.1,2.4-9.9,4.6-13.7,12.2l-0.1,0.2l-6.7,12.4l-11.9-6.4l6.6-12.2c5.9-11.8,14.1-15.6,20.1-18.4l1.2-0.6l64.6-25.6 c2.6-1.1,21.8-8.5,43.6,8.4C261.7,30.6,304.6,62.7,305,63L296.9,73.8z"></path> <path class="st0" d="M264.2,187.3c-8.5,0-17.6,0-25.9-0.1c-11.2-0.1-18-1.6-25.7-5.7l-0.5-0.3l-84.9-54.4 c-7.4-4.9-12-10.3-13.9-16.8c-4.4-14.8,4.1-30.3,18.8-34.7c6.6-2,13.7-1.4,20,1.6l83.7,34.3l-5.1,12.5l-84.3-34.5 c-3.3-1.6-7-1.9-10.4-0.9c-7.6,2.3-12,10.3-9.7,18c1,3.3,3.7,6.3,8.3,9.3l84.6,54.2c4.9,2.6,9.4,3.9,19.3,4c24.6,0.3,56.6,0,57,0 l0.1,13.5C295.3,187.2,281,187.3,264.2,187.3z"></path> <polygon class="st0" points="219.5,107.8 206.1,107.8 206.1,67.9 31,67.9 31,54.4 219.5,54.4 "></polygon> <polygon class="st0" points="219.5,199.9 5.1,199.9 5.1,80.2 18.6,80.2 18.6,186.5 206.1,186.5 206.1,173.6 219.5,173.6 "></polygon> </g> </svg> 