<?xml version="1.0" encoding="UTF-8"?> <!-- Generator: Adobe Illustrator 24.0.3, SVG Export Plug-In . SVG Version: 6.00 Build 0) --> <svg xmlns="http://www.w3.org/2000/svg" xmlns:xlink="http://www.w3.org/1999/xlink" version="1.1" id="Layer_1" x="0px" y="0px" viewBox="0 0 243.2 243.1" style="enable-background:new 0 0 243.2 243.1;" xml:space="preserve"> <style type="text/css"> .st0{fill:#EBEBEB;} .st1{fill:#FFA500;} </style> <g> <path class="st0" d="M198.4,38.2l8.7,8.7L39.2,214.8l-8.7-8.7L198.4,38.2z M198.4,18.2l-188,188l28.8,28.8l188-188L198.4,18.2z"></path> <polygon class="st0" points="212.1,21.8 227.6,17.7 223.5,33.2 "></polygon> <polygon class="st0" points="237.7,7.6 198.4,18.2 227.1,46.9 "></polygon> <polygon class="st0" points="183,243.1 102.5,162.6 112.5,152.5 183,223 223.2,182.8 152.2,111.9 162.2,101.8 243.2,182.8 "></polygon> <polygon class="st0" points="133.4,93.1 60.4,20.1 30.1,50.4 20,40.3 60.4,0 143.5,83.1 "></polygon> <rect x="49.3" y="61.4" transform="matrix(0.7071 -0.7071 0.7071 0.7071 -58.7621 71.0616)" class="st0" width="14.2" height="90.1"></rect> <rect x="58.3" y="37.6" transform="matrix(0.7071 -0.7071 0.7071 0.7071 -8.8684 63.869)" class="st0" width="28.7" height="10.1"></rect> <rect x="90.3" y="69.6" transform="matrix(0.7071 -0.7071 0.7071 0.7071 -22.1135 95.8456)" class="st0" width="28.7" height="10.1"></rect> <rect x="186.2" y="165.5" transform="matrix(0.7071 -0.7071 0.7071 0.7071 -61.8471 191.771)" class="st0" width="28.7" height="10.1"></rect> <path class="st1" d="M23,60.2c0,6.3-5.1,11.5-11.5,11.5S0,66.5,0,60.2c0-6.3,5.1-11.5,11.5-11.5S23,53.8,23,60.2"></path> </g> </svg> 