<?xml version="1.0" encoding="UTF-8"?> <svg xmlns="http://www.w3.org/2000/svg" id="Laag_1" data-name="Laag 1" viewBox="0 0 490.05 213.47"><defs><style>.cls-1{fill:#fff;}</style></defs><path class="cls-1" d="M293.42,266.79H278.86l-2.65,7.9h-4.85l12.18-33.1h5.38l12.22,33.1h-5.07Zm-8.34-18.44-4.9,14.52h12l-4.81-14.52-1-3.45h-.14Z" transform="translate(-62.54 -61.84)"></path><path class="cls-1" d="M319.29,245.83v28.86H314.7V245.83h-9.84l.13-4.24H329l.09,4.24Z" transform="translate(-62.54 -61.84)"></path><path class="cls-1" d="M346.09,245.83v28.86H341.5V245.83h-9.84l.13-4.24h24l.09,4.24Z" transform="translate(-62.54 -61.84)"></path><path class="cls-1" d="M375.26,275.31c-9.8,0-13.72-5.08-13.72-17.17s3.88-17.07,13.72-17.07,13.68,5,13.68,17.07S385.15,275.31,375.26,275.31Zm0-30.05c-6.49,0-9,2.73-9,12.88s2.47,12.93,9,12.93,9-2.82,9-12.93S381.79,245.26,375.26,245.26Z" transform="translate(-62.54 -61.84)"></path><path class="cls-1" d="M414.57,259.91l8.65,14.78h-5.38l-7.46-13.94h-6.66v13.94h-4.5v-33.1h11.2c7.24,0,10.64,3,10.64,9.45C421.06,256.11,418.76,259.2,414.57,259.91Zm-4.15-14.39h-6.7v11.65h6.53c4.23,0,6.13-1.59,6.13-6C416.38,247.07,414.57,245.52,410.42,245.52Z" transform="translate(-62.54 -61.84)"></path><path class="cls-1" d="M455.2,274.69l-15.62-22.77-1.94-3-.09,0,.05,3.58v22.15h-4.06v-33.1h4.1l16.77,25,.09-.05-.09-3.53V241.59h4v33.1Z" transform="translate(-62.54 -61.84)"></path><path class="cls-1" d="M493.32,270.59l-.13,4.1H472.1v-33.1h20.34l.13,4.15h-16v9.84h13.68v3.8H476.6v11.21Z" transform="translate(-62.54 -61.84)"></path><path class="cls-1" d="M503.65,241.59l7.2,14.52,1.54,3.23h.13l1.46-3.23,7.19-14.52h5l-11.47,21.89v11.21H510.1V263.48l-11.65-21.89Z" transform="translate(-62.54 -61.84)"></path><path class="cls-1" d="M541.3,275.31a19.06,19.06,0,0,1-9.71-2.52l.71-4.1a16.72,16.72,0,0,0,9,2.52c4.67,0,7-2.12,7-5.65,0-7.51-16.37-4.24-16.37-15.23,0-5.2,3.35-9.26,10.9-9.26a20.63,20.63,0,0,1,8.73,1.76l-.61,3.93a21.14,21.14,0,0,0-7.9-1.59c-5,0-6.76,2.29-6.76,4.9,0,7.19,16.38,3.84,16.38,15.18C552.6,271.47,548.58,275.31,541.3,275.31Z" transform="translate(-62.54 -61.84)"></path><path class="cls-1" d="M67.45,220.18V62s0-.09,0-.13H62.57s0,.08,0,.13V220.18Z" transform="translate(-62.54 -61.84)"></path><path class="cls-1" d="M80.62,220.18V62s0-.09,0-.13H75.76a.5.5,0,0,0,0,.13V220.18Z" transform="translate(-62.54 -61.84)"></path><path class="cls-1" d="M151.69,220.18l25.19-72.71,4.43,12.82-20.65,59.62a2.48,2.48,0,0,0,0,.27h5.13l18.15-52.4,4.71,13.64-13.34,38.49a2.51,2.51,0,0,0,0,.27h5.12l10.84-31.26L202,220.18h5.09a3,3,0,0,0-.05-.42L152.48,61.84H147.3l27,78.14-17,49.23H93.79V62s0-.09,0-.13H88.91s0,.08,0,.13V220.18Zm-57.9-26.06h61.79l-2.86,8.25H93.79Zm0,13.16H151l-2.85,8.27H93.79Z" transform="translate(-62.54 -61.84)"></path><path class="cls-1" d="M343.71,220.18,303.36,103.41l4.44-12.8,44.76,129.57h5.18L310.38,83.11l4.71-13.65,52.13,150.72h5.18L317.65,61.84h-5.11L257.77,220.18ZM300.77,110.91l27.07,78.3H273.69ZM272,194.12h57.53l2.86,8.25H269.14Zm62.06,13.16h0l2.86,8.27H264.6l2.86-8.27Z" transform="translate(-62.54 -61.84)"></path><polygon class="cls-1" points="185.81 158.34 240.55 0 235.37 0 180.62 158.34 185.81 158.34"></polygon><path class="cls-1" d="M234.33,220.18,289.06,61.84h-5.2L232.5,210.5l-24.39-70.58a2.68,2.68,0,0,0,.12-.24l26.86-77.84H229.9l-24.36,70.63-4.74-13.68a.35.35,0,0,0,.08-.16l19.58-56.79h-5.18l-17.05,49.5-4.43-12.8,12.63-36.7h-5.18L191.2,91l-10.08-29.2h-5.18l54.73,158.34Z" transform="translate(-62.54 -61.84)"></path><path class="cls-1" d="M221.08,220.18a2,2,0,0,0-.06-.42L166.52,61.84h-5.19L216,220.18Z" transform="translate(-62.54 -61.84)"></path><polygon class="cls-1" points="167.14 212.78 178.65 179.66 173.51 179.64 162.01 212.74 167.14 212.78"></polygon><polygon class="cls-1" points="153.06 212.78 164.57 179.66 159.43 179.64 147.93 212.74 153.06 212.78"></polygon><polygon class="cls-1" points="181.71 212.78 193.23 179.66 188.09 179.64 176.59 212.74 181.71 212.78"></polygon></svg> 