<?xml version="1.0" encoding="UTF-8"?> <!-- Generator: Adobe Illustrator 24.0.2, SVG Export Plug-In . SVG Version: 6.00 Build 0) --> <svg xmlns="http://www.w3.org/2000/svg" xmlns:xlink="http://www.w3.org/1999/xlink" id="Layer_1" x="0px" y="0px" viewBox="0 0 269.6 153.1" style="enable-background:new 0 0 269.6 153.1;" xml:space="preserve"> <style type="text/css"> .st0{opacity:0.81;fill:#FFFFFF;} .st1{opacity:0.81;} .st2{fill:#FFFFFF;} .st3{fill:#FFA500;} </style> <g> <path class="st0" d="M222.6,42.1c12.7,0,23,10.3,23,23s-10.3,23-23,23c-12.7,0-23-10.3-23-23S209.9,42.1,222.6,42.1 M222.6,33.7 c-17.4,0-31.4,14.1-31.4,31.4s14.1,31.4,31.4,31.4S254,82.5,254,65.1S240,33.7,222.6,33.7L222.6,33.7z"></path> <g class="st1"> <path class="st2" d="M269.6,153.1h-94v-4.2c0-25.9,21.1-47,47-47s47,21.1,47,47V153.1z M184.2,144.6H261 c-2.1-19.3-18.5-34.4-38.4-34.4S186.3,125.3,184.2,144.6z"></path> </g> <g class="st1"> <g> <rect x="37.9" y="59.5" class="st2" width="93.4" height="7.3"></rect> </g> <g> <rect x="37.9" y="81.8" class="st2" width="63.7" height="7.3"></rect> </g> <g> <rect x="37.9" y="37.7" class="st2" width="93.4" height="7.3"></rect> </g> </g> <g class="st1"> <polygon class="st2" points="131.9,153.1 101.6,123.3 3.2,123.3 3.2,22.9 13.5,22.9 13.5,113 105.8,113 121.6,128.6 121.6,113 152.1,113 152.1,13.5 22.9,13.5 22.9,3.2 162.4,3.2 162.4,123.3 131.9,123.3 "></polygon> </g> <g> <circle class="st3" cx="8.3" cy="8.3" r="8.3"></circle> </g> </g> </svg> 