<?xml version="1.0" encoding="UTF-8"?> <svg xmlns="http://www.w3.org/2000/svg" id="Layer_1" data-name="Layer 1" viewBox="0 0 418.55 173.72"><defs><style>.cls-1{fill:#fff;}</style></defs><path class="cls-1" d="M709.89,338.06v4.56a23.16,23.16,0,0,0-10.79,2.28c-2.69,1.66-5.38,4.56-7.87,8.92-1.66,2.9-4.35,9.95-7.88,20.93l-47.47,137h-5L592.14,403.15,553.58,511.78H549L498.44,370.61c-3.74-10.57-6.22-16.79-7.05-18.66a16.09,16.09,0,0,0-6.84-7.05c-2.91-1.45-6.85-2.28-11.82-2.28v-4.56h63v4.56h-3.11c-4.35,0-7.88,1-10.16,3.11A9.44,9.44,0,0,0,519,353c0,2.9,1.86,9.74,5.59,20.11l33.38,95.36,28.19-81.06-5-14.3-3.94-11.41a61,61,0,0,0-5.8-11,14.2,14.2,0,0,0-3.94-3.94,30.63,30.63,0,0,0-6.22-3.32,31.14,31.14,0,0,0-7.46-.83v-4.56h66.13v4.56h-4.56c-4.77,0-8.09,1-10.37,3.11a11.11,11.11,0,0,0-3.32,8.09c0,4.35,1.87,11.61,5.6,22.39l32.55,92.45L672.16,375c3.73-10.36,5.59-17.62,5.59-21.56a9,9,0,0,0-1.86-5.39,9.47,9.47,0,0,0-4.56-3.52c-3.11-1.25-7.26-1.66-12.44-1.66v-4.56h51Z" transform="translate(-291.34 -338.06)"></path><path class="cls-1" d="M386.7,508.05c-33,0-57.63-8.91-73.8-26.53-14.3-16-21.56-35.66-21.56-59.29,0-17.62,3.94-33.17,12-46.65s18.66-23,31.93-28.81,32.54-8.71,58-8.71h69.24v4.56h-6.42c-6.43,0-11.2,1.87-14.51,5.6-2.29,2.69-3.53,9.33-3.53,19.9V478c0,9.54.83,15.76,2.7,18.45,3.1,4.56,8.08,6.84,15.34,6.84h6.42v4.56H386.7Zm27.36-156.72a103.65,103.65,0,0,0-25.7-3.73c-20.11,0-36.49,6.84-49.34,20.31s-19.28,32.14-19.28,55.56c0,23.22,6.43,41.88,19.28,55.35,12.85,13.68,28.81,20.52,48.3,20.52,7.26,0,16.17-1.24,26.74-3.52Z" transform="translate(-291.34 -338.06)"></path></svg> 