<?xml version="1.0" encoding="UTF-8"?> <!-- Generator: Adobe Illustrator 24.0.2, SVG Export Plug-In . SVG Version: 6.00 Build 0) --> <svg xmlns="http://www.w3.org/2000/svg" xmlns:xlink="http://www.w3.org/1999/xlink" id="Layer_1" x="0px" y="0px" viewBox="0 0 518.2 478.8" style="enable-background:new 0 0 518.2 478.8;" xml:space="preserve"> <style type="text/css"> .st0{opacity:0.81;} .st1{fill:#FFFFFF;} .st2{opacity:0.81;fill:#FFFFFF;} .st3{opacity:0.81;fill:#FDC603;} .st4{fill:#FFFFFF;fill-opacity:0.81;} .st5{fill:#FDC603;} .st6{fill:#FCC505;} </style> <g> <g class="st0"> <g> <path class="st1" d="M192.9,337.3c-3.5,0-6.3-2.9-6.3-6.4V89.3c0-3.6,2.8-6.4,6.3-6.4c3.5,0,6.3,2.9,6.3,6.4v241.5 C199.2,334.4,196.4,337.3,192.9,337.3"></path> <path class="st1" d="M311.2,219.6H74.5c-3.5,0-6.3-2.8-6.3-6.3c0-3.5,2.8-6.3,6.3-6.3h236.7c3.5,0,6.3,2.8,6.3,6.3 C317.6,216.8,314.7,219.6,311.2,219.6"></path> <path class="st1" d="M192.9,344.5c-38.6,0-68.8-57.6-68.8-131.2c0-73.6,30.2-131.2,68.8-131.2c38.6,0,68.8,57.7,68.8,131.2 C261.7,286.9,231.4,344.5,192.9,344.5 M192.9,94.7c-30.4,0-56.2,54.3-56.2,118.6c0,64.3,25.7,118.6,56.2,118.6 c30.4,0,56.2-54.3,56.2-118.6C249,149,223.3,94.7,192.9,94.7"></path> <path class="st1" d="M276.8,314l-4.7-4.2c-10.7-9.6-22.8-17.1-36.1-22.3c-13.8-5.4-28.3-8.1-43.2-8.1 c-29.3,0-57.4,10.8-79.1,30.3l-4.7,4.2l-8.4-9.4l4.7-4.2c24.1-21.6,55.2-33.5,87.6-33.5c16.5,0,32.6,3,47.8,9 c14.7,5.7,28.1,14,39.9,24.6l4.7,4.2L276.8,314z"></path> </g> <path class="st1" d="M192.9,346.3c-73.3,0-133-59.7-133-133s59.7-133,133-133s133,59.7,133,133S266.2,346.3,192.9,346.3z M192.9,95.3c-65.1,0-118,52.9-118,118c0,65.1,52.9,118,118,118c65.1,0,118-52.9,118-118C310.9,148.2,257.9,95.3,192.9,95.3z"></path> <path class="st1" d="M276.8,114l-4.7,4.2c-10.7,9.6-22.8,17.1-36.1,22.3c-13.8,5.4-28.3,8.1-43.2,8.1c-29.3,0-57.4-10.8-79.1-30.3 l-4.7-4.2l-8.4,9.4l4.7,4.2c24.1,21.6,55.2,33.5,87.6,33.5c16.5,0,32.6-3,47.8-9c14.7-5.7,28.1-14,39.9-24.6l4.7-4.2L276.8,114z"></path> </g> <g> <polygon class="st2" points="495.2,294.3 422.6,294.3 422.6,251.4 427.5,251.4 427.5,289.3 490.2,289.3 490.2,246.8 432.2,246.8 432.2,241.8 495.2,241.8 "></polygon> <path class="st2" d="M429.1,244.3c0,2.2-1.8,4-4,4c-2.2,0-4-1.8-4-4c0-2.2,1.8-4,4-4C427.3,240.3,429.1,242.1,429.1,244.3"></path> <rect x="444.3" y="299.1" class="st2" width="28.8" height="6.5"></rect> </g> <g class="st0"> <path class="st1" d="M4,28.7C-1.3,34-1.3,42.5,4,47.9c5.3,5.3,13.9,5.3,19.2,0c5.3-5.3,5.3-13.9,0-19.2C17.9,23.4,9.3,23.4,4,28.7 "></path> </g> <rect x="359.5" y="216.5" transform="matrix(0.1478 -0.989 0.989 0.1478 59.6596 570.6654)" class="st2" width="3" height="68.4"></rect> <path class="st3" d="M326.9,474.8c-0.3-2.5,1.5-4.7,4-5v0c2.5-0.3,4.7,1.5,5,4l0,0c0.3,2.5-1.5,4.7-4,5l0,0l0,0l0,0 c-0.2,0-0.4,0-0.5,0l0,0C329.1,478.8,327.1,477.1,326.9,474.8z M315.8,478.6L315.8,478.6L315.8,478.6c-2.5-0.3-4.2-2.6-3.9-5l0,0 c0.3-2.5,2.6-4.2,5-3.9l0,0c2.5,0.3,4.2,2.6,3.9,5l0,0c-0.3,2.3-2.2,3.9-4.5,3.9l0,0C316.2,478.7,316,478.6,315.8,478.6z M341.7,472.3c-0.9-2.3,0.3-4.9,2.6-5.8l0,0c2.3-0.9,4.9,0.3,5.8,2.6l0,0c0.9,2.3-0.3,4.9-2.6,5.8l0,0c-0.5,0.2-1,0.3-1.6,0.3l0,0 C344,475.3,342.3,474.1,341.7,472.3z M300.2,474.7L300.2,474.7L300.2,474.7c-2.3-0.9-3.5-3.5-2.6-5.8l0,0c0.9-2.3,3.5-3.5,5.8-2.6 l0,0c2.3,0.9,3.5,3.5,2.6,5.8l0,0c-0.7,1.8-2.4,2.9-4.2,2.9l0,0C301.3,475,300.8,474.9,300.2,474.7z M355.4,466.4 c-1.4-2-0.9-4.9,1.2-6.3l0,0c2-1.4,4.8-0.9,6.2,1.2l0,0c1.4,2,0.9,4.8-1.2,6.2l0,0c-0.8,0.5-1.7,0.8-2.5,0.8l0,0 C357.7,468.4,356.3,467.7,355.4,466.4z M286.1,467.1L286.1,467.1L286.1,467.1c-2-1.4-2.5-4.2-1.1-6.3l0,0c1.4-2,4.2-2.5,6.3-1.1 l0,0c2,1.4,2.5,4.2,1.1,6.3l0,0c-0.9,1.2-2.3,1.9-3.7,1.9l0,0C287.8,467.9,286.9,467.6,286.1,467.1z M367.4,457.3 c-1.8-1.7-2-4.5-0.4-6.4l0,0c1.7-1.8,4.5-2,6.4-0.4l0,0c1.9,1.7,2,4.5,0.4,6.4l0,0c-0.9,1-2.1,1.5-3.4,1.5l0,0 C369.3,458.5,368.2,458.1,367.4,457.3z M274.2,456.3L274.2,456.3L274.2,456.3c-1.6-1.9-1.4-4.7,0.4-6.3l0,0 c1.9-1.6,4.7-1.4,6.4,0.5l0,0c1.6,1.9,1.4,4.7-0.5,6.3l0,0c-0.9,0.7-1.9,1.1-2.9,1.1l0,0C276.3,457.9,275.1,457.3,274.2,456.3z M376.8,445.7c-2.2-1.2-3-3.9-1.9-6.1l0,0c1.2-2.2,3.9-3,6.1-1.9l0,0c2.2,1.2,3,3.9,1.9,6.1l0,0c-0.8,1.5-2.4,2.4-4,2.4l0,0 C378.2,446.2,377.5,446,376.8,445.7z M265.2,443c-1.1-2.2-0.3-4.9,1.9-6.1l0,0c2.2-1.1,4.9-0.2,6.1,2l0,0c1.1,2.2,0.3,4.9-2,6l0,0 c-0.6,0.3-1.4,0.5-2,0.5l0,0C267.6,445.5,266,444.6,265.2,443z M383.2,432.1c-2.4-0.6-3.9-3-3.3-5.4l0,0c0.6-2.4,3-3.9,5.5-3.3l0,0 c2.4,0.6,3.9,3,3.3,5.4l0,0l0,0l0,0c-0.5,2-2.3,3.4-4.4,3.4l0,0C383.9,432.2,383.5,432.2,383.2,432.1z M259.7,427.9 c-0.6-2.4,0.9-4.8,3.4-5.4l0,0c2.4-0.6,4.8,0.9,5.4,3.4l0,0c0.6,2.4-0.9,4.8-3.4,5.4l0,0c-0.4,0.1-0.7,0.1-1,0.1l0,0 C262,431.4,260.2,430,259.7,427.9z M381.5,412.9c0-2.5,2-4.5,4.5-4.5l0,0c2.5,0,4.5,2,4.5,4.5l0,0l0,0l0,0c0,2.5-2,4.5-4.5,4.5l0,0 C383.5,417.4,381.5,415.4,381.5,412.9z M262.4,416.5c-2.5,0-4.5-2.1-4.4-4.6l0,0l0,0l0,0c0-2.5,2.1-4.5,4.6-4.4l0,0 c2.5,0,4.5,2.1,4.4,4.6l0,0C266.9,414.6,264.9,416.5,262.4,416.5L262.4,416.5C262.5,416.5,262.4,416.5,262.4,416.5z M380.2,400.6 c-0.5-2.4,1-4.8,3.4-5.4l0,0c2.4-0.5,4.8,1,5.4,3.4l0,0c0.5,2.4-1,4.8-3.4,5.4l0,0c-0.3,0.1-0.6,0.1-1,0.1l0,0 C382.5,404.1,380.7,402.7,380.2,400.6z M263.3,401.6c-2.4-0.6-3.8-3.1-3.2-5.5l0,0c0.6-2.4,3.1-3.9,5.5-3.2l0,0 c2.4,0.6,3.8,3.1,3.2,5.5l0,0c-0.5,2-2.4,3.4-4.4,3.4l0,0C264.1,401.7,263.7,401.7,263.3,401.6z M375.6,387.5L375.6,387.5 c-1.1-2.2-0.2-4.9,2-6l0,0c2.2-1.1,4.9-0.2,6,2l0,0c1.1,2.2,0.2,4.9-2,6l0,0c-0.6,0.3-1.3,0.5-2,0.5l0,0 C378,390,376.4,389.1,375.6,387.5z M267.8,387.3c-2.2-1.2-3-3.9-1.8-6.1l0,0c1.2-2.2,3.9-3,6.1-1.8l0,0c2.2,1.2,3,3.9,1.8,6.1l0,0 c-0.8,1.5-2.4,2.3-4,2.3l0,0C269.2,387.8,268.5,387.6,267.8,387.3z M368,375.9c-1.6-1.9-1.4-4.7,0.5-6.3l0,0 c1.9-1.6,4.7-1.4,6.4,0.5l0,0c1.6,1.9,1.4,4.7-0.5,6.3l0,0c-0.8,0.7-1.9,1.1-2.9,1.1l0,0C370.2,377.5,368.9,377,368,375.9z M275.6,374.5c-1.8-1.7-2-4.5-0.3-6.4l0,0c1.7-1.8,4.5-2,6.4-0.3l0,0c1.8,1.7,2,4.5,0.3,6.4l0,0c-0.9,1-2.1,1.5-3.3,1.5l0,0 C277.6,375.6,276.5,375.3,275.6,374.5z M357.8,366.5c-2-1.5-2.5-4.3-1-6.3l0,0c1.5-2,4.3-2.5,6.3-1l0,0l0,0l0,0 c2,1.5,2.5,4.3,1,6.3l0,0c-0.9,1.2-2.3,1.9-3.6,1.9l0,0C359.6,367.3,358.6,367,357.8,366.5z M286.3,363.9c-1.4-2.1-0.8-4.9,1.2-6.2 l0,0l0,0l0,0c2.1-1.4,4.9-0.8,6.2,1.2l0,0c1.4,2.1,0.8,4.9-1.2,6.2l0,0c-0.8,0.5-1.6,0.8-2.5,0.8l0,0 C288.6,365.9,287.2,365.2,286.3,363.9z M345.7,359.7c-2.3-0.9-3.4-3.6-2.5-5.9l0,0c0.9-2.3,3.6-3.4,5.9-2.5l0,0c0,0,0,0,0,0l0,0 c2.3,0.9,3.4,3.6,2.5,5.9l0,0c-0.7,1.8-2.4,2.8-4.2,2.8l0,0C346.8,360.1,346.3,360,345.7,359.7z M299.2,356.2 c-0.8-2.3,0.4-4.9,2.7-5.8l0,0c2.3-0.8,4.9,0.4,5.8,2.7l0,0c0.8,2.3-0.4,4.9-2.7,5.8l0,0c-0.5,0.2-1,0.3-1.5,0.3l0,0 C301.6,359.2,299.8,358,299.2,356.2z M332.3,356.1c-2.5-0.3-4.2-2.6-3.8-5.1l0,0c0.4-2.5,2.6-4.2,5.1-3.8l0,0 c2.5,0.4,4.2,2.6,3.8,5.1l0,0c-0.3,2.2-2.2,3.9-4.4,3.9l0,0C332.7,356.2,332.5,356.2,332.3,356.1z M313.5,351.8 c-0.2-2.5,1.6-4.7,4-4.9l0,0l0,0l0,0c2.5-0.2,4.7,1.5,4.9,4l0,0c0.2,2.5-1.6,4.7-4,4.9l0,0c-0.1,0-0.3,0-0.4,0l0,0 C315.7,355.9,313.8,354.2,313.5,351.8z"></path> <g> <path class="st4" d="M306.6,376.8c0,2.2-1.8,4-4,4c-2.2,0-4-1.8-4-4c0-2.2,1.8-4,4-4C304.8,372.8,306.6,374.6,306.6,376.8"></path> <polygon class="st2" points="349.9,454.9 299.1,454.9 299.1,384.4 305.1,384.4 305.1,448.9 343.9,448.9 343.9,377.9 308.4,377.9 308.4,371.9 349.9,371.9 "></polygon> <path class="st2" d="M328.5,442.3c0,2.2-1.8,4-4,4c-2.2,0-4-1.8-4-4c0-2.2,1.8-4,4-4C326.7,438.3,328.5,440.1,328.5,442.3"></path> <path class="st2" d="M332.4,386.4h-14.8c-1.4,0-2.5-1.1-2.5-2.5s1.1-2.5,2.5-2.5h14.8c1.4,0,2.5,1.1,2.5,2.5 S333.8,386.4,332.4,386.4z"></path> </g> <rect x="261.5" y="333.6" transform="matrix(0.7071 -0.7071 0.7071 0.7071 -170.7489 288.5871)" class="st2" width="3" height="33.6"></rect> <g> <path class="st5" d="M10.2,130.5v-15c44,0,79.8-38.5,79.8-85.7h15C105.1,85.3,62.5,130.5,10.2,130.5z"></path> <path class="st5" d="M10.2,90.2v-15c20.6,0,37.3-20.4,37.3-45.4h15C62.5,63.1,39.1,90.2,10.2,90.2z"></path> <path class="st5" d="M10.2,172.1v-15c68,0,123.3-57.1,123.3-127.3h15C148.5,108.3,86.5,172.1,10.2,172.1z"></path> </g> <path class="st5" d="M382.5,133.4L382.5,133.4c-1.4,0-2.8,0-4.2-0.1l0.6-9c1.2,0.1,2.4,0.1,3.6,0.1c0.1,0,0.2,0,0.3,0l-0.2,3.7 L382.5,133.4z M389.8,133l-1-8.9c1.2-0.1,2.4-0.3,3.6-0.5l1.6,8.9C392.7,132.6,391.3,132.8,389.8,133z M370.9,132.4 c-1.4-0.2-2.8-0.5-4.1-0.9l2.1-8.8c1.2,0.3,2.4,0.5,3.6,0.7L370.9,132.4z M401.2,130.7l-2.5-8.6c1.2-0.3,2.3-0.7,3.5-1.1l3.1,8.5 C403.9,129.8,402.6,130.3,401.2,130.7z M359.7,129.4c-1.3-0.5-2.6-1-3.9-1.6l3.6-8.2c1.1,0.5,2.3,0.9,3.4,1.4L359.7,129.4z M412.1,126.4l-4-8.1c1.1-0.5,2.2-1.1,3.2-1.7l4.5,7.8C414.6,125.1,413.3,125.8,412.1,126.4z M349.1,124.5 c-1.2-0.7-2.4-1.5-3.6-2.2l5-7.5c1,0.7,2.1,1.3,3.1,1.9L349.1,124.5z M422,120.4l-5.3-7.2c1-0.7,1.9-1.5,2.9-2.3l5.8,6.9 C424.2,118.7,423.1,119.6,422,120.4z M339.6,117.8c-1.1-0.9-2.1-1.8-3.1-2.8l6.2-6.5c0.9,0.8,1.8,1.7,2.7,2.4L339.6,117.8z M430.7,112.7l-6.5-6.2c0.8-0.9,1.7-1.8,2.4-2.7l6.9,5.8C432.6,110.6,431.7,111.7,430.7,112.7z M331.4,109.6 c-0.9-1.1-1.8-2.2-2.6-3.3l7.2-5.3c0.7,1,1.5,1.9,2.3,2.9L331.4,109.6z M437.9,103.6l-7.5-5c0.7-1,1.3-2.1,1.9-3.1l7.8,4.5 C439.5,101.2,438.7,102.5,437.9,103.6z M324.7,100.1c-0.7-1.2-1.4-2.5-2-3.7l8.1-4c0.5,1.1,1.1,2.2,1.7,3.2L324.7,100.1z M443.5,93.4l-8.2-3.6c0.5-1.1,0.9-2.3,1.4-3.4l8.5,3.1C444.6,90.8,444.1,92.1,443.5,93.4z M319.8,89.6c-0.5-1.3-0.9-2.7-1.3-4 l8.6-2.5c0.3,1.2,0.7,2.3,1.1,3.5L319.8,89.6z M447.2,82.4l-8.7-2.1c0.3-1.2,0.5-2.4,0.7-3.6l8.9,1.5 C447.9,79.6,447.6,81,447.2,82.4z M316.7,78.4c-0.2-1.4-0.4-2.8-0.6-4.2l8.9-1c0.1,1.2,0.3,2.4,0.5,3.6L316.7,78.4z M449,70.9 l-9-0.6c0.1-1.2,0.1-2.4,0.1-3.7l0-0.2h9l0,0.2C449.1,68.1,449.1,69.5,449,70.9z M315.7,66.8L315.7,66.8c0-1.5,0-2.9,0.1-4.2l9,0.5 c-0.1,1.2-0.1,2.4-0.1,3.6L315.7,66.8z M439.7,60.1c-0.1-1.2-0.3-2.4-0.5-3.6l8.9-1.6c0.2,1.4,0.5,2.8,0.6,4.2L439.7,60.1z M325.6,56.8l-8.9-1.5c0.2-1.4,0.5-2.8,0.9-4.1l8.8,2.1C326,54.4,325.8,55.6,325.6,56.8z M437.7,50.3c-0.3-1.2-0.7-2.3-1.2-3.5 l8.4-3.1c0.5,1.3,0.9,2.7,1.3,4L437.7,50.3z M328.2,47l-8.5-3.1c0.5-1.3,1-2.6,1.6-3.9l8.2,3.6C329,44.8,328.6,45.9,328.2,47z M434,40.9c-0.5-1.1-1.1-2.2-1.7-3.2l7.8-4.5c0.7,1.2,1.4,2.5,2,3.7L434,40.9z M332.4,37.9l-7.8-4.5c0.7-1.2,1.5-2.4,2.2-3.6l7.5,5 C333.7,35.8,333,36.9,332.4,37.9z M428.8,32.4c-0.7-1-1.5-1.9-2.3-2.9l6.9-5.8c0.9,1.1,1.8,2.2,2.6,3.3L428.8,32.4z M338.2,29.7 l-6.9-5.8c0.9-1.1,1.8-2.1,2.8-3.2l6.5,6.2C339.8,27.8,338.9,28.8,338.2,29.7z M422.1,24.8c-0.9-0.8-1.8-1.7-2.7-2.4l5.8-6.9 c1.1,0.9,2.1,1.8,3.2,2.8L422.1,24.8z M345.3,22.6l-5.8-6.9c1.1-0.9,2.2-1.8,3.3-2.6l5.4,7.2C347.1,21,346.2,21.8,345.3,22.6z M414.3,18.6c-1-0.7-2.1-1.3-3.1-1.9l4.5-7.8c1.2,0.7,2.4,1.4,3.6,2.2L414.3,18.6z M353.5,16.8L349,9c1.2-0.7,2.5-1.4,3.7-2l4,8.1 C355.6,15.6,354.5,16.2,353.5,16.8z M405.4,13.8c-1.1-0.5-2.3-0.9-3.4-1.4l3.1-8.5c1.3,0.5,2.6,1,3.9,1.6L405.4,13.8z M362.6,12.5 l-3.1-8.4c1.3-0.5,2.7-0.9,4-1.3l2.6,8.6C364.9,11.7,363.7,12.1,362.6,12.5z M395.9,10.6c-1.2-0.3-2.4-0.5-3.6-0.7l1.5-8.9 c1.4,0.2,2.8,0.5,4.1,0.9L395.9,10.6z M372.3,9.9L370.7,1c1.4-0.2,2.8-0.4,4.2-0.6l1,8.9C374.7,9.5,373.5,9.7,372.3,9.9z M385.9,9.1C384.8,9,383.6,9,382.4,9h-0.1V0h0.1c1.4,0,2.7,0,4.1,0.1L385.9,9.1z"></path> <rect x="301.6" y="124.4" transform="matrix(0.7071 -0.7071 0.7071 0.7071 4.2244 261.9829)" class="st2" width="33.6" height="3"></rect> <path class="st6" d="M459.1,328.9c-2,0-4-0.1-5.9-0.3l0.6-6c3.1,0.3,6.2,0.3,9.3,0.1l0.4,6C462.1,328.8,460.6,328.9,459.1,328.9z M470.8,327.7l-1.2-5.9c3-0.6,6.1-1.5,8.9-2.6l2.2,5.6C477.5,326.1,474.1,327.1,470.8,327.7z M446,327.4c-3.4-0.8-6.7-1.8-9.9-3.2 l2.3-5.5c2.9,1.2,5.9,2.2,8.9,2.9L446,327.4z M487.3,321.7l-2.9-5.3c2.7-1.5,5.3-3.2,7.8-5.2l3.7,4.7 C493.2,318.1,490.3,320.1,487.3,321.7z M429.6,321c-3-1.7-5.9-3.7-8.5-6l3.9-4.6c2.4,2,5,3.8,7.6,5.4L429.6,321z M501.3,311.1 l-4.3-4.2c2.2-2.2,4.2-4.6,5.9-7.2l5,3.4C506,305.9,503.8,308.6,501.3,311.1z M415.8,310.1c-2.4-2.5-4.5-5.3-6.4-8.2l5-3.3 c1.7,2.6,3.6,5.1,5.7,7.4L415.8,310.1z M511.6,296.8l-5.3-2.7c1.4-2.8,2.6-5.7,3.5-8.6l5.7,1.8 C514.6,290.5,513.2,293.7,511.6,296.8z M405.8,295.5c-1.5-3.1-2.8-6.4-3.7-9.7l5.8-1.6c0.8,3,2,5.9,3.3,8.7L405.8,295.5z M517.3,280.1l-5.9-1c0.5-3,0.8-6.2,0.8-9.3l0-0.2l6,0l0,0.3C518.2,273.3,517.9,276.7,517.3,280.1z M400.6,278.7 c-0.4-2.9-0.7-5.9-0.7-8.9c0-0.5,0-1,0-1.4l6,0.1c0,0.4,0,0.9,0,1.3c0,2.7,0.2,5.4,0.6,8L400.6,278.7z M511.8,263 c-0.4-3.1-1.1-6.2-2-9.1l5.7-1.8c1,3.3,1.8,6.7,2.2,10.1L511.8,263z M406.5,262l-5.9-0.9c0.5-3.4,1.3-6.8,2.4-10.1l5.7,1.9 C407.7,255.8,407,258.9,406.5,262z M507.4,247.8c-1.3-2.8-2.8-5.6-4.6-8.1l4.9-3.4c2,2.9,3.7,5.9,5.1,9L507.4,247.8z M411.2,246.8 l-5.4-2.6c1.5-3.1,3.3-6.1,5.3-8.9l4.9,3.5C414.1,241.3,412.5,244,411.2,246.8z M498.8,234.6c-2.1-2.3-4.3-4.5-6.8-6.4l3.7-4.7 c2.7,2.1,5.2,4.5,7.5,7.1L498.8,234.6z M420,233.8l-4.4-4.1c2.3-2.5,4.9-4.9,7.7-7l3.6,4.8C424.5,229.4,422.2,231.5,420,233.8z M486.7,224.4c-2.7-1.6-5.5-3-8.4-4.1l2.2-5.6c3.2,1.3,6.4,2.8,9.3,4.6L486.7,224.4z M432.4,223.9l-3-5.2c3-1.7,6.2-3.2,9.4-4.4 l2.1,5.6C437.9,221,435.1,222.3,432.4,223.9z M472.1,218.3c-3-0.8-6.1-1.3-9.2-1.5l0.4-6c3.5,0.2,6.9,0.8,10.3,1.6L472.1,218.3z M447.1,218l-1.3-5.8c3.4-0.8,6.8-1.3,10.3-1.4l0.3,6C453.2,216.9,450.1,217.3,447.1,218z"></path> <polygon class="st2" points="365,112.1 364.8,91.8 349.7,91.8 349.7,48.1 354.5,48.1 354.5,87 369.6,87 369.6,93.1 372.9,87 414,87 414,43 359.7,43 359.7,38.2 418.8,38.2 418.8,91.8 375.8,91.8 "></polygon> <path class="st2" d="M355.7,40.6c0,2-1.6,3.6-3.6,3.6c-2,0-3.6-1.6-3.6-3.6c0-2,1.6-3.6,3.6-3.6C354.1,37,355.7,38.6,355.7,40.6"></path> </g> </svg> 