<?xml version="1.0" encoding="UTF-8"?> <!-- Generator: Adobe Illustrator 24.0.2, SVG Export Plug-In . SVG Version: 6.00 Build 0) --> <svg xmlns="http://www.w3.org/2000/svg" xmlns:xlink="http://www.w3.org/1999/xlink" id="Layer_1" x="0px" y="0px" viewBox="0 0 473.1 379.6" style="enable-background:new 0 0 473.1 379.6;" xml:space="preserve"> <style type="text/css"> .st0{opacity:0.81;} .st1{fill:#FFFFFF;} .st2{fill:#FDC603;} .st3{fill:#FFFFFF;fill-opacity:0.81;} .st4{fill:#009BA5;fill-opacity:0.3;} .st5{font-family:'MyriadPro-Regular';} .st6{font-size:108.2668px;} </style> <g> <g class="st0"> <g> <path class="st1" d="M249.5,278.9c-3.8,0-6.9-3.1-6.9-7V9.1c0-3.9,3.1-7,6.9-7c3.8,0,6.9,3.1,6.9,7v262.8 C256.4,275.8,253.3,278.9,249.5,278.9"></path> <path class="st1" d="M378.3,150.9H120.7c-3.8,0-6.9-3.1-6.9-6.9c0-3.8,3.1-6.9,6.9-6.9h257.6c3.8,0,6.9,3.1,6.9,6.9 C385.2,147.8,382.1,150.9,378.3,150.9"></path> <path class="st1" d="M249.5,286.8c-42,0-74.8-62.7-74.8-142.8c0-80.1,32.9-142.8,74.8-142.8c42,0,74.8,62.7,74.8,142.8 C324.4,224.1,291.5,286.8,249.5,286.8 M249.5,15c-33.1,0-61.1,59.1-61.1,129.1c0,70,28,129.1,61.1,129.1 c33.1,0,61.1-59.1,61.1-129.1C310.6,74.1,282.6,15,249.5,15"></path> <path class="st1" d="M340.9,253.6l-5.1-4.6c-11.6-10.4-24.8-18.6-39.3-24.2c-15-5.8-30.8-8.8-47-8.8c-31.8,0-62.4,11.7-86.1,32.9 l-5.1,4.6l-9.2-10.2l5.1-4.6c26.2-23.5,60.1-36.5,95.3-36.5c17.9,0,35.4,3.3,52,9.8c16,6.3,30.6,15.3,43.4,26.8l5.1,4.6 L340.9,253.6z"></path> </g> <path class="st1" d="M249.5,288.1c-79.4,0-144-64.6-144-144S170.1,0,249.5,0s144,64.6,144,144S328.9,288.1,249.5,288.1z M249.5,15 c-71.1,0-129,57.9-129,129s57.9,129,129,129s129-57.9,129-129S320.7,15,249.5,15z"></path> <path class="st1" d="M340.8,36l-5.1,4.6c-11.6,10.4-24.8,18.6-39.3,24.2c-15,5.8-30.8,8.8-47,8.8c-31.8,0-62.4-11.7-86.1-32.9 l-5.1-4.6L149,46.4l5.1,4.6c26.2,23.5,60.1,36.5,95.3,36.5c17.9,0,35.4-3.3,52-9.8c16-6.3,30.6-15.3,43.4-26.8l5.1-4.6L340.8,36z"></path> </g> <g> <g> <path class="st2" d="M104.4,347.8c-45.9,0-83.2-37.3-83.2-83.2c0-16.5,4.8-32.4,13.9-46.1l10.1,6.7 c-7.8,11.7-11.9,25.3-11.9,39.3c0,39.2,31.9,71,71,71c39.2,0,71-31.9,71-71c0-39.2-31.9-71-71-71c-12.9,0-25.6,3.5-36.6,10.1 l-6.3-10.4c12.9-7.8,27.7-11.9,42.8-11.9c45.9,0,83.1,37.3,83.1,83.2C187.5,310.5,150.2,347.8,104.4,347.8"></path> <rect x="-6.4" y="343.5" transform="matrix(0.7071 -0.7071 0.7071 0.7071 -238.4217 123.5961)" class="st2" width="72.7" height="12.1"></rect> <path class="st3" d="M60,208.4c0,5.2-4.2,9.4-9.4,9.4c-5.2,0-9.4-4.2-9.4-9.4c0-5.2,4.2-9.4,9.4-9.4C55.8,199,60,203.2,60,208.4"></path> </g> <g> <path class="st2" d="M92.8,312.2c0-5.9,4.1-10.1,9.6-10.1c5.9,0,9.6,4.2,9.6,10.1c0,5.7-3.8,10.1-9.6,10.1 C96.8,322.3,92.8,317.9,92.8,312.2z M96.9,288.8l-2.3-78.3h15.7l-2.3,78.3H96.9z"></path> </g> </g> <g> <g> <circle class="st4" cx="92.1" cy="83.9" r="50.6"></circle> <path class="st2" d="M92.1,139.5c-30.7,0-55.6-25-55.6-55.6s25-55.6,55.6-55.6s55.6,25,55.6,55.6S122.7,139.5,92.1,139.5z M92.1,38.3c-25.2,0-45.6,20.5-45.6,45.6s20.5,45.6,45.6,45.6s45.6-20.5,45.6-45.6S117.2,38.3,92.1,38.3z"></path> </g> <text transform="matrix(0.9603 0 0 1 73.3162 121.8493)" class="st2 st5 st6">?</text> <rect x="26.4" y="131.5" transform="matrix(0.668 -0.7442 0.7442 0.668 -86.374 79.3819)" class="st2" width="38.7" height="10"></rect> </g> <g> <g> <g> <circle class="st4" cx="417.4" cy="131.6" r="50.6"></circle> <path class="st2" d="M417.4,187.2c-30.7,0-55.6-25-55.6-55.6s25-55.6,55.6-55.6s55.6,25,55.6,55.6S448.1,187.2,417.4,187.2z M417.4,86c-25.2,0-45.6,20.5-45.6,45.6s20.5,45.6,45.6,45.6s45.6-20.5,45.6-45.6S442.6,86,417.4,86z"></path> </g> <rect x="351.8" y="179.2" transform="matrix(0.668 -0.7442 0.7442 0.668 -13.846 337.3447)" class="st2" width="38.7" height="10"></rect> </g> <polygon class="st2" points="434.1,94.4 393.4,124.6 422,131.1 393.4,166.9 445,125.9 415,120.1 "></polygon> </g> </g> </svg> 