<?xml version="1.0" encoding="UTF-8"?> <!-- Generator: Adobe Illustrator 24.0.2, SVG Export Plug-In . SVG Version: 6.00 Build 0) --> <svg xmlns="http://www.w3.org/2000/svg" xmlns:xlink="http://www.w3.org/1999/xlink" id="Layer_1" x="0px" y="0px" viewBox="0 0 600.6 461" style="enable-background:new 0 0 600.6 461;" xml:space="preserve"> <style type="text/css"> .st0{opacity:0.71;} .st1{fill:none;stroke:#FFFFFF;stroke-width:2.871;stroke-miterlimit:10;} .st2{opacity:0.81;} .st3{fill:#FFFFFF;} .st4{fill:#FCFCFC;} .st5{fill:none;} .st6{fill:#FDC603;} .st7{fill:#FFC800;} </style> <g> <g class="st0"> <path class="st1" d="M154.1,347.6"></path> </g> <g class="st0"> <path class="st1" d="M153.2,227.1"></path> </g> <g class="st2"> <path class="st1" d="M131.8,210.7"></path> </g> <g class="st2"> <path class="st1" d="M148.4,341"></path> </g> <g class="st2"> <path class="st1" d="M127.4,183.6"></path> </g> <g class="st2"> <path class="st1" d="M132.2,164.9"></path> </g> <g class="st2"> <path class="st1" d="M290.1,206.1"></path> </g> <g class="st2"> <path class="st1" d="M346.5,261.6"></path> </g> <g class="st0"> <path class="st1" d="M374.8,73.9"></path> </g> <g class="st0"> <path class="st1" d="M284.3,142"></path> </g> <g class="st0"> <path class="st1" d="M287.2,223.3"></path> </g> <g class="st0"> <path class="st1" d="M345.2,269.9"></path> </g> <g class="st0"> <path class="st1" d="M450.1,274.5"></path> </g> <g class="st2"> <path class="st1" d="M381.9,82.6"></path> </g> <g class="st2"> <path class="st1" d="M292,171.6"></path> </g> <g class="st2"> <path class="st1" d="M448.6,266.8"></path> </g> <g class="st0"> <path class="st1" d="M357.3,389.6"></path> </g> <g class="st0"> <path class="st1" d="M420.3,405.6"></path> </g> <g class="st2"> <path class="st1" d="M415,382.9"></path> </g> <g class="st2"> <g> <path class="st3" d="M508.5,233L508.5,233c-2.9-0.2-5-2.8-4.8-5.7l0,0c0.2-2.9,2.8-5.1,5.7-4.8l0,0c2.9,0.2,5.1,2.8,4.8,5.7l0,0 c-0.2,2.8-2.5,4.8-5.2,4.8l0,0C508.8,233.1,508.6,233,508.5,233z M523.7,227.8c-0.5-2.9,1.4-5.6,4.3-6.1l0,0 c2.9-0.5,5.6,1.4,6.1,4.3l0,0c0.5,2.9-1.4,5.6-4.3,6.1l0,0c-0.3,0-0.6,0.1-0.9,0.1l0,0C526.4,232.2,524.2,230.4,523.7,227.8z M487.6,228.6c-2.8-0.9-4.2-3.9-3.3-6.7l0,0c1-2.8,3.9-4.2,6.7-3.3l0,0c2.8,0.9,4.2,3.9,3.3,6.7l0,0c-0.8,2.2-2.8,3.5-5,3.5l0,0 C488.7,228.9,488.1,228.8,487.6,228.6z M543.3,223.3c-1.2-2.7,0-5.8,2.7-6.9l0,0c2.6-1.2,5.8,0,6.9,2.7l0,0 c1.2,2.6,0,5.8-2.7,6.9l0,0c-0.7,0.3-1.4,0.5-2.1,0.5l0,0C546.1,226.4,544.2,225.2,543.3,223.3z M468.4,219.2 c-2.4-1.6-3.1-4.9-1.5-7.3l0,0c1.6-2.4,4.9-3.1,7.3-1.5l0,0c2.4,1.6,3.1,4.9,1.5,7.3l0,0c-1,1.5-2.7,2.4-4.4,2.4l0,0 C470.3,220,469.3,219.8,468.4,219.2z M561.1,214c-1.8-2.3-1.4-5.6,0.9-7.4l0,0c2.3-1.8,5.6-1.4,7.4,0.9l0,0 c1.8,2.3,1.4,5.6-0.9,7.4l0,0c-1,0.8-2.1,1.1-3.2,1.1l0,0C563.7,216,562.2,215.3,561.1,214z M452.2,205.2c-2-2.2-1.8-5.5,0.4-7.4 l0,0c2.1-1.9,5.5-1.8,7.4,0.4l0,0c2,2.2,1.8,5.5-0.4,7.4l0,0c-1,0.9-2.3,1.4-3.5,1.4l0,0C454.7,207,453.3,206.4,452.2,205.2z M576.1,200.7c-2.3-1.8-2.8-5.1-1-7.4l0,0l0,0l0,0c1.8-2.3,5.1-2.8,7.4-1l0,0c2.3,1.8,2.8,5.1,1,7.4l0,0c-1,1.4-2.6,2.1-4.2,2.1 l0,0C578.2,201.7,577.1,201.4,576.1,200.7z M440,187.7c-1.4-2.6-0.4-5.8,2.2-7.1l0,0c2.6-1.4,5.8-0.4,7.1,2.2l0,0 c1.4,2.6,0.4,5.8-2.2,7.1l0,0c-0.8,0.4-1.6,0.6-2.5,0.6l0,0C442.8,190.5,440.9,189.5,440,187.7z M587.3,184 c-2.7-1.1-3.9-4.2-2.8-6.9l0,0c0,0,0,0,0,0l0,0c1.1-2.7,4.2-3.9,6.9-2.8l0,0c2.7,1.1,3.9,4.2,2.8,6.9l0,0c-0.8,2-2.8,3.2-4.8,3.2 l0,0C588.7,184.4,588,184.3,587.3,184z M432.4,167.8c-0.7-2.8,1.1-5.7,3.9-6.3l0,0c2.8-0.7,5.7,1.1,6.3,3.9l0,0 c0.7,2.8-1.1,5.7-3.9,6.4l0,0c-0.4,0.1-0.8,0.1-1.2,0.1l0,0C435.2,171.8,433,170.2,432.4,167.8z M594,165c-2.9-0.4-4.8-3.1-4.4-6 l0,0l0,0l0,0c0.4-2.9,3.1-4.9,6-4.4l0,0c2.9,0.4,4.9,3.1,4.4,6l0,0c-0.4,2.6-2.6,4.5-5.2,4.5l0,0 C594.5,165.1,594.3,165.1,594,165z M435.3,151.9c-2.9-0.1-5.2-2.5-5.2-5.4l0,0c0-2.9,2.4-5.2,5.4-5.2l0,0 c2.9,0.1,5.2,2.5,5.2,5.4l0,0C440.6,149.6,438.3,151.9,435.3,151.9L435.3,151.9C435.4,151.9,435.3,151.9,435.3,151.9z M590,140.3 C590,140.3,590,140.3,590,140.3L590,140.3c-0.3-2.9,1.8-5.5,4.7-5.8l0,0c2.9-0.3,5.5,1.8,5.8,4.7l0,0c0.3,2.9-1.8,5.5-4.7,5.8 l0,0c-0.2,0-0.4,0-0.5,0l0,0C592.6,145.1,590.3,143,590,140.3z M436.8,131.8c-2.8-0.8-4.5-3.7-3.7-6.5l0,0 c0.1-0.2,0.1-0.4,0.2-0.6l0,0c0-0.2,0.1-0.4,0.1-0.6l0,0c0.8-2.8,3.7-4.4,6.5-3.6l0,0c2.8,0.8,4.4,3.7,3.6,6.5l0,0 c0,0.2-0.1,0.4-0.2,0.6l0,0c0,0.2-0.1,0.4-0.1,0.6l0,0c0,0,0,0,0,0l0,0c-0.6,2.3-2.8,3.9-5.1,3.9l0,0 C437.8,132,437.3,132,436.8,131.8z M585.8,122.1c-1-2.7,0.4-5.8,3.1-6.8l0,0c2.7-1,5.8,0.4,6.8,3.1l0,0c1,2.7-0.4,5.8-3.1,6.8 l0,0c-0.6,0.2-1.2,0.3-1.8,0.3l0,0C588.6,125.5,586.6,124.2,585.8,122.1z M443.8,111.7c-2.5-1.5-3.3-4.7-1.9-7.2l0,0 c1.5-2.5,4.7-3.3,7.2-1.9l0,0c2.5,1.5,3.3,4.7,1.9,7.2l0,0l0,0l0,0c-1,1.7-2.7,2.6-4.5,2.6l0,0 C445.6,112.4,444.7,112.2,443.8,111.7z M577.2,105.5c-1.6-2.4-1-5.7,1.4-7.3l0,0c2.4-1.6,5.7-1,7.3,1.4l0,0 c1.6,2.4,1,5.7-1.4,7.3l0,0c-0.9,0.6-2,0.9-3,0.9l0,0C579.9,107.7,578.2,106.9,577.2,105.5z M455.1,95c-2.1-2.1-2.1-5.4,0-7.4 l0,0c2.1-2.1,5.4-2.1,7.5,0l0,0c2,2.1,2.1,5.4,0,7.4l0,0c-1,1-2.4,1.6-3.7,1.6l0,0C457.4,96.6,456.1,96.1,455.1,95z M564.8,91.5 c-2.2-1.9-2.4-5.2-0.5-7.4l0,0c1.9-2.2,5.2-2.4,7.4-0.5l0,0c2.2,1.9,2.4,5.2,0.5,7.4l0,0c-1,1.2-2.5,1.8-4,1.8l0,0 C567,92.8,565.8,92.3,564.8,91.5z M470.1,81.7c-1.5-2.5-0.7-5.7,1.8-7.2l0,0c2.5-1.5,5.7-0.7,7.2,1.8l0,0 c1.5,2.5,0.7,5.7-1.8,7.2l0,0l0,0l0,0c-0.8,0.5-1.8,0.7-2.7,0.7l0,0C472.8,84.3,471.1,83.4,470.1,81.7z M549.2,81 c-2.6-1.3-3.6-4.5-2.3-7.1l0,0c1.3-2.6,4.5-3.6,7.1-2.3l0,0c2.6,1.3,3.6,4.5,2.3,7.1l0,0c-0.9,1.8-2.8,2.9-4.7,2.9l0,0 C550.8,81.6,550,81.4,549.2,81z M487.9,72.5c-0.8-2.8,0.8-5.7,3.6-6.5l0,0c2.8-0.8,5.7,0.8,6.5,3.6l0,0c0.8,2.8-0.8,5.7-3.6,6.5 l0,0c-0.5,0.1-1,0.2-1.5,0.2l0,0C490.7,76.3,488.6,74.8,487.9,72.5z M531.6,74.8c-2.8-0.6-4.6-3.4-4-6.3l0,0 c0.6-2.8,3.4-4.6,6.3-4l0,0c2.8,0.6,4.6,3.4,4,6.3l0,0c-0.5,2.5-2.7,4.1-5.1,4.1l0,0C532.3,74.9,532,74.8,531.6,74.8z M507.5,68 c-0.1-2.9,2.2-5.4,5.1-5.4l0,0c2.9-0.1,5.3,2.2,5.4,5.1l0,0c0.1,2.9-2.2,5.3-5.1,5.5l0,0c-0.1,0-0.1,0-0.2,0l0,0 C509.9,73.1,507.6,70.8,507.5,68z"></path> </g> </g> <g class="st2"> <path class="st3" d="M517.8,198.7V152h15l2.5-17.3h-17.5v-13.6c0-4.9,2.5-7.7,7.5-7.7h11.3V97.8c0,0-5.1-0.8-12.3-0.8 c-16.5,0-24.8,9.1-24.8,22.8v15h-15V152h15v46.7H517.8z"></path> </g> <g> <g> <g> <path class="st3" d="M303.8,272.2C303.7,272.2,303.7,272.2,303.8,272.2c-1.4,0-2.7,0-4-0.1l0.5-8.4c1.2,0.1,2.3,0.1,3.5,0.1 c0.6,0,1.1,0,1.7,0l0.3,8.4C305.1,272.2,304.4,272.2,303.8,272.2z M316.1,271l-1.7-8.2c1.7-0.3,3.4-0.8,5-1.3l2.4,8 C320,270.1,318.1,270.6,316.1,271z M289.5,270.6c0,0-0.1,0-0.1,0c-1.9-0.4-3.8-1-5.7-1.6l2.6-8c1.6,0.5,3.3,1,4.9,1.4 c0,0,0.1,0,0.1,0l-1.1,4.2L289.5,270.6z M290.4,266.7L290.4,266.7l0-0.2L290.4,266.7z M331.6,265.6l-3.7-7.5 c1.5-0.8,3.1-1.6,4.5-2.5l4.4,7.1C335.1,263.8,333.4,264.7,331.6,265.6z M274.1,264.8c-1.8-0.9-3.5-2-5.1-3.1l4.6-7 c1.4,1,2.9,1.8,4.4,2.6L274.1,264.8z M345.2,256.5l-5.5-6.3c1.3-1.1,2.5-2.4,3.7-3.6l6.1,5.7 C348.1,253.8,346.7,255.2,345.2,256.5z M260.8,255.3c-1.4-1.4-2.8-2.8-4.2-4.3l6.3-5.6c1.1,1.3,2.3,2.5,3.6,3.7L260.8,255.3z M356,244.1l-7-4.6c0.9-1.4,1.8-2.9,2.6-4.4l7.4,3.9C358.1,240.7,357.1,242.5,356,244.1z M250.4,242.7c-1.1-1.7-2-3.4-2.9-5.2 l7.5-3.7c0.8,1.5,1.6,3.1,2.5,4.5L250.4,242.7z M363.1,229.4l-8-2.7c0.5-1.6,1-3.3,1.4-5l0-0.1l8.2,1.8l-0.1,0.3 C364.3,225.6,363.8,227.5,363.1,229.4z M243.6,227.8c-0.6-1.9-1.1-3.8-1.5-5.8l8.2-1.7c0.3,1.7,0.8,3.4,1.3,5L243.6,227.8z M366.3,213.1l-8.4-0.5c0.1-1.1,0.1-2.2,0.1-3.2c0-0.6,0-1.3,0-1.9l8.4-0.3c0,0.7,0,1.5,0,2.2 C366.4,210.6,366.4,211.9,366.3,213.1z M240.9,211.6c0-0.7,0-1.4,0-2.1c0-1.3,0-2.6,0.1-3.8l8.4,0.5c-0.1,1.1-0.1,2.2-0.1,3.3 c0,0.6,0,1.2,0,1.8L240.9,211.6z M356.9,198.5c-0.3-1.7-0.8-3.4-1.3-5l8-2.5c0.6,1.9,1.1,3.8,1.5,5.8L356.9,198.5z M250.7,197.1 l-8.2-1.8l0-0.2c0.4-1.8,1-3.7,1.6-5.6l8,2.6C251.5,193.8,251.1,195.5,250.7,197.1z M352.3,185.1c-0.8-1.5-1.6-3.1-2.5-4.5 l7.1-4.4c1.1,1.7,2,3.4,2.9,5.2L352.3,185.1z M255.6,183.9l-7.4-3.9c0.9-1.8,2-3.5,3.1-5.1l7,4.6 C257.3,180.9,256.4,182.4,255.6,183.9z M344.3,173.3c-1.1-1.3-2.4-2.5-3.6-3.7l5.7-6.1c1.5,1.4,2.9,2.8,4.2,4.3L344.3,173.3z M263.9,172.4l-6.1-5.7c1.4-1.4,2.8-2.8,4.3-4.2l5.6,6.3C266.3,169.9,265,171.1,263.9,172.4z M333.6,164 c-1.4-0.9-2.9-1.8-4.5-2.6l3.9-7.4c1.7,0.9,3.5,2,5.1,3L333.6,164z M274.8,163.3l-4.4-7.1c1.7-1.1,3.4-2,5.2-2.9l3.8,7.5 C277.8,161.6,276.3,162.4,274.8,163.3z M320.8,157.9c-1.6-0.5-3.2-1-4.9-1.4l-0.1,0l1.9-8.2l0.1,0c1.9,0.4,3.8,1,5.6,1.6 L320.8,157.9z M287.7,157.4l-2.5-8c1.9-0.6,3.8-1.1,5.8-1.5l1.7,8.2C291.1,156.5,289.4,156.9,287.7,157.4z M306.9,155.2 c-1.7-0.1-3.5-0.1-5.2-0.1l-0.3-8.4c2-0.1,4,0,6,0.1L306.9,155.2z"></path> </g> </g> <g class="st2"> <g> <path class="st3" d="M302.8,209.3c-10.3,0-18.6-8.4-18.6-18.6c0-1.9,0.3-3.8,0.9-5.6l5.1,1.6c-0.4,1.3-0.6,2.6-0.6,4 c0,7.3,6,13.3,13.3,13.3c7.3,0,13.3-6,13.3-13.3c0-7.3-6-13.3-13.3-13.3c-1,0-2.1,0.1-3.1,0.4l-1.2-5.2c1.4-0.3,2.9-0.5,4.3-0.5 c10.3,0,18.6,8.4,18.6,18.6C321.5,201,313.1,209.3,302.8,209.3"></path> </g> <g> <path class="st3" d="M330.6,242.5h-55.5v-2.6c0-15.3,12.5-27.8,27.8-27.8c15.3,0,27.8,12.4,27.8,27.8V242.5z M280.5,237.2h44.6 c-1.3-11.1-10.8-19.8-22.3-19.8C291.4,217.3,281.9,226,280.5,237.2"></path> </g> <g> <path class="st3" d="M292,174.7c2.4,0,4.3,1.9,4.3,4.3c0,2.4-1.9,4.3-4.3,4.3c-2.4,0-4.3-1.9-4.3-4.3 C287.7,176.6,289.6,174.7,292,174.7"></path> </g> </g> </g> <g> <g class="st2"> <g> <path class="st4" d="M100.4,461l-0.4-11.5c2.1-0.1,4.2-0.2,6.4-0.5l1.5,11.4l-0.3,0C105.2,460.7,102.8,460.9,100.4,461z M88.1,460.7c-2.4-0.2-4.8-0.5-7.2-0.9l1.9-11.3c2.1,0.3,4.2,0.6,6.3,0.8L88.1,460.7z M120,458.2l-2.7-11.2 c2.1-0.5,4.1-1.1,6.1-1.8l3.6,10.9C124.7,457,122.3,457.6,120,458.2z M68.8,456.9c-2.3-0.7-4.6-1.5-6.8-2.3l4.1-10.7 c2,0.8,4,1.5,6,2.1L68.8,456.9z M138.4,451.6l-4.9-10.4c1.9-0.9,3.8-1.9,5.6-3l5.7,10C142.7,449.5,140.6,450.6,138.4,451.6z M50.8,449.4c-2.1-1.1-4.2-2.4-6.2-3.7l6.2-9.7c1.8,1.1,3.6,2.2,5.5,3.2L50.8,449.4z M155.1,441.5l-6.9-9.2 c1.7-1.3,3.3-2.6,4.9-4l7.6,8.6C158.9,438.5,157,440,155.1,441.5z M34.6,438.4c-1.8-1.5-3.6-3.2-5.4-4.8l8-8.2 c1.5,1.5,3.1,2.9,4.7,4.3L34.6,438.4z M169.5,428.1l-8.6-7.6c1.4-1.6,2.7-3.3,4-4.9l9.2,6.9C172.6,424.4,171,426.3,169.5,428.1z M20.9,424.4c-1.5-1.9-2.9-3.8-4.3-5.8l9.5-6.4c1.2,1.7,2.5,3.5,3.8,5.1L20.9,424.4z M180.8,412.2l-10-5.7c1-1.8,2-3.7,2.9-5.6 l10.4,4.9C183.1,408,182,410.1,180.8,412.2z M10.4,407.9c-1.1-2.1-2.1-4.3-3-6.6L18,397c0.8,2,1.7,3.9,2.7,5.8L10.4,407.9z M188.8,394.3l-10.9-3.6c0.7-2,1.2-4.1,1.7-6.1l11.2,2.7C190.2,389.7,189.5,392,188.8,394.3z M3.4,389.6c-0.6-2.3-1.2-4.7-1.6-7 l11.3-2.2c0.4,2.1,0.9,4.2,1.4,6.2L3.4,389.6z M192.9,375.1l-11.4-1.3c0.2-2.1,0.4-4.2,0.5-6.3l11.5,0.4 C193.4,370.3,193.2,372.8,192.9,375.1z M0.2,370.3c-0.1-2.1-0.2-4.1-0.2-6.2l0-1l11.5,0.1l0,0.9c0,1.8,0.1,3.6,0.2,5.4 L0.2,370.3z M181.7,356.6c-0.1-0.6-0.1-1.3-0.2-1.9c-0.2-1.5-0.4-3-0.6-4.4l11.3-1.9c0.3,1.6,0.5,3.3,0.7,5 c0.1,0.7,0.2,1.5,0.2,2.2L181.7,356.6z M12.3,352.4l-11.4-1.6c0.3-2.4,0.8-4.8,1.3-7.1l11.2,2.4C13,348.2,12.6,350.3,12.3,352.4 z M178.4,339.7c-0.6-2-1.3-4-2.1-6l10.7-4.1c0.9,2.2,1.6,4.5,2.3,6.8L178.4,339.7z M16.4,335.6l-10.8-3.9 c0.8-2.3,1.7-4.5,2.7-6.7l10.5,4.7C17.9,331.7,17.1,333.6,16.4,335.6z M171.8,323.8c-1-1.9-2.1-3.7-3.2-5.5l9.7-6.2 c1.3,2,2.5,4.1,3.7,6.2L171.8,323.8z M23.9,320.1l-9.8-6c1.2-2.1,2.6-4.1,4-6l9.3,6.7C26.1,316.5,25,318.3,23.9,320.1z M162.1,309.5c-1.4-1.6-2.8-3.2-4.3-4.7l8.2-8c1.7,1.7,3.3,3.5,4.8,5.4L162.1,309.5z M34.3,306.3l-8.4-7.8 c1.6-1.8,3.4-3.5,5.1-5.1l7.8,8.4C37.2,303.2,35.7,304.7,34.3,306.3z M149.7,297.5c-1.7-1.3-3.4-2.6-5.1-3.8l6.4-9.5 c2,1.3,3.9,2.8,5.8,4.3L149.7,297.5z M47.2,294.9l-6.7-9.3c1.9-1.4,4-2.7,6-4l6,9.8C50.7,292.5,48.9,293.7,47.2,294.9z M135.2,288.2c-1.9-1-3.8-1.9-5.8-2.7l4.4-10.6c2.2,0.9,4.4,1.9,6.6,3L135.2,288.2z M62.2,286.3l-4.7-10.5 c2.2-1,4.5-1.9,6.7-2.7l3.8,10.8C66.1,284.7,64.1,285.5,62.2,286.3z M119.1,282c-2-0.6-4.1-1-6.2-1.4l2.2-11.3 c2.4,0.5,4.7,1,7,1.6L119.1,282z M78.6,281l-2.4-11.2c2.3-0.5,4.7-0.9,7.1-1.3l1.6,11.4C82.7,280.2,80.6,280.5,78.6,281z M102.1,279.2c-2.1-0.1-4.2-0.2-6.4-0.2l-0.2-11.5c2.4,0,4.8,0,7.2,0.2L102.1,279.2z"></path> </g> </g> <g> <g class="st2"> <polygon class="st3" points="156.8,405.1 41.3,405.1 41.3,336.9 49.1,336.9 49.1,397.2 148.9,397.2 148.9,329.6 56.5,329.6 56.5,321.7 156.8,321.7 "></polygon> </g> <g class="st2"> <path class="st3" d="M51.6,325.6c0,3.5-2.9,6.4-6.4,6.4c-3.5,0-6.4-2.9-6.4-6.4c0-3.5,2.9-6.4,6.4-6.4 C48.7,319.3,51.6,322.1,51.6,325.6"></path> </g> <g class="st2"> <rect x="75.8" y="408.5" class="st3" width="45.8" height="5.6"></rect> </g> </g> </g> <g class="st2"> <path class="st3" d="M122.6,135.6L122.6,135.6L122.6,135.6c-3-0.4-5-3.2-4.6-6.1l0,0c0.4-3,3.2-5,6.1-4.6l0,0c3,0.4,5,3.1,4.6,6.1 l0,0c-0.4,2.7-2.7,4.7-5.4,4.7l0,0C123.1,135.6,122.8,135.6,122.6,135.6z M135.9,131c-0.4-3,1.6-5.7,4.6-6.1l0,0 c3-0.4,5.7,1.6,6.1,4.6l0,0c0.4,3-1.6,5.7-4.6,6.1l0,0c-0.3,0-0.5,0.1-0.8,0.1l0,0C138.6,135.6,136.3,133.7,135.9,131z M103.8,130.1L103.8,130.1L103.8,130.1c-2.7-1.2-3.9-4.5-2.7-7.2l0,0c1.2-2.7,4.5-3.9,7.2-2.7l0,0c2.7,1.2,3.9,4.4,2.7,7.2l0,0 c-0.9,2-2.9,3.2-4.9,3.2l0,0C105.3,130.6,104.5,130.5,103.8,130.1z M153.6,127.3c-1.3-2.7-0.1-5.9,2.6-7.2l0,0 c2.7-1.2,5.9-0.1,7.2,2.6l0,0c1.3,2.7,0.1,5.9-2.6,7.2l0,0c-0.7,0.3-1.5,0.5-2.3,0.5l0,0C156.5,130.5,154.5,129.3,153.6,127.3z M87.4,119.6L87.4,119.6L87.4,119.6c-2.3-2-2.5-5.4-0.5-7.6l0,0c2-2.3,5.4-2.5,7.6-0.5l0,0c2.3,2,2.5,5.4,0.6,7.6l0,0 c-1.1,1.2-2.6,1.9-4.1,1.9l0,0C89.7,120.9,88.4,120.5,87.4,119.6z M169.5,118.8c-2-2.2-1.7-5.7,0.5-7.6l0,0c2.2-2,5.7-1.7,7.6,0.5 l0,0c2,2.2,1.7,5.7-0.5,7.6l0,0c-1,0.9-2.3,1.3-3.6,1.3l0,0C172.1,120.7,170.6,120,169.5,118.8z M74.6,104.8 c-1.6-2.5-0.9-5.9,1.6-7.5l0,0c2.5-1.6,5.9-0.9,7.5,1.6l0,0c1.6,2.5,0.9,5.9-1.6,7.5l0,0c-0.9,0.6-1.9,0.9-2.9,0.9l0,0 C77.4,107.3,75.6,106.4,74.6,104.8z M182.4,106.2c-2.5-1.6-3.3-4.9-1.7-7.5l0,0c1.6-2.5,5-3.3,7.5-1.7l0,0 c2.5,1.6,3.3,4.9,1.7,7.5l0,0c-1,1.6-2.8,2.5-4.6,2.5l0,0C184.3,107,183.3,106.7,182.4,106.2z M66.5,87.1L66.5,87.1L66.5,87.1 c-0.8-2.9,0.8-5.9,3.7-6.7l0,0c2.9-0.8,5.9,0.8,6.7,3.7l0,0c0.8,2.9-0.8,5.9-3.7,6.7l0,0c-0.5,0.1-1,0.2-1.5,0.2l0,0 C69.3,91,67.2,89.4,66.5,87.1z M191.2,90.4c-2.9-0.8-4.5-3.8-3.7-6.7l0,0c0.8-2.9,3.8-4.5,6.7-3.7l0,0c2.9,0.8,4.5,3.8,3.7,6.7 l0,0c-0.7,2.4-2.9,3.9-5.2,3.9l0,0C192.2,90.6,191.7,90.5,191.2,90.4z M69.1,73.2c-3,0-5.4-2.4-5.4-5.4l0,0l0,0l0,0 c0-3,2.4-5.4,5.4-5.4l0,0c3,0,5.4,2.4,5.4,5.4l0,0C74.5,70.8,72.1,73.2,69.1,73.2L69.1,73.2C69.1,73.2,69.1,73.2,69.1,73.2z M189.7,67.4L189.7,67.4c0-3,2.4-5.4,5.4-5.5l0,0c3,0,5.4,2.4,5.4,5.4l0,0c0,3-2.4,5.4-5.4,5.4l0,0c0,0,0,0,0,0l0,0 C192.1,72.8,189.7,70.4,189.7,67.4z M70.2,55.2c-2.9-0.9-4.5-3.9-3.7-6.7l0,0c0.8-2.9,3.9-4.5,6.7-3.7l0,0 c2.9,0.9,4.5,3.9,3.7,6.7l0,0c-0.7,2.4-2.8,3.9-5.2,3.9l0,0C71.2,55.4,70.7,55.3,70.2,55.2z M187.2,51.2c-0.9-2.9,0.8-5.9,3.6-6.8 l0,0c2.9-0.9,5.9,0.7,6.8,3.6l0,0c0.9,2.9-0.8,5.9-3.6,6.8l0,0c-0.5,0.2-1,0.2-1.6,0.2l0,0C190.1,55,187.9,53.5,187.2,51.2z M76.3,38.2c-2.5-1.6-3.2-5-1.6-7.5l0,0c1.6-2.5,5-3.2,7.5-1.6l0,0c2.5,1.6,3.2,5,1.6,7.5l0,0c-1,1.6-2.8,2.5-4.5,2.5l0,0 C78.2,39,77.2,38.8,76.3,38.2z M180.3,36.3c-1.6-2.5-0.9-5.9,1.6-7.5l0,0c2.5-1.6,5.9-0.9,7.5,1.6l0,0c1.6,2.5,1,5.9-1.5,7.5l0,0 c-0.9,0.6-2,0.9-3,0.9l0,0C183,38.7,181.3,37.9,180.3,36.3z M87,23.6c-2-2.3-1.7-5.7,0.6-7.6l0,0l0,0l0,0c2.3-2,5.7-1.7,7.6,0.6 l0,0c1.9,2.3,1.7,5.7-0.6,7.6l0,0c-1,0.9-2.3,1.3-3.5,1.3l0,0C89.6,25.5,88,24.9,87,23.6z M169.4,24c-2.3-1.9-2.6-5.4-0.6-7.6l0,0 c1.9-2.3,5.4-2.6,7.6-0.6l0,0c2.3,1.9,2.6,5.4,0.6,7.6l0,0c-1.1,1.3-2.6,1.9-4.1,1.9l0,0C171.6,25.3,170.4,24.8,169.4,24z M101.3,12.7c-1.2-2.7,0-5.9,2.7-7.2l0,0c0,0,0,0,0,0l0,0c2.7-1.2,5.9,0,7.2,2.7l0,0c1.2,2.7,0,5.9-2.7,7.2l0,0 c-0.7,0.3-1.5,0.5-2.2,0.5l0,0C104.2,15.8,102.2,14.7,101.3,12.7z M155.5,15.2c-2.7-1.2-4-4.4-2.8-7.1l0,0c1.2-2.7,4.4-4,7.1-2.8 l0,0c2.7,1.2,4,4.4,2.8,7.1l0,0c-0.9,2-2.9,3.2-5,3.2l0,0C156.9,15.7,156.2,15.5,155.5,15.2z M118.2,6.2c-0.4-3,1.7-5.7,4.6-6.1 l0,0c3-0.4,5.7,1.7,6.1,4.6l0,0c0.4,3-1.7,5.7-4.6,6.1l0,0c-0.2,0-0.5,0.1-0.8,0.1l0,0C120.8,10.9,118.5,8.9,118.2,6.2z M139.6,10.8c-3-0.4-5-3.1-4.7-6.1l0,0c0.4-3,3.1-5,6.1-4.7l0,0l0,0l0,0c3,0.4,5,3.1,4.7,6.1l0,0c-0.4,2.7-2.7,4.7-5.4,4.7l0,0 C140.1,10.8,139.9,10.8,139.6,10.8z"></path> </g> <g class="st2"> <g> <path class="st3" d="M123.2,60.1c-1.5,0-2.8-1.2-2.8-2.8c0-1.5,1.2-2.8,2.8-2.8c1.5,0,2.8,1.2,2.8,2.8 C125.9,58.9,124.7,60.1,123.2,60.1 M123.2,57.1c-0.1,0-0.2,0.1-0.2,0.2c0,0.1,0.1,0.2,0.2,0.2c0.1,0,0.2-0.1,0.2-0.2 C123.4,57.2,123.3,57.1,123.2,57.1"></path> </g> <g> <path class="st3" d="M140.8,60.1c-1.5,0-2.8-1.2-2.8-2.8c0-1.5,1.2-2.8,2.8-2.8c1.5,0,2.8,1.2,2.8,2.8 C143.6,58.9,142.3,60.1,140.8,60.1 M140.8,57.1c-0.1,0-0.2,0.1-0.2,0.2c0,0.1,0.1,0.2,0.2,0.2c0.1,0,0.2-0.1,0.2-0.2 C141,57.2,140.9,57.1,140.8,57.1"></path> </g> <g> <g> <polygon class="st3" points="158,95.4 105.9,95.4 105.9,52.7 110.1,52.7 110.1,91.2 153.8,91.2 153.8,48.3 114.4,48.3 114.4,44.1 158,44.1 "></polygon> </g> <g> <path class="st3" d="M142.3,58.7h-3V42.3c0-4-3.3-7.3-7.3-7.3c-4,0-7.3,3.3-7.3,7.3v16.5h-3V42.3c0-5.7,4.6-10.3,10.3-10.3 c5.7,0,10.3,4.6,10.3,10.3V58.7z"></path> </g> <g> <rect x="120.4" y="54.6" class="st5" width="5.5" height="5.5"></rect> </g> <g> <rect x="138" y="54.6" class="st5" width="5.5" height="5.5"></rect> </g> <g> <path class="st3" d="M111.4,46.2c0,1.9-1.5,3.4-3.4,3.4c-1.9,0-3.4-1.5-3.4-3.4c0-1.9,1.5-3.4,3.4-3.4 C109.9,42.8,111.4,44.4,111.4,46.2"></path> </g> </g> </g> <g class="st2"> <path class="st3" d="M458.6,429.1c-0.3,0-0.6,0-0.8,0l0.1-6.7c3.6,0.1,7.2-0.3,10.7-0.9l1.2,6.6 C466.1,428.7,462.3,429.1,458.6,429.1z M445.7,427.7c-3.9-0.8-7.8-2.1-11.5-3.6l2.6-6.2c3.3,1.4,6.7,2.5,10.3,3.3L445.7,427.7z M481.4,424.7l-2.5-6.2c3.3-1.3,6.5-3,9.5-4.9l3.7,5.6C488.7,421.4,485.1,423.2,481.4,424.7z M423.7,418.2 c-3.3-2.3-6.4-4.9-9.2-7.8l-0.1-0.1l2-1.8l2.9-2.9l0.1,0.1v0c2.5,2.6,5.3,4.9,8.2,6.9L423.7,418.2z M501.5,411.7l-1.4-1.6 l-3.3-3.2l0.1-0.1h0c2.6-2.5,4.9-5.2,6.9-8.2l5.5,3.8c-2.3,3.3-4.9,6.4-7.7,9.2L501.5,411.7z M406.9,401c-2.2-3.4-4.1-7-5.6-10.7 l6.2-2.5c1.3,3.3,3,6.5,4.9,9.5L406.9,401z M515.1,391.8l-6.2-2.6c1.4-3.3,2.5-6.7,3.3-10.2l6.6,1.4 C518,384.3,516.7,388.2,515.1,391.8z M398,378.7c-0.7-3.7-1-7.5-1-11.2l0-0.8l6.7,0.1l0,0.7c0,3.4,0.3,6.7,0.9,10L398,378.7z M520.1,368.4l-6.7-0.1c0-0.3,0-0.5,0-0.8c0-3.3-0.3-6.7-0.9-9.9l6.6-1.2c0.7,3.7,1,7.4,1,11.2 C520.1,367.8,520.1,368.1,520.1,368.4z M404.9,356.1l-6.6-1.4c0.8-3.9,2.1-7.8,3.6-11.5l6.2,2.6 C406.7,349.1,405.6,352.6,404.9,356.1z M509.6,347.2c-1.3-3.3-3-6.5-4.9-9.6l5.6-3.6c2.2,3.4,4.1,7,5.5,10.7L509.6,347.2z M413.3,336.4l-5.5-3.8c2.3-3.3,4.9-6.4,7.8-9.2l0.1-0.1l4.7,4.8l-0.1,0.1C417.7,330.7,415.3,333.5,413.3,336.4z M498,329.3 c0,0-0.1-0.1-0.1-0.1c-2.5-2.5-5.2-4.8-8.1-6.8l3.8-5.5c3.3,2.3,6.3,4.8,9.1,7.7l0.1,0.1L498,329.3z M428.8,321.4l-3.6-5.6 c3.4-2.2,7-4.1,10.7-5.5l2.5,6.2C435,317.8,431.8,319.4,428.8,321.4z M480.3,317.1c-3.3-1.4-6.7-2.5-10.2-3.3l1.4-6.6 c3.9,0.8,7.8,2.1,11.5,3.7L480.3,317.1z M448.7,313.5l-1.2-6.6c4-0.7,8-1.1,12-1l-0.1,6.7C455.8,312.6,452.2,312.9,448.7,313.5z"></path> </g> <g> <g class="st2"> <g> <path class="st3" d="M459.8,382c-2.5,0-4.5-2.3-4.5-5.1c0-2.8,2.1-5.1,4.6-5.1c2.5,0,4.5,2.3,4.5,5.1 C464.3,379.7,462.3,382,459.8,382z M463,371l-6.3,0l-0.9-25.8l8.3,0L463,371z"></path> </g> </g> <g class="st2"> <polygon class="st3" points="494.9,388.7 423.6,388.5 454.9,334.7 458.2,336.6 430.2,384.7 488.3,384.9 460.7,336.7 464,334.7 "></polygon> </g> <g class="st2"> <circle class="st3" cx="459.4" cy="331.3" r="3.1"></circle> </g> </g> <g> <g> <g> <g> <rect x="343.1" y="8.8" class="st6" width="11.4" height="108.3"></rect> </g> <g> <rect x="343.1" y="319.3" class="st6" width="11.4" height="108.3"></rect> </g> <g> <rect x="445.7" y="216.7" transform="matrix(1 -1.892795e-03 1.892795e-03 1 -0.42 0.9465)" class="st6" width="108.3" height="11.4"></rect> </g> <g> <rect x="135.2" y="217.3" transform="matrix(1 -1.892795e-03 1.892795e-03 1 -0.4217 0.3589)" class="st6" width="108.3" height="11.4"></rect> </g> </g> </g> <g> <path class="st7" d="M346.6,407.1c-102,0-184.9-83-184.9-184.9c0-40.5,12.8-78.9,37.1-111.1l16,12c-21.6,28.7-33.1,63-33.1,99.1 c0,91,74,164.9,164.9,164.9s164.9-74,164.9-164.9c0-91-74-164.9-164.9-164.9c-31.7,0-62.5,9-89.1,26.1l-10.8-16.8 c29.8-19.2,64.3-29.3,99.9-29.3c102,0,184.9,83,184.9,184.9C531.6,324.1,448.6,407.1,346.6,407.1z"></path> </g> <g class="st2"> <path class="st3" d="M244.6,92c0,10.9-9.4,19.6-20.6,18.4c-8.5-0.9-15.4-7.7-16.3-16.2c-1.3-11.2,7.4-20.7,18.4-20.7 C236.3,73.5,244.6,81.8,244.6,92"></path> </g> </g> </g> </svg> 