<?xml version="1.0" encoding="UTF-8"?> <!-- Generator: Adobe Illustrator 23.0.3, SVG Export Plug-In . SVG Version: 6.00 Build 0) --> <svg xmlns="http://www.w3.org/2000/svg" xmlns:xlink="http://www.w3.org/1999/xlink" version="1.1" id="Layer_1" x="0px" y="0px" viewBox="0 0 671.3 412.7" style="enable-background:new 0 0 671.3 412.7;" xml:space="preserve"> <style type="text/css"> .st0{fill:#FDC603;} .st1{opacity:0.71;} .st2{fill:none;stroke:#FFFFFF;stroke-width:3.3015;stroke-miterlimit:10;} .st3{opacity:0.81;fill:#FFFFFF;enable-background:new ;} .st4{opacity:0.81;} .st5{fill:#FFFFFF;} .st6{fill:none;} </style> <g> <g> <g> <g> <path class="st0" d="M302.4,334.3c-1.8,0-3.3-1.7-3.3-3.7s1.5-3.7,3.3-3.7s3.3,1.7,3.3,3.7C305.7,332.6,304.2,334.3,302.4,334.3 z M304.8,326.2h-4.6l-0.7-18.8h6.1L304.8,326.2z"></path> </g> <g> <g> <polygon class="st0" points="329.1,339.3 274.7,339.3 298.4,298.1 301,299.6 279.7,336.4 324.1,336.4 302.9,299.6 305.4,298.2 "></polygon> </g> </g> <g> <g> <g> <circle class="st0" cx="301.9" cy="295.6" r="2.4"></circle> </g> </g> </g> </g> </g> <g> <g> <g> <g> <path class="st0" d="M360.2,255.3L360.2,255.3c-3,0-6-0.1-8.9-0.3l0.7-8.8c2.7,0.2,5.5,0.3,8.2,0.3l0,0c2.9,0,5.8-0.1,8.7-0.4 l0.7,8.8C366.5,255.1,363.4,255.3,360.2,255.3z M337.6,253c-6-1.2-11.9-2.9-17.7-5.1l3.1-8.2c5.3,2,10.7,3.6,16.3,4.7 L337.6,253z M383.3,252.9l-1.8-8.6c5.5-1.2,11-2.8,16.3-4.8l3.2,8.2C395.3,249.9,389.3,251.6,383.3,252.9z M307.4,242.2 c-5.4-2.9-10.6-6.2-15.5-9.9l5.3-7c4.5,3.4,9.3,6.5,14.3,9.1L307.4,242.2z M413.5,241.9l-4.2-7.8c5-2.7,9.8-5.8,14.2-9.2l5.4,7 C424.1,235.7,418.9,239,413.5,241.9z M281.5,223.3L281.5,223.3c-4.4-4.3-8.5-9-12.1-13.9l7.1-5.2c3.3,4.5,7.1,8.8,11.1,12.7 L281.5,223.3z M439.4,222.8l-6.2-6.3c0.5-0.5,1-1,1.5-1.5c3.5-3.5,6.7-7.4,9.6-11.3l7.1,5.2c-3.1,4.3-6.6,8.4-10.4,12.3 C440.5,221.8,439.9,222.3,439.4,222.8z M261.9,197.8c-3-5.3-5.6-11-7.7-16.7l8.3-3c1.9,5.3,4.3,10.5,7.1,15.4L261.9,197.8z M458.9,197.3l-7.7-4.3c2.7-4.9,5.1-10.1,7-15.4l8.3,3C464.4,186.3,461.8,192,458.9,197.3z M250.2,167.9 c-1.4-6-2.3-12.1-2.7-18.2l8.8-0.6c0.4,5.6,1.2,11.3,2.5,16.8L250.2,167.9z M470.3,167.3l-8.6-1.9c1.2-5.5,2-11.2,2.4-16.8 l8.8,0.5C472.5,155.2,471.7,161.4,470.3,167.3z M256.3,136.4l-8.8-0.5c0.4-6.1,1.2-12.2,2.6-18.2l8.6,1.9 C257.5,125.1,256.7,130.8,256.3,136.4z M464.1,135.9c-0.4-5.6-1.2-11.3-2.4-16.8l8.6-2c1.4,6,2.3,12.1,2.6,18.2L464.1,135.9z M262.2,107.4l-8.3-3c2.1-5.8,4.6-11.4,7.6-16.8l7.7,4.3C266.5,96.9,264.1,102.1,262.2,107.4z M458,106.9 c-1.9-5.3-4.3-10.5-7.1-15.4l7.7-4.3c3,5.3,5.6,11,7.7,16.7L458,106.9z M276.1,81.2L269,76c3.2-4.3,6.7-8.5,10.4-12.3 c0.5-0.5,1-1.1,1.6-1.6l6.2,6.3c-0.5,0.5-1,1-1.5,1.5C282.2,73.4,279,77.3,276.1,81.2z M444,80.8c-3.3-4.5-7.1-8.8-11.2-12.8 l6-6.4l0.1,0.1c4.4,4.3,8.4,8.9,12.1,13.8L444,80.8z M296.8,60l-5.4-7c4.9-3.7,10.1-7.1,15.4-10l4.2,7.8 C306,53.5,301.3,56.6,296.8,60z M423.1,59.6c-4.5-3.4-9.3-6.5-14.3-9.1l4.1-7.8c5.4,2.9,10.6,6.2,15.5,9.9L423.1,59.6z M322.6,45.5l-3.2-8.2c5.7-2.2,11.6-4,17.6-5.2l1.8,8.6C333.3,41.9,327.8,43.5,322.6,45.5z M397.3,45.3 c-5.3-2-10.7-3.6-16.3-4.7l1.7-8.6c6,1.2,12,2.9,17.7,5.1L397.3,45.3z M351.4,38.9l-0.7-8.8c3.2-0.3,6.4-0.4,9.5-0.4l0,0 c2.9,0,5.9,0.1,8.8,0.3l-0.7,8.8c-2.7-0.2-5.4-0.3-8.2-0.3l0,0C357.3,38.5,354.3,38.6,351.4,38.9z"></path> </g> <g class="st1"> <path class="st2" d="M257.3,215.6"></path> </g> </g> <g> <path class="st3" d="M349.4,177.1l-0.4-5.7c-1.3-11.9,2.5-25,13.2-38.2c9.6-11.7,14.9-20.3,14.9-30.3c0-11.3-6.8-18.8-20.2-19 c-7.6,0-16.1,2.7-21.5,6.9l-5.1-13.9c7-5.3,19.1-8.8,30.4-8.8c24.4,0,35.5,15.7,35.5,32.5c0,15-8.1,25.9-18.3,38.5 c-9.3,11.5-12.7,21.2-12.1,32.5l0.2,5.7h-16.6V177.1z M344.7,208c0-8.2,5.3-13.9,12.7-13.9c7.4,0,12.5,5.7,12.5,13.9 c0,7.7-4.9,13.7-12.7,13.7C349.8,221.7,344.7,215.8,344.7,208z"></path> </g> </g> <g> <g> <g> <g> <path class="st0" d="M559.6,394.2c-1.6-0.1-3.1-0.2-4.7-0.3l1.1-13.2c1.4,0.1,2.7,0.2,4.1,0.3L559.6,394.2z M571.4,394.1 l-0.9-13.2c1.4-0.1,2.7-0.2,4.1-0.4h0.2l1.5,13.1h-0.2C574.5,393.8,572.9,394,571.4,394.1z M543.3,392.3 c-1.5-0.3-3.1-0.6-4.6-1l3.1-12.8c1.3,0.3,2.7,0.6,4,0.9L543.3,392.3z M587.8,391.6l-2.9-12.9c1.3-0.3,2.7-0.6,4-1l3.5,12.7 C590.9,390.9,589.3,391.3,587.8,391.6z M527.4,387.9c-1.5-0.5-2.9-1.1-4.4-1.7l5-12.2c1.3,0.5,2.6,1,3.8,1.5L527.4,387.9z M603.5,386.8l-4.9-12.3c1.3-0.5,2.5-1,3.8-1.6l5.4,12.1C606.4,385.6,604.9,386.2,603.5,386.8z M512.5,381.2 c-1.4-0.8-2.7-1.5-4.1-2.3l6.8-11.3c1.2,0.7,2.4,1.4,3.6,2.1L512.5,381.2z M618.3,379.6l-6.7-11.4c1.2-0.7,2.4-1.4,3.5-2.2 l7.2,11.1C621,378,619.6,378.8,618.3,379.6z M498.7,372.2c-1.2-0.9-2.5-1.9-3.7-2.9l8.5-10.1c1,0.9,2.1,1.7,3.2,2.6 L498.7,372.2z M631.8,370.2l-8.3-10.2c1.1-0.9,2.1-1.8,3.1-2.7l8.8,9.9C634.2,368.2,633,369.2,631.8,370.2z M486.5,361.2 c-1.1-1.1-2.1-2.3-3.2-3.5l9.9-8.7c0.9,1,1.8,2,2.8,3L486.5,361.2z M643.6,358.9l-9.8-8.8c0.9-1,1.8-2.1,2.7-3.1l10.2,8.4 C645.7,356.6,644.7,357.7,643.6,358.9z M476,348.6c-0.9-1.3-1.8-2.6-2.6-3.9l11.1-7.1c0.7,1.1,1.5,2.3,2.3,3.4L476,348.6z M653.7,345.9l-11-7.3c0.8-1.1,1.5-2.3,2.2-3.5l11.3,6.8C655.4,343.3,654.5,344.6,653.7,345.9z M467.7,334.4 c-0.7-1.4-1.4-2.8-2-4.3l12.1-5.3c0.5,1.2,1.1,2.5,1.7,3.7L467.7,334.4z M661.6,331.5l-12-5.5c0.6-1.2,1.1-2.5,1.6-3.8l12.2,5 C662.9,328.6,662.3,330.1,661.6,331.5z M461.5,319.2c-0.5-1.5-0.9-3-1.3-4.5l12.8-3.4c0.3,1.3,0.7,2.6,1.1,4L461.5,319.2z M667.3,316.1l-12.7-3.6c0.4-1.3,0.7-2.7,1-4l12.9,3C668.1,313,667.7,314.6,667.3,316.1z M457.9,303.2 c-0.2-1.4-0.4-2.7-0.5-4.1l-0.1-0.6l13.1-1.4l0.1,0.5c0.1,1.2,0.3,2.4,0.5,3.6L457.9,303.2z M670.5,300l-13.1-1.6 c0.2-1.4,0.3-2.7,0.4-4.1l13.2,1C670.9,296.8,670.7,298.4,670.5,300z M469.8,286.8h-13.2c0-1.6,0-3.1,0.1-4.7l13.2,0.6 C469.9,284,469.8,285.4,469.8,286.8z M658.1,284c0-1.4-0.1-2.8-0.2-4.1l13.2-1c0.1,1.6,0.2,3.1,0.3,4.7L658.1,284z M470.9,272.4l-13-2c0.2-1.5,0.5-3.1,0.8-4.6l12.9,2.6C471.4,269.7,471.2,271.1,470.9,272.4z M656.5,269.6 c-0.2-1.3-0.5-2.7-0.8-4l12.9-3c0.4,1.5,0.7,3.1,1,4.6L656.5,269.6z M474.2,258.4l-12.6-4c0.5-1.5,1-3,1.5-4.5l12.4,4.6 C475.1,255.8,474.7,257.1,474.2,258.4z M652.8,255.7c-0.5-1.3-0.9-2.6-1.4-3.9l12.3-4.9c0.6,1.5,1.1,2.9,1.7,4.4L652.8,255.7z M479.7,245.1l-11.8-5.9c0.7-1.4,1.4-2.8,2.2-4.2l11.5,6.4C480.9,242.6,480.3,243.8,479.7,245.1z M647,242.5 c-0.6-1.2-1.3-2.4-2-3.6l11.4-6.7c0.8,1.3,1.6,2.7,2.3,4.1L647,242.5z M487.1,232.7l-10.8-7.6c0.9-1.3,1.8-2.5,2.8-3.8 l10.4,8.1C488.7,230.4,487.9,231.6,487.1,232.7z M639.2,230.4c-0.8-1.1-1.7-2.2-2.5-3.2l10.2-8.4c1,1.2,2,2.4,2.9,3.7 L639.2,230.4z M496.3,221.6l-9.5-9.2c1.1-1.1,2.2-2.2,3.3-3.3l9.1,9.6C498.2,219.6,497.2,220.6,496.3,221.6z M629.7,219.6 c-1-1-2-1.9-3-2.8l8.8-9.8c1.2,1,2.3,2.1,3.4,3.2L629.7,219.6z M507,212l-8-10.5c1.2-0.9,2.5-1.9,3.8-2.8l7.5,10.8 C509.2,210.4,508.1,211.2,507,212z M618.6,210.4c-1.1-0.8-2.3-1.6-3.4-2.3l7.2-11.1c1.3,0.9,2.6,1.7,3.9,2.6L618.6,210.4z M519.1,204.2l-6.3-11.6c1.4-0.7,2.8-1.5,4.2-2.1l5.8,11.9C521.5,202.9,520.3,203.5,519.1,204.2z M606.3,202.9 c-1.2-0.6-2.5-1.2-3.7-1.8l5.4-12c1.4,0.6,2.9,1.3,4.2,2L606.3,202.9z M532.3,198.3l-4.4-12.4c1.5-0.5,3-1,4.5-1.5l3.9,12.6 C534.9,197.4,533.5,197.9,532.3,198.3z M593,197.4c-1.3-0.4-2.6-0.8-3.9-1.2l3.5-12.7c1.5,0.4,3,0.9,4.5,1.4L593,197.4z M546.2,194.5l-2.5-13c1.5-0.3,3.1-0.6,4.6-0.8l1.9,13.1C548.9,194.1,547.5,194.3,546.2,194.5z M579,194 c-1.4-0.2-2.7-0.4-4.1-0.6l1.5-13.1c1.5,0.2,3.1,0.4,4.7,0.6L579,194z M560.5,192.9l-0.5-13.2c1.4-0.1,2.7-0.1,4.1-0.1h0.6 l-0.1,13.2h-0.5l0,0C562.9,192.8,561.7,192.9,560.5,192.9z"></path> </g> </g> <g class="st1"> <path class="st2" d="M478.3,211.6"></path> </g> </g> <g class="st4"> <g class="st4"> <polygon class="st5" points="603.8,212.9 520.2,275.1 579,288.4 520.2,361.9 626.2,277.7 564.5,265.8 "></polygon> </g> </g> </g> <g> <g> <g> <path class="st0" d="M117.5,370.4c0-2.7,2.1-5,4.9-5l0,0c2.7,0,5,2.1,5,4.9l0,0c0,2.7-2.1,5-4.9,5l0,0c0,0,0,0-0.1,0l0,0 C119.7,375.3,117.5,373.1,117.5,370.4z M105.3,374.2c-2.7-0.4-4.6-2.8-4.3-5.5l0,0c0.4-2.7,2.9-4.6,5.6-4.3l0,0 c2.7,0.4,4.6,2.8,4.3,5.6l0,0c-0.3,2.5-2.4,4.3-4.9,4.3l0,0C105.7,374.3,105.5,374.3,105.3,374.2z M134,369.7 c-0.4-2.7,1.4-5.2,4.1-5.7l0,0l0,0l0,0c2.7-0.4,5.2,1.4,5.7,4.1l0,0c0.4,2.7-1.4,5.2-4.1,5.7l0,0c-0.3,0-0.5,0.1-0.8,0.1l0,0 C136.5,373.9,134.3,372.1,134,369.7z M88.5,370.8c-2.6-0.7-4.2-3.5-3.4-6.1l0,0c0.7-2.6,3.5-4.2,6.1-3.4l0,0l0,0l0,0 c2.6,0.7,4.2,3.5,3.4,6.1l0,0c-0.6,2.2-2.6,3.6-4.8,3.6l0,0C89.4,371,88.9,370.9,88.5,370.8z M150.2,366.6 c-0.8-2.6,0.6-5.4,3.3-6.2l0,0l0,0l0,0c2.6-0.8,5.4,0.7,6.2,3.3l0,0c0.8,2.6-0.7,5.4-3.3,6.2l0,0c-0.5,0.1-1,0.2-1.5,0.2l0,0 C152.8,370.1,150.8,368.8,150.2,366.6z M72.3,365L72.3,365c-2.5-1.1-3.6-4-2.5-6.5l0,0c1.1-2.5,4-3.6,6.5-2.6l0,0 c2.5,1.1,3.6,4,2.5,6.5l0,0c-0.8,1.9-2.6,3-4.5,3l0,0C73.6,365.5,72.9,365.3,72.3,365z M165.8,361.3c-1.2-2.5-0.1-5.4,2.4-6.6 l0,0l0,0l0,0c2.5-1.2,5.4-0.1,6.6,2.4l0,0c1.2,2.5,0.1,5.4-2.4,6.6l0,0c-0.7,0.3-1.4,0.5-2.1,0.5l0,0 C168.4,364.2,166.7,363.1,165.8,361.3z M57,357c-2.3-1.5-3-4.5-1.6-6.8l0,0c1.4-2.3,4.5-3,6.8-1.6l0,0c2.3,1.4,3,4.5,1.6,6.8 l0,0c-0.9,1.5-2.6,2.3-4.2,2.3l0,0C58.8,357.8,57.9,357.5,57,357z M180.5,353.9c-1.5-2.3-0.9-5.4,1.4-6.9l0,0 c2.3-1.5,5.4-0.9,6.9,1.4l0,0c1.5,2.3,0.9,5.4-1.4,6.9l0,0c-0.8,0.6-1.8,0.8-2.7,0.8l0,0C183.1,356.1,181.5,355.3,180.5,353.9z M43.1,346.9c-2.1-1.8-2.4-4.9-0.6-7l0,0c1.8-2.1,4.9-2.4,7-0.6l0,0c2.1,1.8,2.4,4.9,0.6,7l0,0c-1,1.2-2.4,1.8-3.8,1.8l0,0 C45.2,348.1,44.1,347.7,43.1,346.9z M194.1,344.4c-1.8-2-1.6-5.2,0.4-7l0,0c2-1.8,5.2-1.6,7,0.4l0,0c1.8,2,1.6,5.2-0.4,7l0,0 c-1,0.8-2.1,1.2-3.3,1.2l0,0C196.4,346.1,195,345.5,194.1,344.4z M30.8,335c-1.8-2-1.6-5.2,0.4-7l0,0c2-1.8,5.2-1.6,7,0.4l0,0 c1.8,2,1.6,5.2-0.4,7l0,0c-1,0.9-2.1,1.3-3.3,1.3l0,0C33.1,336.6,31.8,336.1,30.8,335z M206.1,333.1c-2.1-1.8-2.3-4.9-0.6-7 l0,0c1.8-2.1,4.9-2.3,7-0.6l0,0c2.1,1.8,2.3,4.9,0.6,7l0,0c-1,1.2-2.4,1.8-3.8,1.8l0,0C208.2,334.3,207,333.9,206.1,333.1z M20.3,321.4c-1.5-2.3-0.9-5.4,1.4-6.9l0,0c2.3-1.5,5.4-0.9,6.9,1.4l0,0l0,0l0,0c1.5,2.3,0.9,5.4-1.4,6.9l0,0 c-0.8,0.6-1.8,0.8-2.7,0.8l0,0C22.8,323.6,21.2,322.8,20.3,321.4z M216.4,320.2c-2.3-1.5-3-4.5-1.6-6.8l0,0l0,0l0,0 c1.5-2.3,4.5-3,6.8-1.6l0,0c2.3,1.5,3,4.5,1.6,6.8l0,0c-0.9,1.5-2.6,2.3-4.2,2.3l0,0C218.1,321,217.2,320.7,216.4,320.2z M11.8,306.4c-1.2-2.5-0.1-5.4,2.3-6.6l0,0c2.5-1.2,5.4-0.1,6.6,2.3l0,0c1.2,2.5,0.1,5.4-2.3,6.6l0,0c-0.7,0.3-1.4,0.5-2.1,0.5 l0,0C14.4,309.2,12.6,308.2,11.8,306.4z M224.8,306c-2.5-1.1-3.6-4-2.5-6.5l0,0c1.1-2.5,4-3.6,6.5-2.5l0,0 c2.5,1.1,3.6,4,2.5,6.5l0,0c-0.8,1.8-2.6,2.9-4.5,2.9l0,0C226.1,306.4,225.4,306.3,224.8,306z M5.5,290.4 c-0.8-2.6,0.6-5.4,3.2-6.2l0,0c2.6-0.8,5.4,0.6,6.2,3.2l0,0l0,0l0,0c0.8,2.6-0.6,5.4-3.2,6.2l0,0c-0.5,0.1-1,0.2-1.5,0.2l0,0 C8.1,293.9,6.2,292.5,5.5,290.4z M231,290.7c-2.6-0.7-4.2-3.5-3.4-6.1l0,0c0.8-2.6,3.5-4.2,6.1-3.4l0,0 c2.6,0.8,4.2,3.5,3.4,6.1l0,0c-0.6,2.2-2.6,3.6-4.8,3.6l0,0C231.9,290.9,231.5,290.8,231,290.7z M1.5,273.7L1.5,273.7 c-0.4-2.7,1.4-5.2,4.1-5.7l0,0c2.7-0.4,5.2,1.4,5.7,4.1l0,0c0.4,2.7-1.4,5.2-4.1,5.7l0,0c-0.3,0-0.5,0.1-0.8,0.1l0,0 C4,277.8,1.9,276.1,1.5,273.7z M235.1,274.7c-2.7-0.4-4.6-2.9-4.2-5.6l0,0c0.4-2.7,2.9-4.6,5.6-4.2l0,0 c2.7,0.4,4.6,2.9,4.2,5.6l0,0c-0.3,2.5-2.5,4.3-4.9,4.3l0,0C235.5,274.8,235.3,274.7,235.1,274.7z M0,256.5L0,256.5 c-0.1-2.7,2.1-5,4.9-5l0,0c2.7-0.1,5,2.1,5,4.9l0,0c0,2.7-2.1,5-4.9,5l0,0H4.9l0,0C2.3,261.4,0,259.2,0,256.5z M231.8,253.4 c0-2.7,2.2-5,4.9-5l0,0c2.7,0,5,2.2,5,4.9l0,0c0,2.7-2.2,5-4.9,5l0,0l0,0l0,0C234.1,258.3,231.9,256.1,231.8,253.4z M5.2,244.9 c-2.7-0.4-4.6-2.8-4.3-5.5l0,0c0.3-2.7,2.8-4.6,5.5-4.3l0,0c2.7,0.4,4.6,2.8,4.3,5.5l0,0l0,0l0,0c-0.3,2.5-2.5,4.3-4.9,4.3l0,0 C5.6,244.9,5.4,244.9,5.2,244.9z M230.6,237.6c-0.4-2.7,1.4-5.2,4.1-5.6l0,0c2.7-0.4,5.2,1.4,5.6,4.1l0,0 c0.4,2.7-1.4,5.2-4.1,5.6l0,0c-0.2,0-0.5,0.1-0.8,0.1l0,0C233,241.9,230.9,240.1,230.6,237.6z M7.8,228.6 c-2.6-0.7-4.2-3.5-3.5-6.1l0,0c0.1-0.3,0.2-0.7,0.4-1l0,0c0-0.3,0.1-0.7,0.2-1.1l0,0c0.8-2.6,3.5-4.1,6.1-3.4l0,0 c2.6,0.8,4.1,3.5,3.4,6.1l0,0c-0.1,0.3-0.2,0.6-0.4,0.9l0,0c0,0.3-0.1,0.6-0.2,1l0,0l0,0l0,0c-0.6,2.2-2.6,3.6-4.8,3.6l0,0 C8.6,228.8,8.2,228.7,7.8,228.6z M227.1,222.3c-0.8-2.6,0.7-5.4,3.3-6.2l0,0c2.6-0.8,5.4,0.7,6.2,3.3l0,0 c0.8,2.6-0.7,5.4-3.3,6.2l0,0c-0.5,0.1-1,0.2-1.4,0.2l0,0C229.7,225.8,227.7,224.4,227.1,222.3z M13.3,210.9 c-2.5-1.1-3.6-4.1-2.5-6.6l0,0c1.1-2.5,4.1-3.6,6.6-2.5l0,0c2.5,1.1,3.6,4.1,2.5,6.5l0,0c-0.8,1.8-2.6,2.9-4.5,2.9l0,0 C14.7,211.3,14,211.2,13.3,210.9z M221.4,207.5c-1.2-2.5-0.1-5.4,2.4-6.6l0,0c2.5-1.2,5.4-0.1,6.6,2.4l0,0 c1.2,2.5,0.1,5.4-2.4,6.6l0,0c-0.7,0.3-1.4,0.5-2.1,0.5l0,0C224,210.4,222.3,209.3,221.4,207.5z M20.6,196 c-2.3-1.5-3-4.5-1.5-6.8l0,0c1.5-2.3,4.5-3,6.8-1.5l0,0c2.3,1.5,3,4.5,1.5,6.8l0,0c-0.9,1.5-2.5,2.3-4.2,2.3l0,0 C22.3,196.8,21.4,196.6,20.6,196z M213.7,193.7c-1.5-2.3-0.9-5.4,1.4-6.8l0,0c2.3-1.5,5.4-0.9,6.9,1.4l0,0 c1.5,2.3,0.9,5.4-1.4,6.9l0,0c-0.8,0.5-1.8,0.8-2.7,0.8l0,0C216.3,196,214.7,195.2,213.7,193.7z M29.9,182.4 c-2.1-1.8-2.3-4.9-0.5-7l0,0c1.8-2.1,4.9-2.3,7-0.5l0,0c2.1,1.8,2.3,4.9,0.5,7l0,0c-1,1.1-2.4,1.7-3.8,1.7l0,0 C31.9,183.6,30.8,183.2,29.9,182.4z M204.2,181.1c-1.8-2.1-1.6-5.2,0.5-7l0,0c2-1.8,5.2-1.6,7,0.4l0,0c1.8,2,1.6,5.2-0.5,7l0,0 c-0.9,0.8-2.1,1.2-3.3,1.2l0,0C206.5,182.8,205.2,182.2,204.2,181.1z M41,170.2c-1.8-2.1-1.6-5.2,0.5-7l0,0 c2.1-1.8,5.2-1.6,7,0.5l0,0c1.8,2.1,1.6,5.2-0.5,7l0,0c-0.9,0.8-2.1,1.2-3.2,1.2l0,0C43.3,171.9,42,171.4,41,170.2z M193,170 c-2.1-1.8-2.3-4.9-0.5-7l0,0c1.8-2.1,4.9-2.3,7-0.5l0,0c2.1,1.8,2.3,4.9,0.5,7l0,0c-1,1.2-2.4,1.7-3.8,1.7l0,0 C195.1,171.2,193.9,170.8,193,170z M53.8,159.8c-1.5-2.3-0.8-5.4,1.5-6.8l0,0c2.3-1.5,5.4-0.8,6.8,1.5l0,0 c1.5,2.3,0.8,5.4-1.5,6.9l0,0c-0.8,0.5-1.8,0.8-2.7,0.8l0,0C56.3,162,54.7,161.2,53.8,159.8z M180.3,160.7 c-2.3-1.5-3-4.5-1.5-6.8l0,0c1.5-2.3,4.5-3,6.8-1.5l0,0c2.3,1.5,3,4.5,1.5,6.8l0,0c-0.9,1.5-2.5,2.3-4.2,2.3l0,0 C182,161.4,181.1,161.2,180.3,160.7z M67.9,151.2c-1.1-2.5-0.1-5.4,2.4-6.6l0,0c2.5-1.1,5.4-0.1,6.6,2.4l0,0 c1.1,2.5,0.1,5.4-2.4,6.6l0,0c-0.7,0.3-1.4,0.4-2.1,0.4l0,0C70.5,154.1,68.7,153,67.9,151.2z M166.4,153.2 c-2.5-1.1-3.6-4-2.5-6.5l0,0c1.1-2.5,4.1-3.6,6.5-2.5l0,0c2.5,1.1,3.6,4,2.5,6.5l0,0c-0.8,1.8-2.6,2.9-4.5,2.9l0,0 C167.7,153.6,167,153.5,166.4,153.2z M83,144.7c-0.8-2.6,0.7-5.4,3.3-6.2l0,0c2.6-0.8,5.4,0.7,6.2,3.3l0,0 c0.8,2.6-0.7,5.4-3.3,6.2l0,0l0,0l0,0c-0.5,0.1-0.9,0.2-1.4,0.2l0,0C85.7,148.2,83.7,146.9,83,144.7z M151.6,147.8 c-2.6-0.8-4.1-3.5-3.4-6.1l0,0c0.8-2.6,3.5-4.2,6.1-3.4l0,0c2.6,0.8,4.1,3.5,3.4,6.1l0,0c-0.6,2.2-2.6,3.6-4.8,3.6l0,0 C152.5,148,152,147.9,151.6,147.8z M99,140.4c-0.4-2.7,1.5-5.2,4.2-5.6l0,0c2.7-0.4,5.2,1.5,5.6,4.2l0,0 c0.4,2.7-1.5,5.2-4.2,5.6l0,0c-0.2,0-0.5,0.1-0.7,0.1l0,0C101.5,144.7,99.4,142.9,99,140.4z M136.1,144.5 c-2.7-0.4-4.6-2.9-4.2-5.6l0,0c0.4-2.7,2.9-4.6,5.6-4.2l0,0c2.7,0.4,4.6,2.9,4.2,5.6l0,0c-0.3,2.5-2.5,4.3-4.9,4.3l0,0 C136.6,144.5,136.3,144.5,136.1,144.5z M115.4,138.5c0-2.7,2.2-5,4.9-5l0,0c2.7,0,5,2.2,5,4.9l0,0c0,2.7-2.2,5-4.9,5l0,0l0,0 l0,0l0,0l0,0C117.6,143.4,115.4,141.2,115.4,138.5z"></path> </g> <g class="st1"> <path class="st2" d="M233.1,197.6"></path> </g> </g> <g class="st4"> <g> <path class="st5" d="M102.4,236.8c-3.2,0-5.9-2.6-5.9-5.9c0-3.2,2.6-5.9,5.9-5.9c3.2,0,5.9,2.6,5.9,5.9 S105.6,236.8,102.4,236.8 M102.4,230.5c-0.3,0-0.5,0.2-0.5,0.5s0.2,0.5,0.5,0.5s0.5-0.2,0.5-0.5S102.7,230.5,102.4,230.5"></path> </g> <g> <path class="st5" d="M139.8,236.8c-3.2,0-5.9-2.6-5.9-5.9c0-3.2,2.6-5.9,5.9-5.9c3.2,0,5.9,2.6,5.9,5.9 S143.1,236.8,139.8,236.8 M139.8,230.5c-0.3,0-0.5,0.2-0.5,0.5s0.2,0.5,0.5,0.5s0.5-0.2,0.5-0.5 C140.4,230.7,140.1,230.5,139.8,230.5"></path> </g> <g> <g> <polygon class="st5" points="176.4,311.7 65.8,311.7 65.8,221 74.7,221 74.7,302.8 167.4,302.8 167.4,211.8 83.8,211.8 83.8,202.9 176.4,202.9 "></polygon> </g> <g> <path class="st5" d="M143,233.9h-6.4V199c0-8.6-7-15.5-15.5-15.5s-15.5,7-15.5,15.5v34.9h-6.4V199c0-12.1,9.8-21.9,21.9-21.9 S143,186.9,143,199V233.9z"></path> </g> <g> <rect x="96.5" y="225.1" class="st6" width="11.7" height="11.7"></rect> </g> <g> <rect x="134" y="225.1" class="st6" width="11.7" height="11.7"></rect> </g> <g> <path class="st5" d="M77.5,207.4c0,4-3.2,7.2-7.2,7.2s-7.2-3.2-7.2-7.2s3.2-7.2,7.2-7.2C74.2,200.2,77.5,203.4,77.5,207.4"></path> </g> </g> </g> </g> <g> <g> <g> <g class="st4"> <polygon class="st5" points="227.9,103.7 144.1,103.7 144.1,54.3 149.9,54.3 149.9,98 222.2,98 222.2,49 155.2,49 155.2,43.3 227.9,43.3 "></polygon> </g> <g class="st4"> <path class="st5" d="M151.6,46.1c0,2.6-2.1,4.6-4.6,4.6c-2.6,0-4.6-2.1-4.6-4.6c0-2.6,2.1-4.6,4.6-4.6 C149.6,41.5,151.6,43.6,151.6,46.1"></path> </g> <g class="st4"> <rect x="169.2" y="109.2" class="st5" width="33.2" height="7.5"></rect> </g> </g> </g> </g> <g> <g> <g> <g class="st4"> <polygon class="st5" points="441,394.1 321.1,394.1 321.1,323.4 329.2,323.4 329.2,385.9 432.8,385.9 432.8,315.7 336.9,315.7 336.9,307.5 441,307.5 "></polygon> </g> <g class="st4"> <path class="st5" d="M331.8,311.6c0,3.7-3,6.6-6.6,6.6c-3.7,0-6.6-3-6.6-6.6c0-3.7,3-6.6,6.6-6.6S331.8,308,331.8,311.6"></path> </g> <g class="st4"> <rect x="356.9" y="402" class="st5" width="47.6" height="10.7"></rect> </g> </g> </g> </g> <g> <g> <g> <g> <g> <path class="st0" d="M587.8,114.9c-0.4,0-0.8,0-1.3,0l0.3-7.7c1.3,0.1,2.6,0,3.9-0.1h0.1l0.9,7.7h-0.1 C590.4,114.8,589.1,114.9,587.8,114.9z M577.9,113.4c-1.6-0.5-3.2-1.1-4.7-1.9l3.4-6.9c1.2,0.6,2.4,1.1,3.6,1.4L577.9,113.4z M600.2,112.5l-2.9-7.1c1.2-0.5,2.3-1.1,3.5-1.7l3.9,6.6C603.3,111.2,601.8,111.9,600.2,112.5z M566,106.6 c-1.2-1.1-2.4-2.3-3.5-3.6l5.9-4.9c0.8,1,1.7,1.9,2.7,2.8L566,106.6z M611.6,104.9l-5.5-5.4c0.9-0.9,1.7-1.9,2.5-3l6.3,4.5 C613.9,102.4,612.8,103.7,611.6,104.9z M557.8,95.6c-0.7-1.5-1.3-3.1-1.7-4.7l7.4-2.1c0.3,1.2,0.8,2.4,1.3,3.6L557.8,95.6z M618.9,93.2l-7.2-2.7c0.4-1.2,0.8-2.5,1-3.7l7.6,1.5C620,90,619.5,91.7,618.9,93.2z M554.8,82.2v-0.3c0-1.6,0.1-3.1,0.3-4.7 l7.6,1.1c-0.2,1.2-0.3,2.4-0.3,3.6v0.3H554.8z M613.2,80.2c0-0.4-0.1-0.8-0.1-1.1c-0.1-0.9-0.3-1.8-0.4-2.7l7.5-1.7 c0.3,1.1,0.5,2.3,0.6,3.5c0.1,0.5,0.1,1,0.1,1.5L613.2,80.2z M564.6,71.8l-7.1-3.1c0.7-1.5,1.5-3,2.4-4.4l6.5,4.1 C565.8,69.5,565.2,70.6,564.6,71.8z M610.3,70c-0.6-1.1-1.3-2.2-2.1-3.3l6.2-4.6c1,1.3,1.9,2.8,2.7,4.2L610.3,70z M570.8,63.2l-5.2-5.7c1.2-1.1,2.6-2.2,3.9-3.1l4.3,6.4C572.7,61.5,571.7,62.3,570.8,63.2z M603.5,62c-1-0.8-2.1-1.5-3.2-2.1 l3.8-6.7c1.5,0.8,2.9,1.8,4.2,2.8L603.5,62z M579.8,57.9l-2.4-7.3c1.6-0.5,3.2-0.9,4.9-1.2l1.3,7.6 C582.3,57.1,581,57.4,579.8,57.9z M594.1,57.3c-1.2-0.3-2.5-0.5-3.8-0.7L591,49c1.7,0.2,3.3,0.4,5,0.9L594.1,57.3z"></path> </g> </g> <g class="st1"> <path class="st2" d="M563.1,60"></path> </g> </g> <g class="st4"> <g> <path class="st5" d="M588.3,95.4c-1.8,0-3.3-1.7-3.3-3.7s1.5-3.7,3.3-3.7s3.3,1.7,3.3,3.7C591.5,93.8,590.1,95.4,588.3,95.4z M590.6,85.2H586l-0.7-18.8h6.1L590.6,85.2z"></path> </g> </g> </g> <g class="st4"> <g> <path class="st5" d="M546.5,116.1c-15.5,0-28.1-12.6-28.1-28.1c0-2.9,0.4-5.7,1.3-8.4l7.6,2.4c-0.6,1.9-0.9,4-0.9,6 c0,11.1,9,20.1,20.1,20.1s20.1-9,20.1-20.1s-9-20.1-20.1-20.1c-1.6,0-3.1,0.2-4.7,0.5l-1.8-7.8c2.1-0.5,4.3-0.8,6.5-0.8 c15.5,0,28.1,12.6,28.1,28.1S562,116.1,546.5,116.1"></path> </g> <g> <path class="st5" d="M588.4,166.1h-83.7v-4c0-23.1,18.8-41.9,41.9-41.9c23.1,0,41.9,18.8,41.9,41.9v4H588.4z M512.8,158.1h67.3 c-2-16.8-16.3-29.9-33.6-29.9C529.2,128.2,514.8,141.3,512.8,158.1"></path> </g> <g> <path class="st5" d="M530.1,63.9c3.6,0,6.5,2.9,6.5,6.5s-2.9,6.5-6.5,6.5s-6.5-2.9-6.5-6.5S526.5,63.9,530.1,63.9"></path> </g> </g> </g> </g> <g> <g> <g> <path class="st0" d="M115.2,65c-2.9,0-5.3-2.7-5.3-5.9s2.4-5.9,5.3-5.9c2.8,0,5.2,2.6,5.2,5.9C120.4,62.4,118.1,65,115.2,65z M118.9,52.3h-7.3l-1.2-29.7h9.6L118.9,52.3z"></path> </g> <g> <g> <polygon class="st0" points="157.5,73 71.2,73 108.9,7.8 112.9,10.1 79.2,68.4 149.4,68.4 115.9,10.2 119.9,7.9 "></polygon> </g> </g> <g> <g> <g> <circle class="st0" cx="114.3" cy="3.8" r="3.8"></circle> </g> </g> </g> </g> </g> </g> </svg> 