<?xml version="1.0" encoding="UTF-8"?> <!-- Generator: Adobe Illustrator 24.0.2, SVG Export Plug-In . SVG Version: 6.00 Build 0) --> <svg xmlns="http://www.w3.org/2000/svg" xmlns:xlink="http://www.w3.org/1999/xlink" id="Layer_1" x="0px" y="0px" viewBox="0 0 192.8 144.9" style="enable-background:new 0 0 192.8 144.9;" xml:space="preserve"> <style type="text/css"> .st0{opacity:0.81;fill:#FFFFFF;} .st1{fill:#FFA500;} </style> <g> <polygon class="st0" points="177.6,129 3.5,129 3.5,26.2 14.7,26.2 14.7,117.7 166.3,117.7 166.3,14.7 26.2,14.7 26.2,3.5 177.6,3.5 "></polygon> <path class="st1" d="M18.2,9.1c0,5-4.1,9.1-9.1,9.1c-5,0-9.1-4.1-9.1-9.1C0,4.1,4.1,0,9.1,0C14.2,0,18.2,4.1,18.2,9.1"></path> <polygon class="st0" points="192.8,144.9 26,144.9 26,136.8 184.8,136.8 184.8,26.6 192.8,26.6 "></polygon> <polygon class="st0" points="154,109 120.7,75.8 102.7,93.8 99.8,91.1 63.8,55.1 30.5,88.4 24.8,82.7 63.8,43.7 102.6,82.5 120.7,64.4 159.7,103.3 "></polygon> <path class="st0" d="M138.3,58c-10,0-18.1-8.1-18.1-18.1c0-10,8.1-18.1,18.1-18.1c10,0,18.1,8.1,18.1,18.1 C156.3,49.9,148.2,58,138.3,58 M138.3,29.9c-5.5,0-10,4.5-10,10c0,5.5,4.5,10,10,10c5.5,0,10-4.5,10-10 C148.3,34.4,143.8,29.9,138.3,29.9"></path> </g> </svg> 