<?xml version="1.0" encoding="UTF-8"?> <!-- Generator: Adobe Illustrator 24.0.2, SVG Export Plug-In . SVG Version: 6.00 Build 0) --> <svg xmlns="http://www.w3.org/2000/svg" xmlns:xlink="http://www.w3.org/1999/xlink" id="Layer_1" x="0px" y="0px" viewBox="0 0 181.3 171.7" style="enable-background:new 0 0 181.3 171.7;" xml:space="preserve"> <style type="text/css"> .st0{opacity:0.81;fill:#FFFFFF;} .st1{fill:#FFA500;} </style> <g> <path class="st0" d="M181.3,163.9l-43.6-43.6c9-12.5,14.3-27.8,14.3-44.3c0-41.9-34.1-76-76-76C62.2,0,48.7,3.8,36.9,10.8l5.7,9.5 c10.1-6.1,21.6-9.3,33.4-9.3c35.8,0,64.9,29.1,64.9,64.9c0,35.8-29.1,64.9-64.9,64.9c-35.8,0-64.9-29.1-64.9-64.9 c0-12.9,3.8-25.3,10.9-36l-9.2-6.1C4.4,46.4,0,61,0,76c0,41.9,34.1,76,76,76c21.4,0,40.8-8.9,54.6-23.2l42.9,42.9L181.3,163.9z"></path> <path class="st1" d="M35.8,24.6c0,5-4,9-9,9c-5,0-9-4-9-9c0-5,4-9,9-9C31.8,15.6,35.8,19.6,35.8,24.6"></path> <polygon class="st0" points="62,58 62,48.4 92.3,48.4 92.3,58 82.5,58 82.5,108.7 71.8,108.7 71.8,58 "></polygon> </g> </svg> 