<?xml version="1.0" encoding="UTF-8"?> <!-- Generator: Adobe Illustrator 24.0.2, SVG Export Plug-In . SVG Version: 6.00 Build 0) --> <svg xmlns="http://www.w3.org/2000/svg" xmlns:xlink="http://www.w3.org/1999/xlink" id="Layer_1" x="0px" y="0px" viewBox="0 0 159.6 147.1" style="enable-background:new 0 0 159.6 147.1;" xml:space="preserve"> <style type="text/css"> .st0{opacity:0.81;} .st1{fill:#FFFFFF;} .st2{fill:#FFC800;} </style> <g> <g class="st0"> <rect x="80" y="137" class="st1" width="79.6" height="10"></rect> </g> <g class="st0"> <polygon class="st1" points="142.6,54.8 136.9,60.4 93.8,17.2 88.7,22.3 131.9,65.5 113.3,84 63.7,34.4 76,22.1 68.9,15 45.9,38 53,45.1 58.6,39.5 78.8,59.7 0,137 7,144.1 85.9,66.8 108.2,89.1 102.6,94.7 109.7,101.8 149.6,61.9 "></polygon> </g> <g> <g> <g> <circle class="st2" cx="82.5" cy="8.5" r="8.1"></circle> <path class="st2" d="M82.5,17c-4.7,0-8.5-3.8-8.5-8.5C74,3.8,77.8,0,82.5,0S91,3.8,91,8.5C91,13.2,87.2,17,82.5,17z M82.5,0.8 c-4.3,0-7.8,3.5-7.8,7.8s3.5,7.8,7.8,7.8s7.8-3.5,7.8-7.8S86.8,0.8,82.5,0.8z"></path> </g> </g> </g> </g> </svg> 