<?xml version="1.0" encoding="UTF-8"?> <!-- Generator: Adobe Illustrator 24.0.2, SVG Export Plug-In . SVG Version: 6.00 Build 0) --> <svg xmlns="http://www.w3.org/2000/svg" xmlns:xlink="http://www.w3.org/1999/xlink" id="Layer_1" x="0px" y="0px" viewBox="0 0 355.6 171.8" style="enable-background:new 0 0 355.6 171.8;" xml:space="preserve"> <style type="text/css"> .st0{fill:#FFA500;} .st1{fill:none;stroke:#FFFFFF;stroke-width:10.332;stroke-miterlimit:10;} .st2{opacity:0.81;} .st3{fill:#FFFFFF;} </style> <g> <g> <g> <g> <circle class="st0" cx="29.2" cy="28.4" r="9.1"></circle> </g> </g> </g> <g> <path class="st1" d="M164.2,65.9"></path> </g> <g> <path class="st1" d="M191.4,105.9"></path> </g> <g class="st2"> <path class="st3" d="M269.7,0c-37,0-68.7,23.4-80.7,56.5h11.1c11.5-27.2,38.4-46.2,69.6-46.2c41.7,0,75.6,33.9,75.6,75.6 s-33.9,75.6-75.6,75.6c-18.2,0-35.7-6.5-49.4-18.4c-13.6-11.7-22.6-27.9-25.3-45.5l-0.7-4.4h-43.4v-6.5l-9.4,5l-11.9,6.3 l21.3,11.3v-5.7h34.7c3.8,18.3,13.6,35,27.9,47.4c15.6,13.5,35.5,20.9,56.2,20.9c47.4,0,85.9-38.5,85.9-85.9S317.1,0,269.7,0z"></path> </g> <g> <g class="st2"> <polygon class="st3" points="120.5,112.3 48.9,112.3 48.9,108.8 117,108.8 117,61.5 120.5,61.5 "></polygon> </g> <g class="st2"> <polygon class="st3" points="103.8,96.9 89.6,82.6 81.8,90.3 80.6,89.2 65.1,73.7 50.8,88 48.4,85.6 65.1,68.8 81.8,85.5 89.6,77.7 106.3,94.4 "></polygon> </g> <g class="st2"> <path class="st3" d="M97.1,75c-4.3,0-7.7-3.5-7.7-7.7c0-4.3,3.5-7.7,7.7-7.7c4.3,0,7.8,3.5,7.8,7.7C104.8,71.5,101.3,75,97.1,75 M97.1,62.9c-2.4,0-4.3,1.9-4.3,4.3c0,2.4,1.9,4.3,4.3,4.3c2.4,0,4.3-1.9,4.3-4.3C101.4,64.9,99.4,62.9,97.1,62.9"></path> </g> <g class="st2"> <path class="st3" d="M114,105.3H39.3V51.6H114V105.3z M44,100.6h65.2V56.4H44V100.6z"></path> </g> </g> <g> <g class="st2"> <polygon class="st3" points="313.6,112.3 242,112.3 242,108.8 310.1,108.8 310.1,61.5 313.6,61.5 "></polygon> </g> <g class="st2"> <polygon class="st3" points="296.9,96.9 282.6,82.6 274.9,90.3 273.6,89.2 258.2,73.7 243.9,88 241.5,85.6 258.2,68.8 274.9,85.5 282.6,77.7 299.4,94.4 "></polygon> </g> <g class="st2"> <path class="st3" d="M290.2,75c-4.3,0-7.7-3.5-7.7-7.7c0-4.3,3.5-7.7,7.7-7.7c4.3,0,7.8,3.5,7.8,7.7 C297.9,71.5,294.4,75,290.2,75 M290.2,62.9c-2.4,0-4.3,1.9-4.3,4.3c0,2.4,1.9,4.3,4.3,4.3c2.4,0,4.3-1.9,4.3-4.3 C294.5,64.9,292.5,62.9,290.2,62.9"></path> </g> <g class="st2"> <path class="st3" d="M307.1,105.3h-74.7V51.6h74.7V105.3z M237.1,100.6h65.2V56.4h-65.2V100.6z"></path> </g> </g> <g class="st2"> <g> <path class="st3" d="M85.9,161.5c-41.7,0-75.6-33.9-75.6-75.6c0-15.3,4.6-29.5,12.4-41.3L14,39C5.2,52.5,0,68.6,0,85.9 c0,47.4,38.5,85.9,85.9,85.9c37,0,68.7-23.5,80.8-56.6h-11.1C144.1,142.5,117.2,161.5,85.9,161.5z"></path> </g> <g> <path class="st3" d="M204.7,62.7v5.7H170c-3.8-18.3-13.6-35-27.9-47.4C126.5,7.4,106.6,0,85.9,0C69.2,0,53.5,4.8,40.3,13.2 l5.3,8.9c11.7-7.4,25.5-11.7,40.4-11.7c18.2,0,35.7,6.5,49.4,18.4c13.6,11.7,22.6,27.9,25.3,45.5l0.7,4.4h43.4v6.5l9.4-5 l11.9-6.3L204.7,62.7z"></path> </g> </g> </g> </svg> 