<?xml version="1.0" encoding="UTF-8"?> <svg xmlns="http://www.w3.org/2000/svg" id="Layer_1" data-name="Layer 1" viewBox="0 0 107.27 107.27"><defs><style>.cls-1{fill:#009ca6;}.cls-2{fill:#ffb000;}</style></defs><title>Network Analysis Icon_Teal_RGB</title><rect class="cls-1" x="79.61" y="70.51" width="5" height="23.88" transform="translate(-80.69 35.39) rotate(-45)"></rect><rect class="cls-1" x="121.43" y="107.11" width="5" height="34.3" transform="translate(-98.01 77.2) rotate(-45)"></rect><rect class="cls-1" x="51.17" y="2.79" width="5" height="36.45"></rect><rect class="cls-1" x="51.17" y="67.79" width="5" height="36.7"></rect><path class="cls-2" d="M66.15,60.6a5.67,5.67,0,1,1-5.67,5.67,5.67,5.67,0,0,1,5.67-5.67" transform="translate(-46.44 -46.82)"></path><circle class="cls-1" cx="53.64" cy="5.63" r="5.63"></circle><circle class="cls-1" cx="53.64" cy="101.65" r="5.63"></circle><rect class="cls-1" x="58.75" y="120.98" width="36.52" height="5" transform="translate(-111.2 43.8) rotate(-45)"></rect><rect class="cls-1" x="105.1" y="74.79" width="36.21" height="5" transform="translate(-65 62.93) rotate(-45)"></rect><circle class="cls-1" cx="19.69" cy="87.58" r="5.63"></circle><circle class="cls-1" cx="87.58" cy="19.69" r="5.63"></circle><circle class="cls-1" cx="87.58" cy="87.58" r="5.63"></circle><rect class="cls-1" x="2.79" y="51.1" width="36.16" height="5"></rect><rect class="cls-1" x="67.83" y="51.1" width="36.65" height="5"></rect><circle class="cls-1" cx="5.63" cy="53.64" r="5.63"></circle><circle class="cls-1" cx="101.65" cy="53.64" r="5.63"></circle><path class="cls-1" d="M100.1,118.1a17.67,17.67,0,1,1,12.5-5.17A17.61,17.61,0,0,1,100.1,118.1Zm0-28.33a10.67,10.67,0,1,0,7.55,3.12A10.65,10.65,0,0,0,100.1,89.77Z" transform="translate(-46.44 -46.82)"></path></svg> 