<?xml version="1.0" encoding="UTF-8"?> <!-- Generator: Adobe Illustrator 24.0.2, SVG Export Plug-In . SVG Version: 6.00 Build 0) --> <svg xmlns="http://www.w3.org/2000/svg" xmlns:xlink="http://www.w3.org/1999/xlink" id="Layer_1" x="0px" y="0px" viewBox="0 0 490.8 459.3" style="enable-background:new 0 0 490.8 459.3;" xml:space="preserve"> <style type="text/css"> .st0{opacity:0.71;} .st1{fill:none;stroke:#FFFFFF;stroke-width:3.1528;stroke-miterlimit:10;} .st2{opacity:0.81;} .st3{fill:#2B5985;} .st4{fill:#FDC603;} .st5{fill:#FFFFFF;} .st6{fill:#FFC800;} </style> <g> <g class="st0"> <path class="st1" d="M115.2,330.6"></path> </g> <g class="st0"> <path class="st1" d="M168.3,300.1"></path> </g> <g class="st2"> <path class="st1" d="M149.7,285.9"></path> </g> <g class="st2"> <path class="st1" d="M110.3,325"></path> </g> <g class="st0"> <path class="st1" d="M427.5,299.5"></path> </g> <g class="st0"> <path class="st1" d="M474.2,335.2"></path> </g> <g class="st0"> <path class="st1" d="M25.9,183"></path> </g> <g class="st2"> <path class="st1" d="M24,183.1"></path> </g> <g class="st2"> <path class="st1" d="M92,188.6"></path> </g> <g class="st2"> <path class="st1" d="M150,246.2"></path> </g> <g class="st2"> <path class="st1" d="M286.8,281.9"></path> </g> <g class="st2"> <path class="st1" d="M335.7,329.9"></path> </g> <g class="st0"> <path class="st1" d="M360.2,167.3"></path> </g> <g class="st0"> <path class="st1" d="M281.9,226.3"></path> </g> <g class="st0"> <path class="st1" d="M284.3,296.8"></path> </g> <g class="st0"> <path class="st1" d="M334.6,337.2"></path> </g> <g class="st0"> <path class="st1" d="M466.9,309.6"></path> </g> <g class="st0"> <path class="st1" d="M425.4,341.1"></path> </g> <g class="st2"> <path class="st1" d="M366.4,174.9"></path> </g> <g class="st2"> <path class="st1" d="M288.5,252"></path> </g> <g class="st2"> <path class="st1" d="M463.6,295.4"></path> </g> <g class="st2"> <path class="st1" d="M424.1,334.4"></path> </g> <g> <circle class="st3" cx="186.9" cy="56.8" r="56.8"></circle> </g> <g> <circle class="st3" cx="186.6" cy="57.7" r="43.4"></circle> <path class="st4" d="M187.6,101.2c-0.2-2,1.2-3.8,3.3-4l0,0c2-0.2,3.8,1.2,4,3.3l0,0c0.2,2-1.3,3.8-3.3,4l0,0c-0.1,0-0.3,0-0.4,0 l0,0C189.4,104.5,187.8,103.1,187.6,101.2z M174.7,103.2c-2-0.5-3.1-2.5-2.6-4.5l0,0c0.5-2,2.5-3.1,4.5-2.6l0,0 c2,0.5,3.1,2.5,2.6,4.5l0,0c-0.4,1.6-1.9,2.8-3.5,2.8l0,0C175.3,103.3,175,103.3,174.7,103.2z M203,98c-0.9-1.8-0.2-4,1.6-4.9l0,0 c1.8-0.9,4-0.2,4.9,1.6l0,0c0.9,1.8,0.2,4-1.6,5l0,0c-0.5,0.3-1.1,0.4-1.7,0.4l0,0C204.9,100.1,203.6,99.3,203,98z M159.3,96 c-1.6-1.2-2-3.5-0.9-5.1l0,0c1.2-1.7,3.5-2,5.1-0.8l0,0c1.6,1.2,2,3.5,0.8,5.1l0,0c-0.7,1-1.8,1.5-3,1.5l0,0 C160.7,96.6,159.9,96.4,159.3,96z M216.2,89.6c-1.5-1.4-1.6-3.7-0.2-5.2l0,0c1.4-1.5,3.7-1.6,5.2-0.2l0,0c1.5,1.4,1.6,3.7,0.2,5.2 l0,0c-0.7,0.8-1.7,1.2-2.7,1.2l0,0C217.8,90.6,216.9,90.2,216.2,89.6z M147.4,83.7L147.4,83.7L147.4,83.7c-1.1-1.7-0.7-4,1-5.1 l0,0c1.7-1.1,4-0.7,5.1,1l0,0c1.1,1.7,0.7,4-1,5.1l0,0c-0.6,0.4-1.3,0.6-2,0.6l0,0C149.3,85.4,148.2,84.8,147.4,83.7z M225.7,77 c-1.9-0.7-2.8-2.9-2.1-4.8l0,0c0.8-1.9,2.9-2.8,4.8-2.1l0,0c1.9,0.7,2.8,2.9,2.1,4.8l0,0l0,0l0,0c-0.6,1.5-2,2.3-3.4,2.3l0,0 C226.6,77.3,226.1,77.2,225.7,77z M140.7,68.1c-0.5-2,0.8-4,2.8-4.4l0,0c2-0.5,3.9,0.8,4.4,2.8l0,0c0.5,2-0.8,4-2.8,4.4l0,0 c-0.3,0.1-0.5,0.1-0.8,0.1l0,0C142.6,71,141.1,69.8,140.7,68.1z M230,61.9c-2,0-3.7-1.7-3.6-3.7l0,0c0-2,1.7-3.7,3.7-3.6l0,0 c2,0,3.6,1.7,3.6,3.7l0,0C233.7,60.3,232,61.9,230,61.9L230,61.9C230,61.9,230,61.9,230,61.9z M143.2,55.3c-2-0.3-3.4-2.1-3.1-4.2 l0,0c0.3-2,2.1-3.4,4.1-3.1l0,0c2,0.3,3.4,2.1,3.1,4.2l0,0c-0.3,1.8-1.8,3.2-3.6,3.2l0,0C143.5,55.3,143.3,55.3,143.2,55.3z M224,44c-0.7-1.9,0.3-4,2.2-4.7l0,0c1.9-0.7,4,0.3,4.7,2.2l0,0l0,0l0,0c0.7,1.9-0.3,4-2.2,4.7l0,0c-0.4,0.2-0.8,0.2-1.3,0.2l0,0 C225.9,46.4,224.5,45.5,224,44z M146.8,40c-1.8-1-2.4-3.2-1.5-5l0,0l0,0l0,0c1-1.8,3.2-2.4,5-1.5l0,0c1.8,1,2.4,3.2,1.4,5l0,0 c-0.7,1.2-1.9,1.9-3.2,1.9l0,0C148,40.4,147.4,40.3,146.8,40z M216.7,31.7L216.7,31.7c-1.3-1.5-1.2-3.9,0.4-5.2l0,0 c1.5-1.3,3.9-1.2,5.2,0.4l0,0c1.3,1.5,1.2,3.8-0.4,5.2l0,0c-0.7,0.6-1.6,0.9-2.4,0.9l0,0C218.4,32.9,217.4,32.5,216.7,31.7z M155.7,27c-1.3-1.5-1.1-3.9,0.4-5.2l0,0l0,0l0,0c1.5-1.3,3.9-1.1,5.2,0.4l0,0c1.3,1.5,1.1,3.9-0.4,5.2l0,0 c-0.7,0.6-1.5,0.9-2.4,0.9l0,0C157.5,28.3,156.4,27.8,155.7,27z M205.5,22.7c-1.8-1-2.4-3.2-1.5-5l0,0c1-1.8,3.2-2.5,5-1.5l0,0 c1.8,1,2.5,3.2,1.5,5l0,0c-0.7,1.2-1.9,1.9-3.2,1.9l0,0C206.6,23.1,206,23,205.5,22.7z M168.6,18c-0.7-1.9,0.3-4,2.2-4.7l0,0 c1.9-0.7,4,0.3,4.7,2.2l0,0c0.7,1.9-0.3,4-2.2,4.7l0,0c-0.4,0.1-0.8,0.2-1.2,0.2l0,0C170.6,20.4,169.1,19.5,168.6,18z M191.8,18.3 L191.8,18.3c-0.8-0.1-1.6-0.5-2.1-1l0,0c-0.6,0.5-1.4,0.7-2.2,0.7l0,0c-2,0-3.6-1.7-3.6-3.8l0,0c0-2,1.7-3.6,3.8-3.6l0,0l0,0l0,0 c1,0,1.9,0.4,2.5,1.1l0,0c0.7-0.5,1.7-0.8,2.6-0.7l0,0c2,0.3,3.4,2.1,3.2,4.1l0,0c-0.2,1.8-1.8,3.2-3.6,3.2l0,0 C192.2,18.3,192,18.3,191.8,18.3z"></path> </g> <g> <circle class="st3" cx="397.9" cy="125.2" r="59.9"></circle> </g> <g> <g> <circle class="st3" cx="397.8" cy="125.2" r="44"></circle> </g> <g> <path class="st4" d="M399.2,171.8l-0.2-5.3c3.4-0.1,6.8-0.6,10.1-1.5l1.4,5.1C406.8,171.1,403,171.7,399.2,171.8z M391.2,171.4 c-3.8-0.5-7.5-1.6-11.1-3l2-4.9c3.1,1.3,6.4,2.2,9.8,2.7L391.2,171.4z M418,167.3l-2.3-4.7c3.1-1.5,5.9-3.3,8.5-5.5l3.4,4 C424.7,163.5,421.5,165.6,418,167.3z M373,164.7c-2.8-1.7-5.3-3.8-7.7-6.1c-0.4-0.4-0.8-0.8-1.2-1.2l3.8-3.6c0.3,0.4,0.7,0.7,1,1 c2.1,2,4.4,3.9,6.8,5.4L373,164.7z M433.4,155.4l-4-3.4c2.2-2.6,4.1-5.5,5.6-8.5l4.7,2.3C438,149.3,435.9,152.5,433.4,155.4z M359.1,151.2c-2.1-3.2-3.9-6.6-5.2-10.2l4.9-1.8c1.1,3.2,2.7,6.3,4.6,9.1L359.1,151.2z M442.6,138.4l-5-1.5 c1-3.3,1.5-6.6,1.6-10l5.3,0.2C444.3,130.9,443.7,134.7,442.6,138.4z M351.9,133.2c-0.5-2.6-0.7-5.3-0.7-8c0-1.2,0-2.3,0.1-3.5 l5.2,0.4c-0.1,1-0.1,2.1-0.1,3.1c0,2.4,0.2,4.7,0.6,7.1L351.9,133.2z M438.8,119.7c-0.4-3.4-1.3-6.7-2.6-9.8l4.9-1.9 c1.4,3.6,2.4,7.3,2.9,11.1L438.8,119.7z M357.7,115.1l-5.1-1.3c0.9-3.7,2.3-7.3,4.1-10.7l4.6,2.5 C359.8,108.6,358.6,111.8,357.7,115.1z M433.1,103.5c-1.8-2.9-3.9-5.5-6.4-7.9l3.6-3.9l0.2,0.2c2.7,2.6,5.1,5.7,7.1,8.9 L433.1,103.5z M365.3,99.7l-4.1-3.2c1-1.3,2.1-2.6,3.3-3.7c1.5-1.5,3.1-3,4.8-4.3l3.2,4.2c-1.5,1.2-3,2.5-4.3,3.8 C367.2,97.4,366.2,98.5,365.3,99.7z M421.1,91c-2.8-1.9-5.8-3.5-9-4.6l1.8-4.9c3.6,1.3,7,3.1,10.2,5.2L421.1,91z M378.5,88.6 l-2.5-4.6c3.4-1.8,7-3.2,10.7-4.1L388,85C384.7,85.8,381.5,87,378.5,88.6z M405.2,84.5c-3.3-0.6-6.8-0.8-10.2-0.6l-0.4-5.2 c3.8-0.3,7.7,0,11.4,0.6L405.2,84.5z"></path> </g> </g> <g class="st2"> <g> <path class="st5" d="M398.2,125c-8,0-14.6-6.5-14.6-14.6c0-1.5,0.2-3,0.7-4.4l4,1.2c-0.3,1-0.5,2.1-0.5,3.1 c0,5.8,4.7,10.4,10.4,10.4c5.8,0,10.4-4.7,10.4-10.4c0-5.8-4.7-10.4-10.4-10.4c-0.8,0-1.6,0.1-2.4,0.3l-1-4 c1.1-0.3,2.2-0.4,3.4-0.4c8,0,14.6,6.5,14.6,14.6S406.2,125,398.2,125"></path> </g> <g> <path class="st5" d="M419.9,151h-43.5v-2.1c0-12,9.7-21.7,21.7-21.7c12,0,21.7,9.7,21.7,21.7V151z M380.7,146.8h34.9 c-1-8.7-8.5-15.5-17.5-15.5C389.2,131.3,381.7,138.1,380.7,146.8"></path> </g> <g> <path class="st5" d="M389.7,97.9c1.9,0,3.4,1.5,3.4,3.4c0,1.9-1.5,3.4-3.4,3.4c-1.9,0-3.4-1.5-3.4-3.4 C386.3,99.4,387.8,97.9,389.7,97.9"></path> </g> </g> <g> <circle class="st3" cx="438.5" cy="254.5" r="52.2"></circle> </g> <g> <g> <circle class="st3" cx="438.9" cy="255" r="36.4"></circle> </g> <g> <path class="st4" d="M440.7,294l-0.2-5.2c3.2-0.1,6.4-0.8,9.4-1.8l1.7,5C448.1,293.2,444.5,293.9,440.7,294z M433,293.6 c-3.7-0.6-7.2-1.6-10.6-3.2l2.2-4.8c2.9,1.4,6,2.3,9.2,2.8L433,293.6z M458.7,288.7l-2.7-4.5c2.4-1.4,4.5-3.1,6.5-5 c0.3-0.3,0.7-0.7,1-1l3.8,3.6c-0.4,0.4-0.7,0.8-1.1,1.1C463.9,285.2,461.4,287.1,458.7,288.7z M415.7,286.5 c-1.7-1.3-3.3-2.7-4.8-4.2c-1.1-1.1-2.1-2.3-3.1-3.6l4.2-3.2c0.8,1.1,1.7,2.1,2.7,3.1c1.3,1.3,2.7,2.5,4.1,3.6L415.7,286.5z M472.1,275.7l-4.5-2.8c1.7-2.7,3-5.7,3.9-8.8l5.1,1.4C475.5,269.2,474,272.6,472.1,275.7z M403.8,272.1 c-1.6-3.3-2.8-6.9-3.4-10.5l5.2-0.9c0.5,3.2,1.5,6.2,2.9,9.1L403.8,272.1z M477.9,257.9l-5.2-0.4c0.1-0.8,0.1-1.7,0.1-2.5 c0-2.4-0.2-4.7-0.7-7l5.1-1.1c0.6,2.7,0.8,5.4,0.8,8.1C478,256,478,257,477.9,257.9z M405.1,254l-5.3-0.2 c0.1-3.7,0.8-7.4,1.9-10.9l5,1.6C405.8,247.6,405.2,250.8,405.1,254z M470,241.6c-1.3-2.9-3-5.7-5-8.2l4-3.4 c2.4,2.9,4.3,6,5.8,9.4L470,241.6z M409.5,238.4l-4.6-2.6c1.8-3.2,4.1-6.2,6.8-8.8l0.1-0.1l3.6,3.8l-0.1,0.1 C413,233.1,411,235.6,409.5,238.4z M460.2,228.7c-2.5-2-5.3-3.7-8.2-4.9l2-4.9c3.4,1.4,6.6,3.3,9.5,5.7L460.2,228.7z M420.6,226.6l-2.8-4.4c3.1-2,6.5-3.6,10.1-4.6l1.5,5C426.3,223.5,423.3,224.8,420.6,226.6z M445.5,221.8 c-3.1-0.6-6.4-0.8-9.6-0.5l-0.5-5.2c3.7-0.3,7.4-0.1,11,0.6L445.5,221.8z"></path> </g> </g> <g> <circle class="st3" cx="328.3" cy="394.6" r="64.7"></circle> </g> <g> <g> <g> <circle class="st3" cx="328.7" cy="394.8" r="51.6"></circle> </g> <g> <path class="st4" d="M330.4,451.1l-0.3-9.5c1.3,0,2.5-0.1,3.8-0.3c0,0,0.1,0,0.1,0l1.2,9.4l-0.2,0 C333.5,450.9,332,451,330.4,451.1z M322.4,450.8c-1.5-0.2-3-0.4-4.5-0.7l1.8-9.3c1.2,0.2,2.5,0.4,3.8,0.6L322.4,450.8z M343.1,449.2l-2.4-9.1c1.2-0.3,2.5-0.7,3.6-1.1l3.2,8.9C346.1,448.4,344.6,448.8,343.1,449.2z M310.1,448 c-1.4-0.5-2.9-1.1-4.3-1.7l3.8-8.6c1.2,0.5,2.4,1,3.5,1.4L310.1,448z M354.9,444.7l-4.4-8.4c1.1-0.6,2.2-1.2,3.3-1.9l5.1,8 C357.6,443.2,356.2,444,354.9,444.7z M298.8,442.5c-1.3-0.8-2.6-1.7-3.8-2.6l5.7-7.6c1,0.8,2.1,1.5,3.2,2.2L298.8,442.5z M365.3,437.6l-6.2-7.2c1-0.8,1.9-1.7,2.8-2.6l6.7,6.7C367.6,435.6,366.4,436.6,365.3,437.6z M288.9,434.7 c-1.1-1.1-2.1-2.2-3.1-3.4l7.2-6.1c0.8,1,1.7,1.9,2.6,2.8L288.9,434.7z M373.9,428.4l-7.6-5.6c0.8-1,1.5-2.1,2.2-3.2l8,5 C375.6,425.9,374.8,427.2,373.9,428.4z M281.1,424.8c-0.8-1.3-1.6-2.6-2.3-4l8.4-4.4c0.6,1.1,1.2,2.2,1.9,3.3L281.1,424.8z M380.2,417.5l-8.7-3.8c0.5-1.2,1-2.4,1.4-3.6l8.9,3.1C381.4,414.7,380.8,416.1,380.2,417.5z M275.6,413.5 c-0.5-1.4-1-2.9-1.3-4.4l9.2-2.4c0.3,1.2,0.7,2.5,1.1,3.7L275.6,413.5z M384,405.5l-9.3-1.8c0.2-1.2,0.4-2.5,0.6-3.8l9.4,1 C384.5,402.5,384.3,404,384,405.5z M272.8,401.3l0-0.1c-0.2-1.5-0.3-3-0.3-4.5l9.5-0.3c0,1.3,0.1,2.5,0.3,3.8c0,0,0,0.1,0,0.1 l-3.4,0.3L272.8,401.3z M375.5,393.2c0-1.2-0.1-2.5-0.3-3.7l0-0.2l9.4-1.1l0,0.1c0.2,1.5,0.3,3,0.3,4.4L375.5,393.2z M282.1,389.7l-9.4-1c0.2-1.5,0.4-3,0.7-4.5l9.3,1.8C282.5,387.1,282.3,388.4,282.1,389.7z M374,382.9c-0.3-1.2-0.7-2.5-1.1-3.6 l8.9-3.1c0.5,1.4,1,2.9,1.3,4.4L374,382.9z M284.5,379.4l-8.9-3.1c0.5-1.4,1.1-2.9,1.7-4.3l8.6,3.8 C285.3,377,284.9,378.2,284.5,379.4z M370.2,373.1c-0.6-1.1-1.2-2.2-1.9-3.3l8-5.1c0.8,1.3,1.6,2.6,2.3,4L370.2,373.1z M289,370 l-8-5c0.8-1.3,1.7-2.6,2.6-3.8l7.6,5.7C290.4,367.9,289.7,368.9,289,370z M364.3,364.4c-0.8-1-1.7-1.9-2.6-2.8l6.7-6.7 c1.1,1.1,2.1,2.2,3.1,3.4L364.3,364.4z M295.5,361.8l-6.7-6.7c1.1-1.1,2.2-2.1,3.4-3.1l6.1,7.2 C297.4,360,296.4,360.9,295.5,361.8z M356.6,357.3c-1-0.8-2.1-1.5-3.2-2.2l5-8c1.3,0.8,2.6,1.7,3.8,2.6L356.6,357.3z M303.7,355.2l-5.1-8c1.3-0.8,2.6-1.6,4-2.3l4.4,8.4C305.9,353.9,304.8,354.5,303.7,355.2z M347.6,352c-1.2-0.5-2.4-1-3.6-1.4 l3.1-8.9c1.4,0.5,2.9,1.1,4.3,1.7L347.6,352z M313.1,350.7l-3.1-8.9c1.4-0.5,2.9-1,4.4-1.3l2.4,9.2 C315.5,349.9,314.3,350.2,313.1,350.7z M337.6,348.8c-1.2-0.2-2.5-0.4-3.8-0.6l1-9.4c1.5,0.2,3,0.4,4.5,0.7L337.6,348.8z M323.4,348.3l-1.2-9.4l0.1,0c1.5-0.2,3-0.3,4.5-0.3l0.3,9.5C325.9,348.1,324.7,348.2,323.4,348.3z"></path> </g> </g> </g> <g> <circle class="st3" cx="63.8" cy="349.8" r="63.8"></circle> </g> <g> <circle class="st3" cx="64" cy="350.2" r="51"></circle> <path class="st4" d="M61.1,401.3c0-2,1.6-3.7,3.6-3.7l0,0c2,0,3.7,1.6,3.7,3.6l0,0c0,2-1.6,3.7-3.6,3.7l0,0c0,0,0,0-0.1,0l0,0 C62.8,404.9,61.1,403.3,61.1,401.3z M48.2,402.6c-2-0.6-3.1-2.6-2.5-4.6l0,0c0.6-1.9,2.6-3,4.6-2.5l0,0c1.9,0.6,3,2.6,2.5,4.6l0,0 c-0.5,1.6-1.9,2.6-3.5,2.6l0,0C48.9,402.7,48.5,402.7,48.2,402.6z M76.8,399.8c-0.7-1.9,0.4-4,2.3-4.7l0,0l0,0l0,0 c1.9-0.7,4,0.4,4.7,2.3l0,0c0.6,1.9-0.4,4-2.3,4.7l0,0c-0.4,0.1-0.8,0.2-1.2,0.2l0,0C78.7,402.3,77.3,401.3,76.8,399.8z M33,395.3 L33,395.3c-1.7-1.2-2.1-3.4-1-5.1l0,0c1.1-1.7,3.4-2.1,5.1-1l0,0c1.7,1.2,2.1,3.4,1,5.1l0,0c-0.7,1-1.9,1.6-3,1.6l0,0 C34.4,395.9,33.6,395.7,33,395.3z M91.2,393.5c-1.2-1.6-0.8-3.9,0.8-5.1l0,0c1.6-1.2,3.9-0.8,5.1,0.8l0,0c1.2,1.6,0.8,3.9-0.8,5.1 l0,0c-0.7,0.5-1.4,0.7-2.2,0.7l0,0C93.1,395,92,394.5,91.2,393.5z M20.8,383.7c-1.2-1.6-1-3.9,0.6-5.2l0,0 c1.6-1.2,3.9-0.9,5.2,0.7l0,0l0,0l0,0c1.2,1.6,0.9,3.9-0.7,5.2l0,0c-0.7,0.5-1.5,0.8-2.2,0.8l0,0 C22.6,385.2,21.5,384.7,20.8,383.7z M103.1,383.2c-1.6-1.2-2-3.5-0.8-5.1l0,0c1.2-1.6,3.5-2,5.1-0.8l0,0c1.6,1.2,2,3.5,0.8,5.1 l0,0c-0.7,1-1.8,1.5-3,1.5l0,0C104.5,383.9,103.8,383.7,103.1,383.2z M12.6,369L12.6,369c-0.7-1.9,0.3-4,2.2-4.7l0,0 c1.9-0.7,4,0.3,4.7,2.2l0,0c0.7,1.9-0.3,4-2.2,4.7l0,0c-0.4,0.2-0.8,0.2-1.3,0.2l0,0C14.6,371.4,13.2,370.5,12.6,369z M111.3,369.8c-1.9-0.6-3-2.7-2.3-4.6l0,0c0.6-1.9,2.7-3,4.7-2.3l0,0c1.9,0.6,3,2.7,2.3,4.7l0,0c-0.5,1.5-1.9,2.5-3.5,2.5l0,0 C112.1,370,111.7,369.9,111.3,369.8z M9.3,352.5L9.3,352.5c-0.1-2,1.5-3.8,3.5-3.8l0,0c2-0.1,3.7,1.5,3.8,3.5l0,0l0,0l0,0 c0.1,2-1.5,3.7-3.5,3.8l0,0c-0.1,0-0.1,0-0.2,0l0,0C11.1,356,9.4,354.5,9.3,352.5z M115,354.5c-2,0-3.7-1.7-3.6-3.7l0,0 c0-2,1.7-3.7,3.7-3.6l0,0c2,0,3.7,1.7,3.6,3.7l0,0C118.7,352.9,117.1,354.5,115,354.5L115,354.5C115,354.5,115,354.5,115,354.5z M13.8,340.3c-2-0.5-3.1-2.6-2.6-4.5l0,0c0.3-1.1,1.1-2,2.1-2.4l0,0c-0.5-0.9-0.6-2.1-0.2-3.1v0c0.7-1.9,2.9-2.8,4.8-2.1l0,0 c1.9,0.7,2.8,2.9,2.1,4.8l0,0l0,0l0,0c-0.4,0.9-1.1,1.6-1.9,2l0,0c0.5,0.8,0.6,1.8,0.3,2.8l0,0c-0.5,1.6-1.9,2.7-3.6,2.7l0,0 C14.5,340.4,14.2,340.4,13.8,340.3z M109.3,336.3C109.3,336.3,109.3,336.3,109.3,336.3L109.3,336.3c-0.6-1.9,0.5-4,2.4-4.6l0,0 c1.9-0.6,4,0.5,4.6,2.4l0,0c0.6,1.9-0.5,4-2.4,4.6l0,0c-0.4,0.1-0.7,0.2-1.1,0.2l0,0C111.2,338.9,109.8,337.9,109.3,336.3z M102.9,323.2c-1.2-1.7-0.7-4,0.9-5.1l0,0c1.7-1.2,4-0.7,5.1,0.9l0,0c1.1,1.7,0.7,4-0.9,5.1l0,0c-0.6,0.4-1.4,0.7-2.1,0.7l0,0 C104.8,324.8,103.6,324.3,102.9,323.2z M22.1,320.9c-1.6-1.3-1.8-3.6-0.5-5.2l0,0c1.3-1.6,3.6-1.8,5.2-0.5l0,0 c1.6,1.3,1.8,3.6,0.5,5.2l0,0c0,0,0,0,0,0l0,0c-0.7,0.9-1.8,1.4-2.9,1.4l0,0C23.6,321.7,22.8,321.4,22.1,320.9z M92.9,312.7 c-1.6-1.2-1.9-3.6-0.7-5.2l0,0c1.2-1.6,3.5-1.9,5.2-0.7l0,0c1.6,1.2,1.9,3.5,0.7,5.2l0,0c-0.7,0.9-1.8,1.4-2.9,1.4l0,0 C94.4,313.4,93.6,313.2,92.9,312.7z M33,309.5c-1.1-1.7-0.6-4,1.1-5.1l0,0c1.7-1.1,4-0.6,5.1,1.1l0,0c1.1,1.7,0.6,4-1.1,5.1l0,0 c-0.6,0.4-1.3,0.6-2,0.6l0,0C34.9,311.2,33.7,310.6,33,309.5z M80.1,305.7L80.1,305.7L80.1,305.7c-1.9-0.7-2.9-2.8-2.2-4.7l0,0 c0.7-1.9,2.8-2.9,4.7-2.2l0,0c1.9,0.7,2.9,2.8,2.2,4.7l0,0c-0.5,1.5-2,2.4-3.5,2.4l0,0C81,305.9,80.5,305.8,80.1,305.7z M46.8,302 c-0.5-2,0.6-4,2.6-4.5l0,0c2-0.5,4,0.6,4.5,2.5l0,0c0.5,2-0.6,4-2.6,4.5l0,0c-0.3,0.1-0.7,0.1-1,0.1l0,0 C48.8,304.7,47.3,303.6,46.8,302z M65.8,302.9c-2-0.1-3.6-1.8-3.5-3.8l0,0c0.1-2,1.8-3.6,3.8-3.5l0,0c2,0.1,3.6,1.8,3.5,3.8l0,0 c-0.1,2-1.7,3.5-3.7,3.5l0,0C65.9,302.9,65.9,302.9,65.8,302.9z"></path> </g> <g> <ellipse class="st3" cx="56" cy="151.7" rx="46.7" ry="47.3"></ellipse> </g> <g> <g> <g> <circle class="st3" cx="56.1" cy="151.4" r="34"></circle> </g> <g> <path class="st4" d="M54.1,188.5c-1.6-0.1-3.1-0.3-4.7-0.6l1.1-6.2c1.3,0.2,2.6,0.4,3.9,0.5L54.1,188.5z M62.3,188.1l-1.1-6.2 c1.3-0.2,2.6-0.5,3.8-0.9l1.8,6C65.4,187.4,63.8,187.8,62.3,188.1z M41.5,185.6c-1.4-0.6-2.9-1.3-4.2-2.1l3.2-5.4 c1.1,0.7,2.3,1.2,3.5,1.8L41.5,185.6z M74.4,183.7l-3.1-5.5c1.1-0.6,2.2-1.4,3.3-2.1l3.8,5C77.1,182.1,75.8,183,74.4,183.7z M30.7,178.6c-1.1-1.1-2.2-2.2-3.2-3.4l4.9-4c0.8,1,1.7,2,2.7,2.8L30.7,178.6z M84.4,175.5l-4.8-4.1c0.8-1,1.6-2,2.3-3.1 l5.3,3.4C86.3,173,85.4,174.3,84.4,175.5z M22.9,168.3c-0.7-1.4-1.3-2.9-1.9-4.3l5.9-2.1c0.4,1.2,1,2.4,1.6,3.6L22.9,168.3z M90.9,164.4l-5.9-2.2c0.4-1.2,0.8-2.5,1.1-3.7l6.2,1.3l0,0.1C91.9,161.4,91.4,162.9,90.9,164.4z M19.2,156 c-0.2-1.5-0.3-3-0.3-4.5l0-0.2l6.3,0l0,0.2c0,1.2,0.1,2.5,0.2,3.7L19.2,156z M93.2,151.6l-6.3-0.1l0-0.1c0-1.3-0.1-2.5-0.2-3.8 l6.3-0.8c0.2,1.5,0.3,3,0.3,4.6L93.2,151.6z M26,144.4l-3.1-0.7l-3.1-0.7c0.4-1.5,0.8-3,1.3-4.5l5.9,2.2 C26.7,142,26.3,143.2,26,144.4z M85.1,141c-0.4-1.2-1-2.4-1.6-3.6l5.6-2.9c0.7,1.4,1.3,2.8,1.9,4.3L85.1,141z M30.2,134.6 l-5.3-3.4c0.8-1.3,1.8-2.6,2.8-3.8l4.8,4.1C31.7,132.5,30.9,133.6,30.2,134.6z M79.8,131.7c-0.8-1-1.7-2-2.7-2.8l4.3-4.6 c1.1,1.1,2.2,2.2,3.2,3.4L79.8,131.7z M37.5,126.8l-3.8-5c1.3-0.9,2.6-1.8,3.9-2.6l3.1,5.5C39.6,125.3,38.5,126,37.5,126.8z M71.6,124.8c-1.1-0.7-2.3-1.2-3.5-1.7l2.5-5.8c1.4,0.6,2.9,1.3,4.2,2.1L71.6,124.8z M47,121.9l-1.9-6c1.5-0.5,3-0.8,4.6-1.1 l1.1,6.2C49.6,121.3,48.3,121.6,47,121.9z M61.5,121.1c-1.3-0.2-2.6-0.4-3.9-0.5l0.3-6.3c1.6,0.1,3.1,0.3,4.7,0.5L61.5,121.1z"></path> </g> </g> </g> <g> <g class="st2"> <polygon class="st5" points="421.9,238.2 421.9,241.2 457,241.2 439,256 423.9,243.7 422.6,245.3 439,258.8 459.1,242.3 459.1,268.5 418.9,268.5 418.9,244.2 415.9,244.2 415.9,271.5 462,271.5 462,238.2 "></polygon> </g> <g class="st2"> <path class="st5" d="M417.5,237.2c1.4,0,2.6,1.2,2.6,2.6c0,1.4-1.2,2.6-2.6,2.6c-1.4,0-2.6-1.2-2.6-2.6 C414.9,238.4,416.1,237.2,417.5,237.2"></path> </g> </g> <g> <g class="st2"> <path class="st5" d="M344.9,425.6c-3.2,0-7.3-1.4-12.1-4.3c-6.4-3.8-12.7-9.2-16.5-13C316,408,291.6,383.4,301,374l2.3-2.3 l3.4,3.4l-2.3,2.3c-2.9,2.9,3,15.2,15.2,27.4c3.4,3.4,9.6,8.7,15.6,12.3c5.8,3.5,10.2,4.5,11.9,2.9l6.8-6.8l-11.6-11.6l-6.5,6.5 l-1.6-1c-0.2-0.1-5.4-3.4-9.5-7.4c-4.1-4.1-7.3-9.3-7.4-9.5l-1-1.6l6.5-6.5l-6.9-6.9l3.4-3.4l10.3,10.3l-7.2,7.2 c1.2,1.8,3.3,4.6,5.7,7c2.4,2.4,5.3,4.5,7,5.7l7.2-7.2l18.4,18.4l-10.2,10.2C349,424.9,347.2,425.6,344.9,425.6"></path> </g> <g class="st2"> <path class="st5" d="M311.2,363.3c2.2,0,3.9,1.8,3.9,3.9c0,2.2-1.8,3.9-3.9,3.9c-2.2,0-3.9-1.8-3.9-3.9 C307.3,365,309,363.3,311.2,363.3"></path> </g> </g> <g class="st2"> <path class="st5" d="M65.5,382.6v-29.7H75l1.6-11H65.5v-8.7c0-3.1,1.6-4.9,4.8-4.9h7.2v-9.9c0,0-3.2-0.5-7.8-0.5 c-10.5,0-15.8,5.8-15.8,14.5v9.5h-9.6v11h9.6v29.7H65.5z"></path> </g> <g> <g> <g class="st2"> <path class="st5" d="M162.2,38.1c0,1.5-1.2,2.7-2.7,2.7c-1.5,0-2.7-1.2-2.7-2.7c0-1.5,1.2-2.7,2.7-2.7 C161,35.4,162.2,36.6,162.2,38.1"></path> </g> <g> <path class="st5" d="M185.3,86.2c-2.5,0-4.5-2-4.5-4.5c0-2.5,2-4.5,4.5-4.5c2.5,0,4.5,2,4.5,4.5 C189.8,84.2,187.8,86.2,185.3,86.2 M185.3,79.5c-1.2,0-2.2,1-2.2,2.2c0,1.2,1,2.2,2.2,2.2c1.2,0,2.2-1,2.2-2.2 C187.5,80.5,186.5,79.5,185.3,79.5"></path> </g> <g class="st2"> <g> <path class="st5" d="M216.8,46.6h-39.9l-2.3-10.1h-10v3.3h7.4l2,8.8c0,0,0,0,0,0.1l4.4,19.2c0,0,0,0,0,0l1.9,8.3h29.1v-3.3 h-26.4l-0.8-3.7h30.1L216.8,46.6z M181.3,65.8l-3.7-15.9h35.1l-3.3,15.9H181.3z"></path> </g> </g> </g> <g> <path class="st5" d="M204.4,86.6c-2.5,0-4.5-2-4.5-4.5c0-2.5,2-4.5,4.5-4.5c2.5,0,4.5,2,4.5,4.5 C208.9,84.6,206.9,86.6,204.4,86.6 M204.4,79.9c-1.2,0-2.2,1-2.2,2.2c0,1.2,1,2.2,2.2,2.2c1.2,0,2.2-1,2.2-2.2 C206.6,80.9,205.6,79.9,204.4,79.9"></path> </g> </g> <g class="st2"> <g> <rect x="313.6" y="322.6" transform="matrix(0.2323 -0.9726 0.9726 0.2323 -70.0243 562.7912)" class="st5" width="15.8" height="6.3"></rect> </g> <g> <path class="st5" d="M328.9,308.5l-6.1-1.5l5.4-22.6l6.1,1.5L328.9,308.5z M336.7,275.5l-6.1-1.5l5.4-22.6l6.1,1.5L336.7,275.5z M344.6,242.6l-6.1-1.5l5.4-22.6l6.1,1.5L344.6,242.6z M352.5,209.7l-6.1-1.5l5.4-22.6l6.1,1.5L352.5,209.7z"></path> </g> <g> <rect x="351.2" y="165.2" transform="matrix(0.2323 -0.9726 0.9726 0.2323 111.9588 478.5)" class="st5" width="15.8" height="6.3"></rect> </g> </g> <g class="st2"> <g> <path class="st5" d="M55.6,151.4c-6,0-10.8-4.9-10.8-10.8c0-1.1,0.2-2.2,0.5-3.2l2.9,0.9c-0.2,0.7-0.4,1.5-0.4,2.3 c0,4.3,3.5,7.7,7.7,7.7c4.3,0,7.7-3.5,7.7-7.7c0-4.3-3.5-7.7-7.7-7.7c-0.6,0-1.2,0.1-1.8,0.2l-0.7-3c0.8-0.2,1.7-0.3,2.5-0.3 c6,0,10.8,4.8,10.8,10.8S61.6,151.4,55.6,151.4"></path> </g> <g> <path class="st5" d="M71.7,170.6H39.5v-1.5c0-8.9,7.2-16.1,16.1-16.1c8.9,0,16.1,7.2,16.1,16.1V170.6z M42.7,167.5h25.9 c-0.8-6.5-6.3-11.5-12.9-11.5C48.9,156,43.4,161.1,42.7,167.5"></path> </g> <g> <path class="st5" d="M49.3,131.3c1.4,0,2.5,1.1,2.5,2.5c0,1.4-1.1,2.5-2.5,2.5c-1.4,0-2.5-1.1-2.5-2.5 C46.8,132.4,47.9,131.3,49.3,131.3"></path> </g> </g> <g class="st2"> <g> <g> <rect x="117.6" y="314" transform="matrix(0.8065 -0.5912 0.5912 0.8065 -163.245 135.5684)" class="st5" width="15.8" height="6.3"></rect> </g> <g> <path class="st5" d="M145,306.8l-3.7-5.1l21.4-15.7l3.7,5.1L145,306.8z M177.7,282.9l-3.7-5.1l21.4-15.7l3.7,5.1L177.7,282.9z M210.4,258.9l-3.7-5.1l21.4-15.7l3.7,5.1L210.4,258.9z M243.1,234.9l-3.7-5.1l21.4-15.7l3.7,5.1L243.1,234.9z M275.8,210.9 l-3.7-5.1l21.4-15.7l3.7,5.1L275.8,210.9z M308.5,187l-3.7-5.1l21.4-15.7l3.7,5.1L308.5,187z"></path> </g> <g> <rect x="337.8" y="152.6" transform="matrix(0.8065 -0.5912 0.5912 0.8065 -25.2095 234.5283)" class="st5" width="15.8" height="6.3"></rect> </g> </g> <g> <g> <rect x="107" y="302.1" transform="matrix(0.364 -0.9314 0.9314 0.364 -211.2231 301.1368)" class="st5" width="15.8" height="6.3"></rect> </g> <g> <path class="st5" d="M124.8,288.6l-5.9-2.3l8.7-22.2l5.9,2.3L124.8,288.6z M137.5,255.9l-5.9-2.3l8.7-22.2l5.9,2.3L137.5,255.9z M150.3,223.2l-5.9-2.3l8.7-22.2l5.9,2.3L150.3,223.2z M163.1,190.6l-5.9-2.3l8.7-22.2l5.9,2.3L163.1,190.6z M175.8,157.9 l-5.9-2.3l8.7-22.2l5.9,2.3L175.8,157.9z"></path> </g> <g> <rect x="180.7" y="113.6" transform="matrix(0.364 -0.9314 0.9314 0.364 11.1873 249.8506)" class="st5" width="15.8" height="6.3"></rect> </g> </g> <g> <g> <rect x="206.3" y="108.8" transform="matrix(0.9292 -0.3696 0.3696 0.9292 -28.3126 85.6623)" class="st5" width="6.3" height="15.8"></rect> </g> <g> <path class="st5" d="M283.7,312l-9.8-24.5l5.9-2.3l9.8,24.5L283.7,312z M268.8,274.6l-9.8-24.5l5.9-2.3l9.8,24.5L268.8,274.6z M254,237.3l-9.8-24.5l5.9-2.3l9.8,24.5L254,237.3z M239.1,199.9l-9.8-24.5l5.9-2.3l9.8,24.5L239.1,199.9z M224.3,162.6 l-9.8-24.5l5.9-2.3l9.8,24.5L224.3,162.6z"></path> </g> <g> <rect x="291.5" y="323.1" transform="matrix(0.9292 -0.3695 0.3695 0.9292 -101.4403 132.3014)" class="st5" width="6.3" height="15.8"></rect> </g> </g> </g> <g> <path class="st6" d="M98.6,130l-11.8-8.8c4.9-6.5,10.3-12.8,16-18.7c8.8-9.1,18.6-17.2,29-24.3l8.3,12.2 c-9.6,6.5-18.5,14-26.7,22.4C108.1,118.1,103.1,123.9,98.6,130z"></path> </g> <g> <path class="st6" d="M58.1,287.8c-8.9-29.1-10.7-60.3-4.9-90.2l14.5,2.8c-5.3,27.6-3.7,56.3,4.6,83.1L58.1,287.8z"></path> </g> <g> <path class="st6" d="M236.6,419.3c-41.9,0-83-14.1-116.1-40.4l9.2-11.5c37.7,30,86.8,42.7,134.6,35l2.4,14.5 C256.6,418.5,246.5,419.3,236.6,419.3z"></path> </g> <g> <path class="st6" d="M379.1,353.1l-11.2-9.5c12.8-15.2,22.8-32.3,29.7-50.8l13.8,5.1C403.9,318.1,393,336.6,379.1,353.1z"></path> </g> <g> <path class="st6" d="M406.8,209.4c-1.1-7.8-2.7-15.7-4.8-23.3l14.2-4c2.3,8.3,4.1,16.8,5.3,25.3L406.8,209.4z"></path> </g> <g> <path class="st6" d="M343.3,98c-28.9-23-63.7-35.8-100.7-37.1l0.5-14.7c40.2,1.4,78,15.3,109.4,40.3L343.3,98z"></path> </g> </g> </svg> 