<?xml version="1.0" encoding="UTF-8"?> <!-- Generator: Adobe Illustrator 24.0.2, SVG Export Plug-In . SVG Version: 6.00 Build 0) --> <svg xmlns="http://www.w3.org/2000/svg" xmlns:xlink="http://www.w3.org/1999/xlink" id="Layer_1" x="0px" y="0px" viewBox="0 0 166 166" style="enable-background:new 0 0 166 166;" xml:space="preserve"> <style type="text/css"> .st0{fill:#FFA500;} .st1{opacity:0.81;fill:#FFFFFF;} </style> <path class="st0" d="M33.2,30c0,4.4-3.6,8-8,8c-4.4,0-8-3.6-8-8c0-4.4,3.6-8,8-8C29.6,22,33.2,25.6,33.2,30"></path> <path class="st1" d="M83,0C64.7,0,47.4,5.8,32.8,16.9l6,7.9c11.8-9,25.8-14.1,40.6-14.8v28.7c-21.7,1.7-39,19.1-40.7,40.7H10 c0.6-12.6,4.4-24.8,11.1-35.4l-8.4-5.3C4.4,52,0,67.3,0,83c0,45.8,37.2,83,83,83c45.8,0,83-37.2,83-83C166,37.2,128.8,0,83,0z M156,79.5h-28.7c-1.7-21.7-19.1-39-40.7-40.7V10C124.1,11.8,154.2,42,156,79.5z M79.5,45.9v2.6h7.1v-2.6 c17.8,1.7,31.9,15.9,33.6,33.6h-2.5v7.1h2.5c-1.7,17.8-15.9,31.9-33.6,33.6v-2.9h-7.1v2.9c-17.8-1.7-31.9-15.9-33.6-33.6h2.6v-7.1 h-2.6C47.5,61.7,61.7,47.5,79.5,45.9z M10,86.6h28.7c1.7,21.7,19.1,39,40.7,40.7V156C42,154.2,11.8,124.1,10,86.6z M86.6,156v-28.7 c21.7-1.7,39-19.1,40.7-40.7H156C154.2,124.1,124.1,154.2,86.6,156z"></path> <polygon class="st1" points="73.2,70.5 73.2,64.3 92.9,64.3 92.9,70.5 86.5,70.5 86.5,103.4 79.5,103.4 79.5,70.5 "></polygon> </svg> 