<?xml version="1.0" encoding="UTF-8"?> <!-- Generator: Adobe Illustrator 24.0.2, SVG Export Plug-In . SVG Version: 6.00 Build 0) --> <svg xmlns="http://www.w3.org/2000/svg" xmlns:xlink="http://www.w3.org/1999/xlink" id="Layer_1" x="0px" y="0px" viewBox="0 0 171.6 171.6" style="enable-background:new 0 0 171.6 171.6;" xml:space="preserve"> <style type="text/css"> .st0{opacity:0.81;} .st1{fill:#FFFFFF;} .st2{fill:#FFC800;} </style> <g> <g> <g class="st0"> <rect x="115" y="98.3" class="st1" width="3.9" height="14.7"></rect> </g> <g class="st0"> <rect x="105.1" y="98.3" class="st1" width="3.9" height="14.7"></rect> </g> <g> <path class="st2" d="M35.2,32.9c5.1,0,9.2-4.1,9.2-9.2c0-5.1-4.1-9.2-9.2-9.2c-5.1,0-9.2,4.1-9.2,9.2 C26,28.8,30.1,32.9,35.2,32.9z"></path> <path class="st2" d="M35.2,33.3c-5.3,0-9.6-4.3-9.6-9.6c0-5.3,4.3-9.6,9.6-9.6c5.3,0,9.6,4.3,9.6,9.6 C44.8,29,40.5,33.3,35.2,33.3z M35.2,14.9c-4.9,0-8.8,3.9-8.8,8.8s3.9,8.8,8.8,8.8s8.8-3.9,8.8-8.8S40.1,14.9,35.2,14.9z"></path> </g> <g class="st0"> <path class="st1" d="M85.8,0C72.2,0,59.1,3.1,47.1,9.2l5.1,10.1c10.5-5.3,21.8-8,33.6-8c18.6,0,35.6,6.9,48.7,18.2l-25.8,24.3 H37.2v25.9h6.7v35.1l-17.2,16.2c-9.6-12.6-15.4-28.2-15.4-45.3c0-17,5.6-33.1,16.2-46.4l-8.9-7.1C6.4,47.7,0,66.2,0,85.8 c0,47.3,38.5,85.8,85.8,85.8c47.3,0,85.8-38.5,85.8-85.8S133.1,0,85.8,0z M42.7,59.4h60L87.1,74.2H42.7V59.4z M67.8,110.2v0.8 h-0.9L67.8,110.2z M62.8,115h8.9v-8.4l28.4-26.8h22.3v37H60.9L62.8,115z M106,74.2l15.7-14.8h7.3v14.8H106z M49.3,79.8h31.8 l-22.8,21.5h-6.6v6.2l-2.4,2.3V79.8z M85.8,160.3c-19.4,0-37.1-7.5-50.3-19.6l19.6-18.5h72.8V79.8h6.8V53.8h-7l15.9-15 c10.5,12.8,16.8,29.2,16.8,47C160.3,126.9,126.9,160.3,85.8,160.3z"></path> </g> </g> <g> <path class="st1" d="M40.5,52.7"></path> </g> <g> <path class="st1" d="M40.5,61.1"></path> </g> </g> </svg> 