<?xml version="1.0" encoding="UTF-8"?> <svg xmlns="http://www.w3.org/2000/svg" id="Layer_1" data-name="Layer 1" viewBox="0 0 130.32 110.29"><defs><style>.cls-1{fill:#009ca6;}.cls-2{fill:#ffb000;}</style></defs><title>Risk Icon_Teal_RGB</title><path class="cls-1" d="M99.91,142.23a8.9,8.9,0,1,1,0-17.79,8.9,8.9,0,1,1,0,17.79Zm0-12.79a3.9,3.9,0,1,0,0,7.79,3.9,3.9,0,1,0,0-7.79Zm6.36-6.44H93.7l-2-44.95h16.58Zm-7.79-5h3L103,83.05H96.88Z" transform="translate(-34.67 -44.38)"></path><polygon class="cls-1" points="130.32 110.3 0 110.3 56.87 11.8 62.93 15.3 12.13 103.3 118.2 103.3 67.45 15.4 73.52 11.9 130.32 110.3"></polygon><circle class="cls-2" cx="65.16" cy="5.67" r="5.67"></circle></svg> 