<?xml version="1.0" encoding="UTF-8"?> <!-- Generator: Adobe Illustrator 24.0.3, SVG Export Plug-In . SVG Version: 6.00 Build 0) --> <svg xmlns="http://www.w3.org/2000/svg" xmlns:xlink="http://www.w3.org/1999/xlink" id="Layer_1" x="0px" y="0px" viewBox="0 0 510.9 368.7" style="enable-background:new 0 0 510.9 368.7;" xml:space="preserve"> <style type="text/css"> .st0{fill:#FFC700;} .st1{opacity:0.47;fill:#FFFFFF;} .st2{fill:#FFFFFF;fill-opacity:0.81;} .st3{opacity:0.81;fill:#FFFFFF;} .st4{opacity:0.47;fill:none;stroke:#FFFFFF;stroke-width:2;stroke-miterlimit:10;} .st5{fill:#FFFFFF;} </style> <g> <g> <g> <path class="st0" d="M102.4,259.7c-2.7,0-4.9-2.2-4.9-5v-186c0-2.7,2.2-5,4.9-5c2.7,0,4.9,2.2,4.9,5v186 C107.3,257.5,105.1,259.7,102.4,259.7"></path> <path class="st0" d="M193.6,169.1H11.2c-2.7,0-4.9-2.2-4.9-4.9c0-2.7,2.2-4.9,4.9-4.9h182.3c2.7,0,4.9,2.2,4.9,4.9 C198.4,166.9,196.2,169.1,193.6,169.1"></path> <path class="st0" d="M102.4,265.3c-29.7,0-53-44.4-53-101.1c0-56.7,23.3-101.1,53-101.1c29.7,0,53,44.4,53,101.1 C155.4,220.9,132.1,265.3,102.4,265.3 M102.4,72.9c-23.4,0-43.2,41.8-43.2,91.3c0,49.5,19.8,91.3,43.2,91.3 c23.4,0,43.2-41.8,43.2-91.3C145.6,114.7,125.8,72.9,102.4,72.9"></path> <path class="st0" d="M167.1,241.8l-3.6-3.2c-8.2-7.4-17.6-13.2-27.8-17.2c-10.6-4.1-21.8-6.2-33.3-6.2 c-22.5,0-44.2,8.3-60.9,23.3l-3.6,3.2l-6.5-7.2l3.6-3.2c18.6-16.6,42.5-25.8,67.4-25.8c12.7,0,25.1,2.3,36.8,6.9 c11.3,4.4,21.7,10.8,30.7,19l3.6,3.2L167.1,241.8z"></path> </g> <path class="st0" d="M102.4,266.6C45.9,266.6,0,220.7,0,164.2S45.9,61.8,102.4,61.8s102.4,45.9,102.4,102.4 S158.9,266.6,102.4,266.6z M102.4,73.4c-50.1,0-90.8,40.8-90.8,90.8c0,50.1,40.8,90.8,90.8,90.8c50.1,0,90.8-40.8,90.8-90.8 C193.2,114.2,152.5,73.4,102.4,73.4z"></path> <path class="st0" d="M167,87.8l-3.6,3.2c-8.2,7.4-17.6,13.2-27.8,17.2c-10.6,4.1-21.8,6.2-33.3,6.2c-22.5,0-44.2-8.3-60.9-23.3 l-3.6-3.2l-6.5,7.2l3.6,3.2c18.6,16.6,42.5,25.8,67.4,25.8c12.7,0,25.1-2.3,36.8-6.9c11.3-4.4,21.7-10.8,30.7-19l3.6-3.2L167,87.8 z"></path> </g> <rect x="230.7" y="166.7" transform="matrix(0.1478 -0.989 0.989 0.1478 6.6324 393.8248)" class="st1" width="2.3" height="52.7"></rect> <path class="st0" d="M205.6,365.6c-0.2-1.9,1.1-3.6,3-3.8v0c1.9-0.2,3.6,1.2,3.8,3.1l0,0c0.2,1.9-1.1,3.6-3,3.8l0,0l0,0l0,0 c-0.1,0-0.3,0-0.4,0l0,0C207.3,368.7,205.8,367.4,205.6,365.6z M197.1,368.6L197.1,368.6L197.1,368.6c-1.9-0.2-3.2-2-3-3.9l0,0 c0.2-1.9,2-3.2,3.9-3l0,0c1.9,0.2,3.2,2,3,3.9l0,0c-0.2,1.7-1.7,3-3.4,3l0,0C197.4,368.6,197.2,368.6,197.1,368.6z M217,363.7 c-0.7-1.8,0.2-3.8,2-4.5l0,0c1.8-0.7,3.8,0.2,4.5,2l0,0c0.7,1.8-0.2,3.8-2,4.5l0,0c-0.4,0.2-0.8,0.2-1.2,0.2l0,0 C218.8,366,217.5,365.1,217,363.7z M185.1,365.5L185.1,365.5L185.1,365.5c-1.8-0.7-2.7-2.7-2-4.5l0,0c0.7-1.8,2.7-2.7,4.5-2l0,0 c1.8,0.7,2.7,2.7,2,4.5l0,0c-0.5,1.4-1.8,2.2-3.2,2.2l0,0C185.9,365.8,185.5,365.7,185.1,365.5z M227.6,359.2 c-1.1-1.6-0.7-3.7,0.9-4.8l0,0c1.6-1.1,3.7-0.7,4.8,0.9l0,0c1.1,1.6,0.7,3.7-0.9,4.8l0,0c-0.6,0.4-1.3,0.6-2,0.6l0,0 C229.3,360.7,228.2,360.1,227.6,359.2z M174.2,359.7L174.2,359.7L174.2,359.7c-1.6-1.1-1.9-3.3-0.8-4.8l0,0 c1.1-1.6,3.3-1.9,4.8-0.8l0,0c1.6,1.1,1.9,3.3,0.8,4.8l0,0c-0.7,1-1.7,1.5-2.8,1.5l0,0C175.5,360.3,174.8,360.1,174.2,359.7z M236.8,352.2c-1.4-1.3-1.5-3.5-0.3-4.9l0,0c1.3-1.4,3.5-1.5,4.9-0.3l0,0c1.4,1.3,1.6,3.5,0.3,4.9l0,0c-0.7,0.8-1.6,1.2-2.6,1.2 l0,0C238.3,353.1,237.4,352.8,236.8,352.2z M165,351.4L165,351.4L165,351.4c-1.3-1.4-1.1-3.6,0.3-4.9l0,0c1.4-1.3,3.6-1.1,4.9,0.3 l0,0c1.3,1.4,1.1,3.6-0.3,4.9l0,0c-0.7,0.6-1.5,0.8-2.3,0.8l0,0C166.7,352.6,165.7,352.2,165,351.4z M244,343.2 c-1.7-0.9-2.3-3-1.4-4.7l0,0c0.9-1.7,3-2.3,4.7-1.4l0,0c1.7,0.9,2.3,3,1.4,4.7l0,0c-0.6,1.2-1.8,1.8-3.1,1.8l0,0 C245.1,343.6,244.6,343.5,244,343.2z M158.1,341.1c-0.9-1.7-0.2-3.8,1.5-4.7l0,0c1.7-0.9,3.8-0.2,4.7,1.5l0,0 c0.9,1.7,0.2,3.8-1.5,4.7l0,0c-0.5,0.3-1,0.4-1.6,0.4l0,0C159.9,343,158.7,342.3,158.1,341.1z M248.9,332.7c-1.9-0.5-3-2.3-2.5-4.2 l0,0c0.5-1.9,2.3-3,4.2-2.5l0,0c1.9,0.5,3,2.3,2.5,4.2l0,0l0,0l0,0c-0.4,1.6-1.8,2.6-3.4,2.6l0,0 C249.5,332.8,249.2,332.8,248.9,332.7z M153.8,329.5c-0.4-1.9,0.7-3.7,2.6-4.2l0,0c1.9-0.4,3.7,0.7,4.2,2.6l0,0 c0.4,1.9-0.7,3.7-2.6,4.2l0,0c-0.3,0.1-0.5,0.1-0.8,0.1l0,0C155.6,332.2,154.2,331.1,153.8,329.5z M247.7,317.9 c0-1.9,1.5-3.5,3.5-3.5l0,0c1.9,0,3.5,1.5,3.5,3.5l0,0l0,0l0,0c0,1.9-1.6,3.5-3.5,3.5l0,0C249.2,321.4,247.7,319.8,247.7,317.9z M156,320.8c-1.9,0-3.4-1.6-3.4-3.5l0,0l0,0l0,0c0-1.9,1.6-3.4,3.5-3.4l0,0c1.9,0,3.4,1.6,3.4,3.5l0,0 C159.4,319.2,157.9,320.8,156,320.8L156,320.8C156,320.8,156,320.8,156,320.8z M246.7,308.5c-0.4-1.9,0.8-3.7,2.6-4.1l0,0 c1.9-0.4,3.7,0.8,4.1,2.6l0,0c0.4,1.9-0.8,3.7-2.6,4.1l0,0c-0.2,0.1-0.5,0.1-0.7,0.1l0,0C248.4,311.2,247,310.1,246.7,308.5z M156.7,309.2c-1.8-0.5-3-2.4-2.5-4.2l0,0c0.5-1.9,2.4-3,4.2-2.5l0,0c1.8,0.5,3,2.4,2.5,4.2l0,0c-0.4,1.6-1.8,2.6-3.3,2.6l0,0 C157.2,309.3,157,309.3,156.7,309.2z M243.1,298.4L243.1,298.4c-0.8-1.7-0.1-3.8,1.6-4.6l0,0c1.7-0.8,3.8-0.1,4.6,1.6l0,0 c0.8,1.7,0.1,3.8-1.6,4.6l0,0c-0.5,0.2-1,0.4-1.5,0.4l0,0C245,300.3,243.7,299.6,243.1,298.4z M160.1,298.2c-1.7-0.9-2.3-3-1.4-4.7 l0,0c0.9-1.7,3-2.3,4.7-1.4l0,0c1.7,0.9,2.3,3,1.4,4.7l0,0c-0.6,1.2-1.8,1.8-3,1.8l0,0C161.2,298.6,160.6,298.5,160.1,298.2z M237.3,289.5c-1.2-1.5-1-3.7,0.4-4.9l0,0c1.5-1.2,3.7-1.1,4.9,0.4l0,0c1.2,1.5,1,3.7-0.4,4.9l0,0c-0.6,0.5-1.4,0.8-2.2,0.8l0,0 C238.9,290.7,238,290.3,237.3,289.5z M166.1,288.4c-1.4-1.3-1.5-3.5-0.2-4.9l0,0c1.3-1.4,3.5-1.5,4.9-0.2l0,0 c1.4,1.3,1.5,3.5,0.2,4.9l0,0c-0.7,0.7-1.6,1.1-2.6,1.1l0,0C167.6,289.3,166.8,289,166.1,288.4z M229.4,282.2 c-1.5-1.1-1.9-3.3-0.8-4.8l0,0c1.1-1.5,3.3-1.9,4.8-0.8l0,0l0,0l0,0c1.5,1.1,1.9,3.3,0.8,4.8l0,0c-0.7,0.9-1.7,1.4-2.8,1.4l0,0 C230.8,282.9,230.1,282.6,229.4,282.2z M174.3,280.2c-1.1-1.6-0.6-3.8,1-4.8l0,0l0,0l0,0c1.6-1.1,3.7-0.6,4.8,1l0,0 c1.1,1.6,0.6,3.7-1,4.8l0,0c-0.6,0.4-1.3,0.6-1.9,0.6l0,0C176.1,281.8,175,281.2,174.3,280.2z M220.1,277c-1.8-0.7-2.6-2.7-1.9-4.5 l0,0c0.7-1.8,2.7-2.6,4.5-1.9l0,0c0,0,0,0,0,0l0,0c1.8,0.7,2.6,2.7,1.9,4.5l0,0c-0.5,1.3-1.8,2.2-3.2,2.2l0,0 C221,277.3,220.5,277.2,220.1,277z M184.3,274.3c-0.6-1.8,0.3-3.8,2.1-4.4l0,0c1.8-0.6,3.8,0.3,4.4,2.1l0,0 c0.6,1.8-0.3,3.8-2.1,4.4l0,0c-0.4,0.1-0.8,0.2-1.2,0.2l0,0C186.1,276.6,184.8,275.7,184.3,274.3z M209.8,274.3 c-1.9-0.3-3.2-2-2.9-3.9l0,0c0.3-1.9,2-3.2,3.9-2.9l0,0c1.9,0.3,3.2,2,2.9,3.9l0,0c-0.2,1.7-1.7,3-3.4,3l0,0 C210.1,274.3,209.9,274.3,209.8,274.3z M195.3,270.9c-0.2-1.9,1.2-3.6,3.1-3.8l0,0l0,0l0,0c1.9-0.2,3.6,1.2,3.8,3.1l0,0 c0.2,1.9-1.2,3.6-3.1,3.8l0,0c-0.1,0-0.2,0-0.3,0l0,0C197,274.1,195.5,272.7,195.3,270.9z"></path> <g> <path class="st2" d="M455.4,190.1c0,1.3-1,2.3-2.3,2.4c-1.3,0-2.4-1.1-2.4-2.4c0-1.3,1.1-2.4,2.4-2.4 C454.4,187.7,455.4,188.8,455.4,190.1"></path> <polygon class="st3" points="481,236.1 451,236.1 451,194.5 454.5,194.5 454.5,232.6 477.4,232.6 477.4,190.7 456.5,190.7 456.5,187.2 481,187.2 "></polygon> <path class="st3" d="M468.3,228.7c0,1.3-1,2.3-2.3,2.4c-1.3,0-2.4-1.1-2.4-2.4c0-1.3,1.1-2.4,2.4-2.4 C467.3,226.3,468.3,227.4,468.3,228.7"></path> <path class="st3" d="M470.6,195.7h-8.7c-0.8,0-1.5-0.7-1.5-1.5s0.7-1.5,1.5-1.5h8.7c0.8,0,1.5,0.7,1.5,1.5 S471.5,195.7,470.6,195.7z"></path> </g> <rect x="155.2" y="256.9" transform="matrix(0.7071 -0.7071 0.7071 0.7071 -144.9969 189.612)" class="st1" width="2.3" height="25.8"></rect> <path class="st0" d="M248.4,102.7L248.4,102.7c-1.1,0-2.2,0-3.3-0.1l0.4-6.9c0.9,0.1,1.9,0.1,2.8,0.1c0.1,0,0.1,0,0.2,0l-0.2,2.9 L248.4,102.7z M254.1,102.4l-0.8-6.9c0.9-0.1,1.9-0.2,2.8-0.4l1.2,6.8C256.2,102.1,255.2,102.3,254.1,102.4z M239.5,101.9 c-1.1-0.2-2.1-0.4-3.2-0.7l1.6-6.7c0.9,0.2,1.8,0.4,2.8,0.6L239.5,101.9z M262.9,100.6l-2-6.6c0.9-0.3,1.8-0.6,2.7-0.9l2.4,6.5 C264.9,100,263.9,100.3,262.9,100.6z M230.8,99.6c-1-0.4-2-0.8-3-1.2l2.8-6.3c0.9,0.4,1.7,0.7,2.6,1L230.8,99.6z M271.2,97.4 l-3.1-6.2c0.8-0.4,1.7-0.9,2.5-1.3l3.5,6C273.1,96.4,272.2,96.9,271.2,97.4z M222.7,95.9c-0.9-0.5-1.9-1.1-2.8-1.7l3.8-5.8 c0.8,0.5,1.6,1,2.4,1.5L222.7,95.9z M278.8,92.7l-4.1-5.6c0.7-0.5,1.5-1.1,2.2-1.7l4.5,5.3C280.5,91.4,279.7,92.1,278.8,92.7z M215.4,90.7c-0.8-0.7-1.6-1.4-2.4-2.2l4.8-5c0.7,0.7,1.4,1.3,2.1,1.9L215.4,90.7z M285.5,86.8l-5-4.8c0.6-0.7,1.3-1.4,1.9-2.1 l5.3,4.5C287,85.2,286.3,86,285.5,86.8z M209,84.4c-0.7-0.8-1.4-1.7-2-2.6l5.6-4.1c0.6,0.8,1.1,1.5,1.7,2.2L209,84.4z M291.1,79.8 l-5.8-3.8c0.5-0.8,1-1.6,1.5-2.4l6,3.5C292.3,78,291.7,78.9,291.1,79.8z M203.9,77.1c-0.5-0.9-1.1-1.9-1.5-2.9l6.2-3.1 c0.4,0.8,0.9,1.7,1.3,2.5L203.9,77.1z M295.4,71.9l-6.3-2.8c0.4-0.9,0.7-1.7,1-2.6l6.5,2.4C296.3,69.9,295.8,70.9,295.4,71.9z M200.1,69c-0.4-1-0.7-2.1-1-3.1l6.6-2c0.3,0.9,0.6,1.8,0.9,2.7L200.1,69z M298.3,63.5l-6.7-1.6c0.2-0.9,0.4-1.8,0.6-2.8l6.8,1.2 C298.7,61.3,298.5,62.4,298.3,63.5z M197.8,60.3c-0.2-1.1-0.3-2.2-0.5-3.2l6.9-0.8c0.1,0.9,0.2,1.9,0.4,2.8L197.8,60.3z M299.6,54.6l-6.9-0.4c0.1-0.9,0.1-1.9,0.1-2.8l0-0.1h6.9l0,0.1C299.7,52.4,299.7,53.5,299.6,54.6z M197,51.4L197,51.4 c0-1.1,0-2.2,0.1-3.2l6.9,0.4c-0.1,0.9-0.1,1.8-0.1,2.8L197,51.4z M292.5,46.3c-0.1-0.9-0.2-1.9-0.4-2.8l6.8-1.2 c0.2,1.1,0.3,2.1,0.5,3.2L292.5,46.3z M204.6,43.7l-6.8-1.2c0.2-1.1,0.4-2.1,0.7-3.2l6.7,1.6C204.9,41.9,204.7,42.8,204.6,43.7z M291,38.7c-0.3-0.9-0.6-1.8-0.9-2.7l6.5-2.4c0.4,1,0.7,2.1,1,3.1L291,38.7z M206.6,36.2l-6.5-2.4c0.4-1,0.8-2,1.2-3l6.4,2.8 C207.2,34.5,206.9,35.3,206.6,36.2z M288.1,31.5c-0.4-0.8-0.9-1.7-1.3-2.5l6-3.5c0.5,0.9,1.1,1.9,1.5,2.9L288.1,31.5z M209.8,29.2 l-6-3.5c0.5-0.9,1.1-1.9,1.7-2.8l5.8,3.8C210.8,27.6,210.3,28.4,209.8,29.2z M284.1,24.9c-0.6-0.8-1.1-1.5-1.7-2.2l5.3-4.5 c0.7,0.8,1.4,1.7,2,2.6L284.1,24.9z M214.3,22.9l-5.3-4.4c0.7-0.8,1.4-1.6,2.2-2.4l5,4.8C215.5,21.4,214.9,22.1,214.3,22.9z M278.9,19.1c-0.7-0.6-1.4-1.3-2.1-1.9l4.4-5.3c0.8,0.7,1.6,1.4,2.4,2.2L278.9,19.1z M219.7,17.4l-4.5-5.3c0.8-0.7,1.7-1.4,2.6-2 l4.1,5.6C221.2,16.2,220.5,16.8,219.7,17.4z M272.9,14.3c-0.8-0.5-1.6-1-2.4-1.5l3.5-6c0.9,0.5,1.9,1.1,2.8,1.7L272.9,14.3z M226.1,12.9l-3.5-6c0.9-0.5,1.9-1.1,2.9-1.5l3.1,6.2C227.7,12,226.9,12.4,226.1,12.9z M266.1,10.6c-0.9-0.4-1.7-0.7-2.6-1l2.4-6.5 c1,0.4,2,0.8,3,1.2L266.1,10.6z M233.1,9.6l-2.4-6.5c1-0.4,2.1-0.7,3.1-1l2,6.6C234.8,9,233.9,9.3,233.1,9.6z M258.7,8.1 c-0.9-0.2-1.8-0.4-2.8-0.6l1.2-6.8c1.1,0.2,2.1,0.4,3.2,0.7L258.7,8.1z M240.5,7.6l-1.2-6.8c1.1-0.2,2.1-0.3,3.2-0.5l0.8,6.9 C242.4,7.3,241.5,7.5,240.5,7.6z M251.1,7c-0.9-0.1-1.8-0.1-2.7-0.1h-0.1V0h0.1c1,0,2.1,0,3.1,0.1L251.1,7z"></path> <rect x="186.1" y="95.8" transform="matrix(0.7071 -0.7071 0.7071 0.7071 -10.2575 169.1248)" class="st1" width="25.8" height="2.3"></rect> <path class="st0" d="M307.4,253.3c-1.5,0-3-0.1-4.5-0.2l0.5-4.6c2.4,0.2,4.8,0.3,7.2,0.1l0.3,4.6 C309.7,253.2,308.5,253.3,307.4,253.3z M316.4,252.4l-0.9-4.5c2.3-0.5,4.7-1.2,6.9-2l1.7,4.3C321.6,251.1,319,251.9,316.4,252.4z M297.3,252.1c-2.6-0.6-5.2-1.4-7.6-2.4l1.8-4.3c2.2,0.9,4.5,1.7,6.8,2.2L297.3,252.1z M329.1,247.7l-2.2-4.1c2.1-1.1,4.1-2.5,6-4 l2.9,3.6C333.7,245,331.5,246.5,329.1,247.7z M284.7,247.2c-2.3-1.3-4.5-2.9-6.6-4.6l3-3.5c1.8,1.5,3.8,2.9,5.9,4.1L284.7,247.2z M339.9,239.6l-3.3-3.2c1.7-1.7,3.2-3.6,4.6-5.6l3.8,2.6C343.5,235.6,341.8,237.7,339.9,239.6z M274.1,238.8 c-1.8-1.9-3.5-4.1-4.9-6.3l3.9-2.5c1.3,2,2.8,3.9,4.4,5.7L274.1,238.8z M347.9,228.6l-4.1-2.1c1.1-2.1,2-4.4,2.7-6.7l4.4,1.4 C350.1,223.7,349.1,226.2,347.9,228.6z M266.4,227.6c-1.2-2.4-2.1-4.9-2.8-7.5l4.4-1.3c0.6,2.3,1.5,4.6,2.5,6.7L266.4,227.6z M352.2,215.7l-4.6-0.8c0.4-2.3,0.6-4.8,0.6-7.2l0-0.2l4.6,0l0,0.2C352.9,210.4,352.7,213.1,352.2,215.7z M262.4,214.6 c-0.3-2.3-0.5-4.6-0.5-6.9c0-0.4,0-0.7,0-1.1l4.6,0.1c0,0.3,0,0.7,0,1c0,2.1,0.2,4.1,0.5,6.2L262.4,214.6z M348,202.6 c-0.3-2.4-0.8-4.7-1.5-7l4.4-1.4c0.8,2.5,1.4,5.2,1.7,7.8L348,202.6z M266.9,201.7l-4.6-0.7c0.4-2.6,1-5.3,1.9-7.8l4.4,1.5 C267.8,197,267.3,199.4,266.9,201.7z M344.6,190.8c-1-2.2-2.2-4.3-3.5-6.3l3.8-2.6c1.5,2.2,2.8,4.5,3.9,7L344.6,190.8z M270.5,190.1l-4.2-2c1.2-2.4,2.5-4.7,4.1-6.9l3.8,2.7C272.8,185.9,271.5,187.9,270.5,190.1z M338,180.6c-1.6-1.8-3.3-3.5-5.2-4.9 l2.9-3.6c2.1,1.7,4,3.5,5.8,5.5L338,180.6z M277.3,180l-3.4-3.1c1.8-2,3.8-3.8,5.9-5.4l2.8,3.7C280.7,176.6,279,178.2,277.3,180z M328.6,172.8c-2-1.2-4.2-2.3-6.4-3.2l1.7-4.3c2.5,1,4.9,2.2,7.2,3.5L328.6,172.8z M286.8,172.4l-2.3-4c2.3-1.3,4.7-2.5,7.2-3.4 l1.6,4.3C291.1,170.1,288.9,171.2,286.8,172.4z M317.4,168.1c-2.3-0.6-4.7-1-7.1-1.1l0.3-4.6c2.7,0.2,5.3,0.6,7.9,1.3L317.4,168.1z M298.2,167.9l-1-4.5c2.6-0.6,5.3-1,7.9-1.1l0.2,4.6C302.9,167,300.5,167.4,298.2,167.9z"></path> <path class="st0" d="M414.4,94.3c-1.5,0-3-0.1-4.5-0.2l0.5-4.6c2.4,0.2,4.8,0.3,7.2,0.1l0.3,4.6C416.7,94.2,415.5,94.3,414.4,94.3z M423.4,93.4l-0.9-4.5c2.3-0.5,4.7-1.2,6.9-2l1.7,4.3C428.6,92.1,426,92.9,423.4,93.4z M404.3,93.1c-2.6-0.6-5.2-1.4-7.6-2.4 l1.8-4.3c2.2,0.9,4.5,1.7,6.8,2.2L404.3,93.1z M436.1,88.7l-2.2-4.1c2.1-1.1,4.1-2.5,6-4l2.9,3.6C440.7,86,438.5,87.5,436.1,88.7z M391.7,88.2c-2.3-1.3-4.5-2.9-6.6-4.6l3-3.5c1.8,1.5,3.8,2.9,5.9,4.1L391.7,88.2z M446.9,80.6l-3.3-3.2c1.7-1.7,3.2-3.6,4.6-5.6 l3.8,2.6C450.5,76.6,448.8,78.7,446.9,80.6z M381.1,79.8c-1.8-1.9-3.5-4.1-4.9-6.3l3.9-2.5c1.3,2,2.8,3.9,4.4,5.7L381.1,79.8z M454.9,69.6l-4.1-2.1c1.1-2.1,2-4.4,2.7-6.7l4.4,1.4C457.1,64.7,456.1,67.2,454.9,69.6z M373.4,68.6c-1.2-2.4-2.1-4.9-2.8-7.5 l4.4-1.3c0.6,2.3,1.5,4.6,2.5,6.7L373.4,68.6z M459.2,56.7l-4.6-0.8c0.4-2.3,0.6-4.8,0.6-7.2l0-0.2l4.6,0l0,0.2 C459.9,51.4,459.7,54.1,459.2,56.7z M369.4,55.6c-0.3-2.3-0.5-4.6-0.5-6.9c0-0.4,0-0.7,0-1.1l4.6,0.1c0,0.3,0,0.7,0,1 c0,2.1,0.2,4.1,0.5,6.2L369.4,55.6z M455,43.6c-0.3-2.4-0.8-4.7-1.5-7l4.4-1.4c0.8,2.5,1.4,5.2,1.7,7.8L455,43.6z M373.9,42.7 l-4.6-0.7c0.4-2.6,1-5.3,1.9-7.8l4.4,1.5C374.8,38,374.3,40.4,373.9,42.7z M451.6,31.8c-1-2.2-2.2-4.3-3.5-6.3l3.8-2.6 c1.5,2.2,2.8,4.5,3.9,7L451.6,31.8z M377.5,31.1l-4.2-2c1.2-2.4,2.5-4.7,4.1-6.9l3.8,2.7C379.8,26.9,378.5,28.9,377.5,31.1z M445,21.6c-1.6-1.8-3.3-3.5-5.2-4.9l2.9-3.6c2.1,1.7,4,3.5,5.8,5.5L445,21.6z M384.3,21l-3.4-3.1c1.8-2,3.8-3.8,5.9-5.4l2.8,3.7 C387.7,17.6,386,19.2,384.3,21z M435.6,13.8c-2-1.2-4.2-2.3-6.4-3.2l1.7-4.3c2.5,1,4.9,2.2,7.2,3.5L435.6,13.8z M393.8,13.4l-2.3-4 c2.3-1.3,4.7-2.5,7.2-3.4l1.6,4.3C398.1,11.1,395.9,12.2,393.8,13.4z M424.4,9.1c-2.3-0.6-4.7-1-7.1-1.1l0.3-4.6 c2.7,0.2,5.3,0.6,7.9,1.3L424.4,9.1z M405.2,8.9l-1-4.5c2.6-0.6,5.3-1,7.9-1.1l0.2,4.6C409.9,8,407.5,8.4,405.2,8.9z"></path> <line class="st4" x1="304.4" y1="48.6" x2="362.4" y2="48.6"></line> <path class="st0" d="M465.4,257.3c-1.5,0-3-0.1-4.5-0.2l0.5-4.6c2.4,0.2,4.8,0.3,7.2,0.1l0.3,4.6 C467.7,257.2,466.5,257.3,465.4,257.3z M474.4,256.4l-0.9-4.5c2.3-0.5,4.7-1.2,6.9-2l1.7,4.3C479.6,255.1,477,255.9,474.4,256.4z M455.3,256.1c-2.6-0.6-5.2-1.4-7.6-2.4l1.8-4.3c2.2,0.9,4.5,1.7,6.8,2.2L455.3,256.1z M487.1,251.7l-2.2-4.1c2.1-1.1,4.1-2.5,6-4 l2.9,3.6C491.7,249,489.5,250.5,487.1,251.7z M442.7,251.2c-2.3-1.3-4.5-2.9-6.6-4.6l3-3.5c1.8,1.5,3.8,2.9,5.9,4.1L442.7,251.2z M497.9,243.6l-3.3-3.2c1.7-1.7,3.2-3.6,4.6-5.6l3.8,2.6C501.5,239.6,499.8,241.7,497.9,243.6z M432.1,242.8 c-1.8-1.9-3.5-4.1-4.9-6.3l3.9-2.5c1.3,2,2.8,3.9,4.4,5.7L432.1,242.8z M505.9,232.6l-4.1-2.1c1.1-2.1,2-4.4,2.7-6.7l4.4,1.4 C508.1,227.7,507.1,230.2,505.9,232.6z M424.4,231.6c-1.2-2.4-2.1-4.9-2.8-7.5l4.4-1.3c0.6,2.3,1.5,4.6,2.5,6.7L424.4,231.6z M510.2,219.7l-4.6-0.8c0.4-2.3,0.6-4.8,0.6-7.2l0-0.2l4.6,0l0,0.2C510.9,214.4,510.7,217.1,510.2,219.7z M420.4,218.6 c-0.3-2.3-0.5-4.6-0.5-6.9c0-0.4,0-0.7,0-1.1l4.6,0.1c0,0.3,0,0.7,0,1c0,2.1,0.2,4.1,0.5,6.2L420.4,218.6z M506,206.6 c-0.3-2.4-0.8-4.7-1.5-7l4.4-1.4c0.8,2.5,1.4,5.2,1.7,7.8L506,206.6z M424.9,205.7l-4.6-0.7c0.4-2.6,1-5.3,1.9-7.8l4.4,1.5 C425.8,201,425.3,203.4,424.9,205.7z M502.6,194.8c-1-2.2-2.2-4.3-3.5-6.3l3.8-2.6c1.5,2.2,2.8,4.5,3.9,7L502.6,194.8z M428.5,194.1l-4.2-2c1.2-2.4,2.5-4.7,4.1-6.9l3.8,2.7C430.8,189.9,429.5,191.9,428.5,194.1z M496,184.6c-1.6-1.8-3.3-3.5-5.2-4.9 l2.9-3.6c2.1,1.7,4,3.5,5.8,5.5L496,184.6z M435.3,184l-3.4-3.1c1.8-2,3.8-3.8,5.9-5.4l2.8,3.7C438.7,180.6,437,182.2,435.3,184z M486.6,176.8c-2-1.2-4.2-2.3-6.4-3.2l1.7-4.3c2.5,1,4.9,2.2,7.2,3.5L486.6,176.8z M444.8,176.4l-2.3-4c2.3-1.3,4.7-2.5,7.2-3.4 l1.6,4.3C449.1,174.1,446.9,175.2,444.8,176.4z M475.4,172.1c-2.3-0.6-4.7-1-7.1-1.1l0.3-4.6c2.7,0.2,5.3,0.6,7.9,1.3L475.4,172.1z M456.2,171.9l-1-4.5c2.6-0.6,5.3-1,7.9-1.1l0.2,4.6C460.9,171,458.5,171.4,456.2,171.9z"></path> <line class="st4" x1="357.4" y1="211.6" x2="415.4" y2="211.6"></line> <path class="st2" d="M316.9,226.3h-2v-15.2h5.4l0.5-4.1H315v-4.9c0-1.7,0.4-3.9,4-3.9l2.2,0v-3.6c-0.9-0.1-2.2-0.1-3.7-0.1 c-4.3,0-6.8,2.6-6.8,7.1v5.5h-5.2v4.1h5.2v15.2h-2v-13.2h-5.2v-8.1h5.2v-3.5c0-5.6,3.4-9,8.8-9c2.2,0,4.2,0.2,4.8,0.2l0.8,0.1v7.3 l-4.2,0c-1.8,0-2,0.6-2,2v2.9h6.2l-1,8.1h-5.1V226.3z"></path> <path class="st2" d="M290.7,188.3c0,1.2-1,2.2-2.2,2.2s-2.2-1-2.2-2.2s1-2.2,2.2-2.2S290.7,187.1,290.7,188.3"></path> <path class="st2" d="M326.2,229.1h-35.8c-2,0-3.6-1.6-3.6-3.6v-33.4h2.7v33.4c0,0.5,0.4,0.9,0.9,0.9h35.8c0.5,0,0.9-0.4,0.9-0.9 v-35.8c0-0.5-0.4-0.9-0.9-0.9h-33.9v-2.7h33.9c2,0,3.6,1.6,3.6,3.6v35.8C329.8,227.5,328.2,229.1,326.2,229.1z"></path> <g> <path class="st2" d="M229.7,31.6c0,1.3-1.1,2.4-2.4,2.4c-1.3,0-2.4-1.1-2.4-2.4c0-1.3,1.1-2.4,2.4-2.4 C228.6,29.2,229.7,30.3,229.7,31.6"></path> <path class="st2" d="M268.3,76.1h-39c-2.2,0-3.9-1.8-3.9-3.9V35.8h3v36.3c0,0.5,0.4,0.9,0.9,0.9h39c0.5,0,0.9-0.4,0.9-0.9v-39 c0-0.5-0.4-0.9-0.9-0.9h-36.9v-3h36.9c2.2,0,3.9,1.8,3.9,3.9v39C272.2,74.3,270.5,76.1,268.3,76.1z"></path> <path class="st2" d="M261,44.5c-3.2,0-5.8-2.6-5.8-5.8c0-0.5-0.4-0.9-0.9-0.9h-4.7c-0.5,0-0.9,0.4-0.9,0.9v19.5 c0,1.9-1.5,3.4-3.4,3.4c-1.9,0-3.4-1.5-3.4-3.4c0-1.9,1.5-3.4,3.4-3.4c0.5,0,0.9-0.4,0.9-0.9v-4.7c0-0.5-0.4-0.9-0.9-0.9 c-5.5,0-9.9,4.4-9.9,9.9s4.4,9.9,9.9,9.9c5.5,0,9.9-4.4,9.9-9.9v-8.6c1.8,0.9,3.7,1.4,5.8,1.4c0.5,0,0.9-0.4,0.9-0.9v-4.7 C261.9,44.8,261.5,44.5,261,44.5z M260.2,49.2c-1.9-0.2-3.7-0.8-5.2-1.9c-0.3-0.2-0.6-0.2-0.9-0.1c-0.3,0.2-0.5,0.5-0.5,0.8v10.2 c0,4.5-3.6,8.1-8.1,8.1s-8.1-3.6-8.1-8.1c0-4.2,3.2-7.6,7.2-8.1v3c-2.4,0.4-4.3,2.5-4.3,5.1c0,2.8,2.3,5.2,5.2,5.2 c2.8,0,5.2-2.3,5.2-5.2V39.6h3c0.4,3.4,3.1,6.2,6.6,6.6V49.2z"></path> </g> <polygon class="st2" points="191.3,347 191.2,333.1 180.8,333.1 180.8,303.3 184.1,303.3 184.1,329.9 194.5,329.9 194.5,334.1 196.7,329.9 224.7,329.9 224.7,299.9 187.7,299.9 187.7,296.6 228,296.6 228,333.1 198.7,333.1 "></polygon> <path class="st2" d="M185,298.2c0,1.4-1.1,2.5-2.5,2.5c-1.4,0-2.5-1.1-2.5-2.5c0-1.4,1.1-2.5,2.5-2.5 C183.8,295.8,185,296.9,185,298.2"></path> <g> <g> <path class="st2" d="M393.4,32.2c0,1.2-1,2.2-2.2,2.2c-1.2,0-2.2-1-2.2-2.2c0-1.2,1-2.2,2.2-2.2C392.4,30,393.4,31,393.4,32.2"></path> <path class="st5" d="M412.6,72.1c-2.1,0-3.8-1.7-3.8-3.8c0-2.1,1.7-3.8,3.8-3.8c2.1,0,3.8,1.7,3.8,3.8 C416.3,70.4,414.7,72.1,412.6,72.1 M412.6,66.6c-1,0-1.8,0.8-1.8,1.8c0,1,0.8,1.8,1.8,1.8c1,0,1.8-0.8,1.8-1.8 C414.4,67.4,413.6,66.6,412.6,66.6"></path> <path class="st2" d="M438.7,39.2h-33.1l-1.9-8.4h-8.3v2.7h6.1l1.7,7.3c0,0,0,0,0,0.1l3.7,15.9c0,0,0,0,0,0l1.6,6.9h24.1V61h-21.9 l-0.7-3h25L438.7,39.2z M409.3,55.2L406.2,42h29.1l-2.7,13.2H409.3z"></path> </g> <path class="st5" d="M428.4,72.5c-2.1,0-3.8-1.7-3.8-3.8c0-2.1,1.7-3.8,3.8-3.8c2.1,0,3.8,1.7,3.8,3.8 C432.2,70.8,430.5,72.5,428.4,72.5 M428.4,66.9c-1,0-1.8,0.8-1.8,1.8c0,1,0.8,1.8,1.8,1.8c1,0,1.8-0.8,1.8-1.8 C430.2,67.7,429.4,66.9,428.4,66.9"></path> </g> </g> </svg> 