<?xml version="1.0" encoding="UTF-8"?> <!-- Generator: Adobe Illustrator 23.0.3, SVG Export Plug-In . SVG Version: 6.00 Build 0) --> <svg xmlns="http://www.w3.org/2000/svg" xmlns:xlink="http://www.w3.org/1999/xlink" version="1.1" id="Layer_1" x="0px" y="0px" viewBox="0 0 107.6 119" style="enable-background:new 0 0 107.6 119;" xml:space="preserve"> <style type="text/css"> .st0{fill:#FFFFFF;} </style> <g> <g> <g> <path class="st0" d="M13.9,104.6c-0.2-0.6-0.7-1.8-0.8-2.8c-0.3-2.1,0.8-3.4,1.8-3.7c1.1-0.3,1.5,0.2,2,1.5 c0.6,2,0.6,4.6,0.4,8.3c-0.2,5.1-2.8,11.2-9.1,11c-5.4-0.1-7.8-3.6-8.1-9c-0.1-2.5,0.1-5.1,1.1-8.6c0.6-1.9,1.1-2.6,2.8-3 c1.4-0.2,1.2,1.2,0.9,2.8c-0.7,3.7-1,5.5-0.7,9.7c0.2,4.4,2.3,6.2,4.5,6.2c3.3,0.1,4.8-2.7,5.4-6.7 C14.5,107.2,14.2,105.6,13.9,104.6z M84.9,109c1.3,0,1.7,1.5,1.4,2.5c-0.3,0.9-1.4,2-3.1,2.3C82.8,112.8,82.6,109,84.9,109z M60.8,111.1c0-1-0.6-1.9-1.2-1.9c-0.6,0-1.9,0.6-1.9,2.6c0,1.5,0.5,2.3,0.8,2.6C60.3,113.8,60.8,112.3,60.8,111.1z M41.6,98.5 c-0.1-1-0.9-1.7-1.9-1.7c-1.2,0-2.3,1.2-2.2,2.8c0.1,1,0.7,1.9,1.9,1.9C40.7,101.5,41.7,99.9,41.6,98.5z M51.6,102.1 c-0.1-1.7-0.5-2.5-1.5-2.4c-1.2,0.1-1.8,3.9-1.5,8c0.2,2.7,0.6,3.1,0.9,3C50.2,110.7,51.9,106,51.6,102.1z M92.6,108.6 c-0.8,3.2-3.1,7.8-6.5,7.8c-0.8,0-2.2-0.3-2.2-1.1c0-0.9,5.4-1,5.4-5.1c0-1.5-1.4-3.7-3.5-3.7c-2.8,0-5.5,3-5.5,7.2 c0,3.8,2.3,5,4.7,5c4.1,0,6.5-3.3,7.8-6.1c0.6,1.9,1,6.1,2.5,6.1c0.6,0,1.1-0.3,1.8-2c1.8-4.1,3.6-8.9,6.1-8.9 c0.9,0,0.4,1.7,2.6,1.7c1,0,1.8-0.9,1.8-1.9c0-1.4-1.3-2.5-3.3-2.5c-5.8,0-7,8.7-8,8.7c-1.5,0-1.1-7-2.2-7 C93.2,106.9,92.7,108.1,92.6,108.6z M43.2,116c0.9,0,2.5-0.3,3.8-2.3c-0.7-1.6-1.2-4.8-1.3-6c-0.4-6,1.9-11.6,4.5-11.8 c1.8-0.1,3.3,1.6,3.5,4.5c0.5,7.5-2,10.6-3.3,13.3c0.2,1,2,2.8,3.6,2.8c0.6,0,1.4-0.3,1.5-0.6c-0.1-0.4-0.3-1-0.3-1.8 c0-4.3,2.8-8,5.2-8c1.9,0,3,2.5,3,4.2c0,2-1.7,3.6-4.1,5.1c0.4,0.4,1.2,0.7,1.9,0.7c3.5,0,5.4-4.3,6.7-8.2 c0.2-0.7,0.7-1.8,1.5-1.8c1.5,0,2.1,9.8,4.6,9.8c1.1,0,1.9-2.2,1.9-3.8c0-1.2-0.4-1.4-0.4-3.2c0-2,1.1-3.6,2.5-3.6 c0.9,0,1.2,0.9,1.2,1.9c0,4-2.8,11.3-7,11.3c-3.2,0-2.9-5.4-4-5.4c-1.2,0-3,5.5-9.1,5.5c-1,0-2-0.5-2.9-1.5 c-1.5,1-2.7,1.4-4.1,1.4c-2.3,0-3.3-2.3-4.2-2.3c-1.1,0-2.3,2.4-6.1,2.4c-3,0-3.5-3.9-4.5-3.9c-0.9,0-2.3,3.9-3.9,3.9 c-2.6,0-3.1-6.8-5.4-6.8c-1.8,0-7.4,7-9,6.8c-0.6-0.1-0.9-0.5-0.8-1.1c0.1-0.9,0.8-3.1,1.1-4.2c0.5-1.9,1-3.9,1.2-4.6 c0.3-0.7,0.9-1.1,1.5-1.1c0.3,0,0.4,0.5,0.4,1c0.3,1.5,0.7,3.1,1.2,3.1c0.9,0,3.7-5.5,5.4-5.5c2,0,2.3,8.6,5.1,8.6 c0.9,0,1.6-1.1,2.2-2.5c0.1-2.3,0.7-5.6,2.5-5.6c1.3,0,1.9,2.9,1,5.4C39.9,115.3,41.9,116,43.2,116"></path> </g> </g> <path class="st0" d="M86.2,19.3c-0.5,0-1.1,0-1.5-0.7c-0.3-0.6-0.2-1.5-0.8-2c0.6,0.2,1.1,0.2,1.6,0.2c1.5,0,2.9-1,4-1 c0.7,0,0.9,0.5,0.9,0.9C90.5,18.1,87.6,19.3,86.2,19.3z M86.9,23c3.4,0,6.5-2.7,6.5-5.1c0-1.1-0.5-2-1.9-2.2c0.2,0.3,0.3,0.5,0.3,1 c0,1.8-2.7,3.8-5.7,3.8c-1.1,0-1.4,0.8-1.4,1.1C84.7,22.6,85.6,23,86.9,23z M86.6,24.3c0.4,3.1,5.1,7.3,6.4,7.2 c0.9-0.1,1.2-4.1,1.2-7.2c0-1.8,0.1-3.2-0.9-3.5C91.9,23.8,87.9,24.5,86.6,24.3"></path> <path class="st0" d="M12.9,44.9c1.1,0,0.9-6.8,2.7-6.8c0.4,0,0.6,0.4,0.6,1c0,1.5-0.8,3.8-0.8,5c0,0.6,0.2,0.8,0.5,0.8 c0.8,0,2.2-7.5,3.5-7.5c0.4,0,0.6,0.4,0.6,0.9c0,1.6-2,6.1-2,7.4c0,0.2,0.1,0.4,0.2,0.4c0.8,0,2.5-3.5,3-5.3c0.3-0.9,0.7-1.4,1-1.4 c0.3,0,0.6,0.4,0.6,1.1c0,1.8-1.6,5.9-3.1,8.7c-1.1,2.2-2.8,5.3-2.8,7c0,0.9,0.2,1.8,1.4,2.9c-2.1-0.1-2.9-0.3-3.7-2 c-3.5,7,6.5,6.3,3,12.5c-0.6-1.1-5.5-2.3-5.5-8.7c0-5.6,4.9-8.9,4.9-11.2c0-0.5-0.2-0.9-0.6-1.2c-1.1-0.9-1.1-1.7-2-1.7 c-0.6,0-1.4,1.4-0.6,2.7c0.3,0.4,0.5,0.7,0.5,1.1c0,0.9-1.4,3.4-2.5,3.4c-1,0-1.8-2.5-1.8-6.6c0-3.6,0.8-7.2,1.8-7.2 c0.3,0,0.4,0.2,0.4,0.5c0,0.4-0.1,1.3-0.1,2.7C12.3,44.8,12.6,44.9,12.9,44.9"></path> <path class="st0" d="M21.3,54.5c1.4,0,2.5-1,2.5-3.3v-3.3c0-1.3,0.1-2.7,1-3.7c-0.1,0.4-0.1,0.9-0.1,1.3c0,2.8,1.6,4.8,1.6,7.5 c0,1-0.3,1.6-1.1,1.6c-0.8,0-0.7-0.7-0.9-0.7c-0.1,0-0.3,0.4-0.3,0.9c0,0.7,0.5,1.8,1.9,1.8c1.2,0,2.1-1.1,2.1-2.3 c0-2.9-2.3-6.2-2.3-9.4c0-1.4,0.4-2.3,0.7-3c0,6.5,5.5,11.3,5.5,14c0,0.6-0.5,1.1-1.1,1.1c-0.8,0-1.1-0.6-1.1-1 c0-0.2,0-0.3-0.1-0.3c-0.2,0-0.8,0.7-0.8,1.5c0,1.1,0.9,2.4,2.5,2.4c1.9,0,2.9-1.6,2.9-3c0-3.4-6.7-8.6-6.7-14.2 c0-1,0.2-2.5,0.9-3.7c-4.3,2.8-5.7,6.5-5.7,9.7c0,2.8-0.1,4.2-1.5,4.2c-0.8,0-1-0.7-1.2-0.7c-0.2,0-0.3,0.6-0.3,0.8 C19.5,53.8,20.4,54.5,21.3,54.5"></path> <path class="st0" d="M70.9,17.6c0.4-0.3,2.3,0.2,4.6-1c0.3-0.2,0.6-0.2,0.9-0.2c1.1,0,0.9,1.3,1.9,1.3c0.8,0,1.9-0.7,2.5-0.7 c1,0,2.4,3.1,2.4,4.5c0,1.7-2.5,2.7-5.5,2.7c-4.4,0-7-3.8-7-6.3C70.7,17.8,70.8,17.7,70.9,17.6z M78,21.8c1.4,0,2.5-0.7,2.5-1 c0-0.1-0.2-0.2-0.6-0.2c-0.4,0-1.3,0-2.9-0.3c-1.4-0.2-2.4-0.8-2.8-0.8c-0.1,0-0.2,0.1-0.2,0.2C74,20.5,75.6,21.8,78,21.8"></path> <path class="st0" d="M22,66.9c-1.1,0.3-2.8,2-2.8,4.7c0,3.2,3.4,8.2,9.1,8.2c4.8,0,6-3.3,6-5.5c0-4.9-3-8.4-7-8.4 c-2.2,0-4.1,1.6-4.1,3.9c0,2.2,1.6,5.4,5.5,5.4c1.8,0,2.9-1.3,2.9-2.8c0-1.5-1.3-3.5-3.3-3.5c-0.6,0-1,0.4-1,1 c0,0.8,1.1,1.6,2.4,1.6c0.3,0,0.6-0.1,0.7-0.1c0.1,0.1,0.1,0.3,0.1,0.4c0,0.8-0.7,1.2-1.8,1.2c-1.7,0-3.3-1.2-3.3-3.2 c0-1.2,1-2,2.5-2c2.9,0,4.6,2.6,4.6,5.2c0,2.3-1.3,3.7-3.9,3.7C23.4,76.4,20.8,71.7,22,66.9"></path> <path class="st0" d="M59.4,86.1c1.6,0,1.5-0.1,2-0.1c0.5,0,0.5,0.3,0.5,0.5c0,0.7-1.6,1.6-4.5,1.6c-1.7,0-2.7-0.9-3-1.9 c-1.6,1-4.1,2-6.6,2c-6.7,0-8.4-2.9-10.5-3.9c-1.6-0.7-4.1,0.7-7.5-3.1c0.5,0.1,1.1,0.1,1.6,0.1c3,0,4.6-1.5,4.6-3.8 c0-0.3,0-0.6-0.1-0.9c0.9,0.4,3,1.9,3.5,4.7c0.1,0.3,1.4,0.6,2.3,0.6c1.2,0,2.7-0.5,2.9-2.4c3.9-0.3,6.6-2.7,7.1-5.6 c1.4,0.5,3,1.7,3.4,2.4c0.6-0.2,1.2-0.3,2-0.3c1,0,2.2,0.2,3.6,0.6c0.1-0.4,0.1-0.9,0.8-0.9c1,0,0.7,1.1,1,1.7c0.2,0.3,1,0.5,1,1.2 c0,0.6-0.5,0.9-0.9,0.9c-0.1,0-0.3,0-0.4-0.1c-0.7,0.2-0.7,4.9-3.4,4.9c-2,0-3.9-1.7-4.7-3.8c-0.2-0.6-0.7-1-1.2-1 c-0.5,0-0.8,0.1-1.4,0.8c-1.8,1.9-4.7,3.6-8.4,3.6c-1.1,0-2-0.1-2.2-0.1c-0.1,0-0.1,0-0.1,0.1c0,0.2,1.1,1.1,3.5,1.1 c5.8,0,7.2-3.2,8.1-3.2c0.1,0,0.5,0,0.8,0.5C54.6,85.3,57.5,86.1,59.4,86.1z M56.8,79.5c0,0.7,0.6,1.3,1.3,1.3s1.3-0.6,1.3-1.3 c0-0.7-0.6-1.3-1.3-1.3S56.8,78.8,56.8,79.5"></path> <path class="st0" d="M82.8,63.2c-0.5,0-0.9,0.4-0.9,1.2c0,1,0.8,1.6,1.2,1.8c0.2,0.1,0.6,0.3,0.9,0.3c1,0,1.7-0.3,1.7-1.1 C85.6,64.4,84.2,63.2,82.8,63.2z M79.2,65.2c-0.7,0-4.5,5.1-6.9,5.1c-0.6,0-1.1-1.1-1.1-2c0-0.5,0.3-0.8,1.3-1 c5.6-1.3,4.4-5.5,9.2-5.5c2.7,0,5.6,1.8,5.6,5.9c0,4.3-6.2,9.7-7.1,9.7c-0.8,0-1.6-1.1-1.6-1.8c0-0.2,0.1-0.5,0.8-0.8 c3.1-1.2,4.9-4.1,4.9-5.6c0-0.3-0.2-0.7-0.6-0.7c-0.6,0-2.9,5.4-5.6,5.4c-1.8,0-3.7-1.7-3.7-2.5c0-1.3,5.3-3.7,5.3-5.6 C79.8,65.2,79.5,65.2,79.2,65.2"></path> <path class="st0" d="M14.4,22.3c0,0-0.9,0.7-2.1,0.7c-1.4,0-2.5-1-2.5-2.5c0-1,0.5-2.1,1.7-2.6c0,0.2,0,0.4,0,0.6 C11.5,20.3,12.5,21.7,14.4,22.3z M21.4,28.6c-0.7,0.9-1.5,2.3-1.5,3.8c0,1.8,1.1,3.2,2.8,3.2c1.6,0,2.4-1.4,2.4-2.8 C25,30.6,23.1,29,21.4,28.6z M10.5,29.9c-0.1,0.1-0.1,0.2-0.1,0.4c0,0.3,0.3,0.6,0.6,0.6c0.3,0,0.4-0.1,0.6-0.1 c0.8,0,1.7,0.6,2.9,0.6c0.8,0,1.6-0.2,2.8-0.8c2.4-1.2,3.3-4.1,3.3-4.6c0-0.6-0.5-0.5-0.9-1.1c-0.4-0.6-0.3-1.1-0.5-1.3 c-0.2-0.2-0.6-0.2-1.2-0.2c-0.2,0-0.5,0-0.7,0c-1.1,0-2.4,0.1-3.8,1C10.6,26.1,11,29.1,10.5,29.9z M18.2,25.8 c0.2,0.3,0.9,0.7,0.9,0.9c0,0.5-0.3,1-0.8,1c-1.1,0-2.1-1.7-2.1-2.7c0-0.6,0.4-0.7,0.9-0.7c0.2,0,0.3,0,0.5,0.1 C17.9,24.7,17.9,25.3,18.2,25.8z M15.2,29.8c-1.1,0-2.3-1.3-2.3-2.6c0-0.7,0.5-1.5,0.9-1.5c0.1,0,0.2,0.1,0.2,0.3 c0.2,1.6,1.2,2.5,2.2,3c0.1,0.1,0.2,0.1,0.2,0.2C16.4,29.5,15.8,29.8,15.2,29.8z M18,21.5c0.2-0.5,0.3-1.2,0.3-1.9 c0-1.6-0.7-4-2.9-4c-1.3,0-2.2,1-2.2,2.2C13.2,20.5,15.7,21.5,18,21.5z M9.5,34.6c0,2.5,0.8,3.7,2.1,3.7c1,0,2.5-0.8,4.1-2.2 c-1.3,0.3-2.3,0.5-3.1,0.5C11.4,36.6,10.5,36.2,9.5,34.6z M10.7,31.7c0,0.2,0,0.3,0,0.5c0,1.5,0.8,2.4,1.9,2.4 c0.8,0,1.8-0.5,2.6-1.6c-0.4,0.1-0.8,0.1-1.2,0.1C12.8,33.1,11.5,32.8,10.7,31.7z M18.7,31.3c-0.8,0.2-2.3,1.1-2.3,2.8 c0,1.2,0.9,1.9,2.1,1.9c0.6,0,1-0.1,1.3-0.3c-0.9-0.9-1.2-1.9-1.2-2.8C18.5,32.1,18.6,31.7,18.7,31.3z M19.9,22.3 c0,0.7,0.6,1.3,1.3,1.3c0.7,0,1.3-0.6,1.3-1.3c0-0.7-0.6-1.3-1.3-1.3C20.5,21,19.9,21.6,19.9,22.3z M21.6,25.2 c0,0.7,0.6,1.3,1.3,1.3c0.7,0,1.3-0.6,1.3-1.3c0-0.7-0.6-1.3-1.3-1.3C22.2,23.9,21.6,24.5,21.6,25.2"></path> <path class="st0" d="M72.7,41.3c0-0.7,0.6-1.2,1.2-1.2c0.7,0,1.3,0.6,1.3,1.2c0,0.8-0.6,1.3-1.3,1.3C73.3,42.6,72.7,42.1,72.7,41.3 z M61.2,31.2c0,0.7,0.6,1.3,1.3,1.3c0.7,0,1.3-0.6,1.3-1.3c0-0.7-0.6-1.3-1.3-1.3C61.8,29.9,61.2,30.5,61.2,31.2z M60.1,35.9 c0,1,0.8,1.9,1.9,1.9c1,0,1.9-0.8,1.9-1.9c0-1-0.9-1.9-1.9-1.9C60.9,34,60.1,34.8,60.1,35.9z M64.2,33.8c0,1.1,0.9,2,2,2 c1.1,0,2-0.9,2-2c0-1.1-0.9-2-2-2C65.1,31.8,64.2,32.6,64.2,33.8z M64.3,29.5c0,0.7,0.6,1.2,1.2,1.2c0.7,0,1.2-0.6,1.2-1.2 c0-0.7-0.6-1.2-1.2-1.2C64.9,28.3,64.3,28.8,64.3,29.5z M70.3,26.4c0,0.7,0.6,1.2,1.2,1.2c0.7,0,1.2-0.6,1.2-1.2 c0-0.7-0.6-1.2-1.2-1.2C70.8,25.1,70.3,25.7,70.3,26.4z M67.8,30.4c0,1.1,0.9,2.1,2.1,2.1c1.1,0,2.1-0.9,2.1-2.1 c0-1.1-0.9-2.1-2.1-2.1C68.8,28.3,67.8,29.2,67.8,30.4z M64.4,38.1c0,0.7,0.6,1.3,1.3,1.3c0.7,0,1.3-0.6,1.3-1.3 c0-0.7-0.6-1.3-1.3-1.3C65,36.7,64.4,37.3,64.4,38.1z M68.7,35.4c0,0.7,0.6,1.3,1.3,1.3c0.7,0,1.3-0.6,1.3-1.3 c0-0.7-0.6-1.3-1.3-1.3C69.3,34.1,68.7,34.7,68.7,35.4z M67.5,40c0,1.2,1,2.3,2.3,2.3c1.2,0,2.3-1,2.3-2.3s-1-2.3-2.3-2.3 C68.5,37.8,67.5,38.8,67.5,40z M72.2,37.3c0,0.9,0.7,1.5,1.5,1.5c0.9,0,1.5-0.7,1.5-1.5c0-0.8-0.7-1.5-1.5-1.5 C72.9,35.7,72.2,36.4,72.2,37.3z M72.1,33.1c0,0.8,0.6,1.4,1.4,1.4c0.8,0,1.4-0.6,1.4-1.4c0-0.8-0.6-1.4-1.4-1.4 C72.8,31.8,72.1,32.4,72.1,33.1"></path> <path class="st0" d="M75.5,76.1c-0.9,0.7-2.8,2.1-6.2,2.1c-1.8,0-2.6-0.6-2.8-0.6c-0.3,0-0.7,0.3-1,0.8c-0.8,0.9-1.8,2.6-1.8,4.5 c0,1.3,1,2.6,2.9,2.6c6.1,0,10.7-3.8,10.7-6.9C77.3,76.8,76.2,76.1,75.5,76.1z M73.8,75.7c0.3-0.2,0.3-0.6,0.3-1V74 c0-1-1.4-1.5-3.4-1.5c-2.4,0-3.7,1.1-3.7,1.5v1.5c0,0.6,1.4,1.2,3.2,1.2C71.7,76.8,72.9,76.5,73.8,75.7z M73.5,79 c0.2,0,0.4,0.1,0.4,0.7c0,0.7-0.3,1.7-1.5,2.4c-0.8,0.6-1.9,1-3.6,1c0.3-0.8,0.5-1.6,0.5-2.4c0-0.3,0-0.5-0.1-0.8h0.4 C72.2,80,73.3,79,73.5,79"></path> <path class="st0" d="M61,39c0.4,2.8,4.1,1.4,4.1,4.7c0,0.5-0.1,1.2-0.1,1.8c0,0.7,0.1,1.3,0.6,1.3c0.6,0,0.7-0.4,0.7-0.9 s-0.1-1.2-0.1-1.5c0-1.1,0.8-1.4,1.3-1.4c1.2,0,2.2,1.3,4.1,1.3c-0.4,2.1-4.8,1.5-4.8,3.8c0,1.1,1.1,1.4,1.9,1.4 c0.7,0,0.9-0.1,0.9-0.7c0-0.3-0.1-0.7-0.1-0.9c0-0.1,0.1-0.3,0.3-0.3c0.7,0,4.3,2.7,4.3,3.5c0,0.8-3.7,1.5-4.8,1.5 c-0.3,0-0.4-0.2-0.4-0.4c0-0.2,0.6-0.9,0.6-1.3c0-0.3-0.5-0.5-1.8-0.5c-0.6,0-1.1,0.1-1.1,0.6c0,0.9,1.4,2,1.4,2.8 c0,0.7-0.4,1-1.4,1c-0.9,0-2.2-0.7-2.2-1.8c0-0.9,0.9-1.8,0.9-2.4c0-0.2-0.1-0.4-0.5-0.4c-1.2,0-1.5,3.2-5.8,3.6 c0.7-0.6,1.3-1.3,1.3-2.7c0-0.7-0.2-1.2-0.2-2c0-1,0.5-1.5,1.1-1.5c1.2,0,1.8,1.7,2.6,1.7c0.4,0,0.9-0.4,0.9-1 c0-2.5-4.8-2.1-4.8-5.6C59.8,41.8,60.1,40.6,61,39z M76.6,48.6c0,0.8,0.3,1.8,1.1,1.8c0.7,0,1.3-1,1.3-2.2c0-1.3-0.2-2.3-0.2-2.9 c0-0.2,0.1-0.3,0.2-0.3c0.5,0,0.9,1.4,1.5,1.4c0.6,0,1.5-1.1,1.8-1.1c0.1,0,0.1,0.1,0.1,0.2c0,0.5-0.8,1.6-0.8,2 c0,0.4,1.9,0.4,1.9,0.8c0,0.5-2,0.5-2.9,0.9c-0.9,0.4-1.5,0.9-1.5,1.5c0,0.7,0.7,0.8,1.6,0.8c2.2,0,3.7-1.2,4.2-1.2 c0.1,0,0.2,0.1,0.2,0.2c0,0.3-1.1,1.4-1.1,1.9c0,0.6,2,1.2,2,1.5c0,0.1-0.2,0.1-0.4,0.1c-0.4,0-0.9-0.1-1.3-0.1 c-0.3,0-0.5,0-0.6,0.2c-0.2,0.3,0.1,2-0.4,2c-0.4,0-1.5-3.9-4.1-3.9c-0.4,0-0.6,0.3-0.6,0.8c0,1.3,1.3,2.8,2.5,3.5 c0.5,0.4,1.5,0.7,1.5,0.9c0,0.4-2.1,0-2.1,0.7c0,0.6,0.3,1.5,0.3,2c0,0.2,0,0.4-0.2,0.4c-0.4,0-1.3-1.8-1.8-1.8 c-0.4,0-1.2,1.1-1.6,1.1c-0.1,0-0.2-0.1-0.2-0.2c0-0.8,1.2-2.5,1.2-4.1c0-0.8-0.1-2.5-1.1-2.5c-0.8,0-1.7,1.2-2.1,2.5 c-0.2,0.7-0.1,3.5-0.6,3.5c-0.5,0-0.4-1.9-1-1.9c-0.5,0-1.5,0.9-1.9,0.9c-0.1,0-0.1,0-0.1-0.1c0-0.4,1-1.7,1-1.9 c0-0.5-2.2-0.6-2.2-0.9c0-0.2,0.9-0.4,1.6-0.5c1.7-0.3,4.1-1.5,4.1-3.2c0-1.9-1.8-2.7-3-3.5c-0.6-0.4-1.3-0.7-1.3-1 c0-0.3,0.8-0.3,1.1-0.3c0.5,0,1,0,1-0.4c0-0.3-0.1-0.9-0.1-1.3c0-0.3,0-0.6,0.2-0.6c0.5,0,1.2,1.6,1.5,1.6c0.5,0,1.2-1.3,1.7-1.3 c0.2,0,0.2,0.1,0.2,0.4C77.3,46,76.6,47.4,76.6,48.6"></path> <path class="st0" d="M62,57.6c1.5,0.2,1.9,0.7,1.9,1.1c0,0.7-0.7,0.9-1.3,0.9c-0.5,0-1-0.1-1.5-0.1c-0.7,0-1.4,0.2-2,0.9 c0.4,0.1,1,0.4,1,1c0,1.9-5.3,0.3-5.3,5.2c0,2.6,2.7,5.4,6.7,5.4c2.1,0,3.4-0.7,3.4-1.5c0-0.6-1.1-0.2-1.1-0.7c0-0.2,0.4-0.7,0.4-1 c0-0.2-0.1-0.5-0.4-0.5c-0.6,0-1.7,0.9-4,0.9c-1.8,0-3.5-1-3.5-2.4c0-0.3,0.1-0.5,0.3-0.5c0.2,0,0.5,0.1,0.7,0.1 c0.2,0,0.2-0.1,0.2-0.5c0-0.4,0-1.4,0.6-1.4c0.6,0,1.8,2.3,6.3,2.3c1.5,0,4.4-0.3,5.5-1.3c0,3.6-2.9,8.4-8.7,8.4 c-6.1,0-9.4-4.9-9.4-9.4c0-5,4.1-9.6,9.7-9.6c1.4,0,2.7,0.5,2.7,1.1C64.3,57.1,62.1,56.6,62,57.6z M72,59.4c0.2,0.4,0.3,0.7,0.3,1 c0,0.9-0.6,1.8-0.6,2.7c0,1.1,0.8,2,2.1,2c1.3,0,2.3-1.1,2.3-2.4C76,61,74.5,59.5,72,59.4z M61.2,61.5c0.3,0.3,0.4,0.7,0.4,1 c0,0.5-0.2,1-0.2,1.6c0,0.8,0.6,1.5,1.4,1.5c0.9,0,1.5-0.7,1.5-1.6C64.3,62.7,63.1,61.5,61.2,61.5z M65.5,55.9 c3.4,0.7,5.3,3.2,5.3,5.7c0,1.7-1,3.2-2.9,3.2c-1.7,0-2.9-1.1-2.9-3c0-1.4,1.1-2.8,1.1-4.2C66.1,57,66,56.5,65.5,55.9z M67.2,60.3 c0,0.5,0.3,0.8,0.8,0.8c0.5,0,0.9-0.5,0.9-1c0-0.7-0.6-1.6-1.2-1.6c-0.3,0-0.2,0.4-0.2,0.8C67.4,59.6,67.2,60,67.2,60.3"></path> <path class="st0" d="M31.1,26.6c1.1,0,2.4-6,2.4-7c0-0.3-0.1-0.5-0.3-0.5c-1,0-2.4,5.7-2.4,7C30.7,26.3,30.8,26.6,31.1,26.6z M39.1,28.4c0.8,0,1.7-3.1,1.7-5.1c0-0.4-0.1-0.9-0.3-0.9c-0.7,0-1.8,3.2-1.8,5C38.7,28.1,38.9,28.4,39.1,28.4z M33.8,25.4 c0.4,0,0.8-0.4,1.7-1.3c0.1-0.4,0.1-0.8,0.1-1.3c0-0.7-0.3-1.4-0.7-1.4c-1,0-1.5,2.6-1.5,3.3C33.4,25.1,33.6,25.4,33.8,25.4z M38.2,24.1c0-0.6-0.1-0.7-0.3-0.7c-0.3,0-0.7,0.4-1.2,1.3c0.1,1.2,0.3,1.7,0.6,1.7C37.7,26.4,38.2,25.2,38.2,24.1z M40.8,20.2 c2.2,0,3.1,1.9,3.1,4c0,0.9-0.3,2.3-0.7,2.3s-0.4-0.8-0.4-1.4c-0.1-0.9-0.2-1.1-0.5-1.1c-0.6,0-0.9,1.3-0.9,2.5 c0,0.8,0.1,1.6,0.7,1.6c0.3,0,0.6-0.2,0.8-0.4c-0.1,1.5-1.2,2.8-2.8,2.8c-2.9,0-4-3.4-4.3-5.3c-1.7,1.8-3.3,3.2-6.2,3.2 c-2.7,0-3.9-2-3.9-3.8c0-0.6,0.2-2,0.9-2c0.8,0,0.1,2.7,1.7,2.7c0.4,0,1.1-0.3,1.5-1.4c0.2-0.7,0.4-1.3,0.4-1.9 c0-0.9-0.2-1.4-0.9-1.4c-0.6,0-1.2,0.4-1.5,0.7c0.8-2.4,2.7-3.6,4.8-3.6c2.6,0,4,2.3,4,4.8c0,0.4,0,0.8-0.1,1.1 C37.6,21.6,39.1,20.2,40.8,20.2"></path> <path class="st0" d="M34.6,29c-1.4,0-1.5,1.7-1.5,5.1c-1-2.3-2.8-4.7-4.8-4.7c-1.4,0-1.9,0.9-1.9,2.5c0,0.3,0,0.8,0.1,1.1 c0.2-0.6,0.7-0.8,1.3-0.8c1.4,0,3.1,1.1,4.2,2.6c-1.3-0.2-2.5-0.5-3.6-0.5c-0.7,0-1.2,0.1-1.7,0.3c-1,0.4-2.2,1.8-2.2,4 c0,0.3,0,0.7,0.1,1.1c1.1-2.6,4.2-3.7,6.2-3.7c0.4,0,0.7,0,0.9,0.1c-1,0.9-1.2,2.5-1.3,3.6c0,0.5-0.2,0.6-0.6,0.6 c0,1.1,0.9,2.7,0.9,3.5c0,0.3-0.2,0.6-0.3,0.6c0,1.4,1.4,2.5,1.4,3.4c0,0.2-0.1,0.4-0.2,0.5c0.1,0.6,1.7,1.6,1.9,2.1 c0.3,0.6,0.5,0.7,0.7,0.7c0.6,0,1.4-0.7,1.4-1.2c0-0.2-0.2-0.4-0.3-0.5c-0.6-0.5-1-1.4-1.2-2.1c-0.2,0-0.5-0.1-0.6-0.5 c-0.2-0.7-0.2-1.9-0.5-2.7c-0.4-0.1-0.6-0.3-0.6-1.1c0-0.4,0.3-2.1,0.3-2.7c-0.2,0-0.5-0.1-0.5-0.5c0-1,1-1.9,1.3-3.2 c1.9,1.4,2.3,2.8,2.3,4c0,0.7-0.1,1.3-0.2,1.9c1.4-0.7,3.4-1.7,3.4-3.8c0-1.2-0.6-2.6-4.3-3.1c1.1-0.4,2.6-0.7,3.8-0.7 c2.1,0,3.3,0.7,3.6,2.1c0.4-0.7,0.8-1.4,0.8-2.1c0-1.6-1.3-2.7-3-2.7c-2,0-3.8,1-5.7,2.3c0.9-1.8,1.4-2.8,2.5-2.8 c0.2,0,0.3,0,0.5,0.1C36.9,30.5,35.4,29,34.6,29"></path> <path class="st0" d="M89.8,52.7c1.6,0,2.9,2.1,2.9,4.6c0,2.7-1.2,5.5-3.5,7.5c0-4.4-5.4-3-5.4-6.2c0-1.4,1-2.3,2.2-2.3 c1,0,1.9,0.3,2.5,0.9c-0.6-0.6-0.9-1.3-0.9-2.1C87.6,53.8,88.4,52.7,89.8,52.7"></path> <path class="st0" d="M60.6,21.5c0.9,0.8,1.6,1.2,2.5,1.2c0.4,0,0.8-0.1,1-0.1c0.3,0,0.5,0.1,0.5,0.4c0,0.4-0.3,1-0.7,1.3 c0.4,0.2,0.8,0.2,1.3,0.2c1.9,0,4-1.2,4-4.1c0.4,0.5,0.6,1.6,0.6,2.1c0,3.6-2.6,4.9-5,4.9c-1.6,0-2.4-0.5-2.6-0.5 c-0.6,0-0.6,1.2-1,1.2c-0.8-0.1-1.4-1.8-1.4-3.6C59.7,23.5,60,22.4,60.6,21.5z M65.5,19.2c-0.3-0.4-1.2-0.7-1.7-0.7 c-1.4,0-2.4,1-2.6,1.9c-0.1-0.3-0.2-0.7-0.2-1.1c0-1.4,1-3.2,3.4-3.2c2.1,0,2.9,1.1,3.2,1.1c0.3,0,0.7-0.3,0.9-0.3 c0.4,0,0.4,0.6,0.4,1c0,1.3-0.6,3.6-2.1,4.4c-0.3-0.6-0.8-1.2-1.6-1.6c-0.2-0.1-0.3-0.3-0.3-0.5C64.8,19.8,65.1,19.4,65.5,19.2"></path> <path class="st0" d="M37.8,12c0,1.1,4.1,6.7,4.9,6.7c0.7,0,1.1-1.1,1.1-2.1c0-0.3-0.1-0.5-0.2-0.7c-0.6-0.8-4.7-4.1-5.7-4.1 C37.9,11.8,37.8,11.9,37.8,12z M13.8,8.6c0,0.7-2.5,2.8-3.4,2.8c-0.3,0-0.4-0.4-0.4-0.8c0-0.7,0.3-1.6,0.7-1.9 C11,8.5,12,8.3,12.8,8.3C13.2,8.3,13.8,8.4,13.8,8.6z M43.7,10.5c0-2-5.3-5.5-5.4-7.1c0-0.1,0.1-0.3,0.2-0.4c0.9-1,4.7-1.7,4.7-2.5 c0-0.4-0.8-0.4-1.2-0.4c-3,0-7.5,1.1-7.5,2.2c0,1.1,4,3.8,4,5.2c0,0.4-0.2,0.5-0.6,0.5c-1.1,0-3.5-1.3-4.7-1.3 c-0.5,0-0.7,0.4-0.7,0.9c0,1.6,1.9,4.6,1.9,5.4c0,0.1,0,0.2-0.2,0.2c-0.6,0-3.4-3.3-4.4-3.3c-0.4,0-0.4,0.5-0.4,1.2v1.1 c0,0.8,0,1.2-0.4,1.2c-0.9,0-1.2-2.4-2.1-2.4c-0.9,0-1,4.3-1.8,4.3c-1,0-0.1-4.7-1-4.7c-1,0-2.2,3.1-2.9,3.1 c-0.3,0-0.3-0.3-0.3-0.5c0-0.9,0.6-2.5,0.6-3.4c0-0.5-0.1-0.7-0.5-0.7c-1,0-3.2,1.6-4.1,1.6c-0.1,0-0.3-0.1-0.3-0.2 c0-0.8,3.6-3.3,3.6-4.4c0-1.1-4.9-0.4-4.9-1.6c0-1,3.5-2.1,3.5-3.2c0-0.9-4.2-1.4-5.8-1.4c-1.9,0-3,0.2-3,0.8 c0,0.9,4.4,1.1,4.4,1.9c0,0.7-4.6,2.7-4.6,3.8c0,1,6.4,0.1,6.4,1.1c0,1.1-5.6,5.9-5.6,7.5c0,0.4,0.3,0.5,0.6,0.5 c1.7,0,6.1-3.2,7.3-3.2c0.4,0,0.5,0.5,0.5,1c0,0.9-0.3,2.2-0.3,3.1c0,0.8,0.2,1.3,0.9,1.3c1.2,0,2.3-2.1,3.1-2.1c1,0,0.4,6.1,2,6.1 c1.3,0,1.9-6.5,2.8-6.5s1.5,1.9,2.3,1.9c1,0,0.5-3.3,1.6-3.3c1.1,0,4.4,3.9,5.9,3.9c0.5,0,0.6-0.4,0.6-0.8c0-1.7-2.4-5.7-2.4-6.9 c0-0.3,0.1-0.4,0.5-0.4c1.3,0,5,1.8,6.8,1.8C43.3,11.3,43.7,11,43.7,10.5z M40.2,4.1c0,0.6,2.1,1.9,3,1.9c0.6,0,0.7-0.8,0.7-1.5 c0-1-0.4-1-1.3-1C41.6,3.4,40.2,3.7,40.2,4.1z M32.5,0.7c0-0.2-1-0.4-2.3-0.4c-2.1,0-1.8,1.8-3.5,1.8c-1.7,0-1.3-1.8-3.4-1.8 c-1.3,0-2.5,0.2-2.5,0.5c0,0.4,1.5,0.2,1.5,1.3c0,1.1-3.3,1.5-3.3,2.2c0,0.2,0.3,0.3,0.6,0.3c0.7,0,1.9-0.3,2.7-0.3 c0.5,0,0.9,0.1,0.9,0.5c0,0.8-1.8,2.3-1.8,2.9c0,0.2,0.2,0.3,0.3,0.3c0.7,0,1.8-1.7,2.8-1.7c1.7,0,0.6,3.7,1.5,3.7 c1,0,0.6-3.6,2-3.6c1.1,0,2,2.5,2.8,2.5c0.2,0,0.4-0.2,0.4-0.4c0-0.7-1-2.1-1-3c0-0.6,0.4-0.8,0.9-0.8c0.8,0,1.8,0.5,2.3,0.5 c0.2,0,0.4-0.1,0.4-0.3c0-0.8-2.9-1.6-2.9-2.7C30.9,1.2,32.5,1.2,32.5,0.7"></path> <path class="st0" d="M90.6,6c0,2.9-2.1,5.1-6,5.8c0.4,0,0.8,0,1.2,0c4.5,0,6.1-2,6.1-3.7C92,7.1,91.5,6.3,90.6,6z M85.1,9.3 c0-2.3-5.6-2.9-5.6-3.4c0-0.4,3.1-1.1,4.7-1.2c-2.5-3.1-6-2.8-6-3.4c0-0.3,2.6-1,5-1c2,0,3.9,0.5,3.9,2c0,0.9-0.7,1.7-0.7,3 c0,0.7,0.4,1.3,1.3,1.3c1,0,1.2-1.1,1.2-2.2c0-0.9-0.2-1.7-0.2-2.1c0-1.4,0.9-2.3,2.3-2.3c1.1,0,1.4,0.5,3,0.5 C93.4,1.1,93,2.1,93,2.5c0,1.4,0.9,2.3,0.9,5.1c0,5.2-4.8,7-10.8,7c-1.6,0-3.4-0.1-5.1-0.4c-0.3,0-0.3-0.1-0.3-0.3 c0-0.4,2.3-0.7,2.3-2.8c0-0.8-0.3-1.6-0.3-1.9c0-0.2,0.1-0.3,0.3-0.3c0.5,0,1.5,1.9,3.3,1.9C83.9,11,85.1,10.8,85.1,9.3z M90.4,2.1 c0,0.5,0.4,0.8,0.8,0.8S92,2.6,92,2.1c0-0.5-0.4-0.8-0.8-0.8S90.4,1.6,90.4,2.1"></path> <path class="st0" d="M87.5,32.4c0-0.7-1.7-0.8-1.9-2.7c0-0.3-0.1-0.8-0.5-0.8c-0.6,0-0.1,1.8-0.8,1.8c-1.5,0-2-2.9-2.6-2.9 c-0.1,0-0.3,0.1-0.3,0.5c0,0.4,0.1,0.6,0.1,1c0,0.4-0.1,0.7-0.5,0.7c-0.9,0-1.7-2.1-2.4-2.1c-0.2,0-0.3,0.1-0.3,0.3 c0,0.4,0.7,1.1,0.7,1.5c0,0.8-2.1,0.4-2.1,1c0,0.3,0.3,0.4,0.7,0.4c0.7,0,1.8-0.3,2.3-0.3c0.3,0,0.8,0.1,0.8,0.5 c0,0.5-1.2,1-1.2,1.5c0,0.2,0.2,0.3,0.4,0.3c0.9,0,2.5-1.5,3.6-1.5c0.2,0,0.7,0.1,0.7,0.4c0,0.4-1.1,1.2-1.1,1.8 c0,0.2,0.1,0.4,0.3,0.4c0.6,0,1.4-1.5,2.5-1.5c0.4,0,1,0.2,1.4,0.2C87.4,32.6,87.5,32.5,87.5,32.4z M88.4,48.2 c0.5-1.6,1.2-2.8,2.3-4.6c-1.1-0.6-3.9-1.7-3.9-3.7c0-2.3,2.8-4,3.4-4c0.3,0,0.3,0.2,0.3,0.7c0,1.2-0.6,3.1-0.6,4.1 c0,0.9,0.6,1.8,1.1,1.8c0.6,0,2.1-2,2.1-3.9c0-3.5-3-4.5-4-4.5c-0.9,0-2.5,1.4-6.3,1.4c-7,0-8.6-7-8.6-10c0-0.1,0-0.2,0.1-0.2 c0.2,0,0.9,0.9,3.1,0.9c1.1,0,2.2-0.3,3.9-0.3c3.9,0,5.7,2.7,8.1,6.2c1.5,0.9,5,2.4,5,6.5c0,3.7-3.9,5.7-4.8,9.6 c1.5-0.2,2.4-2.8,3.9-2.8c0.8,0,1.1,0.6,1.1,1.6c0,1.4-0.8,3.6-2.4,4.9c0-0.1,0-0.3,0-0.5c0-0.9-0.4-2.2-1.4-2.2 c-1.6,0-2.2,1.8-3.1,3.2c-1-3.3-2.2-6.4-4.5-8.2c-2.3-1.9-6.3-0.9-6.3-4.3c0-0.9,0.6-2.2,0.6-3.3c0-0.4-0.1-0.7-0.3-1 c3.1,1.2,2,3.3,4,5.4c1.2,1.4,4.5,2.7,6.5,8.4c0-0.2,0.1-0.6,0.1-0.9c0-4.8-6.4-9.6-7-11.6c3.7,0.4,4.4,1.3,6.2,6.3 C87.2,44.5,88.4,47,88.4,48.2"></path> <path class="st0" d="M70.4,13.6c-2.3,0-3.8-1.1-3.8-1.7c0-0.3,0.2-0.5,0.5-0.5c0.7,0,2.3,1.1,2.8,1.1c0.1,0,0.2-0.1,0.2-0.3 c0-0.6-0.6-1.6-0.6-2.1c0-0.1,0.1-0.2,0.3-0.2c0.9,0,2.2,0.4,2.9,0.4c0.2,0,0.3-0.1,0.3-0.3c0-0.7-2.1-2.1-2.1-2.6 c0-0.4,2.6-1,2.6-1.6C73.6,5.2,70,5.7,70,5c0-0.5,0.7-1.2,0.7-1.6c0-0.2-0.1-0.2-0.4-0.2c-0.3,0-1.9,0.6-2.5,0.6 c-0.3,0-0.7-0.1-0.7-0.5c0-0.8,1.3-1.6,3.3-1.6c3.2,0,5.2,2.2,5.2,6C75.5,12.4,72.2,13.6,70.4,13.6z M64.1,7.4c0-0.4-1.3-1-1.3-1.4 c0-0.1,0.1-0.1,0.2-0.1c0.4,0,1,0.1,1.5,0.1c0.4,0,0.5-1.8,0.8-1.8c0.2,0,0.6,1.7,1,1.7c0.4,0,1.2-0.5,1.5-0.5c0.1,0,0.1,0,0.1,0.1 c0,0.2-0.8,1.1-0.8,1.4c0,0.3,1.8,0.7,1.8,0.9c0,0.3-1.9,0.3-1.9,0.6c0,0.2,0.7,1.1,0.7,1.4c0,0.1,0,0.1-0.1,0.1 c-0.3,0-1.3-0.5-1.6-0.5c-0.4,0-0.9,1.3-1.2,1.3c-0.1,0-0.2-0.1-0.2-0.3l-0.1-1.3c0-0.1-0.1-0.3-0.2-0.3c-0.4,0-1.1,0-1.4,0 c-0.2,0-0.2,0-0.2-0.1C62.7,8.5,64.1,7.6,64.1,7.4z M63.1,12.7c0.5,0,0.6,1.3,0.7,2c0.1,0.4,0.1,0.4,0.3,0.4c0.4,0,1-1.5,1.4-1.5 c0.6,0,2.3,1.7,5.1,1.7c4,0,7.7-2.8,7.7-7.7c0-4.7-3.3-7.5-8-7.5c-2.2,0-3.8,1.1-4.7,1.1C65.2,1.3,64.4,0,64,0 c-0.2,0-0.3,0.3-0.3,0.9c0,0.4,0,1.5-0.4,1.5c-0.8,0-3.8-2.3-3.8-1.4c0,0.8,2,3,2,3.6s-2,1.1-2,1.5c0,0.7,2.1,0.9,2.1,1.8 c0,0.9-2.2,1.6-2.2,2.3c0,0.6,2.2,0.2,2.2,0.9S60,14,60,14.7c0,0.2,0,0.2,0.2,0.2C60.8,14.9,62.6,12.7,63.1,12.7"></path> <path class="st0" d="M48.3,70.2c0,0.3-0.1,0.6-0.4,0.9c-0.4-0.7-1.4-1-1.8-1c-3.4,0-2.1,4.9-5.7,4.9c-1.5,0-1.6-0.2-2.2-0.2 c-0.2,0-0.4,0.1-0.4,0.3c0,0.9,1.2,2.9,4.6,2.9s6.6-2.1,6.6-4.6c0-0.4-0.1-0.9-0.3-1.3c0.1-0.2,0.5-0.3,0.8-0.3 c0.5,0,0.8,0.6,1.3,0.6c0.5,0,0.9-0.4,0.9-0.9c0-0.4-0.2-0.7-0.6-0.9c0.3-0.2,0.5-0.5,0.5-0.9c0-0.6-0.4-1.1-1-1.1 c-0.3,0-0.5,0.1-0.7,0.3c-0.1-0.6-0.4-1.1-1-1.1c-0.5,0-0.9,0.4-0.9,0.9C47.9,69.3,48.3,69.7,48.3,70.2"></path> <path class="st0" d="M30.3,64.2c2.6,0.7,3.9,2.1,4.2,3.7c0.3,1.6,0.6,2.9,1.2,3.6c0.8,0.9,2.4,1.7,3.8,1.7c1.2,0,2.1-0.4,2.1-1.5 c0-1.2-1.6-3.8-4-3.8c-0.2,0-0.5,0-0.9,0c-0.3,0-0.7-0.1-1-0.3c-0.5-0.5-0.7-2.9-1.7-4.4c-1.1-1.6-2.3-2.1-3.9-2.1 c-1.1,0-2.4,0.6-2.4,1.5C27.9,63.2,28.2,63.6,30.3,64.2z M39.5,71.5c-1,0-2.5-1.1-2.5-1.6c0-0.5,0.5-0.8,0.8-0.8 c0.8,0,2.3,1,2.3,1.9C40.1,71.2,39.9,71.5,39.5,71.5"></path> <path class="st0" d="M36.4,46c0-2.1,5-3.2,5-5.8c0-0.4-0.2-1.2-0.5-1.7c1.7,0.9,3,2.6,3,3.9c0,2.3-2.4,3.3-2.4,4.7 c0,1.6,2.5,1.9,2.5,3.9c0,1.7-2.4,3.6-2.4,5.8c0,1.7,1.2,3,3,3.3c-0.6,0.1-1.1,0.2-1.7,0.2c-3.3,0-6.7-2.7-6.7-6c0-1.6,0.7-3,1.7-4 c0.9,0.8,1.8,1.3,2.4,1.3c0.5,0,0.8-0.3,0.8-0.7C41.3,49.7,36.4,48.6,36.4,46z M46.9,62.5c-1.1,0.5-1.6,0.4-1.6,1.6 c0,0.4-0.1,1-0.1,1.3c0,0.4,0.1,0.6,0.5,0.6c1.2,0,3-2,3-3.7c0-0.5-0.3-0.7-0.6-0.7C48,61.6,47.7,62.2,46.9,62.5z M46.8,60.2 c0-1.5-3-1.5-3-3.7c0-0.6,0.4-1.5,1.1-2.5c0.3,1.7,1,2.6,2.5,3.1c2.9,1.1,3.3,2.7,3.3,4.5c0,2.9-2.1,6.6-7.4,6.6 c-4.3,0-7.3-3.8-7.3-7c0-0.9,0.2-1.9,0.8-1.9c0.5,0,0.7,0.4,1,0.8c1.5,1.5,3.1,1.9,5.4,1.9C45.2,61.9,46.8,61,46.8,60.2"></path> <path class="st0" d="M23.6,60.9c0.1,0.7-0.4,1.3-1.1,1.4c-0.7,0.1-1.3-0.4-1.4-1.1c-0.1-0.7,0.4-1.3,1.1-1.4S23.5,60.2,23.6,60.9z M17.5,62.2c0.1,1.1,1.2,2,2.4,1.8c0.4,0,0.8-0.2,1.1-0.3c0.3,1,1.1,1.7,2.3,1.6c1.2-0.2,2-1.1,1.9-2.3c0-0.3-0.1-0.5-0.2-0.8 c0,0,0.2,0,0.3,0c1.2-0.2,2-1.2,1.9-2.3c-0.1-1.2-1.2-2.1-2.3-1.9c-0.4,0.1-0.8,0.2-1.1,0.4c-0.3-1-1.2-1.8-2.5-1.6 c-1.1,0.2-1.9,1.2-1.8,2.4c0,0.2,0.1,0.4,0.2,0.7c0,0-0.2,0-0.3,0C18.3,59.9,17.3,60.9,17.5,62.2"></path> </g> </svg> 