<?xml version="1.0" encoding="UTF-8"?> <svg xmlns="http://www.w3.org/2000/svg" id="Layer_1" data-name="Layer 1" viewBox="0 0 205.96 194.38"><title>Consumers unintentionally purchasing counterfeits</title><path d="M75.37,76.37l52.79,38.36A65.26,65.26,0,0,1,22.57,38c12.71-17.5,31.17-26.9,52.8-26.9Z" transform="translate(-7.6 -8.62)" style="fill:#858f98;stroke:#fff;stroke-miterlimit:10;stroke-width:5px"></path><path d="M77.37,76.47l39-62.44A73.62,73.62,0,0,1,139.8,115.48c-.86,1.38-1.91,3-2.87,4.27Z" transform="translate(-7.6 -8.62)" style="fill:#ffb000;stroke:#fff;stroke-miterlimit:10"></path><path d="M75.37,76.37V11.12A61.71,61.71,0,0,1,110,21Z" transform="translate(-7.6 -8.62)" style="fill:#00263e;stroke:#fff;stroke-miterlimit:10;stroke-width:3px"></path><circle cx="67.4" cy="67.38" r="37.5" style="fill:#fff"></circle><line x1="125.9" y1="41.88" x2="162.9" y2="41.88" style="fill:none;stroke:#ffb000;stroke-miterlimit:10"></line><path d="M177.25,54.75l3.84-4.09c1-1,1.65-1.87,1.65-2.86a1.61,1.61,0,0,0-1.64-1.67,2.42,2.42,0,0,0-2.16,1.31L177.2,46.2a4.38,4.38,0,0,1,4.09-2.34,3.7,3.7,0,0,1,3.94,3.65c0,1.41-.45,2.51-2,4.16l-2.31,2.42,0,0h4.45v2.21h-8.05Z" transform="translate(-7.6 -8.62)" style="fill:#ffb000"></path><path d="M195.74,52.41a4.16,4.16,0,0,1-4.47,4.11c-2.53,0-4.44-2-4.44-5a7.87,7.87,0,0,1,6.53-7.9l.72,2c-2.21.63-3.71,1.66-4.43,3.38l0,0a4.81,4.81,0,0,1,2.25-.56A3.7,3.7,0,0,1,195.74,52.41Zm-2.4,0a1.86,1.86,0,0,0-2-1.88,2.82,2.82,0,0,0-2.14,1.12v.14a2.33,2.33,0,0,0,2.21,2.56A1.89,1.89,0,0,0,193.34,52.36Z" transform="translate(-7.6 -8.62)" style="fill:#ffb000"></path><path d="M196.6,47a3.64,3.64,0,1,1,3.64,3.6A3.5,3.5,0,0,1,196.6,47Zm5.4,0a1.76,1.76,0,1,0-3.51,0A1.76,1.76,0,1,0,202,47Zm-.63,9L207,43.28l1.79.78-5.67,12.73Zm4.92-3.09a3.64,3.64,0,1,1,3.63,3.6A3.5,3.5,0,0,1,206.29,52.92Zm5.42,0a1.77,1.77,0,1,0-1.77,1.89A1.77,1.77,0,0,0,211.71,52.93Z" transform="translate(-7.6 -8.62)" style="fill:#ffb000"></path><rect x="10.4" y="148.38" width="13" height="13" style="fill:#ffb000"></rect><rect x="68.4" y="148.38" width="13" height="13" style="fill:#00263e"></rect><rect x="10.4" y="181.38" width="13" height="13" style="fill:#858f98"></rect><path d="M38,193h1.32l3.82,5.61h0V193H44.5v7.81H43.15l-3.78-5.51h0v5.51H38Z" transform="translate(-7.6 -8.62)" style="fill:#00263e"></path><path d="M45.94,198.17a2.82,2.82,0,1,1,2.81,2.77A2.68,2.68,0,0,1,45.94,198.17Zm4.38,0a1.57,1.57,0,1,0-1.57,1.64A1.56,1.56,0,0,0,50.32,198.17Z" transform="translate(-7.6 -8.62)" style="fill:#00263e"></path><path d="M95.91,159.35h1.32l3.82,5.62h0v-5.62h1.32v7.82H101l-3.78-5.52h0v5.52H95.91Z" transform="translate(-7.6 -8.62)" style="fill:#00263e"></path><path d="M103.83,164.49a2.82,2.82,0,1,1,2.81,2.76A2.68,2.68,0,0,1,103.83,164.49Zm4.38,0a1.57,1.57,0,1,0-1.57,1.64A1.56,1.56,0,0,0,108.21,164.49Z" transform="translate(-7.6 -8.62)" style="fill:#00263e"></path><path d="M110.85,165.47v-2.63h-.66v-1h.66V160l1.23-.13v1.92h1.57v1h-1.57v2.51c0,.55.16.75.51.75a1.89,1.89,0,0,0,.8-.23l.32,1.06a2.47,2.47,0,0,1-1.37.32C111.42,167.25,110.85,166.67,110.85,165.47Z" transform="translate(-7.6 -8.62)" style="fill:#00263e"></path><path d="M117.26,166.47l.61-.92a2.07,2.07,0,0,0,1.56.63c.47,0,.74-.21.74-.53s-.35-.41-1-.65c-.88-.31-1.64-.71-1.64-1.76,0-.88.79-1.52,1.89-1.52a2.87,2.87,0,0,1,1.89.67l-.61,1a2,2,0,0,0-1.35-.57c-.24,0-.58.13-.58.46s.33.45.85.65c1.14.45,1.86.66,1.86,1.73,0,.9-.64,1.62-2,1.62A3.18,3.18,0,0,1,117.26,166.47Z" transform="translate(-7.6 -8.62)" style="fill:#00263e"></path><path d="M122.54,165.06V161.8h1.23v2.93c0,1.07.33,1.4,1.07,1.4s1.37-.6,1.37-1.76V161.8h1.23v5.37h-1.23v-.67l0,0a2.09,2.09,0,0,1-1.64.77C123.36,167.25,122.54,166.66,122.54,165.06Z" transform="translate(-7.6 -8.62)" style="fill:#00263e"></path><path d="M129,161.8h1.24v.8h0a2.06,2.06,0,0,1,1.66-.88h.15v1.38l-.37,0a1.42,1.42,0,0,0-1.46,1.56v2.54H129Z" transform="translate(-7.6 -8.62)" style="fill:#00263e"></path><path d="M137.82,164.89H133.9a1.48,1.48,0,0,0,1.57,1.24,1.67,1.67,0,0,0,1.36-.63l.85.74a2.82,2.82,0,1,1-2.36-4.52,2.51,2.51,0,0,1,2.53,2.7A4.41,4.41,0,0,1,137.82,164.89Zm-3.9-1h2.69a1.29,1.29,0,0,0-1.3-1.09A1.37,1.37,0,0,0,133.92,163.92Z" transform="translate(-7.6 -8.62)" style="fill:#00263e"></path><path d="M39.47,164.36,36.86,160h1.52l1.75,3h0l1.74-3h1.54l-2.63,4.36v3.45H39.47Z" transform="translate(-7.6 -8.62)" style="fill:#00263e"></path><path d="M48.2,165.53H44.28a1.5,1.5,0,0,0,1.58,1.25,1.67,1.67,0,0,0,1.35-.63l.86.74A2.87,2.87,0,0,1,43,165.13a2.6,2.6,0,0,1,2.69-2.77,2.51,2.51,0,0,1,2.53,2.7A4.22,4.22,0,0,1,48.2,165.53Zm-3.89-1H47a1.29,1.29,0,0,0-1.3-1.09A1.35,1.35,0,0,0,44.31,164.56Z" transform="translate(-7.6 -8.62)" style="fill:#00263e"></path><path d="M49.06,167.12l.61-.93a2.07,2.07,0,0,0,1.56.63c.47,0,.74-.21.74-.53s-.35-.41-1-.65c-.88-.31-1.64-.7-1.64-1.76,0-.88.79-1.52,1.89-1.52a2.83,2.83,0,0,1,1.89.68l-.61,1a2,2,0,0,0-1.35-.57c-.24,0-.58.13-.58.46s.33.45.85.65c1.14.45,1.86.66,1.86,1.73,0,.9-.64,1.63-2,1.63A3.23,3.23,0,0,1,49.06,167.12Z" transform="translate(-7.6 -8.62)" style="fill:#00263e"></path></svg> 