<?xml version="1.0" encoding="UTF-8"?> <svg xmlns="http://www.w3.org/2000/svg" id="Layer_1" data-name="Layer 1" viewBox="0 0 189 172"><title>Price, stock &amp;amp; location Icon_Teal_RGB</title><g style="opacity:0.8100000023841858"><rect x="60.5" y="164" width="69.3" height="8" style="fill:#009cb1"></rect><circle cx="9.1" cy="9.1" r="9.1" style="fill:orange"></circle><polygon points="189 147.5 3.5 147.5 3.5 26.2 14.7 26.2 14.7 136.3 177.8 136.3 177.8 14.7 26.2 14.7 26.2 3.5 189 3.5 189 147.5" style="fill:#009cb1"></polygon></g><g style="opacity:0.8100000023841858"><path d="M153.2,35.3V67.1H108.7V35.3h44.5m7.5-4.9H101.2V71.9h59.5V30.4Z" transform="translate(-0.9 -1.1)" style="fill:#009cb1"></path></g><g style="opacity:0.8100000023841858"><path d="M84.7,37.9v77.4H40.2V37.9H84.7m7.5-7.5H32.7v92.4H92.2V30.4Z" transform="translate(-0.9 -1.1)" style="fill:#009cb1"></path></g><g style="opacity:0.8100000023841858"><path d="M64.1,86.3v3.6h-3V86.2A11.18,11.18,0,0,1,55,83.1l2.5-3a7.91,7.91,0,0,0,5.4,2.4c1.5,0,2.6-.7,2.6-1.9,0-1.4-1-1.9-3.5-2.7-3.4-1-6.5-2.2-6.5-6.1,0-3.2,2.1-5.5,5.7-6V62.1h2.9V66a12.63,12.63,0,0,1,5.5,2.5l-2.4,3a8.22,8.22,0,0,0-4.7-1.7c-1.6,0-2.5.6-2.5,1.7s1,1.7,3.3,2.4c4.1,1.3,6.8,2.3,6.8,6.4C70.1,83.6,67.8,85.9,64.1,86.3Z" transform="translate(-0.9 -1.1)" style="fill:#009cb1"></path></g><g style="opacity:0.8100000023841858"><path d="M130.8,114.2l-7.9-11.8a9.22,9.22,0,0,1-1.5-5.1,8.89,8.89,0,0,1,.7-3.6l1.6.6a7.31,7.31,0,0,0-.6,3,7,7,0,0,0,1.3,4.2l6.4,9.7,6.5-9.7a7.63,7.63,0,0,0,1.2-4.2,7.77,7.77,0,0,0-7.7-7.7,7.87,7.87,0,0,0-4.2,1.2l-.9-1.4a9.22,9.22,0,0,1,5.1-1.5,9.39,9.39,0,0,1,9.4,9.4,9.22,9.22,0,0,1-1.5,5.1Zm3.5-16.9a3.4,3.4,0,1,0-3.4,3.4A3.44,3.44,0,0,0,134.3,97.3Zm-1,0a2.5,2.5,0,1,1-2.5-2.5A2.48,2.48,0,0,1,133.3,97.3Zm-6.5-6.6-.9-1.4a9.18,9.18,0,0,0-3.8,4.4l1.5.7A7.83,7.83,0,0,1,126.8,90.7Z" transform="translate(-0.9 -1.1)" style="fill:#009cb1"></path><path d="M130.8,115.4l-8.4-12.6a9.81,9.81,0,0,1-1.6-5.5,11.27,11.27,0,0,1,.5-3.2h0l.2-.4c0-.1.1-.2.1-.3l.3-.6h0a8.43,8.43,0,0,1,2.9-3.5h0l.6-.4a9.58,9.58,0,0,1,5.5-1.6A10.07,10.07,0,0,1,141,97.4a10.4,10.4,0,0,1-1.6,5.5Zm-8.2-20.8a7.46,7.46,0,0,0-.4,2.6,9.23,9.23,0,0,0,1.4,4.8l7.3,10.9,7.3-10.9A8.71,8.71,0,0,0,127,89.5l.1.2a8.38,8.38,0,0,1,10.8,12.1l-7,10.5-7-10.5a8.56,8.56,0,0,1-1.4-4.6,6.9,6.9,0,0,1,.4-2.5Zm1.9-.2-.1.2a6.46,6.46,0,0,0-.5,2.7,7,7,0,0,0,1.1,3.8l5.9,8.8,5.9-8.8a7,7,0,0,0,1.1-3.8,7,7,0,0,0-7-7,7.31,7.31,0,0,0-3.3.8l-.4.2c-.1,0-.1.1-.2.1l-.3.2A5.67,5.67,0,0,0,124.5,94.4Zm-1.4-1.1.2.1a7.1,7.1,0,0,1,2.3-2.8l-.1-.2A8.68,8.68,0,0,0,123.1,93.3Zm7.7,8.1a4.12,4.12,0,0,1-4.1-4.1,4.1,4.1,0,1,1,8.2,0A4.12,4.12,0,0,1,130.8,101.4Zm0-5.9a1.8,1.8,0,1,0,1.8,1.8A1.79,1.79,0,0,0,130.8,95.5Z" transform="translate(-0.9 -1.1)" style="fill:#009cb1"></path></g><g style="opacity:0.8100000023841858"><path d="M153.2,84.4v33.7H108.7V84.4h44.5m7.5-4.6H101.2v42.8h59.5V79.8Z" transform="translate(-0.9 -1.1)" style="fill:#009cb1"></path></g><g style="opacity:0.8100000023841858"><rect x="120.1" y="41.4" width="3.9" height="18.9" style="fill:#009cb1"></rect><rect x="112.8" y="46.6" width="3.9" height="13.7" style="fill:#009cb1"></rect><rect x="134.6" y="45.2" width="3.9" height="15.1" style="fill:#009cb1"></rect><rect x="127.3" y="50.4" width="3.9" height="9.9" style="fill:#009cb1"></rect><rect x="141.8" y="40" width="3.9" height="20.3" style="fill:#009cb1"></rect></g></svg> 