<?xml version="1.0" encoding="UTF-8"?> <svg xmlns="http://www.w3.org/2000/svg" id="Layer_1" data-name="Layer 1" viewBox="0 0 26.45 26.44"><defs><style>.cls-1{fill:#009ca6;}.cls-2{fill:#ffb000;}</style></defs><title>Cog Icon_RGB</title><path class="cls-1" d="M26.42,13.65V12.14h-2.6a10.59,10.59,0,0,0-2.58-6.22l1.84-1.84L22,3,20.17,4.85A10.59,10.59,0,0,0,14,2.27V-.33H12.44v2.6a10.62,10.62,0,0,0-9.87,9.87H0v1.51h2.6a10.61,10.61,0,0,0,2.58,6.22L3.31,21.71l1.07,1.07,1.84-1.84a10.51,10.51,0,0,0,6.22,2.57v2.61H14V23.51a10.51,10.51,0,0,0,6.22-2.57L22,22.78l1.07-1.07-1.84-1.84a10.61,10.61,0,0,0,2.58-6.22Zm-7.18,5.29a8.55,8.55,0,1,1,0-12.09A8.56,8.56,0,0,1,19.24,18.94Z" transform="translate(0.03 0.33)"></path><circle class="cls-2" cx="3.53" cy="3.68" r="1.71"></circle></svg> 