<?xml version="1.0" encoding="UTF-8"?> <!-- Generator: Adobe Illustrator 24.3.0, SVG Export Plug-In . SVG Version: 6.00 Build 0) --> <svg xmlns="http://www.w3.org/2000/svg" xmlns:xlink="http://www.w3.org/1999/xlink" version="1.1" id="Ebene_1" x="0px" y="0px" viewBox="0 0 164.8 51.1" style="enable-background:new 0 0 164.8 51.1;" xml:space="preserve"> <style type="text/css"> .st0{fill:#004077;} .st1{opacity:0.9;fill:#D3D9E4;} </style> <g> <path class="st0" d="M85.4,26.1c-0.9,0.4-2.2,0.9-4.6,0.9C73,27,72,19.9,72,15.4c0-3.7,0.5-9.7,6.2-9.7c4.4,0,5.8,3.2,6.3,5.2h0.9 l-0.3-5.6c-1.6-0.4-4-1-6.8-1c-7.6,0-9.7,4.8-9.7,11.4c0,7.6,3.4,12.9,10.5,12.9c2.6,0,4.6-0.3,6.4-1L85.4,26.1L85.4,26.1z M49.4,28.2h15.9l0.2-5.1h-0.9c-0.6,2.7-1.2,3.7-4.3,3.7h-2.4c-2.2,0-2.4-0.2-2.4-2.2V8.2c0-2.7,1.1-2.9,3.1-2.9V4.6h-9.3v0.7 c1.9,0,3.1,0.2,3.1,2.9v16.4c0,2.7-1.2,2.9-3.1,2.9v0.7C49.3,28.2,49.4,28.2,49.4,28.2z"></path> <path class="st0" d="M160.7,50.7h1.2v-3.5c0-2.3,0.9-3.8,2.9-3.8v-1.3c-1.9,0-2.6,1.3-2.8,1.8l0,0v-1.6h-1.2L160.7,50.7L160.7,50.7 z M153.8,44.7c0.1-0.6,0.5-1.6,1.8-1.6c1.2,0,1.6,1,1.6,1.6H153.8z M158.3,49.7c-0.4,0.1-0.7,0.2-1.7,0.2c-2.4,0-3-2.4-3-3.7v-0.5 h4.9v-0.4c0-1.8-1-3.2-2.9-3.2c-2.3,0-3.3,1.6-3.3,4.1c0,3.1,1.5,4.7,4.1,4.7c0.8,0,1.4-0.1,1.9-0.2V49.7z M147.3,50.7h1.2v-3.5 c0-2.3,0.9-3.8,2.9-3.8v-1.3c-1.9,0-2.6,1.3-2.8,1.8l0,0v-1.6h-1.2L147.3,50.7L147.3,50.7z M140.3,44.7c0.1-0.6,0.5-1.6,1.8-1.6 c1.2,0,1.6,1,1.6,1.6H140.3z M144.9,49.7c-0.4,0.1-0.7,0.2-1.7,0.2c-2.4,0-3-2.4-3-3.7v-0.5h4.9v-0.4c0-1.8-1-3.2-2.9-3.2 c-2.3,0-3.3,1.6-3.3,4.1c0,3.1,1.5,4.7,4.1,4.7c0.8,0,1.4-0.1,1.9-0.2V49.7z M126.2,50.7h1.2v-3.5c0-1.5,0.7-4,2.1-4 c1.2,0,1.2,1.3,1.2,2.7v4.7h1.2v-3.5c0-1.5,0.7-4,2.1-4c1.2,0,1.2,1.3,1.2,2.7v4.7h1.2v-6c0-1.4-0.7-2.6-2.2-2.6s-2.2,1.3-2.4,1.9 l0,0c-0.1-1.1-0.7-1.9-2.1-1.9c-1.7,0-2.2,1.5-2.4,2.1l0,0v-1.9h-1.2L126.2,50.7L126.2,50.7z M113.1,50.7h1.2v-3.5 c0-1.5,0.7-4,2.1-4c1.2,0,1.2,1.3,1.2,2.7v4.7h1.2v-3.5c0-1.5,0.7-4,2.1-4c1.2,0,1.2,1.3,1.2,2.7v4.7h1.2v-6c0-1.4-0.7-2.6-2.2-2.6 s-2.2,1.3-2.4,1.9l0,0c-0.1-1.1-0.7-1.9-2.1-1.9c-1.7,0-2.2,1.5-2.4,2.1l0,0v-1.9H113L113.1,50.7C113,50.7,113.1,50.7,113.1,50.7z M106.1,44.7c0.1-0.6,0.5-1.6,1.8-1.6c1.2,0,1.6,1,1.6,1.6H106.1z M110.7,49.7c-0.4,0.1-0.7,0.2-1.7,0.2c-2.4,0-3-2.4-3-3.7v-0.5 h4.9v-0.4c0-1.8-1-3.2-2.9-3.2c-2.3,0-3.3,1.6-3.3,4.1c0,3.1,1.5,4.7,4.1,4.7c0.8,0,1.4-0.1,1.9-0.2V49.7z M101.2,46.9 c0,1-0.1,1.2-0.3,1.7c-0.4,0.8-1.2,1.3-2,1.3c-0.6,0-1.2-0.4-1.2-1.2c0-1.4,1.9-1.8,2.8-1.8H101.2z M101.2,50.7h1.2v-5.9 c0-1.1-0.2-2.7-2.8-2.7c-2.3,0-3,1.3-3,2.4h1.3c0.1-0.7,0.4-1.3,1.7-1.3c0.6,0,1.3,0.2,1.5,1.2c0.1,0.3,0.1,1.2,0.1,1.6 c-0.3,0.1-0.5,0.1-0.8,0.1c-1.5,0-4,0.7-4,2.6c0,1.5,0.9,2.4,2.3,2.4c1.5,0,2.4-0.9,2.6-1.3l0,0L101.2,50.7L101.2,50.7z M94.9,48.7 c-0.4,0.3-1.4,1-2.9,1c-3,0-3.5-3.3-3.5-5.3c0-2.3,0.5-5,3.1-5c1.4,0,2.2,1,2.2,2.4h1.6c0-2-1.3-3.5-3.8-3.5 c-3.5,0-4.6,2.9-4.6,6.1c0,3,1,6.5,4.7,6.5c1.8,0,2.7-0.5,3.2-0.7L94.9,48.7L94.9,48.7z M74.8,50.7h6v-1h-4.6l4.4-6.4v-1H75v1h4.1 l-4.4,6.4L74.8,50.7L74.8,50.7z M66.8,50.7H68v-3.5c0-1.5,0.8-4,2.4-4c1.2,0,1.2,1.3,1.2,2.7v4.7h1.2v-6c0-1.4-0.7-2.6-2.2-2.6 c-1.9,0-2.4,1.5-2.6,2.1l0,0v-1.9h-1.2V50.7z M59.8,44.7c0.1-0.6,0.5-1.6,1.8-1.6c1.2,0,1.6,1,1.6,1.6H59.8z M64.4,49.7 c-0.4,0.1-0.7,0.2-1.7,0.2c-2.4,0-3-2.4-3-3.7v-0.5h4.9v-0.4c0-1.8-1-3.2-2.9-3.2c-2.3,0-3.3,1.6-3.3,4.1c0,3.1,1.5,4.7,4.1,4.7 c0.8,0,1.4-0.1,1.9-0.2C64.4,50.7,64.4,49.7,64.4,49.7z M51.8,50.7h5.8v-1.2h-4.4v-11h-1.4C51.8,38.5,51.8,50.7,51.8,50.7z"></path> <rect x="7.9" y="4.4" class="st1" width="23.8" height="23.8"></rect> <path class="st0" d="M29.5,26V0c0,16.3-13.2,26-29.5,26H29.5z"></path> </g> </svg> 