<?xml version="1.0" encoding="UTF-8"?> <!-- Generator: Adobe Illustrator 24.0.3, SVG Export Plug-In . SVG Version: 6.00 Build 0) --> <svg xmlns="http://www.w3.org/2000/svg" xmlns:xlink="http://www.w3.org/1999/xlink" id="Layer_1" x="0px" y="0px" viewBox="0 0 577.8 392.1" style="enable-background:new 0 0 577.8 392.1;" xml:space="preserve"> <style type="text/css"> .st0{opacity:0.81;} .st1{fill:#FFFFFF;} .st2{fill:#FCC503;} .st3{opacity:0.71;} </style> <g> <g class="st0"> <g> <g> <path class="st1" d="M316,276.9c-2.9,0-5.2-2.4-5.2-5.3V73.3c0-2.9,2.3-5.3,5.2-5.3c2.9,0,5.2,2.4,5.2,5.3v198.3 C321.2,274.6,318.9,276.9,316,276.9"></path> </g> <g> <path class="st1" d="M413.2,180.3H218.9c-2.9,0-5.2-2.3-5.2-5.2c0-2.9,2.3-5.2,5.2-5.2h194.4c2.9,0,5.2,2.3,5.2,5.2 C418.4,178,416.1,180.3,413.2,180.3"></path> </g> <g> <path class="st1" d="M316,282.9c-31.7,0-56.5-47.3-56.5-107.8c0-60.4,24.8-107.8,56.5-107.8c31.7,0,56.5,47.3,56.5,107.8 C372.5,235.5,347.7,282.9,316,282.9 M316,77.7c-25,0-46.1,44.6-46.1,97.4c0,52.8,21.1,97.4,46.1,97.4c25,0,46.1-44.6,46.1-97.4 C362.1,122.3,341,77.7,316,77.7"></path> </g> <g> <path class="st1" d="M385,257.8l-3.8-3.5c-8.8-7.9-18.7-14-29.6-18.3c-11.3-4.4-23.2-6.7-35.5-6.7c-24,0-47.1,8.8-65,24.9 l-3.9,3.5l-6.9-7.7l3.9-3.4c19.8-17.7,45.3-27.5,71.9-27.5c13.5,0,26.7,2.5,39.2,7.4c12.1,4.7,23.1,11.5,32.8,20.2l3.9,3.5 L385,257.8z"></path> </g> </g> <g> <path class="st1" d="M316,284.3c-60.2,0-109.2-49-109.2-109.2S255.8,65.9,316,65.9s109.2,49,109.2,109.2S376.2,284.3,316,284.3z M316,78.3c-53.4,0-96.9,43.5-96.9,96.9c0,53.4,43.5,96.9,96.9,96.9s96.9-43.5,96.9-96.9C412.9,121.7,369.5,78.3,316,78.3z"></path> </g> <g> <path class="st1" d="M384.9,93.6l-3.8,3.5c-8.8,7.9-18.7,14-29.6,18.3c-11.3,4.4-23.2,6.7-35.5,6.7c-24,0-47.1-8.8-65-24.9 l-3.9-3.5l-6.9,7.7l3.9,3.4c19.8,17.7,45.3,27.5,71.9,27.5c13.5,0,26.7-2.5,39.2-7.4c12.1-4.7,23.1-11.5,32.8-20.2l3.9-3.5 L384.9,93.6z"></path> </g> </g> <g class="st0"> <polygon class="st1" points="558.6,238.6 504.9,238.6 504.9,206.9 508.6,206.9 508.6,234.9 555,234.9 555,203.5 512,203.5 512,199.8 558.6,199.8 "></polygon> </g> <g class="st0"> <path class="st1" d="M509.7,201.6c0,1.6-1.3,3-3,3c-1.6,0-3-1.3-3-3c0-1.6,1.3-3,3-3C508.4,198.7,509.7,200,509.7,201.6"></path> </g> <g class="st0"> <rect x="521" y="242.1" class="st1" width="21.3" height="4.8"></rect> </g> <g> <path class="st2" d="M531.8,265.1L531.8,265.1c-2.9,0-5.7-0.3-8.4-0.8l0.9-4.8c2.5,0.5,5,0.7,7.5,0.7l0.2,0l-0.1,1.8L531.8,265.1z M537.7,264.7l-0.6-4.9c2.5-0.3,5-0.9,7.4-1.7l1.5,4.7C543.3,263.7,540.5,264.4,537.7,264.7z M517.6,262.9c-2.7-0.9-5.3-2-7.8-3.4 l2.4-4.3c2.2,1.2,4.6,2.2,7,3L517.6,262.9z M551.5,260.6l-2.1-4.4c2.3-1.1,4.5-2.4,6.5-3.9l2.9,4 C556.5,258,554.1,259.4,551.5,260.6z M504.7,256.4c-2.3-1.7-4.4-3.5-6.4-5.6l3.6-3.4c1.7,1.8,3.7,3.5,5.7,5L504.7,256.4z M563.4,252.5l-3.4-3.6c1.8-1.7,3.5-3.7,5-5.7l4,2.9C567.3,248.4,565.4,250.5,563.4,252.5z M494.5,246.2c-1.7-2.3-3.1-4.7-4.4-7.3 l4.4-2.1c1.1,2.3,2.4,4.5,3.9,6.5L494.5,246.2z M572.2,241.1l-4.3-2.4c1.2-2.2,2.2-4.6,3-7l4.7,1.5 C574.7,236,573.5,238.6,572.2,241.1z M488,233.4c-0.9-2.7-1.5-5.5-1.9-8.3l4.9-0.6c0.3,2.5,0.9,5,1.7,7.4L488,233.4z M577,227.5 l-4.8-0.9c0.5-2.5,0.7-5,0.7-7.6l0-0.2h4.9l0,0.1C577.8,221.9,577.5,224.8,577,227.5z M486.6,219.1l-0.9,0c0-2.9,0.3-5.7,0.8-8.4 l4.8,0.9c-0.4,2.4-0.7,5-0.7,7.5L486.6,219.1z M572.5,213.6c-0.3-2.5-0.9-5-1.7-7.4l4.7-1.5c0.9,2.7,1.5,5.5,1.9,8.3L572.5,213.6z M492.6,206.5l-4.7-1.5c0.9-2.7,2-5.3,3.3-7.8l4.3,2.4C494.4,201.7,493.4,204,492.6,206.5z M568.8,201.3c-1.1-2.3-2.4-4.5-3.9-6.5 l4-2.9c1.7,2.3,3.1,4.7,4.4,7.3L568.8,201.3z M498.4,195l-4-2.9c1.7-2.3,3.5-4.4,5.6-6.4l3.4,3.6C501.6,191,499.9,192.9,498.4,195 z M561.5,190.7c-1.7-1.8-3.7-3.5-5.7-5l2.9-4c2.3,1.7,4.4,3.5,6.4,5.6L561.5,190.7z M507.5,185.9l-2.9-4c2.3-1.7,4.7-3.1,7.3-4.4 l2.1,4.4C511.7,183.1,509.5,184.4,507.5,185.9z M551.3,182.9c-2.2-1.2-4.6-2.2-7-3l1.5-4.7c2.7,0.9,5.3,2,7.8,3.3L551.3,182.9z M518.9,180l-1.5-4.7c2.7-0.9,5.5-1.5,8.3-1.9l0.6,4.9C523.8,178.6,521.3,179.2,518.9,180z M539.2,178.6c-2.4-0.4-4.9-0.7-7.4-0.7 h-0.1V173h0.1c2.8,0,5.6,0.3,8.3,0.7L539.2,178.6z"></path> </g> <g class="st3"> <rect x="452.8" y="177.8" transform="matrix(0.1478 -0.989 0.989 0.1478 183.3537 624.4879)" class="st1" width="2.5" height="56.2"></rect> </g> <g> <path class="st2" d="M425.6,388.8c-0.2-2,1.2-3.9,3.3-4.1l0,0c2-0.2,3.9,1.2,4.1,3.3l0,0c0.2,2-1.2,3.9-3.3,4.1l0,0l0,0l0,0 c-0.1,0-0.3,0-0.4,0l0,0C427.4,392.1,425.8,390.7,425.6,388.8z M416.5,391.9L416.5,391.9L416.5,391.9c-2-0.3-3.4-2.1-3.2-4.2l0,0 c0.3-2,2.1-3.4,4.1-3.2l0,0c2,0.3,3.4,2.1,3.2,4.2l0,0c-0.2,1.8-1.8,3.2-3.7,3.2l0,0C416.8,391.9,416.6,391.9,416.5,391.9z M437.7,386.9c-0.7-1.9,0.3-4,2.2-4.7l0,0c1.9-0.7,4,0.3,4.7,2.2l0,0c0.7,1.9-0.3,4-2.2,4.8l0,0c-0.4,0.1-0.9,0.2-1.3,0.2l0,0 C439.7,389.3,438.3,388.4,437.7,386.9z M403.7,388.6L403.7,388.6L403.7,388.6c-1.9-0.8-2.8-2.9-2.1-4.8l0,0 c0.8-1.9,2.9-2.8,4.8-2.1l0,0c1.9,0.8,2.8,2.9,2.1,4.8l0,0c-0.6,1.5-2,2.3-3.4,2.3l0,0C404.6,388.8,404.2,388.7,403.7,388.6z M449.1,382c-1.2-1.7-0.7-4,1-5.1l0,0c1.7-1.1,4-0.7,5.1,1l0,0c1.1,1.7,0.7,4-1,5.1l0,0c-0.6,0.4-1.4,0.6-2.1,0.6l0,0 C450.9,383.7,449.8,383.1,449.1,382z M392.1,382.2c-1.7-1.2-2-3.5-0.8-5.1l0,0c1.2-1.7,3.5-2,5.2-0.9l0,0c1.7,1.2,2,3.5,0.9,5.2 l0,0c-0.7,1-1.9,1.5-3,1.5l0,0C393.5,382.9,392.8,382.7,392.1,382.2z M458.9,374.6c-1.5-1.4-1.7-3.7-0.3-5.2l0,0 c1.4-1.5,3.7-1.6,5.2-0.3l0,0c1.5,1.4,1.7,3.7,0.3,5.2l0,0c-0.7,0.8-1.7,1.2-2.8,1.2l0,0C460.5,375.6,459.6,375.3,458.9,374.6z M382.4,373.3c-1.3-1.6-1.1-3.9,0.4-5.2l0,0c1.5-1.3,3.9-1.1,5.2,0.4l0,0c1.3,1.5,1.1,3.9-0.4,5.2l0,0c-0.7,0.6-1.5,0.9-2.4,0.9 l0,0C384.2,374.6,383.2,374.2,382.4,373.3z M466.7,365.1c-1.8-1-2.5-3.2-1.5-5l0,0c0.9-1.8,3.2-2.5,5-1.5l0,0c1.8,1,2.5,3.2,1.5,5 l0,0c0,0,0,0,0,0l0,0c-0.7,1.2-1.9,2-3.3,2l0,0C467.8,365.5,467.2,365.4,466.7,365.1z M375.2,362.3c-0.9-1.8-0.2-4.1,1.6-5l0,0 c1.8-0.9,4-0.2,5,1.7l0,0c0.9,1.8,0.2,4-1.7,5l0,0c-0.5,0.3-1.1,0.4-1.6,0.4l0,0C377.1,364.4,375.8,363.6,375.2,362.3z M471.9,353.9c-2-0.5-3.2-2.5-2.7-4.5l0,0c0.5-2,2.5-3.2,4.5-2.7l0,0c2,0.5,3.2,2.5,2.7,4.5l0,0l0,0l0,0c-0.4,1.7-1.9,2.8-3.6,2.8 l0,0C472.5,354,472.2,354,471.9,353.9z M370.8,349.9L370.8,349.9L370.8,349.9c-0.4-2,0.8-4,2.8-4.4l0,0c2-0.5,4,0.8,4.4,2.8v0 c0.4,2-0.8,4-2.8,4.4l0,0c-0.3,0.1-0.5,0.1-0.8,0.1l0,0C372.7,352.8,371.1,351.6,370.8,349.9z M470.6,338.1L470.6,338.1 c0-2,1.7-3.7,3.7-3.7l0,0c2,0,3.7,1.7,3.7,3.7l0,0c0,2-1.7,3.7-3.7,3.7l0,0C472.2,341.8,470.6,340.2,470.6,338.1z M373.1,340.6 c-2,0-3.7-1.7-3.6-3.8l0,0c0-2,1.7-3.7,3.8-3.6l0,0c2,0,3.7,1.8,3.6,3.8l0,0C376.8,339,375.2,340.6,373.1,340.6L373.1,340.6 C373.2,340.6,373.1,340.6,373.1,340.6z M469.7,329.1c-0.4-2,0.9-3.9,2.9-4.3l0,0c2-0.4,3.9,0.9,4.3,2.9l0,0l0,0l0,0 c0.4,2-0.9,3.9-2.9,4.3l0,0c-0.2,0-0.5,0.1-0.7,0.1l0,0C471.6,332.1,470,330.9,469.7,329.1z M374,328.3c-2-0.5-3.1-2.6-2.6-4.5 l0,0c0.5-2,2.6-3.1,4.5-2.6l0,0c2,0.5,3.1,2.6,2.6,4.5l0,0c-0.5,1.6-1.9,2.7-3.6,2.7l0,0C374.6,328.4,374.3,328.4,374,328.3z M466.2,318.3c-0.9-1.9-0.1-4.1,1.8-4.9l0,0c1.9-0.9,4.1-0.1,4.9,1.8l0,0c0.9,1.8,0.1,4-1.8,4.9l0,0c-0.5,0.2-1,0.4-1.6,0.4l0,0 C468.1,320.4,466.8,319.6,466.2,318.3z M377.8,316.6c-1.8-1-2.4-3.3-1.4-5l0,0c1-1.8,3.3-2.4,5-1.4l0,0c1.8,1,2.4,3.2,1.4,5l0,0 c-0.7,1.2-1.9,1.9-3.2,1.9l0,0C379,317.1,378.4,316.9,377.8,316.6z M460.1,308.7L460.1,308.7c-1.3-1.6-1.1-3.9,0.5-5.2l0,0 c1.6-1.3,3.9-1,5.2,0.5l0,0c1.3,1.6,1,3.9-0.5,5.2l0,0c-0.7,0.5-1.5,0.8-2.3,0.8l0,0C461.9,310,460.9,309.6,460.1,308.7z M384.4,306.2c-1.5-1.4-1.6-3.7-0.2-5.2l0,0c1.4-1.5,3.7-1.6,5.2-0.1l0,0c1.5,1.4,1.5,3.7,0.1,5.2l0,0c-0.7,0.8-1.7,1.2-2.7,1.2 l0,0C386,307.2,385.1,306.8,384.4,306.2z M451.9,300.7c-1.6-1.2-2-3.5-0.7-5.2l0,0c1.2-1.6,3.5-2,5.2-0.7l0,0 c1.6,1.2,2,3.5,0.7,5.2l0,0c-0.7,1-1.8,1.5-3,1.5l0,0C453.4,301.5,452.6,301.2,451.9,300.7z M393.3,297.6c-1.1-1.7-0.6-4,1.1-5.1 l0,0c1.7-1.1,4-0.6,5.1,1.1l0,0c1.1,1.7,0.6,4-1.1,5.1l0,0c-0.6,0.4-1.3,0.6-2,0.6l0,0C395.2,299.3,394,298.7,393.3,297.6z M442.1,295c-1.9-0.8-2.8-3-2-4.8l0,0c0.8-1.9,3-2.8,4.9-2l0,0c0,0,0,0,0,0l0,0c1.9,0.8,2.8,3,2,4.8l0,0c-0.6,1.4-2,2.2-3.4,2.2 l0,0C443,295.3,442.6,295.2,442.1,295z M403.9,291.5c-0.7-1.9,0.4-4,2.3-4.7l0,0c1.9-0.7,4,0.4,4.7,2.3l0,0c0.7,1.9-0.4,4-2.3,4.7 l0,0c-0.4,0.1-0.8,0.2-1.2,0.2l0,0C405.9,294,404.5,293,403.9,291.5z M431.1,291.9c-2-0.3-3.4-2.2-3.1-4.2l0,0 c0.3-2,2.2-3.4,4.2-3.1l0,0c2,0.3,3.4,2.2,3.1,4.2l0,0c-0.3,1.8-1.9,3.1-3.7,3.1l0,0C431.5,291.9,431.3,291.9,431.1,291.9z M415.8,288.1c-0.2-2,1.3-3.8,3.4-4l0,0c2-0.2,3.8,1.3,4,3.4l0,0c0.2,2-1.3,3.8-3.4,4l0,0c-0.1,0-0.2,0-0.3,0l0,0 C417.5,291.5,415.9,290,415.8,288.1z"></path> </g> <g class="st3"> <rect x="372.4" y="273.3" transform="matrix(0.7071 -0.7071 0.7071 0.7071 -93.5492 348.2509)" class="st1" width="2.5" height="27.6"></rect> </g> <g class="st0"> <path class="st1" d="M411,311.9c0,1.6-1.3,2.9-2.9,2.9c-1.6,0-2.9-1.3-2.9-2.9c0-1.6,1.3-2.9,2.9-2.9 C409.7,309,411,310.3,411,311.9"></path> </g> <g class="st0"> <polygon class="st1" points="442.6,370.3 405.5,370.3 405.5,317.4 409.9,317.4 409.9,365.9 438.2,365.9 438.2,314.1 413.8,314.1 413.8,309.7 442.6,309.7 "></polygon> </g> <g class="st0"> <path class="st1" d="M427,359.2c0,1.6-1.3,2.9-2.9,2.9c-1.6,0-2.9-1.3-2.9-2.9c0-1.6,1.3-2.9,2.9-2.9 C425.7,356.3,427,357.6,427,359.2"></path> </g> <g class="st0"> <path class="st1" d="M429.9,323.2h-10.8c-1.2,0-2.2-1-2.2-2.2s1-2.2,2.2-2.2h10.8c1.2,0,2.2,1,2.2,2.2S431.1,323.2,429.9,323.2z"></path> </g> <g> <g> <path class="st2" d="M471.7,109.5c-1.1,0-2.3,0-3.4-0.1l0.5-7.4c1,0.1,2,0.1,2.9,0.1c0,0,0.1,0,0.1,0v3.8l0.2,3.6 C471.8,109.5,471.7,109.5,471.7,109.5z M471.7,105.9L471.7,105.9v-0.1V105.9z M477.8,109.2l-0.8-7.3c1-0.1,2-0.3,3-0.4l1.3,7.3 C480.1,108.9,478.9,109,477.8,109.2z M462.2,108.7c-1.1-0.2-2.3-0.4-3.4-0.7l1.7-7.2c1,0.2,1.9,0.4,2.9,0.6L462.2,108.7z M487.1,107.3l-2.1-7.1c1-0.3,1.9-0.6,2.9-0.9l2.5,6.9C489.3,106.6,488.2,107,487.1,107.3z M453,106.2c-1.1-0.4-2.2-0.8-3.2-1.3 l3-6.8c0.9,0.4,1.9,0.8,2.8,1.1L453,106.2z M496,103.8l-3.3-6.6c0.9-0.4,1.8-0.9,2.6-1.4l3.7,6.4 C498.1,102.7,497,103.3,496,103.8z M444.3,102.2c-1-0.6-2-1.2-3-1.8l4.1-6.2c0.8,0.5,1.7,1.1,2.6,1.6L444.3,102.2z M504.1,98.8 l-4.4-5.9c0.8-0.6,1.6-1.2,2.4-1.9l4.8,5.7C506,97.4,505.1,98.1,504.1,98.8z M436.5,96.7c-0.9-0.7-1.8-1.5-2.6-2.3l5.1-5.4 c0.7,0.7,1.5,1.4,2.2,2L436.5,96.7z M511.3,92.5l-5.3-5.1c0.7-0.7,1.4-1.5,2-2.2l5.7,4.8C512.9,90.8,512.1,91.7,511.3,92.5z M429.8,90c-0.7-0.9-1.5-1.8-2.1-2.7l5.9-4.4c0.6,0.8,1.2,1.6,1.9,2.4L429.8,90z M517.3,85.1l-6.1-4.1c0.6-0.8,1.1-1.7,1.6-2.6 l6.4,3.7C518.5,83.1,517.9,84.1,517.3,85.1z M424.3,82.2c-0.6-1-1.1-2-1.6-3.1l6.6-3.3c0.4,0.9,0.9,1.8,1.4,2.6L424.3,82.2z M521.8,76.7l-6.8-3c0.4-0.9,0.8-1.9,1.1-2.8l6.9,2.5C522.7,74.6,522.3,75.6,521.8,76.7z M420.2,73.6c-0.4-1.1-0.8-2.2-1.1-3.3 l7.1-2.1c0.3,1,0.6,1.9,0.9,2.9L420.2,73.6z M524.9,67.7l-7.2-1.7c0.2-1,0.4-2,0.6-2.9l7.3,1.3C525.4,65.4,525.1,66.5,524.9,67.7 z M417.7,64.4c-0.2-1.1-0.4-2.3-0.5-3.4l7.3-0.8c0.1,1,0.3,2,0.4,3L417.7,64.4z M526.3,58.2l-7.4-0.5c0.1-1,0.1-2,0.1-3v-0.2h7.4 v0.2C526.4,55.9,526.4,57.1,526.3,58.2z M416.9,54.9L416.9,54.9c0-1.2,0-2.3,0.1-3.5l7.4,0.4c-0.1,1-0.1,2-0.1,2.9L416.9,54.9z M518.7,49.3c-0.1-1-0.3-2-0.4-3l7.3-1.3c0.2,1.1,0.4,2.3,0.5,3.4L518.7,49.3z M425,46.6l-7.3-1.3c0.2-1.1,0.4-2.3,0.7-3.4 l7.2,1.7C425.4,44.6,425.2,45.6,425,46.6z M517.1,41.2c-0.3-1-0.6-1.9-0.9-2.8l6.9-2.6c0.4,1.1,0.8,2.2,1.1,3.3L517.1,41.2z M427.1,38.6l-6.9-2.5c0.4-1.1,0.8-2.2,1.3-3.2l6.8,2.9C427.8,36.8,427.4,37.7,427.1,38.6z M514,33.6c-0.4-0.9-0.9-1.8-1.4-2.6 l6.4-3.7c0.6,1,1.1,2,1.7,3L514,33.6z M430.6,31.2l-6.4-3.7c0.6-1,1.2-2,1.8-3l6.2,4.1C431.6,29.4,431.1,30.3,430.6,31.2z M509.7,26.5c-0.6-0.8-1.2-1.6-1.9-2.4l5.6-4.8c0.7,0.9,1.5,1.8,2.2,2.7L509.7,26.5z M435.3,24.4l-5.7-4.7 c0.7-0.9,1.5-1.8,2.3-2.6l5.4,5.1C436.6,22.9,435.9,23.6,435.3,24.4z M504.2,20.4c-0.7-0.7-1.5-1.4-2.2-2l4.7-5.7 c0.9,0.7,1.8,1.5,2.6,2.3L504.2,20.4z M441.1,18.5l-4.8-5.6c0.9-0.7,1.8-1.5,2.7-2.2l4.4,5.9C442.7,17.3,441.9,17.9,441.1,18.5z M497.8,15.2c-0.8-0.5-1.7-1.1-2.6-1.6l3.7-6.4c1,0.6,2,1.2,3,1.8L497.8,15.2z M447.9,13.8l-3.7-6.4c1-0.6,2-1.1,3-1.6l3.3,6.6 C449.6,12.8,448.7,13.3,447.9,13.8z M490.5,11.3c-0.9-0.4-1.9-0.8-2.8-1.1l2.5-7c1.1,0.4,2.2,0.8,3.2,1.3L490.5,11.3z M455.3,10.3l-2.5-6.9c1.1-0.4,2.2-0.8,3.3-1.1l2.1,7.1C457.2,9.6,456.3,9.9,455.3,10.3z M482.7,8.7c-1-0.2-2-0.4-2.9-0.6 l1.2-7.3c1.1,0.2,2.3,0.4,3.4,0.7L482.7,8.7z M463.3,8.1L462,0.8c1.1-0.2,2.3-0.4,3.4-0.5l0.8,7.3C465.3,7.8,464.3,8,463.3,8.1z M474.5,7.5c-1-0.1-1.9-0.1-2.9-0.1h-0.1V0h0.1c1.1,0,2.2,0,3.3,0.1L474.5,7.5z"></path> </g> <g class="st0"> <polygon class="st1" points="456.8,94.3 456.7,77.2 444.2,77.2 444.2,41.2 448.4,41.2 448.4,73 460.8,73 460.9,77.7 463.4,73 497,73 497,37.2 452.6,37.2 452.6,33 501.2,33 501.2,77.2 465.9,77.2 "></polygon> </g> </g> <g class="st3"> <rect x="405.3" y="102.1" transform="matrix(0.7071 -0.7071 0.7071 0.7071 49.6514 326.5948)" class="st1" width="27.6" height="2.5"></rect> </g> <g> <g> <g> <path class="st2" d="M150.1,293.6c-65.9,0-119.6-53.6-119.6-119.6c0-23.7,6.9-46.6,20-66.2l14.5,9.7 c-11.2,16.8-17.1,36.3-17.1,56.6c0,56.3,45.8,102.1,102.1,102.1c56.3,0,102.1-45.8,102.1-102.1c0-56.3-45.8-102.1-102.1-102.1 c-18.6,0-36.8,5-52.6,14.6l-9-14.9c18.5-11.2,39.8-17.1,61.6-17.1c65.9,0,119.6,53.6,119.6,119.6 C269.6,239.9,216,293.6,150.1,293.6"></path> </g> <g> <rect x="-9.1" y="287.4" transform="matrix(0.7071 -0.7071 0.7071 0.7071 -196.749 117.2164)" class="st2" width="104.5" height="17.4"></rect> </g> <g class="st3"> <path class="st1" d="M86.2,93c0,7.5-6.1,13.5-13.5,13.5c-7.5,0-13.5-6.1-13.5-13.5c0-7.5,6.1-13.5,13.5-13.5 C80.2,79.5,86.2,85.6,86.2,93"></path> </g> </g> </g> <g class="st0"> <path class="st1" d="M449.3,35.1c0,1.6-1.3,3-3,3c-1.6,0-3-1.3-3-3c0-1.6,1.3-3,3-3C448,32.1,449.3,33.5,449.3,35.1"></path> </g> </g> </svg> 