<?xml version="1.0" encoding="UTF-8"?> <!-- Generator: Adobe Illustrator 24.0.2, SVG Export Plug-In . SVG Version: 6.00 Build 0) --> <svg xmlns="http://www.w3.org/2000/svg" xmlns:xlink="http://www.w3.org/1999/xlink" id="Layer_1" x="0px" y="0px" viewBox="0 0 616.9 369.4" style="enable-background:new 0 0 616.9 369.4;" xml:space="preserve"> <style type="text/css"> .st0{fill:#FFC800;stroke:#FFC800;stroke-width:0.526;stroke-miterlimit:10;} .st1{opacity:0.81;} .st2{fill:#FFFFFF;} .st3{fill:none;} .st4{opacity:0.81;fill:none;stroke:#FFFFFF;stroke-width:2;stroke-miterlimit:10;} .st5{opacity:0.71;} .st6{fill:none;stroke:#FFFFFF;stroke-width:1.9584;stroke-miterlimit:10;} .st7{fill:#FFC800;} </style> <g> <path class="st0" d="M538.7,135.8L538.7,135.8L538.7,135.8c-3-0.4-5-3.2-4.6-6.1l0,0c0.4-3,3.2-5,6.1-4.6l0,0c3,0.4,5,3.1,4.6,6.1 l0,0c-0.4,2.7-2.7,4.7-5.4,4.7l0,0C539.2,135.9,538.9,135.9,538.7,135.8z M552,131.2c-0.4-3,1.6-5.7,4.6-6.1l0,0 c3-0.4,5.7,1.6,6.1,4.6l0,0c0.4,3-1.6,5.7-4.6,6.1l0,0c-0.3,0-0.5,0.1-0.8,0.1l0,0C554.7,135.9,552.4,133.9,552,131.2z M519.9,130.4L519.9,130.4L519.9,130.4c-2.7-1.2-3.9-4.5-2.7-7.2l0,0c1.2-2.7,4.5-3.9,7.2-2.7l0,0c2.7,1.2,3.9,4.4,2.7,7.2l0,0 c-0.9,2-2.9,3.2-4.9,3.2l0,0C521.4,130.9,520.6,130.7,519.9,130.4z M569.7,127.6c-1.3-2.7-0.1-5.9,2.6-7.2l0,0 c2.7-1.2,5.9-0.1,7.2,2.6l0,0c1.3,2.7,0.1,5.9-2.6,7.2l0,0c-0.7,0.3-1.5,0.5-2.3,0.5l0,0C572.6,130.7,570.6,129.6,569.7,127.6z M503.5,119.8L503.5,119.8L503.5,119.8c-2.3-2-2.5-5.4-0.5-7.6l0,0c2-2.3,5.4-2.5,7.6-0.5l0,0c2.3,2,2.5,5.4,0.6,7.6l0,0 c-1.1,1.2-2.6,1.9-4.1,1.9l0,0C505.7,121.2,504.5,120.7,503.5,119.8z M585.6,119.1c-2-2.2-1.7-5.7,0.5-7.6l0,0 c2.2-2,5.7-1.7,7.6,0.5l0,0c2,2.2,1.7,5.7-0.5,7.6l0,0c-1,0.9-2.3,1.3-3.6,1.3l0,0C588.2,120.9,586.7,120.3,585.6,119.1z M490.7,105.1c-1.6-2.5-0.9-5.9,1.6-7.5l0,0c2.5-1.6,5.9-0.9,7.5,1.6l0,0c1.6,2.5,0.9,5.9-1.6,7.5l0,0c-0.9,0.6-1.9,0.9-2.9,0.9 l0,0C493.5,107.6,491.7,106.7,490.7,105.1z M598.5,106.4c-2.5-1.6-3.3-4.9-1.7-7.5l0,0c1.6-2.5,5-3.3,7.5-1.7l0,0 c2.5,1.6,3.3,4.9,1.7,7.5l0,0c-1,1.6-2.8,2.5-4.6,2.5l0,0C600.4,107.3,599.4,107,598.5,106.4z M482.6,87.3L482.6,87.3L482.6,87.3 c-0.8-2.9,0.8-5.9,3.7-6.7l0,0c2.9-0.8,5.9,0.8,6.7,3.7l0,0c0.8,2.9-0.8,5.9-3.7,6.7l0,0c-0.5,0.1-1,0.2-1.5,0.2l0,0 C485.4,91.2,483.2,89.7,482.6,87.3z M607.3,90.7c-2.9-0.8-4.5-3.8-3.7-6.7l0,0c0.8-2.9,3.8-4.5,6.7-3.7l0,0 c2.9,0.8,4.5,3.8,3.7,6.7l0,0c-0.7,2.4-2.9,3.9-5.2,3.9l0,0C608.3,90.9,607.8,90.8,607.3,90.7z M485.2,73.4c-3,0-5.4-2.4-5.4-5.4 l0,0l0,0l0,0c0-3,2.4-5.4,5.4-5.4l0,0c3,0,5.4,2.4,5.4,5.4l0,0C490.6,71,488.2,73.4,485.2,73.4L485.2,73.4 C485.2,73.4,485.2,73.4,485.2,73.4z M605.8,67.7L605.8,67.7c0-3,2.4-5.4,5.4-5.5l0,0c3,0,5.4,2.4,5.4,5.4l0,0c0,3-2.4,5.4-5.4,5.4 l0,0c0,0,0,0,0,0l0,0C608.2,73.1,605.8,70.7,605.8,67.7z M486.3,55.4c-2.9-0.9-4.5-3.9-3.7-6.7l0,0c0.8-2.9,3.9-4.5,6.7-3.7l0,0 c2.9,0.9,4.5,3.9,3.7,6.7l0,0c-0.7,2.4-2.8,3.9-5.2,3.9l0,0C487.3,55.6,486.8,55.6,486.3,55.4z M603.3,51.4 c-0.9-2.9,0.8-5.9,3.6-6.8l0,0c2.9-0.9,5.9,0.7,6.8,3.6l0,0c0.9,2.9-0.8,5.9-3.6,6.8l0,0c-0.5,0.2-1,0.2-1.6,0.2l0,0 C606.2,55.3,604,53.8,603.3,51.4z M492.4,38.4c-2.5-1.6-3.2-5-1.6-7.5l0,0c1.6-2.5,5-3.2,7.5-1.6l0,0c2.5,1.6,3.2,5,1.6,7.5l0,0 c-1,1.6-2.8,2.5-4.5,2.5l0,0C494.3,39.3,493.3,39,492.4,38.4z M596.4,36.6c-1.6-2.5-0.9-5.9,1.6-7.5l0,0c2.5-1.6,5.9-0.9,7.5,1.6 l0,0c1.6,2.5,1,5.9-1.5,7.5l0,0c-0.9,0.6-2,0.9-3,0.9l0,0C599.1,39,597.4,38.1,596.4,36.6z M503.1,23.9c-2-2.3-1.7-5.7,0.6-7.6l0,0 l0,0l0,0c2.3-2,5.7-1.7,7.6,0.6l0,0c1.9,2.3,1.7,5.7-0.6,7.6l0,0c-1,0.9-2.3,1.3-3.5,1.3l0,0C505.7,25.8,504.1,25.1,503.1,23.9z M585.5,24.2c-2.3-1.9-2.6-5.4-0.6-7.6l0,0c1.9-2.3,5.4-2.6,7.6-0.6l0,0c2.3,1.9,2.6,5.4,0.6,7.6l0,0c-1.1,1.3-2.6,1.9-4.1,1.9l0,0 C587.7,25.5,586.5,25.1,585.5,24.2z M517.4,12.9c-1.2-2.7,0-5.9,2.7-7.2l0,0c0,0,0,0,0,0l0,0c2.7-1.2,5.9,0,7.2,2.7l0,0 c1.2,2.7,0,5.9-2.7,7.2l0,0c-0.7,0.3-1.5,0.5-2.2,0.5l0,0C520.3,16.1,518.3,14.9,517.4,12.9z M571.6,15.5c-2.7-1.2-4-4.4-2.8-7.1 l0,0c1.2-2.7,4.4-4,7.1-2.8l0,0c2.7,1.2,4,4.4,2.8,7.1l0,0c-0.9,2-2.9,3.2-5,3.2l0,0C573,15.9,572.3,15.8,571.6,15.5z M534.2,6.4 c-0.4-3,1.7-5.7,4.6-6.1l0,0c3-0.4,5.7,1.7,6.1,4.6l0,0c0.4,3-1.7,5.7-4.6,6.1l0,0c-0.2,0-0.5,0.1-0.8,0.1l0,0 C536.9,11.1,534.6,9.2,534.2,6.4z M555.7,11c-3-0.4-5-3.1-4.7-6.1l0,0c0.4-3,3.1-5,6.1-4.7l0,0l0,0l0,0c3,0.4,5,3.1,4.7,6.1l0,0 c-0.4,2.7-2.7,4.7-5.4,4.7l0,0C556.2,11.1,556,11.1,555.7,11z"></path> <g class="st1"> <path class="st2" d="M539.3,60.4c-1.5,0-2.8-1.2-2.8-2.8c0-1.5,1.2-2.8,2.8-2.8s2.8,1.2,2.8,2.8C542,59.2,540.8,60.4,539.3,60.4 M539.3,57.4c-0.1,0-0.2,0.1-0.2,0.2c0,0.1,0.1,0.2,0.2,0.2c0.1,0,0.2-0.1,0.2-0.2C539.5,57.5,539.4,57.4,539.3,57.4"></path> <path class="st2" d="M556.9,60.4c-1.5,0-2.8-1.2-2.8-2.8c0-1.5,1.2-2.8,2.8-2.8c1.5,0,2.8,1.2,2.8,2.8 C559.7,59.2,558.4,60.4,556.9,60.4 M556.9,57.4c-0.1,0-0.2,0.1-0.2,0.2c0,0.1,0.1,0.2,0.2,0.2c0.1,0,0.2-0.1,0.2-0.2 C557.1,57.5,557,57.4,556.9,57.4"></path> <g> <polygon class="st2" points="574.1,95.7 522,95.7 522,52.9 526.2,52.9 526.2,91.5 569.9,91.5 569.9,48.6 530.5,48.6 530.5,44.4 574.1,44.4 "></polygon> <path class="st2" d="M558.4,59h-3V42.5c0-4-3.3-7.3-7.3-7.3s-7.3,3.3-7.3,7.3V59h-3V42.5c0-5.7,4.6-10.3,10.3-10.3 s10.3,4.6,10.3,10.3V59z"></path> <rect x="536.5" y="54.9" class="st3" width="5.5" height="5.5"></rect> <rect x="554.1" y="54.9" class="st3" width="5.5" height="5.5"></rect> <path class="st2" d="M527.5,46.5c0,1.9-1.5,3.4-3.4,3.4c-1.9,0-3.4-1.5-3.4-3.4c0-1.9,1.5-3.4,3.4-3.4 C526,43.1,527.5,44.6,527.5,46.5"></path> </g> </g> <path class="st0" d="M514.6,369.1c-0.4,0-0.8,0-1.2,0l0.1-9.6c5.2,0.1,10.3-0.4,15.4-1.3l1.7,9.5 C525.4,368.6,520,369.1,514.6,369.1z M496.1,367.2c-5.7-1.2-11.2-3-16.5-5.2l3.8-8.8c4.7,2,9.7,3.6,14.7,4.7L496.1,367.2z M547.3,362.9l-3.6-8.9c4.8-1.9,9.4-4.3,13.7-7.1l5.2,8.1C557.9,358.1,552.7,360.7,547.3,362.9z M464.4,353.6 c-4.7-3.3-9.2-7-13.2-11.1l-0.1-0.1l2.8-2.5l4.1-4.1l0.1,0.1v0c3.6,3.7,7.6,7,11.8,9.9L464.4,353.6z M576.2,344.1l-2-2.2l-4.7-4.7 l0.1-0.1h0c3.7-3.6,7-7.5,9.9-11.7l7.9,5.5c-3.2,4.7-7,9.1-11.1,13.2L576.2,344.1z M440.4,328.9c-3.2-4.8-5.8-10-8-15.4l8.9-3.6 c1.9,4.8,4.3,9.4,7.1,13.7L440.4,328.9z M595.9,315.7l-8.8-3.8c2-4.7,3.6-9.7,4.7-14.7l9.4,2C599.9,304.8,598.1,310.3,595.9,315.7z M427.6,296.8c-1-5.3-1.5-10.7-1.5-16.1l0-1.1l9.6,0.1l0,1c0,4.8,0.4,9.7,1.3,14.4L427.6,296.8z M603,281.9l-9.6-0.1 c0-0.4,0-0.7,0-1.1c0-4.8-0.4-9.6-1.3-14.3l9.5-1.7c1,5.3,1.5,10.7,1.5,16C603,281.1,603,281.5,603,281.9z M437.4,264.3l-9.4-2 c1.2-5.7,3-11.2,5.2-16.5l8.8,3.8C440.1,254.3,438.5,259.2,437.4,264.3z M587.9,251.5c-1.9-4.8-4.3-9.4-7.1-13.7l8.1-5.2 c3.2,4.9,5.8,10,8,15.4L587.9,251.5z M449.5,236l-7.9-5.5c3.3-4.7,7-9.2,11.2-13.3l0.2-0.2l6.7,6.9l-0.2,0.1 C455.8,227.8,452.4,231.8,449.5,236z M571.2,225.7c-0.1-0.1-0.1-0.1-0.2-0.2c-3.6-3.7-7.5-7-11.6-9.8l5.5-7.9 c4.7,3.2,9.1,7,13.1,11.1l0.1,0.2L571.2,225.7z M471.7,214.4l-5.2-8.1c4.9-3.1,10-5.8,15.4-8l3.5,8.9 C480.7,209.2,476.1,211.6,471.7,214.4z M545.8,208.2c-4.7-2-9.7-3.6-14.7-4.7l2-9.4c5.7,1.2,11.2,3,16.5,5.3L545.8,208.2z M500.3,203.1l-1.7-9.5c5.7-1,11.5-1.5,17.3-1.4l-0.1,9.6C510.6,201.7,505.4,202.2,500.3,203.1z"></path> <g> <g class="st1"> <g> <path class="st2" d="M516.3,298.1c-2.7,0-4.8-2.5-4.8-5.4c0-3,2.2-5.4,4.8-5.4c2.6,0,4.7,2.4,4.7,5.4 C521.1,295.7,518.9,298.1,516.3,298.1z M519.7,283.5l-6.7,0l-1-27.4l8.8,0L519.7,283.5z"></path> </g> </g> <g class="st1"> <polygon class="st2" points="566.8,311.1 464.3,310.8 509.3,233.5 514,236.3 473.8,305.3 557.3,305.6 517.6,236.3 522.4,233.6 "></polygon> </g> <g class="st1"> <circle class="st2" cx="515.8" cy="228.7" r="4.5"></circle> </g> </g> <line class="st4" x1="310.1" y1="165.1" x2="473.1" y2="102.1"></line> <line class="st4" x1="310.1" y1="165.1" x2="417.1" y2="229.1"></line> <g> <g class="st5"> <path class="st6" d="M65.2,283.5"></path> </g> <g class="st5"> <path class="st6" d="M64.5,184"></path> </g> <g class="st1"> <path class="st6" d="M46.8,170.4"></path> </g> <g class="st1"> <path class="st6" d="M60.5,278.1"></path> </g> <g class="st1"> <path class="st6" d="M43.1,148"></path> </g> <g class="st1"> <path class="st6" d="M47.1,132.6"></path> </g> <g class="st1"> <path class="st6" d="M177.6,166.6"></path> </g> <g class="st1"> <path class="st6" d="M224.3,212.5"></path> </g> <g class="st5"> <path class="st6" d="M172.8,113.6"></path> </g> <g class="st5"> <path class="st6" d="M175.2,180.8"></path> </g> <g class="st5"> <path class="st6" d="M223.1,219.4"></path> </g> <g class="st5"> <path class="st6" d="M309.8,223.1"></path> </g> <g class="st1"> <path class="st6" d="M179.2,138.1"></path> </g> <g class="st1"> <path class="st6" d="M308.6,216.8"></path> </g> <g class="st1"> <g> <path class="st2" d="M87,181.1c-8.6,0-15.6-7-15.6-15.6c0-1.6,0.2-3.2,0.7-4.7l4.2,1.3c-0.3,1.1-0.5,2.2-0.5,3.4 c0,6.2,5,11.2,11.2,11.2c6.2,0,11.2-5,11.2-11.2c0-6.2-5-11.2-11.2-11.2c-0.9,0-1.8,0.1-2.6,0.3l-1-4.3c1.2-0.3,2.4-0.4,3.6-0.4 c8.6,0,15.6,7,15.6,15.6C102.7,174.1,95.7,181.1,87,181.1"></path> </g> <g> <path class="st2" d="M110.3,208.9H63.7v-2.2c0-12.8,10.4-23.3,23.3-23.3c12.8,0,23.3,10.4,23.3,23.3V208.9z M68.3,204.5h37.4 c-1.1-9.3-9.1-16.6-18.7-16.6C77.4,187.8,69.4,195.1,68.3,204.5"></path> </g> <g> <path class="st2" d="M77.9,152.1c2,0,3.6,1.6,3.6,3.6c0,2-1.6,3.6-3.6,3.6c-2,0-3.6-1.6-3.6-3.6 C74.3,153.7,75.9,152.1,77.9,152.1"></path> </g> </g> <g class="st1"> <g> <rect x="174.7" y="171.9" class="st2" width="9.3" height="35.9"></rect> </g> <g> <rect x="191.7" y="189" class="st2" width="9.3" height="18.9"></rect> </g> <g> <rect x="208.8" y="179.1" class="st2" width="9.3" height="28.7"></rect> </g> <g> <rect x="225.9" y="169.2" class="st2" width="9.3" height="38.6"></rect> </g> <g> <rect x="242.9" y="179.1" class="st2" width="9.3" height="28.7"></rect> </g> <g> <g> <rect x="140.6" y="191.6" class="st2" width="9.3" height="16.2"></rect> </g> <g> <rect x="157.6" y="181.7" class="st2" width="9.3" height="26.1"></rect> </g> <g> <rect x="260" y="169.2" class="st2" width="9.3" height="38.6"></rect> </g> <g> <polygon class="st2" points="147.5,167.8 142.8,159.8 180,137.9 197.1,154.6 230.9,135.8 247.5,148.4 261.7,136.8 267.5,144 247.7,160.2 230.1,146.9 195.6,166 178.6,149.4 "></polygon> </g> </g> </g> <g class="st1"> <g> <rect x="60.9" y="237.2" class="st2" width="96.5" height="5.2"></rect> </g> <g> <rect x="60.9" y="252.2" class="st2" width="96.5" height="5.2"></rect> </g> <g> <rect x="60.9" y="267.2" class="st2" width="96.5" height="5.2"></rect> </g> </g> <g class="st1"> <g> <rect x="178.8" y="237.2" class="st2" width="96.5" height="5.2"></rect> </g> <g> <rect x="178.8" y="252.2" class="st2" width="96.5" height="5.2"></rect> </g> <g> <rect x="178.8" y="267.2" class="st2" width="34.8" height="5.2"></rect> </g> </g> <g> <polygon class="st7" points="321.1,320.7 6.9,321.4 6.5,136 27.9,136 28.3,299.9 299.6,299.3 299.2,115.3 47.9,115.9 47.8,94.5 320.6,93.8 "></polygon> <path class="st7" d="M6.6,321.7v-0.3L6.2,135.8h0.3l21.7-0.1v0.3l0.4,163.7l270.8-0.6l-0.4-183.5l-251.3,0.6v-0.3l-0.1-21.7h0.3 l273-0.6v0.3l0.5,227.1h-0.3L6.6,321.7z M6.7,136.3l0.4,184.9l313.7-0.7l-0.5-226.3L48.1,94.7l0,20.9l251.3-0.6v0.3l0.4,184.3 h-0.3L28,300.2v-0.3l-0.4-163.7L6.7,136.3z"></path> </g> <g class="st1"> <path class="st2" d="M34.7,104.9c0,9.6-7.8,17.4-17.4,17.4c-9.6,0-17.3-7.8-17.3-17.4c0-9.6,7.8-17.4,17.3-17.4 C26.9,87.6,34.7,95.3,34.7,104.9"></path> </g> <g> <rect x="100.6" y="330.4" class="st7" width="124.6" height="15.3"></rect> </g> </g> </g> </svg> 