<?xml version="1.0" encoding="UTF-8"?> <svg xmlns="http://www.w3.org/2000/svg" id="Layer_1" data-name="Layer 1" viewBox="0 0 145 169.99"><title>Brand Protection Icon_negative_RGB</title><g style="opacity:0.8"><path d="M76.11,171l-2.46-1.16a230.42,230.42,0,0,1-33.12-19.73C17.14,133.27,5.28,116.36,5.28,99.81V38.94H16.45V99.81C16.45,115.68,33.1,131,47.07,141A220.29,220.29,0,0,0,76,158.52c37.4-19.15,59.64-41,59.64-58.71V22.51L76.35,12.34,28,21.88l-2.16-11L76.21,1l70.6,12.11V99.81C146.81,131,104,157,78.54,169.75Z" transform="translate(-1.81 -0.98)" style="fill:#fff"></path></g><circle cx="9.05" cy="20.99" r="9.05" style="fill:#ffb000"></circle></svg> 