<?xml version="1.0" encoding="UTF-8"?> <svg xmlns="http://www.w3.org/2000/svg" id="Layer_1" data-name="Layer 1" viewBox="0 0 182.68 186.34"><title>Clustering graphic_new_small_RGB</title><circle cx="103.26" cy="78.09" r="19.11" style="fill:#009db1"></circle><path d="M120.39,87.88a5.32,5.32,0,0,1-5.06-6.9l1.44.45a4,4,0,0,0-.17,1.14,3.8,3.8,0,1,0,3.79-3.79,3.63,3.63,0,0,0-.87.1l-.35-1.47a5.57,5.57,0,0,1,1.22-.14,5.31,5.31,0,1,1,0,10.61Z" transform="translate(-17.53 -11)" style="fill:#fff"></path><path d="M128.3,97.32H112.49v-.75a7.91,7.91,0,1,1,15.81,0ZM114,95.81h12.71a6.4,6.4,0,0,0-12.71,0Z" transform="translate(-17.53 -11)" style="fill:#fff"></path><circle cx="99.77" cy="68.25" r="1.23" style="fill:#009ca6"></circle><path d="M117.3,78a1.23,1.23,0,1,1-1.23,1.23A1.23,1.23,0,0,1,117.3,78" transform="translate(-17.53 -11)" style="fill:#fff"></path><circle cx="103.1" cy="137.3" r="13.27" style="fill:none;stroke:#ffb000;stroke-miterlimit:10;stroke-width:0.780380073044435px;stroke-dasharray:4.682280540466309,2.3411402702331543"></circle><circle cx="97.8" cy="130.96" r="0.85" style="fill:#009ca6"></circle><path d="M115.33,141.11a.85.85,0,0,1,.85.85.85.85,0,1,1-1.7,0,.85.85,0,0,1,.85-.85m0-.76a1.61,1.61,0,1,0,1.61,1.61,1.61,1.61,0,0,0-1.61-1.61Z" transform="translate(-17.53 -11)" style="fill:#009db1"></path><polygon points="97.28 144.53 97.28 133.77 98.33 133.77 98.33 142.82 109.34 137.17 100.42 132.82 100.88 131.88 111.69 137.15 97.28 144.53" style="fill:#fff"></polygon><path d="M68.53,89A13.27,13.27,0,1,1,55.26,75.74,13.27,13.27,0,0,1,68.53,89Z" transform="translate(-17.53 -11)" style="fill:none;stroke:#ffb000;stroke-linecap:round;stroke-linejoin:round;stroke-width:1.31103252px;stroke-dasharray:0,3.789637327194214"></path><path d="M56.22,95.66v-6.1h2l.33-2.27H56.22V85.51a.89.89,0,0,1,1-1h1.47v-2a10.82,10.82,0,0,0-1.61-.11c-2.16,0-3.24,1.2-3.24,3v2h-2v2.27h2v6.1Z" transform="translate(-17.53 -11)" style="fill:#fff"></path><circle cx="103.05" cy="13.74" r="13.27" style="fill:none;stroke:#ffb000;stroke-miterlimit:10;stroke-width:0.936465648829448px;stroke-dasharray:5.5582170486450195,2.7791085243225098"></circle><path d="M199.58,89.18A13.27,13.27,0,1,1,186.31,75.9,13.27,13.27,0,0,1,199.58,89.18Z" transform="translate(-17.53 -11)" style="fill:none;stroke:#ffb000;stroke-miterlimit:10;stroke-width:1.2427689295872px;stroke-dasharray:0.463177889585495,0.92635577917099"></path><path d="M186.31,46.24A13.28,13.28,0,1,1,173,33,13.27,13.27,0,0,1,186.31,46.24Z" transform="translate(-17.53 -11)" style="fill:none;stroke:#ffb000;stroke-linecap:round;stroke-linejoin:round;stroke-width:1.31103252px;stroke-dasharray:0,3.789637327194214"></path><path d="M173.17,39.64a3.73,3.73,0,0,1,3.47,2.24,6.88,6.88,0,0,1,.18,2.84v0c0,.1,0,.2,0,.3a.67.67,0,0,0,.24.06,1.78,1.78,0,0,0,.6-.17.6.6,0,0,1,.27-.06.68.68,0,0,1,.29.06h0a.56.56,0,0,1,.43.49c0,.27-.23.5-.71.69l-.2.06c-.27.09-.68.22-.79.48a.65.65,0,0,0,.07.51v0a4.09,4.09,0,0,0,2.8,2.35.29.29,0,0,1,.24.31.35.35,0,0,1,0,.13c-.14.33-.74.58-1.84.75a1.08,1.08,0,0,0-.1.33c0,.1-.05.21-.08.32a.32.32,0,0,1-.33.25h0l-.32,0a3.83,3.83,0,0,0-.75-.08,3.44,3.44,0,0,0-.54,0,2.54,2.54,0,0,0-1,.52,3.14,3.14,0,0,1-1.93.76H173a3.14,3.14,0,0,1-1.93-.76,2.54,2.54,0,0,0-1-.52,3.44,3.44,0,0,0-.54,0,4.29,4.29,0,0,0-.75.08,1.39,1.39,0,0,1-.32,0,.34.34,0,0,1-.34-.25c0-.12,0-.22-.08-.33a1.08,1.08,0,0,0-.1-.33c-1.09-.17-1.7-.42-1.84-.75a.35.35,0,0,1,0-.13.29.29,0,0,1,.24-.31,4.09,4.09,0,0,0,2.8-2.35v0a.65.65,0,0,0,.07-.51c-.11-.26-.52-.39-.79-.48l-.2-.06c-.65-.26-.74-.56-.7-.76a.69.69,0,0,1,.68-.47.51.51,0,0,1,.22.05,1.65,1.65,0,0,0,.65.17.54.54,0,0,0,.27-.06c0-.11,0-.23,0-.34a6.88,6.88,0,0,1,.18-2.84,3.74,3.74,0,0,1,3.46-2.24h.28m0-1h-.28a4.75,4.75,0,0,0-4.42,2.85,5.83,5.83,0,0,0-.32,2.4h0a1.73,1.73,0,0,0-1.71,1.33c-.06.3-.14,1.34,1.34,1.92l.14,0a2.83,2.83,0,0,1-1.81,1.37A1.33,1.33,0,0,0,165,49.91a1.53,1.53,0,0,0,.11.48,2.56,2.56,0,0,0,2,1.26l0,0a1.37,1.37,0,0,0,1.34,1,2.52,2.52,0,0,0,.52-.07,2.89,2.89,0,0,1,.55-.06,2.19,2.19,0,0,1,.36,0,2.25,2.25,0,0,1,.58.34,4.11,4.11,0,0,0,2.53.94h.17a4.11,4.11,0,0,0,2.53-.94,2.25,2.25,0,0,1,.58-.34,2.19,2.19,0,0,1,.36,0,2.51,2.51,0,0,1,.55.06,2.59,2.59,0,0,0,.52,0h0a1.36,1.36,0,0,0,1.34-1l0,0a2.6,2.6,0,0,0,2-1.25,1.59,1.59,0,0,0,.11-.49A1.33,1.33,0,0,0,180,48.52a2.83,2.83,0,0,1-1.81-1.37l.14,0c1.21-.48,1.38-1.26,1.37-1.68a1.59,1.59,0,0,0-1.1-1.45,2.15,2.15,0,0,0-.66-.13,5.81,5.81,0,0,0-.32-2.39,4.78,4.78,0,0,0-4.43-2.86Z" transform="translate(-17.53 -11)" style="fill:#fff"></path><path d="M179.46,86.53a2.11,2.11,0,0,0-2.39,2.26,2.06,2.06,0,0,0,2.34,2.1c2.09,0,2.2-1.31,2.2-1.31h-1s-.19.72-1.23.7A1.38,1.38,0,0,1,178,89h3.73A2.13,2.13,0,0,0,179.46,86.53ZM178,88.32a1.3,1.3,0,0,1,1.4-1.18,1.2,1.2,0,0,1,1.32,1.18Z" transform="translate(-17.53 -11)" style="fill:#fff"></path><path d="M184.32,86.53a2,2,0,0,0-1.66.69V84.89h-.93V89.8s0,.57,0,1h.91l0-.55a1.88,1.88,0,0,0,1.65.69,2.08,2.08,0,0,0,2.23-2.16A2.11,2.11,0,0,0,184.32,86.53Zm-.21,3.74c-1.47,0-1.45-1.56-1.45-1.56a1.46,1.46,0,0,1,1.44-1.55c1.5,0,1.45,1.58,1.45,1.58A1.47,1.47,0,0,1,184.11,90.27Z" transform="translate(-17.53 -11)" style="fill:#fff"></path><path d="M190.83,89.78c0-.63,0-1.2,0-1.6s0-1.58-2-1.66c0,0-1.92-.18-2.12,1.25h1s.08-.65,1.07-.63,1.12.48,1.11,1h-1.08c-.48,0-2.18,0-2.34,1.09-.19,1.23.91,1.62,1.77,1.61a2,2,0,0,0,1.72-.72l0,.57h.85S190.83,90.42,190.83,89.78Zm-2.43.52s-.93,0-1-.74,1.44-.75,1.44-.75h1.05A1.33,1.33,0,0,1,188.4,90.3Z" transform="translate(-17.53 -11)" style="fill:#fff"></path><polygon points="172.8 75.69 173.88 75.69 175.46 78.83 177.04 75.69 178.01 75.69 175.16 81.3 174.11 81.3 174.94 79.74 172.8 75.69" style="fill:#fff"></polygon><line x1="103.1" y1="56.78" x2="103.1" y2="29.14" style="fill:none;stroke:#fff;stroke-miterlimit:10;stroke-width:0.56187108px"></line><line x1="152.39" y1="78.18" x2="124.49" y2="78.18" style="fill:none;stroke:#fff;stroke-miterlimit:10;stroke-width:0.56187108px"></line><line x1="146.71" y1="111.93" x2="138.78" y2="111.93" style="fill:none;stroke:#fff;stroke-miterlimit:10;stroke-width:0.56187108px"></line><line x1="103.1" y1="120.92" x2="103.1" y2="99.57" style="fill:none;stroke:#fff;stroke-miterlimit:10;stroke-width:0.56187108px"></line><circle cx="167.64" cy="23.32" r="7.3" style="fill:#009db1"></circle><path d="M188,37.47h-6v-.29a3,3,0,1,1,6,0Zm-5.45-.58h4.85a2.44,2.44,0,0,0-4.85,0Z" transform="translate(-17.53 -11)" style="fill:#fff"></path><path d="M185,33.86a2,2,0,1,1,2-2A2,2,0,0,1,185,33.86Zm0-3.47a1.45,1.45,0,1,0,1.45,1.45A1.45,1.45,0,0,0,185,30.39Z" transform="translate(-17.53 -11)" style="fill:#fff"></path><line x1="53.81" y1="78.18" x2="81.7" y2="78.18" style="fill:none;stroke:#fff;stroke-miterlimit:10;stroke-width:0.56187108px"></line><path d="M83.26,46.24A13.27,13.27,0,1,1,70,33,13.27,13.27,0,0,1,83.26,46.24Z" transform="translate(-17.53 -11)" style="fill:none;stroke:#ffb000;stroke-miterlimit:10;stroke-width:1.2427689295872px;stroke-dasharray:0.463177889585495,0.92635577917099"></path><line x1="63.64" y1="46.42" x2="84.76" y2="66.56" style="fill:none;stroke:#fff;stroke-miterlimit:10;stroke-width:0.56187108px"></line><circle cx="43.92" cy="28.87" r="0.82" style="fill:#009db1"></circle><path d="M69.37,54.64a1.39,1.39,0,1,1,1.39-1.39A1.39,1.39,0,0,1,69.37,54.64Zm0-2a.67.67,0,1,0,.66.66A.67.67,0,0,0,69.37,52.59Z" transform="translate(-17.53 -11)" style="fill:#fff"></path><path d="M75.29,54.64a1.39,1.39,0,1,1,1.38-1.39A1.39,1.39,0,0,1,75.29,54.64Zm0-2a.67.67,0,1,0,.66.66A.67.67,0,0,0,75.29,52.59Z" transform="translate(-17.53 -11)" style="fill:#fff"></path><path d="M79,42.48H66.77l-.72-3.12H63v1h2.25l.63,2.7v0L67.23,49h0l.59,2.53h8.93v-1H68.62l-.25-1.12H77.6Zm-10.9,5.9L67,43.49H77.78l-1,4.89Z" transform="translate(-17.53 -11)" style="fill:#fff"></path><line x1="130.63" y1="108.16" x2="118.13" y2="95.66" style="fill:none;stroke:#fff;stroke-miterlimit:10;stroke-width:0.56187108px"></line><circle cx="134.4" cy="111.93" r="3.19" style="fill:#009db1"></circle><circle cx="149.43" cy="111.93" r="1.59" style="fill:#009db1"></circle><line x1="134.4" y1="124.32" x2="134.4" y2="116.4" style="fill:none;stroke:#fff;stroke-miterlimit:10;stroke-width:0.56187108px"></line><circle cx="134.4" cy="127.04" r="1.59" style="fill:#009db1"></circle><line x1="3.58" y1="44.05" x2="9.18" y2="38.45" style="fill:none;stroke:#fff;stroke-miterlimit:10;stroke-width:0.56187108px"></line><line x1="17.61" y1="35.35" x2="35.29" y2="35.35" style="fill:none;stroke:#fff;stroke-miterlimit:10;stroke-width:0.56187108px"></line><circle cx="12.28" cy="35.35" r="3.19" style="fill:#009db1"></circle><circle cx="1.66" cy="45.97" r="1.59" style="fill:#009db1"></circle><line x1="3.52" y1="26.59" x2="9.12" y2="32.19" style="fill:none;stroke:#fff;stroke-miterlimit:10;stroke-width:0.56187108px"></line><circle cx="1.59" cy="24.66" r="1.59" style="fill:#009db1"></circle><line x1="143.52" y1="46.42" x2="122.4" y2="66.55" style="fill:none;stroke:#fff;stroke-miterlimit:10;stroke-width:0.56187108px"></line><path d="M124.57,31.54a6.41,6.41,0,0,1-3-1.09,23.23,23.23,0,0,1-4.13-3.26c-.06-.06-6.16-6.21-3.8-8.57l.57-.58.85.86-.57.57c-.72.72.75,3.81,3.8,6.87a22.85,22.85,0,0,0,3.9,3.08c1.45.86,2.56,1.13,3,.72l1.69-1.69-2.89-2.89-1.63,1.62-.4-.25a14,14,0,0,1-2.37-1.86,14,14,0,0,1-1.86-2.37l-.25-.4L119,20.67,117.32,19l.85-.85,2.57,2.57L119,22.46a12.86,12.86,0,0,0,1.42,1.76,12.86,12.86,0,0,0,1.76,1.42l1.79-1.79,4.6,4.6L126,31A1.91,1.91,0,0,1,124.57,31.54Z" transform="translate(-17.53 -11)" style="fill:#fff"></path><circle cx="98.62" cy="5.93" r="0.98" style="fill:#009ca6"></circle><path d="M116.14,16a1,1,0,1,1-1,1,1,1,0,0,1,1-1" transform="translate(-17.53 -11)" style="fill:#009ca6"></path><line x1="79.51" y1="162.08" x2="92.01" y2="149.57" style="fill:none;stroke:#fff;stroke-miterlimit:10;stroke-width:0.56187108px"></line><path d="M97.55,183.45a13.27,13.27,0,1,1-13.27-13.27A13.27,13.27,0,0,1,97.55,183.45Z" transform="translate(-17.53 -11)" style="fill:none;stroke:#ffb000;stroke-miterlimit:10;stroke-width:1.2427689295872px;stroke-dasharray:0.463177889585495,0.92635577917099"></path><polygon points="61.15 166.99 61.15 167.99 73.02 167.99 66.91 173.01 61.83 168.84 61.37 169.39 66.91 173.94 73.7 168.37 73.7 177.22 60.13 177.22 60.13 169.02 59.12 169.02 59.12 178.22 74.71 178.22 74.71 166.99 61.15 166.99" style="fill:#fff"></polygon><circle cx="59.62" cy="167.49" r="0.82" style="fill:#009ca6"></circle></svg> 