<?xml version="1.0" encoding="UTF-8"?> <!-- Generator: Adobe Illustrator 24.0.2, SVG Export Plug-In . SVG Version: 6.00 Build 0) --> <svg xmlns="http://www.w3.org/2000/svg" xmlns:xlink="http://www.w3.org/1999/xlink" id="Layer_1" x="0px" y="0px" viewBox="0 0 1548.2 655.8" style="enable-background:new 0 0 1548.2 655.8;" xml:space="preserve"> <style type="text/css"> .st0{fill:#A3AF90;} .st1{opacity:0.35;} .st2{fill:#009BA5;} .st3{fill:#54B3BA;} .st4{fill:#7298B7;} .st5{fill:#009CA6;} .st6{opacity:0.82;} .st7{fill:none;} .st8{fill:#7FA050;} .st9{fill:#547991;} .st10{fill:#009AA4;} .st11{opacity:0.48;} .st12{fill:#575756;} .st13{fill:#FDC603;} .st14{fill:#FCFCFC;} .st15{fill:#FFFFFF;} .st16{clip-path:url(#SVGID_2_);} .st17{clip-path:url(#SVGID_4_);} .st18{clip-path:url(#SVGID_6_);} .st19{clip-path:url(#SVGID_8_);} </style> <g> <g> <g> <g> <path class="st0" d="M1474.5,456.8h-69.6v-3.1c0-19.2,15.6-34.8,34.8-34.8c19.2,0,34.8,15.6,34.8,34.8V456.8z M1411.3,450.6 h56.8c-1.6-14.3-13.7-25.5-28.4-25.5C1425,425.1,1412.8,436.3,1411.3,450.6z"></path> </g> </g> <g> <g> <g> <circle class="st0" cx="1426.5" cy="376.6" r="5"></circle> </g> </g> </g> <g> <g> <path class="st0" d="M1439.7,415c-12.8,0-23.3-10.4-23.3-23.3c0-3.2,0.7-6.4,1.9-9.3l5.7,2.5c-0.9,2.2-1.4,4.5-1.4,6.8 c0,9.4,7.6,17.1,17.1,17.1c9.4,0,17.1-7.6,17.1-17.1s-7.6-17.1-17.1-17.1c-1.6,0-3.1,0.2-4.6,0.6l-1.7-6c2-0.6,4.2-0.9,6.3-0.9 c12.8,0,23.3,10.4,23.3,23.3S1452.5,415,1439.7,415z"></path> </g> </g> </g> <g> <g class="st1"> <g> <path class="st2" d="M133.7,373.6c0,4.9-4,8.9-8.9,8.9c-4.9,0-8.9-4-8.9-8.9c0-4.9,4-8.9,8.9-8.9 C129.8,364.7,133.7,368.7,133.7,373.6"></path> </g> <g> <path class="st2" d="M176.8,517.2c-45.9,0-83.3-37.4-83.3-83.3c0-16,4.5-31.5,13.1-44.9l3-4.6l9.3,5.9l-3,4.6 c-7.4,11.6-11.4,25.1-11.4,38.9c0,39.9,32.4,72.3,72.3,72.3c39.9,0,72.3-32.4,72.3-72.3c0-39.9-32.4-72.3-72.3-72.3 c-10.4,0-20.4,2.2-29.8,6.4l-5,2.3l-4.5-10l5-2.3c10.8-4.9,22.4-7.4,34.3-7.4c45.9,0,83.3,37.4,83.3,83.3 C260.1,479.8,222.8,517.2,176.8,517.2"></path> </g> <g> <path class="st2" d="M176.8,508.8c-2.2,0-3.9-1.8-3.9-3.9V357.4c0-2.2,1.8-3.9,3.9-3.9c2.2,0,3.9,1.8,3.9,3.9v147.4 C180.8,507,179,508.8,176.8,508.8"></path> </g> <g> <path class="st2" d="M250.5,438.6H103.1c-2.2,0-3.9-1.8-3.9-3.9c0-2.2,1.8-3.9,3.9-3.9h147.4c2.2,0,3.9,1.8,3.9,3.9 C254.5,436.9,252.7,438.6,250.5,438.6"></path> </g> <g> <path class="st2" d="M176.8,516.4c-24,0-42.8-35.9-42.8-81.7c0-45.8,18.8-81.7,42.8-81.7c24,0,42.8,35.9,42.8,81.7 C219.7,480.5,200.8,516.4,176.8,516.4 M176.8,360.8c-19,0-35,33.8-35,73.9c0,40,16,73.9,35,73.9c19,0,35-33.8,35-73.9 C211.8,394.6,195.8,360.8,176.8,360.8"></path> </g> <g> <path class="st2" d="M229.1,497.4l-2.9-2.6c-6.6-6-14.2-10.6-22.5-13.9c-8.6-3.3-17.6-5-26.9-5c-18.2,0-35.7,6.7-49.3,18.9 l-2.9,2.6l-5.2-5.9l2.9-2.6c15-13.5,34.4-20.9,54.5-20.9c10.3,0,20.3,1.9,29.8,5.6c9.1,3.6,17.5,8.7,24.9,15.3l2.9,2.6 L229.1,497.4z"></path> </g> <g> <path class="st2" d="M176.8,399.7c-10.3,0-20.3-1.9-29.8-5.6c-4.2-1.6-11.5-5.6-11.9-5.8l3.7-6.9c0.1,0,7.3,3.9,11,5.4 c8.6,3.3,17.6,5,26.9,5c18.2,0,35.7-6.7,49.3-18.9l5.2,5.9C216.4,392.3,197,399.7,176.8,399.7"></path> </g> </g> <g> <g> <path class="st3" d="M125.2,615.4C56.2,615.4,0,559.2,0,490.2c0-24.8,7.2-48.8,20.9-69.3L36.1,431c-11.7,17.6-17.9,38-17.9,59.2 c0,59,48,106.9,107,106.9c59,0,106.9-48,106.9-106.9c0-59-48-107-106.9-107c-19.5,0-38.5,5.3-55.1,15.2l-9.4-15.6 c19.4-11.7,41.7-17.9,64.5-17.9c69,0,125.2,56.2,125.2,125.2C250.4,559.2,194.2,615.4,125.2,615.4"></path> </g> <g> <rect x="244.4" y="548" transform="matrix(0.7071 -0.7071 0.7071 0.7071 -351.9317 355.7992)" class="st3" width="18.2" height="109.5"></rect> </g> <g> <path class="st2" d="M58.4,405.4c0,7.8-6.3,14.2-14.2,14.2c-7.8,0-14.2-6.3-14.2-14.2c0-7.8,6.3-14.2,14.2-14.2 C52.1,391.3,58.4,397.6,58.4,405.4"></path> </g> </g> </g> <g> <g> <path class="st4" d="M935.5,226.5c-2.5-0.1-4.4-2.2-4.3-4.7l0,0c0.1-2.5,2.2-4.4,4.7-4.3l0,0c2.5,0.1,4.4,2.2,4.3,4.7l0,0 c-0.1,2.4-2.1,4.3-4.5,4.3l0,0C935.6,226.5,935.6,226.5,935.5,226.5z M947.2,221.6c-0.5-2.4,1-4.8,3.5-5.3l0,0 c2.4-0.5,4.8,1,5.3,3.5l0,0c0.5,2.4-1,4.8-3.5,5.3l0,0c-0.3,0.1-0.6,0.1-0.9,0.1l0,0C949.5,225.2,947.7,223.7,947.2,221.6z M918.7,223.6c-2.4-0.7-3.7-3.2-3-5.6l0,0c0.7-2.4,3.2-3.7,5.6-3l0,0c2.4,0.7,3.7,3.2,3,5.6l0,0c-0.6,1.9-2.4,3.2-4.3,3.2l0,0 C919.5,223.8,919.1,223.7,918.7,223.6z M962.6,217.4c-1.1-2.2-0.2-4.9,2-6l0,0c2.2-1.1,4.9-0.2,6,2l0,0c1.1,2.2,0.2,4.9-2,6l0,0 c-0.6,0.3-1.3,0.5-2,0.5l0,0C965,219.9,963.4,219,962.6,217.4z M903.1,216.5L903.1,216.5L903.1,216.5c-2.1-1.3-2.8-4.1-1.5-6.2 l0,0c1.3-2.1,4.1-2.8,6.2-1.5l0,0c2.1,1.3,2.8,4.1,1.5,6.2l0,0c-0.9,1.4-2.3,2.1-3.8,2.1l0,0C904.6,217.2,903.8,217,903.1,216.5z M976.6,209.5c-1.6-1.9-1.4-4.7,0.5-6.3l0,0c1.9-1.6,4.7-1.4,6.3,0.4l0,0c1.6,1.9,1.4,4.7-0.5,6.4l0,0l0,0l0,0 c-0.8,0.7-1.9,1.1-2.9,1.1l0,0C978.7,211.1,977.5,210.5,976.6,209.5z M889.7,205.9C889.7,205.9,889.7,205.9,889.7,205.9 L889.7,205.9c-1.7-1.8-1.7-4.6,0.1-6.4l0,0c1.8-1.7,4.6-1.7,6.4,0.1l0,0c1.7,1.8,1.7,4.6-0.1,6.4l0,0c-0.9,0.9-2,1.3-3.1,1.3l0,0 C891.8,207.2,890.6,206.8,889.7,205.9z M988.1,198.4c-2-1.4-2.6-4.2-1.2-6.2l0,0c1.4-2.1,4.2-2.6,6.3-1.2l0,0 c2,1.4,2.6,4.2,1.2,6.3l0,0c-0.9,1.3-2.3,2-3.7,2l0,0C989.7,199.2,988.8,198.9,988.1,198.4z M879.5,192.2 c-1.2-2.2-0.5-4.9,1.7-6.1l0,0c2.2-1.2,4.9-0.5,6.1,1.7l0,0c1.2,2.2,0.5,4.9-1.7,6.1l0,0c-0.7,0.4-1.5,0.6-2.2,0.6l0,0 C881.9,194.4,880.3,193.6,879.5,192.2z M996.4,184.7c-2.3-0.9-3.5-3.4-2.7-5.8l0,0c0.9-2.3,3.4-3.5,5.8-2.7l0,0 c2.3,0.9,3.5,3.4,2.7,5.8l0,0l0,0l0,0c-0.7,1.8-2.4,3-4.2,3l0,0C997.4,185,996.9,184.9,996.4,184.7z M873,176.4 c-0.7-2.4,0.8-4.9,3.2-5.5l0,0c2.4-0.6,4.9,0.8,5.5,3.2l0,0c0.6,2.4-0.8,4.9-3.2,5.5l0,0c-0.4,0.1-0.8,0.1-1.2,0.1l0,0 C875.4,179.7,873.6,178.4,873,176.4z M1001.1,169.4c-2.5-0.2-4.3-2.5-4-4.9l0,0c0.2-2.5,2.4-4.3,4.9-4l0,0c2.5,0.2,4.3,2.5,4,4.9 l0,0c-0.2,2.3-2.2,4.1-4.5,4.1l0,0C1001.4,169.5,1001.2,169.5,1001.1,169.4z M870.7,159.4c0-2.5,2-4.5,4.4-4.5l0,0 c2.5,0,4.5,2,4.6,4.4l0,0c0,2.5-2,4.5-4.4,4.6l0,0c0,0,0,0-0.1,0l0,0C872.7,163.9,870.7,161.9,870.7,159.4z M996.6,149.7 c-0.4-2.5,1.3-4.8,3.8-5.1l0,0c2.5-0.4,4.8,1.3,5.2,3.8l0,0c0.4,2.4-1.3,4.8-3.8,5.1l0,0c-0.2,0-0.5,0.1-0.7,0.1l0,0 C998.9,153.5,997,151.9,996.6,149.7z M875.9,147.9c-2.4-0.6-3.9-3-3.3-5.5l0,0l0,0l0,0c0.6-2.4,3-3.9,5.5-3.3l0,0 c2.4,0.6,3.9,3,3.3,5.5l0,0c-0.5,2-2.3,3.4-4.4,3.4l0,0C876.7,148,876.3,148,875.9,147.9z M992.5,135.5c-1-2.3,0.1-4.9,2.4-5.9 l0,0c2.3-1,4.9,0.1,5.9,2.4l0,0c1,2.3-0.1,4.9-2.4,5.9l0,0c-0.6,0.2-1.2,0.4-1.8,0.4l0,0C994.9,138.2,993.3,137.2,992.5,135.5z M879.8,134.6c-2.2-1.1-3.1-3.8-2-6l0,0l0,0l0,0c1.1-2.2,3.8-3.1,6-2l0,0c2.2,1.1,3.1,3.8,2,6l0,0c-0.8,1.6-2.4,2.5-4,2.5l0,0 C881.1,135,880.4,134.9,879.8,134.6z M985,122.7c-1.5-2-1.2-4.8,0.8-6.3l0,0c2-1.5,4.8-1.2,6.3,0.8l0,0c1.5,2,1.2,4.8-0.8,6.3 l0,0c-0.8,0.6-1.8,0.9-2.8,0.9l0,0C987.2,124.4,985.9,123.8,985,122.7z M887.7,120.6c-1.9-1.6-2.1-4.5-0.5-6.4l0,0 c1.6-1.9,4.5-2.1,6.4-0.5l0,0c1.9,1.6,2.1,4.5,0.5,6.4l0,0c-0.9,1-2.1,1.5-3.4,1.5l0,0C889.6,121.7,888.5,121.4,887.7,120.6z M974.5,112.2c-2-1.5-2.3-4.3-0.8-6.3l0,0c1.5-2,4.3-2.3,6.3-0.8l0,0c2,1.5,2.3,4.4,0.8,6.3l0,0c-0.9,1.1-2.2,1.8-3.6,1.8l0,0 C976.3,113.1,975.3,112.8,974.5,112.2z M898.8,109.1c-1.4-2-0.9-4.9,1.1-6.3l0,0c2.1-1.4,4.9-0.9,6.3,1.2l0,0 c1.4,2,0.9,4.8-1.1,6.2v0c-0.8,0.5-1.7,0.8-2.6,0.8l0,0C901.1,111.1,899.7,110.4,898.8,109.1z M961.8,104.7 c-2.3-1-3.3-3.6-2.4-5.9l0,0c1-2.3,3.6-3.3,5.9-2.4l0,0c2.3,1,3.3,3.6,2.3,5.9l0,0c-0.7,1.7-2.4,2.7-4.1,2.7l0,0 C962.9,105.1,962.3,104.9,961.8,104.7z M912.5,100.8c-0.9-2.3,0.4-4.9,2.7-5.8l0,0c2.3-0.9,4.9,0.3,5.8,2.7l0,0 c0.9,2.3-0.3,4.9-2.7,5.8l0,0c-0.5,0.2-1,0.3-1.6,0.3l0,0C914.9,103.8,913.1,102.6,912.5,100.8z M947.5,100.6 c-2.5-0.4-4.1-2.7-3.8-5.1l0,0c0.4-2.5,2.7-4.1,5.1-3.8l0,0c2.5,0.4,4.1,2.7,3.8,5.1l0,0c-0.3,2.2-2.3,3.8-4.4,3.8l0,0 C948,100.6,947.7,100.6,947.5,100.6z M927.8,96.1c-0.2-2.5,1.6-4.7,4-4.9l0,0c2.5-0.2,4.7,1.6,4.9,4l0,0c0.2,2.5-1.6,4.7-4,4.9 l0,0c-0.2,0-0.3,0-0.5,0l0,0C930,100.2,928,98.5,927.8,96.1z"></path> </g> <g> <g> <path class="st2" d="M919.5,120.9c0,2.2-1.8,4.1-4,4.1c-2.2,0-4.1-1.9-4.1-4.1c0-2.2,1.8-4.1,4.1-4.1 C917.7,116.8,919.5,118.7,919.5,120.9"></path> </g> <g> <polygon class="st4" points="964,200.8 911.4,200.8 911.4,128.6 918.4,128.6 918.4,193.8 957,193.8 957,122.4 921.3,122.4 921.3,115.4 964,115.4 "></polygon> </g> <g> <path class="st4" d="M941.7,188.3c0,2.2-1.8,4.1-4,4.1c-2.2,0-4.1-1.9-4.1-4.1c0-2.2,1.8-4.1,4.1-4.1 C939.9,184.3,941.7,186.1,941.7,188.3"></path> </g> <g> <path class="st4" d="M945.7,131.2h-15.1c-1.7,0-3-1.3-3-3c0-1.7,1.3-3,3-3h15.1c1.7,0,3,1.3,3,3 C948.7,129.8,947.4,131.2,945.7,131.2z"></path> </g> </g> </g> <g> <path class="st2" d="M1327.9,416c0,7.8-6.3,14.2-14.2,14.2c-7.8,0-14.2-6.3-14.2-14.2c0-7.8,6.3-14.2,14.2-14.2 C1321.6,401.8,1327.9,408.1,1327.9,416"></path> </g> <g> <g> <path class="st5" d="M1323.4,446.4c0,2.9-2.4,5.3-5.3,5.3c-2.9,0-5.4-2.4-5.4-5.3c0-2.9,2.4-5.3,5.3-5.3 C1321,441.1,1323.4,443.5,1323.4,446.4"></path> </g> <g> <polygon class="st0" points="1380.6,550 1313.9,550 1313.9,456.5 1320.9,456.5 1320.9,543 1373.6,543 1373.6,447.4 1325.8,447.4 1325.8,440.4 1380.6,440.4 "></polygon> </g> <g> <path class="st0" d="M1352.5,534.7c0,2.9-2.4,5.3-5.3,5.3c-2.9,0-5.4-2.4-5.4-5.3c0-2.9,2.4-5.3,5.3-5.3 C1350.2,529.4,1352.5,531.8,1352.5,534.7"></path> </g> <g> <path class="st0" d="M1357.8,458.9h-19.7c-1.7,0-3-1.3-3-3s1.3-3,3-3h19.7c1.7,0,3,1.3,3,3S1359.4,458.9,1357.8,458.9z"></path> </g> </g> <g> <g> <polygon class="st0" points="1482.7,571.9 1395.3,571.9 1395.3,500.2 1402.4,500.2 1402.4,564.9 1475.7,564.9 1475.7,493 1409.5,493 1409.5,485.9 1482.7,485.9 "></polygon> </g> <g> <path class="st0" d="M1456.4,510.4h-5v-27.6c0-6.8-5.5-12.3-12.3-12.3c-6.8,0-12.3,5.5-12.3,12.3v27.6h-5v-27.6 c0-9.6,7.8-17.3,17.3-17.3c9.5,0,17.3,7.8,17.3,17.3V510.4z"></path> </g> <g class="st6"> <g> <path class="st0" d="M1424.3,512.7c-2.6,0-4.6-2.1-4.6-4.6c0-2.6,2.1-4.6,4.6-4.6c2.6,0,4.6,2.1,4.6,4.6 C1428.9,510.7,1426.8,512.7,1424.3,512.7 M1424.3,507.7c-0.2,0-0.4,0.2-0.4,0.4c0,0.2,0.2,0.4,0.4,0.4c0.2,0,0.4-0.2,0.4-0.4 C1424.7,507.9,1424.5,507.7,1424.3,507.7"></path> </g> <g> <rect x="1419.6" y="503.5" class="st7" width="9.3" height="9.3"></rect> </g> </g> <g class="st6"> <g> <path class="st0" d="M1453.9,512.7c-2.6,0-4.6-2.1-4.6-4.6c0-2.6,2.1-4.6,4.6-4.6c2.6,0,4.6,2.1,4.6,4.6 C1458.5,510.7,1456.4,512.7,1453.9,512.7 M1453.9,507.7c-0.2,0-0.4,0.2-0.4,0.4c0,0.2,0.2,0.4,0.4,0.4c0.2,0,0.4-0.2,0.4-0.4 C1454.3,507.9,1454.1,507.7,1453.9,507.7"></path> </g> <g> <rect x="1449.3" y="503.5" class="st7" width="9.3" height="9.3"></rect> </g> </g> <g> <path class="st2" d="M1404.6,489.4c0,3.1-2.6,5.7-5.7,5.7c-3.1,0-5.7-2.6-5.7-5.7c0-3.1,2.6-5.7,5.7-5.7 C1402,483.7,1404.6,486.3,1404.6,489.4"></path> </g> </g> <g> <g> <rect x="1390.3" y="348" class="st8" width="14" height="79.6"></rect> </g> <g> <rect x="1390.3" y="576.2" class="st8" width="14" height="79.6"></rect> </g> <g> <rect x="1468.6" y="498" transform="matrix(1 -1.953121e-03 1.953121e-03 1 -0.9835 2.947)" class="st8" width="79.6" height="14"></rect> </g> <g> <line class="st8" x1="1320" y1="505.4" x2="1240.4" y2="505.6"></line> <rect x="1240.4" y="498.5" transform="matrix(1 -1.953121e-03 1.953121e-03 1 -0.9848 2.5013)" class="st8" width="79.6" height="14"></rect> </g> <g> <path class="st8" d="M1395.8,628c-69,0-125.2-56.2-125.2-125.2c0-24.8,7.2-48.8,20.9-69.3l15.2,10.1 c-11.7,17.6-17.9,38-17.9,59.2c0,59,48,106.9,107,106.9c59,0,106.9-48,106.9-106.9c0-59-48-107-106.9-107 c-19.5,0-38.5,5.3-55.1,15.2l-9.4-15.6c19.4-11.7,41.7-17.9,64.5-17.9c69,0,125.2,56.2,125.2,125.2 C1521,571.8,1464.9,628,1395.8,628"></path> </g> </g> <g> <g> <path class="st2" d="M689.7,223.9c0,7.1-5.8,12.9-12.9,12.9c-7.2,0-12.9-5.8-12.9-12.9c0-7.1,5.8-12.9,12.9-12.9 C683.9,210.9,689.7,216.7,689.7,223.9"></path> </g> <g> <path class="st9" d="M752.3,432.3c-66.7,0-121-54.3-121-121c0-23.2,6.6-45.7,19-65.1l4.3-6.7l13.4,8.6l-4.3,6.7 c-10.8,16.9-16.5,36.4-16.5,56.5c0,57.9,47.1,105,105,105c57.9,0,105-47.1,105-105c0-57.9-47.1-105-105-105 c-15.1,0-29.7,3.1-43.3,9.3l-7.3,3.3l-6.6-14.5l7.3-3.3c15.7-7.1,32.5-10.7,49.9-10.7c66.7,0,121,54.3,121,120.9 C873.2,378.1,819,432.3,752.3,432.3"></path> </g> <g> <path class="st9" d="M752.3,420.1c-3.2,0-5.7-2.6-5.7-5.7V200.4c0-3.2,2.6-5.7,5.7-5.7c3.2,0,5.7,2.6,5.7,5.7v214.1 C758,417.6,755.4,420.1,752.3,420.1"></path> </g> <g> <path class="st9" d="M859.3,318.3H645.2c-3.2,0-5.7-2.6-5.7-5.7c0-3.1,2.6-5.7,5.7-5.7h214.1c3.2,0,5.7,2.6,5.7,5.7 C865,315.7,862.5,318.3,859.3,318.3"></path> </g> <g> <path class="st9" d="M752.3,431.2c-34.9,0-62.2-52.1-62.2-118.7c0-66.5,27.3-118.7,62.2-118.7c34.9,0,62.2,52.1,62.2,118.7 C814.5,379.1,787.1,431.2,752.3,431.2 M752.3,205.3c-27.5,0-50.8,49.1-50.8,107.3c0,58.1,23.3,107.3,50.8,107.3 c27.5,0,50.8-49.1,50.8-107.3C803.1,254.4,779.8,205.3,752.3,205.3"></path> </g> <g> <path class="st9" d="M828.2,403.6l-4.2-3.8c-9.6-8.7-20.6-15.4-32.6-20.1c-12.4-4.9-25.6-7.3-39-7.3c-26.5,0-51.9,9.7-71.6,27.4 l-4.2,3.8l-7.6-8.5l4.2-3.8c21.8-19.5,49.9-30.3,79.2-30.3c14.9,0,29.4,2.7,43.2,8.1c13.3,5.2,25.4,12.7,36.1,22.3l4.2,3.8 L828.2,403.6z"></path> </g> <g> <path class="st9" d="M752.3,261.8c-14.9,0-29.4-2.7-43.2-8.1c-6-2.4-16.8-8.2-17.2-8.4l5.4-10c0.1,0.1,10.6,5.7,15.9,7.8 c12.4,4.9,25.6,7.3,39,7.3c26.5,0,51.9-9.7,71.6-27.4l7.6,8.5C809.7,251,781.6,261.8,752.3,261.8"></path> </g> </g> <g> <g> <g> <polygon class="st4" points="591.3,198.9 521.4,198.9 521.4,141.6 527.1,141.6 527.1,193.3 585.7,193.3 585.7,135.8 532.8,135.8 532.8,130.1 591.3,130.1 "></polygon> </g> <g> <path class="st4" d="M570.3,149.7h-4v-22.1c0-5.4-4.4-9.8-9.8-9.8s-9.8,4.4-9.8,9.8v22.1h-4v-22.1c0-7.6,6.2-13.9,13.9-13.9 c7.6,0,13.9,6.2,13.9,13.9V149.7z"></path> </g> <g class="st6"> <g> <path class="st4" d="M544.6,151.6c-2,0-3.7-1.7-3.7-3.7c0-2,1.7-3.7,3.7-3.7c2,0,3.7,1.7,3.7,3.7 C548.3,149.9,546.6,151.6,544.6,151.6 M544.6,147.6c-0.2,0-0.3,0.1-0.3,0.3c0,0.2,0.1,0.3,0.3,0.3c0.2,0,0.3-0.1,0.3-0.3 C544.9,147.7,544.8,147.6,544.6,147.6"></path> </g> <g> <rect x="540.9" y="144.2" class="st7" width="7.4" height="7.4"></rect> </g> </g> <g class="st6"> <g> <path class="st4" d="M568.3,151.6c-2,0-3.7-1.7-3.7-3.7c0-2,1.7-3.7,3.7-3.7c2,0,3.7,1.7,3.7,3.7 C572,149.9,570.3,151.6,568.3,151.6 M568.3,147.6c-0.2,0-0.3,0.1-0.3,0.3c0,0.2,0.1,0.3,0.3,0.3c0.2,0,0.3-0.1,0.3-0.3 C568.6,147.7,568.4,147.6,568.3,147.6"></path> </g> <g> <rect x="564.6" y="144.2" class="st7" width="7.4" height="7.4"></rect> </g> </g> <g> <path class="st10" d="M528.8,133c0,2.5-2,4.6-4.6,4.6c-2.5,0-4.6-2-4.6-4.6c0-2.5,2-4.6,4.6-4.6 C526.8,128.4,528.8,130.4,528.8,133"></path> </g> </g> <g> <path class="st4" d="M556.2,229.8c-0.4,0-0.9,0-1.3,0l0.2-9c1.3,0,2.5,0,3.8,0l0.4,9C558.3,229.7,557.3,229.8,556.2,229.8z M547.4,229.2c-1.4-0.2-2.9-0.4-4.3-0.7l1.7-8.8c1.2,0.2,2.5,0.4,3.7,0.6L547.4,229.2z M566.8,229l-1.3-8.9 c1.2-0.2,2.5-0.4,3.7-0.7l1.9,8.8C569.6,228.5,568.2,228.8,566.8,229z M535.8,226.7c-1.4-0.4-2.8-0.9-4.1-1.4l3.2-8.4 c1.2,0.4,2.4,0.8,3.6,1.2L535.8,226.7z M578.4,226.2l-2.8-8.5c1.2-0.4,2.4-0.8,3.5-1.3l3.4,8.3 C581.1,225.2,579.7,225.7,578.4,226.2z M524.7,222.3c-1.3-0.6-2.6-1.3-3.8-2.1l4.5-7.8c1.1,0.6,2.2,1.2,3.3,1.8L524.7,222.3z M589.3,221.5l-4.2-7.9c1.1-0.6,2.2-1.2,3.3-1.9l4.7,7.7C591.8,220.1,590.5,220.8,589.3,221.5z M514.6,216 c-1.2-0.9-2.3-1.8-3.4-2.7l5.8-6.9c1,0.8,2,1.6,3,2.3L514.6,216z M599.2,215l-5.5-7.1c1-0.8,2-1.6,2.9-2.4l5.9,6.8 C601.5,213.2,600.4,214.1,599.2,215z M505.6,208.2c-1-1-2-2.1-2.9-3.2l6.9-5.8c0.8,1,1.7,1.9,2.5,2.8L505.6,208.2z M608,207 l-6.6-6.1c0.8-0.9,1.7-1.9,2.5-2.9l7,5.7C609.9,204.8,609,205.9,608,207z M498.2,199c-0.8-1.2-1.6-2.4-2.3-3.7l7.7-4.6 c0.6,1.1,1.3,2.1,2,3.2L498.2,199z M615.2,197.5l-7.6-4.9c0.7-1.1,1.3-2.1,1.9-3.2l7.9,4.4C616.8,195.1,616,196.3,615.2,197.5z M492.4,188.6c-0.6-1.3-1.2-2.7-1.7-4l8.4-3.2c0.4,1.2,0.9,2.3,1.4,3.5L492.4,188.6z M620.8,187l-8.3-3.5 c0.5-1.2,0.9-2.3,1.4-3.5l8.5,3C621.9,184.3,621.4,185.7,620.8,187z M488.4,177.4c-0.4-1.4-0.7-2.8-1-4.2l8.8-1.7 c0.2,1.2,0.5,2.5,0.8,3.7L488.4,177.4z M624.5,175.7l-8.8-2.1c0.3-1.2,0.5-2.5,0.7-3.7l8.9,1.5 C625.1,172.9,624.8,174.3,624.5,175.7z M486.4,165.7c-0.1-1.4-0.2-2.9-0.2-4.3l9-0.2c0,1.3,0.1,2.5,0.2,3.8L486.4,165.7z M626.2,164l-9-0.5c0.1-1.2,0.1-2.5,0.1-3.8l0-0.2l9,0l0,0.2C626.4,161.1,626.3,162.5,626.2,164z M495.3,154.5l-9-0.7 c0.1-1.4,0.3-2.9,0.5-4.3l8.9,1.3C495.6,152,495.4,153.3,495.3,154.5z M617,152.9c-0.1-1.2-0.3-2.5-0.5-3.7l8.9-1.5 c0.2,1.4,0.4,2.9,0.6,4.3L617,152.9z M497,144.3l-8.7-2.2c0.4-1.4,0.8-2.8,1.2-4.2l8.6,2.8C497.7,141.9,497.4,143.1,497,144.3z M615,142.7c-0.3-1.2-0.7-2.4-1.2-3.6l8.5-3c0.5,1.4,0.9,2.7,1.3,4.1L615,142.7z M500.5,134.5l-8.2-3.7c0.6-1.3,1.2-2.6,1.9-3.9 l8,4.2C501.6,132.3,501,133.4,500.5,134.5z M611.3,133c-0.5-1.1-1.1-2.2-1.7-3.3l7.8-4.4c0.7,1.3,1.4,2.5,2,3.8L611.3,133z M505.5,125.5l-7.5-5c0.8-1.2,1.7-2.4,2.5-3.5l7.1,5.5C507,123.4,506.2,124.4,505.5,125.5z M606,124.1c-0.7-1-1.5-2-2.3-3l7-5.7 c0.9,1.1,1.8,2.3,2.6,3.4L606,124.1z M512,117.4l-6.5-6.2c1-1,2-2.1,3.1-3l6.1,6.6C513.8,115.6,512.9,116.5,512,117.4z M599.3,116.2c-0.9-0.9-1.8-1.7-2.8-2.6l5.9-6.8c1.1,0.9,2.1,1.9,3.2,3L599.3,116.2z M519.8,110.5l-5.4-7.2 c1.2-0.9,2.3-1.7,3.5-2.5l4.9,7.5C521.9,109.1,520.8,109.8,519.8,110.5z M591.3,109.6c-1-0.7-2.1-1.4-3.2-2.1l4.7-7.7 c1.2,0.8,2.4,1.6,3.6,2.4L591.3,109.6z M528.6,105.1l-4.1-8c1.3-0.7,2.6-1.3,3.9-1.8l3.6,8.3C530.9,104,529.7,104.5,528.6,105.1z M582.4,104.3c-1.1-0.5-2.3-1-3.5-1.5l3.3-8.4c1.3,0.5,2.7,1.1,4,1.7L582.4,104.3z M538.2,101.2l-2.6-8.6 c1.4-0.4,2.8-0.8,4.2-1.1l2.1,8.7C540.6,100.5,539.4,100.8,538.2,101.2z M572.7,100.7c-1.2-0.3-2.4-0.6-3.7-0.9l1.9-8.8 c1.4,0.3,2.8,0.6,4.2,1L572.7,100.7z M548.3,99l-1.1-8.9c1.4-0.2,2.9-0.3,4.3-0.4l0.6,9C550.8,98.7,549.6,98.8,548.3,99z M562.5,98.8c-1.2-0.1-2.5-0.2-3.8-0.3l0.4-9c1.4,0.1,2.9,0.2,4.3,0.3L562.5,98.8z"></path> </g> </g> <g class="st11"> <rect x="639.7" y="183.7" transform="matrix(0.5032 -0.8642 0.8642 0.5032 140.9728 656.1874)" class="st12" width="3" height="43.7"></rect> </g> <g class="st11"> <rect x="750.8" y="157" class="st12" width="3" height="31.5"></rect> </g> <g> <g> <path class="st4" d="M755.3,150.1c-0.2-2.5,1.6-4.7,4.1-4.9l0,0c2.5-0.2,4.7,1.6,4.9,4.1l0,0c0.2,2.5-1.6,4.7-4.1,4.9l0,0l0,0 l0,0c-0.1,0-0.3,0-0.4,0l0,0C757.4,154.2,755.5,152.5,755.3,150.1z M743.1,153.7c-2.5-0.4-4.1-2.7-3.8-5.1l0,0 c0.4-2.4,2.7-4.1,5.1-3.8l0,0c2.4,0.4,4.1,2.7,3.8,5.1l0,0c-0.3,2.2-2.3,3.8-4.4,3.8l0,0C743.6,153.7,743.3,153.7,743.1,153.7z M771.1,147.8c-0.8-2.4,0.4-4.9,2.8-5.7l0,0c2.3-0.8,4.9,0.4,5.7,2.8l0,0c0.8,2.4-0.4,4.9-2.8,5.7l0,0c-0.5,0.2-1,0.2-1.5,0.2 l0,0C773.5,150.8,771.7,149.7,771.1,147.8z M726.7,149c-2.3-1-3.4-3.6-2.4-5.9l0,0c1-2.3,3.6-3.4,5.9-2.4l0,0 c2.3,1,3.4,3.6,2.4,5.9l0,0c-0.7,1.7-2.4,2.8-4.2,2.8l0,0C727.9,149.4,727.3,149.3,726.7,149z M785.9,141.7 c-1.4-2.1-0.8-4.9,1.3-6.2l0,0c2.1-1.4,4.9-0.8,6.2,1.3l0,0c1.4,2.1,0.8,4.9-1.3,6.2l0,0c-0.8,0.5-1.6,0.8-2.5,0.8l0,0 C788.2,143.7,786.8,143,785.9,141.7z M711.9,140.5c-2-1.5-2.4-4.3-0.9-6.3l0,0c1.5-2,4.3-2.4,6.3-0.9l0,0c2,1.5,2.4,4.3,0.9,6.3 l0,0c-0.9,1.2-2.2,1.8-3.6,1.8l0,0C713.7,141.4,712.7,141.1,711.9,140.5z M798.8,132.2c-1.8-1.7-2-4.5-0.3-6.4l0,0 c1.7-1.8,4.5-2,6.4-0.3l0,0c1.8,1.7,2,4.5,0.3,6.4l0,0c-0.9,1-2.1,1.5-3.3,1.5l0,0C800.7,133.4,799.6,133,798.8,132.2z M699.6,128.7C699.6,128.7,699.6,128.7,699.6,128.7L699.6,128.7c-1.6-1.9-1.3-4.8,0.7-6.3l0,0c1.9-1.6,4.8-1.3,6.3,0.6l0,0 c1.6,1.9,1.3,4.8-0.7,6.3l0,0c-0.8,0.7-1.8,1-2.8,1l0,0C701.8,130.4,700.5,129.8,699.6,128.7z M808.9,119.9 c-2.2-1.2-3-3.9-1.8-6.1l0,0c1.2-2.2,3.9-3,6.1-1.8l0,0c2.2,1.2,3,3.9,1.8,6.1l0,0c-0.8,1.5-2.4,2.4-4,2.4l0,0 C810.3,120.4,809.6,120.2,808.9,119.9z M690.6,114.2c-1.1-2.2-0.1-4.9,2.2-6l0,0c2.3-1,4.9-0.1,6,2.2l0,0c1.1,2.2,0.1,4.9-2.2,6 l0,0c-0.6,0.3-1.3,0.4-1.9,0.4l0,0C693,116.8,691.3,115.9,690.6,114.2z M815.8,105.4c-2.4-0.6-3.9-3.1-3.2-5.5l0,0 c0.6-2.4,3.1-3.9,5.5-3.2l0,0c2.4,0.6,3.9,3.1,3.2,5.5l0,0l0,0l0,0c-0.5,2-2.4,3.4-4.4,3.4l0,0 C816.5,105.6,816.2,105.5,815.8,105.4z M685.3,98c-0.5-2.4,1.1-4.8,3.6-5.3l0,0c2.4-0.5,4.8,1.1,5.3,3.6l0,0 c0.5,2.4-1.1,4.8-3.6,5.3l0,0c-0.3,0.1-0.6,0.1-0.9,0.1l0,0C687.6,101.6,685.7,100.1,685.3,98z M818.9,89.7c-2.5,0-4.5-2-4.5-4.5 l0,0c0-2.5,2-4.5,4.5-4.5l0,0c2.5,0,4.5,2,4.5,4.5l0,0l0,0l0,0C823.4,87.7,821.4,89.7,818.9,89.7L818.9,89.7 C819,89.7,818.9,89.7,818.9,89.7z M688.4,85.7c-2.5-0.1-4.4-2.2-4.2-4.7l0,0c0.1-2.5,2.3-4.4,4.7-4.2l0,0 c2.5,0.1,4.4,2.2,4.2,4.7l0,0c-0.1,2.4-2.1,4.3-4.5,4.3l0,0C688.6,85.7,688.5,85.7,688.4,85.7z M814.5,85.2L814.5,85.2 L814.5,85.2L814.5,85.2L814.5,85.2z M812.7,70.4c-0.6-2.4,0.9-4.9,3.3-5.4l0,0c2.4-0.6,4.8,0.9,5.4,3.3l0,0 c0.6,2.4-0.9,4.9-3.3,5.4l0,0c-0.4,0.1-0.7,0.1-1.1,0.1l0,0C815.1,73.9,813.2,72.5,812.7,70.4z M690.1,69.8 c-2.4-0.7-3.7-3.3-3-5.6l0,0c0.7-2.4,3.3-3.7,5.6-3l0,0c2.4,0.7,3.7,3.3,3,5.6l0,0c-0.6,1.9-2.4,3.2-4.3,3.2l0,0 C691,70,690.6,70,690.1,69.8z M807.5,56.5L807.5,56.5c-1.1-2.2-0.3-4.9,1.9-6.1l0,0c2.2-1.1,4.9-0.3,6.1,1.9l0,0 c1.2,2.2,0.3,4.9-1.9,6.1l0,0c-0.7,0.3-1.4,0.5-2.1,0.5l0,0C809.9,58.9,808.3,58.1,807.5,56.5z M695.7,54.8 c-2.1-1.3-2.8-4.1-1.5-6.2l0,0c1.3-2.1,4.1-2.8,6.2-1.5l0,0c2.1,1.3,2.8,4.1,1.5,6.2l0,0c-0.8,1.4-2.3,2.2-3.8,2.2l0,0 C697.2,55.5,696.4,55.3,695.7,54.8z M799,44.3c-1.7-1.9-1.5-4.7,0.3-6.4l0,0c1.9-1.6,4.7-1.5,6.4,0.4l0,0 c1.7,1.9,1.5,4.7-0.4,6.4l0,0c-0.9,0.8-1.9,1.1-3,1.1l0,0C801.2,45.8,799.9,45.3,799,44.3z M704.7,41.6c-1.8-1.8-1.7-4.6,0-6.4 l0,0c1.8-1.8,4.6-1.7,6.4,0l0,0c1.7,1.8,1.7,4.6,0,6.4l0,0c-0.9,0.9-2,1.3-3.2,1.3l0,0C706.7,42.9,705.6,42.5,704.7,41.6z M787.8,34.6c-2.1-1.4-2.6-4.2-1.2-6.3l0,0c1.4-2.1,4.2-2.6,6.2-1.2l0,0c0,0,0,0,0,0l0,0c2.1,1.4,2.6,4.2,1.2,6.3l0,0 c-0.9,1.3-2.3,2-3.7,2l0,0C789.5,35.3,788.6,35.1,787.8,34.6z M716.7,31c-1.3-2.1-0.6-4.9,1.6-6.2l0,0c2.1-1.3,4.9-0.6,6.2,1.6 l0,0c1.3,2.1,0.6,4.9-1.6,6.2l0,0c-0.7,0.4-1.5,0.6-2.3,0.6l0,0C719,33.2,717.5,32.4,716.7,31z M780,30c-2.2-1.1-3.2-3.8-2.1-6 l0,0c1.1-2.2,3.8-3.2,6-2.1l0,0c2.2,1.1,3.2,3.8,2.1,6l0,0c-0.8,1.6-2.4,2.5-4.1,2.5l0,0C781.3,30.5,780.6,30.3,780,30z M730.8,23.6c-0.7-2.4,0.6-4.9,3-5.6l0,0c2.4-0.7,4.9,0.7,5.6,3l0,0c0.7,2.4-0.6,4.9-3,5.6l0,0c-0.4,0.1-0.9,0.2-1.3,0.2l0,0 C733.2,26.8,731.4,25.5,730.8,23.6z M765.9,25.3c-2.4-0.5-4-2.9-3.5-5.3l0,0c0.5-2.4,2.9-4,5.3-3.5l0,0c2.4,0.5,4,2.9,3.5,5.3 l0,0c-0.4,2.1-2.3,3.6-4.4,3.6l0,0C766.5,25.4,766.2,25.4,765.9,25.3z M746.4,19.9c-0.1-2.5,1.8-4.6,4.3-4.7l0,0 c2.5-0.1,4.6,1.8,4.7,4.3l0,0c0.1,2.5-1.8,4.6-4.3,4.7l0,0c-0.1,0-0.1,0-0.2,0l0,0C748.5,24.1,746.5,22.3,746.4,19.9z"></path> </g> <g> <g> <g> <path class="st4" d="M786.5,122.2h-67v-3c0-18.5,15-33.5,33.5-33.5s33.5,15,33.5,33.5V122.2z M725.6,116.2h54.7 c-1.5-13.8-13.2-24.5-27.3-24.5S727.1,102.5,725.6,116.2z"></path> </g> </g> <g> <g> <g> <circle class="st5" cx="740.3" cy="45" r="4.9"></circle> </g> </g> </g> <g> <g> <path class="st4" d="M753,82c-12.4,0-22.4-10-22.4-22.4c0-3.1,0.6-6.1,1.9-9l5.5,2.4c-0.9,2.1-1.4,4.3-1.4,6.6 c0,9,7.4,16.4,16.4,16.4s16.4-7.4,16.4-16.4S762,43.2,753,43.2c-1.5,0-3,0.2-4.4,0.6l-1.6-5.8c2-0.6,4-0.8,6.1-0.8 c12.4,0,22.4,10,22.4,22.4S765.3,82,753,82z"></path> </g> </g> </g> </g> <g> <g> <circle class="st13" cx="806" cy="32.3" r="32.3"></circle> </g> <g> <g> <path class="st14" d="M807.1,43.5c-1.7,0-3-1.5-3-3.4c0-1.9,1.4-3.4,3-3.4c1.6,0,3,1.5,3,3.4C810.1,41.9,808.8,43.5,807.1,43.5z M809.3,36.2h-4.2l-0.7-17.1h5.5L809.3,36.2z"></path> </g> <g> <g> <polygon class="st14" points="831.4,48 781.9,48 803.5,10.6 805.8,11.9 786.5,45.4 826.8,45.4 807.5,12 809.8,10.7 "></polygon> </g> </g> <g> <g> <g> <circle class="st15" cx="806.6" cy="8.3" r="2.2"></circle> </g> </g> </g> </g> </g> <g> <g> <defs> <rect id="SVGID_1_" x="742.2" y="531.9" width="497.7" height="21.4"></rect> </defs> <clipPath id="SVGID_2_"> <use xlink:href="#SVGID_1_" style="overflow:visible;"></use> </clipPath> <g class="st16"> <polygon class="st13" points="962.1,531.9 940.7,542.6 962.1,553.3 "></polygon> </g> <g class="st16"> <polygon class="st13" points="1001.8,531.9 980.4,542.6 1001.8,553.3 "></polygon> </g> <g class="st16"> <polygon class="st13" points="1041.5,531.9 1020,542.6 1041.5,553.3 "></polygon> </g> <g class="st16"> <polygon class="st13" points="882.7,531.9 861.3,542.6 882.7,553.3 "></polygon> </g> <g class="st16"> <polygon class="st13" points="922.4,531.9 901,542.6 922.4,553.3 "></polygon> </g> <g class="st16"> <polygon class="st13" points="843,531.9 821.6,542.6 843,553.3 "></polygon> </g> <g class="st16"> <polygon class="st13" points="763.6,531.9 742.2,542.6 763.6,553.3 "></polygon> </g> <g class="st16"> <polygon class="st13" points="803.3,531.9 781.9,542.6 803.3,553.3 "></polygon> </g> <g class="st16"> <polygon class="st13" points="1081.2,531.9 1059.7,542.6 1081.2,553.3 "></polygon> </g> <g class="st16"> <polygon class="st13" points="1120.9,531.9 1099.4,542.6 1120.9,553.3 "></polygon> </g> <g class="st16"> <polygon class="st13" points="1160.5,531.9 1139.1,542.6 1160.5,553.3 "></polygon> </g> <g class="st16"> <polygon class="st13" points="1200.2,531.9 1178.8,542.6 1200.2,553.3 "></polygon> </g> <g class="st16"> <polygon class="st13" points="1239.9,531.9 1218.5,542.6 1239.9,553.3 "></polygon> </g> </g> </g> <g> <g> <defs> <rect id="SVGID_3_" x="226" y="532" width="497.7" height="21.4"></rect> </defs> <clipPath id="SVGID_4_"> <use xlink:href="#SVGID_3_" style="overflow:visible;"></use> </clipPath> <g class="st17"> <polygon class="st13" points="445.9,532 424.5,542.7 445.9,553.4 "></polygon> </g> <g class="st17"> <polygon class="st13" points="485.6,532 464.2,542.7 485.6,553.4 "></polygon> </g> <g class="st17"> <polygon class="st13" points="525.3,532 503.9,542.7 525.3,553.4 "></polygon> </g> <g class="st17"> <polygon class="st13" points="366.5,532 345.1,542.7 366.5,553.4 "></polygon> </g> <g class="st17"> <polygon class="st13" points="406.2,532 384.8,542.7 406.2,553.4 "></polygon> </g> <g class="st17"> <polygon class="st13" points="326.8,532 305.4,542.7 326.8,553.4 "></polygon> </g> <g class="st17"> <polygon class="st13" points="287.1,532 265.7,542.7 287.1,553.4 "></polygon> </g> <g class="st17"> <polygon class="st13" points="565,532 543.6,542.7 565,553.4 "></polygon> </g> <g class="st17"> <polygon class="st13" points="604.7,532 583.3,542.7 604.7,553.4 "></polygon> </g> <g class="st17"> <polygon class="st13" points="644.4,532 623,542.7 644.4,553.4 "></polygon> </g> <g class="st17"> <polygon class="st13" points="684.1,532 662.6,542.7 684.1,553.4 "></polygon> </g> <g class="st17"> <polygon class="st13" points="723.8,532 702.3,542.7 723.8,553.4 "></polygon> </g> </g> </g> <g> <g> <defs> <rect id="SVGID_5_" x="240.4" y="365.5" transform="matrix(0.881 -0.4731 0.4731 0.881 -119.7604 276.199)" width="497.7" height="21.4"></rect> </defs> <clipPath id="SVGID_6_"> <use xlink:href="#SVGID_5_" style="overflow:visible;"></use> </clipPath> <g class="st18"> <polygon class="st13" points="519.9,371.9 533.7,352.4 509.7,353.1 "></polygon> </g> <g class="st18"> <polygon class="st13" points="484.9,390.7 498.7,371.1 474.8,371.8 "></polygon> </g> <g class="st18"> <polygon class="st13" points="449.9,409.5 463.7,389.9 439.8,390.6 "></polygon> </g> <g class="st18"> <polygon class="st13" points="589.8,334.4 603.6,314.8 579.7,315.5 "></polygon> </g> <g class="st18"> <polygon class="st13" points="554.8,353.1 568.6,333.6 544.7,334.3 "></polygon> </g> <g class="st18"> <polygon class="st13" points="414.9,428.3 428.8,408.7 404.8,409.4 "></polygon> </g> <g class="st18"> <polygon class="st13" points="380,447 393.8,427.5 369.8,428.2 "></polygon> </g> <g class="st18"> <polygon class="st13" points="345,465.8 358.8,446.2 334.9,446.9 "></polygon> </g> <g class="st18"> <polygon class="st13" points="310,484.6 323.8,465 299.9,465.7 "></polygon> </g> <g class="st18"> <polygon class="st13" points="276.8,502.4 290.6,482.8 266.7,483.5 "></polygon> </g> </g> </g> <g> <g> <defs> <rect id="SVGID_7_" x="1102.8" y="181.4" transform="matrix(0.5016 -0.8651 0.8651 0.5016 182.7697 1177.8468)" width="21.4" height="497.7"></rect> </defs> <clipPath id="SVGID_8_"> <use xlink:href="#SVGID_7_" style="overflow:visible;"></use> </clipPath> <g class="st19"> <polygon class="st13" points="1133.3,454.1 1157.2,455.6 1144,435.6 "></polygon> </g> <g class="st19"> <polygon class="st13" points="1098.9,434.2 1122.8,435.7 1109.7,415.7 "></polygon> </g> <g class="st19"> <polygon class="st13" points="1064.6,414.3 1088.5,415.8 1075.3,395.8 "></polygon> </g> <g class="st19"> <polygon class="st13" points="1202,493.9 1225.8,495.4 1212.7,475.4 "></polygon> </g> <g class="st19"> <polygon class="st13" points="1167.6,474 1191.5,475.5 1178.4,455.5 "></polygon> </g> <g class="st19"> <polygon class="st13" points="1030.2,394.4 1054.2,395.9 1041,375.9 "></polygon> </g> <g class="st19"> <polygon class="st13" points="995.9,374.5 1019.8,376 1006.7,355.9 "></polygon> </g> <g class="st19"> <polygon class="st13" points="961.6,354.6 985.5,356.1 972.3,336 "></polygon> </g> <g class="st19"> <polygon class="st13" points="927.2,334.7 951.1,336.1 938,316.1 "></polygon> </g> <g class="st19"> <polygon class="st13" points="892.9,314.8 916.8,316.2 903.6,296.2 "></polygon> </g> </g> </g> <g class="st11"> <rect x="841" y="211.8" transform="matrix(0.8642 -0.5032 0.5032 0.8642 9.8563 463.1317)" class="st12" width="43.7" height="3"></rect> </g> </g> </svg> 