<?xml version="1.0" encoding="UTF-8"?> <!-- Generator: Adobe Illustrator 24.0.3, SVG Export Plug-In . SVG Version: 6.00 Build 0) --> <svg xmlns="http://www.w3.org/2000/svg" xmlns:xlink="http://www.w3.org/1999/xlink" id="Layer_1" x="0px" y="0px" viewBox="0 0 125.9 125.9" style="enable-background:new 0 0 125.9 125.9;" xml:space="preserve"> <style type="text/css"> .st0{fill:#FFAF00;} .st1{fill:#009CA6;} </style> <g> <path class="st0" d="M30.4,17.4c0,3.7-3,6.7-6.7,6.7c-3.7,0-6.7-3-6.7-6.7c0-3.7,3-6.7,6.7-6.7C27.4,10.7,30.4,13.7,30.4,17.4"></path> <path class="st1" d="M62.9,125.9C28.2,125.9,0,97.6,0,62.9C0,50.9,3.4,39.2,9.9,29l2.2-3.5l7,4.5l-2.2,3.5 c-5.6,8.8-8.6,18.9-8.6,29.4c0,30.1,24.5,54.6,54.6,54.6c30.1,0,54.6-24.5,54.6-54.6c0-30.1-24.5-54.6-54.6-54.6 c-7.9,0-15.4,1.6-22.5,4.8l-3.8,1.7l-3.4-7.6L37,5.6C45.2,1.9,53.9,0,62.9,0c34.7,0,62.9,28.2,62.9,62.9 C125.9,97.6,97.6,125.9,62.9,125.9"></path> <path class="st1" d="M62.9,119.5c-1.6,0-3-1.3-3-3V5.2c0-1.6,1.3-3,3-3c1.6,0,3,1.3,3,3v111.4C65.9,118.2,64.6,119.5,62.9,119.5"></path> <path class="st1" d="M118.6,66.5H7.2c-1.6,0-3-1.3-3-3c0-1.6,1.3-3,3-3h111.4c1.6,0,3,1.3,3,3C121.6,65.2,120.3,66.5,118.6,66.5"></path> <path class="st1" d="M62.9,125.3c-18.1,0-32.4-27.1-32.4-61.8c0-34.6,14.2-61.7,32.4-61.7c18.1,0,32.4,27.1,32.4,61.7 C95.3,98.2,81.1,125.3,62.9,125.3 M62.9,7.7c-14.3,0-26.4,25.6-26.4,55.8c0,30.3,12.1,55.8,26.4,55.8c14.3,0,26.4-25.6,26.4-55.8 C89.4,33.3,77.3,7.7,62.9,7.7"></path> <path class="st1" d="M102.4,110.9l-2.2-2c-5-4.5-10.7-8-17-10.5C76.8,96,70,94.7,62.9,94.7c-13.8,0-27,5.1-37.2,14.2l-2.2,2l-4-4.4 l2.2-2c11.3-10.2,26-15.8,41.2-15.8c7.8,0,15.3,1.4,22.5,4.2c6.9,2.7,13.2,6.6,18.8,11.6l2.2,2L102.4,110.9z"></path> <path class="st1" d="M62.9,37.1c-7.8,0-15.3-1.4-22.5-4.2c-3.1-1.2-8.7-4.2-9-4.4l2.8-5.2c0.1,0,5.5,3,8.3,4.1 c6.5,2.5,13.3,3.8,20.3,3.8c13.8,0,27-5.1,37.2-14.2l4,4.4C92.8,31.5,78.2,37.1,62.9,37.1"></path> </g> </svg> 