<?xml version="1.0" encoding="UTF-8"?> <!-- Generator: Adobe Illustrator 24.0.3, SVG Export Plug-In . SVG Version: 6.00 Build 0) --> <svg xmlns="http://www.w3.org/2000/svg" xmlns:xlink="http://www.w3.org/1999/xlink" id="Layer_1" x="0px" y="0px" viewBox="0 0 140 105.2" style="enable-background:new 0 0 140 105.2;" xml:space="preserve"> <style type="text/css"> .st0{fill:#0098A5;} .st1{fill:#FFA500;} </style> <g> <g> <rect x="25.8" y="61.5" class="st0" width="5.9" height="10.4"></rect> <rect x="36.7" y="55.2" class="st0" width="5.9" height="16.7"></rect> <rect x="47.7" y="48.8" class="st0" width="5.9" height="23.1"></rect> <rect x="58.6" y="59.8" class="st0" width="5.9" height="12.1"></rect> <rect x="69.5" y="53.5" class="st0" width="5.9" height="18.4"></rect> <rect x="80.5" y="47.1" class="st0" width="5.9" height="24.7"></rect> <rect x="91.4" y="53.5" class="st0" width="5.9" height="18.4"></rect> <rect x="102.4" y="47.1" class="st0" width="5.9" height="24.7"></rect> <polygon class="st0" points="30.3,46.2 27.2,41.1 51.1,27 62.1,37.8 83.7,25.7 94.3,33.8 103.5,26.4 107.2,31 94.5,41.4 83.2,32.8 61.1,45.1 50.2,34.5 "></polygon> </g> <polygon class="st0" points="128.9,93.6 2.5,93.6 2.5,19 10.7,19 10.7,85.5 120.8,85.5 120.8,10.7 19,10.7 19,2.5 128.9,2.5 "></polygon> <path class="st1" d="M13.2,6.6c0,3.7-3,6.6-6.6,6.6C3,13.2,0,10.3,0,6.6C0,3,3,0,6.6,0C10.3,0,13.2,3,13.2,6.6"></path> <polygon class="st0" points="140,105.2 18.8,105.2 18.8,99.4 134.2,99.4 134.2,19.3 140,19.3 "></polygon> </g> </svg> 