<?xml version="1.0" encoding="UTF-8"?> <!-- Generator: Adobe Illustrator 24.0.3, SVG Export Plug-In . SVG Version: 6.00 Build 0) --> <svg xmlns="http://www.w3.org/2000/svg" xmlns:xlink="http://www.w3.org/1999/xlink" id="Layer_1" x="0px" y="0px" viewBox="0 0 139.4 132" style="enable-background:new 0 0 139.4 132;" xml:space="preserve"> <style type="text/css"> .st0{fill:#0098A5;} .st1{fill:#FFA500;} </style> <g> <path class="st0" d="M55.5,116.8c-32.2-1.6-57-29.1-55.4-61.3c0.6-11.6,4.5-22.6,11.4-31.8l6.8,5.1C12.5,36.6,9.1,46,8.6,55.9 c-1.4,27.5,19.8,51,47.3,52.4c27.5,1.4,51-19.8,52.4-47.3C109.7,33.5,88.5,10,61,8.6c-9.1-0.5-18.1,1.5-26,5.8l-4-7.5 c9.3-5,19.9-7.3,30.5-6.8c32.2,1.6,57,29.1,55.4,61.3C115.2,93.6,87.7,118.4,55.5,116.8"></path> <rect x="114.1" y="85.4" transform="matrix(0.7071 -0.7071 0.7071 0.7071 -43.7977 116.1598)" class="st0" width="8.5" height="51.1"></rect> <path class="st1" d="M29.6,17.4c-0.2,3.8-3.4,6.7-7.2,6.5c-3.8-0.2-6.7-3.4-6.5-7.2c0.2-3.8,3.4-6.7,7.2-6.5 C26.9,10.3,29.8,13.6,29.6,17.4"></path> <path class="st0" d="M67.7,59.3c-0.3,5.1-4.6,9.1-9.8,8.8c-5.1-0.3-9.1-4.6-8.8-9.8c0.3-5.1,4.6-9.1,9.8-8.8 C64,49.8,68,54.2,67.7,59.3"></path> <path class="st0" d="M58.2,82.1c-13.6,0-26.7-7-38.8-20.7l-2.3-2.5l2.3-2.5c12.6-14.2,26.1-21.2,40.2-20.7 c22.4,0.7,37.6,20.1,38.2,20.9l1.8,2.4l-1.8,2.4C97.1,62,81.9,81.4,59.5,82.1C59.1,82.1,58.6,82.1,58.2,82.1z M27.4,58.9 c10.3,10.7,20.9,15.9,31.8,15.6C73.7,74,85.1,63.6,89.6,58.9c-4.5-4.8-15.9-15.1-30.4-15.6C48.4,43,37.7,48.2,27.4,58.9z"></path> </g> </svg> 