<?xml version="1.0" encoding="UTF-8"?> <!-- Generator: Adobe Illustrator 24.0.2, SVG Export Plug-In . SVG Version: 6.00 Build 0) --> <svg xmlns="http://www.w3.org/2000/svg" xmlns:xlink="http://www.w3.org/1999/xlink" id="Layer_1" x="0px" y="0px" viewBox="0 0 307.8 307.8" style="enable-background:new 0 0 307.8 307.8;" xml:space="preserve"> <style type="text/css"> .st0{fill:#009BA5;} .st1{fill:#A3AF90;} .st2{fill:#009CA6;} .st3{opacity:0.82;} .st4{fill:none;} .st5{fill:#7FA050;} </style> <g> <g> <g> <path class="st0" d="M87.6,67.9c0,7.8-6.3,14.2-14.2,14.2c-7.8,0-14.2-6.3-14.2-14.2c0-7.8,6.3-14.2,14.2-14.2 C81.2,53.8,87.6,60.1,87.6,67.9"></path> </g> <g> <g> <polygon class="st1" points="277.8,105.4 181.3,105.4 181.3,48.5 187.9,48.5 187.9,98.8 271.2,98.8 271.2,42.3 194,42.3 194,35.7 277.8,35.7 "></polygon> </g> <g> <path class="st0" d="M189.9,39c0,2.9-2.4,5.3-5.3,5.3c-2.9,0-5.3-2.4-5.3-5.3c0-2.9,2.4-5.3,5.3-5.3 C187.5,33.7,189.9,36.1,189.9,39"></path> </g> <g> <rect x="210.2" y="108.3" class="st1" width="38.3" height="4.7"></rect> </g> </g> <g> <g> <path class="st2" d="M83,98.4c0,2.9-2.4,5.3-5.3,5.3c-2.9,0-5.4-2.4-5.4-5.3c0-2.9,2.4-5.3,5.3-5.3C80.6,93.1,83,95.5,83,98.4"></path> </g> <g> <polygon class="st1" points="140.2,201.9 73.5,201.9 73.5,108.5 80.5,108.5 80.5,194.9 133.2,194.9 133.2,99.3 85.4,99.3 85.4,92.3 140.2,92.3 "></polygon> </g> <g> <path class="st1" d="M112.2,186.7c0,2.9-2.4,5.3-5.3,5.3c-2.9,0-5.4-2.4-5.4-5.3c0-2.9,2.4-5.3,5.3-5.3 C109.8,181.4,112.2,183.7,112.2,186.7"></path> </g> <g> <path class="st1" d="M117.4,110.9H97.7c-1.7,0-3-1.3-3-3s1.3-3,3-3h19.7c1.7,0,3,1.3,3,3S119.1,110.9,117.4,110.9z"></path> </g> </g> <g> <g> <polygon class="st1" points="242.4,222.9 155,222.9 155,151.2 162,151.2 162,215.8 235.3,215.8 235.3,143.9 169.2,143.9 169.2,136.9 242.4,136.9 "></polygon> </g> <g> <path class="st1" d="M216,161.4h-5v-27.6c0-6.8-5.5-12.3-12.3-12.3c-6.8,0-12.3,5.5-12.3,12.3v27.6h-5v-27.6 c0-9.6,7.8-17.3,17.3-17.3s17.3,7.8,17.3,17.3V161.4z"></path> </g> <g class="st3"> <g> <path class="st1" d="M183.9,163.7c-2.6,0-4.6-2.1-4.6-4.6c0-2.6,2.1-4.6,4.6-4.6c2.6,0,4.6,2.1,4.6,4.6 C188.5,161.6,186.5,163.7,183.9,163.7 M183.9,158.7c-0.2,0-0.4,0.2-0.4,0.4c0,0.2,0.2,0.4,0.4,0.4c0.2,0,0.4-0.2,0.4-0.4 C184.3,158.9,184.1,158.7,183.9,158.7"></path> </g> <g> <rect x="179.3" y="154.5" class="st4" width="9.3" height="9.3"></rect> </g> </g> <g class="st3"> <g> <path class="st1" d="M213.5,163.7c-2.6,0-4.6-2.1-4.6-4.6c0-2.6,2.1-4.6,4.6-4.6c2.6,0,4.6,2.1,4.6,4.6 C218.2,161.6,216.1,163.7,213.5,163.7 M213.5,158.7c-0.2,0-0.4,0.2-0.4,0.4c0,0.2,0.2,0.4,0.4,0.4c0.2,0,0.4-0.2,0.4-0.4 C213.9,158.9,213.7,158.7,213.5,158.7"></path> </g> <g> <rect x="208.9" y="154.5" class="st4" width="9.3" height="9.3"></rect> </g> </g> <g> <path class="st0" d="M164.2,140.4c0,3.1-2.6,5.7-5.7,5.7c-3.1,0-5.7-2.6-5.7-5.7c0-3.1,2.6-5.7,5.7-5.7 C161.6,134.7,164.2,137.3,164.2,140.4"></path> </g> </g> <g> <g> <rect x="150" class="st5" width="14" height="79.6"></rect> </g> <g> <rect x="150" y="228.2" class="st5" width="14" height="79.6"></rect> </g> <g> <rect x="228.2" y="150" transform="matrix(1 -1.953121e-03 1.953121e-03 1 -0.3061 0.5238)" class="st5" width="79.6" height="14"></rect> </g> <g> <line class="st5" x1="79.6" y1="157.4" x2="0" y2="157.5"></line> <rect x="0" y="150.4" transform="matrix(1 -1.953121e-03 1.953121e-03 1 -0.3074 7.805513e-02)" class="st5" width="79.6" height="14"></rect> </g> <g> <path class="st5" d="M155.5,280c-69,0-125.2-56.2-125.2-125.2c0-24.8,7.2-48.8,20.9-69.3l15.2,10.1 c-11.7,17.6-17.9,38-17.9,59.2c0,59,48,106.9,107,106.9c59,0,106.9-48,106.9-106.9c0-59-48-107-106.9-107 c-19.5,0-38.5,5.3-55.1,15.2L91,47.4c19.4-11.7,41.7-17.9,64.5-17.9c69,0,125.2,56.2,125.2,125.2 C280.6,223.8,224.5,280,155.5,280"></path> </g> </g> </g> </g> </svg> 