<?xml version="1.0" encoding="UTF-8"?> <!-- Generator: Adobe Illustrator 24.0.3, SVG Export Plug-In . SVG Version: 6.00 Build 0) --> <svg xmlns="http://www.w3.org/2000/svg" xmlns:xlink="http://www.w3.org/1999/xlink" id="Layer_1" x="0px" y="0px" viewBox="0 0 157.3 126.9" style="enable-background:new 0 0 157.3 126.9;" xml:space="preserve"> <style type="text/css"> .st0{fill:#FFAF00;} .st1{fill:#009CA6;} </style> <g> <path class="st0" d="M25.4,22.9c0,3.4-2.7,6.1-6.1,6.1c-3.4,0-6.1-2.7-6.1-6.1c0-3.4,2.7-6.1,6.1-6.1 C22.7,16.8,25.4,19.6,25.4,22.9"></path> <g> <path class="st1" d="M63.4,7.6c27.2,0,49.9,19.5,54.8,45.2h7.7C120.9,22.9,94.8,0,63.4,0C49.5,0,36.3,4.4,25.2,12.8l4.6,6 C39.5,11.5,51.2,7.6,63.4,7.6z"></path> <path class="st1" d="M118.2,74.6c-5.2,25.5-27.8,44.7-54.7,44.7c-30.8,0-55.8-25.1-55.8-55.8c0-10.7,3-21,8.7-30l-6.4-4.1 C3.4,39.5,0,51.3,0,63.4c0,35,28.5,63.4,63.4,63.4c31.2,0,57.2-22.6,62.4-52.3H118.2z"></path> <path class="st1" d="M63.4,101.7c17.2,0,31.8-11.4,36.6-27.1h-8C87.5,86,76.4,94.1,63.4,94.1c-16.9,0-30.7-13.8-30.7-30.7 s13.8-30.7,30.7-30.7c13.2,0,24.5,8.4,28.8,20.1h8c-4.6-15.9-19.3-27.7-36.8-27.7c-21.1,0-38.3,17.2-38.3,38.3 C25.2,84.5,42.3,101.7,63.4,101.7z"></path> </g> <rect x="62.9" y="60.6" class="st1" width="86.4" height="6.6"></rect> <polygon class="st1" points="141.5,80.4 136.8,75.8 148,64.6 136.8,53.4 141.5,48.7 157.3,64.6 "></polygon> </g> </svg> 