<?xml version="1.0" encoding="UTF-8"?> <!-- Generator: Adobe Illustrator 24.0.3, SVG Export Plug-In . SVG Version: 6.00 Build 0) --> <svg xmlns="http://www.w3.org/2000/svg" xmlns:xlink="http://www.w3.org/1999/xlink" id="Layer_1" x="0px" y="0px" viewBox="0 0 135.8 117.6" style="enable-background:new 0 0 135.8 117.6;" xml:space="preserve"> <style type="text/css"> .st0{fill:#009CA6;} .st1{fill:#FFAF00;} </style> <g> <g> <path class="st0" d="M48.6,36.6c-10.1,0-18.3-8.2-18.3-18.3S38.5,0,48.6,0s18.3,8.2,18.3,18.3S58.7,36.6,48.6,36.6z M48.6,7.6 c-5.9,0-10.8,4.8-10.8,10.8s4.8,10.8,10.8,10.8s10.8-4.8,10.8-10.8S54.5,7.6,48.6,7.6z"></path> </g> <g> <path class="st0" d="M103.2,77.1c-10.1,0-18.3-8.2-18.3-18.3c0-10.1,8.2-18.3,18.3-18.3s18.3,8.2,18.3,18.3 C121.6,68.9,113.3,77.1,103.2,77.1z M103.2,48c-5.9,0-10.8,4.8-10.8,10.8s4.8,10.8,10.8,10.8c5.9,0,10.8-4.8,10.8-10.8 S109.2,48,103.2,48z"></path> </g> <g> <path class="st0" d="M59.2,117.6c-10.1,0-18.3-8.2-18.3-18.3c0-10.1,8.2-18.3,18.3-18.3s18.3,8.2,18.3,18.3 C77.5,109.3,69.3,117.6,59.2,117.6z M59.2,88.5c-5.9,0-10.8,4.8-10.8,10.8S53.3,110,59.2,110S70,105.2,70,99.2 S65.1,88.5,59.2,88.5z"></path> </g> <g> <path class="st1" d="M12.5,18.1c0,3.4-2.8,6.2-6.2,6.2S0,21.6,0,18.1c0-3.4,2.8-6.2,6.2-6.2S12.5,14.7,12.5,18.1"></path> </g> <g> <rect x="63.1" y="14.3" class="st0" width="72.6" height="7.7"></rect> </g> <g> <rect x="16.7" y="14.3" class="st0" width="17.4" height="7.7"></rect> </g> <g> <rect x="117.8" y="54.9" class="st0" width="18" height="7.7"></rect> </g> <g> <rect y="54.9" class="st0" width="88.7" height="7.7"></rect> </g> <g> <rect x="73.7" y="95.6" class="st0" width="62" height="7.7"></rect> </g> <g> <rect y="95.6" class="st0" width="44.7" height="7.7"></rect> </g> </g> </svg> 