<?xml version="1.0" encoding="UTF-8"?> <!-- Generator: Adobe Illustrator 24.0.2, SVG Export Plug-In . SVG Version: 6.00 Build 0) --> <svg xmlns="http://www.w3.org/2000/svg" xmlns:xlink="http://www.w3.org/1999/xlink" id="Layer_1" x="0px" y="0px" viewBox="0 0 519.9 432.3" style="enable-background:new 0 0 519.9 432.3;" xml:space="preserve"> <style type="text/css"> .st0{fill:#7298B7;} .st1{fill:#009BA5;} .st2{fill:#547991;} .st3{opacity:0.82;} .st4{fill:none;} .st5{fill:#009AA4;} .st6{opacity:0.48;} .st7{fill:#575756;} .st8{fill:#009CA6;} .st9{fill:#FDC603;} .st10{fill:#FCFCFC;} .st11{fill:#FFFFFF;} </style> <g> <g> <g> <path class="st0" d="M449.4,226.5c-2.5-0.1-4.4-2.2-4.3-4.7l0,0c0.1-2.5,2.2-4.4,4.7-4.3l0,0c2.5,0.1,4.4,2.2,4.3,4.7l0,0 c-0.1,2.4-2.1,4.3-4.5,4.3l0,0C449.5,226.5,449.4,226.5,449.4,226.5z M461.1,221.6c-0.5-2.4,1-4.8,3.5-5.3l0,0 c2.4-0.5,4.8,1,5.3,3.5l0,0c0.5,2.4-1,4.8-3.5,5.3l0,0c-0.3,0.1-0.6,0.1-0.9,0.1l0,0C463.4,225.1,461.5,223.7,461.1,221.6z M432.5,223.6c-2.4-0.7-3.7-3.2-3-5.6l0,0c0.7-2.4,3.2-3.7,5.6-3l0,0c2.4,0.7,3.7,3.2,3,5.6l0,0c-0.6,1.9-2.4,3.2-4.3,3.2l0,0 C433.4,223.8,433,223.7,432.5,223.6z M476.5,217.4c-1.1-2.2-0.2-4.9,2-6l0,0c2.2-1.1,4.9-0.2,6,2l0,0c1.1,2.2,0.2,4.9-2,6l0,0 c-0.6,0.3-1.3,0.5-2,0.5l0,0C478.9,219.9,477.3,219,476.5,217.4z M417,216.5c-2.1-1.3-2.8-4.1-1.5-6.2l0,0 c1.3-2.1,4.1-2.8,6.2-1.5l0,0c2.1,1.3,2.8,4.1,1.5,6.2l0,0c-0.9,1.4-2.3,2.1-3.8,2.1l0,0C418.5,217.2,417.7,217,417,216.5z M490.4,209.5c-1.6-1.9-1.4-4.7,0.5-6.4l0,0c1.9-1.6,4.7-1.4,6.3,0.5l0,0c1.6,1.9,1.4,4.7-0.5,6.4l0,0l0,0l0,0 c-0.9,0.7-1.9,1.1-2.9,1.1l0,0C492.6,211.1,491.3,210.5,490.4,209.5z M403.6,205.9c-1.7-1.8-1.7-4.6,0.1-6.4l0,0 c1.8-1.7,4.6-1.7,6.4,0.1l0,0c1.7,1.8,1.7,4.6-0.1,6.4l0,0c-0.9,0.8-2,1.3-3.1,1.3l0,0C405.7,207.2,404.5,206.8,403.6,205.9z M501.9,198.4c-2-1.4-2.6-4.2-1.1-6.3l0,0c1.4-2,4.2-2.6,6.3-1.1l0,0c2.1,1.4,2.6,4.2,1.1,6.3l0,0l0,0l0,0 c-0.9,1.3-2.3,1.9-3.7,1.9l0,0C503.6,199.2,502.7,198.9,501.9,198.4z M393.4,192.2c-1.2-2.2-0.5-4.9,1.7-6.1l0,0 c2.2-1.2,4.9-0.5,6.1,1.7l0,0c1.2,2.2,0.5,4.9-1.7,6.1l0,0c-0.7,0.4-1.5,0.6-2.2,0.6l0,0C395.7,194.4,394.2,193.6,393.4,192.2z M510.3,184.7c-2.3-0.9-3.5-3.5-2.7-5.8l0,0c0.9-2.3,3.5-3.5,5.8-2.7l0,0c2.3,0.9,3.5,3.5,2.7,5.8l0,0c-0.7,1.8-2.4,3-4.2,3l0,0 C511.3,185,510.8,184.9,510.3,184.7z M386.9,176.4L386.9,176.4L386.9,176.4c-0.7-2.4,0.8-4.9,3.2-5.5l0,0 c2.4-0.6,4.9,0.8,5.5,3.2l0,0c0.6,2.4-0.8,4.9-3.2,5.5l0,0c-0.4,0.1-0.8,0.2-1.2,0.2l0,0C389.2,179.7,387.4,178.4,386.9,176.4z M514.9,169.4c-2.5-0.2-4.3-2.4-4-4.9l0,0c0.2-2.5,2.4-4.3,4.9-4l0,0c2.5,0.2,4.3,2.4,4,4.9l0,0c-0.2,2.3-2.2,4-4.5,4l0,0 C515.2,169.5,515.1,169.5,514.9,169.4z M384.5,159.4L384.5,159.4L384.5,159.4c0-2.5,2-4.5,4.4-4.6l0,0c2.5,0,4.5,2,4.6,4.5l0,0 c0,2.5-2,4.5-4.4,4.5l0,0c0,0,0,0-0.1,0l0,0C386.6,163.9,384.6,161.9,384.5,159.4z M510.5,149.7L510.5,149.7 c-0.4-2.5,1.3-4.8,3.8-5.1l0,0c2.4-0.4,4.8,1.3,5.1,3.8l0,0c0.4,2.5-1.3,4.8-3.8,5.1l0,0c-0.2,0-0.5,0.1-0.7,0.1l0,0 C512.8,153.5,510.8,151.9,510.5,149.7z M389.8,147.9c-2.4-0.6-3.9-3-3.3-5.4l0,0c0.6-2.4,3-3.9,5.4-3.3l0,0 c2.4,0.6,3.9,3,3.3,5.5l0,0c-0.5,2-2.3,3.4-4.4,3.4l0,0C390.5,148,390.2,148,389.8,147.9z M506.4,135.5c-1-2.3,0.1-4.9,2.4-5.9 l0,0c2.3-1,4.9,0.1,5.9,2.4l0,0c1,2.3-0.1,4.9-2.4,5.9l0,0c-0.6,0.2-1.2,0.4-1.8,0.4l0,0C508.8,138.2,507.1,137.2,506.4,135.5z M393.7,134.6c-2.2-1.1-3.1-3.8-2-6l0,0c1.1-2.2,3.8-3.1,6-2l0,0c2.2,1.1,3.1,3.8,2,6l0,0c-0.8,1.6-2.4,2.5-4,2.5l0,0 C395,135,394.3,134.9,393.7,134.6z M498.9,122.7c-1.5-2-1.2-4.8,0.8-6.3l0,0c2-1.5,4.8-1.2,6.3,0.8l0,0c1.5,2,1.2,4.8-0.8,6.3 l0,0c-0.8,0.6-1.8,0.9-2.8,0.9l0,0C501.1,124.4,499.8,123.8,498.9,122.7z M401.6,120.6c-1.9-1.6-2.1-4.5-0.5-6.4l0,0 c1.6-1.9,4.5-2.1,6.3-0.5l0,0c1.9,1.6,2.1,4.5,0.5,6.3l0,0c-0.9,1-2.1,1.6-3.4,1.6l0,0C403.5,121.7,402.4,121.4,401.6,120.6z M488.4,112.2c-2-1.5-2.3-4.4-0.8-6.3l0,0c1.5-2,4.4-2.3,6.3-0.8l0,0c2,1.5,2.3,4.3,0.8,6.3l0,0c-0.9,1.2-2.2,1.8-3.6,1.8l0,0 C490.2,113.1,489.2,112.8,488.4,112.2z M412.7,109.1c-1.4-2-0.9-4.8,1.1-6.3l0,0c2.1-1.4,4.9-0.9,6.3,1.1l0,0 c1.4,2,0.9,4.9-1.2,6.3l0,0c-0.8,0.5-1.7,0.8-2.5,0.8l0,0C415,111.1,413.6,110.4,412.7,109.1z M475.6,104.7 c-2.3-1-3.3-3.6-2.4-5.9l0,0c1-2.3,3.6-3.3,5.9-2.4l0,0c2.3,1,3.3,3.6,2.4,5.9l0,0c-0.7,1.7-2.4,2.7-4.1,2.7l0,0 C476.8,105,476.2,104.9,475.6,104.7z M426.4,100.8c-0.9-2.3,0.3-4.9,2.7-5.8l0,0c2.3-0.9,4.9,0.3,5.8,2.7l0,0 c0.9,2.3-0.4,4.9-2.7,5.8l0,0c-0.5,0.2-1,0.3-1.6,0.3l0,0C428.7,103.8,427,102.6,426.4,100.8z M461.4,100.6 c-2.5-0.4-4.1-2.7-3.8-5.1l0,0c0.4-2.5,2.7-4.1,5.1-3.8l0,0c2.5,0.4,4.1,2.7,3.8,5.1l0,0c-0.4,2.2-2.3,3.8-4.4,3.8l0,0 C461.9,100.6,461.6,100.6,461.4,100.6z M441.6,96.1c-0.2-2.5,1.6-4.7,4-4.9l0,0c2.5-0.2,4.7,1.5,4.9,4l0,0c0.2,2.5-1.6,4.7-4,4.9 l0,0c-0.1,0-0.3,0-0.4,0l0,0C443.8,100.2,441.9,98.5,441.6,96.1z"></path> </g> <g> <g> <path class="st1" d="M433.3,120.9c0,2.2-1.8,4.1-4,4.1c-2.2,0-4.1-1.9-4.1-4.1c0-2.2,1.8-4.1,4.1-4.1 C431.5,116.8,433.3,118.7,433.3,120.9"></path> </g> <g> <polygon class="st0" points="477.8,200.8 425.2,200.8 425.2,128.6 432.2,128.6 432.2,193.8 470.8,193.8 470.8,122.4 435.2,122.4 435.2,115.4 477.8,115.4 "></polygon> </g> <g> <path class="st0" d="M455.6,188.3c0,2.2-1.8,4.1-4,4.1c-2.2,0-4.1-1.9-4.1-4.1c0-2.2,1.8-4.1,4.1-4.1 C453.8,184.3,455.6,186.1,455.6,188.3"></path> </g> <g> <path class="st0" d="M459.6,131.2h-15.1c-1.7,0-3-1.3-3-3c0-1.7,1.3-3,3-3h15.1c1.7,0,3,1.3,3,3 C462.6,129.8,461.3,131.2,459.6,131.2z"></path> </g> </g> </g> <g> <g> <g> <path class="st1" d="M203.6,223.9c0,7.1-5.8,12.9-12.9,12.9c-7.2,0-12.9-5.8-12.9-12.9c0-7.1,5.8-12.9,12.9-12.9 C197.8,210.9,203.6,216.7,203.6,223.9"></path> </g> </g> <g> <g> <path class="st2" d="M266.1,432.3c-66.7,0-121-54.3-121-121c0-23.2,6.6-45.7,19-65.1l4.3-6.7l13.4,8.6l-4.3,6.7 c-10.8,16.9-16.5,36.4-16.5,56.5c0,57.9,47.1,105,105,105c57.9,0,105-47.1,105-105c0-57.9-47.1-105-105-105 c-15.1,0-29.7,3.1-43.3,9.3l-7.3,3.3l-6.6-14.5l7.3-3.3c15.7-7.1,32.5-10.7,49.9-10.7c66.7,0,121,54.3,121,120.9 C387.1,378.1,332.8,432.3,266.1,432.3"></path> </g> </g> <g> <g> <path class="st2" d="M266.1,420.1c-3.2,0-5.7-2.6-5.7-5.7V200.4c0-3.2,2.6-5.7,5.7-5.7c3.2,0,5.7,2.6,5.7,5.7v214.1 C271.9,417.6,269.3,420.1,266.1,420.1"></path> </g> </g> <g> <g> <path class="st2" d="M373.2,318.3H159.1c-3.2,0-5.7-2.6-5.7-5.7c0-3.1,2.6-5.7,5.7-5.7h214.1c3.2,0,5.7,2.6,5.7,5.7 C378.9,315.7,376.3,318.3,373.2,318.3"></path> </g> </g> <g> <g> <path class="st2" d="M266.1,431.2c-34.9,0-62.2-52.1-62.2-118.7c0-66.5,27.3-118.7,62.2-118.7c34.9,0,62.2,52.1,62.2,118.7 C328.3,379.1,301,431.2,266.1,431.2 M266.1,205.3c-27.5,0-50.8,49.1-50.8,107.3c0,58.1,23.3,107.3,50.8,107.3 c27.5,0,50.8-49.1,50.8-107.3C316.9,254.4,293.7,205.3,266.1,205.3"></path> </g> </g> <g> <g> <path class="st2" d="M342.1,403.6l-4.2-3.8c-9.6-8.7-20.6-15.4-32.6-20.1c-12.4-4.9-25.6-7.3-39-7.3c-26.5,0-51.9,9.7-71.6,27.4 l-4.2,3.8l-7.6-8.5l4.2-3.8c21.8-19.5,49.9-30.3,79.2-30.3c14.9,0,29.4,2.7,43.2,8.1c13.3,5.2,25.4,12.7,36.1,22.3l4.2,3.8 L342.1,403.6z"></path> </g> </g> <g> <g> <path class="st2" d="M266.1,261.8c-14.9,0-29.4-2.7-43.2-8.1c-6-2.4-16.8-8.2-17.2-8.4l5.4-10c0.1,0.1,10.6,5.7,15.9,7.8 c12.4,4.9,25.6,7.3,39,7.3c26.5,0,51.9-9.7,71.6-27.4l7.6,8.5C323.5,251,295.4,261.8,266.1,261.8"></path> </g> </g> </g> <g> <g> <g> <g> <polygon class="st0" points="105.2,198.9 35.3,198.9 35.3,141.6 40.9,141.6 40.9,193.3 99.6,193.3 99.6,135.8 46.7,135.8 46.7,130.1 105.2,130.1 "></polygon> </g> </g> <g> <g> <path class="st0" d="M84.1,149.7h-4v-22.1c0-5.4-4.4-9.8-9.8-9.8c-5.4,0-9.8,4.4-9.8,9.8v22.1h-4v-22.1 c0-7.6,6.2-13.9,13.9-13.9s13.9,6.2,13.9,13.9V149.7z"></path> </g> </g> <g class="st3"> <g> <g> <path class="st0" d="M58.4,151.6c-2,0-3.7-1.7-3.7-3.7c0-2,1.7-3.7,3.7-3.7c2,0,3.7,1.7,3.7,3.7 C62.1,149.9,60.5,151.6,58.4,151.6 M58.4,147.6c-0.2,0-0.3,0.1-0.3,0.3c0,0.2,0.1,0.3,0.3,0.3c0.2,0,0.3-0.1,0.3-0.3 C58.8,147.7,58.6,147.6,58.4,147.6"></path> </g> </g> <g> <g> <rect x="54.7" y="144.2" class="st4" width="7.4" height="7.4"></rect> </g> </g> </g> <g class="st3"> <g> <g> <path class="st0" d="M82.1,151.6c-2,0-3.7-1.7-3.7-3.7c0-2,1.7-3.7,3.7-3.7c2,0,3.7,1.7,3.7,3.7 C85.8,149.9,84.2,151.6,82.1,151.6 M82.1,147.6c-0.2,0-0.3,0.1-0.3,0.3c0,0.2,0.1,0.3,0.3,0.3c0.2,0,0.3-0.1,0.3-0.3 C82.5,147.7,82.3,147.6,82.1,147.6"></path> </g> </g> <g> <g> <rect x="78.4" y="144.2" class="st4" width="7.4" height="7.4"></rect> </g> </g> </g> <g> <g> <path class="st5" d="M42.7,133c0,2.5-2,4.6-4.6,4.6c-2.5,0-4.6-2-4.6-4.6c0-2.5,2-4.6,4.6-4.6C40.6,128.4,42.7,130.4,42.7,133"></path> </g> </g> </g> <g> <g> <path class="st0" d="M70.1,229.8c-0.4,0-0.9,0-1.3,0l0.2-9c1.3,0,2.5,0,3.8,0l0.4,9C72.1,229.7,71.1,229.8,70.1,229.8z M61.3,229.2c-1.4-0.2-2.9-0.4-4.3-0.7l1.7-8.8c1.2,0.2,2.5,0.4,3.7,0.6L61.3,229.2z M80.7,229l-1.3-8.9 c1.2-0.2,2.5-0.4,3.7-0.7l1.9,8.8C83.5,228.5,82.1,228.8,80.7,229z M49.6,226.7c-1.4-0.4-2.8-0.9-4.1-1.4l3.2-8.4 c1.2,0.4,2.4,0.8,3.6,1.2L49.6,226.7z M92.2,226.2l-2.8-8.5c1.2-0.4,2.4-0.8,3.5-1.3l3.4,8.3C95,225.2,93.6,225.7,92.2,226.2z M38.6,222.3c-1.3-0.6-2.6-1.3-3.8-2.1l4.5-7.8c1.1,0.6,2.2,1.2,3.3,1.8L38.6,222.3z M103.2,221.5l-4.2-7.9 c1.1-0.6,2.2-1.2,3.3-1.9l4.7,7.7C105.7,220.1,104.4,220.8,103.2,221.5z M28.4,216c-1.2-0.9-2.3-1.8-3.4-2.7l5.8-6.9 c1,0.8,2,1.6,3,2.3L28.4,216z M113.1,215l-5.5-7.1c1-0.8,2-1.6,2.9-2.4l5.9,6.8C115.4,213.2,114.3,214.1,113.1,215z M19.5,208.2 c-1-1-2-2.1-2.9-3.2l6.9-5.8c0.8,1,1.7,1.9,2.5,2.8L19.5,208.2z M121.9,207l-6.6-6.1c0.8-0.9,1.7-1.9,2.5-2.9l7,5.7 C123.8,204.8,122.8,205.9,121.9,207z M12,199c-0.8-1.2-1.6-2.4-2.3-3.7l7.7-4.6c0.6,1.1,1.3,2.1,2,3.2L12,199z M129.1,197.5 l-7.6-4.9c0.7-1.1,1.3-2.1,1.9-3.2l7.9,4.4C130.6,195.1,129.9,196.3,129.1,197.5z M6.2,188.6c-0.6-1.3-1.2-2.6-1.7-4l8.4-3.2 c0.4,1.2,0.9,2.3,1.4,3.5L6.2,188.6z M134.7,187l-8.3-3.5c0.5-1.1,0.9-2.3,1.4-3.5l8.5,3C135.8,184.4,135.2,185.7,134.7,187z M2.2,177.4c-0.4-1.4-0.7-2.8-1-4.2l8.8-1.7c0.2,1.2,0.5,2.5,0.8,3.7L2.2,177.4z M138.4,175.7l-8.8-2.1c0.3-1.2,0.5-2.5,0.7-3.7 l8.9,1.5C139,172.9,138.7,174.3,138.4,175.7z M0.2,165.7c-0.1-1.4-0.2-2.9-0.2-4.3l9-0.2c0,1.3,0.1,2.5,0.2,3.8L0.2,165.7z M140.1,164l-9-0.5c0.1-1.3,0.1-2.5,0.1-3.8l0-0.2h9l0,0.2C140.2,161.1,140.2,162.5,140.1,164z M9.2,154.5l-9-0.7 c0.1-1.4,0.3-2.9,0.5-4.3l8.9,1.3C9.4,152,9.3,153.3,9.2,154.5z M130.9,152.9c-0.1-1.2-0.3-2.5-0.5-3.7l8.9-1.5 c0.2,1.4,0.4,2.9,0.6,4.3L130.9,152.9z M10.9,144.3l-8.7-2.2c0.4-1.4,0.8-2.8,1.2-4.2l8.6,2.8C11.6,141.9,11.2,143.1,10.9,144.3 z M128.9,142.7c-0.3-1.2-0.7-2.4-1.2-3.6l8.5-3c0.5,1.4,0.9,2.7,1.3,4.1L128.9,142.7z M14.3,134.5l-8.2-3.7 c0.6-1.3,1.2-2.6,1.9-3.9l8,4.2C15.4,132.3,14.9,133.4,14.3,134.5z M125.2,133c-0.5-1.1-1.1-2.2-1.7-3.3l7.8-4.4 c0.7,1.3,1.4,2.5,2,3.8L125.2,133z M19.4,125.5l-7.5-5c0.8-1.2,1.7-2.4,2.5-3.5l7.1,5.5C20.8,123.4,20.1,124.4,19.4,125.5z M119.9,124.1c-0.7-1-1.5-2-2.3-3l7-5.7c0.9,1.1,1.8,2.3,2.6,3.4L119.9,124.1z M25.9,117.4l-6.5-6.2c1-1,2-2.1,3.1-3l6.1,6.6 C27.7,115.6,26.8,116.5,25.9,117.4z M113.2,116.2c-0.9-0.9-1.8-1.7-2.8-2.6l5.9-6.8c1.1,0.9,2.1,1.9,3.2,3L113.2,116.2z M33.7,110.5l-5.4-7.2c1.2-0.9,2.3-1.7,3.5-2.5l4.9,7.5C35.7,109.1,34.7,109.8,33.7,110.5z M105.2,109.6c-1-0.7-2.1-1.4-3.2-2.1 l4.7-7.7c1.2,0.8,2.4,1.6,3.6,2.4L105.2,109.6z M42.5,105.1l-4.1-8c1.3-0.7,2.6-1.3,3.9-1.8l3.6,8.3 C44.8,104,43.6,104.5,42.5,105.1z M96.2,104.3c-1.1-0.5-2.3-1-3.5-1.5l3.3-8.4c1.3,0.5,2.7,1.1,4,1.7L96.2,104.3z M52.1,101.2 l-2.6-8.6c1.4-0.4,2.8-0.8,4.2-1.1l2.1,8.7C54.5,100.5,53.3,100.8,52.1,101.2z M86.5,100.7c-1.2-0.3-2.4-0.6-3.7-0.9l1.9-8.8 c1.4,0.3,2.8,0.6,4.2,1L86.5,100.7z M62.2,99l-1.1-8.9c1.4-0.2,2.9-0.3,4.3-0.4l0.6,9C64.7,98.7,63.5,98.8,62.2,99z M76.3,98.8 c-1.2-0.1-2.5-0.2-3.8-0.3l0.4-9c1.4,0.1,2.9,0.2,4.3,0.3L76.3,98.8z"></path> </g> </g> </g> <g class="st6"> <rect x="153.6" y="183.7" transform="matrix(0.5032 -0.8642 0.8642 0.5032 -100.5395 236.0845)" class="st7" width="3" height="43.7"></rect> </g> <g class="st6"> <rect x="264.7" y="157" class="st7" width="3" height="31.5"></rect> </g> <g> <g> <path class="st0" d="M269.1,150.1c-0.2-2.5,1.6-4.7,4.1-4.9l0,0c2.5-0.2,4.7,1.6,4.9,4.1l0,0c0.2,2.5-1.6,4.7-4.1,4.9l0,0l0,0 l0,0c-0.1,0-0.3,0-0.4,0l0,0C271.3,154.2,269.4,152.5,269.1,150.1z M257,153.7L257,153.7L257,153.7c-2.5-0.4-4.1-2.7-3.8-5.1l0,0 c0.4-2.5,2.7-4.1,5.1-3.8l0,0c2.5,0.4,4.1,2.7,3.8,5.1l0,0c-0.3,2.2-2.3,3.8-4.4,3.8l0,0C257.4,153.7,257.2,153.7,257,153.7z M285,147.8c-0.8-2.4,0.4-4.9,2.8-5.7l0,0c2.4-0.8,4.9,0.4,5.7,2.8l0,0c0.8,2.3-0.4,4.9-2.8,5.7l0,0c-0.5,0.2-1,0.3-1.5,0.3l0,0 C287.4,150.8,285.6,149.7,285,147.8z M240.6,149c-2.3-1-3.4-3.6-2.4-5.9l0,0c1-2.3,3.6-3.4,5.9-2.4l0,0c2.3,1,3.4,3.6,2.4,5.9 l0,0c-0.7,1.7-2.4,2.8-4.1,2.8l0,0C241.7,149.4,241.1,149.3,240.6,149z M299.8,141.7c-1.4-2.1-0.8-4.9,1.3-6.2l0,0 c2.1-1.4,4.9-0.8,6.2,1.3l0,0c1.4,2.1,0.8,4.9-1.3,6.2l0,0c-0.8,0.5-1.6,0.7-2.5,0.7l0,0C302.1,143.7,300.6,143,299.8,141.7z M225.8,140.5c-2-1.5-2.4-4.3-0.9-6.3l0,0c1.5-2,4.3-2.4,6.3-0.9l0,0c2,1.5,2.4,4.3,0.9,6.3l0,0c-0.9,1.2-2.2,1.8-3.6,1.8l0,0 C227.5,141.4,226.6,141.1,225.8,140.5z M312.6,132.2c-1.8-1.7-2-4.5-0.3-6.4l0,0c1.7-1.8,4.5-2,6.4-0.3l0,0 c1.8,1.7,2,4.5,0.3,6.4l0,0c-0.9,1-2.1,1.5-3.3,1.5l0,0C314.6,133.4,313.5,133,312.6,132.2z M213.5,128.7 c-1.6-1.9-1.3-4.8,0.7-6.3l0,0c1.9-1.6,4.8-1.3,6.3,0.7l0,0c1.6,1.9,1.3,4.8-0.7,6.3l0,0c-0.8,0.7-1.8,1-2.8,1l0,0 C215.7,130.4,214.4,129.8,213.5,128.7z M322.8,119.8c-2.2-1.2-3-3.9-1.8-6.1l0,0c1.2-2.2,3.9-3,6.1-1.8l0,0 c2.2,1.2,3,3.9,1.8,6.1l0,0l0,0l0,0c-0.8,1.5-2.4,2.3-3.9,2.3l0,0C324.2,120.4,323.5,120.2,322.8,119.8z M204.4,114.2 c-1-2.3-0.1-4.9,2.2-6l0,0c2.2-1,4.9-0.1,6,2.2l0,0c1,2.3,0.1,4.9-2.2,6l0,0c-0.6,0.3-1.3,0.4-1.9,0.4l0,0 C206.8,116.8,205.2,115.9,204.4,114.2z M329.7,105.4c-2.4-0.6-3.9-3.1-3.2-5.5l0,0c0.6-2.4,3.1-3.9,5.5-3.2l0,0 c2.4,0.6,3.9,3.1,3.2,5.5l0,0l0,0l0,0c-0.5,2-2.4,3.4-4.4,3.4l0,0C330.4,105.5,330,105.5,329.7,105.4z M199.2,98 c-0.5-2.4,1.1-4.8,3.6-5.3l0,0c2.4-0.5,4.8,1.1,5.3,3.6l0,0c0.5,2.4-1.1,4.8-3.6,5.3l0,0c-0.3,0.1-0.6,0.1-0.9,0.1l0,0 C201.5,101.6,199.6,100.1,199.2,98z M332.8,89.7c-2.5,0-4.5-2-4.5-4.5l0,0c0-2.5,2-4.5,4.5-4.5l0,0c2.5,0,4.5,2,4.5,4.5l0,0 C337.3,87.7,335.3,89.7,332.8,89.7L332.8,89.7C332.8,89.7,332.8,89.7,332.8,89.7z M202.3,85.7c-2.5-0.1-4.4-2.3-4.3-4.7l0,0l0,0 l0,0c0.1-2.5,2.3-4.4,4.7-4.2l0,0c2.5,0.1,4.4,2.2,4.2,4.7l0,0c-0.1,2.4-2.1,4.2-4.5,4.2l0,0C202.4,85.7,202.4,85.7,202.3,85.7z M326.6,70.4c-0.6-2.4,0.9-4.9,3.3-5.4l0,0c2.4-0.6,4.9,0.9,5.4,3.3l0,0c0.6,2.4-0.9,4.9-3.3,5.4l0,0c-0.4,0.1-0.7,0.1-1.1,0.1 l0,0C328.9,73.9,327.1,72.5,326.6,70.4z M204,69.8c-2.4-0.7-3.7-3.2-3-5.6l0,0c0.7-2.4,3.2-3.7,5.6-3l0,0c2.4,0.7,3.7,3.2,3,5.6 l0,0c-0.6,1.9-2.4,3.2-4.3,3.2l0,0C204.9,70,204.4,69.9,204,69.8z M321.4,56.5c-1.1-2.2-0.3-4.9,1.9-6.1l0,0 c2.2-1.2,4.9-0.3,6.1,1.9l0,0c1.2,2.2,0.3,4.9-1.9,6.1l0,0c-0.7,0.4-1.4,0.5-2.1,0.5l0,0C323.7,58.9,322.2,58.1,321.4,56.5z M209.5,54.8c-2.1-1.3-2.8-4.1-1.5-6.2l0,0c1.3-2.1,4.1-2.8,6.2-1.5l0,0c2.1,1.3,2.8,4.1,1.5,6.2l0,0c-0.9,1.4-2.3,2.2-3.9,2.2 l0,0C211.1,55.5,210.3,55.3,209.5,54.8z M312.9,44.3c-1.7-1.9-1.5-4.7,0.4-6.4l0,0c1.9-1.7,4.7-1.5,6.4,0.4l0,0 c1.6,1.9,1.5,4.7-0.4,6.4l0,0c-0.9,0.8-1.9,1.1-3,1.1l0,0C315,45.8,313.8,45.3,312.9,44.3z M218.6,41.6c-1.8-1.8-1.7-4.6,0-6.4 l0,0l0,0l0,0c1.8-1.8,4.6-1.7,6.4,0l0,0c1.8,1.8,1.7,4.6,0,6.4l0,0c-0.9,0.9-2,1.3-3.2,1.3l0,0C220.6,42.9,219.4,42.5,218.6,41.6 z M301.7,34.6L301.7,34.6c-2.1-1.4-2.6-4.2-1.2-6.2l0,0c1.4-2.1,4.2-2.6,6.2-1.2l0,0c2.1,1.4,2.6,4.2,1.2,6.2l0,0 c-0.9,1.3-2.3,2-3.7,2l0,0C303.4,35.3,302.5,35.1,301.7,34.6z M230.5,31c-1.3-2.1-0.6-4.9,1.6-6.2l0,0c2.1-1.3,4.9-0.6,6.2,1.6 l0,0c1.3,2.1,0.5,4.9-1.6,6.2l0,0c-0.7,0.4-1.5,0.6-2.3,0.6l0,0C232.9,33.2,231.4,32.4,230.5,31z M293.8,30 c-2.2-1.1-3.2-3.8-2.1-6l0,0c1.1-2.2,3.8-3.2,6-2.1l0,0c2.2,1.1,3.2,3.8,2.1,6l0,0c-0.8,1.6-2.4,2.5-4.1,2.5l0,0 C295.1,30.5,294.5,30.3,293.8,30z M244.7,23.6c-0.7-2.4,0.6-4.9,3-5.6l0,0l0,0l0,0c2.4-0.7,4.9,0.6,5.6,3l0,0 c0.7,2.4-0.6,4.9-3,5.6l0,0c-0.4,0.1-0.9,0.2-1.3,0.2l0,0C247.1,26.8,245.3,25.5,244.7,23.6z M279.8,25.3c-2.4-0.5-4-2.9-3.5-5.3 l0,0c0.5-2.4,2.9-4,5.3-3.5l0,0c2.4,0.5,4,2.9,3.5,5.3l0,0c-0.4,2.1-2.3,3.6-4.4,3.6l0,0C280.4,25.4,280.1,25.4,279.8,25.3z M260.3,19.8c-0.1-2.5,1.8-4.6,4.3-4.7l0,0c2.5-0.1,4.6,1.8,4.7,4.3l0,0c0.1,2.5-1.8,4.6-4.3,4.7l0,0c-0.1,0-0.1,0-0.2,0l0,0 C262.4,24.1,260.4,22.3,260.3,19.8z"></path> </g> <g> <g> <g> <path class="st0" d="M300.3,122.2h-67v-3c0-18.5,15-33.5,33.5-33.5s33.5,15,33.5,33.5V122.2z M239.5,116.2h54.7 c-1.5-13.8-13.2-24.5-27.3-24.5C252.7,91.7,241,102.5,239.5,116.2z"></path> </g> </g> <g> <g> <g> <circle class="st8" cx="254.2" cy="45" r="4.9"></circle> </g> </g> </g> <g> <g> <path class="st0" d="M266.8,82c-12.4,0-22.4-10-22.4-22.4c0-3.1,0.6-6.1,1.9-9l5.5,2.4c-0.9,2.1-1.4,4.3-1.4,6.6 c0,9,7.4,16.4,16.4,16.4c9,0,16.4-7.4,16.4-16.4s-7.4-16.4-16.4-16.4c-1.5,0-3,0.2-4.4,0.6l-1.6-5.8c2-0.6,4-0.8,6.1-0.8 c12.4,0,22.4,10,22.4,22.4S279.2,82,266.8,82z"></path> </g> </g> </g> </g> <g> <g> <circle class="st9" cx="319.8" cy="32.3" r="32.3"></circle> </g> <g> <g> <path class="st10" d="M321,43.5c-1.7,0-3-1.5-3-3.4c0-1.9,1.4-3.4,3-3.4c1.6,0,3,1.5,3,3.4C324,41.9,322.6,43.5,321,43.5z M323.1,36.2H319l-0.7-17.1h5.5L323.1,36.2z"></path> </g> <g> <g> <polygon class="st10" points="345.3,48 295.8,48 317.4,10.6 319.7,11.9 300.4,45.4 340.7,45.4 321.4,12 323.7,10.7 "></polygon> </g> </g> <g> <g> <g> <circle class="st11" cx="320.5" cy="8.3" r="2.2"></circle> </g> </g> </g> </g> </g> <g class="st6"> <rect x="354.8" y="211.8" transform="matrix(0.8642 -0.5032 0.5032 0.8642 -56.1755 218.5097)" class="st7" width="43.7" height="3"></rect> </g> </g> </svg> 