<?xml version="1.0" encoding="UTF-8"?> <!-- Generator: Adobe Illustrator 24.0.2, SVG Export Plug-In . SVG Version: 6.00 Build 0) --> <svg xmlns="http://www.w3.org/2000/svg" xmlns:xlink="http://www.w3.org/1999/xlink" id="Layer_1" x="0px" y="0px" viewBox="0 0 298.7 297.3" style="enable-background:new 0 0 298.7 297.3;" xml:space="preserve"> <style type="text/css"> .st0{opacity:0.35;} .st1{fill:#009BA5;} .st2{fill:#54B3BA;} </style> <g> <g class="st0"> <path class="st1" d="M133.7,23c0,4.9-4,8.9-8.9,8.9c-4.9,0-8.9-4-8.9-8.9c0-4.9,4-8.9,8.9-8.9C129.8,14.1,133.7,18.1,133.7,23"></path> <path class="st1" d="M176.8,166.6c-45.9,0-83.3-37.4-83.3-83.3c0-16,4.5-31.5,13.1-44.9l3-4.6l9.3,5.9l-3,4.6 c-7.4,11.6-11.4,25.1-11.4,38.9c0,39.9,32.4,72.3,72.3,72.3c39.9,0,72.3-32.4,72.3-72.3c0-39.9-32.4-72.3-72.3-72.3 c-10.4,0-20.4,2.2-29.8,6.4l-5,2.3l-4.5-10l5-2.3C153.3,2.5,164.9,0,176.8,0c45.9,0,83.3,37.4,83.3,83.3 C260.1,129.2,222.8,166.6,176.8,166.6"></path> <path class="st1" d="M176.8,158.2c-2.2,0-3.9-1.8-3.9-3.9V6.8c0-2.2,1.8-3.9,3.9-3.9c2.2,0,3.9,1.8,3.9,3.9v147.4 C180.8,156.4,179,158.2,176.8,158.2"></path> <path class="st1" d="M250.5,88H103.1c-2.2,0-3.9-1.8-3.9-3.9c0-2.2,1.8-3.9,3.9-3.9h147.4c2.2,0,3.9,1.8,3.9,3.9 C254.5,86.3,252.7,88,250.5,88"></path> <path class="st1" d="M176.8,165.9c-24,0-42.8-35.9-42.8-81.7c0-45.8,18.8-81.7,42.8-81.7c24,0,42.8,35.9,42.8,81.7 C219.7,129.9,200.8,165.9,176.8,165.9 M176.8,10.2c-19,0-35,33.8-35,73.9c0,40,16,73.9,35,73.9c19,0,35-33.8,35-73.9 C211.8,44.1,195.8,10.2,176.8,10.2"></path> <path class="st1" d="M229.1,146.8l-2.9-2.6c-6.6-6-14.2-10.6-22.5-13.9c-8.6-3.3-17.6-5-26.9-5c-18.2,0-35.7,6.7-49.3,18.9 l-2.9,2.6l-5.2-5.9l2.9-2.6c15-13.5,34.4-20.9,54.5-20.9c10.3,0,20.3,1.9,29.8,5.6c9.1,3.6,17.5,8.7,24.9,15.3l2.9,2.6 L229.1,146.8z"></path> <path class="st1" d="M176.8,49.1c-10.3,0-20.3-1.9-29.8-5.6c-4.2-1.6-11.5-5.6-11.9-5.8l3.7-6.9c0.1,0,7.3,3.9,11,5.4 c8.6,3.3,17.6,5,26.9,5c18.2,0,35.7-6.7,49.3-18.9l5.2,5.9C216.4,41.7,197,49.1,176.8,49.1"></path> </g> <g> <path class="st2" d="M125.2,264.8C56.2,264.8,0,208.7,0,139.6c0-24.8,7.2-48.8,20.9-69.3l15.2,10.1c-11.7,17.6-17.9,38-17.9,59.2 c0,59,48,106.9,107,106.9c59,0,106.9-48,106.9-106.9c0-59-48-107-106.9-107c-19.5,0-38.5,5.3-55.1,15.2l-9.4-15.6 c19.4-11.7,41.7-17.9,64.5-17.9c69,0,125.2,56.2,125.2,125.2C250.4,208.7,194.2,264.8,125.2,264.8"></path> <rect x="244.4" y="197.4" transform="matrix(0.7071 -0.7071 0.7071 0.7071 -104.0269 253.1097)" class="st2" width="18.2" height="109.5"></rect> <path class="st1" d="M58.4,54.9c0,7.8-6.3,14.2-14.2,14.2c-7.8,0-14.2-6.3-14.2-14.2c0-7.8,6.3-14.2,14.2-14.2 C52.1,40.7,58.4,47,58.4,54.9"></path> </g> </g> </svg> 