<?xml version="1.0" encoding="UTF-8"?> <svg xmlns="http://www.w3.org/2000/svg" id="Layer_1" data-name="Layer 1" viewBox="0 0 131.61 168.45"><title>Intelligence Icon_Negative_RGB</title><circle cx="38.7" cy="41.8" r="8.19" style="fill:#ffb000"></circle><rect x="50.72" y="140.35" width="30.2" height="7.22" style="fill:#fff;opacity:0.8"></rect><rect x="52.77" y="150.79" width="26.11" height="7.22" style="fill:#fff;opacity:0.8"></rect><rect x="56.87" y="161.23" width="17.92" height="7.22" style="fill:#fff;opacity:0.8"></rect><rect x="61.07" width="7.22" height="16.3" style="fill:#fff;opacity:0.8"></rect><rect y="63.31" width="16.3" height="7.22" style="fill:#fff;opacity:0.8"></rect><rect x="115.3" y="61.07" width="16.3" height="7.22" style="fill:#fff;opacity:0.8"></rect><rect x="104.83" y="100.01" width="7.22" height="16.3" transform="translate(-45.79 107.57) rotate(-45)" style="fill:#fff;opacity:0.8"></rect><rect x="18.75" y="104.55" width="16.3" height="7.22" transform="translate(-69.67 49.91) rotate(-45)" style="fill:#fff;opacity:0.8"></rect><rect x="98.7" y="21.42" width="16.3" height="7.22" transform="translate(12.52 82.09) rotate(-45)" style="fill:#fff;opacity:0.8"></rect><path d="M84.76,137.46H49l-.52-18.66v-.24a26,26,0,0,0-8-18.94C28,87.89,25.5,78.39,25.5,66.85a41.41,41.41,0,0,1,2.26-13.54l9.56,3.3a31.39,31.39,0,0,0-1.71,10.24c0,9.5,1.83,16,11.79,25.4a36.38,36.38,0,0,1,11.19,26.68l.24,8.41h16.1l.23-8.41a36.41,36.41,0,0,1,11.2-26.68c10-9.37,11.78-15.9,11.78-25.4a31.19,31.19,0,0,0-44.73-28.3L49,29.43a41.1,41.1,0,0,1,17.83-4.08,41.59,41.59,0,0,1,41.39,41.5c0,11.54-2.5,21-15,32.77a26,26,0,0,0-8,19V119Z" transform="translate(-1.07 -0.79)" style="fill:#fff;opacity:0.8"></path></svg> 