<?xml version="1.0" encoding="UTF-8"?> <svg xmlns="http://www.w3.org/2000/svg" id="Layer_1" data-name="Layer 1" viewBox="0 0 227.29 82.5"><title>McCarthy Tetrault_logo1</title><polygon points="219.86 11.64 212.18 30.93 204.59 11.67 197.25 11.67 208.68 39.73 203.77 52.06 211.19 52.06 227.29 11.64 219.86 11.64" style="fill:#949ca1"></polygon><path d="M121.6,84.8l-.17-3.29a11.1,11.1,0,0,1-9.06,4.1c-5,0-9.69-2.94-9.69-9.34a8.4,8.4,0,0,1,2.24-6.09c2.81-3,6.54-3.6,9.8-3.6h6.43v-.36c0-4.33-2.58-5.79-6-5.79a11.13,11.13,0,0,0-7.8,3.72L103.66,60a14.87,14.87,0,0,1,11.87-5.35c4.24,0,7.23,1.15,9.29,3.34,2.81,3,3,6.59,3,11.52V84.8Zm-4.46-13.22c-3.1,0-7.75.06-7.75,4.51,0,2.74,2,4,4.53,4a7.11,7.11,0,0,0,5.34-2,6.69,6.69,0,0,0,1.89-4.57v-2Z" transform="translate(-4.28 -3.11)" style="fill:#949ca1"></path><path d="M124.82,17.06c-2.06-2.2-5-3.35-9.29-3.35a14.86,14.86,0,0,0-11.87,5.36l3.67,4.14c.4-.43,3.38-3.71,7.8-3.71,3.44,0,6,1.46,6,5.79v.36h-6.43c-3.26,0-7,.61-9.8,3.6a8.38,8.38,0,0,0-2.24,6.09c0,6.39,4.65,9.33,9.69,9.33a11.13,11.13,0,0,0,9.06-4.09l.17,3.29h6.2V28.58C127.8,23.64,127.63,20.05,124.82,17.06Zm-3.67,13.59v2h0a6.61,6.61,0,0,1-1.9,4.57,7.11,7.11,0,0,1-5.33,2c-2.52,0-4.53-1.28-4.53-4h0a3.76,3.76,0,0,1,2-3.59c1.64-.9,4-.92,5.77-.92Z" transform="translate(-4.28 -3.11)" style="fill:#949ca1"></path><path d="M160.14,84.8V46.51H167V84.8Z" transform="translate(-4.28 -3.11)" style="fill:#949ca1"></path><path d="M185.31,22c-1.9,2-1.95,5.24-1.95,8.78v13.1h-6.89V3.11h6.89V18c4.06-5.1,11-5.66,15.22-1.16,2.35,2.56,2.69,6.16,2.69,9.45V43.87h-6.88V27.48c0-2.56-.17-4.75-1.66-6C190.48,19.2,187.14,20.05,185.31,22Z" transform="translate(-4.28 -3.11)" style="fill:#949ca1"></path><path d="M138.09,19.79l-.11-5h-6.49V43.87h6.88V31.38c0-2.75.24-5.91,2.76-8.35s6.18-2.21,7.39-2.1V14.24A11.6,11.6,0,0,0,138.09,19.79Z" transform="translate(-4.28 -3.11)" style="fill:#949ca1"></path><path d="M36,72.49a7.33,7.33,0,0,0,7.69,7.44A11,11,0,0,0,52,76.09l3.85,3.78a15.46,15.46,0,0,1-12.39,5.69c-9.86,0-14.51-7-14.51-15.26s4.82-15.66,14.4-15.66a12.28,12.28,0,0,1,9.18,3.72c3.66,3.89,4.12,8.89,4.12,14.13Zm7.17-12.3c-5.44,0-7.05,5.35-7.05,7.06H49.91C49.91,65.18,48.48,60.19,43.2,60.19Z" transform="translate(-4.28 -3.11)" style="fill:#949ca1"></path><path d="M93.76,64C91.24,66.4,91,69.57,91,72.31V84.8H84.13V55.68h6.48l.12,5c3-5.32,8.7-6.41,11-6V62C100.55,61.8,96.3,61.45,93.76,64Z" transform="translate(-4.28 -3.11)" style="fill:#949ca1"></path><path d="M101.69,38.94c-.88,1.28-4.52,5.68-12,5.68-9.64,0-14.8-6.85-14.8-15.38,0-8,4.87-15.54,15-15.54,8.15,0,11.65,5.37,11.93,5.86l-4.18,3.89a10.19,10.19,0,0,0-7.51-3.71c-5.45,0-8.09,4.63-8.09,9.56s2.58,9.44,8,9.44a9.81,9.81,0,0,0,7.8-3.9Z" transform="translate(-4.28 -3.11)" style="fill:#949ca1"></path><path d="M45,27.41v25l6.89-7.83V26.81c0-3.6-.18-7.44-2.7-10.24a9.13,9.13,0,0,0-6.76-2.87,10.32,10.32,0,0,0-9,4.82,8.41,8.41,0,0,0-8-4.82,9.67,9.67,0,0,0-8.08,4.45l-.11-3.41H10.8V43.87h6.88V27.35c0-1.76.06-4.14,1.66-5.79A5.45,5.45,0,0,1,23.13,20a4.4,4.4,0,0,1,3.33,1.22c1.37,1.28,1.49,3.47,1.49,6.4V43.87h6.88V27.35c0-1.76.06-4.14,1.66-5.79A5.34,5.34,0,0,1,40.28,20a4.57,4.57,0,0,1,3.32,1.22C44.92,22.48,45,24.86,45,27.41Z" transform="translate(-4.28 -3.11)" style="fill:#949ca1"></path><path d="M70.38,29.31a7,7,0,0,1-5.56,3c-3.95,0-5.35-3.45-5.35-6.41,0-3.24,1.68-6.51,5.44-6.51A7.14,7.14,0,0,1,70,22l.24.23,3.56-3.26-.21-.32a10.3,10.3,0,0,0-8.9-4.37c-7.53,0-11.16,5.65-11.16,11.61,0,6.38,3.84,11.5,11,11.5a10.6,10.6,0,0,0,9.18-4.56Z" transform="translate(-4.28 -3.11)" style="fill:#949ca1"></path><path d="M149.34,84.8l-.17-3.55a9.76,9.76,0,0,1-8.29,4.35A8.81,8.81,0,0,1,134.15,83c-2.34-2.58-2.66-5.72-2.66-9.5V55.68h6.88V73c0,2.18.1,4,1.23,5.21a4.49,4.49,0,0,0,3.59,1.49,5.28,5.28,0,0,0,3.89-1.77c1.28-1.49,1.56-3.44,1.67-5.84.06-1,.06-2.06.06-3.15V55.68h6.88V84.8Z" transform="translate(-4.28 -3.11)" style="fill:#949ca1"></path><path d="M167,44.63c-2.75,0-5.23-.4-7.35-2.4s-2.93-4.64-2.93-8.84V20.66h-6.52V14.24h6.52V5.58h6.88v8.66h9.14v6.42h-9.14v10.9c0,4.23.43,7,4.78,7a10.88,10.88,0,0,0,3.9-.8l1.78,5.37A15.94,15.94,0,0,1,167,44.63Z" transform="translate(-4.28 -3.11)" style="fill:#949ca1"></path><path d="M21.09,85.56c-2.75,0-5.24-.39-7.36-2.4s-2.93-4.63-2.93-8.84V61.59H4.28V55.17H10.8V46.51h6.89v8.66h9.13v6.42H17.69v10.9c0,4.23.42,7,4.77,7a11.2,11.2,0,0,0,3.9-.79l1.78,5.36A15.77,15.77,0,0,1,21.09,85.56Z" transform="translate(-4.28 -3.11)" style="fill:#949ca1"></path><path d="M74.35,85.56c-2.75,0-5.24-.39-7.36-2.4s-2.92-4.63-2.92-8.84V61.59H57.55V55.17h6.52V46.51H71v8.66h9.14v6.42H71v10.9c0,4.23.42,7,4.77,7a11.07,11.07,0,0,0,3.9-.79l1.78,5.36A15.77,15.77,0,0,1,74.35,85.56Z" transform="translate(-4.28 -3.11)" style="fill:#949ca1"></path><path d="M186.76,85.56c-2.75,0-5.24-.39-7.36-2.4s-2.93-4.63-2.93-8.84V61.59H170V55.17h6.52V46.52h6.89v8.65h9.14v6.42h-9.14v10.9c0,4.23.42,7,4.77,7a11.2,11.2,0,0,0,3.9-.79l1.78,5.36A15.77,15.77,0,0,1,186.76,85.56Z" transform="translate(-4.28 -3.11)" style="fill:#949ca1"></path></svg> 