<?xml version="1.0" encoding="UTF-8"?> <svg xmlns="http://www.w3.org/2000/svg" xmlns:xlink="http://www.w3.org/1999/xlink" id="Layer_2" data-name="Layer 2" viewBox="0 0 11845 9507"><defs><style>.cls-1,.cls-2{fill:none;}.cls-2,.cls-5{opacity:0.5;}.cls-3,.cls-5{fill:#808b94;}.cls-3{opacity:0.15;}.cls-4{clip-path:url(#clip-path);}.cls-6{fill:#fff;}.cls-7{fill:#ffb000;}.cls-8{clip-path:url(#clip-path-2);}.cls-9{clip-path:url(#clip-path-3);}.cls-10{clip-path:url(#clip-path-4);}.cls-11{clip-path:url(#clip-path-5);}.cls-12{clip-path:url(#clip-path-6);}.cls-13{clip-path:url(#clip-path-7);}.cls-14{clip-path:url(#clip-path-8);}.cls-15{clip-path:url(#clip-path-9);}.cls-16{clip-path:url(#clip-path-10);}.cls-17{clip-path:url(#clip-path-11);}.cls-18{clip-path:url(#clip-path-12);}.cls-19{clip-path:url(#clip-path-13);}.cls-20{fill:#2858a5;}.cls-21{clip-path:url(#clip-path-14);}.cls-22{clip-path:url(#clip-path-15);}.cls-23{clip-path:url(#clip-path-16);}.cls-24{clip-path:url(#clip-path-17);}.cls-25{clip-path:url(#clip-path-18);}.cls-26{clip-path:url(#clip-path-19);}.cls-27{clip-path:url(#clip-path-20);}.cls-28{fill:#65b32e;}.cls-29{fill:#009ca6;}.cls-30{clip-path:url(#clip-path-21);}.cls-31{clip-path:url(#clip-path-22);}.cls-32{clip-path:url(#clip-path-23);}.cls-33{clip-path:url(#clip-path-24);}.cls-34{clip-path:url(#clip-path-25);}.cls-35{clip-path:url(#clip-path-26);}.cls-36{clip-path:url(#clip-path-27);}.cls-37{clip-path:url(#clip-path-28);}.cls-38{clip-path:url(#clip-path-29);}.cls-39{clip-path:url(#clip-path-30);}.cls-40{clip-path:url(#clip-path-31);}.cls-41{clip-path:url(#clip-path-32);}.cls-42{clip-path:url(#clip-path-33);}.cls-43{clip-path:url(#clip-path-34);}.cls-44{clip-path:url(#clip-path-35);}.cls-45{clip-path:url(#clip-path-36);}.cls-46{clip-path:url(#clip-path-37);}.cls-47{clip-path:url(#clip-path-38);}.cls-48{clip-path:url(#clip-path-39);}.cls-49{clip-path:url(#clip-path-40);}.cls-50{clip-path:url(#clip-path-41);}.cls-51{clip-path:url(#clip-path-42);}</style><clipPath id="clip-path"><rect class="cls-1" x="5535.32" y="4018.77" width="1656.57" height="489.32"></rect></clipPath><clipPath id="clip-path-2"><rect class="cls-1" x="5372.77" y="4182.91" width="1229.91" height="1229.9"></rect></clipPath><clipPath id="clip-path-3"><rect class="cls-1" x="3770.17" y="3436.46" width="958.85" height="410.88"></rect></clipPath><clipPath id="clip-path-4"><rect class="cls-1" x="4359.79" y="4396.86" width="671.95" height="1596.15"></rect></clipPath><clipPath id="clip-path-5"><rect class="cls-1" x="5361.52" y="3010.83" width="1664.04" height="718.9"></rect></clipPath><clipPath id="clip-path-6"><rect class="cls-1" x="5174.28" y="1894.27" width="489.32" height="1656.59"></rect></clipPath><clipPath id="clip-path-7"><rect class="cls-1" x="5120.92" y="5671.26" width="1527.01" height="1468.77"></rect></clipPath><clipPath id="clip-path-8"><rect class="cls-1" x="3711.68" y="3554.43" width="967.81" height="1483"></rect></clipPath><clipPath id="clip-path-9"><rect class="cls-1" x="6998.7" y="5697.41" width="974.71" height="366.81"></rect></clipPath><clipPath id="clip-path-10"><rect class="cls-1" x="6818.68" y="5793.02" width="284.57" height="998.16"></rect></clipPath><clipPath id="clip-path-11"><rect class="cls-1" x="4535.18" y="6068.65" width="420.25" height="955.16"></rect></clipPath><clipPath id="clip-path-12"><rect class="cls-1" x="5072.65" y="7272.19" width="518.94" height="892.78"></rect></clipPath><clipPath id="clip-path-13"><rect class="cls-1" x="3687.93" y="2264.83" width="410.87" height="958.85"></rect></clipPath><clipPath id="clip-path-14"><rect class="cls-1" x="3143.48" y="3590.74" width="410.88" height="958.85"></rect></clipPath><clipPath id="clip-path-15"><rect class="cls-1" x="4453.45" y="7646.07" width="328.11" height="972.54"></rect></clipPath><clipPath id="clip-path-16"><rect class="cls-1" x="4314.62" y="6254.67" width="115.42" height="1023.49"></rect></clipPath><clipPath id="clip-path-17"><rect class="cls-1" x="3199.5" y="5930.27" width="955.16" height="420.24"></rect></clipPath><clipPath id="clip-path-18"><rect class="cls-1" x="3391.01" y="6216.19" width="796.12" height="685.15"></rect></clipPath><clipPath id="clip-path-19"><rect class="cls-1" x="2168.32" y="6937.89" width="961.06" height="286.77"></rect></clipPath><clipPath id="clip-path-20"><rect class="cls-1" x="2361.82" y="7144.83" width="765.7" height="696.44"></rect></clipPath><clipPath id="clip-path-21"><rect class="cls-1" x="3538.09" y="7630.46" width="765.72" height="696.44"></rect></clipPath><clipPath id="clip-path-22"><rect class="cls-1" x="4110.56" y="7672.93" width="286.09" height="983.96"></rect></clipPath><clipPath id="clip-path-23"><rect class="cls-1" x="2641.35" y="3489.89" width="898.07" height="539.09"></rect></clipPath><clipPath id="clip-path-24"><rect class="cls-2" x="2377.51" y="3350.51" width="1023.46" height="116"></rect></clipPath><clipPath id="clip-path-25"><rect class="cls-1" x="3351.6" y="2229.78" width="265.28" height="1002.56"></rect></clipPath><clipPath id="clip-path-26"><rect class="cls-1" x="2753.75" y="2427.27" width="685.59" height="795.74"></rect></clipPath><clipPath id="clip-path-27"><rect class="cls-1" x="2477.29" y="1204.81" width="164.06" height="983.52"></rect></clipPath><clipPath id="clip-path-28"><rect class="cls-1" x="1813.26" y="1398.6" width="696.85" height="765.33"></rect></clipPath><clipPath id="clip-path-29"><rect class="cls-1" x="7324.45" y="3089.14" width="782.04" height="701.39"></rect></clipPath><clipPath id="clip-path-30"><rect class="cls-1" x="8223.36" y="830.74" width="487.03" height="907.83"></rect></clipPath><clipPath id="clip-path-31"><rect class="cls-1" x="7164.83" y="1787.7" width="249.19" height="1005.93"></rect></clipPath><clipPath id="clip-path-32"><rect class="cls-1" x="7336.29" y="2023.05" width="677.48" height="802.54"></rect></clipPath><clipPath id="clip-path-33"><rect class="cls-2" x="7428.91" y="2930.81" width="1024.08" height="105.23"></rect></clipPath><clipPath id="clip-path-34"><rect class="cls-1" x="8679.05" y="3164.35" width="875.73" height="510.42"></rect></clipPath><clipPath id="clip-path-35"><rect class="cls-2" x="8833.88" y="3023.04" width="1012.52" height="74.95"></rect></clipPath><clipPath id="clip-path-36"><rect class="cls-1" x="8352.57" y="1748.9" width="1006.55" height="133.62"></rect></clipPath><clipPath id="clip-path-37"><rect class="cls-2" x="8279.45" y="6130.53" width="1002.96" height="168.61"></rect></clipPath><clipPath id="clip-path-38"><rect class="cls-2" x="6833.07" y="7055.43" width="203.69" height="981.28"></rect></clipPath><clipPath id="clip-path-39"><rect class="cls-2" x="7193.95" y="7151" width="306.75" height="976.19"></rect></clipPath><clipPath id="clip-path-40"><rect class="cls-1" x="8185.95" y="6286.9" width="306.75" height="976.2"></rect></clipPath><clipPath id="clip-path-41"><rect class="cls-2" x="7334.07" y="7029.81" width="657.23" height="774.14"></rect></clipPath><clipPath id="clip-path-42"><rect class="cls-1" x="8381.04" y="3998.6" width="949.48" height="406.86"></rect></clipPath></defs><title>Network visualization_RGB_V5_background</title><rect class="cls-3" width="11845" height="9507"></rect><g class="cls-4"><rect class="cls-5" x="6350.89" y="3406.47" width="25.43" height="1713.92" transform="translate(534.08 9232.23) rotate(-74.26)"></rect></g><path class="cls-6" d="M7338.14,4723.52a204.85,204.85,0,0,1-55.4-7.7A203.88,203.88,0,0,1,7216,4356.28a203.39,203.39,0,0,1,177.34-32.92c108.2,30.49,171.43,143.32,140.94,251.52a202,202,0,0,1-74.18,108,205.28,205.28,0,0,1-121.92,40.61Z"></path><path class="cls-7" d="M7337.92,4324a195.64,195.64,0,0,1,188.35,248.67,193.76,193.76,0,0,1-71.15,103.63A195,195,0,0,1,7285,4707.83a195.59,195.59,0,0,1-64.05-344.9,195.78,195.78,0,0,1,117-39m0-16.59c-92.63,0-177.74,61.13-204.11,154.68-31.78,112.78,33.89,230,146.68,261.76a212.33,212.33,0,0,0,57.65,8c92.63,0,177.74-61.13,204.1-154.68,31.78-112.78-33.88-230-146.67-261.75a212.35,212.35,0,0,0-57.65-8"></path><path class="cls-7" d="M7229.16,4425.65a12.7,12.7,0,1,1-12.69-12.7,12.7,12.7,0,0,1,12.69,12.7"></path><path class="cls-7" d="M7338.91,4654a21.46,21.46,0,1,1,21.46-21.46,21.49,21.49,0,0,1-21.46,21.46m0-31.73a10.27,10.27,0,1,0,10.27,10.27,10.29,10.29,0,0,0-10.27-10.27"></path><path class="cls-7" d="M7430.41,4654a21.46,21.46,0,1,1,21.46-21.46,21.48,21.48,0,0,1-21.46,21.46m0-31.73a10.27,10.27,0,1,0,10.26,10.27,10.28,10.28,0,0,0-10.26-10.27"></path><path class="cls-7" d="M7466.15,4572.92h-152.6a7.84,7.84,0,1,1,0-15.67h139.84l15.62-75.67H7292.46a7.84,7.84,0,1,1,0-15.67h195.78Z"></path><polygon class="cls-7" points="7452.96 4605.94 7314.93 4605.94 7275.15 4433.48 7240.26 4433.48 7240.26 4417.81 7287.61 4417.81 7327.4 4590.27 7452.96 4590.27 7452.96 4605.94"></polygon><polygon class="cls-7" points="7449.36 4479.97 7403.42 4434.03 7372.9 4464.54 7361.82 4453.46 7403.42 4411.87 7460.44 4468.89 7449.36 4479.97"></polygon><polygon class="cls-7" points="7324.46 4477.39 7313.38 4466.31 7351.02 4428.67 7388.65 4466.31 7377.57 4477.39 7351.02 4450.83 7324.46 4477.39"></polygon><g class="cls-8"><rect class="cls-5" x="5975" y="3940.9" width="25.43" height="1713.92" transform="translate(-1638.84 5639.22) rotate(-45)"></rect></g><g class="cls-9"><rect class="cls-5" x="4236.88" y="3129.29" width="25.43" height="1025.22" transform="translate(-727.88 6200.66) rotate(-67.8)"></rect></g><g class="cls-10"><rect class="cls-5" x="3838.8" y="5182.21" width="1713.92" height="25.43" transform="translate(-1889.56 7576.33) rotate(-67.77)"></rect></g><g class="cls-11"><rect class="cls-5" x="5296.33" y="3357.56" width="1794.44" height="25.43" transform="translate(-822.13 2663.79) rotate(-22.8)"></rect></g><g class="cls-12"><rect class="cls-5" x="4561.98" y="2709.85" width="1713.92" height="25.43" transform="translate(1328.73 7200) rotate(-74.26)"></rect></g><g class="cls-13"><rect class="cls-5" x="4837.76" y="6392.93" width="2093.33" height="25.43" transform="translate(-2796.9 5864.06) rotate(-43.86)"></rect></g><g class="cls-14"><rect class="cls-5" x="4182.86" y="3422.1" width="25.43" height="1747.66" transform="translate(-1657.95 2956.49) rotate(-32.79)"></rect></g><g class="cls-15"><rect class="cls-5" x="7473.34" y="5368.2" width="25.43" height="1025.22" transform="translate(-559.57 10969.33) rotate(-70.46)"></rect></g><g class="cls-16"><rect class="cls-5" x="6948.26" y="5779.5" width="25.43" height="1025.22" transform="translate(-1368.01 1970.79) rotate(-14.69)"></rect></g><g class="cls-17"><rect class="cls-5" x="4732.58" y="6033.62" width="25.43" height="1025.22" transform="translate(-2163.81 2346.81) rotate(-22.77)"></rect></g><g class="cls-18"><polygon class="cls-5" points="5571.33 8164.97 5072.65 7285.23 5092.91 7272.19 5591.6 8151.92 5571.33 8164.97"></polygon></g><g class="cls-19"><rect class="cls-5" x="3380.76" y="2731.54" width="1025.22" height="25.43" transform="translate(-118.4 5312.32) rotate(-67.8)"></rect></g><path class="cls-6" d="M4157,2325.85a203.93,203.93,0,1,1,77.1-392.69c104.08,42.47,154.2,161.7,111.73,265.78A203.92,203.92,0,0,1,4157,2325.85"></path><path class="cls-20" d="M4157.2,1926.29a195.67,195.67,0,1,1-107.93,32.46,194.53,194.53,0,0,1,107.93-32.46h0m0-16.59a212.26,212.26,0,0,0-196.52,132.07c-44.27,108.49,7.8,232.33,116.29,276.59a212,212,0,0,0,276.6-116.28c44.26-108.49-7.8-232.33-116.29-276.6a211.53,211.53,0,0,0-80.08-15.78"></path><g class="cls-21"><rect class="cls-5" x="2836.3" y="4057.45" width="1025.22" height="25.43" transform="translate(-1684.81 5633.2) rotate(-67.8)"></rect></g><path class="cls-6" d="M3085.1,4896.42a203.93,203.93,0,1,1,77.1-392.69c104.08,42.47,154.21,161.7,111.74,265.78a203.95,203.95,0,0,1-188.84,126.91"></path><path class="cls-20" d="M3085.27,4496.87a195.64,195.64,0,1,1-107.93,32.45,194.39,194.39,0,0,1,107.93-32.45h0m0-16.6a212.27,212.27,0,0,0-196.52,132.07c-44.27,108.49,7.79,232.33,116.28,276.59a212,212,0,0,0,276.6-116.28c44.27-108.49-7.79-232.33-116.28-276.6a211.53,211.53,0,0,0-80.08-15.78"></path><g class="cls-22"><polygon class="cls-5" points="4759.03 8618.61 4453.45 7654.64 4475.98 7646.08 4781.56 8610.04 4759.03 8618.61"></polygon></g><g class="cls-23"><rect class="cls-5" x="4359.62" y="6272.77" width="25.43" height="1025.22" transform="translate(-579.36 410.47) rotate(-5.04)"></rect></g><g class="cls-24"><rect class="cls-5" x="3164.47" y="6127.67" width="1025.22" height="25.43" transform="translate(-2089.99 1901.73) rotate(-22.77)"></rect></g><g class="cls-25"><rect class="cls-5" x="3276.46" y="6546.05" width="1025.22" height="25.43" transform="translate(-3351.71 4032.15) rotate(-40.5)"></rect></g><g class="cls-26"><polygon class="cls-5" points="2173.18 7224.66 3129.38 6962 3124.52 6937.89 2168.32 7200.55 2173.18 7224.66"></polygon></g><g class="cls-27"><polygon class="cls-5" points="2376.93 7841.27 3127.52 7163.6 3112.4 7144.83 2361.81 7822.5 2376.93 7841.27"></polygon></g><path class="cls-7" d="M6790.26,5865.27a264.33,264.33,0,1,1,186.9-77.42,262.6,262.6,0,0,1-186.9,77.42"></path><path class="cls-7" d="M6790.26,5354.41a245.66,245.66,0,1,1-92.79,18.05,245.74,245.74,0,0,1,92.79-18.05m0-35.56a281.2,281.2,0,0,0-199.47,82.62c-110.17,110.17-110.17,288.79,0,398.95a282.08,282.08,0,0,0,398.94,0c110.17-110.16,110.17-288.78,0-398.95a281.22,281.22,0,0,0-199.47-82.62"></path><path class="cls-28" d="M5567.05,3984.22c0-254.64-206.43-461.07-461.08-461.07s-461.07,206.43-461.07,461.07S4851.33,4445.3,5106,4445.3s461.08-206.43,461.08-461.08"></path><path class="cls-6" d="M5452.07,3984.82c0-191.48-155.22-346.7-346.69-346.7s-346.7,155.22-346.7,346.7,155.22,346.69,346.7,346.69,346.69-155.22,346.69-346.69"></path><path class="cls-28" d="M4847.58,4130a16.6,16.6,0,1,0-16.59,16.6,16.59,16.59,0,0,0,16.59-16.6"></path><path class="cls-28" d="M4829.8,4088.53a16.6,16.6,0,1,0-16.59,16.59,16.6,16.6,0,0,0,16.59-16.59"></path><path class="cls-28" d="M4819.13,4049.41a16.59,16.59,0,1,0-16.59,16.6,16.59,16.59,0,0,0,16.59-16.6"></path><path class="cls-28" d="M4813.21,4004.37a16.6,16.6,0,1,0-16.6,16.6,16.6,16.6,0,0,0,16.6-16.6"></path><path class="cls-28" d="M4813.21,3959.33a16.6,16.6,0,1,0-16.6,16.6,16.6,16.6,0,0,0,16.6-16.6"></path><path class="cls-28" d="M4871.29,4166.76a16.6,16.6,0,1,0-16.6,16.59,16.6,16.6,0,0,0,16.6-16.59"></path><path class="cls-28" d="M4899.73,4199.94a16.6,16.6,0,1,0-16.59,16.6,16.59,16.59,0,0,0,16.59-16.6"></path><path class="cls-28" d="M4932.92,4228.39a16.6,16.6,0,1,0-16.59,16.59,16.59,16.59,0,0,0,16.59-16.59"></path><path class="cls-28" d="M4966.11,4250.91a16.6,16.6,0,1,0-16.6,16.6,16.6,16.6,0,0,0,16.6-16.6"></path><path class="cls-28" d="M5002.85,4267.51a16.6,16.6,0,1,0-16.59,16.59,16.6,16.6,0,0,0,16.59-16.59"></path><path class="cls-28" d="M5043.15,4282.91a16.6,16.6,0,1,0-16.59,16.6,16.59,16.59,0,0,0,16.59-16.6"></path><path class="cls-28" d="M5084.64,4293.58a16.6,16.6,0,1,0-16.6,16.6,16.6,16.6,0,0,0,16.6-16.6"></path><path class="cls-28" d="M5123.75,4297.14a16.6,16.6,0,1,0-16.59,16.59,16.6,16.6,0,0,0,16.59-16.59"></path><path class="cls-28" d="M5162.87,4293.58a16.6,16.6,0,1,0-16.6,16.6,16.6,16.6,0,0,0,16.6-16.6"></path><path class="cls-28" d="M5204.35,4285.28a16.6,16.6,0,1,0-16.59,16.6,16.59,16.59,0,0,0,16.59-16.6"></path><path class="cls-28" d="M5242.28,4271.06a16.6,16.6,0,1,0-16.59,16.6,16.59,16.59,0,0,0,16.59-16.6"></path><path class="cls-28" d="M5280.21,4252.1a16.6,16.6,0,1,0-16.6,16.59,16.6,16.6,0,0,0,16.6-16.59"></path><path class="cls-28" d="M5313.4,4228.39a16.6,16.6,0,1,0-16.6,16.59,16.6,16.6,0,0,0,16.6-16.59"></path><path class="cls-28" d="M5344.21,4202.31a16.59,16.59,0,1,0-16.59,16.6,16.59,16.59,0,0,0,16.59-16.6"></path><path class="cls-28" d="M5369.1,4172.68a16.59,16.59,0,1,0-16.59,16.6,16.59,16.59,0,0,0,16.59-16.6"></path><path class="cls-28" d="M5390.44,4139.49a16.6,16.6,0,1,0-16.59,16.6,16.59,16.59,0,0,0,16.59-16.6"></path><path class="cls-28" d="M5409.4,4105.12a16.59,16.59,0,1,0-16.59,16.6,16.59,16.59,0,0,0,16.59-16.6"></path><path class="cls-28" d="M5424.81,4069.56a16.6,16.6,0,1,0-16.59,16.6,16.59,16.59,0,0,0,16.59-16.6"></path><path class="cls-28" d="M5433.11,4030.45a16.6,16.6,0,1,0-16.59,16.59,16.6,16.6,0,0,0,16.59-16.59"></path><path class="cls-28" d="M5434.29,3992.52a16.59,16.59,0,1,0-16.59,16.59,16.59,16.59,0,0,0,16.59-16.59"></path><path class="cls-28" d="M5434.29,3954.59a16.59,16.59,0,1,0-16.59,16.59,16.59,16.59,0,0,0,16.59-16.59"></path><path class="cls-28" d="M5428.37,3919a16.6,16.6,0,1,0-16.6,16.6,16.6,16.6,0,0,0,16.6-16.6"></path><path class="cls-28" d="M5416.52,3881.1a16.6,16.6,0,1,0-16.6,16.6,16.6,16.6,0,0,0,16.6-16.6"></path><path class="cls-28" d="M5399.92,3846.73a16.6,16.6,0,1,0-16.59,16.59,16.59,16.59,0,0,0,16.59-16.59"></path><path class="cls-28" d="M5380.88,3810.78a16.6,16.6,0,1,0-14.94,18.1,16.59,16.59,0,0,0,14.94-18.1"></path><path class="cls-28" d="M4818,3917.85a16.6,16.6,0,1,0-16.6,16.59,16.6,16.6,0,0,0,16.6-16.59"></path><path class="cls-28" d="M4828.62,3879.92a16.6,16.6,0,1,0-16.6,16.59,16.6,16.6,0,0,0,16.6-16.59"></path><path class="cls-28" d="M4845.21,3842a16.6,16.6,0,1,0-16.59,16.59,16.6,16.6,0,0,0,16.59-16.59"></path><path class="cls-28" d="M4866.54,3808.8a16.59,16.59,0,1,0-16.59,16.59,16.59,16.59,0,0,0,16.59-16.59"></path><path class="cls-28" d="M4887.88,3775.61a16.6,16.6,0,1,0-16.59,16.6,16.59,16.59,0,0,0,16.59-16.6"></path><path class="cls-28" d="M4916.33,3748.35a16.6,16.6,0,1,0-16.6,16.6,16.6,16.6,0,0,0,16.6-16.6"></path><path class="cls-28" d="M4949.51,3724.65a16.59,16.59,0,1,0-16.59,16.59,16.6,16.6,0,0,0,16.59-16.59"></path><path class="cls-28" d="M4982.7,3704.5a16.6,16.6,0,1,0-16.59,16.59,16.6,16.6,0,0,0,16.59-16.59"></path><path class="cls-28" d="M5015.89,3687.9a16.6,16.6,0,1,0-16.59,16.6,16.59,16.59,0,0,0,16.59-16.6"></path><path class="cls-28" d="M5051.45,3677.23a16.6,16.6,0,1,0-16.6,16.6,16.6,16.6,0,0,0,16.6-16.6"></path><path class="cls-28" d="M5089.38,3671.31a16.6,16.6,0,1,0-16.6,16.59,16.6,16.6,0,0,0,16.6-16.59"></path><path class="cls-28" d="M5127.31,3670.12a16.6,16.6,0,1,0-16.6,16.6,16.6,16.6,0,0,0,16.6-16.6"></path><path class="cls-28" d="M5166.42,3671.31a16.6,16.6,0,1,0-16.59,16.59,16.6,16.6,0,0,0,16.59-16.59"></path><path class="cls-28" d="M5204.35,3680.79a16.6,16.6,0,1,0-16.59,16.59,16.59,16.59,0,0,0,16.59-16.59"></path><path class="cls-28" d="M5242.28,3693.83a16.6,16.6,0,1,0-16.59,16.59,16.6,16.6,0,0,0,16.59-16.59"></path><path class="cls-28" d="M5275.47,3709.24a16.6,16.6,0,1,0-16.6,16.59,16.6,16.6,0,0,0,16.6-16.59"></path><path class="cls-28" d="M5306.28,3729.39a16.59,16.59,0,1,0-16.59,16.59,16.59,16.59,0,0,0,16.59-16.59"></path><path class="cls-28" d="M5335.92,3753.09a16.6,16.6,0,1,0-16.6,16.6,16.6,16.6,0,0,0,16.6-16.6"></path><path class="cls-28" d="M5359.62,3781.54a16.6,16.6,0,1,0-16.59,16.59,16.59,16.59,0,0,0,16.59-16.59"></path><path class="cls-28" d="M5107.16,3715.16a263.48,263.48,0,1,1-102.88,20.77,262.68,262.68,0,0,1,102.88-20.77m0-8.29c-150.56,0-272.62,122.05-272.62,272.61s122.06,272.62,272.62,272.62,272.61-122.06,272.61-272.62-122.05-272.61-272.61-272.61"></path><path class="cls-29" d="M4322.47,6340.42a264.65,264.65,0,1,1,102.18-20.68,263.87,263.87,0,0,1-102.18,20.68Z"></path><path class="cls-29" d="M4322.23,5829.41a247.48,247.48,0,1,1-95.3,19.29,246.58,246.58,0,0,1,95.3-19.29m0-35.55a281.18,281.18,0,0,0-109.06,22.05c-143.66,60.3-211.23,225.64-150.93,369.3,45.32,108,150,173,260.23,173a281.23,281.23,0,0,0,109.06-22.06c143.66-60.3,211.23-225.64,150.93-369.3-45.33-108-150-173-260.23-173"></path><path class="cls-6" d="M5015.34,7369.82a203.5,203.5,0,0,1-188.07-125c-43.51-103.65,5.42-223.38,109.07-266.89A203.69,203.69,0,0,1,5203.22,7087c43.51,103.65-5.42,223.38-109.07,266.88a202.59,202.59,0,0,1-78.81,15.95Z"></path><path class="cls-29" d="M5015.16,6970.27a195.81,195.81,0,1,1-75.61,15.3,195.59,195.59,0,0,1,75.61-15.3m0-16.6a211.52,211.52,0,0,0-82,16.59c-108,45.36-158.87,169.71-113.51,277.75a212,212,0,0,0,277.74,113.52c108-45.36,158.87-169.71,113.51-277.75a212.23,212.23,0,0,0-195.71-130.11"></path><path class="cls-6" d="M4429.1,7685.09A198.18,198.18,0,0,1,4246,7563.34c-42.37-100.94,5.28-217.53,106.22-259.9a198.36,198.36,0,0,1,259.91,106.22c42.37,100.94-5.29,217.53-106.23,259.9a197.13,197.13,0,0,1-76.74,15.53Z"></path><path class="cls-6" d="M3050.48,6597.52a203.5,203.5,0,0,1-188.07-125c-43.5-103.65,5.43-223.37,109.08-266.88a203.7,203.7,0,0,1,266.88,109.07c43.51,103.66-5.42,223.38-109.07,266.89a202.63,202.63,0,0,1-78.82,15.94"></path><path class="cls-7" d="M3050.31,6198a195.81,195.81,0,1,1-75.61,15.3,195.57,195.57,0,0,1,75.61-15.3h0m0-16.59a211.47,211.47,0,0,0-82,16.59c-108.05,45.35-158.87,169.7-113.52,277.75a212,212,0,0,0,277.75,113.51c108-45.35,158.87-169.7,113.51-277.75a212.21,212.21,0,0,0-195.72-130.1"></path><path class="cls-6" d="M3244.35,7231.62a198.18,198.18,0,0,1-183.15-121.75c-42.37-100.94,5.28-217.53,106.22-259.9a198.35,198.35,0,0,1,259.9,106.22c42.37,100.94-5.28,217.53-106.22,259.9a197.36,197.36,0,0,1-76.75,15.53"></path><path class="cls-29" d="M3244.18,6842.74a190.47,190.47,0,1,1-73.55,14.88,190.23,190.23,0,0,1,73.55-14.88h0m0-16.6a206.32,206.32,0,0,0-80,16.18c-105.33,44.21-154.87,165.43-110.66,270.76a206.63,206.63,0,0,0,270.76,110.66c105.33-44.21,154.88-165.43,110.66-270.76a206.88,206.88,0,0,0-190.8-126.84"></path><path class="cls-6" d="M2132.37,7410.13a166.94,166.94,0,1,1,64.48-13,166.47,166.47,0,0,1-64.48,13"></path><path class="cls-29" d="M2132.23,7083a160.42,160.42,0,1,1-62,12.53,160.32,160.32,0,0,1,62-12.53h0m0-13a173.34,173.34,0,1,0,159.87,106.27A172.88,172.88,0,0,0,2132.22,7070"></path><path class="cls-6" d="M2332.36,8070.59A162.14,162.14,0,0,1,2182.52,7971c-34.67-82.58,4.32-178,86.9-212.63a162.27,162.27,0,0,1,212.64,86.9c34.67,82.58-4.32,178-86.9,212.64a161.42,161.42,0,0,1-62.8,12.7"></path><path class="cls-7" d="M2332.23,7752.16a156.12,156.12,0,1,1-60.28,12.2,155.9,155.9,0,0,1,60.28-12.2h0m0-13a169,169,0,1,0,155.85,103.61,168.54,168.54,0,0,0-155.85-103.61"></path><g class="cls-30"><polygon class="cls-5" points="3553.22 8326.9 4303.8 7649.23 4288.68 7630.46 3538.1 8308.13 3553.22 8326.9"></polygon></g><path class="cls-6" d="M3508.65,8556.22a162.6,162.6,0,1,1,62.79-12.7,162.14,162.14,0,0,1-62.79,12.7"></path><path class="cls-29" d="M3508.51,8237.8a156.07,156.07,0,1,1-60.28,12.19,155.9,155.9,0,0,1,60.28-12.19h0m0-13a169,169,0,1,0,155.86,103.6,168.39,168.39,0,0,0-155.86-103.6"></path><g class="cls-31"><polygon class="cls-5" points="4133.44 8656.89 4396.66 7680.5 4373.77 7672.93 4110.55 8649.32 4133.44 8656.89"></polygon></g><path class="cls-6" d="M4098.71,8868.48a161.54,161.54,0,0,1-91.61-28.41c-73.9-50.6-92.87-151.89-42.27-225.79a162.43,162.43,0,1,1,133.88,254.2"></path><path class="cls-20" d="M4099,8550.11A155.93,155.93,0,1,1,3970.21,8618,155,155,0,0,1,4099,8550.11h0m0-13a169,169,0,1,0,95.29,29.55,168.76,168.76,0,0,0-95.29-29.55"></path><path class="cls-6" d="M4763.93,8861.29a161.2,161.2,0,0,1-130-64.92c-53.77-71.63-39.24-173.65,32.38-227.42a162.43,162.43,0,1,1,97.66,292.34Z"></path><path class="cls-29" d="M4763.67,8542.93a157.31,157.31,0,0,1,68.7,15.86,155.93,155.93,0,0,1-68.44,296,157.34,157.34,0,0,1-68.7-15.86,155.94,155.94,0,0,1,68.44-296m0-13a169,169,0,1,0,135.25,67.53,168.18,168.18,0,0,0-135.25-67.53"></path><g class="cls-32"><rect class="cls-5" x="2577.78" y="3746.72" width="1025.22" height="25.43" transform="matrix(0.86, -0.5, 0.5, 0.86, -1474.35, 2072.12)"></rect></g><g class="cls-33"><rect class="cls-5" x="2376.63" y="3395.8" width="1025.22" height="25.43" transform="translate(-290.13 268.88) rotate(-5.07)"></rect></g><g class="cls-34"><rect class="cls-5" x="3471.52" y="2218.45" width="25.43" height="1025.22" transform="translate(-543.54 893.77) rotate(-13.57)"></rect></g><g class="cls-35"><rect class="cls-5" x="3083.84" y="2312.53" width="25.43" height="1025.22" transform="translate(-1092.94 2690.25) rotate(-40.53)"></rect></g><g class="cls-36"><polygon class="cls-5" points="2477.29 1206.58 2616.81 2188.33 2641.34 2186.56 2501.82 1204.81 2477.29 1206.58"></polygon></g><g class="cls-37"><polygon class="cls-5" points="1813.26 1413.73 2491.35 2163.93 2510.11 2148.8 1832.02 1398.6 1813.26 1413.73"></polygon></g><path class="cls-29" d="M3579.72,3622.53A264.62,264.62,0,1,1,3682,3601.8a263.87,263.87,0,0,1-102.32,20.73Z"></path><path class="cls-29" d="M3579.48,3111.53a247.43,247.43,0,1,1-95.43,19.34,246.64,246.64,0,0,1,95.43-19.34m0-35.56a281.23,281.23,0,0,0-109.21,22.12c-143.62,60.38-211.1,225.76-150.72,369.38,45.37,107.91,150,172.84,260.17,172.84a281.09,281.09,0,0,0,109.21-22.12c143.62-60.38,211.1-225.76,150.72-369.38-45.37-107.91-150-172.84-260.17-172.84"></path><path class="cls-6" d="M2511.59,4312.08A203.79,203.79,0,0,1,2335.36,4211a203.92,203.92,0,0,1,175.83-306.74,203.82,203.82,0,0,1,176.24,101.07,203.92,203.92,0,0,1-175.83,306.74Z"></path><path class="cls-29" d="M2511.19,3912.57a195.45,195.45,0,0,1,169.07,97,195.63,195.63,0,0,1-168.67,294.25,195.49,195.49,0,0,1-169.07-97,195.62,195.62,0,0,1,168.67-294.25m0-16.6a211.17,211.17,0,0,0-106.82,29c-101.17,59.1-135.28,189-76.17,290.21a212.07,212.07,0,0,0,290.21,76.18c101.18-59.1,135.29-189,76.18-290.22A212.1,212.1,0,0,0,2511.19,3896"></path><path class="cls-6" d="M2169.27,3664.2a198.74,198.74,0,1,1,76.86-15.57,198.22,198.22,0,0,1-76.86,15.57Z"></path><path class="cls-29" d="M2169.09,3275.32a190.45,190.45,0,1,1-73.64,14.92,190.28,190.28,0,0,1,73.64-14.92m0-16.6a206.18,206.18,0,0,0-80.07,16.22c-105.3,44.27-154.77,165.53-110.5,270.83a206.65,206.65,0,0,0,270.82,110.5c105.31-44.27,154.78-165.52,110.51-270.82a206.9,206.9,0,0,0-190.76-126.73"></path><path class="cls-6" d="M3334.3,2275.87a204.81,204.81,0,0,1-125.05-43,203.88,203.88,0,0,1,77.39-359.07,203.33,203.33,0,0,1,173.06,37.29,203.88,203.88,0,0,1-77.39,359.07,204.79,204.79,0,0,1-48,5.74"></path><path class="cls-29" d="M3334.65,1876.33a195.4,195.4,0,0,1,189.94,149.73,195.58,195.58,0,0,1-144.22,236,195.36,195.36,0,0,1-236-144.22,195.77,195.77,0,0,1,190.29-241.51h0m0-16.59a212.66,212.66,0,0,0-50,6c-113.9,27.49-184,142.12-156.46,256,23.46,97.18,110.33,162.43,206.07,162.43a212.66,212.66,0,0,0,50-6c113.9-27.49,183.95-142.12,156.46-256-23.46-97.18-110.33-162.44-206.07-162.43"></path><path class="cls-6" d="M2622.07,2479.19a198.76,198.76,0,1,1,76.86-15.57,198.19,198.19,0,0,1-76.86,15.57"></path><path class="cls-7" d="M2621.9,2090.31a190.43,190.43,0,1,1-73.65,14.92,190.28,190.28,0,0,1,73.65-14.92h0m0-16.6a206.33,206.33,0,0,0-80.08,16.22c-105.3,44.27-154.77,165.53-110.5,270.83a206.65,206.65,0,0,0,270.82,110.51c105.31-44.27,154.78-165.53,110.51-270.83a206.89,206.89,0,0,0-190.75-126.73"></path><path class="cls-6" d="M2463.88,1330.49c-74.62,0-140.67-50.27-160.63-122.26-24.58-88.62,27.53-180.71,116.15-205.29a167.37,167.37,0,0,1,44.67-6.11c74.61,0,140.66,50.28,160.62,122.26,24.58,88.63-27.53,180.72-116.15,205.29a166.9,166.9,0,0,1-44.66,6.11"></path><path class="cls-20" d="M2464.07,1003.35a161.31,161.31,0,0,1,96.13,32.14,160.27,160.27,0,0,1-53.4,282.61,159.86,159.86,0,0,1-139.05-26.26,160.28,160.28,0,0,1,53.39-282.62,161,161,0,0,1,42.93-5.87m0-13a173.33,173.33,0,1,0,166.91,127,173.33,173.33,0,0,0-166.91-127"></path><path class="cls-6" d="M1746.45,1531.6a162.15,162.15,0,0,1-149.8-99.53c-34.72-82.56,4.22-178,86.78-212.68a162.43,162.43,0,1,1,63,312.21"></path><path class="cls-29" d="M1746.32,1213.17A156.1,156.1,0,1,1,1686,1225.4a155.86,155.86,0,0,1,60.36-12.23h0m0-13a169,169,0,1,0,155.82,103.51,168.48,168.48,0,0,0-155.82-103.51"></path><g class="cls-38"><rect class="cls-5" x="7702.76" y="2927.23" width="25.43" height="1025.22" transform="translate(12.76 6908.16) rotate(-48.27)"></rect></g><path class="cls-6" d="M8213.73,4100.4a203.93,203.93,0,1,1,135.81-356.11c83.92,74.85,91.3,204,16.45,287.92a204.19,204.19,0,0,1-152.26,68.19"></path><path class="cls-7" d="M8213.89,3700.85a195.09,195.09,0,1,1-78.75,16.46,195.33,195.33,0,0,1,78.75-16.46h0m0-16.6a211.76,211.76,0,0,0-158.45,71c-78,87.47-70.35,221.62,17.12,299.63a212.19,212.19,0,0,0,299.63-17.12c78-87.46,70.35-221.62-17.11-299.63a211.45,211.45,0,0,0-141.19-53.85"></path><g class="cls-39"><polygon class="cls-5" points="8710.39 840.6 8245.36 1738.58 8223.36 1728.71 8688.4 830.74 8710.39 840.6"></polygon></g><g class="cls-40"><rect class="cls-5" x="6776.81" y="2277.95" width="1025.22" height="25.43" transform="translate(3458.94 8902.05) rotate(-77.36)"></rect></g><g class="cls-41"><rect class="cls-5" x="7162.42" y="2411.61" width="1025.22" height="25.43" transform="translate(890.06 6754.18) rotate(-50.07)"></rect></g><g class="cls-42"><rect class="cls-5" x="7928.23" y="2470.82" width="25.43" height="1025.22" transform="translate(4347.93 10667.82) rotate(-85.53)"></rect></g><g class="cls-43"><polygon class="cls-5" points="9554.79 3654.27 8692.65 3164.35 8679.05 3184.84 9541.19 3674.77 9554.79 3654.27"></polygon></g><g class="cls-44"><polygon class="cls-5" points="9846.4 3074.02 8836.44 3023.04 8833.87 3047 9843.83 3097.99 9846.4 3074.02"></polygon></g><path class="cls-29" d="M7222.39,3212.5a264.38,264.38,0,1,1,145.85-43.85,263,263,0,0,1-145.85,43.85Z"></path><path class="cls-29" d="M7222.59,2701.49a246.62,246.62,0,1,1-136.05,40.92,245.19,245.19,0,0,1,136.05-40.92m0-35.56c-111.24,0-216.66,66.24-261.29,175.6-58.86,144.25,10.37,308.91,154.62,367.77a281.42,281.42,0,0,0,106.47,21c111.25,0,216.67-66.24,261.3-175.6,58.85-144.25-10.37-308.9-154.62-367.76a281.25,281.25,0,0,0-106.48-21"></path><path class="cls-6" d="M7407.38,1857.8a204,204,0,0,1-53.93-7.29c-108.43-29.66-172.5-142-142.84-250.44,24.19-88.39,105-150.12,196.52-150.12a204.06,204.06,0,0,1,53.93,7.29c108.43,29.66,172.5,142,142.84,250.44-24.19,88.39-105,150.12-196.5,150.12Z"></path><path class="cls-6" d="M8662.65,3226.54a204.81,204.81,0,0,1-125-43A203.88,203.88,0,0,1,8615,2824.44a203.33,203.33,0,0,1,173.06,37.29,203.88,203.88,0,0,1-77.39,359.07,204.79,204.79,0,0,1-48,5.74"></path><path class="cls-20" d="M7407.13,1458.25a195.63,195.63,0,0,1,188.76,247.24A193.64,193.64,0,0,1,7525,1810.08a195,195,0,0,1-169.32,32.43,195.59,195.59,0,0,1-66.09-344.84,196.86,196.86,0,0,1,117.58-39.42m0-16.59c-93.25,0-178.72,61.93-204.52,156.22-30.92,113,35.63,229.71,148.65,260.64a212.75,212.75,0,0,0,56.12,7.57c93.25,0,178.72-61.94,204.52-156.22,30.92-113-35.63-229.71-148.65-260.64a212.75,212.75,0,0,0-56.12-7.57"></path><path class="cls-6" d="M8143.74,2078.73a203.95,203.95,0,1,1,112.48-33.82,202.8,202.8,0,0,1-112.48,33.82Z"></path><path class="cls-29" d="M8143.9,1679.18A195.6,195.6,0,1,1,8036,1711.62a194.44,194.44,0,0,1,107.92-32.44m0-16.6a212.23,212.23,0,0,0-196.52,132.07c-44.27,108.49,7.79,232.33,116.29,276.59A212,212,0,0,0,8340.26,1955c44.27-108.49-7.79-232.33-116.29-276.6a211.48,211.48,0,0,0-80.07-15.78"></path><path class="cls-6" d="M9596.83,3836.81a166.84,166.84,0,1,1,63.08-321.26c85.15,34.74,126.15,132.29,91.41,217.44a166.86,166.86,0,0,1-154.49,103.82"></path><path class="cls-29" d="M9597,3509.66a160.36,160.36,0,1,1-88.45,26.6,159.35,159.35,0,0,1,88.45-26.6h0m0-13a173.41,173.41,0,1,0,65.41,12.89,173.39,173.39,0,0,0-65.41-12.89"></path><path class="cls-6" d="M9925.16,3220.75a162.48,162.48,0,1,1,61.43-312.87c82.92,33.84,122.86,128.83,89,211.76a162.52,162.52,0,0,1-150.46,101.11"></path><path class="cls-20" d="M9925.3,2902.32a156,156,0,1,1-86,25.87,155,155,0,0,1,86-25.87h0m0-13a169.06,169.06,0,1,0,63.77,12.57,169,169,0,0,0-63.77-12.57"></path><g class="cls-45"><polygon class="cls-5" points="9357.86 1748.89 8352.57 1858.44 8353.83 1882.51 9359.12 1772.96 9357.86 1748.89"></polygon></g><path class="cls-6" d="M9475.25,1911.94a161.53,161.53,0,0,1-61.31-12.09c-82.92-33.83-122.86-128.83-89-211.75a162.41,162.41,0,1,1,150.33,223.84"></path><path class="cls-7" d="M9475.38,1580.47v13a156,156,0,1,1-86,25.87,155.1,155.1,0,0,1,86-25.87v-13m0,0a169,169,0,1,0,63.77,12.56,169,169,0,0,0-63.77-12.56"></path><path class="cls-6" d="M8763.94,942.91a164.77,164.77,0,0,1-23-1.63A162.44,162.44,0,0,1,8763.52,618a164.63,164.63,0,0,1,23,1.63c88.68,12.57,150.59,95,138,183.63A162.45,162.45,0,0,1,8764,942.91Z"></path><path class="cls-29" d="M8763.52,624.53a159.33,159.33,0,0,1,22.1,1.56,155.92,155.92,0,0,1-21.68,310.3,157.69,157.69,0,0,1-22.1-1.56,155.92,155.92,0,0,1,21.68-310.3m0-13a169.12,169.12,0,1,0,23.93,1.7,169,169,0,0,0-23.93-1.7"></path><path class="cls-6" d="M5592.55,8404.91a162.26,162.26,0,0,1-106.8-40.11c-67.45-58.94-74.38-161.75-15.44-229.2a162.44,162.44,0,0,1,229.19-15.44c67.44,58.94,74.37,161.75,15.44,229.2a162.51,162.51,0,0,1-122.39,55.55h0"></path><path class="cls-7" d="M5592.69,8086.57a155.92,155.92,0,1,1-117.47,53.32,155.8,155.8,0,0,1,117.47-53.32m0-13a169,169,0,1,0,111.1,41.73,168.54,168.54,0,0,0-111.1-41.73"></path><g class="cls-46"><polygon class="cls-5" points="9280.31 6299.14 8279.45 6154.54 8281.55 6130.53 9282.41 6275.13 9280.31 6299.14"></polygon></g><g class="cls-47"><polygon class="cls-5" points="6856.9 8036.72 7036.76 7061.55 7012.94 7055.43 6833.07 8030.6 6856.9 8036.72"></polygon></g><g class="cls-48"><polygon class="cls-5" points="7500.7 8121.76 7217.43 7151 7193.95 7156.44 7477.22 8127.2 7500.7 8121.76"></polygon></g><path class="cls-6" d="M8116.45,6301.87c-3.56,0-7.16-.1-10.71-.28A198.54,198.54,0,0,1,7918,6092.8c5.6-105.42,92.6-188,198.08-188,3.55,0,7.15.1,10.7.28a198.54,198.54,0,0,1,187.73,208.79c-5.6,105.42-92.6,188-198.07,188Z"></path><path class="cls-29" d="M8116.09,5913.09c3.4,0,6.85.09,10.26.27a190.23,190.23,0,0,1,179.89,200.06c-5.37,101-88.74,180.15-189.79,180.15-3.41,0-6.86-.09-10.27-.27a190.22,190.22,0,0,1-179.88-200.06c5.36-101,88.73-180.15,189.79-180.15m0-16.6c-109.21,0-200.51,85.54-206.36,195.87-6.06,114.07,81.5,211.45,195.57,217.51q5.59.3,11.15.3c109.2,0,200.5-85.53,206.36-195.87,6.05-114.07-81.51-211.45-195.58-217.51-3.73-.2-7.45-.3-11.14-.3"></path><path class="cls-6" d="M7150.9,7187.59c-3.55,0-7.15-.09-10.71-.28a198.53,198.53,0,0,1-187.72-208.79c5.59-105.42,92.6-188,198.07-188,3.55,0,7.15.1,10.71.29,109.32,5.8,193.53,99.46,187.73,208.78-5.6,105.43-92.61,188-198.08,188"></path><path class="cls-29" d="M7150.56,6798.81c3.39,0,6.84.09,10.25.27a190.24,190.24,0,0,1,179.88,200.06c-5.36,101-88.73,180.15-189.79,180.15-3.4,0-6.86-.09-10.27-.27A190.24,190.24,0,0,1,6960.75,6979c5.36-101,88.73-180.14,189.81-180.15h0m0-16.6c-109.19,0-200.5,85.54-206.36,195.87-6.06,114.07,81.5,211.46,195.57,217.51,3.74.2,7.45.3,11.15.3,109.19,0,200.5-85.54,206.36-195.87,6.06-114.07-81.5-211.45-195.57-217.51-3.74-.2-7.45-.3-11.15-.3"></path><g class="cls-49"><polygon class="cls-5" points="8492.7 7257.66 8209.43 6286.9 8185.95 6292.34 8469.22 7263.1 8492.7 7257.66"></polygon></g><path class="cls-6" d="M9354.44,6492.24c-77.36,0-144.32-55.19-159.22-131.23a162.44,162.44,0,0,1,128.17-190.63,163.93,163.93,0,0,1,31.42-3.06c77.35,0,144.31,55.19,159.21,131.23,17.22,87.89-40.27,173.41-128.16,190.63a164,164,0,0,1-31.41,3.06Z"></path><path class="cls-29" d="M9354.81,6173.84a156.21,156.21,0,1,1-30.17,2.94,156.27,156.27,0,0,1,30.17-2.94m0-13a169,169,0,1,0,165.61,136.5,169.67,169.67,0,0,0-165.61-136.5"></path><g class="cls-50"><polygon class="cls-5" points="7991.3 7789.47 7353.95 7029.81 7334.06 7044.28 7971.41 7803.95 7991.3 7789.47"></polygon></g><path class="cls-6" d="M8074.33,8069.89c-84.21,0-155.3-63.14-165.37-146.88-11-91.31,54.36-174.53,145.67-185.51a167.85,167.85,0,0,1,20.14-1.21c84.2,0,155.3,63.14,165.37,146.88a166.77,166.77,0,0,1-145.67,185.51,168,168,0,0,1-20.14,1.21"></path><path class="cls-29" d="M8074.78,7742.8c80.9,0,149.21,60.68,158.89,141.15a160.27,160.27,0,0,1-140,178.26,163.27,163.27,0,0,1-19.36,1.16c-80.91,0-149.22-60.67-158.9-141.14a160.27,160.27,0,0,1,140-178.26,163.2,163.2,0,0,1,19.37-1.17h0m0-13a176.25,176.25,0,0,0-20.92,1.25,173.22,173.22,0,1,0,20.92-1.25"></path><path class="cls-6" d="M7554.07,8426.46c-82,0-151.25-61.5-161.06-143-10.69-88.93,52.95-170,141.87-180.67a165.38,165.38,0,0,1,19.61-1.18c82,0,151.25,61.5,161.06,143.05a162.43,162.43,0,0,1-141.87,180.67,165.38,165.38,0,0,1-19.61,1.18"></path><path class="cls-7" d="M7554.5,8108.08c78.71,0,145.16,59,154.58,137.31A155.92,155.92,0,0,1,7572.9,8418.8a156.51,156.51,0,0,1-18.83,1.14c-78.71,0-145.17-59-154.58-137.31a155.92,155.92,0,0,1,136.17-173.42,158.49,158.49,0,0,1,18.84-1.13h0m0-13a169,169,0,0,0-.42,337.93,171.56,171.56,0,0,0,20.39-1.22,169,169,0,0,0-20-336.71"></path><path class="cls-6" d="M6797.17,8331.93a162.44,162.44,0,1,1,103.65-37.45,162.06,162.06,0,0,1-103.65,37.45"></path><path class="cls-20" d="M6797,8013.58a155.94,155.94,0,1,1-99.49,35.95,155.54,155.54,0,0,1,99.49-35.95h0m0-13a168.95,168.95,0,1,0,130.1,61,168.26,168.26,0,0,0-130.1-61"></path><g class="cls-51"><rect class="cls-5" x="8843.19" y="3694.42" width="25.18" height="1015.21" transform="translate(1619.5 10814) rotate(-67.8)"></rect></g><path class="cls-6" d="M9478.76,4613.38a166.84,166.84,0,1,1,63.08-321.26c85.15,34.74,126.15,132.28,91.41,217.44a166.86,166.86,0,0,1-154.49,103.82Z"></path><path class="cls-20" d="M9478.89,4286.23a160.31,160.31,0,1,1-88.44,26.59,159.22,159.22,0,0,1,88.44-26.59m0-13a173.41,173.41,0,1,0,65.41,12.89,173.37,173.37,0,0,0-65.41-12.89"></path><path class="cls-6" d="M8568.26,7540.18a162.44,162.44,0,1,1,103.65-37.45,162.06,162.06,0,0,1-103.65,37.45"></path><path class="cls-20" d="M8568.08,7221.83a155.92,155.92,0,1,1-99.49,35.95,155.58,155.58,0,0,1,99.49-35.95h0m0-13a169,169,0,1,0,130.09,61,168.31,168.31,0,0,0-130.09-61"></path><path class="cls-6" d="M4745.92,5346.79A203.93,203.93,0,1,1,4933.81,5064c43.51,103.66-5.42,223.38-109.07,266.89a202.62,202.62,0,0,1-78.81,15.94Z"></path><path class="cls-20" d="M4745.74,4947.24a195.81,195.81,0,1,1-75.6,15.3,195.65,195.65,0,0,1,75.6-15.3m0-16.59a211.52,211.52,0,0,0-82,16.59c-108,45.35-158.86,169.7-113.51,277.74A212,212,0,0,0,4828,5338.5c108-45.35,158.86-169.7,113.51-277.75a212.22,212.22,0,0,0-195.72-130.1"></path><path class="cls-6" d="M5632.52,2094.56a203.94,203.94,0,0,1-196.34-259.22,202,202,0,0,1,74.17-108,203.33,203.33,0,0,1,177.35-32.91A203.88,203.88,0,0,1,5754.46,2054a205.22,205.22,0,0,1-121.93,40.61Z"></path><path class="cls-7" d="M5632.3,1695a195.63,195.63,0,0,1,188.35,248.67,193.7,193.7,0,0,1-71.15,103.62,196.41,196.41,0,0,1-55,28.81A195.59,195.59,0,0,1,5515.32,1734a196.27,196.27,0,0,1,55-28.81,194.13,194.13,0,0,1,62-10.15m0-16.6c-92.63,0-177.75,61.13-204.11,154.68-31.78,112.79,33.89,230,146.68,261.76a212.29,212.29,0,0,0,57.65,8c92.63,0,177.74-61.13,204.1-154.68,31.78-112.79-33.89-230-146.67-261.76a212.35,212.35,0,0,0-57.65-8"></path><path class="cls-6" d="M3525.78,3511.47a203.19,203.19,0,0,1-109.84-32.19,10.62,10.62,0,0,1,7-19.49,127.17,127.17,0,0,0,14.95.87,125.18,125.18,0,0,0,56.64-13.35,78.53,78.53,0,0,1-45.85-49,10.64,10.64,0,0,1,2.17-10.29,12.52,12.52,0,0,1,1-1,78.69,78.69,0,0,1-27.53-59.68c0-.49,0-1,0-1.42a10.63,10.63,0,0,1,10-10.05,77.75,77.75,0,0,1-6.71-16.76,10.62,10.62,0,1,1,20.49-5.57,57.29,57.29,0,0,0,23.49,32.59,10.62,10.62,0,0,1-6.22,19.45,78,78,0,0,1-17.64-2.59,57.42,57.42,0,0,0,43.77,40.52,10.63,10.63,0,0,1,.7,20.67,79.12,79.12,0,0,1-16,2.62,57.34,57.34,0,0,0,46.21,24.85,10.61,10.61,0,0,1,6.35,19,145.76,145.76,0,0,1-64.45,29,182,182,0,0,0,61.45,10.67,10.62,10.62,0,0,1,0,21.24"></path><path class="cls-6" d="M3525.78,3511.47a10.62,10.62,0,0,1,0-21.24c114.32,0,182.63-92.86,182.63-182.63,0-2.78,0-5.55-.18-8.3a10.63,10.63,0,0,1,4.39-9.09q4-2.89,7.75-6.07-2.68.42-5.39.74a10.62,10.62,0,0,1-6.72-19.65,57.59,57.59,0,0,0,6.48-4.51q-6,1.72-12.23,3a10.62,10.62,0,0,1-9.8-3.16,57.36,57.36,0,0,0-97.66,52.26,10.61,10.61,0,0,1-10.87,13,201.7,201.7,0,0,1-82.89-22.27,10.62,10.62,0,1,1,9.73-18.88,180.5,180.5,0,0,0,61.4,18.85c-.06-1.26-.09-2.52-.09-3.79a78.56,78.56,0,0,1,131.46-58.06,125.12,125.12,0,0,0,34.38-14A10.62,10.62,0,0,1,3753.7,3240a78.65,78.65,0,0,1-6.24,14.35l.95-.42a10.62,10.62,0,0,1,13.14,15.61,148,148,0,0,1-31.93,34.44c0,1.19,0,2.39,0,3.61,0,49.45-19.11,99.5-52.43,137.3-26.76,30.37-74.76,66.57-151.44,66.57"></path><path class="cls-6" d="M3427.65,3299.06a78.64,78.64,0,0,1-2.76-20.69c0-1.21,0-2.41.09-3.61l21.21,1q-.06,1.32-.06,2.64a57.57,57.57,0,0,0,2,15.11Z"></path><path class="cls-6" d="M3501.29,3303.53a203.83,203.83,0,0,1-40.92-27.85l14-16a183,183,0,0,0,36.67,25Z"></path><path class="cls-6" d="M3462.62,3248a17.2,17.2,0,1,1-17.2-17.2,17.21,17.21,0,0,1,17.2,17.2"></path><path class="cls-29" d="M8763,3141.41H8568.24a19.82,19.82,0,0,1-19.79-19.79v-181.3h15.41v181.3a4.39,4.39,0,0,0,4.38,4.38H8763a4.39,4.39,0,0,0,4.38-4.38V2926.87a4.38,4.38,0,0,0-4.38-4.37H8578.81v-15.42H8763a19.82,19.82,0,0,1,19.79,19.79v194.75a19.82,19.82,0,0,1-19.79,19.79"></path><path class="cls-29" d="M8712.8,3133.7h-11v-90.16H8731l2.85-22.13h-32.06V2994.8c0-9.26,2.27-21.59,21.83-21.59h11.95v-19.05c-4.77-.38-12-.78-20-.78-23.16,0-37,14.26-37,38.16v29.87h-28.43v22.13h28.43v90.16h-11v-79.15h-28.43v-44.14h28.43v-18.87c0-30.33,18.39-49.17,48-49.17a236.15,236.15,0,0,1,26.22,1.35l4.78.63v39.86h-23c-9.81,0-10.83,3.23-10.83,10.58v15.61h33.57l-5.7,44.14H8712.8Z"></path><path class="cls-29" d="M8570.67,2919.31a12.48,12.48,0,1,1-12.48-12.48,12.48,12.48,0,0,1,12.48,12.48"></path><path class="cls-7" d="M8103.9,3801a12.7,12.7,0,1,1-12.7-12.69,12.7,12.7,0,0,1,12.7,12.69"></path><path class="cls-7" d="M8213.65,4029.35a21.46,21.46,0,1,1,21.46-21.46,21.48,21.48,0,0,1-21.46,21.46m0-31.72a10.27,10.27,0,1,0,10.27,10.26,10.28,10.28,0,0,0-10.27-10.26"></path><path class="cls-7" d="M8305.14,4029.35a21.46,21.46,0,1,1,21.47-21.46,21.48,21.48,0,0,1-21.47,21.46m0-31.72a10.27,10.27,0,1,0,10.27,10.26,10.27,10.27,0,0,0-10.27-10.26"></path><path class="cls-7" d="M8340.89,3948.28H8188.28a7.84,7.84,0,0,1,0-15.67h139.85l15.61-75.68H8167.2a7.84,7.84,0,1,1,0-15.67H8363Z"></path><polygon class="cls-7" points="8327.69 3981.3 8189.67 3981.3 8149.88 3808.84 8115 3808.84 8115 3793.17 8162.35 3793.17 8202.14 3965.63 8327.69 3965.63 8327.69 3981.3"></polygon><polygon class="cls-7" points="8324.1 3855.33 8278.16 3809.38 8247.64 3839.9 8236.56 3828.81 8278.16 3787.22 8335.18 3844.25 8324.1 3855.33"></polygon><polygon class="cls-7" points="8199.2 3852.75 8188.12 3841.67 8225.76 3804.03 8263.39 3841.67 8252.31 3852.75 8225.76 3826.19 8199.2 3852.75"></polygon><path class="cls-7" d="M2947.92,6298.39a12.7,12.7,0,1,1-12.7-12.69,12.7,12.7,0,0,1,12.7,12.69"></path><path class="cls-7" d="M3057.67,6526.75a21.46,21.46,0,1,1,21.46-21.47,21.49,21.49,0,0,1-21.46,21.47m0-31.73a10.27,10.27,0,1,0,10.27,10.26,10.28,10.28,0,0,0-10.27-10.26"></path><path class="cls-7" d="M3149.16,6526.75a21.46,21.46,0,1,1,21.47-21.47,21.48,21.48,0,0,1-21.47,21.47m0-31.73a10.27,10.27,0,1,0,10.27,10.26,10.27,10.27,0,0,0-10.27-10.26"></path><path class="cls-7" d="M3184.91,6445.67H3032.3a7.84,7.84,0,0,1,0-15.67h139.85l15.62-75.68H3011.22a7.84,7.84,0,1,1,0-15.67H3207Z"></path><polygon class="cls-7" points="3171.72 6478.69 3033.69 6478.69 2993.91 6306.23 2959.02 6306.23 2959.02 6290.56 3006.37 6290.56 3046.16 6463.02 3171.72 6463.02 3171.72 6478.69"></polygon><polygon class="cls-7" points="3168.12 6352.72 3122.18 6306.77 3091.66 6337.29 3080.58 6326.2 3122.18 6284.61 3179.2 6341.64 3168.12 6352.72"></polygon><polygon class="cls-7" points="3043.22 6350.14 3032.14 6339.06 3069.78 6301.42 3107.41 6339.06 3096.33 6350.14 3069.78 6323.58 3043.22 6350.14"></polygon><path class="cls-7" d="M4321.66,7386.48a12.69,12.69,0,1,1-12.69-12.69,12.69,12.69,0,0,1,12.69,12.69"></path><path class="cls-7" d="M4431.41,7614.84a21.47,21.47,0,1,1,21.46-21.47,21.49,21.49,0,0,1-21.46,21.47m0-31.73a10.27,10.27,0,1,0,10.27,10.26,10.27,10.27,0,0,0-10.27-10.26"></path><path class="cls-7" d="M4522.91,7614.84a21.47,21.47,0,1,1,21.46-21.47,21.48,21.48,0,0,1-21.46,21.47m0-31.73a10.27,10.27,0,1,0,10.27,10.26,10.28,10.28,0,0,0-10.27-10.26"></path><path class="cls-7" d="M4558.66,7533.76H4406.05a7.84,7.84,0,1,1,0-15.67h139.84l15.62-75.68H4385a7.84,7.84,0,0,1,0-15.67h195.78Z"></path><polygon class="cls-7" points="4545.46 7566.78 4407.44 7566.78 4367.65 7394.32 4332.76 7394.32 4332.76 7378.65 4380.11 7378.65 4419.9 7551.11 4545.46 7551.11 4545.46 7566.78"></polygon><polygon class="cls-7" points="4541.87 7440.81 4495.92 7394.86 4465.41 7425.38 4454.33 7414.29 4495.92 7372.7 4552.94 7429.73 4541.87 7440.81"></polygon><polygon class="cls-7" points="4416.96 7438.23 4405.88 7427.15 4443.52 7389.51 4481.16 7427.15 4470.08 7438.23 4443.52 7411.67 4416.96 7438.23"></polygon><path class="cls-7" d="M5508.76,8162.67a10,10,0,1,1-10-10,10,10,0,0,1,10,10"></path><path class="cls-7" d="M5595.65,8343.45a17,17,0,1,1,17-17,17,17,0,0,1-17,17m0-25.11a8.13,8.13,0,1,0,8.13,8.12,8.13,8.13,0,0,0-8.13-8.12"></path><path class="cls-7" d="M5668.09,8343.45a17,17,0,1,1,17-17,17,17,0,0,1-17,17m0-25.11a8.13,8.13,0,1,0,8.13,8.12,8.13,8.13,0,0,0-8.13-8.12"></path><path class="cls-7" d="M5696.39,8279.27H5575.57a6.21,6.21,0,0,1,0-12.41h110.71l12.37-59.91H5558.88a6.2,6.2,0,1,1,0-12.4h155Z"></path><polygon class="cls-7" points="5685.94 8305.41 5576.67 8305.41 5545.17 8168.88 5517.56 8168.88 5517.56 8156.47 5555.04 8156.47 5586.54 8293 5685.94 8293 5685.94 8305.41"></polygon><polygon class="cls-7" points="5683.1 8205.68 5646.72 8169.31 5622.57 8193.46 5613.79 8184.69 5646.72 8151.76 5691.87 8196.91 5683.1 8205.68"></polygon><polygon class="cls-7" points="5584.21 8203.64 5575.44 8194.87 5605.24 8165.07 5635.03 8194.87 5626.26 8203.64 5605.24 8182.61 5584.21 8203.64"></polygon><path class="cls-7" d="M7465.67,8193.49a10.05,10.05,0,1,1-10.05-10.05,10.05,10.05,0,0,1,10.05,10.05"></path><path class="cls-7" d="M7552.56,8374.27a17,17,0,1,1,17-17,17,17,0,0,1-17,17m0-25.12a8.13,8.13,0,1,0,8.12,8.13,8.14,8.14,0,0,0-8.12-8.13"></path><path class="cls-7" d="M7625,8374.27a17,17,0,1,1,17-17,17,17,0,0,1-17,17m0-25.12a8.13,8.13,0,1,0,8.13,8.13,8.14,8.14,0,0,0-8.13-8.13"></path><path class="cls-7" d="M7653.29,8310.09H7532.47a6.21,6.21,0,0,1,0-12.41h110.71l12.37-59.91H7515.78a6.21,6.21,0,0,1,0-12.41h155Z"></path><polygon class="cls-7" points="7642.84 8336.22 7533.57 8336.22 7502.07 8199.69 7474.46 8199.69 7474.46 8187.29 7511.94 8187.29 7543.44 8323.82 7642.84 8323.82 7642.84 8336.22"></polygon><polygon class="cls-7" points="7640 8236.5 7603.62 8200.13 7579.47 8224.28 7570.69 8215.51 7603.62 8182.58 7648.77 8227.73 7640 8236.5"></polygon><polygon class="cls-7" points="7541.11 8234.46 7532.34 8225.68 7562.14 8195.89 7591.94 8225.68 7583.16 8234.45 7562.14 8213.43 7541.11 8234.46"></polygon><path class="cls-29" d="M8076.18,6221.55a157.29,157.29,0,0,1-85-24.9,8.22,8.22,0,0,1,5.4-15.08,100.42,100.42,0,0,0,11.57.67,97,97,0,0,0,43.84-10.33A60.81,60.81,0,0,1,8016.5,6134a8.25,8.25,0,0,1,1.68-8,7.55,7.55,0,0,1,.81-.79,60.89,60.89,0,0,1-21.31-46.19c0-.38,0-.74,0-1.1a8.2,8.2,0,0,1,7.72-7.77,60.39,60.39,0,0,1-5.19-13,8.22,8.22,0,0,1,15.86-4.31,44.33,44.33,0,0,0,18.18,25.22,8.22,8.22,0,0,1-4.81,15.05,60.66,60.66,0,0,1-13.66-2,44.41,44.41,0,0,0,33.87,31.35,8.22,8.22,0,0,1,.54,16,61.16,61.16,0,0,1-12.39,2,44.37,44.37,0,0,0,35.75,19.23,8.22,8.22,0,0,1,4.92,14.69,113,113,0,0,1-49.88,22.44,140.86,140.86,0,0,0,47.56,8.25,8.22,8.22,0,1,1,0,16.43"></path><path class="cls-29" d="M8076.18,6221.55a8.22,8.22,0,1,1,0-16.43c88.46,0,141.33-71.86,141.33-141.33q0-3.22-.14-6.42a8.21,8.21,0,0,1,3.39-7q3.09-2.23,6-4.7c-1.39.22-2.78.41-4.17.58a8.22,8.22,0,0,1-5.2-15.21,45.21,45.21,0,0,0,5-3.49c-3.11.89-6.27,1.66-9.46,2.29a8.22,8.22,0,0,1-7.58-2.44,44.36,44.36,0,0,0-76.72,30.32,43.9,43.9,0,0,0,1.15,10.11,8.23,8.23,0,0,1-8.42,10.08,156.22,156.22,0,0,1-64.14-17.23,8.22,8.22,0,1,1,7.53-14.61,139.51,139.51,0,0,0,47.51,14.58c-.05-1-.07-1.95-.07-2.93a60.8,60.8,0,0,1,101.73-44.93,97.09,97.09,0,0,0,26.6-10.84,8.22,8.22,0,0,1,12,9.57,60,60,0,0,1-4.83,11.11l.74-.33a8.22,8.22,0,0,1,10.17,12.08,114.52,114.52,0,0,1-24.71,26.65c0,.92,0,1.85,0,2.79,0,38.27-14.78,77-40.57,106.25-20.71,23.5-57.86,51.51-117.19,51.51"></path><path class="cls-29" d="M8000.24,6057.18a61,61,0,0,1-2.13-16c0-.94,0-1.87.06-2.8l16.42.75c0,.68,0,1.36,0,2.05a44.56,44.56,0,0,0,1.55,11.69Z"></path><path class="cls-29" d="M8057.23,6060.65a158,158,0,0,1-31.67-21.55l10.82-12.37a141.71,141.71,0,0,0,28.38,19.31Z"></path><path class="cls-29" d="M8027.31,6017.64a13.32,13.32,0,1,1-13.31-13.31,13.31,13.31,0,0,1,13.31,13.31"></path><path class="cls-29" d="M4974.3,7285.94a157.22,157.22,0,0,1-85-24.91,8.22,8.22,0,0,1,5.4-15.08,100.16,100.16,0,0,0,11.57.67,96.83,96.83,0,0,0,43.83-10.33,60.72,60.72,0,0,1-35.48-37.95,8.2,8.2,0,0,1,1.68-8,9.94,9.94,0,0,1,.8-.79,60.91,60.91,0,0,1-21.3-46.18c0-.38,0-.74,0-1.1a8.22,8.22,0,0,1,4.23-6.76,8.13,8.13,0,0,1,3.5-1,60.31,60.31,0,0,1-5.19-13,8.21,8.21,0,1,1,15.85-4.32,44.4,44.4,0,0,0,18.18,25.23,8.22,8.22,0,0,1-4.81,15.05,60.59,60.59,0,0,1-13.65-2,44.42,44.42,0,0,0,33.87,31.36,8.22,8.22,0,0,1,.54,16,61.25,61.25,0,0,1-12.4,2,44.38,44.38,0,0,0,35.76,19.22,8.22,8.22,0,0,1,4.92,14.69,112.82,112.82,0,0,1-49.88,22.44,140.86,140.86,0,0,0,47.56,8.25,8.22,8.22,0,1,1,0,16.44"></path><path class="cls-29" d="M4974.3,7285.94a8.22,8.22,0,0,1,0-16.44c88.46,0,141.32-71.85,141.32-141.32,0-2.15,0-4.29-.14-6.42a8.24,8.24,0,0,1,3.4-7c2.06-1.49,4.06-3.06,6-4.69-1.38.21-2.77.41-4.17.57a8.22,8.22,0,0,1-5.2-15.21,44,44,0,0,0,5-3.49c-3.11.89-6.27,1.66-9.47,2.29a8.2,8.2,0,0,1-7.58-2.44,44.38,44.38,0,0,0-75.57,40.43,8.22,8.22,0,0,1-8.41,10.09,156.39,156.39,0,0,1-64.15-17.24,8.22,8.22,0,1,1,7.53-14.61,139.75,139.75,0,0,0,47.51,14.59c0-1-.07-1.95-.07-2.94a60.8,60.8,0,0,1,101.74-44.92,96.93,96.93,0,0,0,26.6-10.85,8.22,8.22,0,0,1,12,9.57,61.4,61.4,0,0,1-4.83,11.11l.73-.32a8.21,8.21,0,0,1,10.17,12.07,114.54,114.54,0,0,1-24.7,26.66c0,.92,0,1.85,0,2.79,0,38.27-14.79,77-40.57,106.25-20.72,23.5-57.86,51.51-117.19,51.51"></path><path class="cls-29" d="M4898.36,7121.57a60.69,60.69,0,0,1-2.14-16c0-.93,0-1.87.07-2.79l16.42.75c0,.68-.05,1.36-.05,2a44.51,44.51,0,0,0,1.55,11.69Z"></path><path class="cls-29" d="M4955.34,7125a158,158,0,0,1-31.66-21.55l10.82-12.37a141.51,141.51,0,0,0,28.37,19.31Z"></path><path class="cls-29" d="M4925.42,7082a13.31,13.31,0,1,1-13.31-13.31,13.3,13.3,0,0,1,13.31,13.31"></path><path class="cls-29" d="M3202.3,7155.56a157.3,157.3,0,0,1-85-24.91,8.22,8.22,0,0,1,5.4-15.08,100.29,100.29,0,0,0,11.57.67,96.83,96.83,0,0,0,43.83-10.33,60.77,60.77,0,0,1-35.48-37.95,8.22,8.22,0,0,1,1.68-8,9.94,9.94,0,0,1,.8-.79,60.91,60.91,0,0,1-21.3-46.18c0-.38,0-.74,0-1.1a8.24,8.24,0,0,1,7.73-7.78,60.52,60.52,0,0,1-5.19-13,8.22,8.22,0,0,1,15.86-4.32,44.25,44.25,0,0,0,18.18,25.22,8.23,8.23,0,0,1-4.82,15.06,61.24,61.24,0,0,1-13.65-2,44.44,44.44,0,0,0,33.87,31.36,8.22,8.22,0,0,1,.54,16,60.56,60.56,0,0,1-12.39,2,44.37,44.37,0,0,0,35.75,19.23,8.22,8.22,0,0,1,4.92,14.69,112.82,112.82,0,0,1-49.88,22.44,140.86,140.86,0,0,0,47.56,8.25,8.22,8.22,0,0,1,0,16.44"></path><path class="cls-29" d="M3202.3,7155.56a8.22,8.22,0,0,1,0-16.44c88.46,0,141.32-71.86,141.32-141.32,0-2.15,0-4.29-.14-6.42a8.23,8.23,0,0,1,3.4-7c2.06-1.49,4.06-3.06,6-4.69q-2.07.32-4.17.57a8.22,8.22,0,0,1-5.2-15.21,44,44,0,0,0,5-3.49c-3.11.89-6.27,1.66-9.46,2.29a8.21,8.21,0,0,1-7.58-2.44,44.38,44.38,0,0,0-75.58,40.43,8.22,8.22,0,0,1-1.69,7.14,8.3,8.3,0,0,1-6.72,3,156.39,156.39,0,0,1-64.14-17.24,8.22,8.22,0,1,1,7.52-14.61,139.8,139.8,0,0,0,47.52,14.59c0-1-.07-1.95-.07-2.94a60.8,60.8,0,0,1,101.73-44.93,97.22,97.22,0,0,0,26.6-10.84,8.22,8.22,0,0,1,12,9.57,60,60,0,0,1-4.83,11.11l.74-.32a8.22,8.22,0,0,1,10.17,12.07A114.58,114.58,0,0,1,3360,6995c0,.92,0,1.85,0,2.79,0,38.27-14.79,77-40.57,106.25-20.71,23.5-57.86,51.51-117.19,51.51"></path><path class="cls-29" d="M3126.36,6991.19a61.1,61.1,0,0,1-2.13-16q0-1.41.06-2.79l16.42.75c0,.67-.05,1.36-.05,2a44.52,44.52,0,0,0,1.56,11.69Z"></path><path class="cls-29" d="M3183.35,6994.65a157.76,157.76,0,0,1-31.67-21.55l10.82-12.37a141.71,141.71,0,0,0,28.38,19.31Z"></path><path class="cls-29" d="M3153.43,6951.64a13.32,13.32,0,1,1-13.32-13.31,13.32,13.32,0,0,1,13.32,13.31"></path><path class="cls-29" d="M8096.33,1998.39a157.22,157.22,0,0,1-85-24.91,8.22,8.22,0,0,1,5.4-15.08,98.22,98.22,0,0,0,11.57.68,97,97,0,0,0,43.84-10.33,60.81,60.81,0,0,1-35.49-38,8.24,8.24,0,0,1,1.68-8,7.45,7.45,0,0,1,.8-.79,60.91,60.91,0,0,1-21.3-46.19c0-.38,0-.74,0-1.1a8.2,8.2,0,0,1,7.72-7.77,60.39,60.39,0,0,1-5.19-13,8.22,8.22,0,1,1,15.86-4.31,44.33,44.33,0,0,0,18.18,25.22,8.22,8.22,0,0,1-4.81,15,60.66,60.66,0,0,1-13.66-2,44.43,44.43,0,0,0,33.87,31.35,8.22,8.22,0,0,1,.54,16,61.16,61.16,0,0,1-12.39,2,44.37,44.37,0,0,0,35.75,19.23,8.21,8.21,0,0,1,4.92,14.68,112.82,112.82,0,0,1-49.88,22.44,140.62,140.62,0,0,0,47.56,8.26,8.22,8.22,0,1,1,0,16.43"></path><path class="cls-29" d="M8096.33,1998.39a8.22,8.22,0,1,1,0-16.43c88.46,0,141.33-71.86,141.33-141.33q0-3.23-.14-6.42a8.2,8.2,0,0,1,3.39-7c2.06-1.5,4.06-3.06,6-4.7-1.39.22-2.78.41-4.17.58a8.22,8.22,0,0,1-5.21-15.21,44.49,44.49,0,0,0,5-3.5c-3.11.9-6.27,1.66-9.46,2.29a8.17,8.17,0,0,1-7.58-2.44,44.37,44.37,0,0,0-76.72,30.33,43.9,43.9,0,0,0,1.15,10.11,8.23,8.23,0,0,1-8.42,10.08,156.08,156.08,0,0,1-64.14-17.24,8.22,8.22,0,0,1,7.52-14.61,139.65,139.65,0,0,0,47.52,14.59c-.05-1-.07-2-.07-2.93a60.8,60.8,0,0,1,101.73-44.93,96.81,96.81,0,0,0,26.6-10.85,8.22,8.22,0,0,1,12,9.58,60.32,60.32,0,0,1-4.83,11.11l.74-.33a8.22,8.22,0,0,1,10.17,12.08,114.52,114.52,0,0,1-24.71,26.65c0,.92,0,1.85,0,2.79,0,38.27-14.78,77-40.57,106.25-20.71,23.5-57.86,51.51-117.19,51.51"></path><path class="cls-29" d="M8020.39,1834a61,61,0,0,1-2.13-16c0-.94,0-1.87.06-2.8l16.42.75c0,.68,0,1.36,0,2a44.56,44.56,0,0,0,1.55,11.69Z"></path><path class="cls-29" d="M8077.38,1837.48a157.63,157.63,0,0,1-31.67-21.55l10.82-12.36a141.67,141.67,0,0,0,28.38,19.3Z"></path><path class="cls-29" d="M8047.46,1794.48a13.32,13.32,0,1,1-13.31-13.32,13.31,13.31,0,0,1,13.31,13.32"></path><path class="cls-29" d="M8155,7996.4H7999.48a15.81,15.81,0,0,1-15.8-15.79V7835.87H7996v144.74a3.5,3.5,0,0,0,3.5,3.49H8155a3.5,3.5,0,0,0,3.5-3.49V7825.13a3.5,3.5,0,0,0-3.5-3.49h-147v-12.31h147a15.81,15.81,0,0,1,15.8,15.8v155.48a15.81,15.81,0,0,1-15.8,15.79"></path><path class="cls-29" d="M8114.89,7990.25h-8.79v-72h23.32l2.28-17.66h-25.6v-21.25c0-7.39,1.81-17.23,17.43-17.23h9.54v-15.21c-3.8-.3-9.61-.62-16-.62-18.49,0-29.53,11.39-29.53,30.47v23.85h-22.7v17.66h22.7v72h-8.79v-63.19H8056.1v-35.24h22.69v-15.06c0-24.21,14.69-39.26,38.32-39.26a187.91,187.91,0,0,1,20.93,1.08l3.82.51v31.82h-18.33c-7.82,0-8.64,2.57-8.64,8.44v12.46h26.8l-4.54,35.24h-22.26Z"></path><path class="cls-29" d="M8001.42,7819.09a10,10,0,1,1-10-10,10,10,0,0,1,10,10"></path><path class="cls-29" d="M2510.91,4225.66c-29.69,0-33.61-.12-45.41-.66-11.44-.52-20.39-2.25-29-5.61a63.76,63.76,0,0,1-36.46-36.46c-3.36-8.63-5.09-17.58-5.61-29-.54-11.8-.67-15.72-.67-45.41s.13-33.61.67-45.41c.52-11.44,2.25-20.39,5.61-29l14.72,5.73c-2.7,7-4.11,14.37-4.55,24-.52,11.51-.65,15.34-.65,44.69s.13,33.18.65,44.69c.44,9.65,1.85,17.06,4.55,24a48,48,0,0,0,27.46,27.46c7,2.7,14.37,4.11,24,4.55,11.51.52,15.35.65,44.69.65s33.18-.13,44.69-.65c9.65-.44,17.06-1.85,24-4.55a48,48,0,0,0,27.46-27.46c2.7-7,4.11-14.37,4.55-24,.52-11.51.65-15.35.65-44.69s-.13-33.18-.65-44.69c-.44-9.65-1.85-17.06-4.55-24a48,48,0,0,0-27.46-27.46c-7-2.71-14.37-4.11-24-4.55-11.51-.52-15.34-.65-44.69-.65s-33.18.13-44.69.65c-9.65.44-17.06,1.84-24,4.55l-5.73-14.72c8.64-3.36,17.59-5.09,29-5.61,11.8-.54,15.71-.67,45.41-.67s33.61.13,45.41.67c11.44.52,20.39,2.25,29,5.61a63.78,63.78,0,0,1,36.46,36.45c3.36,8.64,5.09,17.59,5.61,29,.54,11.8.66,15.72.66,45.41s-.12,33.6-.66,45.41c-.52,11.44-2.25,20.39-5.61,29a63.76,63.76,0,0,1-36.46,36.46c-8.63,3.36-17.58,5.09-29,5.61-11.81.54-15.72.66-45.41.66"></path><path class="cls-29" d="M2510.91,4061.53a47,47,0,1,1-47,47,47,47,0,0,1,47-47m0-11.29a58.26,58.26,0,1,0,58.26,58.26,58.26,58.26,0,0,0-58.26-58.26"></path><path class="cls-29" d="M2585.08,4047.94a13.61,13.61,0,1,1-13.61-13.61,13.61,13.61,0,0,1,13.61,13.61"></path><path class="cls-29" d="M2434.1,4018.89a12.8,12.8,0,1,1-12.79-12.79,12.8,12.8,0,0,1,12.79,12.79"></path><path class="cls-29" d="M3338.24,2190.53c-29.69,0-33.61-.12-45.41-.66-11.44-.52-20.39-2.25-29-5.61a63.78,63.78,0,0,1-36.45-36.46c-3.36-8.63-5.09-17.58-5.61-29-.54-11.8-.67-15.72-.67-45.41s.13-33.61.67-45.41c.52-11.44,2.25-20.39,5.61-29l14.72,5.73c-2.71,7-4.11,14.37-4.55,24-.53,11.51-.65,15.34-.65,44.69s.12,33.18.65,44.69c.44,9.65,1.84,17.06,4.55,24a48,48,0,0,0,27.45,27.46c7,2.7,14.38,4.11,24,4.55,11.51.52,15.34.65,44.69.65s33.17-.13,44.69-.65c9.65-.44,17.05-1.85,24-4.55a48,48,0,0,0,27.45-27.46c2.71-7,4.12-14.37,4.56-24,.52-11.51.64-15.35.64-44.69s-.12-33.18-.64-44.69c-.44-9.65-1.85-17.06-4.56-24A48,48,0,0,0,3407,1977.2c-7-2.71-14.37-4.11-24-4.55-11.51-.52-15.35-.65-44.69-.65s-33.18.13-44.69.65c-9.65.44-17.06,1.84-24,4.55l-5.72-14.72c8.64-3.36,17.59-5.09,29-5.61,11.8-.54,15.71-.67,45.41-.67s33.61.13,45.41.67c11.44.52,20.39,2.25,29,5.61a63.78,63.78,0,0,1,36.46,36.45c3.35,8.64,5.08,17.59,5.61,29,.53,11.8.66,15.72.66,45.41s-.13,33.6-.66,45.41c-.53,11.44-2.26,20.39-5.61,29a63.76,63.76,0,0,1-36.46,36.46c-8.63,3.36-17.58,5.09-29,5.61-11.81.54-15.72.66-45.41.66"></path><path class="cls-29" d="M3338.24,2026.4a47,47,0,1,1-47,47,47,47,0,0,1,47-47m0-11.29a58.26,58.26,0,1,0,58.25,58.26,58.26,58.26,0,0,0-58.25-58.26"></path><path class="cls-29" d="M3412.41,2012.81a13.62,13.62,0,1,1-13.61-13.61,13.61,13.61,0,0,1,13.61,13.61"></path><path class="cls-29" d="M3261.43,1983.76a12.8,12.8,0,1,1-12.8-12.79,12.8,12.8,0,0,1,12.8,12.79"></path><path class="cls-6" d="M7225.06,3076.92c-4.37,0-107.45-.08-134.85-7.43a53,53,0,0,1-37.37-37.36c-7.33-27.4-7.42-81.82-7.42-84.13,0-2,.07-49.19,5.93-77.76l20.69,4.25c-5.45,26.49-5.51,73.05-5.51,73.51s.08,53.95,6.71,78.67a31.77,31.77,0,0,0,22.43,22.43c20.53,5.5,100.36,6.71,129.39,6.71s108.86-1.21,129.39-6.71a31.77,31.77,0,0,0,22.43-22.43c6.63-24.72,6.71-78.13,6.71-78.67s-.08-53.94-6.71-78.66a31.77,31.77,0,0,0-22.43-22.43c-20.53-5.5-100.36-6.71-129.39-6.71-.92,0-92.85.07-124.69,5.7l-3.68-20.78c33.66-6,124.52-6,128.37-6,4.37,0,107.45.08,134.85,7.43a52.89,52.89,0,0,1,37.36,37.36c7.34,27.39,7.43,81.82,7.43,84.12s-.09,56.73-7.43,84.13a52.93,52.93,0,0,1-37.36,37.36c-27.4,7.35-130.48,7.43-134.85,7.43"></path><path class="cls-29" d="M7183.7,3011.79V2884.22L7294.18,2948Zm15.08-101.45v75.33L7264,2948Z"></path><path class="cls-6" d="M7183.7,3011.8V2884.23L7294.18,2948Zm15.08-101.45v75.33L7264,2948Z"></path><path class="cls-6" d="M7091.27,2847.07a17.1,17.1,0,1,1-17.1-17.1,17.11,17.11,0,0,1,17.1,17.1"></path><polygon class="cls-20" points="4870.35 5235.79 4626.33 5235.79 4626.33 5091.73 4642.11 5091.73 4642.11 5220.01 4854.57 5220.01 4854.57 5075.66 4658.18 5075.66 4658.18 5059.88 4870.35 5059.88 4870.35 5235.79"></polygon><polygon class="cls-20" points="4748.34 5168.7 4661.62 5097.54 4668.77 5088.83 4748.34 5154.12 4854.86 5066.66 4862.01 5075.38 4748.34 5168.7"></polygon><path class="cls-20" d="M4647,5067.77a12.78,12.78,0,1,1-12.78-12.78,12.78,12.78,0,0,1,12.78,12.78"></path><path class="cls-20" d="M4647,5067.77a12.78,12.78,0,1,1-12.78-12.78,12.78,12.78,0,0,1,12.78,12.78"></path><polygon class="cls-20" points="3209.77 4783.01 2965.75 4783.01 2965.75 4638.95 2981.53 4638.95 2981.53 4767.23 3193.99 4767.23 3193.99 4622.88 2997.6 4622.88 2997.6 4607.1 3209.77 4607.1 3209.77 4783.01"></polygon><polygon class="cls-20" points="3087.76 4715.92 3001.04 4644.76 3008.19 4636.05 3087.76 4701.34 3194.28 4613.89 3201.43 4622.6 3087.76 4715.92"></polygon><path class="cls-20" d="M2986.42,4615a12.78,12.78,0,1,1-12.78-12.78,12.78,12.78,0,0,1,12.78,12.78"></path><path class="cls-20" d="M2986.42,4615a12.78,12.78,0,1,1-12.78-12.78,12.78,12.78,0,0,1,12.78,12.78"></path><path class="cls-29" d="M2128.43,3583.12a157.3,157.3,0,0,1-85-24.91,8.22,8.22,0,0,1,5.4-15.08,100.42,100.42,0,0,0,11.57.67,96.84,96.84,0,0,0,43.84-10.33,60.74,60.74,0,0,1-35.48-37.95,8.22,8.22,0,0,1,1.67-8,7.55,7.55,0,0,1,.81-.79,60.92,60.92,0,0,1-21.31-46.19c0-.37,0-.74,0-1.1a8.21,8.21,0,0,1,7.73-7.77,60.42,60.42,0,0,1-5.2-13,8.22,8.22,0,0,1,15.86-4.31,44.33,44.33,0,0,0,18.18,25.22,8.22,8.22,0,0,1-4.81,15,60.66,60.66,0,0,1-13.66-2,44.44,44.44,0,0,0,33.87,31.35,8.22,8.22,0,0,1,.54,16,60.47,60.47,0,0,1-12.39,2,44.37,44.37,0,0,0,35.76,19.23,8.22,8.22,0,0,1,4.91,14.69,112.77,112.77,0,0,1-49.88,22.44,140.9,140.9,0,0,0,47.56,8.25,8.22,8.22,0,1,1,0,16.44"></path><path class="cls-29" d="M2128.43,3583.12a8.22,8.22,0,0,1,0-16.44c88.47,0,141.33-71.86,141.33-141.33q0-3.22-.14-6.42a8.21,8.21,0,0,1,3.39-7q3.1-2.24,6-4.7c-1.39.22-2.78.41-4.17.58a8.22,8.22,0,0,1-5.2-15.21,46.29,46.29,0,0,0,5-3.49c-3.12.89-6.28,1.66-9.47,2.29a8.22,8.22,0,0,1-7.58-2.44,44.37,44.37,0,0,0-76.72,30.32,43.9,43.9,0,0,0,1.15,10.11,8.23,8.23,0,0,1-8.42,10.08,156.22,156.22,0,0,1-64.14-17.23,8.22,8.22,0,0,1,7.53-14.61,139.75,139.75,0,0,0,47.51,14.59c-.05-1-.07-2-.07-2.94a60.8,60.8,0,0,1,101.73-44.93,96.68,96.68,0,0,0,26.6-10.85,8.22,8.22,0,0,1,12,9.58,60,60,0,0,1-4.83,11.11l.74-.33a8.22,8.22,0,0,1,10.17,12.08,114.52,114.52,0,0,1-24.71,26.65q0,1.38,0,2.79c0,38.28-14.79,77-40.58,106.25-20.71,23.5-57.86,51.52-117.19,51.52"></path><path class="cls-29" d="M2052.49,3418.75a61.1,61.1,0,0,1-2.13-16c0-.94,0-1.87.07-2.8l16.41.75c0,.68,0,1.37,0,2a44.56,44.56,0,0,0,1.55,11.69Z"></path><path class="cls-29" d="M2109.48,3422.21a158,158,0,0,1-31.67-21.55l10.82-12.37A142,142,0,0,0,2117,3407.6Z"></path><path class="cls-29" d="M2079.56,3379.2a13.31,13.31,0,1,1-13.31-13.31,13.31,13.31,0,0,1,13.31,13.31"></path><path class="cls-29" d="M1746.57,1447.16c-2.65,0-65-.06-81.54-4.49a32,32,0,0,1-22.59-22.6c-4.44-16.56-4.49-49.47-4.49-50.86,0-1.21,0-29.75,3.59-47l12.5,2.57c-3.29,16-3.33,44.17-3.33,44.45s0,32.62,4.06,47.56a19.19,19.19,0,0,0,13.56,13.56c12.42,3.33,60.69,4.06,78.24,4.06s65.82-.73,78.23-4.06a19.19,19.19,0,0,0,13.56-13.56c4-14.94,4.06-47.24,4.06-47.56s-.05-32.62-4.06-47.56a19.21,19.21,0,0,0-13.56-13.57c-12.41-3.32-60.68-4-78.23-4-.56,0-56.14,0-75.4,3.44L1669,1294.9c20.35-3.6,75.29-3.64,77.62-3.64,2.64,0,65,0,81.54,4.49a32,32,0,0,1,22.59,22.59c4.43,16.57,4.48,49.48,4.48,50.87s0,34.3-4.48,50.86a32,32,0,0,1-22.6,22.6c-16.56,4.43-78.89,4.49-81.53,4.49"></path><path class="cls-29" d="M1721.56,1407.78v-77.14l66.8,38.57Zm9.12-61.35V1392l39.44-22.77Z"></path><path class="cls-29" d="M1721.56,1407.78v-77.13l66.8,38.57Zm9.12-61.34V1392l39.44-22.77Z"></path><path class="cls-29" d="M1665.67,1308.18a10.34,10.34,0,1,1-10.34-10.34,10.34,10.34,0,0,1,10.34,10.34"></path><polygon class="cls-20" points="7533.68 1745.13 7289.66 1745.13 7289.66 1601.07 7305.44 1601.07 7305.44 1729.35 7517.9 1729.35 7517.9 1585 7321.51 1585 7321.51 1569.22 7533.68 1569.22 7533.68 1745.13"></polygon><polygon class="cls-20" points="7411.67 1678.04 7324.95 1606.88 7332.1 1598.17 7411.67 1663.46 7518.19 1576.01 7525.34 1584.72 7411.67 1678.04"></polygon><path class="cls-20" d="M7310.33,1577.11a12.78,12.78,0,1,1-12.78-12.78,12.78,12.78,0,0,1,12.78,12.78"></path><path class="cls-20" d="M7310.33,1577.11a12.78,12.78,0,1,1-12.78-12.78,12.78,12.78,0,0,1,12.78,12.78"></path><polygon class="cls-20" points="4278.89 2212.13 4034.87 2212.13 4034.87 2068.07 4050.65 2068.07 4050.65 2196.35 4263.12 2196.35 4263.12 2052 4066.72 2052 4066.72 2036.22 4278.89 2036.22 4278.89 2212.13"></polygon><polygon class="cls-20" points="4156.89 2145.04 4070.16 2073.88 4077.31 2065.17 4156.88 2130.46 4263.4 2043.01 4270.55 2051.72 4156.89 2145.04"></polygon><path class="cls-20" d="M4055.54,2044.11a12.78,12.78,0,1,1-12.78-12.78,12.78,12.78,0,0,1,12.78,12.78"></path><path class="cls-20" d="M4055.54,2044.11a12.78,12.78,0,1,1-12.78-12.78,12.78,12.78,0,0,1,12.78,12.78"></path><path class="cls-29" d="M8766.42,875.23c-24.78,0-28-.11-37.9-.56-9.55-.43-17-1.88-24.23-4.68a53.21,53.21,0,0,1-30.42-30.43c-2.8-7.2-4.25-14.67-4.68-24.22-.45-9.85-.56-13.12-.56-37.9s.11-28.05.56-37.9c.43-9.54,1.88-17,4.68-24.22l12.29,4.77c-2.26,5.82-3.43,12-3.8,20-.44,9.61-.54,12.81-.54,37.3s.1,27.69.54,37.3c.37,8,1.54,14.24,3.8,20a40,40,0,0,0,22.91,22.91c5.81,2.26,12,3.43,20.05,3.8,9.61.44,12.81.54,37.3.54s27.69-.1,37.3-.54c8.05-.37,14.23-1.54,20.05-3.8a40.05,40.05,0,0,0,22.91-22.91c2.26-5.81,3.43-12,3.8-20,.44-9.61.54-12.81.54-37.3s-.1-27.69-.54-37.3c-.37-8-1.54-14.23-3.8-20a40.11,40.11,0,0,0-22.92-22.91c-5.81-2.26-12-3.43-20-3.8-9.61-.44-12.81-.54-37.3-.54s-27.69.1-37.3.54c-8.05.37-14.24,1.54-20.05,3.8l-4.78-12.29c7.21-2.8,14.68-4.24,24.23-4.68,9.85-.45,13.11-.56,37.9-.56s28,.11,37.9.56c9.54.44,17,1.88,24.22,4.68A53.19,53.19,0,0,1,8859,715.32c2.8,7.2,4.24,14.68,4.68,24.22.45,9.85.55,13.12.55,37.9s-.1,28-.55,37.9c-.44,9.55-1.88,17-4.68,24.22A53.19,53.19,0,0,1,8828.54,870c-7.21,2.8-14.68,4.25-24.22,4.68-9.86.45-13.12.56-37.9.56"></path><path class="cls-29" d="M8766.42,738.24a39.21,39.21,0,1,1-39.21,39.2,39.24,39.24,0,0,1,39.21-39.2m0-9.42A48.62,48.62,0,1,0,8815,777.44a48.62,48.62,0,0,0-48.62-48.62"></path><path class="cls-29" d="M8828.32,726.9A11.36,11.36,0,1,1,8817,715.54a11.36,11.36,0,0,1,11.36,11.36"></path><path class="cls-29" d="M8702.31,702.66A10.68,10.68,0,1,1,8691.63,692a10.68,10.68,0,0,1,10.68,10.68"></path><path class="cls-6" d="M4323.39,6248.11c-43.85,0-49.64-.18-67.07-1-16.9-.77-30.12-3.33-42.87-8.28A94.19,94.19,0,0,1,4159.6,6185c-5-12.75-7.51-26-8.28-42.87-.8-17.43-1-23.21-1-67.07s.19-49.64,1-67.07c.77-16.89,3.32-30.12,8.28-42.87l21.75,8.45c-4,10.29-6.07,21.23-6.72,35.48-.78,17-1,22.67-1,66s.18,49,1,66c.65,14.25,2.72,25.19,6.72,35.48a70.87,70.87,0,0,0,40.55,40.55c10.29,4,21.23,6.07,35.48,6.72,17,.78,22.67,1,66,1s49-.18,66-1c14.25-.65,25.2-2.72,35.48-6.72a70.84,70.84,0,0,0,40.56-40.55c4-10.29,6.07-21.23,6.72-35.48.77-17,1-22.67,1-66s-.18-49-1-66c-.65-14.25-2.73-25.19-6.72-35.48a71,71,0,0,0-40.56-40.55c-10.28-4-21.23-6.07-35.48-6.72-17-.77-22.66-1-66-1s-49,.19-66,1c-14.25.65-25.2,2.72-35.48,6.72l-8.45-21.74c12.75-5,26-7.51,42.87-8.29,17.42-.79,23.21-1,67.07-1s49.64.19,67.07,1c16.89.78,30.11,3.33,42.87,8.29a94.16,94.16,0,0,1,53.84,53.84c5,12.76,7.51,26,8.28,42.87.8,17.44,1,23.22,1,67.07s-.19,49.64-1,67.07c-.77,16.9-3.32,30.12-8.28,42.87a94.21,94.21,0,0,1-53.84,53.85c-12.76,4.95-26,7.51-42.87,8.28-17.44.8-23.23,1-67.07,1"></path><path class="cls-6" d="M4323.39,6005.68a69.38,69.38,0,1,1-69.38,69.38,69.47,69.47,0,0,1,69.38-69.38m0-16.66a86,86,0,1,0,86,86,86,86,0,0,0-86-86"></path><path class="cls-29" d="M4424.68,5992.36a18.59,18.59,0,1,1-18.59-18.6,18.59,18.59,0,0,1,18.59,18.6"></path><path class="cls-6" d="M4209.94,5942.72a18.9,18.9,0,1,1-18.9-18.9,18.9,18.9,0,0,1,18.9,18.9"></path><path class="cls-29" d="M4852.76,8795.29H4697.28a15.82,15.82,0,0,1-15.8-15.8V8634.75h12.31v144.74a3.49,3.49,0,0,0,3.49,3.49h155.48a3.49,3.49,0,0,0,3.49-3.49V8624a3.49,3.49,0,0,0-3.49-3.49h-147v-12.31h147a15.81,15.81,0,0,1,15.79,15.8v155.48a15.81,15.81,0,0,1-15.79,15.8"></path><path class="cls-29" d="M4812.69,8789.13h-8.78v-72h23.31l2.28-17.66h-25.59v-21.25c0-7.39,1.8-17.23,17.43-17.23h9.53v-15.21c-3.8-.3-9.6-.62-16-.62-18.49,0-29.52,11.39-29.52,30.47v23.85h-22.7v17.66h22.7v72h-8.79v-63.19h-22.7V8690.7h22.7v-15.06c0-24.21,14.68-39.26,38.31-39.26a187.73,187.73,0,0,1,20.93,1.08l3.82.51v31.82h-18.32c-7.83,0-8.65,2.57-8.65,8.44v12.46h26.8l-4.54,35.24h-22.26Z"></path><path class="cls-29" d="M4699.23,8618a10,10,0,1,1-10-10,10,10,0,0,1,10,10"></path><path class="cls-29" d="M3590.43,8488.3H3435a15.81,15.81,0,0,1-15.79-15.8V8327.76h12.3V8472.5A3.49,3.49,0,0,0,3435,8476h155.48a3.5,3.5,0,0,0,3.5-3.49V8317a3.5,3.5,0,0,0-3.5-3.49h-147v-12.3h147a15.81,15.81,0,0,1,15.8,15.79V8472.5a15.82,15.82,0,0,1-15.8,15.8"></path><path class="cls-29" d="M3550.37,8482.15h-8.79v-72h23.31l2.28-17.67h-25.59v-21.24c0-7.4,1.81-17.24,17.43-17.24h9.54v-15.21c-3.81-.31-9.61-.63-16-.63-18.49,0-29.53,11.39-29.53,30.47v23.85h-22.7v17.67h22.7v72h-8.79V8419h-22.7v-35.24h22.7v-15.06c0-24.21,14.68-39.26,38.32-39.26a188.09,188.09,0,0,1,20.93,1.08l3.81.51v31.82H3559c-7.83,0-8.64,2.57-8.64,8.45v12.45h26.79l-4.54,35.24h-22.25Z"></path><path class="cls-29" d="M3436.9,8311a10,10,0,1,1-10-10,10,10,0,0,1,10,10"></path><path class="cls-29" d="M9433.87,6420H9278.4a15.82,15.82,0,0,1-15.8-15.8V6259.44h12.3v144.74a3.5,3.5,0,0,0,3.5,3.5h155.47a3.5,3.5,0,0,0,3.5-3.5V6248.71a3.5,3.5,0,0,0-3.5-3.5h-147v-12.3h147a15.81,15.81,0,0,1,15.8,15.8v155.47a15.81,15.81,0,0,1-15.8,15.8"></path><path class="cls-29" d="M9393.81,6413.83H9385v-72h23.32l2.28-17.67H9385v-21.24c0-7.4,1.81-17.24,17.43-17.24H9412v-15.21c-3.8-.31-9.61-.62-16-.62-18.49,0-29.53,11.38-29.53,30.47v23.84h-22.7v17.67h22.7v72h-8.79v-63.19H9335v-35.25h22.69v-15.05c0-24.22,14.69-39.26,38.32-39.26a191.66,191.66,0,0,1,20.93,1.07l3.82.51v31.82h-18.33c-7.82,0-8.64,2.57-8.64,8.45v12.45h26.8l-4.54,35.25h-22.26Z"></path><path class="cls-29" d="M9280.34,6242.67a10,10,0,1,1-10-10,10,10,0,0,1,10,10"></path><polygon class="cls-20" points="9580.66 4518.06 9383.12 4518.06 9383.12 4401.44 9395.9 4401.44 9395.9 4505.29 9567.89 4505.29 9567.89 4388.44 9408.91 4388.44 9408.91 4375.66 9580.66 4375.66 9580.66 4518.06"></polygon><polygon class="cls-20" points="9481.9 4463.76 9411.69 4406.15 9417.48 4399.1 9481.89 4451.95 9568.12 4381.16 9573.91 4388.21 9481.9 4463.76"></polygon><path class="cls-20" d="M9399.85,4382.05a10.34,10.34,0,1,1-10.34-10.34,10.34,10.34,0,0,1,10.34,10.34"></path><polygon class="cls-20" points="10023.96 3124.17 9826.42 3124.17 9826.42 3007.55 9839.19 3007.55 9839.19 3111.4 10011.19 3111.4 10011.19 2994.55 9852.2 2994.55 9852.2 2981.77 10023.96 2981.77 10023.96 3124.17"></polygon><polygon class="cls-20" points="9925.19 3069.86 9854.99 3012.26 9860.77 3005.2 9925.19 3058.06 10011.42 2987.27 10017.21 2994.32 9925.19 3069.86"></polygon><path class="cls-20" d="M9843.15,2988.16a10.35,10.35,0,1,1-10.35-10.35,10.34,10.34,0,0,1,10.35,10.35"></path><path class="cls-7" d="M2514.1,2179.53a12.69,12.69,0,1,1-12.69-12.69,12.7,12.7,0,0,1,12.69,12.69"></path><path class="cls-7" d="M2623.86,2407.89a21.46,21.46,0,1,1,21.46-21.46,21.48,21.48,0,0,1-21.46,21.46m0-31.73a10.27,10.27,0,1,0,10.26,10.27,10.29,10.29,0,0,0-10.26-10.27"></path><path class="cls-7" d="M2715.35,2407.89a21.46,21.46,0,1,1,21.46-21.46,21.49,21.49,0,0,1-21.46,21.46m0-31.73a10.27,10.27,0,1,0,10.27,10.27,10.29,10.29,0,0,0-10.27-10.27"></path><path class="cls-7" d="M2751.1,2326.81H2598.49a7.84,7.84,0,0,1,0-15.67h139.84l15.62-75.68H2577.41a7.84,7.84,0,1,1,0-15.67h195.78Z"></path><polygon class="cls-7" points="2737.9 2359.83 2599.88 2359.83 2560.09 2187.37 2525.21 2187.37 2525.21 2171.7 2572.56 2171.7 2612.35 2344.16 2737.9 2344.16 2737.9 2359.83"></polygon><polygon class="cls-7" points="2734.31 2233.86 2688.36 2187.92 2657.85 2218.43 2646.77 2207.35 2688.36 2165.76 2745.39 2222.78 2734.31 2233.86"></polygon><polygon class="cls-7" points="2609.41 2231.28 2598.32 2220.2 2635.96 2182.56 2673.6 2220.2 2662.52 2231.28 2635.96 2204.72 2609.41 2231.28"></polygon><polygon class="cls-20" points="2564.97 1237.2 2367.44 1237.2 2367.44 1120.58 2380.21 1120.58 2380.21 1224.43 2552.2 1224.43 2552.2 1107.58 2393.22 1107.58 2393.22 1094.8 2564.97 1094.8 2564.97 1237.2"></polygon><polygon class="cls-20" points="2466.21 1182.89 2396 1125.29 2401.79 1118.23 2466.2 1171.09 2552.43 1100.3 2558.22 1107.35 2466.21 1182.89"></polygon><path class="cls-20" d="M2384.17,1101.19a10.35,10.35,0,1,1-10.35-10.35,10.35,10.35,0,0,1,10.35,10.35"></path><path class="cls-20" d="M2384.17,1101.19a10.35,10.35,0,1,1-10.35-10.35,10.35,10.35,0,0,1,10.35,10.35"></path><polygon class="cls-20" points="4197.11 8775.6 3999.57 8775.6 3999.57 8658.98 4012.34 8658.98 4012.34 8762.83 4184.34 8762.83 4184.34 8645.97 4025.35 8645.97 4025.35 8633.2 4197.11 8633.2 4197.11 8775.6"></polygon><polygon class="cls-20" points="4098.34 8721.29 4028.14 8663.68 4033.93 8656.63 4098.34 8709.49 4184.57 8638.69 4190.36 8645.75 4098.34 8721.29"></polygon><path class="cls-20" d="M4016.3,8639.58a10.35,10.35,0,1,1-10.34-10.34,10.34,10.34,0,0,1,10.34,10.34"></path><path class="cls-20" d="M4016.3,8639.58a10.35,10.35,0,1,1-10.34-10.34,10.34,10.34,0,0,1,10.34,10.34"></path><polygon class="cls-20" points="6899.55 8239.85 6702.01 8239.85 6702.01 8123.23 6714.79 8123.23 6714.79 8227.08 6886.78 8227.08 6886.78 8110.23 6727.8 8110.23 6727.8 8097.45 6899.55 8097.45 6899.55 8239.85"></polygon><polygon class="cls-20" points="6800.79 8185.54 6730.58 8127.94 6736.37 8120.89 6800.78 8173.74 6887.01 8102.94 6892.8 8110 6800.79 8185.54"></polygon><path class="cls-20" d="M6718.74,8103.84a10.34,10.34,0,1,1-10.34-10.35,10.34,10.34,0,0,1,10.34,10.35"></path><path class="cls-20" d="M6718.74,8103.84a10.34,10.34,0,1,1-10.34-10.35,10.34,10.34,0,0,1,10.34,10.35"></path><polygon class="cls-20" points="8666.81 7443.34 8469.27 7443.34 8469.27 7326.72 8482.04 7326.72 8482.04 7430.57 8654.04 7430.57 8654.04 7313.72 8495.05 7313.72 8495.05 7300.94 8666.81 7300.94 8666.81 7443.34"></polygon><polygon class="cls-20" points="8568.04 7389.03 8497.84 7331.43 8503.63 7324.38 8568.04 7377.23 8654.27 7306.44 8660.06 7313.49 8568.04 7389.03"></polygon><path class="cls-20" d="M8486,7307.33a10.35,10.35,0,1,1-10.34-10.35,10.34,10.34,0,0,1,10.34,10.35"></path><path class="cls-20" d="M8486,7307.33a10.35,10.35,0,1,1-10.34-10.35,10.34,10.34,0,0,1,10.34,10.35"></path><path class="cls-29" d="M9599.67,3763.76c-24.78,0-28-.11-37.9-.55-9.54-.44-17-1.88-24.22-4.69a53.21,53.21,0,0,1-30.43-30.42c-2.8-7.21-4.24-14.68-4.68-24.23-.45-9.84-.55-13.11-.55-37.9s.1-28,.55-37.89c.44-9.55,1.88-17,4.68-24.23l12.29,4.78c-2.26,5.81-3.43,12-3.8,20-.44,9.6-.54,12.8-.54,37.29s.1,27.7.54,37.3c.37,8.06,1.54,14.24,3.8,20.05a40.11,40.11,0,0,0,22.91,22.92c5.82,2.26,12,3.43,20.05,3.79,9.61.44,12.81.55,37.3.55s27.69-.11,37.3-.55c8.05-.36,14.24-1.53,20.05-3.79a40,40,0,0,0,22.91-22.92c2.26-5.81,3.43-12,3.8-20.05.44-9.61.54-12.81.54-37.3s-.1-27.68-.54-37.29c-.37-8.06-1.54-14.24-3.8-20a40,40,0,0,0-22.91-22.92c-5.81-2.26-12-3.43-20.05-3.79-9.61-.44-12.81-.55-37.3-.55s-27.69.11-37.3.55c-8.05.36-14.23,1.53-20.05,3.79l-4.77-12.29c7.2-2.8,14.68-4.24,24.22-4.68,9.85-.45,13.12-.55,37.9-.55s28,.1,37.9.55c9.55.44,17,1.88,24.22,4.68a53.26,53.26,0,0,1,30.43,30.43c2.8,7.21,4.25,14.68,4.68,24.23.45,9.85.56,13.12.56,37.89s-.11,28.05-.56,37.9c-.43,9.55-1.88,17-4.68,24.23a53.21,53.21,0,0,1-30.43,30.42c-7.2,2.81-14.67,4.25-24.22,4.69-9.85.44-13.12.55-37.9.55"></path><path class="cls-29" d="M9599.67,3626.77a39.21,39.21,0,1,1-39.2,39.2,39.25,39.25,0,0,1,39.2-39.2m0-9.42a48.63,48.63,0,1,0,48.62,48.62,48.62,48.62,0,0,0-48.62-48.62"></path><path class="cls-29" d="M9661.58,3615.43a11.37,11.37,0,1,1-11.37-11.36,11.36,11.36,0,0,1,11.37,11.36"></path><path class="cls-29" d="M9535.57,3591.19a10.68,10.68,0,1,1-10.68-10.68,10.68,10.68,0,0,1,10.68,10.68"></path><path class="cls-29" d="M2133,7321.42c-2.64,0-65-.05-81.54-4.49a32,32,0,0,1-22.59-22.6c-4.44-16.56-4.49-49.47-4.49-50.86,0-1.21,0-29.75,3.59-47l12.5,2.57c-3.29,16-3.32,44.17-3.32,44.45s.05,32.62,4.05,47.56a19.22,19.22,0,0,0,13.56,13.57c12.42,3.32,60.69,4,78.24,4s65.82-.73,78.23-4a19.22,19.22,0,0,0,13.57-13.57c4-14.94,4.05-47.24,4.05-47.56s-.05-32.62-4.05-47.56a19.22,19.22,0,0,0-13.56-13.57c-12.42-3.32-60.69-4.05-78.24-4.05-.56,0-56.14,0-75.39,3.44l-2.23-12.56c20.35-3.61,75.29-3.65,77.62-3.65,2.64,0,65,0,81.54,4.49a32,32,0,0,1,22.59,22.6c4.44,16.56,4.49,49.47,4.49,50.86s-.05,34.3-4.49,50.87a32,32,0,0,1-22.6,22.59c-16.56,4.44-78.89,4.49-81.53,4.49"></path><path class="cls-29" d="M2111.52,7282V7204.9l66.8,38.57Zm9.12-61.34v45.54l39.44-22.77Z"></path><path class="cls-29" d="M2108,7282v-77.13l66.8,38.57Zm9.12-61.34v45.55l39.45-22.77Z"></path><path class="cls-29" d="M2052.07,7182.44a10.34,10.34,0,1,1-10.34-10.34,10.34,10.34,0,0,1,10.34,10.34"></path><path class="cls-29" d="M7151.29,7105.9c-29.69,0-33.6-.13-45.41-.66-11.44-.53-20.39-2.26-29-5.61a63.76,63.76,0,0,1-36.46-36.46c-3.36-8.63-5.09-17.59-5.61-29-.54-11.8-.66-15.72-.66-45.41s.12-33.61.66-45.41c.52-11.44,2.25-20.39,5.61-29l14.72,5.72c-2.7,7-4.11,14.38-4.55,24-.52,11.51-.65,15.34-.65,44.69s.13,33.18.65,44.69c.44,9.65,1.85,17,4.55,24a48,48,0,0,0,27.46,27.45c7,2.71,14.37,4.11,24,4.55,11.51.53,15.35.65,44.69.65s33.18-.12,44.69-.65c9.65-.44,17.06-1.84,24-4.55a48,48,0,0,0,27.46-27.45c2.71-7,4.11-14.37,4.55-24,.52-11.52.65-15.35.65-44.69s-.13-33.18-.65-44.69c-.44-9.65-1.84-17.06-4.55-24a48,48,0,0,0-27.46-27.45c-7-2.71-14.37-4.11-24-4.55-11.51-.53-15.34-.65-44.69-.65s-33.18.12-44.69.65c-9.65.44-17.06,1.84-24,4.55l-5.72-14.73c8.63-3.35,17.58-5.08,29-5.6,11.8-.54,15.72-.67,45.41-.67s33.61.13,45.41.67c11.44.52,20.39,2.25,29,5.6a63.78,63.78,0,0,1,36.45,36.46c3.36,8.64,5.09,17.59,5.61,29,.54,11.8.67,15.72.67,45.41s-.13,33.6-.67,45.41c-.52,11.43-2.25,20.39-5.61,29a63.78,63.78,0,0,1-36.45,36.46c-8.64,3.35-17.59,5.08-29,5.61-11.8.53-15.72.66-45.41.66"></path><path class="cls-29" d="M7151.29,6941.76a47,47,0,1,1-47,47,47,47,0,0,1,47-47m0-11.28a58.26,58.26,0,1,0,58.26,58.26,58.26,58.26,0,0,0-58.26-58.26"></path><path class="cls-29" d="M7225.46,6928.18a13.61,13.61,0,1,1-13.61-13.62,13.61,13.61,0,0,1,13.61,13.62"></path><path class="cls-29" d="M7074.48,6899.13a12.8,12.8,0,1,1-12.79-12.79,12.8,12.8,0,0,1,12.79,12.79"></path><path class="cls-6" d="M6910.31,5746.18l-6.68-6a169,169,0,0,0-225.77-.14l-6.7,6-12-13.39,6.69-6a186.83,186.83,0,0,1,249.79.16l6.69,6Z"></path><path class="cls-6" d="M6692.08,5462.8a20.39,20.39,0,1,1-20.39-20.39,20.38,20.38,0,0,1,20.39,20.39"></path><path class="cls-6" d="M6790.66,5791.38c-105.12,0-190.64-85.51-190.64-190.63a190,190,0,0,1,30-102.66l6.79-10.6,21.2,13.57-6.79,10.6a164.86,164.86,0,0,0-26,89.09c0,91.24,74.23,165.47,165.47,165.47s165.46-74.23,165.46-165.47-74.22-165.46-165.46-165.46a164.15,164.15,0,0,0-68.21,14.66l-11.46,5.19-10.39-22.92,11.47-5.2a189.26,189.26,0,0,1,78.59-16.9c105.12,0,190.63,85.52,190.63,190.63s-85.51,190.63-190.63,190.63"></path><path class="cls-6" d="M6790.66,5522.6a186,186,0,0,1-68.09-12.79c-9.5-3.71-26.41-12.85-27.12-13.24l8.56-15.8c.16.08,16.64,9,25.11,12.3a169.27,169.27,0,0,0,174.34-31.59l12,13.38a186.68,186.68,0,0,1-124.8,47.74"></path><path class="cls-6" d="M6790.65,5789.65c-43.07,0-79.56-49.9-93-127.14a9,9,0,0,1,8.86-10.52h168.21a9,9,0,0,1,8.86,10.52c-13.4,77.24-49.89,127.14-93,127.14M6717.43,5670c12.33,58.26,40.09,98.76,69.92,101.56a9,9,0,0,1-5.68-8.36V5670Zm82.21,0v93.2a9,9,0,0,1-5.68,8.36c29.83-2.8,57.59-43.3,69.92-101.56Z"></path><path class="cls-6" d="M6874.45,5551.38H6706.86a9,9,0,0,1-8.85-10.58c13.67-76.07,50-125.23,92.64-125.23s79,49.16,92.65,125.23a9,9,0,0,1-8.85,10.58m-74.81-18h63.86c-11.72-53.48-36.61-91.69-63.86-98.69Zm-81.82,0h63.85v-98.69c-27.25,7-52.15,45.21-63.85,98.69"></path><polygon class="cls-6" points="6657.59 5572.46 6670.54 5572.46 6682.44 5613.8 6682.62 5613.8 6693.58 5572.46 6706.35 5572.46 6717.14 5613.71 6717.4 5613.71 6729.31 5572.46 6742.25 5572.46 6722.92 5633.73 6711.7 5633.73 6700.14 5590.15 6699.96 5590.15 6688.14 5633.73 6676.92 5633.73 6657.59 5572.46"></polygon><polygon class="cls-6" points="6748.33 5572.46 6761.27 5572.46 6773.18 5613.8 6773.35 5613.8 6784.32 5572.46 6797.09 5572.46 6807.88 5613.71 6808.13 5613.71 6820.05 5572.46 6832.99 5572.46 6813.66 5633.73 6802.44 5633.73 6790.88 5590.15 6790.7 5590.15 6778.88 5633.73 6767.66 5633.73 6748.33 5572.46"></polygon><polygon class="cls-6" points="6839.07 5572.46 6852.01 5572.46 6863.92 5613.8 6864.1 5613.8 6875.05 5572.46 6887.83 5572.46 6898.62 5613.71 6898.88 5613.71 6910.79 5572.46 6923.73 5572.46 6904.4 5633.73 6893.18 5633.73 6881.61 5590.15 6881.44 5590.15 6869.62 5633.73 6858.4 5633.73 6839.07 5572.46"></polygon><rect class="cls-6" x="6617.45" y="5533.4" width="347.81" height="17.98"></rect><rect class="cls-6" x="6617.45" y="5651.99" width="347.81" height="17.98"></rect><path class="cls-7" d="M2401.57,7989.44l-3.77-3.39a95.46,95.46,0,0,0-127.51-.08l-3.78,3.39-6.78-7.56,3.78-3.39a105.51,105.51,0,0,1,141.07.09l3.78,3.39Z"></path><path class="cls-7" d="M2278.32,7829.4a11.52,11.52,0,1,1-11.51-11.51,11.51,11.51,0,0,1,11.51,11.51"></path><path class="cls-7" d="M2334,8015a107.69,107.69,0,0,1-90.73-165.65l3.83-6,12,7.66-3.83,6a93.29,93.29,0,1,0,40.24-34.86l-6.47,2.94-5.87-12.95,6.48-2.93a106.71,106.71,0,0,1,44.38-9.55,107.67,107.67,0,1,1,0,215.33"></path><path class="cls-7" d="M2334,7863.17a105.16,105.16,0,0,1-38.45-7.22c-5.37-2.1-14.91-7.26-15.32-7.47l4.84-8.93c.09.05,9.4,5.08,14.18,6.95a95.6,95.6,0,0,0,98.46-17.85l6.78,7.56a105.41,105.41,0,0,1-70.49,27"></path><path class="cls-7" d="M2334,8014c-24.33,0-44.93-28.19-52.5-71.81a5.07,5.07,0,0,1,5-5.94h95a5.08,5.08,0,0,1,5,5.94c-7.57,43.62-28.18,71.81-52.51,71.81m-41.35-67.6c7,32.9,22.64,55.77,39.49,57.36a5.09,5.09,0,0,1-3.21-4.73V7946.4Zm46.43,0V7999a5.09,5.09,0,0,1-3.21,4.73c16.85-1.59,32.52-24.46,39.49-57.36Z"></path><path class="cls-7" d="M2381.32,7879.43h-94.65a5.09,5.09,0,0,1-5-6c7.72-43,28.26-70.72,52.32-70.72s44.6,27.76,52.32,70.72a5.08,5.08,0,0,1-5,6m-42.25-10.15h36.06c-6.61-30.21-20.67-51.79-36.06-55.75Zm-46.21,0h36.06v-55.75c-15.39,4-29.45,25.54-36.06,55.75"></path><polygon class="cls-7" points="2258.84 7891.33 2266.15 7891.33 2272.88 7914.68 2272.98 7914.68 2279.17 7891.33 2286.38 7891.33 2292.47 7914.63 2292.62 7914.63 2299.35 7891.33 2306.66 7891.33 2295.74 7925.94 2289.4 7925.94 2282.87 7901.32 2282.77 7901.32 2276.1 7925.94 2269.76 7925.94 2258.84 7891.33"></polygon><polygon class="cls-7" points="2310.09 7891.33 2317.4 7891.33 2324.13 7914.68 2324.22 7914.68 2330.41 7891.33 2337.63 7891.33 2343.72 7914.63 2343.86 7914.63 2350.59 7891.33 2357.9 7891.33 2346.98 7925.94 2340.65 7925.94 2334.12 7901.32 2334.02 7901.32 2327.34 7925.94 2321.01 7925.94 2310.09 7891.33"></polygon><polygon class="cls-7" points="2361.33 7891.33 2368.64 7891.33 2375.37 7914.68 2375.47 7914.68 2381.66 7891.33 2388.87 7891.33 2394.97 7914.63 2395.11 7914.63 2401.84 7891.33 2409.15 7891.33 2398.23 7925.94 2391.9 7925.94 2385.36 7901.32 2385.27 7901.32 2378.59 7925.94 2372.25 7925.94 2361.33 7891.33"></polygon><rect class="cls-7" x="2236.17" y="7869.27" width="196.43" height="10.15"></rect><rect class="cls-7" x="2236.17" y="7936.25" width="196.43" height="10.15"></rect><path class="cls-7" d="M5716.06,1990.89l-4.63-4.16a117,117,0,0,0-156.29-.1l-4.63,4.16-8.31-9.27,4.64-4.15a129.32,129.32,0,0,1,172.91.11l4.62,4.16Z"></path><path class="cls-7" d="M5565,1794.73a14.11,14.11,0,1,1-14.11-14.11,14.11,14.11,0,0,1,14.11,14.11"></path><path class="cls-7" d="M5633.23,2022.19c-72.76,0-132-59.2-132-132a131.49,131.49,0,0,1,20.75-71.06l4.7-7.34,14.67,9.4-4.7,7.33a114.39,114.39,0,1,0,49.33-42.72l-7.94,3.6-7.19-15.87,7.94-3.6a131,131,0,0,1,54.4-11.7c72.76,0,132,59.2,132,132s-59.2,132-132,132"></path><path class="cls-7" d="M5633.23,1836.12a128.67,128.67,0,0,1-47.13-8.85c-6.58-2.57-18.28-8.89-18.78-9.16l5.93-10.94c.11.06,11.52,6.22,17.38,8.52a117.17,117.17,0,0,0,120.68-21.88l8.31,9.27a129.21,129.21,0,0,1-86.39,33"></path><path class="cls-7" d="M5633.23,2021c-29.82,0-55.08-34.55-64.36-88a6.23,6.23,0,0,1,6.14-7.29h116.44a6.23,6.23,0,0,1,6.13,7.29c-9.28,53.46-34.54,88-64.35,88m-50.69-82.85c8.53,40.32,27.75,68.35,48.4,70.29a6.21,6.21,0,0,1-3.94-5.78v-64.51Zm56.91,0v64.51a6.21,6.21,0,0,1-3.93,5.78c20.65-1.94,39.86-30,48.4-70.29Z"></path><path class="cls-7" d="M5691.23,1856.05h-116a6.22,6.22,0,0,1-6.12-7.32c9.46-52.67,34.63-86.69,64.13-86.69s54.66,34,64.13,86.68a6.24,6.24,0,0,1-6.13,7.33m-51.78-12.45h44.2c-8.11-37-25.34-63.47-44.2-68.32Zm-56.64,0H5627v-68.32c-18.86,4.85-36.09,31.3-44.19,68.32"></path><polygon class="cls-7" points="5541.11 1870.64 5550.08 1870.64 5558.32 1899.25 5558.44 1899.25 5566.03 1870.64 5574.87 1870.64 5582.34 1899.19 5582.52 1899.19 5590.76 1870.64 5599.72 1870.64 5586.34 1913.06 5578.57 1913.06 5570.57 1882.89 5570.45 1882.89 5562.26 1913.06 5554.5 1913.06 5541.11 1870.64"></polygon><polygon class="cls-7" points="5603.93 1870.64 5612.89 1870.64 5621.13 1899.25 5621.25 1899.25 5628.84 1870.64 5637.68 1870.64 5645.15 1899.19 5645.33 1899.19 5653.57 1870.64 5662.53 1870.64 5649.15 1913.06 5641.39 1913.06 5633.38 1882.89 5633.26 1882.89 5625.07 1913.06 5617.31 1913.06 5603.93 1870.64"></polygon><polygon class="cls-7" points="5666.74 1870.64 5675.7 1870.64 5683.94 1899.25 5684.06 1899.25 5691.65 1870.64 5700.49 1870.64 5707.96 1899.19 5708.14 1899.19 5716.39 1870.64 5725.35 1870.64 5711.96 1913.06 5704.2 1913.06 5696.19 1882.89 5696.07 1882.89 5687.89 1913.06 5680.12 1913.06 5666.74 1870.64"></polygon><rect class="cls-7" x="5513.33" y="1843.6" width="240.77" height="12.45"></rect><rect class="cls-7" x="5513.33" y="1925.69" width="240.77" height="12.45"></rect><path class="cls-7" d="M9542.9,1831.9l-3.78-3.39a95.45,95.45,0,0,0-127.5-.08l-3.78,3.38-6.78-7.55,3.78-3.39a105.51,105.51,0,0,1,141.07.09l3.78,3.39Z"></path><path class="cls-7" d="M9419.65,1671.86a11.52,11.52,0,1,1-11.52-11.52,11.52,11.52,0,0,1,11.52,11.52"></path><path class="cls-7" d="M9475.32,1857.43a107.68,107.68,0,0,1-90.73-165.64l3.83-6,12,7.67-3.83,6a93.31,93.31,0,1,0,40.24-34.85l-6.47,2.93-5.87-12.94,6.48-2.94a107.67,107.67,0,1,1,44.38,205.78"></path><path class="cls-7" d="M9475.32,1705.63a105.16,105.16,0,0,1-38.45-7.22c-5.37-2.1-14.91-7.26-15.32-7.48l4.84-8.93c.09,0,9.4,5.08,14.18,7a95.55,95.55,0,0,0,98.46-17.84l6.78,7.56a105.48,105.48,0,0,1-70.49,27"></path><path class="cls-7" d="M9475.32,1856.45c-24.33,0-44.94-28.18-52.5-71.8a5.07,5.07,0,0,1,5-6h95a5.07,5.07,0,0,1,5,6c-7.56,43.62-28.17,71.8-52.5,71.8M9434,1788.86c7,32.9,22.65,55.77,39.49,57.35a5.06,5.06,0,0,1-3.2-4.72v-52.63Zm46.44,0v52.63a5.07,5.07,0,0,1-3.21,4.72c16.85-1.58,32.52-24.45,39.49-57.35Z"></path><path class="cls-7" d="M9522.64,1721.89H9428a5.08,5.08,0,0,1-5-6c7.72-43,28.26-70.72,52.32-70.72s44.6,27.76,52.32,70.72a5.08,5.08,0,0,1-5,6m-42.24-10.16h36.06c-6.61-30.2-20.67-51.78-36.06-55.74Zm-46.22,0h36.07V1656c-15.4,4-29.45,25.54-36.07,55.74"></path><polygon class="cls-7" points="9400.17 1733.79 9407.48 1733.79 9414.21 1757.13 9414.31 1757.13 9420.49 1733.79 9427.71 1733.79 9433.8 1757.09 9433.95 1757.09 9440.67 1733.79 9447.98 1733.79 9437.07 1768.39 9430.73 1768.39 9424.2 1743.78 9424.1 1743.78 9417.42 1768.39 9411.09 1768.39 9400.17 1733.79"></polygon><polygon class="cls-7" points="9451.42 1733.79 9458.73 1733.79 9465.45 1757.13 9465.55 1757.13 9471.74 1733.79 9478.95 1733.79 9485.05 1757.09 9485.19 1757.09 9491.92 1733.79 9499.23 1733.79 9488.31 1768.39 9481.98 1768.39 9475.44 1743.78 9475.35 1743.78 9468.67 1768.39 9462.33 1768.39 9451.42 1733.79"></polygon><polygon class="cls-7" points="9502.66 1733.79 9509.97 1733.79 9516.7 1757.13 9516.8 1757.13 9522.99 1733.79 9530.2 1733.79 9536.29 1757.09 9536.44 1757.09 9543.17 1733.79 9550.48 1733.79 9539.56 1768.39 9533.22 1768.39 9526.69 1743.78 9526.59 1743.78 9519.92 1768.39 9513.58 1768.39 9502.66 1733.79"></polygon><rect class="cls-7" x="9377.5" y="1711.73" width="196.43" height="10.15"></rect><rect class="cls-7" x="9377.5" y="1778.7" width="196.43" height="10.15"></rect><path class="cls-28" d="M5372.33,3979.61c0-147.38-119.47-266.86-266.85-266.86s-266.85,119.48-266.85,266.86,119.48,266.85,266.85,266.85,266.85-119.48,266.85-266.85"></path><path class="cls-6" d="M5075.57,3829.46a19.13,19.13,0,1,1-38.25,0c0-10.56,11.72-19.12,19.12-19.12a19.12,19.12,0,0,1,19.13,19.12"></path><path class="cls-6" d="M5106.39,3975.09c-45.52,0-88.28-39.6-88.28-88.28a87.63,87.63,0,0,1,7.38-35.39l21.63,9.47a64.09,64.09,0,0,0-5.4,25.92,64.58,64.58,0,1,0,47.14-62.27l-6.4-22.73a88.29,88.29,0,1,1,23.93,173.28"></path><path class="cls-6" d="M5239.55,4133.75h-264l-1.18-11.81c0-72.77,59.2-132,132-132s132,59.21,132,132Zm-240.89-23.61h215.46a108.37,108.37,0,0,0-215.46,0"></path><path class="cls-7" d="M4428.93,7279.62a206.14,206.14,0,0,0-80,16.17c-105.33,44.21-154.87,165.44-110.66,270.76a206.63,206.63,0,0,0,270.76,110.66c105.33-44.21,154.88-165.43,110.67-270.76a206.9,206.9,0,0,0-190.8-126.83m0,16.59a190.47,190.47,0,1,1-73.55,14.88,190.28,190.28,0,0,1,73.55-14.88"></path><path class="cls-29" d="M8663,2827a195.36,195.36,0,0,1,189.93,149.73,195.56,195.56,0,0,1-144.22,236,195.36,195.36,0,0,1-236-144.22,195.58,195.58,0,0,1,144.22-236A196.36,196.36,0,0,1,8663,2827h0m0-16.59a212.66,212.66,0,0,0-50,6c-113.9,27.49-184,142.12-156.46,256,23.46,97.18,110.33,162.43,206.07,162.43a212.51,212.51,0,0,0,50-6c113.91-27.49,184-142.12,156.46-256-23.45-97.18-110.32-162.44-206.06-162.43"></path></svg> 