<?xml version="1.0" encoding="UTF-8"?> <!-- Generator: Adobe Illustrator 24.0.3, SVG Export Plug-In . SVG Version: 6.00 Build 0) --> <svg xmlns="http://www.w3.org/2000/svg" xmlns:xlink="http://www.w3.org/1999/xlink" id="Layer_1" x="0px" y="0px" viewBox="0 0 468.7 440.2" style="enable-background:new 0 0 468.7 440.2;" xml:space="preserve"> <style type="text/css"> .st0{opacity:0.71;} .st1{fill:none;stroke:#FFFFFF;stroke-width:3.1528;stroke-miterlimit:10;} .st2{opacity:0.81;} .st3{fill:#1494A5;} .st4{fill:#FFA500;} </style> <g> <g> <g class="st0"> <path class="st1" d="M105.8,319.7"></path> </g> <g class="st0"> <path class="st1" d="M158.9,289.2"></path> </g> <g class="st2"> <path class="st1" d="M140.4,275"></path> </g> <g class="st2"> <path class="st1" d="M100.9,314"></path> </g> <g class="st0"> <path class="st1" d="M418.2,288.6"></path> </g> <g class="st0"> <path class="st1" d="M464.8,324.3"></path> </g> <g class="st0"> <path class="st1" d="M16.6,172.1"></path> </g> <g class="st2"> <path class="st1" d="M14.7,172.2"></path> </g> <g class="st2"> <path class="st1" d="M82.7,177.7"></path> </g> <g class="st2"> <path class="st1" d="M140.7,235.3"></path> </g> <g class="st2"> <path class="st1" d="M277.5,270.9"></path> </g> <g class="st2"> <path class="st1" d="M326.4,319"></path> </g> <g class="st0"> <path class="st1" d="M350.9,156.4"></path> </g> <g class="st0"> <path class="st1" d="M272.5,215.4"></path> </g> <g class="st0"> <path class="st1" d="M275,285.9"></path> </g> <g class="st0"> <path class="st1" d="M325.2,326.3"></path> </g> <g class="st0"> <path class="st1" d="M457.6,298.6"></path> </g> <g class="st0"> <path class="st1" d="M416.1,330.2"></path> </g> <g class="st2"> <path class="st1" d="M357.1,164"></path> </g> <g class="st2"> <path class="st1" d="M279.1,241.1"></path> </g> <g class="st2"> <path class="st1" d="M454.3,284.4"></path> </g> <g class="st2"> <path class="st1" d="M414.8,323.5"></path> </g> <g> <path class="st3" d="M176,90.3c-0.1-2,1.4-3.8,3.5-3.9l0,0c2-0.1,3.8,1.4,3.9,3.5l0,0c0.1,2-1.5,3.8-3.5,3.9l0,0l0,0l0,0 c-0.1,0-0.1,0-0.2,0l0,0C177.8,93.7,176.1,92.2,176,90.3z M162.8,91.5c-1.9-0.6-3-2.7-2.4-4.6l0,0c0.6-1.9,2.7-3,4.6-2.4l0,0 c1.9,0.6,3,2.7,2.4,4.6l0,0c-0.5,1.6-2,2.5-3.5,2.5l0,0C163.5,91.7,163.1,91.6,162.8,91.5z M191.8,87.8c-0.8-1.9,0-4,1.8-4.9l0,0 c1.8-0.8,4,0,4.9,1.8l0,0c0.8,1.8,0,4-1.8,4.9l0,0c-0.5,0.2-1,0.3-1.5,0.3l0,0C193.8,90,192.5,89.1,191.8,87.8z M147.6,83.2 c-1.6-1.3-1.8-3.6-0.5-5.2l0,0c1.3-1.6,3.6-1.8,5.2-0.5l0,0c1.6,1.3,1.8,3.6,0.5,5.2l0,0c-0.7,0.9-1.8,1.3-2.8,1.3l0,0 C149.1,84.1,148.3,83.8,147.6,83.2z M205.7,79.8c-1.4-1.4-1.5-3.8,0-5.2l0,0c1.4-1.5,3.8-1.5,5.2,0l0,0c1.4,1.4,1.5,3.8,0,5.2 l0,0c-0.7,0.7-1.7,1.1-2.6,1.1l0,0C207.3,80.8,206.4,80.5,205.7,79.8z M136.4,70c-1-1.8-0.4-4,1.4-5l0,0c1.8-1,4-0.4,5,1.4l0,0 c1,1.8,0.4,4-1.4,5l0,0c-0.6,0.3-1.2,0.5-1.8,0.5l0,0C138.3,71.9,137.1,71.2,136.4,70z M215.7,67.3c-1.9-0.8-2.7-3-1.9-4.8l0,0 c0.8-1.9,3-2.7,4.8-1.9l0,0c1.9,0.8,2.7,3,1.9,4.8l0,0c-0.6,1.4-2,2.2-3.4,2.2l0,0C216.7,67.6,216.2,67.5,215.7,67.3z M130.7,53.7c-0.3-2,1.1-3.9,3.1-4.2l0,0c2-0.3,3.9,1.1,4.2,3.1l0,0c0.3,2-1.1,3.9-3.1,4.2l0,0c-0.2,0-0.4,0-0.5,0l0,0 C132.6,56.8,131,55.5,130.7,53.7z M220.5,52c-2-0.1-3.6-1.8-3.5-3.8l0,0c0.1-2,1.8-3.6,3.8-3.5l0,0c2,0.1,3.6,1.8,3.5,3.8l0,0 c-0.1,2-1.7,3.5-3.7,3.5l0,0C220.6,52,220.6,52,220.5,52z M134.2,40.8c-2-0.4-3.2-2.4-2.8-4.4l0,0l0,0l0,0c0.4-2,2.4-3.2,4.4-2.8 l0,0c2,0.4,3.2,2.4,2.8,4.4l0,0c-0.4,1.7-1.9,2.9-3.6,2.9l0,0C134.7,40.9,134.4,40.9,134.2,40.8z M214.9,33.8 c-0.7-1.9,0.4-4,2.3-4.7l0,0c1.9-0.7,4,0.4,4.7,2.3l0,0c0.7,1.9-0.4,4-2.3,4.7l0,0c-0.4,0.1-0.8,0.2-1.2,0.2l0,0 C216.8,36.3,215.4,35.3,214.9,33.8z M139.2,25.6c-1.7-1.1-2.1-3.4-1-5.1l0,0c0,0,0,0,0,0l0,0c1.1-1.7,3.4-2.1,5.1-1l0,0 c1.7,1.1,2.1,3.4,1,5.1l0,0c-0.7,1.1-1.9,1.6-3.1,1.6l0,0C140.5,26.3,139.8,26.1,139.2,25.6z M207.7,21.1L207.7,21.1 c-1.3-1.5-1.1-3.9,0.4-5.2l0,0c1.5-1.3,3.9-1.1,5.2,0.4l0,0l0,0l0,0c1.3,1.6,1.1,3.9-0.4,5.2l0,0c-0.7,0.6-1.5,0.9-2.4,0.9l0,0 C209.4,22.4,208.4,22,207.7,21.1z M149.4,13.3c-1.2-1.7-0.8-4,0.9-5.1l0,0l0,0l0,0c1.7-1.2,4-0.8,5.1,0.9l0,0 c1.2,1.7,0.8,4-0.9,5.1v0c-0.7,0.5-1.4,0.7-2.1,0.7l0,0C151.2,14.9,150.1,14.3,149.4,13.3z M196.4,11.9c-1.8-1-2.4-3.2-1.5-5l0,0 c1-1.8,3.2-2.4,5-1.5l0,0l0,0l0,0c1.8,1,2.4,3.2,1.5,5l0,0c-0.7,1.2-1.9,1.9-3.2,1.9l0,0C197.5,12.3,196.9,12.2,196.4,11.9z M163.3,5.5c-0.5-2,0.7-4,2.7-4.5l0,0c0,0,0,0,0,0l0,0c2-0.5,4,0.7,4.5,2.7l0,0c0.5,2-0.7,4-2.7,4.5l0,0 c-0.3,0.1-0.6,0.1-0.9,0.1l0,0C165.2,8.3,163.7,7.1,163.3,5.5z M182.5,7.3C182.5,7.3,182.4,7.3,182.5,7.3L182.5,7.3 c-0.1,0-0.1,0-0.2,0l0,0c-2-0.3-3.4-2.1-3.2-4.1l0,0c0.3-2,2.1-3.4,4.1-3.2l0,0c0,0,0.1,0,0.1,0l0,0c0,0,0,0,0.1,0l0,0l0,0l0,0 c2,0.3,3.4,2.1,3.2,4.1l0,0c-0.2,1.8-1.8,3.2-3.6,3.2l0,0C182.8,7.4,182.7,7.4,182.5,7.3z"></path> </g> <g> <path class="st3" d="M389.9,160.9l-0.2-5.3c3.4-0.1,6.8-0.6,10-1.5l1.4,5.1C397.5,160.2,393.7,160.8,389.9,160.9z M381.8,160.4 c-3.8-0.5-7.5-1.6-11.1-3l2-4.9c3.1,1.3,6.4,2.2,9.8,2.7L381.8,160.4z M408.7,156.3l-2.3-4.7c3.1-1.5,5.9-3.3,8.5-5.5l3.4,4 C415.4,152.6,412.1,154.7,408.7,156.3z M363.6,153.8c-2.8-1.7-5.3-3.8-7.7-6.1c-0.4-0.4-0.8-0.8-1.2-1.2l3.8-3.6 c0.3,0.4,0.7,0.7,1,1c2.1,2,4.4,3.9,6.8,5.4L363.6,153.8z M424,144.5l-4-3.4c2.2-2.6,4.1-5.5,5.6-8.5l4.7,2.3 C428.6,138.4,426.5,141.6,424,144.5z M349.8,140.2c-2.1-3.2-3.9-6.6-5.2-10.2l4.9-1.8c1.1,3.2,2.7,6.3,4.6,9.1L349.8,140.2z M433.2,127.4l-5-1.5c1-3.3,1.5-6.6,1.6-10l5.2,0.2C434.9,120,434.3,123.8,433.2,127.4z M342.6,122.3c-0.5-2.6-0.7-5.3-0.7-8 c0-1.2,0-2.3,0.1-3.5l5.2,0.4c-0.1,1-0.1,2.1-0.1,3.1c0,2.4,0.2,4.7,0.6,7.1L342.6,122.3z M429.5,108.8c-0.4-3.4-1.3-6.7-2.6-9.8 l4.9-1.9c1.4,3.6,2.4,7.3,2.9,11.1L429.5,108.8z M348.4,104.2l-5.1-1.3c0.9-3.7,2.3-7.3,4.1-10.7l4.6,2.5 C350.4,97.7,349.2,100.9,348.4,104.2z M423.7,92.6c-1.8-2.9-3.9-5.5-6.4-7.9l-0.1-0.1l3.7-3.8l0.1,0.1c2.8,2.7,5.2,5.7,7.2,8.9 L423.7,92.6z M356,88.7l-4.1-3.3c1-1.3,2.1-2.6,3.3-3.7c1.5-1.5,3.1-3,4.8-4.3l3.2,4.2c-1.5,1.2-3,2.5-4.3,3.8 C357.9,86.5,356.9,87.6,356,88.7z M411.8,80.1c-2.8-1.9-5.8-3.5-9-4.6l1.8-4.9c3.6,1.3,7,3.1,10.2,5.2L411.8,80.1z M369.2,77.7 l-2.5-4.6c3.4-1.8,7-3.2,10.7-4.1l1.2,5.1C375.4,74.9,372.2,76.1,369.2,77.7z M395.9,73.6c-3.3-0.6-6.8-0.8-10.2-0.6l-0.4-5.2 c3.8-0.3,7.7,0,11.4,0.6L395.9,73.6z"></path> </g> <g> <g> <path class="st3" d="M388.8,114.1c-8,0-14.6-6.5-14.6-14.6c0-1.5,0.2-3,0.7-4.4l4,1.2c-0.3,1-0.5,2.1-0.5,3.1 c0,5.8,4.7,10.4,10.4,10.4c5.8,0,10.4-4.7,10.4-10.4c0-5.8-4.7-10.4-10.4-10.4c-0.8,0-1.6,0.1-2.4,0.3l-1-4 c1.1-0.3,2.2-0.4,3.4-0.4c8,0,14.6,6.5,14.6,14.6S396.9,114.1,388.8,114.1"></path> </g> <g> <path class="st3" d="M410.5,140h-43.5V138c0-12,9.7-21.7,21.7-21.7c12,0,21.7,9.7,21.7,21.7V140z M371.4,135.9h34.9 c-1-8.7-8.5-15.5-17.5-15.5C379.8,120.4,372.4,127.2,371.4,135.9"></path> </g> <g> <path class="st3" d="M380.3,87c1.9,0,3.4,1.5,3.4,3.4c0,1.9-1.5,3.4-3.4,3.4c-1.9,0-3.4-1.5-3.4-3.4 C376.9,88.5,378.4,87,380.3,87"></path> </g> </g> <g> <g> <path class="st3" d="M55.8,339.9c-8,0-14.6-6.5-14.6-14.6c0-1.5,0.2-3,0.7-4.4l4,1.2c-0.3,1-0.5,2.1-0.5,3.1 c0,5.8,4.7,10.4,10.4,10.4c5.8,0,10.4-4.7,10.4-10.4c0-5.8-4.7-10.4-10.4-10.4c-0.8,0-1.6,0.1-2.4,0.3l-1-4 c1.1-0.3,2.2-0.4,3.4-0.4c8,0,14.6,6.5,14.6,14.6C70.4,333.4,63.8,339.9,55.8,339.9"></path> </g> <g> <path class="st3" d="M77.5,365.8H34.1v-2.1c0-12,9.7-21.7,21.7-21.7c12,0,21.7,9.7,21.7,21.7V365.8z M38.3,361.7h34.9 c-1-8.7-8.5-15.5-17.5-15.5C46.8,346.2,39.4,353,38.3,361.7"></path> </g> <g> <path class="st3" d="M47.3,312.8c1.9,0,3.4,1.5,3.4,3.4c0,1.9-1.5,3.4-3.4,3.4c-1.9,0-3.4-1.5-3.4-3.4 C43.9,314.3,45.4,312.8,47.3,312.8"></path> </g> </g> <g> <path class="st3" d="M431.4,283.1l-0.2-5.2c3.2-0.1,6.4-0.8,9.4-1.8l1.7,5C438.8,282.3,435.1,283,431.4,283.1z M423.7,282.7 c-3.7-0.6-7.2-1.6-10.6-3.2l2.2-4.8c2.9,1.4,6,2.3,9.2,2.8L423.7,282.7z M449.3,277.8l-2.7-4.5c2.4-1.4,4.5-3.1,6.5-5 c0.3-0.3,0.7-0.7,1-1l3.8,3.6c-0.4,0.4-0.7,0.8-1.1,1.1C454.6,274.3,452,276.2,449.3,277.8z M406.4,275.5 c-1.7-1.3-3.3-2.7-4.8-4.2c-1.1-1.1-2.1-2.3-3.1-3.6l4.2-3.2c0.8,1.1,1.7,2.1,2.7,3.1c1.3,1.3,2.7,2.5,4.1,3.6L406.4,275.5z M462.7,264.8l-4.5-2.8c1.7-2.7,3-5.7,3.9-8.8l5.1,1.4C466.2,258.2,464.7,261.6,462.7,264.8z M394.4,261.2 c-1.6-3.3-2.8-6.9-3.4-10.5l5.2-0.9c0.5,3.2,1.5,6.2,2.9,9.1L394.4,261.2z M468.5,247l-5.2-0.4c0.1-0.8,0.1-1.7,0.1-2.5 c0-2.4-0.2-4.7-0.7-7l5.1-1.1c0.6,2.7,0.8,5.4,0.8,8.1C468.7,245.1,468.6,246,468.5,247z M395.8,243.1l-5.3-0.2 c0.1-3.7,0.8-7.4,1.9-10.9l5,1.6C396.4,236.7,395.9,239.8,395.8,243.1z M460.6,230.7c-1.3-2.9-3-5.7-5-8.2l4-3.4 c2.4,2.9,4.3,6,5.8,9.4L460.6,230.7z M400.1,227.5l-4.6-2.6c1.8-3.2,4.1-6.2,6.8-8.8l0.1-0.1l3.6,3.8 C403.6,222.1,401.7,224.7,400.1,227.5z M450.8,217.8c-2.5-2-5.3-3.7-8.2-4.9l2-4.9c3.4,1.4,6.6,3.3,9.5,5.7L450.8,217.8z M411.3,215.6l-2.8-4.4c3.1-2,6.5-3.6,10.1-4.6l1.5,5C416.9,212.6,414,213.9,411.3,215.6z M436.2,210.9c-3.1-0.6-6.4-0.8-9.6-0.5 l-0.5-5.2c3.7-0.3,7.4-0.1,11,0.6L436.2,210.9z"></path> </g> <g> <g> <path class="st3" d="M321.1,440.2l-0.3-9.5c1.3,0,2.5-0.1,3.8-0.3l0.1,0l1.2,9.4l-0.1,0c0,0-0.1,0-0.1,0 C324.2,440,322.6,440.1,321.1,440.2z M313.1,439.8c-1.5-0.2-3-0.4-4.5-0.7l1.8-9.3c1.2,0.2,2.5,0.4,3.8,0.6L313.1,439.8z M333.8,438.3l-2.4-9.1c1.2-0.3,2.5-0.7,3.7-1.1l3.2,8.9C336.7,437.5,335.2,437.9,333.8,438.3z M300.8,437.1 c-1.4-0.5-2.9-1.1-4.3-1.7l3.8-8.6c1.2,0.5,2.4,1,3.5,1.4L300.8,437.1z M345.5,433.8l-4.4-8.4c1.1-0.6,2.2-1.2,3.3-1.9l5.1,8 C348.2,432.3,346.9,433,345.5,433.8z M289.4,431.6c-1.3-0.8-2.6-1.7-3.8-2.6l5.7-7.6c1,0.8,2.1,1.5,3.2,2.2L289.4,431.6z M355.9,426.7l-6.2-7.2c1-0.8,1.9-1.7,2.8-2.6l6.7,6.7C358.2,424.6,357.1,425.7,355.9,426.7z M279.6,423.7 c-1.1-1.1-2.1-2.2-3.1-3.4l7.2-6.1c0.8,1,1.7,1.9,2.6,2.8L279.6,423.7z M364.5,417.5l-7.6-5.6c0.8-1,1.5-2.1,2.2-3.2l8,5 C366.3,415,365.4,416.3,364.5,417.5z M271.7,413.9c-0.8-1.3-1.6-2.6-2.3-4l8.4-4.4c0.6,1.1,1.2,2.2,1.9,3.3L271.7,413.9z M370.9,406.6l-8.7-3.8c0.5-1.2,1-2.4,1.4-3.6l8.9,3.1C372,403.8,371.5,405.2,370.9,406.6z M266.2,402.6c-0.5-1.4-1-2.9-1.3-4.4 l9.2-2.4c0.3,1.2,0.7,2.5,1.1,3.6L266.2,402.6z M374.6,394.6l-9.3-1.8c0.2-1.2,0.4-2.5,0.6-3.8l9.4,1 C375.1,391.5,374.9,393.1,374.6,394.6z M263.4,390.3L263.4,390.3c-0.2-1.6-0.3-3.1-0.3-4.6l9.5-0.3c0,1.2,0.1,2.5,0.3,3.8 L263.4,390.3z M366.1,382.3c0-1.2-0.1-2.5-0.3-3.7c0,0,0-0.1,0-0.1l9.4-1.1c0,0.1,0,0.2,0,0.2c0.2,1.5,0.3,2.9,0.3,4.4 L366.1,382.3z M272.8,378.7l-9.4-1c0.2-1.5,0.4-3,0.7-4.5l9.3,1.8C273.1,376.2,272.9,377.5,272.8,378.7z M364.6,371.9 c-0.3-1.2-0.7-2.5-1.1-3.6l8.9-3.1c0.5,1.4,1,2.9,1.3,4.4L364.6,371.9z M275.1,368.5l-8.9-3.1c0.5-1.4,1.1-2.9,1.7-4.3l8.6,3.8 C276,366.1,275.5,367.3,275.1,368.5z M360.8,362.2c-0.6-1.1-1.2-2.2-1.9-3.3l8-5.1c0.8,1.3,1.6,2.6,2.3,4L360.8,362.2z M279.7,359.1l-8-5c0.8-1.3,1.7-2.6,2.6-3.8l7.6,5.7C281.1,356.9,280.3,358,279.7,359.1z M355,353.5c-0.8-1-1.7-1.9-2.6-2.8 l6.7-6.7c1.1,1.1,2.1,2.2,3.1,3.4L355,353.5z M286.2,350.9l-6.7-6.7c1.1-1.1,2.2-2.1,3.4-3.1l6.1,7.2 C288,349.1,287.1,350,286.2,350.9z M347.3,346.3c-1-0.8-2.1-1.5-3.2-2.2l5-8c1.3,0.8,2.6,1.7,3.8,2.6L347.3,346.3z M294.4,344.3 l-5.1-8c1.3-0.8,2.6-1.6,4-2.3l4.4,8.4C296.5,343,295.4,343.6,294.4,344.3z M338.3,341.1c-1.2-0.5-2.4-1-3.6-1.4l3.1-8.9 c1.4,0.5,2.9,1.1,4.3,1.7L338.3,341.1z M303.8,339.7l-3.1-8.9c1.4-0.5,2.9-1,4.4-1.3l2.4,9.2C306.2,338.9,305,339.3,303.8,339.7 z M328.3,337.9c-1.2-0.2-2.5-0.4-3.8-0.6l1-9.4c1.5,0.2,3,0.4,4.5,0.7L328.3,337.9z M314.1,337.4l-1.2-9.4l0.2,0 c1.4-0.2,2.9-0.3,4.4-0.3l0.3,9.5C316.6,337.1,315.3,337.2,314.1,337.4z"></path> </g> </g> <g> <path class="st3" d="M53.4,390.4c-0.1-2,1.5-3.8,3.5-3.8l0,0l0,0l0,0c2-0.1,3.8,1.5,3.9,3.5l0,0c0.1,2-1.5,3.8-3.5,3.8v0 c-0.1,0-0.1,0-0.2,0l0,0C55.1,394,53.5,392.4,53.4,390.4z M40.2,392c-2-0.5-3.1-2.6-2.6-4.5l0,0c0.5-2,2.6-3.1,4.5-2.6l0,0 c2,0.5,3.1,2.6,2.6,4.5l0,0c-0.4,1.6-1.9,2.7-3.5,2.7l0,0C40.8,392.2,40.5,392.1,40.2,392z M69.2,388.3c-0.7-1.9,0.2-4,2.1-4.7 l0,0l0,0l0,0c1.9-0.7,4,0.2,4.7,2.1l0,0c0.7,1.9-0.2,4-2.1,4.7l0,0c-0.4,0.2-0.9,0.2-1.3,0.2l0,0 C71.2,390.7,69.8,389.8,69.2,388.3z M24.6,385c-1.7-1.1-2.2-3.4-1-5.1l0,0c1.1-1.7,3.4-2.2,5.1-1.1l0,0c1.7,1.1,2.2,3.4,1.1,5.1 l0,0c-0.7,1.1-1.9,1.7-3.1,1.7l0,0C25.9,385.6,25.2,385.4,24.6,385z M83.7,381.4c-1.3-1.6-1-3.9,0.6-5.2l0,0l0,0l0,0 c1.6-1.3,3.9-1,5.2,0.6l0,0c1.3,1.6,1,3.9-0.6,5.2l0,0c-0.7,0.5-1.5,0.8-2.3,0.8l0,0C85.5,382.8,84.4,382.4,83.7,381.4z M12,373.5c-1.3-1.6-1-3.9,0.6-5.2l0,0c1.6-1.3,3.9-1,5.2,0.6l0,0c1.3,1.6,1,3.9-0.6,5.2l0,0c-0.7,0.5-1.5,0.8-2.3,0.8l0,0 C13.8,374.9,12.7,374.4,12,373.5z M95.3,370.4c-1.7-1.1-2.2-3.4-1-5.1l0,0c1.1-1.7,3.4-2.2,5.1-1.1l0,0c1.7,1.1,2.2,3.4,1.1,5.1 l0,0c-0.7,1.1-1.9,1.6-3.1,1.6l0,0C96.6,371,95.9,370.9,95.3,370.4z M3.5,358.6c-0.7-1.9,0.2-4,2.1-4.7l0,0 c1.9-0.7,4,0.2,4.7,2.1l0,0c0.7,1.9-0.2,4-2.1,4.7l0,0c-0.4,0.2-0.9,0.2-1.3,0.2l0,0C5.4,361,4,360.1,3.5,358.6z M102.9,356.4 c-2-0.5-3.1-2.6-2.6-4.5l0,0l0,0l0,0c0.5-2,2.6-3.1,4.5-2.6l0,0c2,0.5,3.1,2.6,2.6,4.5l0,0c-0.5,1.6-1.9,2.7-3.5,2.7l0,0 C103.6,356.5,103.2,356.5,102.9,356.4z M0,341.9L0,341.9c-0.1-2,1.5-3.8,3.5-3.8l0,0c2-0.1,3.8,1.5,3.8,3.5l0,0c0,0,0,0,0,0l0,0 c0.1,2-1.5,3.8-3.5,3.8l0,0c-0.1,0-0.1,0-0.2,0l0,0C1.7,345.4,0.1,343.8,0,341.9z M102,337.1c-0.1-2,1.5-3.7,3.5-3.8l0,0 c2-0.1,3.8,1.5,3.8,3.5l0,0c0.1,2-1.5,3.8-3.5,3.8l0,0c-0.1,0-0.1,0-0.2,0l0,0C103.7,340.6,102.1,339.1,102,337.1z M4.5,329.4 c-2-0.5-3.1-2.6-2.6-4.5v0c0,0,0,0,0,0l0,0c0,0,0-0.1,0-0.1l0,0c0.5-2,2.6-3.1,4.5-2.6l0,0c2,0.5,3.1,2.6,2.6,4.5l0,0l0,0l0,0 c0,0,0,0,0,0.1l0,0c0,0,0,0,0,0.1l0,0l0,0l0,0c-0.5,1.6-1.9,2.7-3.5,2.7l0,0C5.1,329.5,4.8,329.5,4.5,329.4z M99,322.6L99,322.6 L99,322.6c-0.7-1.9,0.2-4,2.1-4.7l0,0c1.9-0.7,4,0.2,4.7,2.1l0,0c0.7,1.9-0.2,4-2.1,4.7l0,0c-0.4,0.2-0.9,0.2-1.3,0.2l0,0 C101,325,99.6,324.1,99,322.6z M10.1,314.2c-1.7-1.1-2.2-3.4-1-5.1l0,0c1.1-1.7,3.4-2.2,5.1-1l0,0c1.7,1.1,2.2,3.4,1,5.1l0,0 c-0.7,1.1-1.9,1.7-3.1,1.7l0,0C11.4,314.8,10.7,314.6,10.1,314.2z M91.7,309.7c-1.3-1.6-1-3.9,0.6-5.2l0,0c1.6-1.3,3.9-1,5.2,0.6 l0,0c1.3,1.6,1,3.9-0.6,5.2l0,0c-0.7,0.5-1.5,0.8-2.3,0.8l0,0C93.5,311.1,92.4,310.7,91.7,309.7z M20,301.7 c-1.3-1.6-1-3.9,0.6-5.2l0,0c1.6-1.3,3.9-1,5.2,0.6l0,0c1.3,1.6,1,3.9-0.6,5.2l0,0l0,0l0,0c-0.7,0.5-1.5,0.8-2.3,0.8l0,0 C21.8,303,20.7,302.6,20,301.7z M80.8,299.8c-1.7-1.1-2.2-3.4-1-5.1l0,0c1.1-1.7,3.4-2.2,5.1-1l0,0c1.7,1.1,2.2,3.4,1,5.1l0,0 c-0.7,1.1-1.9,1.7-3.1,1.7l0,0C82.1,300.4,81.4,300.2,80.8,299.8z M33.3,292.8c-0.7-1.9,0.2-4,2.2-4.7l0,0c1.9-0.7,4,0.2,4.7,2.1 l0,0c0.7,1.9-0.2,4-2.2,4.7l0,0c-0.4,0.2-0.9,0.2-1.3,0.2l0,0C35.3,295.2,33.9,294.3,33.3,292.8z M67.3,293.6 c-2-0.5-3.1-2.6-2.6-4.5l0,0c0.5-2,2.6-3.1,4.5-2.6l0,0c2,0.5,3.1,2.6,2.6,4.5l0,0c-0.5,1.6-1.9,2.7-3.5,2.7l0,0 C67.9,293.8,67.6,293.7,67.3,293.6z M48.7,288.5c-0.1-2,1.5-3.8,3.5-3.8h0c2-0.1,3.8,1.5,3.8,3.5l0,0c0.1,2-1.5,3.8-3.5,3.8l0,0 l0,0l0,0c0,0-0.1,0-0.2,0l0,0C50.4,292,48.8,290.4,48.7,288.5z"></path> </g> <g> <g> <path class="st3" d="M44.7,177.6c-1.6-0.1-3.1-0.3-4.7-0.6l1.1-6.2c1.3,0.2,2.6,0.4,3.9,0.5L44.7,177.6z M53,177.1l-1.1-6.2 c1.3-0.2,2.6-0.5,3.8-0.9l1.8,6C56,176.5,54.5,176.9,53,177.1z M32.2,174.7c-1.4-0.6-2.9-1.3-4.2-2.1l3.2-5.4 c1.1,0.7,2.3,1.2,3.5,1.8L32.2,174.7z M65.1,172.8l-3.1-5.5c1.1-0.6,2.2-1.4,3.3-2.1l3.8,5C67.8,171.2,66.5,172,65.1,172.8z M21.4,167.7c-1.1-1.1-2.2-2.2-3.2-3.4l4.9-4c0.8,1,1.7,2,2.7,2.8L21.4,167.7z M75,164.6l-4.8-4.1c0.8-1,1.6-2,2.3-3.1l5.3,3.4 C77,162.1,76,163.4,75,164.6z M13.6,157.4c-0.7-1.4-1.3-2.8-1.9-4.3l5.9-2.1c0.4,1.2,1,2.4,1.6,3.6L13.6,157.4z M81.5,153.4 l-5.9-2.2c0.5-1.2,0.8-2.5,1.1-3.8l0-0.1l6.1,1.5l0,0.1C82.5,150.5,82.1,152,81.5,153.4z M9.8,145c-0.2-1.5-0.3-3-0.3-4.5l0-0.2 l6.3,0.1v0.2c0,1.2,0.1,2.5,0.2,3.7L9.8,145z M83.9,140.6h-6.3v-0.1c0-1.3-0.1-2.5-0.2-3.8l6.3-0.8c0.2,1.5,0.3,3,0.3,4.6V140.6 z M16.6,133.8l-2.5-0.8l-3.6-0.8l0-0.1h0c0.4-1.5,0.8-3,1.3-4.4l5.9,2.2c-0.4,1.2-0.8,2.4-1.1,3.7 C16.7,133.6,16.6,133.7,16.6,133.8z M75.7,130.1c-0.4-1.2-1-2.4-1.6-3.6l5.6-2.9c0.7,1.4,1.3,2.8,1.9,4.3L75.7,130.1z M20.8,123.7l-5.3-3.4c0.9-1.3,1.8-2.6,2.8-3.8l4.8,4.1C22.3,121.6,21.5,122.6,20.8,123.7z M70.4,120.8c-0.8-1-1.7-2-2.7-2.8 l4.3-4.6c1.1,1.1,2.2,2.2,3.2,3.4L70.4,120.8z M28.1,115.9l-3.8-5c1.3-0.9,2.6-1.8,3.9-2.6l3.1,5.5 C30.3,114.4,29.2,115.1,28.1,115.9z M62.2,113.9c-1.1-0.7-2.3-1.2-3.5-1.7l2.5-5.8c1.5,0.6,2.9,1.3,4.2,2.1L62.2,113.9z M37.7,111l-1.8-6c1.5-0.5,3-0.8,4.6-1.1l1.1,6.2C40.2,110.3,38.9,110.6,37.7,111z M52.2,110.2c-1.3-0.2-2.6-0.4-3.9-0.5 l0.3-6.3c1.6,0.1,3.1,0.3,4.7,0.5L52.2,110.2z"></path> </g> </g> <g> <g class="st2"> <polygon class="st3" points="412.6,227.3 412.6,230.3 447.7,230.3 429.6,245.1 414.6,232.8 413.2,234.4 429.6,247.9 449.7,231.4 449.7,257.6 409.5,257.6 409.5,233.3 406.5,233.3 406.5,260.6 452.7,260.6 452.7,227.3 "></polygon> </g> <g class="st2"> <path class="st3" d="M408.2,226.3c1.4,0,2.6,1.2,2.6,2.6c0,1.4-1.2,2.6-2.6,2.6c-1.4,0-2.6-1.2-2.6-2.6 C405.6,227.4,406.7,226.3,408.2,226.3"></path> </g> </g> <g> <g> <g class="st2"> <path class="st3" d="M335.5,414.7c-3.2,0-7.3-1.4-12.1-4.3c-6.4-3.8-12.7-9.2-16.5-13c-0.2-0.2-24.6-24.8-15.2-34.3l2.3-2.3 l3.4,3.4l-2.3,2.3c-2.9,2.9,3,15.2,15.2,27.4c3.4,3.4,9.6,8.7,15.6,12.3c5.8,3.5,10.2,4.5,11.9,2.9l6.8-6.8l-11.6-11.6 l-6.5,6.5l-1.6-1c-0.2-0.1-5.4-3.4-9.5-7.4c-4.1-4.1-7.3-9.3-7.4-9.5l-1-1.6l6.5-6.5l-6.9-6.9l3.4-3.4l10.3,10.3l-7.2,7.2 c1.2,1.8,3.3,4.6,5.7,7c2.4,2.4,5.3,4.5,7,5.7l7.2-7.2l18.4,18.4l-10.2,10.2C339.7,414,337.8,414.7,335.5,414.7"></path> </g> </g> <g> <g class="st2"> <path class="st3" d="M301.8,352.4c2.2,0,3.9,1.8,3.9,3.9c0,2.2-1.8,3.9-3.9,3.9c-2.2,0-3.9-1.8-3.9-3.9 C297.9,354.1,299.7,352.4,301.8,352.4"></path> </g> </g> </g> <g> <g> <g class="st2"> <path class="st3" d="M152.9,27.2c0,1.5-1.2,2.7-2.7,2.7c-1.5,0-2.7-1.2-2.7-2.7c0-1.5,1.2-2.7,2.7-2.7 C151.7,24.5,152.9,25.7,152.9,27.2"></path> </g> <g> <path class="st3" d="M176,75.3c-2.5,0-4.5-2-4.5-4.5c0-2.5,2-4.5,4.5-4.5c2.5,0,4.5,2,4.5,4.5C180.5,73.2,178.5,75.3,176,75.3 M176,68.6c-1.2,0-2.2,1-2.2,2.2c0,1.2,1,2.2,2.2,2.2c1.2,0,2.2-1,2.2-2.2C178.1,69.6,177.2,68.6,176,68.6"></path> </g> <g class="st2"> <g> <path class="st3" d="M207.4,35.7h-39.9l-2.3-10.1h-10v3.3h7.4l2,8.8c0,0,0,0,0,0.1l4.4,19.2c0,0,0,0,0,0l1.9,8.3H200v-3.3 h-26.4l-0.8-3.7h30.1L207.4,35.7z M172,54.9L168.3,39h35.1l-3.3,15.9H172z"></path> </g> </g> </g> <g> <path class="st3" d="M195.1,75.7c-2.5,0-4.5-2-4.5-4.5c0-2.5,2-4.5,4.5-4.5c2.5,0,4.5,2,4.5,4.5 C199.6,73.7,197.6,75.7,195.1,75.7 M195.1,69c-1.2,0-2.2,1-2.2,2.2s1,2.2,2.2,2.2c1.2,0,2.2-1,2.2-2.2S196.3,69,195.1,69"></path> </g> </g> <g> <g> <path class="st3" d="M47.3,140.4c-6,0-10.8-4.9-10.8-10.8c0-1.1,0.2-2.2,0.5-3.2l2.9,0.9c-0.2,0.7-0.4,1.5-0.4,2.3 c0,4.3,3.5,7.7,7.7,7.7c4.3,0,7.7-3.5,7.7-7.7c0-4.3-3.5-7.7-7.7-7.7c-0.6,0-1.2,0.1-1.8,0.2l-0.7-3c0.8-0.2,1.7-0.3,2.5-0.3 c6,0,10.8,4.8,10.8,10.8C58.1,135.6,53.2,140.4,47.3,140.4"></path> </g> <g> <path class="st3" d="M63.4,159.7H31.1v-1.5c0-8.9,7.2-16.1,16.1-16.1c8.9,0,16.1,7.2,16.1,16.1V159.7z M34.3,156.6h25.9 c-0.8-6.5-6.3-11.5-12.9-11.5C40.6,145.1,35.1,150.1,34.3,156.6"></path> </g> <g> <path class="st3" d="M40.9,120.4c1.4,0,2.5,1.1,2.5,2.5c0,1.4-1.1,2.5-2.5,2.5c-1.4,0-2.5-1.1-2.5-2.5 C38.4,121.5,39.6,120.4,40.9,120.4"></path> </g> </g> <g> <path class="st4" d="M89.3,119l-11.8-8.8c4.9-6.5,10.3-12.8,16-18.7c8.8-9.1,18.6-17.2,29-24.3l8.3,12.2 c-9.6,6.5-18.5,14-26.7,22.4C98.7,107.2,93.8,113,89.3,119z"></path> </g> <g> <path class="st4" d="M48.8,276.8c-8.9-29.1-10.7-60.3-4.9-90.2l14.5,2.8c-5.3,27.6-3.7,56.3,4.6,83.1L48.8,276.8z"></path> </g> <g> <path class="st4" d="M227.2,408.4c-41.9,0-83-14.1-116.1-40.4l9.2-11.5c37.7,30,86.8,42.7,134.6,35l2.4,14.5 C247.2,407.6,237.2,408.4,227.2,408.4z"></path> </g> <g> <path class="st4" d="M369.7,342.2l-11.2-9.5c12.8-15.2,22.8-32.3,29.7-50.8L402,287C394.5,307.1,383.7,325.7,369.7,342.2z"></path> </g> <g> <path class="st4" d="M397.4,198.4c-1.1-7.9-2.7-15.7-4.8-23.3l14.2-4c2.3,8.3,4.1,16.8,5.3,25.3L397.4,198.4z"></path> </g> <g> <path class="st4" d="M333.9,87.1C305,64.1,270.2,51.3,233.2,50l0.5-14.7c40.2,1.4,78,15.3,109.4,40.3L333.9,87.1z"></path> </g> </g> <g> <g class="st2"> <rect x="220.9" y="268.7" class="st3" width="79.6" height="10"></rect> </g> <g class="st2"> <polygon class="st3" points="283.5,186.4 277.8,192.1 234.7,148.9 229.6,153.9 272.8,197.1 254.2,215.7 204.6,166.1 216.9,153.8 209.8,146.7 186.8,169.7 193.9,176.8 199.5,171.1 219.7,191.3 140.9,268.7 147.9,275.8 226.8,198.4 249.2,220.8 243.5,226.4 250.6,233.5 290.6,193.5 "></polygon> </g> <g> <g> <g> <circle class="st4" cx="223.4" cy="140.2" r="8.1"></circle> </g> </g> </g> </g> </g> </svg> 