<?xml version="1.0" encoding="UTF-8"?> <!-- Generator: Adobe Illustrator 24.0.3, SVG Export Plug-In . SVG Version: 6.00 Build 0) --> <svg xmlns="http://www.w3.org/2000/svg" xmlns:xlink="http://www.w3.org/1999/xlink" id="Layer_1" x="0px" y="0px" viewBox="0 0 155.6 81.6" style="enable-background:new 0 0 155.6 81.6;" xml:space="preserve"> <style type="text/css"> .st0{fill:#FFFFFF;} .st1{fill:#FFA500;} </style> <g> <g> <path class="st0" d="M123.5,46.6c-8.9,0-17,3.7-22.8,9.6c-5.8-5.9-13.9-9.6-22.8-9.6c-8.9,0-17,3.7-22.8,9.6 c-5.8-5.9-13.9-9.6-22.8-9.6C14.4,46.6,0,61,0,78.7v2.9h45.7h18.5h27.1h18.5h45.7v-2.9C155.6,61,141.2,46.6,123.5,46.6z M5.9,75.8 c1.4-13.2,12.6-23.5,26.2-23.5c7.5,0,14.4,3.2,19.2,8.3c-3,4.4-5,9.6-5.5,15.2H5.9z M51.6,75.8C53,62.6,64.2,52.3,77.8,52.3 c13.6,0,24.8,10.3,26.2,23.5H51.6z M109.8,75.8c-0.5-5.6-2.4-10.8-5.5-15.2c4.8-5.1,11.6-8.3,19.2-8.3c13.6,0,24.8,10.3,26.2,23.5 H109.8z"></path> </g> <g> <g> <circle class="st1" cx="20" cy="7.5" r="4.7"></circle> </g> <path class="st0" d="M32.1,43c-11.8,0-21.5-9.6-21.5-21.5c0-3,0.6-5.9,1.8-8.6l5.3,2.3c-0.9,2-1.3,4.1-1.3,6.3 c0,8.7,7.1,15.7,15.7,15.7s15.7-7.1,15.7-15.7S40.8,5.7,32.1,5.7c-1.5,0-2.9,0.2-4.3,0.6l-1.6-5.5C28.2,0.3,30.1,0,32.1,0 C44,0,53.6,9.6,53.6,21.5S44,43,32.1,43z"></path> <g> <circle class="st1" cx="111.3" cy="7.5" r="4.7"></circle> </g> <path class="st0" d="M123.5,43c-11.8,0-21.5-9.6-21.5-21.5c0-3,0.6-5.9,1.8-8.6l5.3,2.3c-0.9,2-1.3,4.1-1.3,6.3 c0,8.7,7.1,15.7,15.7,15.7c8.7,0,15.7-7.1,15.7-15.7s-7.1-15.7-15.7-15.7c-1.5,0-2.9,0.2-4.3,0.6l-1.6-5.5 c1.9-0.5,3.8-0.8,5.8-0.8C135.3,0,145,9.6,145,21.5S135.3,43,123.5,43z"></path> <g> <circle class="st1" cx="65.7" cy="7.5" r="4.7"></circle> </g> <path class="st0" d="M77.8,43C66,43,56.3,33.3,56.3,21.5c0-3,0.6-5.9,1.8-8.6l5.3,2.3c-0.9,2-1.3,4.1-1.3,6.3 c0,8.7,7.1,15.7,15.7,15.7c8.7,0,15.7-7.1,15.7-15.7S86.5,5.7,77.8,5.7c-1.5,0-2.9,0.2-4.3,0.6L72,0.8C73.9,0.3,75.8,0,77.8,0 c11.8,0,21.5,9.6,21.5,21.5S89.6,43,77.8,43z"></path> </g> </g> </svg> 