<?xml version="1.0" encoding="UTF-8"?> <!-- Generator: Adobe Illustrator 24.0.2, SVG Export Plug-In . SVG Version: 6.00 Build 0) --> <svg xmlns="http://www.w3.org/2000/svg" xmlns:xlink="http://www.w3.org/1999/xlink" id="Layer_1" x="0px" y="0px" viewBox="0 0 86.3 73.1" style="enable-background:new 0 0 86.3 73.1;" xml:space="preserve"> <style type="text/css"> .st0{fill:#0098A5;} .st1{fill:#FFC800;} </style> <g> <path class="st0" d="M43.2,64.8c-3.3,0-6-2.6-6-5.9c0-3.2,2.7-5.8,6-5.8c3.2,0,5.9,2.6,5.9,5.8C49.1,62.2,46.5,64.8,43.2,64.8z M43.2,56.3c-1.6,0-2.8,1.2-2.8,2.7c0,1.5,1.3,2.7,2.8,2.7c1.5,0,2.7-1.2,2.7-2.7C45.9,57.6,44.7,56.3,43.2,56.3z M47.4,52.1h-8.2 l-1.4-29.8h10.9L47.4,52.1z M42.2,48.9h2.2l1-23.4h-4.3L42.2,48.9z"></path> <polygon class="st0" points="86.3,73.1 0,73.1 37.7,7.9 41.5,10.1 7.7,68.7 78.7,68.7 44.8,10.1 48.7,7.9 "></polygon> <path class="st1" d="M46.7,3.6c0,2-1.6,3.6-3.6,3.6c-2,0-3.6-1.6-3.6-3.6c0-2,1.6-3.6,3.6-3.6C45.1,0,46.7,1.6,46.7,3.6"></path> </g> </svg> 