<?xml version="1.0" encoding="UTF-8"?> <!-- Generator: Adobe Illustrator 24.0.2, SVG Export Plug-In . SVG Version: 6.00 Build 0) --> <svg xmlns="http://www.w3.org/2000/svg" xmlns:xlink="http://www.w3.org/1999/xlink" id="Layer_1" x="0px" y="0px" viewBox="0 0 189 172" style="enable-background:new 0 0 189 172;" xml:space="preserve"> <style type="text/css"> .st0{opacity:0.81;} .st1{fill:#FFFFFF;} .st2{fill:#FFA500;} </style> <g> <g class="st0"> <g> <g> <rect x="60.5" y="164" class="st1" width="69.3" height="8"></rect> </g> </g> <g> <g> <circle class="st2" cx="9.1" cy="9.1" r="9.1"></circle> </g> </g> <g> <polygon class="st1" points="189,147.5 3.5,147.5 3.5,26.2 14.7,26.2 14.7,136.3 177.8,136.3 177.8,14.7 26.2,14.7 26.2,3.5 189,3.5 "></polygon> </g> </g> <g class="st0"> <path class="st1" d="M152.3,34.2V66h-44.5V34.2H152.3 M159.8,29.3h-59.5v41.5h59.5V29.3L159.8,29.3z"></path> </g> <g class="st0"> <path class="st1" d="M83.8,36.8v77.4H39.3V36.8H83.8 M91.3,29.3H31.8v92.4h59.5V29.3L91.3,29.3z"></path> </g> <g class="st0"> <path class="st1" d="M63.2,85.2v3.6h-3v-3.7c-2.2-0.3-4.3-1.4-6.1-3.1l2.5-3c1.7,1.7,3.8,2.4,5.4,2.4c1.5,0,2.6-0.7,2.6-1.9 c0-1.4-1-1.9-3.5-2.7c-3.4-1-6.5-2.2-6.5-6.1c0-3.2,2.1-5.5,5.7-6V61h2.9v3.9c2,0.4,4.1,1.3,5.5,2.5l-2.4,3 c-1.7-1.2-3.3-1.7-4.7-1.7c-1.6,0-2.5,0.6-2.5,1.7c0,1.1,1,1.7,3.3,2.4c4.1,1.3,6.8,2.3,6.8,6.4C69.2,82.5,66.9,84.8,63.2,85.2z"></path> </g> <g class="st0"> <path class="st1" d="M129.9,113.1l-7.9-11.8c-1-1.5-1.5-3.3-1.5-5.1c0-1.2,0.2-2.5,0.7-3.6l1.6,0.6c-0.4,0.9-0.6,1.9-0.6,3 c0,1.5,0.4,3,1.3,4.2l6.4,9.7l6.5-9.7c0.8-1.2,1.2-2.7,1.2-4.2c0-4.2-3.5-7.7-7.7-7.7c-1.5,0-2.9,0.4-4.2,1.2l-0.9-1.4 c1.5-1,3.3-1.5,5.1-1.5c5.2,0,9.4,4.2,9.4,9.4c0,1.8-0.5,3.6-1.5,5.1L129.9,113.1z M133.4,96.2c0-1.9-1.5-3.4-3.4-3.4 c-1.9,0-3.4,1.5-3.4,3.4c0,1.9,1.5,3.4,3.4,3.4C131.8,99.6,133.4,98.1,133.4,96.2z M132.4,96.2c0,1.4-1.1,2.5-2.5,2.5 c-1.4,0-2.5-1.1-2.5-2.5c0-1.4,1.1-2.5,2.5-2.5C131.3,93.7,132.4,94.8,132.4,96.2z M125.9,89.6l-0.9-1.4c-1.8,1.1-2.8,2.3-3.8,4.4 l1.5,0.7C123.6,91.5,124.4,90.5,125.9,89.6z"></path> <path class="st1" d="M129.9,114.3l-8.4-12.6c-1.1-1.6-1.6-3.6-1.6-5.5c0-1.1,0.2-2.2,0.5-3.2l0,0l0.2-0.4c0-0.1,0.1-0.2,0.1-0.3 l0.3-0.6l0,0c0.8-1.6,1.6-2.6,2.9-3.5l0,0l0.6-0.4c1.6-1.1,3.5-1.6,5.5-1.6c5.6,0,10.1,4.5,10.1,10.1c0,2-0.6,3.9-1.6,5.5 L129.9,114.3z M121.7,93.5c-0.3,0.8-0.4,1.7-0.4,2.6c0,1.7,0.5,3.3,1.4,4.8l7.3,10.9l7.3-10.9c0.9-1.4,1.4-3,1.4-4.7 c0-4.8-3.9-8.7-8.7-8.7c-1.4,0-2.7,0.3-3.9,0.9l0.1,0.2c1.2-0.6,2.5-0.9,3.8-0.9c4.6,0,8.4,3.8,8.4,8.4c0,1.6-0.5,3.2-1.4,4.6 l-7,10.5l-7-10.5c-0.9-1.4-1.4-3-1.4-4.6c0-0.9,0.1-1.7,0.4-2.5L121.7,93.5z M123.6,93.3l-0.1,0.2c-0.4,0.9-0.5,1.8-0.5,2.7 c0,1.4,0.4,2.7,1.1,3.8l5.9,8.8l5.9-8.8c0.7-1.1,1.1-2.4,1.1-3.8c0-3.9-3.1-7-7-7c-1.2,0-2.3,0.3-3.3,0.8l-0.4,0.2 c-0.1,0-0.1,0.1-0.2,0.1l-0.3,0.2C124.7,91.2,124.2,92,123.6,93.3z M122.2,92.2l0.2,0.1c0.6-1.2,1.3-2.1,2.3-2.8l-0.1-0.2 C123.6,90.1,122.9,90.9,122.2,92.2z M129.9,100.3c-2.3,0-4.1-1.9-4.1-4.1s1.9-4.1,4.1-4.1s4.1,1.9,4.1,4.1 S132.2,100.3,129.9,100.3z M129.9,94.4c-1,0-1.8,0.8-1.8,1.8s0.8,1.8,1.8,1.8s1.8-0.8,1.8-1.8S130.9,94.4,129.9,94.4z"></path> </g> <g class="st0"> <path class="st1" d="M152.3,83.3V117h-44.5V83.3H152.3 M159.8,78.7h-59.5v42.8h59.5V80.7V78.7z"></path> </g> <g class="st0"> <rect x="120.1" y="41.4" class="st1" width="3.9" height="18.9"></rect> <rect x="112.8" y="46.6" class="st1" width="3.9" height="13.7"></rect> <rect x="134.6" y="45.2" class="st1" width="3.9" height="15.1"></rect> <rect x="127.3" y="50.4" class="st1" width="3.9" height="9.9"></rect> <rect x="141.8" y="40" class="st1" width="3.9" height="20.3"></rect> </g> </g> </svg> 