<?xml version="1.0" encoding="UTF-8"?> <svg xmlns="http://www.w3.org/2000/svg" id="Layer_1" data-name="Layer 1" viewBox="0 0 200.67 169.83"><title>Prioritize Icon_negative_RGB</title><g style="opacity:0.8"><path d="M101.48,151.63a13.7,13.7,0,1,1,0-27.4,13.7,13.7,0,1,1,0,27.4Zm0-19.7a6,6,0,1,0,0,12,6,6,0,1,0,0-12Zm9.81-9.91H91.93L88.76,52.8H114.3Zm-12-7.69h4.64l2.34-53.83H96.82Z" transform="translate(-1.03 -0.97)" style="fill:#fff"></path></g><polygon points="200.67 169.83 0 169.83 87.56 18.16 96.9 23.55 18.67 159.05 182 159.05 103.86 23.71 113.2 18.32 200.67 169.83" style="fill:#fff;opacity:0.8"></polygon><circle cx="100.33" cy="8.73" r="8.73" style="fill:#ffb000"></circle></svg> 