<?xml version="1.0" encoding="UTF-8"?> <!-- Generator: Adobe Illustrator 24.0.3, SVG Export Plug-In . SVG Version: 6.00 Build 0) --> <svg xmlns="http://www.w3.org/2000/svg" xmlns:xlink="http://www.w3.org/1999/xlink" version="1.1" id="Layer_1" x="0px" y="0px" viewBox="0 0 512.7 368.7" style="enable-background:new 0 0 512.7 368.7;" xml:space="preserve"> <style type="text/css"> .st0{fill:#FFFFFF;} .st1{fill:#FFC700;} .st2{opacity:0.81;fill:#FFFFFF;} .st3{opacity:0.47;fill:#FFFFFF;} .st4{fill:#FFFFFF;fill-opacity:0.81;} </style> <g> <g> <rect x="204.3" y="261.4" transform="matrix(0.7071 -0.7071 0.7071 0.7071 -155.1 239.8018)" class="st0" width="15.3" height="91.5"></rect> <g> <g> <path class="st1" d="M262.2,259.7c-2.7,0-4.9-2.2-4.9-5v-186c0-2.7,2.2-5,4.9-5c2.7,0,4.9,2.2,4.9,5v186 C267.1,257.5,264.9,259.7,262.2,259.7"></path> <path class="st1" d="M353.4,169.1H171.1c-2.7,0-4.9-2.2-4.9-4.9c0-2.7,2.2-4.9,4.9-4.9h182.3c2.7,0,4.9,2.2,4.9,4.9 C358.2,166.9,356.1,169.1,353.4,169.1"></path> <path class="st1" d="M262.2,265.3c-29.7,0-53-44.4-53-101.1c0-56.7,23.3-101.1,53-101.1c29.7,0,53,44.4,53,101.1 C315.2,220.9,291.9,265.3,262.2,265.3 M262.2,72.9c-23.4,0-43.2,41.8-43.2,91.3c0,49.5,19.8,91.3,43.2,91.3 c23.4,0,43.2-41.8,43.2-91.3C305.5,114.7,285.7,72.9,262.2,72.9"></path> <path class="st1" d="M326.9,241.8l-3.6-3.2c-8.2-7.4-17.6-13.2-27.8-17.2c-10.6-4.1-21.8-6.2-33.3-6.2 c-22.5,0-44.2,8.3-60.9,23.3l-3.6,3.2l-6.5-7.2l3.6-3.2c18.6-16.6,42.5-25.8,67.4-25.8c12.7,0,25.1,2.3,36.8,6.9 c11.3,4.4,21.7,10.8,30.7,19l3.6,3.2L326.9,241.8z"></path> </g> <path class="st1" d="M262.2,266.6c-56.5,0-102.4-45.9-102.4-102.4S205.8,61.8,262.2,61.8s102.4,45.9,102.4,102.4 S318.7,266.6,262.2,266.6z M262.2,73.4c-50.1,0-90.8,40.8-90.8,90.8c0,50.1,40.8,90.8,90.8,90.8c50.1,0,90.8-40.8,90.8-90.8 C353.1,114.2,312.3,73.4,262.2,73.4z"></path> <path class="st1" d="M326.8,87.8l-3.6,3.2c-8.2,7.4-17.6,13.2-27.8,17.2c-10.6,4.1-21.8,6.2-33.3,6.2c-22.5,0-44.2-8.3-60.9-23.3 l-3.6-3.2l-6.5,7.2l3.6,3.2c18.6,16.6,42.5,25.8,67.4,25.8c12.7,0,25.1-2.3,36.8-6.9c11.3-4.4,21.7-10.8,30.7-19l3.6-3.2 L326.8,87.8z"></path> </g> <g> <g> <polygon class="st2" points="495,226.6 439.1,226.6 439.1,193.6 442.9,193.6 442.9,222.8 491.2,222.8 491.2,190 446.5,190 446.5,186.2 495,186.2 "></polygon> <path class="st2" d="M444.1,188.1c0,1.7-1.4,3.1-3.1,3.1c-1.7,0-3.1-1.4-3.1-3.1c0-1.7,1.4-3.1,3.1-3.1 C442.7,185.1,444.1,186.4,444.1,188.1"></path> <rect x="455.8" y="230.3" class="st2" width="22.2" height="5"></rect> </g> </g> <rect x="390.5" y="166.7" transform="matrix(0.1478 -0.989 0.989 0.1478 142.8326 551.8958)" class="st3" width="2.3" height="52.7"></rect> <path class="st1" d="M365.4,365.6c-0.2-1.9,1.1-3.6,3-3.8v0c1.9-0.2,3.6,1.2,3.8,3.1l0,0c0.2,1.9-1.1,3.6-3,3.8l0,0l0,0l0,0 c-0.1,0-0.3,0-0.4,0l0,0C367.1,368.7,365.6,367.4,365.4,365.6z M356.9,368.6L356.9,368.6L356.9,368.6c-1.9-0.2-3.2-2-3-3.9l0,0 c0.2-1.9,2-3.2,3.9-3l0,0c1.9,0.2,3.2,2,3,3.9l0,0c-0.2,1.7-1.7,3-3.4,3l0,0C357.2,368.6,357,368.6,356.9,368.6z M376.8,363.7 c-0.7-1.8,0.2-3.8,2-4.5l0,0c1.8-0.7,3.8,0.2,4.5,2l0,0c0.7,1.8-0.2,3.8-2,4.5l0,0c-0.4,0.2-0.8,0.2-1.2,0.2l0,0 C378.6,366,377.3,365.1,376.8,363.7z M344.9,365.5L344.9,365.5L344.9,365.5c-1.8-0.7-2.7-2.7-2-4.5l0,0c0.7-1.8,2.7-2.7,4.5-2l0,0 c1.8,0.7,2.7,2.7,2,4.5l0,0c-0.5,1.4-1.8,2.2-3.2,2.2l0,0C345.7,365.8,345.3,365.7,344.9,365.5z M387.4,359.2 c-1.1-1.6-0.7-3.7,0.9-4.8l0,0c1.6-1.1,3.7-0.7,4.8,0.9l0,0c1.1,1.6,0.7,3.7-0.9,4.8l0,0c-0.6,0.4-1.3,0.6-2,0.6l0,0 C389.2,360.7,388.1,360.1,387.4,359.2z M334,359.7L334,359.7L334,359.7c-1.6-1.1-1.9-3.3-0.8-4.8l0,0c1.1-1.6,3.3-1.9,4.8-0.8l0,0 c1.6,1.1,1.9,3.3,0.8,4.8l0,0c-0.7,1-1.7,1.5-2.8,1.5l0,0C335.3,360.3,334.6,360.1,334,359.7z M396.6,352.2 c-1.4-1.3-1.5-3.5-0.3-4.9l0,0c1.3-1.4,3.5-1.5,4.9-0.3l0,0c1.4,1.3,1.6,3.5,0.3,4.9l0,0c-0.7,0.8-1.6,1.2-2.6,1.2l0,0 C398.1,353.1,397.3,352.8,396.6,352.2z M324.8,351.4L324.8,351.4L324.8,351.4c-1.3-1.4-1.1-3.6,0.3-4.9l0,0 c1.4-1.3,3.6-1.1,4.9,0.3l0,0c1.3,1.4,1.1,3.6-0.3,4.9l0,0c-0.7,0.6-1.5,0.8-2.3,0.8l0,0C326.5,352.6,325.5,352.2,324.8,351.4z M403.9,343.2c-1.7-0.9-2.3-3-1.4-4.7l0,0c0.9-1.7,3-2.3,4.7-1.4l0,0c1.7,0.9,2.3,3,1.4,4.7l0,0c-0.6,1.2-1.8,1.8-3.1,1.8l0,0 C404.9,343.6,404.4,343.5,403.9,343.2z M317.9,341.1c-0.9-1.7-0.2-3.8,1.5-4.7l0,0c1.7-0.9,3.8-0.2,4.7,1.5l0,0 c0.9,1.7,0.2,3.8-1.5,4.7l0,0c-0.5,0.3-1,0.4-1.6,0.4l0,0C319.8,343,318.5,342.3,317.9,341.1z M408.8,332.7 c-1.9-0.5-3-2.3-2.5-4.2l0,0c0.5-1.9,2.3-3,4.2-2.5l0,0c1.9,0.5,3,2.3,2.5,4.2l0,0l0,0l0,0c-0.4,1.6-1.8,2.6-3.4,2.6l0,0 C409.3,332.8,409,332.8,408.8,332.7z M313.7,329.5c-0.4-1.9,0.7-3.7,2.6-4.2l0,0c1.9-0.4,3.7,0.7,4.2,2.6l0,0 c0.4,1.9-0.7,3.7-2.6,4.2l0,0c-0.3,0.1-0.5,0.1-0.8,0.1l0,0C315.5,332.2,314,331.1,313.7,329.5z M407.5,317.9 c0-1.9,1.5-3.5,3.5-3.5l0,0c1.9,0,3.5,1.5,3.5,3.5l0,0l0,0l0,0c0,1.9-1.6,3.5-3.5,3.5l0,0C409.1,321.4,407.5,319.8,407.5,317.9z M315.8,320.8c-1.9,0-3.4-1.6-3.4-3.5l0,0l0,0l0,0c0-1.9,1.6-3.4,3.5-3.4l0,0c1.9,0,3.4,1.6,3.4,3.5l0,0 C319.3,319.2,317.7,320.8,315.8,320.8L315.8,320.8C315.8,320.8,315.8,320.8,315.8,320.8z M406.5,308.5c-0.4-1.9,0.8-3.7,2.6-4.1 l0,0c1.9-0.4,3.7,0.8,4.1,2.6l0,0c0.4,1.9-0.8,3.7-2.6,4.1l0,0c-0.2,0.1-0.5,0.1-0.7,0.1l0,0C408.3,311.2,406.8,310.1,406.5,308.5 z M316.5,309.2c-1.8-0.5-3-2.4-2.5-4.2l0,0c0.5-1.9,2.4-3,4.2-2.5l0,0c1.8,0.5,3,2.4,2.5,4.2l0,0c-0.4,1.6-1.8,2.6-3.3,2.6l0,0 C317.1,309.3,316.8,309.3,316.5,309.2z M403,298.4L403,298.4c-0.8-1.7-0.1-3.8,1.6-4.6l0,0c1.7-0.8,3.8-0.1,4.6,1.6l0,0 c0.8,1.7,0.1,3.8-1.6,4.6l0,0c-0.5,0.2-1,0.4-1.5,0.4l0,0C404.8,300.3,403.6,299.6,403,298.4z M319.9,298.2 c-1.7-0.9-2.3-3-1.4-4.7l0,0c0.9-1.7,3-2.3,4.7-1.4l0,0c1.7,0.9,2.3,3,1.4,4.7l0,0c-0.6,1.2-1.8,1.8-3,1.8l0,0 C321,298.6,320.5,298.5,319.9,298.2z M397.1,289.5c-1.2-1.5-1-3.7,0.4-4.9l0,0c1.5-1.2,3.7-1.1,4.9,0.4l0,0c1.2,1.5,1,3.7-0.4,4.9 l0,0c-0.6,0.5-1.4,0.8-2.2,0.8l0,0C398.8,290.7,397.8,290.3,397.1,289.5z M326,288.4c-1.4-1.3-1.5-3.5-0.2-4.9l0,0 c1.3-1.4,3.5-1.5,4.9-0.2l0,0c1.4,1.3,1.5,3.5,0.2,4.9l0,0c-0.7,0.7-1.6,1.1-2.6,1.1l0,0C327.5,289.3,326.6,289,326,288.4z M389.3,282.2c-1.5-1.1-1.9-3.3-0.8-4.8l0,0c1.1-1.5,3.3-1.9,4.8-0.8l0,0l0,0l0,0c1.5,1.1,1.9,3.3,0.8,4.8l0,0 c-0.7,0.9-1.7,1.4-2.8,1.4l0,0C390.6,282.9,389.9,282.6,389.3,282.2z M334.2,280.2c-1.1-1.6-0.6-3.8,1-4.8l0,0l0,0l0,0 c1.6-1.1,3.7-0.6,4.8,1l0,0c1.1,1.6,0.6,3.7-1,4.8l0,0c-0.6,0.4-1.3,0.6-1.9,0.6l0,0C335.9,281.8,334.8,281.2,334.2,280.2z M379.9,277c-1.8-0.7-2.6-2.7-1.9-4.5l0,0c0.7-1.8,2.7-2.6,4.5-1.9l0,0c0,0,0,0,0,0l0,0c1.8,0.7,2.6,2.7,1.9,4.5l0,0 c-0.5,1.3-1.8,2.2-3.2,2.2l0,0C380.8,277.3,380.4,277.2,379.9,277z M344.1,274.3c-0.6-1.8,0.3-3.8,2.1-4.4l0,0 c1.8-0.6,3.8,0.3,4.4,2.1l0,0c0.6,1.8-0.3,3.8-2.1,4.4l0,0c-0.4,0.1-0.8,0.2-1.2,0.2l0,0C345.9,276.6,344.6,275.7,344.1,274.3z M369.6,274.3c-1.9-0.3-3.2-2-2.9-3.9l0,0c0.3-1.9,2-3.2,3.9-2.9l0,0c1.9,0.3,3.2,2,2.9,3.9l0,0c-0.2,1.7-1.7,3-3.4,3l0,0 C369.9,274.3,369.8,274.3,369.6,274.3z M355.1,270.9c-0.2-1.9,1.2-3.6,3.1-3.8l0,0l0,0l0,0c1.9-0.2,3.6,1.2,3.8,3.1l0,0 c0.2,1.9-1.2,3.6-3.1,3.8l0,0c-0.1,0-0.2,0-0.3,0l0,0C356.8,274.1,355.3,272.7,355.1,270.9z"></path> <g> <g> <g> <path class="st2" d="M349.8,290.2c0,1.7-1.4,3.1-3.1,3.1c-1.7,0-3.1-1.4-3.1-3.1c0-1.7,1.4-3.1,3.1-3.1 C348.4,287.1,349.8,288.5,349.8,290.2"></path> </g> <polygon class="st2" points="383.1,350.3 344,350.3 344,296 348.6,296 348.6,345.7 378.5,345.7 378.5,291 351.2,291 351.2,286.4 383.1,286.4 "></polygon> <path class="st2" d="M366.7,340.6c0,1.7-1.4,3.1-3.1,3.1c-1.7,0-3.1-1.4-3.1-3.1c0-1.7,1.4-3.1,3.1-3.1 C365.3,337.5,366.7,338.9,366.7,340.6"></path> <path class="st2" d="M369.7,297.6h-11.4c-1.1,0-1.9-0.9-1.9-1.9s0.9-1.9,1.9-1.9h11.4c1.1,0,1.9,0.9,1.9,1.9 S370.7,297.6,369.7,297.6z"></path> </g> </g> <rect x="315.1" y="256.9" transform="matrix(0.7071 -0.7071 0.7071 0.7071 -98.1859 302.6256)" class="st3" width="2.3" height="25.8"></rect> <path class="st1" d="M408.2,102.7L408.2,102.7c-1.1,0-2.2,0-3.3-0.1l0.4-6.9c0.9,0.1,1.9,0.1,2.8,0.1c0.1,0,0.1,0,0.2,0l-0.2,2.9 L408.2,102.7z M413.9,102.4l-0.8-6.9c0.9-0.1,1.9-0.2,2.8-0.4l1.2,6.8C416.1,102.1,415,102.3,413.9,102.4z M399.3,101.9 c-1.1-0.2-2.1-0.4-3.2-0.7l1.6-6.7c0.9,0.2,1.8,0.4,2.8,0.6L399.3,101.9z M422.7,100.6l-2-6.6c0.9-0.3,1.8-0.6,2.7-0.9l2.4,6.5 C424.8,100,423.7,100.3,422.7,100.6z M390.7,99.6c-1-0.4-2-0.8-3-1.2l2.8-6.3c0.9,0.4,1.7,0.7,2.6,1L390.7,99.6z M431,97.4 l-3.1-6.2c0.8-0.4,1.7-0.9,2.5-1.3l3.5,6C432.9,96.4,432,96.9,431,97.4z M382.5,95.9c-0.9-0.5-1.9-1.1-2.8-1.7l3.8-5.8 c0.8,0.5,1.6,1,2.4,1.5L382.5,95.9z M438.6,92.7l-4.1-5.6c0.7-0.5,1.5-1.1,2.2-1.7l4.5,5.3C440.4,91.4,439.5,92.1,438.6,92.7z M375.2,90.7c-0.8-0.7-1.6-1.4-2.4-2.2l4.8-5c0.7,0.7,1.4,1.3,2.1,1.9L375.2,90.7z M445.4,86.8l-5-4.8c0.6-0.7,1.3-1.4,1.9-2.1 l5.3,4.5C446.8,85.2,446.1,86,445.4,86.8z M368.9,84.4c-0.7-0.8-1.4-1.7-2-2.6l5.6-4.1c0.6,0.8,1.1,1.5,1.7,2.2L368.9,84.4z M450.9,79.8l-5.8-3.8c0.5-0.8,1-1.6,1.5-2.4l6,3.5C452.1,78,451.5,78.9,450.9,79.8z M363.7,77.1c-0.5-0.9-1.1-1.9-1.5-2.9 l6.2-3.1c0.4,0.8,0.9,1.7,1.3,2.5L363.7,77.1z M455.2,71.9l-6.3-2.8c0.4-0.9,0.7-1.7,1-2.6l6.5,2.4 C456.1,69.9,455.7,70.9,455.2,71.9z M359.9,69c-0.4-1-0.7-2.1-1-3.1l6.6-2c0.3,0.9,0.6,1.8,0.9,2.7L359.9,69z M458.1,63.5 l-6.7-1.6c0.2-0.9,0.4-1.8,0.6-2.8l6.8,1.2C458.6,61.3,458.4,62.4,458.1,63.5z M357.6,60.3c-0.2-1.1-0.3-2.2-0.5-3.2l6.9-0.8 c0.1,0.9,0.2,1.9,0.4,2.8L357.6,60.3z M459.4,54.6l-6.9-0.4c0.1-0.9,0.1-1.9,0.1-2.8l0-0.1h6.9l0,0.1 C459.5,52.4,459.5,53.5,459.4,54.6z M356.8,51.4L356.8,51.4c0-1.1,0-2.2,0.1-3.2l6.9,0.4c-0.1,0.9-0.1,1.8-0.1,2.8L356.8,51.4z M452.3,46.3c-0.1-0.9-0.2-1.9-0.4-2.8l6.8-1.2c0.2,1.1,0.3,2.1,0.5,3.2L452.3,46.3z M364.4,43.7l-6.8-1.2 c0.2-1.1,0.4-2.1,0.7-3.2l6.7,1.6C364.8,41.9,364.6,42.8,364.4,43.7z M450.8,38.7c-0.3-0.9-0.6-1.8-0.9-2.7l6.5-2.4 c0.4,1,0.7,2.1,1,3.1L450.8,38.7z M366.4,36.2l-6.5-2.4c0.4-1,0.8-2,1.2-3l6.4,2.8C367.1,34.5,366.7,35.3,366.4,36.2z M447.9,31.5 c-0.4-0.8-0.9-1.7-1.3-2.5l6-3.5c0.5,0.9,1.1,1.9,1.5,2.9L447.9,31.5z M369.7,29.2l-6-3.5c0.5-0.9,1.1-1.9,1.7-2.8l5.8,3.8 C370.6,27.6,370.1,28.4,369.7,29.2z M443.9,24.9c-0.6-0.8-1.1-1.5-1.7-2.2l5.3-4.5c0.7,0.8,1.4,1.7,2,2.6L443.9,24.9z M374.1,22.9 l-5.3-4.4c0.7-0.8,1.4-1.6,2.2-2.4l5,4.8C375.3,21.4,374.7,22.1,374.1,22.9z M438.8,19.1c-0.7-0.6-1.4-1.3-2.1-1.9l4.4-5.3 c0.8,0.7,1.6,1.4,2.4,2.2L438.8,19.1z M379.6,17.4l-4.5-5.3c0.8-0.7,1.7-1.4,2.6-2l4.1,5.6C381,16.2,380.3,16.8,379.6,17.4z M432.7,14.3c-0.8-0.5-1.6-1-2.4-1.5l3.5-6c0.9,0.5,1.9,1.1,2.8,1.7L432.7,14.3z M385.9,12.9l-3.5-6c0.9-0.5,1.9-1.1,2.9-1.5 l3.1,6.2C387.5,12,386.7,12.4,385.9,12.9z M425.9,10.6c-0.9-0.4-1.7-0.7-2.6-1l2.4-6.5c1,0.4,2,0.8,3,1.2L425.9,10.6z M392.9,9.6 l-2.4-6.5c1-0.4,2.1-0.7,3.1-1l2,6.6C394.7,9,393.8,9.3,392.9,9.6z M418.6,8.1c-0.9-0.2-1.8-0.4-2.8-0.6l1.2-6.8 c1.1,0.2,2.1,0.4,3.2,0.7L418.6,8.1z M400.4,7.6l-1.2-6.8c1.1-0.2,2.1-0.3,3.2-0.5l0.8,6.9C402.2,7.3,401.3,7.5,400.4,7.6z M410.9,7c-0.9-0.1-1.8-0.1-2.7-0.1h-0.1V0h0.1c1,0,2.1,0,3.1,0.1L410.9,7z"></path> <rect x="345.9" y="95.8" transform="matrix(0.7071 -0.7071 0.7071 0.7071 36.5547 282.1396)" class="st3" width="25.8" height="2.3"></rect> <path class="st1" d="M467.2,253.3c-1.5,0-3-0.1-4.5-0.2l0.5-4.6c2.4,0.2,4.8,0.3,7.2,0.1l0.3,4.6 C469.5,253.2,468.4,253.3,467.2,253.3z M476.2,252.4l-0.9-4.5c2.3-0.5,4.7-1.2,6.9-2l1.7,4.3C481.4,251.1,478.8,251.9,476.2,252.4 z M457.1,252.1c-2.6-0.6-5.2-1.4-7.6-2.4l1.8-4.3c2.2,0.9,4.5,1.7,6.8,2.2L457.1,252.1z M489,247.7l-2.2-4.1c2.1-1.1,4.1-2.5,6-4 l2.9,3.6C493.5,245,491.3,246.5,489,247.7z M444.5,247.2c-2.3-1.3-4.5-2.9-6.6-4.6l3-3.5c1.8,1.5,3.8,2.9,5.9,4.1L444.5,247.2z M499.8,239.6l-3.3-3.2c1.7-1.7,3.2-3.6,4.6-5.6l3.8,2.6C503.3,235.6,501.6,237.7,499.8,239.6z M433.9,238.8 c-1.8-1.9-3.5-4.1-4.9-6.3l3.9-2.5c1.3,2,2.8,3.9,4.4,5.7L433.9,238.8z M507.7,228.6l-4.1-2.1c1.1-2.1,2-4.4,2.7-6.7l4.4,1.4 C509.9,223.7,508.9,226.2,507.7,228.6z M426.2,227.6c-1.2-2.4-2.1-4.9-2.8-7.5l4.4-1.3c0.6,2.3,1.5,4.6,2.5,6.7L426.2,227.6z M512,215.7l-4.6-0.8c0.4-2.3,0.6-4.8,0.6-7.2l0-0.2l4.6,0l0,0.2C512.7,210.4,512.5,213.1,512,215.7z M422.2,214.6 c-0.3-2.3-0.5-4.6-0.5-6.9c0-0.4,0-0.7,0-1.1l4.6,0.1c0,0.3,0,0.7,0,1c0,2.1,0.2,4.1,0.5,6.2L422.2,214.6z M507.8,202.6 c-0.3-2.4-0.8-4.7-1.5-7l4.4-1.4c0.8,2.5,1.4,5.2,1.7,7.8L507.8,202.6z M426.8,201.7l-4.6-0.7c0.4-2.6,1-5.3,1.9-7.8l4.4,1.5 C427.7,197,427.1,199.4,426.8,201.7z M504.5,190.8c-1-2.2-2.2-4.3-3.5-6.3l3.8-2.6c1.5,2.2,2.8,4.5,3.9,7L504.5,190.8z M430.3,190.1l-4.2-2c1.2-2.4,2.5-4.7,4.1-6.9l3.8,2.7C432.6,185.9,431.3,187.9,430.3,190.1z M497.8,180.6 c-1.6-1.8-3.3-3.5-5.2-4.9l2.9-3.6c2.1,1.7,4,3.5,5.8,5.5L497.8,180.6z M437.2,180l-3.4-3.1c1.8-2,3.8-3.8,5.9-5.4l2.8,3.7 C440.6,176.6,438.8,178.2,437.2,180z M488.5,172.8c-2-1.2-4.2-2.3-6.4-3.2l1.7-4.3c2.5,1,4.9,2.2,7.2,3.5L488.5,172.8z M446.7,172.4l-2.3-4c2.3-1.3,4.7-2.5,7.2-3.4l1.6,4.3C450.9,170.1,448.7,171.2,446.7,172.4z M477.2,168.1c-2.3-0.6-4.7-1-7.1-1.1 l0.3-4.6c2.7,0.2,5.3,0.6,7.9,1.3L477.2,168.1z M458,167.9l-1-4.5c2.6-0.6,5.3-1,7.9-1.1l0.2,4.6C462.7,167,460.3,167.4,458,167.9 z"></path> <polygon class="st4" points="394.8,86.3 394.6,70.7 383,70.7 383,37 386.7,37 386.7,67 398.3,67 398.3,71.7 400.9,67 432.5,67 432.5,33.1 390.7,33.1 390.7,29.4 436.2,29.4 436.2,70.7 403.1,70.7 "></polygon> <path class="st4" d="M387.6,31.3c0,1.5-1.2,2.8-2.8,2.8c-1.5,0-2.8-1.2-2.8-2.8c0-1.5,1.2-2.8,2.8-2.8 C386.3,28.5,387.6,29.7,387.6,31.3"></path> <path class="st0" d="M104.7,317.7C47,317.7,0,270.8,0,213.1c0-20.7,6.1-40.8,17.5-58l12.7,8.5c-9.8,14.7-14.9,31.8-14.9,49.5 c0,49.3,40.1,89.4,89.4,89.4c49.3,0,89.4-40.1,89.4-89.4c0-49.3-40.1-89.4-89.4-89.4c-16.3,0-32.2,4.4-46,12.7l-7.9-13.1 c16.2-9.8,34.9-14.9,53.9-14.9c57.7,0,104.6,46.9,104.6,104.7C209.3,270.8,162.4,317.7,104.7,317.7"></path> </g> <path class="st1" d="M49.8,143.2c0,6.5-5.3,11.8-11.8,11.8c-6.5,0-11.8-5.3-11.8-11.8c0-6.5,5.3-11.8,11.8-11.8 C44.5,131.4,49.8,136.7,49.8,143.2"></path> </g> </svg> 