<?xml version="1.0" encoding="UTF-8"?> <!-- Generator: Adobe Illustrator 24.0.3, SVG Export Plug-In . SVG Version: 6.00 Build 0) --> <svg xmlns="http://www.w3.org/2000/svg" xmlns:xlink="http://www.w3.org/1999/xlink" id="Layer_1" x="0px" y="0px" viewBox="0 0 433.2 332.6" style="enable-background:new 0 0 433.2 332.6;" xml:space="preserve"> <style type="text/css"> .st0{opacity:0.71;} .st1{fill:none;stroke:#FFFFFF;stroke-width:2.0712;stroke-miterlimit:10;} .st2{opacity:0.81;} .st3{fill:#FFFFFF;} .st4{fill:#FBFBFB;} .st5{fill:none;} .st6{fill:#FCC503;} .st7{fill:#FFC700;} </style> <g> <g class="st0"> <path class="st1" d="M111.2,250.7"></path> </g> <g class="st0"> <path class="st1" d="M110.5,163.9"></path> </g> <g class="st2"> <path class="st1" d="M95.1,152"></path> </g> <g class="st2"> <path class="st1" d="M107.1,246"></path> </g> <g class="st2"> <path class="st1" d="M91.9,132.4"></path> </g> <g class="st2"> <path class="st1" d="M95.3,119"></path> </g> <g class="st2"> <path class="st1" d="M209.3,148.7"></path> </g> <g class="st2"> <path class="st1" d="M250,188.7"></path> </g> <g class="st0"> <path class="st1" d="M270.4,53.3"></path> </g> <g class="st0"> <path class="st1" d="M205.1,102.4"></path> </g> <g class="st0"> <path class="st1" d="M207.2,161.1"></path> </g> <g class="st0"> <path class="st1" d="M249,194.7"></path> </g> <g class="st0"> <path class="st1" d="M324.7,198"></path> </g> <g class="st2"> <path class="st1" d="M275.5,59.6"></path> </g> <g class="st2"> <path class="st1" d="M210.6,123.8"></path> </g> <g class="st2"> <path class="st1" d="M323.6,192.5"></path> </g> <g class="st0"> <path class="st1" d="M257.8,281.1"></path> </g> <g class="st0"> <path class="st1" d="M303.2,292.6"></path> </g> <g class="st2"> <path class="st1" d="M299.4,276.3"></path> </g> <g class="st2"> <g> <path class="st3" d="M366.8,168.1L366.8,168.1c-2.1-0.2-3.6-2-3.5-4.1l0,0c0.2-2.1,2-3.6,4.1-3.5l0,0c2.1,0.2,3.6,2,3.5,4.1l0,0 c-0.2,2-1.8,3.5-3.8,3.5l0,0C367,168.1,366.9,168.1,366.8,168.1z M377.8,164.4c-0.4-2.1,1-4,3.1-4.4l0,0c2.1-0.4,4,1,4.4,3.1l0,0 c0.3,2.1-1,4-3.1,4.4l0,0c-0.2,0-0.4,0.1-0.6,0.1l0,0C379.8,167.5,378.1,166.2,377.8,164.4z M351.7,164.9c-2-0.7-3-2.8-2.4-4.8 l0,0c0.7-2,2.8-3,4.8-2.4l0,0c2,0.7,3,2.8,2.4,4.8l0,0c-0.5,1.6-2,2.6-3.6,2.6l0,0C352.6,165.1,352.2,165.1,351.7,164.9z M391.9,161.1c-0.9-1.9,0-4.2,1.9-5l0,0c1.9-0.9,4.2,0,5,1.9l0,0c0.9,1.9,0,4.2-1.9,5l0,0c-0.5,0.2-1,0.3-1.5,0.3l0,0 C394,163.3,392.6,162.5,391.9,161.1z M337.9,158.1c-1.8-1.2-2.2-3.5-1.1-5.3l0,0c1.2-1.7,3.5-2.2,5.3-1.1l0,0 c1.8,1.2,2.2,3.5,1.1,5.3l0,0c-0.7,1.1-1.9,1.7-3.2,1.7l0,0C339.3,158.7,338.6,158.5,337.9,158.1z M404.8,154.4 c-1.3-1.6-1-4,0.6-5.3l0,0c1.6-1.3,4-1,5.3,0.6l0,0c1.3,1.6,1,4-0.6,5.3l0,0c-0.7,0.5-1.5,0.8-2.3,0.8l0,0 C406.7,155.8,405.6,155.3,404.8,154.4z M326.2,148.1c-1.4-1.6-1.3-4,0.3-5.4l0,0c1.6-1.4,4-1.3,5.4,0.3l0,0 c1.4,1.6,1.3,4-0.3,5.4l0,0c-0.7,0.7-1.6,1-2.5,1l0,0C328,149.3,327,148.9,326.2,148.1z M415.6,144.8c-1.7-1.3-2-3.7-0.7-5.3l0,0 l0,0l0,0c1.3-1.7,3.7-2,5.3-0.7l0,0c1.7,1.3,2,3.7,0.7,5.3l0,0c-0.8,1-1.9,1.5-3,1.5l0,0C417.1,145.5,416.3,145.3,415.6,144.8z M317.4,135.4c-1-1.9-0.3-4.2,1.6-5.1l0,0c1.9-1,4.1-0.3,5.1,1.6l0,0c1,1.9,0.3,4.1-1.6,5.1l0,0c-0.6,0.3-1.2,0.4-1.8,0.4l0,0 C319.4,137.5,318.1,136.7,317.4,135.4z M423.7,132.7c-1.9-0.8-2.8-3-2-5l0,0c0,0,0,0,0,0l0,0c0.8-1.9,3-2.8,5-2l0,0 c1.9,0.8,2.8,3,2,5l0,0c-0.6,1.4-2,2.3-3.5,2.3l0,0C424.7,133,424.2,132.9,423.7,132.7z M312,121c-0.5-2,0.8-4.1,2.8-4.6l0,0 c2-0.5,4.1,0.8,4.6,2.8l0,0c0.5,2-0.8,4.1-2.8,4.6l0,0c-0.3,0.1-0.6,0.1-0.9,0.1l0,0C314,123.9,312.4,122.8,312,121z M428.5,119.1c-2.1-0.3-3.5-2.3-3.2-4.3l0,0l0,0l0,0c0.3-2.1,2.3-3.5,4.3-3.2l0,0c2.1,0.3,3.5,2.3,3.2,4.3l0,0 c-0.3,1.9-1.9,3.2-3.8,3.2l0,0C428.9,119.1,428.7,119.1,428.5,119.1z M314,109.6c-2.1,0-3.8-1.8-3.7-3.9l0,0 c0-2.1,1.8-3.8,3.9-3.7l0,0c2.1,0,3.8,1.8,3.7,3.9l0,0C317.9,107.9,316.2,109.6,314,109.6L314,109.6 C314.1,109.6,314.1,109.6,314,109.6z M425.7,101.2C425.7,101.2,425.7,101.2,425.7,101.2L425.7,101.2c-0.2-2.1,1.3-3.9,3.4-4.2 l0,0c2.1-0.2,3.9,1.3,4.2,3.4l0,0c0.2,2.1-1.3,3.9-3.4,4.2l0,0c-0.1,0-0.3,0-0.4,0l0,0C427.5,104.7,425.9,103.2,425.7,101.2z M315.1,95.1c-2-0.6-3.2-2.6-2.7-4.7l0,0c0-0.2,0.1-0.3,0.2-0.5l0,0c0-0.2,0.1-0.3,0.1-0.5l0,0c0.6-2,2.7-3.2,4.7-2.6l0,0 c2,0.6,3.2,2.7,2.6,4.7l0,0c0,0.1-0.1,0.3-0.1,0.4l0,0c0,0.1-0.1,0.3-0.1,0.4l0,0c0,0,0,0,0,0l0,0c-0.5,1.7-2,2.8-3.7,2.8l0,0 C315.8,95.2,315.5,95.2,315.1,95.1z M422.6,88.1c-0.7-2,0.3-4.1,2.3-4.9l0,0c2-0.7,4.2,0.3,4.9,2.3l0,0c0.7,2-0.3,4.2-2.3,4.9 l0,0c-0.4,0.2-0.9,0.2-1.3,0.2l0,0C424.6,90.6,423.2,89.6,422.6,88.1z M320.2,80.6c-1.8-1.1-2.4-3.4-1.3-5.2l0,0 c1.1-1.8,3.4-2.4,5.2-1.3l0,0c1.8,1.1,2.4,3.4,1.3,5.2l0,0l0,0l0,0c-0.7,1.2-2,1.9-3.3,1.9l0,0C321.5,81.1,320.8,80.9,320.2,80.6 z M416.4,76.1c-1.2-1.7-0.7-4.1,1-5.3l0,0c1.7-1.2,4.1-0.7,5.3,1l0,0c1.2,1.7,0.8,4.1-1,5.3l0,0c-0.7,0.5-1.4,0.7-2.1,0.7l0,0 C418.3,77.7,417.2,77.2,416.4,76.1z M328.3,68.6c-1.5-1.5-1.5-3.9,0-5.4l0,0c1.5-1.5,3.9-1.5,5.4,0l0,0c1.5,1.5,1.5,3.9,0,5.4 l0,0c-0.7,0.7-1.7,1.1-2.7,1.1l0,0C330,69.7,329,69.3,328.3,68.6z M407.4,66c-1.6-1.4-1.7-3.8-0.4-5.4l0,0 c1.4-1.6,3.8-1.7,5.4-0.4l0,0c1.6,1.4,1.7,3.8,0.4,5.4l0,0c-0.8,0.9-1.8,1.3-2.9,1.3l0,0C409,66.9,408.2,66.6,407.4,66z M339.1,58.9c-1.1-1.8-0.5-4.1,1.3-5.2l0,0c1.8-1.1,4.1-0.5,5.2,1.3l0,0c1.1,1.8,0.5,4.1-1.3,5.2l0,0l0,0l0,0 c-0.6,0.4-1.3,0.5-1.9,0.5l0,0C341.1,60.8,339.8,60.1,339.1,58.9z M396.2,58.5c-1.9-0.9-2.6-3.2-1.7-5.1l0,0 c0.9-1.9,3.2-2.6,5.1-1.7l0,0c1.9,0.9,2.6,3.2,1.7,5.1l0,0c-0.7,1.3-2,2.1-3.4,2.1l0,0C397.4,58.9,396.8,58.7,396.2,58.5z M352,52.3c-0.6-2,0.6-4.1,2.6-4.7l0,0c2-0.6,4.1,0.6,4.7,2.6l0,0c0.6,2-0.6,4.1-2.6,4.7l0,0c-0.4,0.1-0.7,0.2-1.1,0.2l0,0 C354,55,352.5,53.9,352,52.3z M383.5,53.9c-2-0.4-3.3-2.5-2.9-4.5l0,0c0.5-2,2.5-3.3,4.5-2.9l0,0c2,0.5,3.3,2.5,2.9,4.5l0,0 c-0.4,1.8-2,3-3.7,3l0,0C384,54,383.8,54,383.5,53.9z M366.1,49c-0.1-2.1,1.6-3.9,3.7-3.9l0,0c2.1-0.1,3.9,1.6,3.9,3.7l0,0 c0.1,2.1-1.6,3.9-3.7,3.9l0,0c0,0-0.1,0-0.1,0l0,0C367.9,52.7,366.2,51.1,366.1,49z"></path> </g> </g> <g class="st2"> <path class="st3" d="M373.6,143.4v-33.7h10.8l1.8-12.5h-12.7v-9.8c0-3.6,1.8-5.6,5.4-5.6h8.1V70.5c0,0-3.6-0.6-8.9-0.6 c-11.9,0-17.9,6.6-17.9,16.5v10.8h-10.8v12.5h10.8v33.7H373.6z"></path> </g> <g> <g> <g> <path class="st3" d="M219.2,196.4C219.1,196.4,219.1,196.4,219.2,196.4c-1,0-1.9,0-2.9-0.1l0.4-6c0.8,0.1,1.7,0.1,2.5,0.1 c0.4,0,0.8,0,1.2,0l0.2,6C220.1,196.4,219.6,196.4,219.2,196.4z M228.1,195.5l-1.2-5.9c1.2-0.2,2.4-0.6,3.6-0.9l1.8,5.8 C230.9,194.8,229.5,195.2,228.1,195.5z M208.9,195.2C208.9,195.2,208.8,195.2,208.9,195.2c-1.5-0.3-2.8-0.7-4.2-1.2l1.9-5.7 c1.2,0.4,2.4,0.7,3.6,1c0,0,0.1,0,0.1,0l-0.8,3L208.9,195.2z M209.5,192.4L209.5,192.4l0-0.1L209.5,192.4z M239.2,191.6 l-2.7-5.4c1.1-0.6,2.2-1.2,3.3-1.8l3.2,5.1C241.8,190.3,240.5,191,239.2,191.6z M197.8,191.1c-1.3-0.7-2.5-1.4-3.7-2.2l3.3-5 c1,0.7,2.1,1.3,3.2,1.9L197.8,191.1z M249,185l-4-4.5c0.9-0.8,1.8-1.7,2.7-2.6l4.4,4.1C251.1,183.1,250.1,184.1,249,185z M188.2,184.2c-1-1-2.1-2-3-3.1l4.5-4c0.8,0.9,1.7,1.8,2.6,2.7L188.2,184.2z M256.8,176.1l-5-3.3c0.7-1,1.3-2.1,1.9-3.2l5.3,2.8 C258.3,173.7,257.6,174.9,256.8,176.1z M180.6,175.1c-0.8-1.2-1.5-2.5-2.1-3.8l5.4-2.7c0.6,1.1,1.2,2.2,1.8,3.3L180.6,175.1z M262,165.5l-5.7-1.9c0.4-1.2,0.7-2.4,1-3.6l0-0.1l5.9,1.3l0,0.2C262.8,162.8,262.4,164.1,262,165.5z M175.7,164.3 c-0.4-1.4-0.8-2.8-1.1-4.2l5.9-1.2c0.2,1.2,0.6,2.4,0.9,3.6L175.7,164.3z M264.3,153.8l-6-0.4c0-0.8,0.1-1.6,0.1-2.3 c0-0.5,0-0.9,0-1.4l6-0.2c0,0.5,0,1.1,0,1.6C264.3,152,264.3,152.9,264.3,153.8z M173.8,152.7c0-0.5,0-1,0-1.5 c0-0.9,0-1.8,0.1-2.8l6,0.4c0,0.8-0.1,1.6-0.1,2.4c0,0.4,0,0.9,0,1.3L173.8,152.7z M257.5,143.2c-0.2-1.2-0.6-2.4-0.9-3.6 l5.8-1.8c0.4,1.4,0.8,2.8,1.1,4.2L257.5,143.2z M180.9,142.2l-5.9-1.3l0-0.1c0.3-1.3,0.7-2.7,1.1-4l5.7,1.9 C181.5,139.8,181.1,141,180.9,142.2z M254.1,133.5c-0.6-1.1-1.2-2.2-1.8-3.3l5.1-3.2c0.8,1.2,1.5,2.5,2.1,3.8L254.1,133.5z M184.4,132.7l-5.3-2.8c0.7-1.3,1.4-2.5,2.2-3.7l5,3.3C185.6,130.5,185,131.6,184.4,132.7z M248.4,125c-0.8-0.9-1.7-1.8-2.6-2.7 l4.1-4.4c1,1,2.1,2,3,3.1L248.4,125z M190.4,124.3l-4.4-4.1c1-1,2-2.1,3.1-3l4,4.5C192.1,122.6,191.2,123.4,190.4,124.3z M240.7,118.3c-1-0.7-2.1-1.3-3.2-1.9l2.8-5.3c1.3,0.7,2.5,1.4,3.7,2.2L240.7,118.3z M198.3,117.8l-3.2-5.1 c1.2-0.8,2.5-1.5,3.8-2.1l2.7,5.4C200.4,116.6,199.3,117.2,198.3,117.8z M231.4,113.9c-1.1-0.4-2.3-0.7-3.5-1l-0.1,0l1.4-5.9 l0.1,0c1.4,0.3,2.7,0.7,4,1.1L231.4,113.9z M207.6,113.6l-1.8-5.8c1.4-0.4,2.8-0.8,4.2-1.1l1.2,5.9 C210,112.9,208.8,113.2,207.6,113.6z M221.4,111.9c-1.2-0.1-2.5-0.1-3.7,0l-0.2-6c1.4-0.1,2.9,0,4.3,0.1L221.4,111.9z"></path> </g> </g> <g class="st2"> <g> <path class="st3" d="M218.5,151c-7.4,0-13.4-6-13.4-13.4c0-1.4,0.2-2.7,0.6-4l3.6,1.1c-0.3,0.9-0.4,1.9-0.4,2.9 c0,5.3,4.3,9.6,9.6,9.6c5.3,0,9.6-4.3,9.6-9.6c0-5.3-4.3-9.6-9.6-9.6c-0.8,0-1.5,0.1-2.2,0.3l-0.9-3.7c1-0.2,2.1-0.4,3.1-0.4 c7.4,0,13.4,6,13.4,13.4S225.9,151,218.5,151"></path> </g> <g> <path class="st3" d="M238.5,174.9h-40V173c0-11,9-20,20-20c11,0,20,9,20,20V174.9z M202.4,171.1h32.2c-0.9-8-7.8-14.3-16.1-14.3 C210.2,156.8,203.3,163.1,202.4,171.1"></path> </g> <g> <path class="st3" d="M210.6,126c1.7,0,3.1,1.4,3.1,3.1c0,1.7-1.4,3.1-3.1,3.1c-1.7,0-3.1-1.4-3.1-3.1 C207.5,127.4,208.9,126,210.6,126"></path> </g> </g> </g> <g> <g class="st2"> <g> <path class="st4" d="M72.5,332.6l-0.3-8.3c1.5-0.1,3.1-0.2,4.6-0.4l1.1,8.2l-0.2,0C75.9,332.4,74.2,332.5,72.5,332.6z M63.5,332.3c-1.7-0.2-3.5-0.4-5.2-0.7l1.4-8.2c1.5,0.2,3,0.4,4.6,0.6L63.5,332.3z M86.6,330.6l-2-8c1.5-0.4,3-0.8,4.4-1.3 l2.6,7.9C89.9,329.7,88.2,330.2,86.6,330.6z M49.7,329.7c-1.7-0.5-3.3-1.1-4.9-1.7l3-7.7c1.4,0.5,2.9,1,4.3,1.5L49.7,329.7z M99.9,325.8l-3.6-7.5c1.4-0.7,2.7-1.4,4.1-2.1l4.1,7.2C103,324.3,101.4,325.1,99.9,325.8z M36.6,324.2c-1.5-0.8-3-1.7-4.5-2.6 l4.5-7c1.3,0.8,2.6,1.6,4,2.3L36.6,324.2z M111.9,318.5l-5-6.6c1.2-0.9,2.4-1.9,3.6-2.9l5.5,6.2 C114.7,316.3,113.3,317.4,111.9,318.5z M24.9,316.3c-1.3-1.1-2.6-2.3-3.9-3.5l5.8-5.9c1.1,1.1,2.2,2.1,3.4,3.1L24.9,316.3z M122.2,308.9l-6.2-5.5c1-1.1,2-2.3,2.9-3.6l6.6,5C124.5,306.2,123.4,307.6,122.2,308.9z M15.1,306.2c-1.1-1.4-2.1-2.8-3.1-4.2 l6.9-4.7c0.9,1.3,1.8,2.5,2.7,3.7L15.1,306.2z M130.4,297.4l-7.2-4.1c0.8-1.3,1.5-2.7,2.1-4.1l7.5,3.6 C132.1,294.3,131.3,295.9,130.4,297.4z M7.5,294.3c-0.8-1.5-1.5-3.1-2.2-4.7l7.7-3.2c0.6,1.4,1.2,2.8,1.9,4.2L7.5,294.3z M136.2,284.5l-7.9-2.6c0.5-1.4,0.9-2.9,1.3-4.4l8,2C137.2,281.1,136.7,282.8,136.2,284.5z M2.4,281.1c-0.5-1.7-0.8-3.4-1.2-5.1 l8.1-1.6c0.3,1.5,0.6,3,1,4.5L2.4,281.1z M139.2,270.6l-8.2-0.9c0.2-1.5,0.3-3,0.3-4.6l8.3,0.3 C139.5,267.2,139.4,268.9,139.2,270.6z M0.1,267.2c-0.1-1.5-0.1-3-0.1-4.5l0-0.7l8.3,0.1l0,0.7c0,1.3,0,2.6,0.1,3.9L0.1,267.2z M131.1,257.3c0-0.5-0.1-0.9-0.1-1.4c-0.1-1.1-0.3-2.1-0.4-3.2l8.2-1.4c0.2,1.2,0.4,2.4,0.5,3.6c0.1,0.5,0.1,1,0.2,1.6 L131.1,257.3z M8.9,254.2l-8.2-1.2c0.2-1.7,0.6-3.4,0.9-5.1l8.1,1.8C9.4,251.2,9.1,252.7,8.9,254.2z M128.7,245 c-0.4-1.5-0.9-2.9-1.5-4.3l7.7-3c0.6,1.6,1.2,3.3,1.7,4.9L128.7,245z M11.9,242.1l-7.8-2.8c0.6-1.6,1.2-3.3,1.9-4.8l7.6,3.4 C12.9,239.3,12.4,240.7,11.9,242.1z M123.9,233.6c-0.7-1.3-1.5-2.7-2.3-3.9l7-4.5c0.9,1.5,1.8,3,2.6,4.5L123.9,233.6z M17.2,230.9l-7.1-4.3c0.9-1.5,1.9-2.9,2.9-4.3l6.7,4.8C18.9,228.3,18,229.6,17.2,230.9z M116.9,223.3c-1-1.2-2-2.3-3.1-3.4 l5.9-5.8c1.2,1.2,2.4,2.5,3.5,3.9L116.9,223.3z M24.7,221l-6.1-5.6c1.2-1.3,2.4-2.5,3.7-3.7l5.6,6.1 C26.8,218.8,25.8,219.8,24.7,221z M108,214.6c-1.2-0.9-2.4-1.9-3.7-2.7l4.7-6.9c1.4,1,2.8,2,4.2,3.1L108,214.6z M34,212.7 l-4.8-6.7c1.4-1,2.9-2,4.3-2.9l4.3,7.1C36.6,211,35.3,211.9,34,212.7z M97.5,207.9c-1.4-0.7-2.8-1.3-4.2-1.9l3.2-7.6 c1.6,0.7,3.2,1.4,4.7,2.2L97.5,207.9z M44.8,206.6l-3.4-7.6c1.6-0.7,3.2-1.4,4.8-1.9l2.8,7.8C47.7,205.4,46.2,205.9,44.8,206.6z M85.9,203.4c-1.5-0.4-3-0.7-4.5-1l1.6-8.1c1.7,0.3,3.4,0.7,5.1,1.2L85.9,203.4z M56.7,202.7l-1.8-8.1c1.7-0.4,3.4-0.7,5.1-0.9 l1.2,8.2C59.7,202.1,58.2,202.4,56.7,202.7z M73.6,201.4c-1.5-0.1-3.1-0.1-4.6-0.1l-0.1-8.3c1.7,0,3.5,0,5.2,0.1L73.6,201.4z"></path> </g> </g> <g> <g class="st2"> <polygon class="st3" points="113.1,292.2 29.8,292.2 29.8,243.1 35.5,243.1 35.5,286.5 107.4,286.5 107.4,237.8 40.8,237.8 40.8,232.1 113.1,232.1 "></polygon> </g> <g class="st2"> <path class="st3" d="M37.2,234.9c0,2.5-2.1,4.6-4.6,4.6c-2.5,0-4.6-2.1-4.6-4.6c0-2.5,2.1-4.6,4.6-4.6 C35.2,230.3,37.2,232.4,37.2,234.9"></path> </g> <g class="st2"> <rect x="54.7" y="294.7" class="st3" width="33" height="4.1"></rect> </g> </g> </g> <g class="st2"> <path class="st3" d="M88.4,97.8L88.4,97.8L88.4,97.8c-2.1-0.3-3.6-2.3-3.3-4.4l0,0c0.3-2.1,2.3-3.6,4.4-3.3l0,0 c2.1,0.3,3.6,2.3,3.3,4.4l0,0c-0.3,2-1.9,3.4-3.9,3.4l0,0C88.8,97.8,88.6,97.8,88.4,97.8z M98.1,94.5c-0.3-2.1,1.2-4.1,3.3-4.4 l0,0c2.1-0.3,4.1,1.2,4.4,3.3l0,0c0.3,2.1-1.2,4.1-3.3,4.4l0,0c-0.2,0-0.4,0-0.6,0l0,0C100,97.8,98.4,96.4,98.1,94.5z M74.9,93.9 L74.9,93.9L74.9,93.9c-2-0.9-2.8-3.2-1.9-5.2l0,0c0.9-2,3.2-2.8,5.2-1.9l0,0c2,0.9,2.8,3.2,1.9,5.2l0,0c-0.7,1.4-2.1,2.3-3.6,2.3 l0,0C76,94.2,75.4,94.1,74.9,93.9z M110.8,91.8c-0.9-2-0.1-4.3,1.9-5.2l0,0c2-0.9,4.3-0.1,5.2,1.9l0,0c0.9,2,0.1,4.3-1.9,5.2l0,0 c-0.5,0.2-1.1,0.4-1.6,0.4l0,0C112.9,94.1,111.5,93.3,110.8,91.8z M63,86.3L63,86.3L63,86.3c-1.6-1.4-1.8-3.9-0.4-5.5l0,0 c1.4-1.6,3.9-1.8,5.5-0.4l0,0c1.6,1.4,1.8,3.9,0.4,5.5l0,0c-0.8,0.9-1.9,1.3-3,1.3l0,0C64.7,87.2,63.8,86.9,63,86.3z M122.3,85.7 c-1.4-1.6-1.3-4.1,0.4-5.5l0,0c1.6-1.4,4.1-1.3,5.5,0.4l0,0c1.4,1.6,1.3,4.1-0.4,5.5l0,0c-0.7,0.6-1.7,1-2.6,1l0,0 C124.2,87,123.1,86.6,122.3,85.7z M53.8,75.6c-1.2-1.8-0.6-4.2,1.2-5.4l0,0c1.8-1.2,4.2-0.6,5.4,1.2l0,0c1.2,1.8,0.6,4.2-1.2,5.4 l0,0c-0.7,0.4-1.4,0.6-2.1,0.6l0,0C55.8,77.4,54.5,76.8,53.8,75.6z M131.6,76.6c-1.8-1.2-2.4-3.6-1.2-5.4l0,0 c1.2-1.8,3.6-2.4,5.4-1.2l0,0c1.8,1.2,2.4,3.6,1.2,5.4l0,0c-0.7,1.2-2,1.8-3.3,1.8l0,0C133,77.2,132.2,77,131.6,76.6z M47.9,62.8 L47.9,62.8L47.9,62.8c-0.6-2.1,0.6-4.2,2.6-4.8l0,0c2.1-0.6,4.2,0.6,4.8,2.6l0,0c0.6,2.1-0.6,4.2-2.6,4.8l0,0 c-0.4,0.1-0.7,0.2-1.1,0.2l0,0C50,65.6,48.4,64.5,47.9,62.8z M137.9,65.2c-2.1-0.6-3.3-2.8-2.7-4.8l0,0c0.6-2.1,2.8-3.3,4.8-2.7 l0,0c2.1,0.6,3.3,2.8,2.7,4.8l0,0c-0.5,1.7-2.1,2.8-3.8,2.8l0,0C138.6,65.4,138.3,65.3,137.9,65.2z M49.9,52.8 c-2.2,0-3.9-1.8-3.9-3.9l0,0l0,0l0,0c0-2.2,1.8-3.9,3.9-3.9l0,0c2.2,0,3.9,1.8,3.9,3.9l0,0C53.8,51,52,52.8,49.9,52.8L49.9,52.8 C49.9,52.8,49.9,52.8,49.9,52.8z M136.8,48.6L136.8,48.6c0-2.2,1.7-3.9,3.9-3.9l0,0c2.2,0,3.9,1.7,3.9,3.9l0,0 c0,2.2-1.7,3.9-3.9,3.9l0,0c0,0,0,0,0,0l0,0C138.6,52.5,136.9,50.8,136.8,48.6z M50.6,39.8c-2.1-0.6-3.3-2.8-2.6-4.9l0,0 c0.6-2.1,2.8-3.3,4.8-2.6l0,0c2.1,0.6,3.3,2.8,2.6,4.9l0,0c-0.5,1.7-2.1,2.8-3.7,2.8l0,0C51.4,39.9,51,39.9,50.6,39.8z M135.1,36.9c-0.6-2.1,0.5-4.2,2.6-4.9l0,0c2.1-0.6,4.2,0.5,4.9,2.6l0,0c0.6,2.1-0.5,4.2-2.6,4.9l0,0c-0.4,0.1-0.8,0.2-1.1,0.2 l0,0C137.1,39.7,135.6,38.6,135.1,36.9z M55,27.5c-1.8-1.2-2.3-3.6-1.2-5.4l0,0c1.2-1.8,3.6-2.3,5.4-1.2l0,0 c1.8,1.2,2.3,3.6,1.1,5.4l0,0c-0.7,1.2-2,1.8-3.3,1.8l0,0C56.4,28.2,55.7,28,55,27.5z M130,26.2c-1.2-1.8-0.7-4.2,1.1-5.4l0,0 c1.8-1.2,4.2-0.7,5.4,1.1l0,0c1.2,1.8,0.7,4.2-1.1,5.4l0,0c-0.7,0.4-1.4,0.6-2.1,0.6l0,0C132,27.9,130.8,27.3,130,26.2z M62.7,17 c-1.4-1.6-1.2-4.1,0.4-5.5l0,0l0,0l0,0c1.6-1.4,4.1-1.2,5.5,0.4l0,0c1.4,1.6,1.2,4.1-0.4,5.5l0,0c-0.7,0.6-1.6,0.9-2.5,0.9l0,0 C64.6,18.4,63.5,17.9,62.7,17z M122.2,17.3c-1.6-1.4-1.8-3.9-0.4-5.5l0,0c1.4-1.6,3.9-1.8,5.5-0.4l0,0c1.6,1.4,1.8,3.9,0.4,5.5 l0,0c-0.8,0.9-1.9,1.4-3,1.4l0,0C123.8,18.2,122.9,17.9,122.2,17.3z M73.1,9.1c-0.9-2,0-4.3,2-5.2l0,0c0,0,0,0,0,0l0,0 c2-0.9,4.3,0,5.2,1.9l0,0c0.9,2,0,4.3-2,5.2l0,0c-0.5,0.2-1.1,0.4-1.6,0.4l0,0C75.2,11.4,73.7,10.6,73.1,9.1z M112.2,11 c-2-0.9-2.9-3.2-2-5.2l0,0c0.9-2,3.2-2.9,5.2-2l0,0c2,0.9,2.9,3.2,2,5.2l0,0c-0.6,1.5-2.1,2.3-3.6,2.3l0,0 C113.2,11.3,112.7,11.2,112.2,11z M85.2,4.5c-0.3-2.1,1.2-4.1,3.3-4.4l0,0c2.1-0.3,4.1,1.2,4.4,3.3l0,0c0.3,2.1-1.2,4.1-3.3,4.4 l0,0c-0.2,0-0.4,0-0.5,0l0,0C87.2,7.8,85.5,6.4,85.2,4.5z M100.7,7.8c-2.1-0.3-3.6-2.2-3.4-4.4l0,0c0.3-2.1,2.2-3.6,4.4-3.4l0,0 l0,0l0,0c2.1,0.3,3.6,2.2,3.4,4.4l0,0c-0.3,2-1.9,3.4-3.9,3.4l0,0C101.1,7.8,100.9,7.8,100.7,7.8z"></path> </g> <g class="st2"> <g> <path class="st3" d="M88.8,43.4c-1.1,0-2-0.9-2-2c0-1.1,0.9-2,2-2c1.1,0,2,0.9,2,2C90.8,42.5,89.9,43.4,88.8,43.4 M88.8,41.2 c-0.1,0-0.2,0.1-0.2,0.2c0,0.1,0.1,0.2,0.2,0.2c0.1,0,0.2-0.1,0.2-0.2C89,41.3,88.9,41.2,88.8,41.2"></path> </g> <g> <path class="st3" d="M101.6,43.4c-1.1,0-2-0.9-2-2c0-1.1,0.9-2,2-2c1.1,0,2,0.9,2,2C103.6,42.5,102.7,43.4,101.6,43.4 M101.6,41.2c-0.1,0-0.2,0.1-0.2,0.2c0,0.1,0.1,0.2,0.2,0.2c0.1,0,0.2-0.1,0.2-0.2C101.8,41.3,101.7,41.2,101.6,41.2"></path> </g> <g> <g> <polygon class="st3" points="114,68.8 76.4,68.8 76.4,38 79.4,38 79.4,65.8 111,65.8 111,34.9 82.5,34.9 82.5,31.8 114,31.8 "></polygon> </g> <g> <path class="st3" d="M102.7,42.4h-2.2V30.5c0-2.9-2.4-5.3-5.3-5.3s-5.3,2.4-5.3,5.3v11.9h-2.2V30.5c0-4.1,3.3-7.4,7.4-7.4 s7.4,3.3,7.4,7.4V42.4z"></path> </g> <g> <rect x="86.9" y="39.4" class="st5" width="4" height="4"></rect> </g> <g> <rect x="99.6" y="39.4" class="st5" width="4" height="4"></rect> </g> <g> <path class="st3" d="M80.4,33.4c0,1.4-1.1,2.5-2.5,2.5c-1.4,0-2.5-1.1-2.5-2.5c0-1.4,1.1-2.5,2.5-2.5 C79.3,30.9,80.4,32,80.4,33.4"></path> </g> </g> </g> <g class="st2"> <path class="st3" d="M330.8,309.5c-0.2,0-0.4,0-0.6,0l0.1-4.8c2.6,0,5.2-0.2,7.7-0.7l0.9,4.8C336.2,309.3,333.5,309.5,330.8,309.5 z M321.6,308.6c-2.8-0.6-5.6-1.5-8.3-2.6l1.9-4.4c2.4,1,4.9,1.8,7.4,2.3L321.6,308.6z M347.3,306.4l-1.8-4.5 c2.4-1,4.7-2.2,6.9-3.6l2.6,4.1C352.6,304,350,305.3,347.3,306.4z M305.6,301.7c-2.4-1.6-4.6-3.5-6.6-5.6l-0.1-0.1l1.4-1.3 l2.1-2.1l0,0v0c1.8,1.9,3.8,3.5,5.9,5L305.6,301.7z M361.8,297l-1-1.1l-2.3-2.3l0.1-0.1h0c1.8-1.8,3.5-3.8,5-5.9l4,2.7 C365.8,292.7,363.9,294.9,361.8,297L361.8,297z M293.6,289.3c-1.6-2.4-2.9-5-4-7.7l4.5-1.8c1,2.4,2.2,4.7,3.6,6.9L293.6,289.3z M371.6,282.7l-4.4-1.9c1-2.4,1.8-4.9,2.3-7.4l4.7,1C373.7,277.2,372.8,280,371.6,282.7z M287.1,273.2c-0.5-2.7-0.7-5.4-0.7-8.1 l0-0.6l4.8,0.1l0,0.5c0,2.4,0.2,4.9,0.7,7.2L287.1,273.2z M375.2,265.7l-4.8-0.1c0-0.2,0-0.4,0-0.6c0-2.4-0.2-4.8-0.7-7.2l4.8-0.9 c0.5,2.6,0.7,5.4,0.7,8C375.2,265.3,375.2,265.5,375.2,265.7z M292.1,256.9l-4.7-1c0.6-2.8,1.5-5.6,2.6-8.3l4.4,1.9 C293.4,251.9,292.6,254.4,292.1,256.9z M367.6,250.5c-1-2.4-2.2-4.7-3.6-6.9l4.1-2.6c1.6,2.4,2.9,5,4,7.7L367.6,250.5z M298.2,242.7l-4-2.7c1.6-2.4,3.5-4.6,5.6-6.7l0.1-0.1l3.4,3.5l-0.1,0.1C301.3,238.6,299.6,240.6,298.2,242.7z M359.2,237.5 c0,0-0.1-0.1-0.1-0.1c-1.8-1.8-3.8-3.5-5.8-4.9l2.7-4c2.4,1.6,4.6,3.5,6.6,5.6l0.1,0.1L359.2,237.5z M309.3,231.9l-2.6-4.1 c2.4-1.6,5-2.9,7.7-4l1.8,4.5C313.8,229.3,311.5,230.5,309.3,231.9z M346.5,228.7c-2.4-1-4.9-1.8-7.4-2.4l1-4.7 c2.8,0.6,5.6,1.5,8.3,2.6L346.5,228.7z M323.7,226.2l-0.9-4.8c2.9-0.5,5.8-0.8,8.7-0.7l-0.1,4.8 C328.8,225.5,326.2,225.7,323.7,226.2z"></path> </g> <g> <g class="st2"> <g> <path class="st3" d="M331.7,275.6c-1.8,0-3.3-1.7-3.3-3.7c0-2,1.5-3.7,3.3-3.6c1.8,0,3.2,1.7,3.2,3.7 C334.9,273.9,333.5,275.6,331.7,275.6z M334,267.7l-4.5,0l-0.7-18.6l6,0L334,267.7z"></path> </g> </g> <g class="st2"> <polygon class="st3" points="357,280.4 305.6,280.3 328.2,241.4 330.5,242.8 310.4,277.5 352.3,277.6 332.3,242.9 334.7,241.5 "></polygon> </g> <g class="st2"> <circle class="st3" cx="331.4" cy="239" r="2.2"></circle> </g> </g> <g> <g> <g> <g> <rect x="247.5" y="6.3" class="st6" width="8.2" height="78.1"></rect> </g> <g> <rect x="247.5" y="230.3" class="st6" width="8.2" height="78.1"></rect> </g> <g> <rect x="321.6" y="156.3" transform="matrix(1 -1.907938e-03 1.907938e-03 1 -0.3054 0.6883)" class="st6" width="78.1" height="8.2"></rect> </g> <g> <rect x="97.6" y="156.8" transform="matrix(1 -1.907938e-03 1.907938e-03 1 -0.3067 0.261)" class="st6" width="78.1" height="8.2"></rect> </g> </g> </g> <g> <path class="st7" d="M250.1,294.4c-74,0-134.2-60.2-134.2-134.2c0-29.3,9.3-57.2,26.9-80.6l12.7,9.6 c-15.5,20.6-23.7,45.2-23.7,71c0,65.2,53,118.2,118.2,118.2c65.2,0,118.2-53,118.2-118.2c0-65.2-53-118.2-118.2-118.2 c-22.7,0-44.8,6.5-63.9,18.7l-8.6-13.4c21.6-13.9,46.7-21.2,72.5-21.2c74,0,134.2,60.2,134.2,134.2 C384.3,234.3,324.1,294.4,250.1,294.4z"></path> </g> <g class="st2"> <path class="st3" d="M176.5,66.4c0,7.9-6.8,14.1-14.8,13.3c-6.1-0.7-11.1-5.6-11.8-11.7c-0.9-8.1,5.4-14.9,13.3-14.9 C170.5,53,176.5,59,176.5,66.4"></path> </g> </g> </g> </svg> 