<?xml version="1.0" encoding="UTF-8"?> <!-- Generator: Adobe Illustrator 24.0.3, SVG Export Plug-In . SVG Version: 6.00 Build 0) --> <svg xmlns="http://www.w3.org/2000/svg" xmlns:xlink="http://www.w3.org/1999/xlink" id="Layer_1" x="0px" y="0px" viewBox="0 0 158.4 103.9" style="enable-background:new 0 0 158.4 103.9;" xml:space="preserve"> <style type="text/css"> .st0{fill:#FFA500;} .st1{fill:#FFFFFF;} </style> <g> <g> <g> <g> <circle class="st0" cx="6.2" cy="32.2" r="5.7"></circle> <path class="st0" d="M6.2,38.3c-3.4,0-6.2-2.8-6.2-6.2C0,28.8,2.8,26,6.2,26s6.2,2.8,6.2,6.2C12.3,35.6,9.6,38.3,6.2,38.3z M6.2,27C3.3,27,1,29.3,1,32.2s2.3,5.2,5.2,5.2s5.2-2.3,5.2-5.2S9,27,6.2,27z"></path> </g> </g> </g> <g> <g> <path class="st1" d="M56.1,91.3H16.2v-2.5c0-11,8.9-19.9,19.9-19.9c11,0,19.9,8.9,19.9,19.9V91.3z M21.4,86.3h29.4 c-1.2-7-7.3-12.4-14.7-12.4S22.6,79.3,21.4,86.3z"></path> <path class="st1" d="M36.1,68c-7.5,0-13.6-6.1-13.6-13.6s6.1-13.6,13.6-13.6S49.7,47,49.7,54.5S43.6,68,36.1,68z M36.1,45.9 c-4.7,0-8.6,3.9-8.6,8.6s3.9,8.6,8.6,8.6c4.7,0,8.6-3.9,8.6-8.6S40.9,45.9,36.1,45.9z"></path> </g> <path class="st1" d="M154.2,38.3c-0.2-0.2-22.5-16.8-35.8-27.1c-8.4-6.5-15.3-3.6-15.6-3.5l-0.2,0.1L68.8,21.3 c-2.7,1.2-5.2,2.4-7.1,6.3l-0.1,0.1l-3.5,6.4L52,30.8l3.4-6.4c3-6.2,7.3-8.1,10.4-9.6l0.6-0.3l33.6-13.3 c1.3-0.6,11.3-4.4,22.7,4.4c13.2,10.2,35.5,26.9,35.7,27L154.2,38.3z"></path> <path class="st1" d="M137.2,97.3c-4.4,0-9.1,0-13.4-0.1c-5.8-0.1-9.3-0.8-13.3-2.9l-0.3-0.2L66.1,65.9c-3.9-2.5-6.2-5.4-7.2-8.7 c-2.3-7.7,2.1-15.8,9.8-18c3.5-1,7.1-0.7,10.4,0.8l43.5,17.8l-2.7,6.5L76.1,46.3c-1.7-0.8-3.6-1-5.4-0.4c-4,1.2-6.2,5.4-5.1,9.3 c0.5,1.7,1.9,3.3,4.3,4.8l43.9,28.2c2.6,1.3,4.9,2,10,2.1c12.8,0.1,29.4,0,29.6,0l0.1,7C153.4,97.2,146,97.3,137.2,97.3z"></path> <polygon class="st1" points="114,56 107,56 107,35.2 16.1,35.2 16.1,28.2 114,28.2 "></polygon> <polygon class="st1" points="114,103.9 2.7,103.9 2.7,41.7 9.7,41.7 9.7,96.9 107,96.9 107,90.2 114,90.2 "></polygon> </g> </g> </svg> 