<?xml version="1.0" encoding="UTF-8"?> <svg xmlns="http://www.w3.org/2000/svg" id="Layer_1" data-name="Layer 1" viewBox="0 0 876.34 281.26"><defs><style>.cls-1{fill:#ff011f;}</style></defs><path class="cls-1" d="M308.5,21.3a21.16,21.16,0,0,1-42.32,0,21.16,21.16,0,1,1,42.32,0ZM269.27,216.87v-153H305.4v153Z"></path><path class="cls-1" d="M143.89,63.85,180,169.73,210.5,63.85h37.07l-49,153H162.11l-38-110L87,216.86H49.64L0,63.85H39l31.1,105.88L106.19,63.85Z"></path><path class="cls-1" d="M357.55,216.54c2.52,18.85,17.28,33,38.33,33,28.91,0,43.36-14.76,43.36-45.87v-16c-6.6,11.94-22,22.3-44.3,22.3-40.84,0-70.69-31.41-70.69-74.46,0-40.84,28.59-74.46,70.69-74.46,23.88,0,38.64,9.74,45.24,22.31V63.85h35.19V202.4c0,40.85-21.05,78.86-78.54,78.86-40.53,0-68.81-25.13-72.89-55.92Zm82.63-81.06c0-26.07-16.65-43-39.27-43-23.25,0-39.9,17-39.9,43,0,26.71,16,43.36,39.9,43.36C424.16,178.84,440.18,161.88,440.18,135.48Z"></path><path class="cls-1" d="M527.77,216.54c2.51,18.85,17.28,33,38.33,33,28.9,0,43.36-14.76,43.36-45.87v-16c-6.6,11.94-22,22.3-44.3,22.3-40.85,0-70.69-31.41-70.69-74.46,0-40.84,28.59-74.46,70.69-74.46C589,61,603.8,70.76,610.4,83.33V63.85h35.19V202.4c0,40.85-21.05,78.86-78.55,78.86-40.53,0-68.8-25.13-72.89-55.92Zm82.63-81.06c0-26.07-16.65-43-39.27-43-23.25,0-39.9,17-39.9,43,0,26.71,16,43.36,39.9,43.36C594.37,178.84,610.4,161.88,610.4,135.48Z"></path><path class="cls-1" d="M671.39,260a21.16,21.16,0,0,1,42.32,0,21.16,21.16,0,1,1-42.32,0ZM710.62,64.39v153H674.49v-153Z"></path><path class="cls-1" d="M776.75,216.86H740.31v-153h35.5V84.27c10.05-17.59,28.27-24.82,45.24-24.82,37.38,0,55.29,27,55.29,60.64v96.77H839.9V126.37c0-18.85-8.48-33.93-31.42-33.93-20.73,0-31.73,16-31.73,36.13Z"></path></svg> 