<?xml version="1.0" encoding="UTF-8"?> <svg xmlns="http://www.w3.org/2000/svg" id="svg21234" viewBox="0 0 1007.7 271.68"><defs><style>.cls-1{fill:#fff;}</style></defs><path id="path21187" class="cls-1" d="M996.94,245.76c0,8.79-7,15.17-16.72,15.17h-938c-9.22,0-15.18-6-15.18-15.17V42.67c0-9.22,6-15.19,15.18-15.19h938c9.69,0,16.72,6.39,16.72,15.19ZM8.29,8.16c0,.27-.14,271.54-.14,271.54l1007.56.14.14-271.68Z" transform="translate(-8.15 -8.16)"></path><path id="path21219" class="cls-1" d="M599.13,128.46c-3.92,3.93-10.31,5.92-19,5.92l-17.36,0V93.08h20.56c.28,0,10.17-.24,16.2,5.62,3.29,3.19,4.89,7.62,4.91,13.55,0,7.21-1.81,12.67-5.35,16.22m8.07-37.8C597.71,81.54,583.73,82,583.15,82l-42,0,0,11.07,8.88,0v92.29h-8.83v11.11h33.19V185.37H562.82V145.48l17.35,0c11.69,0,20.72-3.09,26.8-9.18,5.69-5.7,8.58-13.79,8.57-24.07,0-9-2.81-16.24-8.34-21.56M180.43,92.91l17.44.08c.3,0,10.2-.24,16.23,5.61,3.3,3.2,4.9,7.62,4.9,13.54,0,7.28-1.79,12.75-5.34,16.3-3.9,3.9-10.24,5.89-18.82,5.89H180.37l.06-41.42Zm51.62,92.46c-7.62-.9-6.59-10.94-6.59-10.94V160.86C225.13,147,212,143,212,143l-.64-.32a28.46,28.46,0,0,0,10.17-6.41c5.7-5.71,8.59-13.82,8.58-24.13,0-9-2.8-16.25-8.33-21.57-9.48-9.11-23.47-8.68-24-8.65l-39.09-.17,0,11.07,8.89,0v92.52h-8.67v11.11h32.89V185.37H180.31l.05-40h14.48l.91,0c.25,0,.47.07.74.09,19.35,2.41,17,16.95,17,16.95v16.24c-.3,16.71,13.24,17.7,13.24,17.7h11.16l.1-11h-6Zm-108-5c-6.33,5.74-16.09,5-16.18,4.93l-.25,0H85.74l.05-39.58H105c.14,0,13-.85,20.09,5.87,3.28,3.09,4.86,7.35,4.79,13-.08,7.05-2,12.37-5.81,15.79M104.59,93.35c.28,0,10.18-.23,16.2,5.62,3.31,3.19,4.9,7.63,4.9,13.54,0,7.22-1.78,12.67-5.32,16.22-4,3.94-10.32,5.93-19,5.93l-5.83,0H85.8l.06-41.33h18.73Zm28,50.13a28.56,28.56,0,0,0-6.91-4.7,26.83,26.83,0,0,0,2.52-2.22c5.7-5.7,8.59-13.79,8.58-24,0-9-2.82-16.25-8.35-21.57-9.47-9.11-23.47-8.68-24-8.65l-42,0V93.39l10.84,0c0,18.78-.09,72.59-.12,92H62.38V196.4h44.77c2,.16,14.8.75,24.19-7.67,6.24-5.58,9.44-13.64,9.56-24,.1-8.85-2.7-16-8.32-21.28m826.36-61H926.25v9.93h3.54c7.8,0,8.13,6,8.13,6h.15v70.41L871.63,82.49H849.82V92.65h9.23V180.4H859s-.31,6-8.12,6v10H880v-10c-7.82,0-8.14-6-8.14-6h-.08V103.78L941,196.34h9.76v-8.69h.08V98.41s.32-6,8.13-6h3.49V82.49ZM506.24,185.37V92.66h8.46V82.48H490.19l-36.28,80.83c-2.84,6.73-5.88,0-5.88,0L410,82.48H384.79V92.66h7.89v86.48h-.14s-.31,6.51-8.16,6.51v10.83h29.09V185.65c-5.46,0-7.21-3.25-7.8-5.15V105.38l42.59,86.94c1.75,4.59,4.93.91,4.93.91l40.32-89.44v81.58h-8.92v11.11h30.59V185.37Zm270.6-.24c-27.91,0-50.63-21.17-50.63-47.18s22.72-47.2,50.63-47.2,50.65,21.18,50.65,47.2-22.72,47.18-50.65,47.18m.34-106.69c-34.77,0-63,26.65-63,59.51s28.21,59.49,63,59.49,63-26.63,63-59.49-28.19-59.51-63-59.51M309.24,185.13c-27.92,0-50.65-21.17-50.65-47.18s22.73-47.2,50.65-47.2,50.63,21.18,50.63,47.2-22.71,47.18-50.63,47.18m.32-106.69c-34.77,0-63,26.65-63,59.51s28.19,59.49,63,59.49,62.95-26.63,62.95-59.49-28.18-59.51-62.95-59.51m319.05,4v18.18H636l3-8h24v92.72h-11.4v11h36.24v-11h-12.1V92.65h23l2.58,8h7.75V82.49Z" transform="translate(-8.15 -8.16)"></path></svg> 