<?xml version="1.0" encoding="UTF-8"?> <svg xmlns="http://www.w3.org/2000/svg" id="Livello_1" data-name="Livello 1" viewBox="0 0 330.13 149.95"><defs><style>.cls-1{stroke:#000;stroke-width:0.25px;}.cls-1,.cls-2,.cls-3,.cls-4,.cls-5{stroke-miterlimit:10;}.cls-2{fill:#29abe2;stroke:#29abe2;}.cls-3{fill:#c1272d;stroke:#c1272d;}.cls-4{fill:#998675;stroke:#998675;}.cls-5{fill:#006837;stroke:#006837;}</style></defs><path class="cls-1" d="M419.11,295.13h1.64V309.2h7.34v1.47h-9Z" transform="translate(-259.4 -183.63)"></path><path class="cls-1" d="M433,295.13h9.45v1.47h-7.81v7.28h7v1.44h-7v3.88h8.13v1.47H433Z" transform="translate(-259.4 -183.63)"></path><path class="cls-1" d="M447.13,302.9a7.73,7.73,0,0,1,8-7.95,7.17,7.17,0,0,1,5.42,2l-1.12,1.12a5.62,5.62,0,0,0-4.3-1.64,6.46,6.46,0,0,0,.14,12.92,7.21,7.21,0,0,0,4.59-1.41v-3.2h-4.61v-1.46h6.17v5.41a8.75,8.75,0,0,1-6.15,2.15A7.78,7.78,0,0,1,447.13,302.9Z" transform="translate(-259.4 -183.63)"></path><path class="cls-1" d="M471.68,295H472l6.58,15.7H476.8l-1.05-2.61h-7.86l-1,2.61h-1.62Zm3.47,11.68-2.74-6.9a17.84,17.84,0,0,1-.59-1.85s-.32,1.12-.62,1.85l-2.74,6.9Z" transform="translate(-259.4 -183.63)"></path><path class="cls-1" d="M483.37,295.13H485V309.2h7.34v1.47h-9Z" transform="translate(-259.4 -183.63)"></path><path class="cls-1" d="M503.67,302.9a7.73,7.73,0,0,1,8-7.95,7.16,7.16,0,0,1,5.41,2L516,298.08a5.62,5.62,0,0,0-4.29-1.64,6.46,6.46,0,0,0,.13,12.92,7.19,7.19,0,0,0,4.59-1.41v-3.2h-4.61v-1.46H518v5.41a8.73,8.73,0,0,1-6.15,2.15A7.78,7.78,0,0,1,503.67,302.9Z" transform="translate(-259.4 -183.63)"></path><path class="cls-1" d="M533.47,310.67h-1.94l-3-4.25a10,10,0,0,1-1.65.13H525v4.12H523.4V295.13h3.49c4.25,0,6.45,2.38,6.45,5.74a5.08,5.08,0,0,1-3.25,5Zm-6.67-5.55c3.52,0,4.82-1.81,4.82-4.25s-1.32-4.27-4.82-4.27H525v8.52Z" transform="translate(-259.4 -183.63)"></path><path class="cls-1" d="M538,302.9a8,8,0,1,1,8,8A7.78,7.78,0,0,1,538,302.9Zm14.25,0a6.27,6.27,0,1,0-6.28,6.46A6.19,6.19,0,0,0,552.24,302.9Z" transform="translate(-259.4 -183.63)"></path><path class="cls-1" d="M559,305.37V295.13h1.65v10.12c0,2.77,1.51,4.14,3.93,4.14s3.93-1.37,3.93-4.14V295.13h1.64v10.24c0,3.63-2.42,5.48-5.57,5.48S559,309,559,305.37Z" transform="translate(-259.4 -183.63)"></path><path class="cls-1" d="M576.17,295.13h3.52c4.25,0,6.42,2.36,6.42,5.85s-2.17,5.83-6.42,5.83h-1.88v3.86h-1.64Zm3.43,10.24c3.49,0,4.79-1.83,4.79-4.39s-1.3-4.38-4.79-4.38h-1.79v8.77Z" transform="translate(-259.4 -183.63)"></path><path d="M336.34,327.78c-39.1,0-70.91-31-70.91-69.17s31.81-69.17,70.91-69.17a71.33,71.33,0,0,1,60,32.42,40.28,40.28,0,0,1,6.45.58,76.57,76.57,0,0,0-66.48-38c-42,0-76.18,33.29-76.18,74.21s34.17,74.21,76.18,74.21A76.55,76.55,0,0,0,403,294.5a39.06,39.06,0,0,1-6.45.6A71.31,71.31,0,0,1,336.34,327.78Z" transform="translate(-259.4 -183.63)"></path><path d="M336.34,333.58c-42.43,0-76.94-33.63-76.94-75s34.51-75,76.94-75a77.48,77.48,0,0,1,67.15,38.43l.8,1.41-1.59-.27a39.13,39.13,0,0,0-6.34-.58H396l-.23-.35a70.27,70.27,0,0,0-59.38-32.07c-38.68,0-70.14,30.69-70.14,68.41S297.66,327,336.34,327a70.22,70.22,0,0,0,59.55-32.32l.22-.35h.41a39.14,39.14,0,0,0,6.33-.59l1.6-.28-.8,1.41A77.43,77.43,0,0,1,336.34,333.58Zm0-148.42c-41.58,0-75.41,33-75.41,73.45s33.83,73.45,75.41,73.45a75.92,75.92,0,0,0,65.17-36.56,39.07,39.07,0,0,1-4.56.36,71.75,71.75,0,0,1-60.61,32.68c-39.52,0-71.67-31.37-71.67-69.93s32.15-69.93,71.67-69.93a71.8,71.8,0,0,1,60.44,32.42,40.07,40.07,0,0,1,4.57.35A76,76,0,0,0,336.34,185.16Z" transform="translate(-259.4 -183.63)"></path><path class="cls-2" d="M383.8,257.91c0-13,10.29-22.11,23-22.11s23.1,9.09,23.1,22.11S419.63,280,406.83,280,383.8,270.94,383.8,257.91Zm41.18,0c0-10.29-7.66-18-18.15-18s-18.08,7.69-18.08,18,7.65,18,18.08,18S425,268.2,425,257.91Z" transform="translate(-259.4 -183.63)"></path><path class="cls-3" d="M440.15,271.25l4-2c2.11,3.62,5.22,6.74,11.55,6.74,5.21,0,9.31-2.8,9.31-7.38,0-4.38-2.84-6.6-8.45-9L453,258c-6.41-2.79-9.9-5.78-9.9-11.81,0-6.23,5.08-10.36,11.81-10.36,6,0,9.77,2.67,12.14,6.48l-3.83,2.29a9.17,9.17,0,0,0-8.31-4.7c-4.42,0-7.13,2.47-7.13,6.16s2.11,5.53,7.13,7.75l3.56,1.59c7.46,3.18,11.29,6.73,11.29,13.21,0,7.12-5.88,11.44-13.93,11.44C447.21,280,442.53,275.83,440.15,271.25Z" transform="translate(-259.4 -183.63)"></path><path class="cls-4" d="M484.83,235.8h.66l20.85,25.1,20.72-25.1h.73v43.71h-4.62V251c0-2,.2-4.95.2-4.95a46.64,46.64,0,0,1-3.17,4.51l-13.59,16.52h-.8l-13.39-16.52a51.25,51.25,0,0,1-3.24-4.51s.27,3,.27,4.95v28.53h-4.62Z" transform="translate(-259.4 -183.63)"></path><path class="cls-5" d="M542.9,257.91c0-13,10.29-22.11,23-22.11s23.1,9.09,23.1,22.11S578.73,280,565.93,280,542.9,270.94,542.9,257.91Zm41.18,0c0-10.29-7.66-18-18.15-18s-18.08,7.69-18.08,18,7.65,18,18.08,18S584.08,268.2,584.08,257.91Z" transform="translate(-259.4 -183.63)"></path></svg> 