<?xml version="1.0" encoding="UTF-8"?> <!-- Generator: Adobe Illustrator 24.3.0, SVG Export Plug-In . SVG Version: 6.00 Build 0) --> <svg xmlns="http://www.w3.org/2000/svg" xmlns:xlink="http://www.w3.org/1999/xlink" version="1.1" id="Layer_1" x="0px" y="0px" viewBox="0 0 419.5 134.2" style="enable-background:new 0 0 419.5 134.2;" xml:space="preserve"> <style type="text/css"> .st0{fill:#FFFFFF;} </style> <path class="st0" d="M24.4,60.1c0,5.9,0.2,10.1,2,12.1c1.4,1.6,3.3,2.6,12.7,2.6c13,0,14.9-0.6,20.3-12.7c1.2-0.6,2.7-0.3,3.7,0.7 c-1.2,5.8-2.8,11.5-4.9,17c-4.9-0.2-15-0.3-28.2-0.3H17.7c-6,0-11.9,0.1-16.8,0.3c-0.9-0.4-1.3-2.8-0.2-3.4l3.5-0.6 c5.5-0.9,6.6-1.1,6.6-13.3V18.8c0-12.2-1.1-12.6-6.6-13.4L0.9,4.9C0.1,4.3,0.1,2,1.1,1.5C7,1.8,12.3,1.9,17.7,1.9 c5.2,0,10.5-0.1,15.6-0.4c1.1,0.5,1.2,2.8,0.2,3.4L31,5.4c-5.5,0.9-6.6,1.2-6.6,13.4L24.4,60.1z"></path> <path class="st0" d="M120.9,62.5c0,12.5,1,12.8,6.6,13.5l2.6,0.3c0.8,0.8,0.7,2.9-0.2,3.4c-5.2-0.2-10.5-0.3-15.6-0.3 s-10.7,0.1-15.9,0.3c-0.9-0.5-1.1-2.6-0.2-3.4l2.6-0.3c5.5-0.7,6.6-1.1,6.6-13.5V18.8c0-12.5-1.1-12.8-6.6-13.5l-2.6-0.3 c-0.8-0.8-0.7-2.9,0.2-3.4c5.2,0.2,10.5,0.4,15.9,0.4c5.2,0,10.5-0.1,15.6-0.4c0.9,0.5,1.1,2.6,0.2,3.4l-2.6,0.3 c-5.5,0.7-6.6,1.1-6.6,13.5V62.5z"></path> <path class="st0" d="M181,19.5c0-10.7-0.1-12.6-5.1-13.2l-4.1-0.5c-0.8-0.8-0.8-2.8,0.1-3.3c8.2-0.9,15.3-1.1,26-1.1 c11.2,0,19.3,1.6,24.6,4.7c6.3,3.6,10.1,10.4,10,17.6c0,17.9-17,22.8-26.3,22.8c-1,0-2,0-2.9-0.1c-0.8-0.8-0.9-2-0.4-2.9 c10.7-2.1,14.6-9.9,14.6-19.5s-6.1-17.9-16.8-17.9c-5.9,0-6,0.3-6,4.9v51.4c0,12.5,1.1,12.8,6.6,13.4l4.4,0.5 c0.7,0.8,0.6,2.9-0.2,3.4c-6.9-0.2-12.2-0.3-17.4-0.3s-10.5,0.1-15.2,0.3c-0.9-0.5-1.1-2.6-0.2-3.4l1.9-0.2 c5.5-0.7,6.6-1.2,6.6-13.6L181,19.5z"></path> <path class="st0" d="M267.3,76.4c-2.1-2.5-3.6-10.6-3.5-17.9c0.9-1.1,2.5-1.3,3.6-0.5c2.1,6,8.5,18.6,20,18.6c8.9,0,14-5.4,14-12.6 c0-6.7-3.2-12.1-12-17l-5-2.8c-8.8-4.9-16.6-12.1-16.6-22.7c0-11.7,8.7-21.6,25.8-21.6c6.1,0,10.6,1.4,16.1,2.5 c1.3,2.6,2.5,10.4,2.5,15.9c-0.6,1.1-2.7,1.2-3.8,0.4c-1.8-6.1-5.9-14-15.9-14c-9.4,0-13.3,6.1-13.3,12.4c0,4.9,3.4,10.2,11.2,14.3 l7.3,3.9c7.6,4,16.1,11.3,16.1,23.2c0,13.4-10.2,22.9-27.3,22.9C275.7,81.4,269.6,77.8,267.3,76.4z"></path> <path class="st0" d="M373.6,55.6c0-6.6-0.6-8.3-3.8-14.6l-14.1-27.9c-2.6-5.1-3.5-6.3-8.8-7.5l-3.1-0.7c-0.7-0.8-0.5-3.1,0.5-3.4 c5.1,0.2,10,0.4,14.8,0.4c5.2,0,12.4-0.1,15-0.4c0.9,0.5,1.2,2.6,0.2,3.4l-3.5,0.6c-1.9,0.3-2.5,0.6-2.5,1.5s0.4,2.2,2.1,6.1 c4.6,10.1,8.9,19.6,13.6,28.2c4.8-8.9,9.2-17.2,13.8-26c2-4,3.2-6.6,3.2-7.9S400,6,398.4,5.8l-3.5-0.8c-0.8-0.8-0.8-2.8,0.4-3.4 c5.2,0.2,8.8,0.4,12.3,0.4s7.4-0.1,11.2-0.4c1.1,0.6,1.1,2.5,0.2,3.4l-3.4,0.7c-5.3,1.1-6.7,3.2-12.8,13.5 c-4,6.7-7.5,13.2-11.2,19.8c-3.5,6.1-4.3,8.6-4.3,16.6v7.1c0,12.5,1.1,12.8,6.8,13.4l4.5,0.5c0.8,0.8,0.7,2.9-0.2,3.4 c-7.3-0.2-12.6-0.3-17.8-0.3c-5.4,0-10.7,0.1-17,0.3c-0.9-0.5-1-2.6-0.2-3.4L367,76c5.5-0.7,6.6-0.9,6.6-13.4L373.6,55.6z"></path> <path class="st0" d="M98.2,133.9v-26.3h3.1v23.6h11.6v2.8H98.2z"></path> <path class="st0" d="M151.4,120.7c0,4.2-1.1,7.6-3.2,10s-5.1,3.7-8.9,3.6c-3.9,0-6.9-1.2-9-3.6s-3.2-5.7-3.2-10 c0-4.3,1.1-7.6,3.2-10s5.1-3.6,9-3.5c3.8,0,6.7,1.2,8.9,3.6S151.4,116.5,151.4,120.7z M130.4,120.7c0,3.6,0.8,6.3,2.3,8.1 c1.7,1.9,4.1,2.9,6.6,2.8c2.9,0,5.1-0.9,6.6-2.8c1.5-1.8,2.2-4.5,2.2-8.1c0-3.5-0.7-6.2-2.2-8.1c-1.5-1.8-3.7-2.8-6.6-2.8 c-2.5-0.2-5,0.9-6.6,2.8C131.2,114.5,130.4,117.1,130.4,120.7L130.4,120.7z"></path> <path class="st0" d="M189.9,133.9h-3.5L172,111.8h-0.1c0.2,2.6,0.3,5,0.3,7.1v15h-2.8v-26.4h3.5l14.4,22h0.1c0-0.3-0.1-1.4-0.2-3.1 s-0.1-3-0.1-3.8v-15.1h2.9L189.9,133.9z"></path> <path class="st0" d="M230.8,120.4c0,4.3-1.2,7.7-3.5,10c-2.4,2.3-5.8,3.5-10.2,3.4h-7.3v-26.4h8.1c4.1,0,7.3,1.1,9.6,3.4 C229.7,113.2,230.8,116.4,230.8,120.4z M227.6,120.5c0-3.4-0.9-6-2.6-7.8s-4.3-2.6-7.7-2.6h-4.4v21h3.7c3.6,0,6.4-0.9,8.2-2.7 C226.7,126.7,227.6,124,227.6,120.5L227.6,120.5z"></path> <path class="st0" d="M271,120.7c0,4.2-1.1,7.6-3.2,10s-5.1,3.7-8.9,3.6c-3.9,0-6.9-1.2-9-3.6s-3.2-5.7-3.2-10c0-4.3,1.1-7.6,3.2-10 c2.1-2.4,5.1-3.6,9-3.5c3.8,0,6.7,1.2,8.9,3.6S271,116.5,271,120.7z M250,120.7c0,3.6,0.8,6.3,2.3,8.1c1.7,1.9,4.1,2.9,6.6,2.8 c2.9,0,5.1-0.9,6.6-2.8c1.5-1.8,2.2-4.5,2.2-8.1c0-3.5-0.8-6.2-2.2-8.1c-1.6-1.9-4.1-2.9-6.6-2.8c-2.5-0.2-5,0.9-6.7,2.8 C250.8,114.5,250,117.1,250,120.7z"></path> <path class="st0" d="M309.5,133.9H306l-14.4-22.1h-0.1c0.2,2.6,0.3,5,0.3,7.1v15h-2.8v-26.4h3.5l14.4,22h0.1c0-0.3-0.1-1.4-0.2-3.1 s-0.1-3-0.1-3.8v-15.1h2.9L309.5,133.9z"></path> </svg> 