<?xml version="1.0" encoding="UTF-8"?> <svg xmlns="http://www.w3.org/2000/svg" id="Layer_1" data-name="Layer 1" viewBox="0 0 419.53 134.23"><defs><style>.cls-1{fill:#6e777e;}</style></defs><path class="cls-1" d="M24.4,60.08c0,5.88.23,10.11,2,12.11,1.41,1.64,3.29,2.58,12.69,2.58,13,0,14.93-.58,20.34-12.69a3.15,3.15,0,0,1,3.65.7,111,111,0,0,1-4.94,17c-4.94-.24-15-.35-28.22-.35H17.7c-6,0-11.88.11-16.82.35C-.06,79.36-.41,77,.65,76.42l3.52-.59c5.53-.94,6.59-1.06,6.59-13.28V18.81c0-12.23-1.06-12.58-6.59-13.4L.88,4.94C.06,4.35.06,2,1.12,1.53c5.88.23,11.17.35,16.58.35,5.17,0,10.46-.12,15.63-.35,1.06.47,1.18,2.82.24,3.41L31,5.41c-5.52.94-6.58,1.17-6.58,13.4Z"></path><path class="cls-1" d="M120.92,62.55c0,12.46,1,12.81,6.58,13.52l2.59.35c.82.82.7,2.94-.24,3.41-5.17-.24-10.46-.35-15.64-.35s-10.69.11-15.87.35c-.94-.47-1.06-2.59-.23-3.41l2.58-.35c5.53-.71,6.59-1.06,6.59-13.52V18.81c0-12.46-1.06-12.81-6.59-13.52l-2.58-.35c-.83-.82-.71-2.94.23-3.41q7.77.35,15.87.35c5.18,0,10.47-.12,15.64-.35.94.47,1.06,2.59.24,3.41l-2.59.35c-5.53.71-6.58,1.06-6.58,13.52Z"></path><path class="cls-1" d="M181,19.52c0-10.7-.12-12.58-5.06-13.17l-4.11-.47c-.83-.82-.83-2.82.12-3.29,8.22-.94,15.28-1.06,26-1.06,11.17,0,19.28,1.64,24.57,4.7a20,20,0,0,1,10,17.64c0,17.87-17,22.8-26.33,22.8a25.22,25.22,0,0,1-2.94-.11,2.35,2.35,0,0,1-.35-2.94c10.69-2.12,14.57-9.88,14.57-19.52S211.32,6.23,200.62,6.23c-5.88,0-6,.35-6,4.94V62.55c0,12.46,1.05,12.81,6.58,13.4l4.35.47c.71.82.59,2.94-.24,3.41-6.93-.24-12.22-.35-17.4-.35s-10.46.11-15.16.35c-.94-.47-1.06-2.59-.24-3.41l1.88-.24c5.53-.7,6.59-1.17,6.59-13.63Z"></path><path class="cls-1" d="M267.28,76.42c-2.12-2.47-3.65-10.58-3.53-17.87a2.62,2.62,0,0,1,3.65-.47c2.11,6,8.46,18.58,20,18.58,8.94,0,14-5.41,14-12.58,0-6.71-3.17-12.11-12-17l-5.05-2.82c-8.82-4.94-16.58-12.11-16.58-22.7C267.75,9.88,276.45,0,293.61,0c6.12,0,10.58,1.41,16.11,2.47,1.29,2.59,2.47,10.35,2.47,15.87-.59,1.06-2.71,1.18-3.76.35-1.77-6.11-5.88-14-15.87-14-9.41,0-13.29,6.12-13.29,12.35,0,4.94,3.41,10.23,11.17,14.34l7.29,3.88c7.64,4,16.11,11.29,16.11,23.16,0,13.4-10.23,22.93-27.28,22.93C275.74,81.36,269.63,77.83,267.28,76.42Z"></path><path class="cls-1" d="M373.56,55.61c0-6.58-.59-8.35-3.77-14.58l-14.1-27.86c-2.59-5.06-3.53-6.35-8.82-7.53l-3.06-.7c-.71-.82-.47-3.06.47-3.41q7.59.35,14.81.35c5.18,0,12.35-.12,15.05-.35.94.47,1.18,2.59.24,3.41l-3.53.59c-1.88.35-2.47.58-2.47,1.52s.35,2.24,2.12,6.12c4.58,10.11,8.93,19.63,13.64,28.21,4.82-8.93,9.17-17.16,13.75-26,2-4,3.18-6.58,3.18-7.88S400,6,398.36,5.76l-3.52-.82c-.83-.82-.83-2.82.35-3.41,5.17.23,8.82.35,12.34.35s7.41-.12,11.17-.35c1.06.59,1.06,2.47.24,3.41l-3.41.7c-5.29,1.06-6.7,3.18-12.82,13.52-4,6.71-7.52,13.17-11.17,19.76C388,45,387.19,47.5,387.19,55.49v7.06c0,12.46,1.06,12.81,6.82,13.4l4.47.47c.82.82.71,2.94-.24,3.41-7.28-.24-12.58-.35-17.75-.35-5.41,0-10.7.11-17.05.35-.94-.47-1.05-2.59-.23-3.41L367,76c5.53-.71,6.59-.94,6.59-13.4Z"></path><path class="cls-1" d="M98.23,133.87V107.53h3.07v23.56h11.62v2.78Z"></path><path class="cls-1" d="M151.39,120.66q0,6.33-3.2,10t-8.89,3.62q-5.82,0-9-3.56t-3.16-10q0-6.43,3.17-10t9-3.54q5.68,0,8.87,3.6T151.39,120.66Zm-21,0c0,3.57.76,6.27,2.28,8.12a8.09,8.09,0,0,0,6.62,2.76q4.38,0,6.61-2.75t2.23-8.13q0-5.31-2.22-8.06t-6.59-2.75a8.14,8.14,0,0,0-6.65,2.77Q130.4,115.38,130.4,120.66Z"></path><path class="cls-1" d="M189.9,133.87h-3.5L172,111.76h-.15c.2,2.6.29,5,.29,7.14v15h-2.83V107.53h3.46l14.36,22h.14c0-.32-.07-1.36-.16-3.12s-.11-3-.09-3.78V107.53h2.87Z"></path><path class="cls-1" d="M230.81,120.45q0,6.51-3.53,10t-10.19,3.45h-7.3V107.53h8.07q6.15,0,9.55,3.4T230.81,120.45Zm-3.24.1q0-5.14-2.58-7.76t-7.69-2.61h-4.45v21h3.73q5.47,0,8.24-2.69T227.57,120.55Z"></path><path class="cls-1" d="M271,120.66q0,6.33-3.2,10t-8.89,3.62q-5.82,0-9-3.56t-3.16-10q0-6.43,3.17-10t9-3.54q5.67,0,8.86,3.6T271,120.66Zm-21,0c0,3.57.76,6.27,2.28,8.12a8.1,8.1,0,0,0,6.62,2.76q4.38,0,6.61-2.75t2.24-8.13c0-3.54-.75-6.23-2.23-8.06a8,8,0,0,0-6.58-2.75,8.15,8.15,0,0,0-6.66,2.77Q250,115.38,250,120.66Z"></path><path class="cls-1" d="M309.46,133.87H306l-14.39-22.11h-.14q.29,3.9.28,7.14v15h-2.82V107.53h3.45l14.36,22h.15c0-.32-.08-1.36-.17-3.12s-.11-3-.09-3.78V107.53h2.87Z"></path></svg> 