<?xml version="1.0" encoding="UTF-8"?> <svg xmlns="http://www.w3.org/2000/svg" id="Layer_1" data-name="Layer 1" viewBox="0 0 453.54 396.85"><defs><style>.cls-1{fill:#6e777e;}</style></defs><polygon class="cls-1" points="196.33 371.27 202.22 352.19 189.57 371.28 196.33 371.27"></polygon><path class="cls-1" d="M321.87,433.3,419,264.16l-27.58-47.9L231,495.62l389.8,0,30.07-62.37Zm26.35,54.18H336l23.13-46.19h13.77a30.84,30.84,0,0,1,8.21.78,5.33,5.33,0,0,1,3.41,2.22,6.1,6.1,0,0,1,.9,3.63,21.53,21.53,0,0,1-1.82,6.63l-2.34,4.39c-2,3.1-4,4.39-5.41,5.75a13.38,13.38,0,0,1-5.39,3.11,24.45,24.45,0,0,1-7.78,1.62l-5.46.2Zm39.14,0,2.82-8.3h-8.91l-5,8.3H362.15l34.6-46.19H412l-11.71,46.19Zm65.57,0,2.82-8.3h-8.92l-5,8.3H401.93l23.13-46.19h12l-18,37h14.1l-2.28,4.95,31.37-41.9h15.27l-11.69,46.19Zm26.33.72c-4,0-4.82-.24-6.77-1.51A5.64,5.64,0,0,1,470,481a46,46,0,0,1,3.26-10.83s3.32-7,6.58-12.82c2.1-3.71,4.44-6.85,4.88-7.51a19.62,19.62,0,0,1,4.73-4.81,24.78,24.78,0,0,1,7.19-3.63,15.46,15.46,0,0,1,6.41-1.13q6,0,8.93,2.06a5.39,5.39,0,0,1,2.6,5.11c-.2,2-1.39,5.22-3.53,9.53l-.58,1.24H499l2.38-4.88c1.17-2.34,1.13-3.9.67-4.26-6.18-4.78-21.72,27.87-17.95,30.89.78.64,2.32.32,3.65-.76.76-.58,1.66-1.95,2.92-4.47l2.91-5.81H505l-.9,1.8a49.55,49.55,0,0,1-6.24,10.17,22.23,22.23,0,0,1-7.75,5.26,26.37,26.37,0,0,1-10.88,2m64-37.66H528.6l-4.39,8.75h14.14l-4.43,8.79H519.81l-5.09,10.16h15.64l-4.66,9.24H497.54l23.14-46.19h27.26Z" transform="translate(-197.34 -98.77)"></path><polygon class="cls-1" points="261.91 371.27 267.79 352.19 255.14 371.28 261.91 371.27"></polygon><path class="cls-1" d="M366.94,460.16a12.35,12.35,0,0,0,2.82-3.16l1.86-3.48c.54-1.62.32-2.14,0-2.6s-1.34-1-4.51-1.16l-5.56,11a22.33,22.33,0,0,0,2.38.23,5.13,5.13,0,0,0,3-.81" transform="translate(-197.34 -98.77)"></path><polygon class="cls-1" points="84.68 252.33 71.28 237.52 81.24 258.18 84.68 252.33"></polygon><path class="cls-1" d="M256.6,361.69c-1.12-1.3-1.67-1.37-2.25-1.33s-1.49.68-3.29,3.3l6.59,10.39a16.38,16.38,0,0,0,1.41-1.92,5.08,5.08,0,0,0,.85-3,12.24,12.24,0,0,0-1.27-4.05Z" transform="translate(-197.34 -98.77)"></path><polygon class="cls-1" points="118.1 195.83 104.72 181.04 114.68 201.69 118.1 195.83"></polygon><path class="cls-1" d="M481.79,361.11h62.38L391.35,100.44,197.34,431l30.47,62.6L391.35,208.46Zm-214.2,48.61L239.7,366.25l7-11.87a31.66,31.66,0,0,1,4.84-6.69,5.44,5.44,0,0,1,3.64-1.8,6.13,6.13,0,0,1,3.58,1.09,21.09,21.09,0,0,1,4.76,4.93l2.57,4.26c1.66,3.35,1.73,5.73,2.19,7.6a13.32,13.32,0,0,1-.06,6.21,24.7,24.7,0,0,1-2.59,7.56l-2.6,4.79,10.78,16.84Zm26.18-44.28-5.68-6.68-4.53,7.69,4.57,8.53-7.22,12.18-22-53.36,7.79-13.17,33.7,33.64Zm33.43-56.5-5.69-6.67L317,310l4.58,8.53-7.22,12.19L301.2,352.88l-27.86-43.47,6.11-10.35L302,333.36l7.19-12.15,3.08,4.5-20-48.4,7.77-13.17,33.71,33.65Zm17.89-32.74a26.56,26.56,0,0,1-3.85,10.41c-2,3.46-2.64,4-4.73,5.07a5.66,5.66,0,0,1-6.14-.71,46.63,46.63,0,0,1-7.64-8.34s-4.34-6.45-7.64-12.2c-2.12-3.69-3.63-7.33-4-8a20.47,20.47,0,0,1-1.71-6.53,24.78,24.78,0,0,1,.55-8.05,15.78,15.78,0,0,1,2.27-6.08q3.11-5.19,6.34-6.67a5.4,5.4,0,0,1,5.73.37c1.63,1.21,3.77,3.85,6.38,7.9l.77,1.12-5.85,9.91-3-4.54c-1.4-2.19-2.78-3-3.31-2.74C312,250,332.16,280,336.66,278.31c.95-.36,1.45-1.84,1.23-3.55-.14-.93-.84-2.41-2.37-4.79L332,264.5l5.87-9.91,1.1,1.7a50.5,50.5,0,0,1,5.55,10.57,23.11,23.11,0,0,1,.57,9.34m4.87-5.71L322.08,227,336,203.53l5.59,8.7-7.5,12.66,5.29,8.25,7.2-12.16,5.3,8.26-7.19,12.17,6.11,9.56,8-13.45,5.58,8.7Z" transform="translate(-197.34 -98.77)"></path><polygon class="cls-1" points="320.68 166.93 339.84 163.57 317.14 160.81 320.68 166.93"></polygon><polygon class="cls-1" points="286.55 107.61 305.71 104.25 283.01 101.48 286.55 107.61"></polygon><path class="cls-1" d="M365,365.54l-34.85,63.24H650.84l-193.91-330H394.55L551.3,365.54Zm74.17-203.46,51-.07,7.17,12.46a35.42,35.42,0,0,1,3.62,7.78c.48,1.81.44,3.18-.1,4.08a5.26,5.26,0,0,1-2.6,2.46,19.49,19.49,0,0,1-6.55,1.38l-4.92-.14c-3.65-.42-5.8-1.64-7.67-2.26a15,15,0,0,1-5.41-3.45,28.64,28.64,0,0,1-5.42-6.32l-3-4.84-19.74,0Zm26.76,46.5,8.49-1.21-4.66-8.07-9.61-.72-7.35-12.8,57,10.27,7.94,13.84-45,10.42ZM500,267.91l8.46-1.23-4.64-8.05-9.59-.74-6.72-11.68-14-24.45,51-.08,6.25,10.86-40.49.56,7.33,12.77-5.36.18,51.67,9.34,8,13.82-45.07,10.42Zm13.1,24.14c-2.09-3.62-2.32-4.46-2.26-6.8a5.11,5.11,0,0,1,3.46-4.85,41.85,41.85,0,0,1,10.84-2s7.66-.2,14.23.12c4.23.19,8.1.91,8.88,1a20.54,20.54,0,0,1,6.52,2.1,27.63,27.63,0,0,1,6.81,4.84,17.69,17.69,0,0,1,4.27,5.28c2.1,3.63,3.07,6.65,2.93,9s-1.14,3.93-3,4.69-5.12,1.13-9.9,1.14l-1.3.05-6-10.39,5.36-.07c2.58,0,3.86-.77,3.93-1.34.83-7.79-34.82-7-35.4-2.2-.12,1,1,2.25,2.55,3,.88.4,2.5.61,5.3.61l6.41,0,6,10.4h-2a49.38,49.38,0,0,1-11.82-1,24.65,24.65,0,0,1-8.48-4.61,30.38,30.38,0,0,1-7.35-8.95m38.07,27.55-11.19,0,8.12,14.12H537.9l-14.65-25.47,51-.09,14.19,24.65-10.21,0-7.65-13.3h-9.66l7.34,12.77h-9.71Z" transform="translate(-197.34 -98.77)"></path><path class="cls-1" d="M478.31,177.69a12.38,12.38,0,0,0,4.13,1.11l3.9.1c1.65-.25,2-.68,2.19-1.19s.1-1.65-1.37-4.61l-12.16,0c.74,1.69.91,2,1,2.26a5.7,5.7,0,0,0,2.27,2.36" transform="translate(-197.34 -98.77)"></path></svg> 